<svg xmlns="http://www.w3.org/2000/svg" width="253" height="56" viewBox="0 0 253 56">
    <g fill="none" fill-rule="evenodd">
        <g fill="#231F20" fill-rule="nonzero">
            <g>
                <path d="M43.07 39.67c-2.121-1.73-3.307-4.355-3.2-7.09-.086-2.128.506-4.23 1.69-6 1.127-1.58 3.107-2.78 5.94-3.6 3.865-.928 7.837-1.338 11.81-1.22h1.08c0-4.18-.57-7.14-1.73-8.89-1.104-1.734-3.057-2.739-5.11-2.63-1.647-.072-3.27.41-4.61 1.37-1.2.907-2.063 2.61-2.59 5.11h-4c-.017-1.4.09-2.799.32-4.18.208-1.117.72-2.155 1.48-3C45.67 7.847 49.287 7 55 7c4.8 0 8.467 1.26 11 3.78 2.533 2.52 3.793 6.3 3.78 11.34v19.46h-6.12l-2.52-3.24h-.36c-.542.781-1.219 1.458-2 2-1.916 1.406-4.256 2.112-6.63 2-3.913-.027-6.94-.917-9.08-2.67zm13.79-1.58c.779-.458 1.483-1.03 2.09-1.7.633-.694 1.123-1.506 1.44-2.39v-9h-1.08c-3.407 0-5.88.61-7.42 1.83-1.54 1.22-2.307 3.13-2.3 5.73-.104 1.603.325 3.196 1.22 4.53.825 1.063 2.116 1.657 3.46 1.59.9.034 1.793-.17 2.59-.59z" transform="translate(-81 -736) translate(81 736)"/>
                <path d="M74.43 53.46c2.23.112 4.448-.393 6.41-1.46 1.897-1.34 3.302-3.265 4-5.48l1.51-3.88-13-28.37c-1.567-3.513-3.8-5.45-6.7-5.81V7H73c1.984-.038 3.936.5 5.62 1.55 1.624 1.016 2.922 2.477 3.74 4.21l8.28 18.14 8.78-23.18h3.82L88.69 46.26c-1.333 3.74-2.893 6.297-4.68 7.67-1.947 1.397-4.306 2.102-6.7 2h-2.88v-2.47zM37.78 48.84c-3.51-1.752-6.653-4.159-9.26-7.09l-12.08-12.6V50H6.69l-.07-39.75c.124-1.944-.237-3.89-1.05-5.66-.667-1.233-2.067-1.847-4.2-1.84H.62V.5h9c1.42-.077 2.834.234 4.09.9 1.047.706 1.795 1.775 2.1 3 .48 1.911.692 3.88.63 5.85V24.5l13-16.13c1.673-2.226 3.7-4.161 6-5.73C37.602 1.2 40.152.453 42.75.5H48v2.62c-2.713-.062-5.418.333-8 1.17-2.274.805-4.267 2.25-5.74 4.16L23 22.25l17.33 18c1.848 2.048 3.952 3.85 6.26 5.36 1.686 1.248 3.614 2.13 5.66 2.59V50c-1.772.54-3.618.793-5.47.75-3.1 0-6.167-.65-9-1.91zM152.05 44.36c-2.578-1.505-4.676-3.71-6.05-6.36-2.787-5.652-2.787-12.278 0-17.93 1.362-2.637 3.442-4.835 6-6.34 5.722-3.12 12.638-3.12 18.36 0 2.56 1.502 4.64 3.701 6 6.34 2.787 5.652 2.787 12.278 0 17.93-1.362 2.634-3.443 4.829-6 6.33-5.722 3.12-12.638 3.12-18.36 0l.05.03zm14.8-4.86c1.42-3.29 2.084-6.859 1.94-10.44.144-3.581-.52-7.15-1.94-10.44-1.3-2.667-3.173-4-5.62-4s-4.317 1.333-5.61 4c-1.446 3.284-2.13 6.854-2 10.44-.13 3.586.554 7.156 2 10.44 1.293 2.667 3.163 4 5.61 4 2.447 0 4.32-1.333 5.62-4zM188.84 44.36c-2.555-1.504-4.635-3.698-6-6.33-2.787-5.652-2.787-12.278 0-17.93 1.362-2.637 3.442-4.835 6-6.34 5.722-3.12 12.638-3.12 18.36 0 2.56 1.502 4.64 3.701 6 6.34 2.787 5.652 2.787 12.278 0 17.93-1.362 2.634-3.443 4.829-6 6.33-5.722 3.12-12.638 3.12-18.36 0zm14.8-4.86c1.425-3.29 2.089-6.858 1.94-10.44.149-3.582-.515-7.15-1.94-10.44-1.333-2.667-3.207-4-5.62-4-2.44 0-4.32 1.32-5.61 4-1.446 3.284-2.13 6.854-2 10.44-.13 3.586.554 7.156 2 10.44 1.29 2.64 3.17 4 5.61 4 2.44 0 4.32-1.36 5.62-4zM220.7 21.5c.108-1.864-.235-3.727-1-5.43-.65-1.18-2-1.77-4-1.77h-.7v-2.16h7.13c1.31-.051 2.62.156 3.85.61.945.418 1.72 1.144 2.2 2.06 2.453-2.26 5.957-3.39 10.51-3.39s7.99 1.07 10.31 3.21c2.28 2.127 3.42 5.46 3.42 10V46H243V24.6c0-3.31-.61-5.74-1.83-7.27-1.201-1.525-3.06-2.384-5-2.31-1.332-.021-2.658.185-3.92.61-1.008.336-1.93.889-2.7 1.62l.21 1c.237.917.334 1.864.29 2.81V46h-9.35V21.5z" transform="translate(-81 -736) translate(81 736)"/>
                <path d="M127.88 3.87h-5.59c-2.94 0-5.19.7-6.73 2.1-1.54 1.4-2.33 3.7-2.33 6.9h-2.36V6.5c0-4 2.23-6 6.69-6h37v3.37h-16.44V50h-10.24V3.87z" transform="translate(-81 -736) translate(81 736)"/>
            </g>
        </g>
    </g>
</svg>
