<svg xmlns="http://www.w3.org/2000/svg" width="750" height="472" viewBox="0 0 750 472">
    <g fill="none" fill-rule="evenodd">
        <g fill-rule="nonzero">
            <g>
                <path fill="#2A84AF" d="M0 0H750V472H0z" transform="translate(-51 -820) translate(51 820)"/>
                <path fill="#FFF" d="M90.75 39.47c-9.6 3.6-21.8 13.2-21.8 23.2 0 7 7 8.2 13.8 9.2 9.2 1.6 13.2 8.2 13.2 14.2 0 7-5.2 13.4-14.4 13.4-10.6 0-21.8-8.2-21.8-25 0-21.6 17-32.4 30.6-36.2l.4 1.2zm42.8 0c-9.6 3.6-21.8 13.2-21.8 23.2 0 7 6.8 8.2 13.6 9.2 9.4 1.6 13.4 8.2 13.4 14.2 0 7-5.4 13.4-14.6 13.4-10.4 0-21.8-8.2-21.8-25 0-21.6 17.2-32.4 30.8-36.2l.4 1.2zM605.63 377.92c9.6-3.6 21.8-13.2 21.8-23.2 0-7-7-8-13.8-9.2-9.2-1.6-13.2-8-13.2-14.2 0-7 5.4-13.4 14.6-13.4 10.4 0 21.8 8.2 21.8 25 0 21.6-17.2 32.4-30.8 36.2l-.4-1.2zm42.6 0c9.6-3.6 21.8-13.2 21.8-23.2 0-7-6.8-8-13.6-9.2-9.4-1.6-13.4-8-13.4-14.2 0-7 5.4-13.4 14.6-13.4 10.4 0 21.8 8.2 21.8 25 0 21.6-17.2 32.4-30.8 36.2l-.4-1.2z" transform="translate(-51 -820) translate(51 820)"/>
                <g fill="#FFF">
                    <path d="M6.91 15.84L4.18 15.84.39 2.09 3.25 2.09 5.65 12.56 8.51 2.09 11.59 2.09 14.49 12.56 16.87 2.09 19.6 2.09 15.82 15.84 13.05 15.84 10.01 5.21zM22.42 11.33c.11 1.65 1.23 2.77 3.04 2.77 1.08 0 2.24-.35 3.17-.92l.33 2.16c-.97.53-2.31.84-3.67.84-3.26 0-5.41-2.07-5.41-5.3 0-3.3 2.2-5.5 5.24-5.5 2.68 0 4.18 1.63 4.18 4.11 0 .55-.09 1.25-.22 1.69l-6.64.09v.06h-.02zm4.42-1.6v-.18c0-1.36-.59-2.22-1.94-2.22-1.43 0-2.29 1.17-2.42 2.42l4.36-.02zM40.04 16.17c-2.27 0-3.45-.99-3.37-3.43l.15-4.78-1.58-.18.07-1.65 1.58-.51.04-2.24h2.51l-.04 2.38h2.86l-.07 2.13h-2.95l-.13 4.69c-.02.95.46 1.39 1.34 1.39.53 0 1.06-.13 1.58-.31l.35 2.11c-.76.27-1.46.4-2.34.4zM46.92 15.84h-2.6V5.76l2.6-.37v1.65c.64-1.08 1.45-1.67 2.64-1.67.62 0 1.25.13 1.8.46l-.57 2.33c-.48-.26-.97-.4-1.45-.4-.9 0-1.74.57-2.42 1.8v6.28zM54.23 3.85c-1.01 0-1.58-.62-1.58-1.56 0-.92.57-1.56 1.58-1.56 1.03 0 1.61.64 1.61 1.56-.01.95-.58 1.56-1.61 1.56zm-1.3 11.99V5.76l2.6-.37v10.45h-2.6zM60.25 11.33c.11 1.65 1.23 2.77 3.04 2.77 1.08 0 2.24-.35 3.17-.92l.33 2.16c-.97.53-2.31.84-3.67.84-3.26 0-5.41-2.07-5.41-5.3 0-3.3 2.2-5.5 5.24-5.5 2.68 0 4.18 1.63 4.18 4.11 0 .55-.09 1.25-.22 1.69l-6.64.09v.06h-.02zm4.43-1.6v-.18c0-1.36-.59-2.22-1.94-2.22-1.43 0-2.29 1.17-2.42 2.42l4.36-.02zM75.96 1.15l2.6-.35v15.05h-2.6v-.99c-.68.66-1.61 1.32-2.86 1.32-2.68 0-4.42-2.18-4.42-5.32 0-3.23 2.24-5.48 5.13-5.48.73 0 1.52.13 2.16.33V1.15h-.01zm-1.91 6.29c-1.74 0-2.73 1.43-2.73 3.3 0 1.98.99 3.24 2.55 3.24.86 0 1.52-.31 2.09-.84v-5.1c-.5-.38-1.14-.6-1.91-.6zM88.85 5.7v6.18c0 1.5.62 1.98 1.72 1.98.92 0 1.74-.42 2.22-.88V5.7h2.6v10.08l-2.6.35v-1.5c-.84.9-2.05 1.54-3.34 1.54-1.98 0-3.19-1.32-3.19-3.5V5.7h2.59zM101.3 16.2c-1.32 0-2.93-.37-3.94-.95l.57-2.02c1.01.57 2.31.95 3.43.95 1.01 0 1.67-.42 1.67-1.12 0-.79-.86-1.08-2.05-1.36-1.91-.44-3.43-1.23-3.43-3.15s1.61-3.17 4.05-3.17c1.25 0 2.75.33 3.7.81l-.57 2.02c-.99-.51-2.29-.84-3.19-.84-.95 0-1.52.35-1.52 1.01 0 .77.86 1.04 2.05 1.32 1.94.46 3.45 1.21 3.45 3.19.01 1.9-1.62 3.31-4.22 3.31zM108.94 3.85c-1.01 0-1.58-.62-1.58-1.56 0-.92.57-1.56 1.58-1.56 1.03 0 1.61.64 1.61 1.56 0 .95-.58 1.56-1.61 1.56zm-1.3 11.99V5.76l2.6-.37v10.45h-2.6zM119.61 15.84V9.66c0-1.5-.59-2-1.76-2-.9 0-1.74.46-2.24.95v7.24h-2.6V5.75l2.6-.35v1.61c.9-.99 2.11-1.63 3.34-1.63 2.05 0 3.26 1.32 3.26 3.5v6.97h-2.6v-.01zM124.34 14.5c0-.92.75-1.76 1.87-2.13-1.12-.57-1.85-1.72-1.85-3.12 0-2.09 1.65-3.87 4.47-3.87 1.14 0 2.16.33 2.86.64l2.73-.24.11 2.27-1.94-.33c.26.29.46 1.06.46 1.58 0 2.07-1.74 3.7-4.25 3.7-.48 0-.84-.04-1.39-.18-.35.13-.79.46-.79.88 0 .55.46.79 2.09.79h1.06c2.9 0 4.55.81 4.55 2.79 0 2.4-2.71 4.05-5.92 4.05-2.68 0-4.82-.99-4.82-2.82 0-1.06.77-2 2.29-2.25-.87-.31-1.53-.94-1.53-1.76zm1.6 3.48c0 .95 1.17 1.61 2.88 1.61 1.78 0 3.15-.66 3.15-1.72 0-.95-.92-1.17-2.82-1.17-.64 0-1.52-.04-1.94-.09-.71.27-1.27.75-1.27 1.37zm2.91-6.69c1.17 0 1.83-.84 1.83-2.11 0-1.21-.64-2.05-1.94-2.05-1.14 0-1.87.86-1.87 2.13 0 1.22.72 2.03 1.98 2.03zM144.56 16.17c-2.27 0-3.45-.99-3.37-3.43l.15-4.78-1.58-.18.07-1.65 1.58-.51.04-2.24h2.51l-.04 2.38h2.86l-.07 2.13h-2.95l-.13 4.69c-.02.95.46 1.39 1.34 1.39.53 0 1.06-.13 1.58-.31l.35 2.11c-.76.27-1.46.4-2.34.4zM155.45 15.84V9.66c0-1.5-.59-2-1.69-2-.97 0-1.8.46-2.31.95v7.24h-2.6V1.15l2.6-.35v6.18c.9-.99 2.11-1.61 3.43-1.61 1.96 0 3.17 1.32 3.17 3.5v6.97h-2.6zM162.71 11.33c.11 1.65 1.23 2.77 3.04 2.77 1.08 0 2.24-.35 3.17-.92l.33 2.16c-.97.53-2.31.84-3.67.84-3.26 0-5.41-2.07-5.41-5.3 0-3.3 2.2-5.5 5.24-5.5 2.68 0 4.18 1.63 4.18 4.11 0 .55-.09 1.25-.22 1.69l-6.64.09v.06h-.02zm4.42-1.6v-.18c0-1.36-.59-2.22-1.94-2.22-1.43 0-2.29 1.17-2.42 2.42l4.36-.02zM183.43 1.15l2.6-.35v15.05h-2.6v-.99c-.68.66-1.61 1.32-2.86 1.32-2.68 0-4.42-2.18-4.42-5.32 0-3.23 2.24-5.48 5.13-5.48.73 0 1.52.13 2.16.33V1.15h-.01zm-1.91 6.29c-1.74 0-2.73 1.43-2.73 3.3 0 1.98.99 3.24 2.55 3.24.86 0 1.52-.31 2.09-.84v-5.1c-.51-.38-1.14-.6-1.91-.6zM193.33 16.17c-2.97 0-5.13-2.02-5.13-5.39 0-3.34 2.27-5.43 5.26-5.43 2.99 0 5.13 2.07 5.13 5.41 0 3.32-2.29 5.41-5.26 5.41zm.04-8.73c-1.69 0-2.62 1.36-2.62 3.32 0 1.94.97 3.3 2.66 3.3 1.67 0 2.6-1.32 2.6-3.28 0-1.95-.97-3.34-2.64-3.34zM200.04 11.62L200.04 9.4 206.25 9.4 206.25 11.62zM209.56 3.85c-1.01 0-1.58-.62-1.58-1.56 0-.92.57-1.56 1.58-1.56 1.03 0 1.61.64 1.61 1.56 0 .95-.57 1.56-1.61 1.56zm-1.29 11.99V5.76l2.6-.37v10.45h-2.6zM217.22 16.17c-2.27 0-3.45-.99-3.37-3.43l.15-4.78-1.58-.18.07-1.65 1.58-.51.04-2.24h2.51l-.04 2.38h2.86l-.07 2.13h-2.95l-.13 4.69c-.02.95.46 1.39 1.34 1.39.53 0 1.06-.13 1.58-.31l.35 2.11c-.76.27-1.46.4-2.34.4zM220.67 11.62L220.67 9.4 226.88 9.4 226.88 11.62zM234.12 15.65l-.59 1.58c-1.01 2.77-2.16 3.61-4.03 3.61-.92 0-1.76-.22-2.57-.59l.77-2.13c.59.29 1.08.48 1.61.48.75 0 1.14-.33 1.69-1.72l.44-1.17-3.96-10.01h2.79l2.53 7.26 2.42-7.26h2.77l-3.87 9.95zM243.88 16.17c-2.97 0-5.13-2.02-5.13-5.39 0-3.34 2.27-5.43 5.26-5.43 2.99 0 5.13 2.07 5.13 5.41 0 3.32-2.28 5.41-5.26 5.41zm.05-8.73c-1.69 0-2.62 1.36-2.62 3.32 0 1.94.97 3.3 2.66 3.3 1.67 0 2.6-1.32 2.6-3.28 0-1.95-.97-3.34-2.64-3.34zM253.83 5.7v6.18c0 1.5.62 1.98 1.72 1.98.92 0 1.74-.42 2.22-.88V5.7h2.6v10.08l-2.6.35v-1.5c-.84.9-2.05 1.54-3.34 1.54-1.98 0-3.19-1.32-3.19-3.5V5.7h2.59zM265.73 15.84h-2.6V5.76l2.6-.37v1.65c.64-1.08 1.45-1.67 2.64-1.67.62 0 1.25.13 1.8.46l-.57 2.33c-.48-.26-.97-.4-1.45-.4-.9 0-1.74.57-2.42 1.8v6.28zM274.95 16.2c-1.32 0-2.93-.37-3.94-.95l.57-2.02c1.01.57 2.31.95 3.43.95 1.01 0 1.67-.42 1.67-1.12 0-.79-.86-1.08-2.05-1.36-1.91-.44-3.43-1.23-3.43-3.15s1.61-3.17 4.05-3.17c1.25 0 2.75.33 3.7.81l-.57 2.02c-.99-.51-2.29-.84-3.19-.84-.95 0-1.52.35-1.52 1.01 0 .77.86 1.04 2.05 1.32 1.94.46 3.45 1.21 3.45 3.19 0 1.9-1.63 3.31-4.22 3.31zM283.24 11.33c.11 1.65 1.23 2.77 3.04 2.77 1.08 0 2.24-.35 3.17-.92l.33 2.16c-.97.53-2.31.84-3.67.84-3.26 0-5.41-2.07-5.41-5.3 0-3.3 2.2-5.5 5.24-5.5 2.68 0 4.18 1.63 4.18 4.11 0 .55-.09 1.25-.22 1.69l-6.64.09v.06h-.02zm4.42-1.6v-.18c0-1.36-.59-2.22-1.94-2.22-1.43 0-2.29 1.17-2.42 2.42l4.36-.02zM292.26 15.84L292.26 1.14 294.86.79 294.86 15.84 292.26 15.84zM303.61 3.26c-.48-.22-1.06-.42-1.65-.42-.95 0-1.34.55-1.34 1.8v1.12h3.01l-.07 2.13h-2.88v7.94h-2.6V7.91l-1.76-.13.09-1.65 1.65-.48.02-1.08c.07-2.9 1.41-4.05 3.67-4.05.99 0 1.89.29 2.4.51.01.03-.54 2.25-.54 2.23zM312.08 15.89L309.07 5.7 311.78 5.7 313.54 12.83 315.56 5.72 318.16 5.72 320.34 12.78 321.86 5.7 324.61 5.7 321.64 15.89 319.09 15.89 316.82 8.76 314.62 15.89 312.08 15.89zM328.19 11.33c.11 1.65 1.23 2.77 3.04 2.77 1.08 0 2.24-.35 3.17-.92l.33 2.16c-.97.53-2.31.84-3.67.84-3.26 0-5.41-2.07-5.41-5.3 0-3.3 2.2-5.5 5.24-5.5 2.68 0 4.18 1.63 4.18 4.11 0 .55-.09 1.25-.22 1.69l-6.64.09v.06h-.02zm4.42-1.6v-.18c0-1.36-.59-2.22-1.94-2.22-1.43 0-2.29 1.17-2.42 2.42l4.36-.02zM341.96 16.15c-.66 0-1.61-.13-2.27-.35l-2.49.37V1.14l2.6-.35v5.88c.68-.66 1.61-1.3 2.84-1.3 2.68 0 4.44 2.18 4.44 5.3 0 3.24-2.24 5.48-5.12 5.48zm-.07-8.6c-.86 0-1.52.33-2.09.84v5.13c.48.37 1.14.57 1.91.57 1.74 0 2.73-1.41 2.73-3.3 0-1.99-.94-3.24-2.55-3.24zM352.34 16.2c-1.32 0-2.93-.37-3.94-.95l.57-2.02c1.01.57 2.31.95 3.43.95 1.01 0 1.67-.42 1.67-1.12 0-.79-.86-1.08-2.05-1.36-1.91-.44-3.43-1.23-3.43-3.15s1.61-3.17 4.05-3.17c1.25 0 2.75.33 3.7.81l-.57 2.02c-.99-.51-2.29-.84-3.19-.84-.95 0-1.52.35-1.52 1.01 0 .77.86 1.04 2.05 1.32 1.94.46 3.45 1.21 3.45 3.19.01 1.9-1.62 3.31-4.22 3.31zM359.98 3.85c-1.01 0-1.58-.62-1.58-1.56 0-.92.57-1.56 1.58-1.56 1.03 0 1.61.64 1.61 1.56-.01.95-.58 1.56-1.61 1.56zm-1.3 11.99V5.76l2.6-.37v10.45h-2.6zM367.63 16.17c-2.27 0-3.45-.99-3.37-3.43l.15-4.78-1.58-.18.07-1.65 1.58-.51.04-2.24h2.51l-.04 2.38h2.86l-.07 2.13h-2.95l-.13 4.69c-.02.95.46 1.39 1.34 1.39.53 0 1.06-.13 1.58-.31l.35 2.11c-.75.27-1.46.4-2.34.4zM373.77 11.33c.11 1.65 1.23 2.77 3.04 2.77 1.08 0 2.24-.35 3.17-.92l.33 2.16c-.97.53-2.31.84-3.67.84-3.26 0-5.41-2.07-5.41-5.3 0-3.3 2.2-5.5 5.24-5.5 2.68 0 4.18 1.63 4.18 4.11 0 .55-.09 1.25-.22 1.69l-6.64.09v.06h-.02zm4.42-1.6v-.18c0-1.36-.59-2.22-1.94-2.22-1.43 0-2.29 1.17-2.42 2.42l4.36-.02zM392.56 16.15c-.66 0-1.61-.13-2.27-.35l-2.49.37V1.14l2.6-.35v5.88c.68-.66 1.61-1.3 2.84-1.3 2.68 0 4.44 2.18 4.44 5.3 0 3.24-2.24 5.48-5.12 5.48zm-.07-8.6c-.86 0-1.52.33-2.09.84v5.13c.48.37 1.14.57 1.91.57 1.74 0 2.73-1.41 2.73-3.3 0-1.99-.94-3.24-2.55-3.24zM402.3 5.7v6.18c0 1.5.62 1.98 1.72 1.98.92 0 1.74-.42 2.22-.88V5.7h2.6v10.08l-2.6.35v-1.5c-.84.9-2.05 1.54-3.34 1.54-1.98 0-3.19-1.32-3.19-3.5V5.7h2.59zM412.91 3.85c-1.01 0-1.58-.62-1.58-1.56 0-.92.57-1.56 1.58-1.56 1.03 0 1.61.64 1.61 1.56-.01.95-.58 1.56-1.61 1.56zm-1.3 11.99V5.76l2.6-.37v10.45h-2.6zM416.98 15.84L416.98 1.14 419.58.79 419.58 15.84 416.98 15.84zM429.03 1.15l2.6-.35v15.05h-2.6v-.99c-.68.66-1.61 1.32-2.86 1.32-2.68 0-4.42-2.18-4.42-5.32 0-3.23 2.24-5.48 5.13-5.48.73 0 1.52.13 2.16.33V1.15h-.01zm-1.91 6.29c-1.74 0-2.73 1.43-2.73 3.3 0 1.98.99 3.24 2.55 3.24.86 0 1.52-.31 2.09-.84v-5.1c-.5-.38-1.14-.6-1.91-.6zM436.36 11.33c.11 1.65 1.23 2.77 3.04 2.77 1.08 0 2.24-.35 3.17-.92l.33 2.16c-.97.53-2.31.84-3.67.84-3.26 0-5.41-2.07-5.41-5.3 0-3.3 2.2-5.5 5.24-5.5 2.68 0 4.18 1.63 4.18 4.11 0 .55-.09 1.25-.22 1.69l-6.64.09v.06h-.02zm4.42-1.6v-.18c0-1.36-.59-2.22-1.94-2.22-1.43 0-2.29 1.17-2.42 2.42l4.36-.02zM447.97 15.84h-2.6V5.76l2.6-.37v1.65c.64-1.08 1.45-1.67 2.64-1.67.62 0 1.25.13 1.8.46l-.57 2.33c-.48-.26-.97-.4-1.45-.4-.9 0-1.74.57-2.42 1.8v6.28zM457.19 16.2c-1.32 0-2.93-.37-3.94-.95l.57-2.02c1.01.57 2.31.95 3.43.95 1.01 0 1.67-.42 1.67-1.12 0-.79-.86-1.08-2.05-1.36-1.91-.44-3.43-1.23-3.43-3.15s1.61-3.17 4.05-3.17c1.25 0 2.75.33 3.7.81l-.57 2.02c-.99-.51-2.29-.84-3.19-.84-.95 0-1.52.35-1.52 1.01 0 .77.86 1.04 2.05 1.32 1.94.46 3.45 1.21 3.45 3.19.01 1.9-1.62 3.31-4.22 3.31zM6.51 42.68c-.73.88-1.61 1.5-2.86 1.5-1.83 0-3.15-1.25-3.15-2.86 0-1.87 1.36-3.46 6.01-3.61v-.24c0-1.36-.57-1.94-2.02-1.94-1.03 0-2.29.46-3.37 1.08l-.53-2.05c.99-.62 2.57-1.19 4.25-1.19 3.12 0 4.33 1.39 4.27 4.18v3.63c0 .77.13.88.9.92l-.2 1.96c-1.94.22-2.84-.37-3.21-1.39h-.09v.01zm0-3.61c-2.53.31-3.45.81-3.45 1.89 0 .77.59 1.32 1.52 1.32.81 0 1.47-.37 1.94-.88v-2.33h-.01zM18.37 43.84v-6.18c0-1.5-.59-2-1.76-2-.9 0-1.74.46-2.24.95v7.24h-2.6v-10.1l2.6-.35v1.61c.9-.99 2.11-1.63 3.34-1.63 2.05 0 3.26 1.32 3.26 3.5v6.97h-2.6v-.01zM30.36 29.15l2.6-.35v15.05h-2.6v-.99c-.68.66-1.61 1.32-2.86 1.32-2.68 0-4.42-2.18-4.42-5.32 0-3.23 2.24-5.48 5.13-5.48.73 0 1.52.13 2.16.33v-4.56h-.01zm-1.92 6.29c-1.74 0-2.73 1.43-2.73 3.3 0 1.98.99 3.24 2.55 3.24.86 0 1.52-.31 2.09-.84v-5.1c-.5-.38-1.14-.6-1.91-.6zM40.17 42.5c0-.92.75-1.76 1.87-2.13-1.12-.57-1.85-1.72-1.85-3.12 0-2.09 1.65-3.87 4.47-3.87 1.14 0 2.16.33 2.86.64l2.73-.24.11 2.27-1.94-.33c.26.29.46 1.06.46 1.58 0 2.07-1.74 3.7-4.25 3.7-.48 0-.84-.04-1.39-.18-.35.13-.79.46-.79.88 0 .55.46.79 2.09.79h1.06c2.9 0 4.55.81 4.55 2.79 0 2.4-2.71 4.05-5.92 4.05-2.68 0-4.82-.99-4.82-2.82 0-1.06.77-2 2.29-2.25-.87-.31-1.53-.94-1.53-1.76zm1.6 3.48c0 .95 1.17 1.61 2.88 1.61 1.78 0 3.15-.66 3.15-1.72 0-.95-.92-1.17-2.82-1.17-.64 0-1.52-.04-1.94-.09-.71.27-1.27.75-1.27 1.37zm2.91-6.69c1.17 0 1.83-.84 1.83-2.11 0-1.21-.64-2.05-1.94-2.05-1.14 0-1.87.86-1.87 2.13 0 1.22.72 2.03 1.98 2.03zM56.32 44.17c-2.97 0-5.13-2.02-5.13-5.39 0-3.34 2.27-5.43 5.26-5.43 2.99 0 5.13 2.07 5.13 5.41 0 3.32-2.29 5.41-5.26 5.41zm.04-8.73c-1.69 0-2.62 1.36-2.62 3.32 0 1.94.97 3.3 2.66 3.3 1.67 0 2.6-1.32 2.6-3.28 0-1.95-.97-3.34-2.64-3.34zM67.34 44.17c-2.27 0-3.45-.99-3.37-3.43l.15-4.78-1.58-.18.07-1.65 1.58-.51.04-2.24h2.51l-.04 2.38h2.86l-.07 2.13h-2.95l-.13 4.69c-.02.95.46 1.39 1.34 1.39.53 0 1.06-.13 1.58-.31l.35 2.11c-.76.27-1.46.4-2.34.4zM78.6 39.33c.11 1.65 1.23 2.77 3.04 2.77 1.08 0 2.24-.35 3.17-.92l.33 2.16c-.97.53-2.31.84-3.67.84-3.26 0-5.41-2.07-5.41-5.3 0-3.3 2.2-5.5 5.24-5.5 2.68 0 4.18 1.63 4.18 4.11 0 .55-.09 1.25-.22 1.69l-6.64.09v.06h-.02zm4.43-1.6v-.18c0-1.36-.59-2.22-1.94-2.22-1.43 0-2.29 1.17-2.42 2.42l4.36-.02zM93.47 43.84L91.25 40.23 89.05 43.84 86.19 43.84 89.69 38.65 86.32 33.7 89.14 33.7 91.23 36.98 93.25 33.7 96.09 33.7 92.81 38.61 96.29 43.85 93.47 43.85zM102.96 42.68c-.73.88-1.61 1.5-2.86 1.5-1.83 0-3.15-1.25-3.15-2.86 0-1.87 1.36-3.46 6.01-3.61v-.24c0-1.36-.57-1.94-2.02-1.94-1.03 0-2.29.46-3.37 1.08l-.53-2.05c.99-.62 2.57-1.19 4.25-1.19 3.12 0 4.33 1.39 4.27 4.18v3.63c0 .77.13.88.9.92l-.2 1.96c-1.94.22-2.84-.37-3.21-1.39h-.09v.01zm0-3.61c-2.53.31-3.45.81-3.45 1.89 0 .77.59 1.32 1.52 1.32.81 0 1.47-.37 1.94-.88v-2.33h-.01zM112.88 44.17c-3.3 0-5.26-2.05-5.26-5.37 0-3.3 2.16-5.43 5.35-5.43 1.39 0 2.57.31 3.5.86l-.55 2.09c-.84-.53-1.8-.81-2.75-.81-1.87 0-2.88 1.28-2.88 3.23 0 2.07 1.17 3.28 2.88 3.28 1.06 0 2.02-.29 2.82-.79l.42 2.11c-.89.53-2.17.83-3.53.83zM122.14 44.17c-2.27 0-3.45-.99-3.37-3.43l.15-4.78-1.58-.18.07-1.65 1.58-.51.04-2.24h2.51l-.04 2.38h2.86l-.07 2.13h-2.95l-.13 4.69c-.02.95.46 1.39 1.34 1.39.53 0 1.06-.13 1.58-.31l.35 2.11c-.76.27-1.46.4-2.34.4zM126.43 43.84L126.43 29.14 129.03 28.79 129.03 43.84 126.43 43.84zM137.01 43.65l-.59 1.58c-1.01 2.77-2.16 3.61-4.03 3.61-.92 0-1.76-.22-2.57-.59l.77-2.13c.59.29 1.08.48 1.61.48.75 0 1.14-.33 1.69-1.72l.44-1.17-3.96-10.01h2.79l2.53 7.26 2.42-7.26h2.77l-3.87 9.95zM149.13 43.89L146.12 33.7 148.83 33.7 150.59 40.83 152.61 33.72 155.21 33.72 157.39 40.78 158.91 33.7 161.66 33.7 158.69 43.89 156.14 43.89 153.87 36.76 151.67 43.89 149.13 43.89zM169.86 43.84v-6.18c0-1.5-.59-2-1.69-2-.97 0-1.8.46-2.31.95v7.24h-2.6v-14.7l2.6-.35v6.18c.9-.99 2.11-1.61 3.43-1.61 1.96 0 3.17 1.32 3.17 3.5v6.97h-2.6zM180.48 42.68c-.73.88-1.61 1.5-2.86 1.5-1.83 0-3.15-1.25-3.15-2.86 0-1.87 1.36-3.46 6.01-3.61v-.24c0-1.36-.57-1.94-2.02-1.94-1.03 0-2.29.46-3.37 1.08l-.53-2.05c.99-.62 2.57-1.19 4.25-1.19 3.12 0 4.33 1.39 4.27 4.18v3.63c0 .77.13.88.9.92l-.2 1.96c-1.94.22-2.84-.37-3.21-1.39h-.09v.01zm0-3.61c-2.53.31-3.45.81-3.45 1.89 0 .77.59 1.32 1.52 1.32.81 0 1.47-.37 1.94-.88v-2.33h-.01zM189.33 44.17c-2.27 0-3.45-.99-3.37-3.43l.15-4.78-1.58-.18.07-1.65 1.58-.51.04-2.24h2.51l-.04 2.38h2.86l-.07 2.13h-2.95l-.13 4.69c-.02.95.46 1.39 1.34 1.39.53 0 1.06-.13 1.58-.31l.35 2.11c-.76.27-1.46.4-2.34.4zM200.52 43.89L197.51 33.7 200.22 33.7 201.98 40.83 204 33.72 206.6 33.72 208.78 40.78 210.3 33.7 213.05 33.7 210.08 43.89 207.53 43.89 205.26 36.76 203.06 43.89 200.52 43.89zM216.63 39.33c.11 1.65 1.23 2.77 3.04 2.77 1.08 0 2.24-.35 3.17-.92l.33 2.16c-.97.53-2.31.84-3.67.84-3.26 0-5.41-2.07-5.41-5.3 0-3.3 2.2-5.5 5.24-5.5 2.68 0 4.18 1.63 4.18 4.11 0 .55-.09 1.25-.22 1.69l-6.64.09v.06h-.02zm4.42-1.6v-.18c0-1.36-.59-2.22-1.94-2.22-1.43 0-2.29 1.17-2.42 2.42l4.36-.02zM236.1 33.37c2.68 0 4.44 2.18 4.44 5.3 0 3.23-2.24 5.48-5.13 5.48-.66 0-1.52-.09-2.16-.29v4.82h-2.6V33.74l2.6-.35v1.28c.69-.66 1.61-1.3 2.85-1.3zm-2.84 8.14c.48.37 1.14.57 1.91.57 1.74 0 2.73-1.41 2.73-3.3 0-1.98-.95-3.23-2.55-3.23-.86 0-1.52.33-2.09.84v5.12zM248.04 42.68c-.73.88-1.61 1.5-2.86 1.5-1.83 0-3.15-1.25-3.15-2.86 0-1.87 1.36-3.46 6.01-3.61v-.24c0-1.36-.57-1.94-2.02-1.94-1.03 0-2.29.46-3.37 1.08l-.53-2.05c.99-.62 2.57-1.19 4.25-1.19 3.12 0 4.33 1.39 4.27 4.18v3.63c0 .77.13.88.9.92l-.2 1.96c-1.94.22-2.84-.37-3.21-1.39h-.09v.01zm0-3.61c-2.53.31-3.45.81-3.45 1.89 0 .77.59 1.32 1.52 1.32.81 0 1.47-.37 1.94-.88v-2.33h-.01zM254.6 31.85c-1.01 0-1.58-.62-1.58-1.56 0-.92.57-1.56 1.58-1.56 1.03 0 1.61.64 1.61 1.56-.01.95-.58 1.56-1.61 1.56zm-1.3 11.99V33.76l2.6-.37v10.45h-2.6zM265.36 29.15l2.6-.35v15.05h-2.6v-.99c-.68.66-1.61 1.32-2.86 1.32-2.68 0-4.42-2.18-4.42-5.32 0-3.23 2.24-5.48 5.13-5.48.73 0 1.52.13 2.16.33v-4.56h-.01zm-1.92 6.29c-1.74 0-2.73 1.43-2.73 3.3 0 1.98.99 3.24 2.55 3.24.86 0 1.52-.31 2.09-.84v-5.1c-.5-.38-1.14-.6-1.91-.6zM281.72 31.26c-.48-.22-1.06-.42-1.65-.42-.95 0-1.34.55-1.34 1.8v1.12h3.01l-.07 2.13h-2.88v7.94h-2.6v-7.92l-1.76-.13.09-1.65 1.65-.48.02-1.08c.07-2.9 1.41-4.05 3.67-4.05.99 0 1.89.29 2.4.51.01.03-.54 2.25-.54 2.23zM287.88 44.17c-2.97 0-5.13-2.02-5.13-5.39 0-3.34 2.27-5.43 5.26-5.43 2.99 0 5.13 2.07 5.13 5.41 0 3.32-2.29 5.41-5.26 5.41zm.05-8.73c-1.69 0-2.62 1.36-2.62 3.32 0 1.94.97 3.3 2.66 3.3 1.67 0 2.6-1.32 2.6-3.28 0-1.95-.97-3.34-2.64-3.34zM297.92 43.84h-2.6V33.76l2.6-.37v1.65c.64-1.08 1.45-1.67 2.64-1.67.62 0 1.25.13 1.8.46l-.57 2.33c-.48-.26-.97-.4-1.45-.4-.9 0-1.74.57-2.42 1.8v6.28zM303.85 40.63c1.23 0 2.24 1.08 2.24 2.42 0 1.91-1.72 3.32-3.48 4.38l-1.14-1.03c1.39-.97 2.22-1.8 2.22-2.55 0-.57-.42-.97-1.78-1.56.12-.95.87-1.66 1.94-1.66zM318.42 42.68c-.73.88-1.61 1.5-2.86 1.5-1.83 0-3.15-1.25-3.15-2.86 0-1.87 1.36-3.46 6.01-3.61v-.24c0-1.36-.57-1.94-2.02-1.94-1.03 0-2.29.46-3.37 1.08l-.53-2.05c.99-.62 2.57-1.19 4.25-1.19 3.12 0 4.33 1.39 4.27 4.18v3.63c0 .77.13.88.9.92l-.2 1.96c-1.94.22-2.84-.37-3.21-1.39h-.09v.01zm0-3.61c-2.53.31-3.45.81-3.45 1.89 0 .77.59 1.32 1.52 1.32.81 0 1.47-.37 1.94-.88v-2.33h-.01zM330.28 43.84v-6.18c0-1.5-.59-2-1.76-2-.9 0-1.74.46-2.24.95v7.24h-2.6v-10.1l2.6-.35v1.61c.9-.99 2.11-1.63 3.34-1.63 2.05 0 3.26 1.32 3.26 3.5v6.97h-2.6v-.01zM343.1 33.7v6.18c0 1.5.62 1.98 1.72 1.98.92 0 1.74-.42 2.22-.88V33.7h2.6v10.08l-2.6.35v-1.5c-.84.9-2.05 1.54-3.34 1.54-1.98 0-3.19-1.32-3.19-3.5V33.7h2.59zM359.01 43.84v-6.18c0-1.5-.59-2-1.76-2-.9 0-1.74.46-2.24.95v7.24h-2.6v-10.1l2.6-.35v1.61c.9-.99 2.11-1.63 3.34-1.63 2.05 0 3.26 1.32 3.26 3.5v6.97h-2.6v-.01zM369.74 33.37c2.68 0 4.44 2.18 4.44 5.3 0 3.23-2.24 5.48-5.13 5.48-.66 0-1.52-.09-2.16-.29v4.82h-2.6V33.74l2.6-.35v1.28c.7-.66 1.62-1.3 2.85-1.3zm-2.84 8.14c.48.37 1.14.57 1.91.57 1.74 0 2.73-1.41 2.73-3.3 0-1.98-.95-3.23-2.55-3.23-.86 0-1.52.33-2.09.84v5.12zM378.96 43.84h-2.6V33.76l2.6-.37v1.65c.64-1.08 1.45-1.67 2.64-1.67.62 0 1.25.13 1.8.46l-.57 2.33c-.48-.26-.97-.4-1.45-.4-.9 0-1.74.57-2.42 1.8v6.28zM389.39 44.17c-2.97 0-5.13-2.02-5.13-5.39 0-3.34 2.27-5.43 5.26-5.43 2.99 0 5.13 2.07 5.13 5.41 0 3.32-2.29 5.41-5.26 5.41zm.04-8.73c-1.69 0-2.62 1.36-2.62 3.32 0 1.94.97 3.3 2.66 3.3 1.67 0 2.6-1.32 2.6-3.28 0-1.95-.97-3.34-2.64-3.34zM402.81 31.26c-.48-.22-1.06-.42-1.65-.42-.95 0-1.34.55-1.34 1.8v1.12h3.01l-.07 2.13h-2.88v7.94h-2.6v-7.92l-1.76-.13.09-1.65 1.65-.48.02-1.08c.07-2.9 1.41-4.05 3.67-4.05.99 0 1.89.29 2.4.51.01.03-.54 2.25-.54 2.23zM406.39 39.33c.11 1.65 1.23 2.77 3.04 2.77 1.08 0 2.24-.35 3.17-.92l.33 2.16c-.97.53-2.31.84-3.67.84-3.26 0-5.41-2.07-5.41-5.3 0-3.3 2.2-5.5 5.24-5.5 2.68 0 4.18 1.63 4.18 4.11 0 .55-.09 1.25-.22 1.69l-6.64.09v.06h-.02zm4.43-1.6v-.18c0-1.36-.59-2.22-1.94-2.22-1.43 0-2.29 1.17-2.42 2.42l4.36-.02zM418.56 44.2c-1.32 0-2.93-.37-3.94-.95l.57-2.02c1.01.57 2.31.95 3.43.95 1.01 0 1.67-.42 1.67-1.12 0-.79-.86-1.08-2.05-1.36-1.91-.44-3.43-1.23-3.43-3.15s1.61-3.17 4.05-3.17c1.25 0 2.75.33 3.7.81l-.57 2.02c-.99-.51-2.29-.84-3.19-.84-.95 0-1.52.35-1.52 1.01 0 .77.86 1.04 2.05 1.32 1.94.46 3.45 1.21 3.45 3.19 0 1.9-1.63 3.31-4.22 3.31zM428.04 44.2c-1.32 0-2.93-.37-3.94-.95l.57-2.02c1.01.57 2.31.95 3.43.95 1.01 0 1.67-.42 1.67-1.12 0-.79-.86-1.08-2.05-1.36-1.91-.44-3.43-1.23-3.43-3.15s1.61-3.17 4.05-3.17c1.25 0 2.75.33 3.7.81l-.57 2.02c-.99-.51-2.29-.84-3.19-.84-.95 0-1.52.35-1.52 1.01 0 .77.86 1.04 2.05 1.32 1.94.46 3.45 1.21 3.45 3.19 0 1.9-1.62 3.31-4.22 3.31zM435.67 31.85c-1.01 0-1.58-.62-1.58-1.56 0-.92.57-1.56 1.58-1.56 1.03 0 1.61.64 1.61 1.56 0 .95-.57 1.56-1.61 1.56zm-1.29 11.99V33.76l2.6-.37v10.45h-2.6zM444.28 44.17c-2.97 0-5.13-2.02-5.13-5.39 0-3.34 2.27-5.43 5.26-5.43 2.99 0 5.13 2.07 5.13 5.41 0 3.32-2.29 5.41-5.26 5.41zm.04-8.73c-1.69 0-2.62 1.36-2.62 3.32 0 1.94.97 3.3 2.66 3.3 1.67 0 2.6-1.32 2.6-3.28 0-1.95-.97-3.34-2.64-3.34zM458.31 43.84v-6.18c0-1.5-.59-2-1.76-2-.9 0-1.74.46-2.24.95v7.24h-2.6v-10.1l2.6-.35v1.61c.9-.99 2.11-1.63 3.34-1.63 2.05 0 3.26 1.32 3.26 3.5v6.97h-2.6v-.01zM468.94 42.68c-.73.88-1.61 1.5-2.86 1.5-1.83 0-3.15-1.25-3.15-2.86 0-1.87 1.36-3.46 6.01-3.61v-.24c0-1.36-.57-1.94-2.02-1.94-1.03 0-2.29.46-3.37 1.08l-.53-2.05c.99-.62 2.57-1.19 4.25-1.19 3.12 0 4.33 1.39 4.27 4.18v3.63c0 .77.13.88.9.92l-.2 1.96c-1.94.22-2.84-.37-3.21-1.39h-.09v.01zm0-3.61c-2.53.31-3.45.81-3.45 1.89 0 .77.59 1.32 1.52 1.32.81 0 1.47-.37 1.94-.88v-2.33h-.01zM474.2 43.84L474.2 29.14 476.8 28.79 476.8 43.84 474.2 43.84zM1.19 71.84L1.19 57.14 3.79 56.79 3.79 71.84 1.19 71.84zM11.09 72.17c-2.97 0-5.13-2.02-5.13-5.39 0-3.34 2.27-5.43 5.26-5.43 2.99 0 5.13 2.07 5.13 5.41 0 3.32-2.29 5.41-5.26 5.41zm.04-8.73c-1.69 0-2.62 1.36-2.62 3.32 0 1.94.97 3.3 2.66 3.3 1.67 0 2.6-1.32 2.6-3.28 0-1.95-.97-3.34-2.64-3.34zM23.05 72.17c-2.97 0-5.13-2.02-5.13-5.39 0-3.34 2.27-5.43 5.26-5.43 2.99 0 5.13 2.07 5.13 5.41 0 3.32-2.28 5.41-5.26 5.41zm.05-8.73c-1.69 0-2.62 1.36-2.62 3.32 0 1.94.97 3.3 2.66 3.3 1.67 0 2.6-1.32 2.6-3.28 0-1.95-.97-3.34-2.64-3.34zM33.09 66.96L33.09 71.84 30.49 71.84 30.49 57.14 33.09 56.79 33.09 66.21 33.13 66.21 36.76 61.7 39.86 61.7 35.66 66.52 39.88 71.84 36.78 71.84 33.13 66.96zM42.66 59.85c-1.01 0-1.58-.62-1.58-1.56 0-.92.57-1.56 1.58-1.56 1.03 0 1.61.64 1.61 1.56-.01.95-.58 1.56-1.61 1.56zm-1.3 11.99V61.76l2.6-.37v10.45h-2.6zM53.33 71.84v-6.18c0-1.5-.59-2-1.76-2-.9 0-1.74.46-2.24.95v7.24h-2.6v-10.1l2.6-.35v1.61c.9-.99 2.11-1.63 3.34-1.63 2.05 0 3.26 1.32 3.26 3.5v6.97h-2.6v-.01zM58.06 70.5c0-.92.75-1.76 1.87-2.13-1.12-.57-1.85-1.72-1.85-3.12 0-2.09 1.65-3.87 4.47-3.87 1.14 0 2.16.33 2.86.64l2.73-.24.11 2.27-1.94-.33c.26.29.46 1.06.46 1.58 0 2.07-1.74 3.7-4.25 3.7-.48 0-.84-.04-1.39-.18-.35.13-.79.46-.79.88 0 .55.46.79 2.09.79h1.06c2.9 0 4.55.81 4.55 2.79 0 2.4-2.71 4.05-5.92 4.05-2.68 0-4.82-.99-4.82-2.82 0-1.06.77-2 2.29-2.25-.87-.31-1.53-.94-1.53-1.76zm1.6 3.48c0 .95 1.17 1.61 2.88 1.61 1.78 0 3.15-.66 3.15-1.72 0-.95-.92-1.17-2.82-1.17-.64 0-1.52-.04-1.94-.09-.72.27-1.27.75-1.27 1.37zm2.91-6.69c1.17 0 1.83-.84 1.83-2.11 0-1.21-.64-2.05-1.94-2.05-1.14 0-1.87.86-1.87 2.13 0 1.22.72 2.03 1.98 2.03zM76.58 71.89L73.57 61.7 76.28 61.7 78.04 68.83 80.06 61.72 82.66 61.72 84.84 68.78 86.36 61.7 89.11 61.7 86.14 71.89 83.59 71.89 81.32 64.76 79.12 71.89 76.58 71.89zM92.68 67.33c.11 1.65 1.23 2.77 3.04 2.77 1.08 0 2.24-.35 3.17-.92l.33 2.16c-.97.53-2.31.84-3.67.84-3.26 0-5.41-2.07-5.41-5.3 0-3.3 2.2-5.5 5.24-5.5 2.68 0 4.18 1.63 4.18 4.11 0 .55-.09 1.25-.22 1.69l-6.64.09v.06h-.02zm4.43-1.6v-.18c0-1.36-.59-2.22-1.94-2.22-1.43 0-2.29 1.17-2.42 2.42l4.36-.02zM106.45 72.15c-.66 0-1.61-.13-2.27-.35l-2.49.37V57.14l2.6-.35v5.88c.68-.66 1.61-1.3 2.84-1.3 2.68 0 4.44 2.18 4.44 5.3.01 3.24-2.23 5.48-5.12 5.48zm-.06-8.6c-.86 0-1.52.33-2.09.84v5.13c.48.37 1.14.57 1.91.57 1.74 0 2.73-1.41 2.73-3.3 0-1.99-.95-3.24-2.55-3.24zM116.84 72.2c-1.32 0-2.93-.37-3.94-.95l.57-2.02c1.01.57 2.31.95 3.43.95 1.01 0 1.67-.42 1.67-1.12 0-.79-.86-1.08-2.05-1.36-1.91-.44-3.43-1.23-3.43-3.15s1.61-3.17 4.05-3.17c1.25 0 2.75.33 3.7.81l-.57 2.02c-.99-.51-2.29-.84-3.19-.84-.95 0-1.52.35-1.52 1.01 0 .77.86 1.04 2.05 1.32 1.94.46 3.45 1.21 3.45 3.19 0 1.9-1.63 3.31-4.22 3.31zM124.47 59.85c-1.01 0-1.58-.62-1.58-1.56 0-.92.57-1.56 1.58-1.56 1.03 0 1.61.64 1.61 1.56 0 .95-.57 1.56-1.61 1.56zm-1.3 11.99V61.76l2.6-.37v10.45h-2.6zM132.13 72.17c-2.27 0-3.45-.99-3.37-3.43l.15-4.78-1.58-.18.07-1.65 1.58-.51.04-2.24h2.51l-.04 2.38h2.86l-.07 2.13h-2.95l-.13 4.69c-.02.95.46 1.39 1.34 1.39.53 0 1.06-.13 1.58-.31l.35 2.11c-.76.27-1.46.4-2.34.4zM138.27 67.33c.11 1.65 1.23 2.77 3.04 2.77 1.08 0 2.24-.35 3.17-.92l.33 2.16c-.97.53-2.31.84-3.67.84-3.26 0-5.41-2.07-5.41-5.3 0-3.3 2.2-5.5 5.24-5.5 2.68 0 4.18 1.63 4.18 4.11 0 .55-.09 1.25-.22 1.69l-6.64.09v.06h-.02zm4.42-1.6v-.18c0-1.36-.59-2.22-1.94-2.22-1.43 0-2.29 1.17-2.42 2.42l4.36-.02zM148.67 72.17c-1.03 0-1.76-.75-1.76-1.72s.73-1.69 1.76-1.69c1.01 0 1.72.73 1.72 1.69s-.71 1.72-1.72 1.72zM158.02 71.84L158.02 58.09 160.68 58.09 160.68 71.84zM168.14 70.5c0-.92.75-1.76 1.87-2.13-1.12-.57-1.85-1.72-1.85-3.12 0-2.09 1.65-3.87 4.47-3.87 1.14 0 2.16.33 2.86.64l2.73-.24.11 2.27-1.94-.33c.26.29.46 1.06.46 1.58 0 2.07-1.74 3.7-4.25 3.7-.48 0-.84-.04-1.39-.18-.35.13-.79.46-.79.88 0 .55.46.79 2.09.79h1.06c2.9 0 4.55.81 4.55 2.79 0 2.4-2.71 4.05-5.92 4.05-2.68 0-4.82-.99-4.82-2.82 0-1.06.77-2 2.29-2.25-.87-.31-1.53-.94-1.53-1.76zm1.61 3.48c0 .95 1.17 1.61 2.88 1.61 1.78 0 3.15-.66 3.15-1.72 0-.95-.92-1.17-2.82-1.17-.64 0-1.52-.04-1.94-.09-.72.27-1.27.75-1.27 1.37zm2.9-6.69c1.17 0 1.83-.84 1.83-2.11 0-1.21-.64-2.05-1.94-2.05-1.14 0-1.87.86-1.87 2.13 0 1.22.73 2.03 1.98 2.03zM185.08 70.68c-.73.88-1.61 1.5-2.86 1.5-1.83 0-3.15-1.25-3.15-2.86 0-1.87 1.36-3.46 6.01-3.61v-.24c0-1.36-.57-1.94-2.02-1.94-1.03 0-2.29.46-3.37 1.08l-.53-2.05c.99-.62 2.57-1.19 4.25-1.19 3.12 0 4.33 1.39 4.27 4.18v3.63c0 .77.13.88.9.92l-.2 1.96c-1.94.22-2.84-.37-3.21-1.39h-.09v.01zm0-3.61c-2.53.31-3.45.81-3.45 1.89 0 .77.59 1.32 1.52 1.32.81 0 1.47-.37 1.94-.88v-2.33h-.01zM195.36 71.87L192.59 71.87 188.72 61.7 191.49 61.7 194.04 69.11 196.48 61.7 199.27 61.7zM202.48 67.33c.11 1.65 1.23 2.77 3.04 2.77 1.08 0 2.24-.35 3.17-.92l.33 2.16c-.97.53-2.31.84-3.67.84-3.26 0-5.41-2.07-5.41-5.3 0-3.3 2.2-5.5 5.24-5.5 2.68 0 4.18 1.63 4.18 4.11 0 .55-.09 1.25-.22 1.69l-6.64.09v.06h-.02zm4.43-1.6v-.18c0-1.36-.59-2.22-1.94-2.22-1.43 0-2.29 1.17-2.42 2.42l4.36-.02zM219.42 64.41l5.19-6.32h3.19l-5.9 6.76 5.98 7h-3.28l-5.19-6.29h-.02v6.29h-2.68V58.1h2.68v6.32h.03v-.01zM234.67 70.68c-.73.88-1.61 1.5-2.86 1.5-1.83 0-3.15-1.25-3.15-2.86 0-1.87 1.36-3.46 6.01-3.61v-.24c0-1.36-.57-1.94-2.02-1.94-1.03 0-2.29.46-3.37 1.08l-.53-2.05c.99-.62 2.57-1.19 4.25-1.19 3.12 0 4.33 1.39 4.27 4.18v3.63c0 .77.13.88.9.92l-.2 1.96c-1.94.22-2.84-.37-3.21-1.39h-.09v.01zm0-3.61c-2.53.31-3.45.81-3.45 1.89 0 .77.59 1.32 1.52 1.32.81 0 1.47-.37 1.94-.88v-2.33h-.01z" transform="translate(-51 -820) translate(51 820) translate(118 116)"/>
                    <path d="M245.01 71.65l-.59 1.58c-1.01 2.77-2.16 3.61-4.03 3.61-.92 0-1.76-.22-2.57-.59l.77-2.13c.59.29 1.08.48 1.61.48.75 0 1.14-.33 1.69-1.72l.44-1.17-3.96-10.01h2.79l2.53 7.26 2.42-7.26h2.77l-3.87 9.95zM255.19 66.85c0-5.46 3.48-9.29 6.34-10.74l1.28 1.72c-2.49 1.45-5.21 4.69-5.21 9.02 0 4.31 2.73 7.57 5.21 9.02l-1.25 1.72c-2.89-1.48-6.37-5.28-6.37-10.74zM270.59 57.15l2.6-.35v15.05h-2.6v-.99c-.68.66-1.61 1.32-2.86 1.32-2.68 0-4.42-2.18-4.42-5.32 0-3.23 2.24-5.48 5.13-5.48.73 0 1.52.13 2.16.33v-4.56h-.01zm-1.91 6.29c-1.74 0-2.73 1.43-2.73 3.3 0 1.98.99 3.24 2.55 3.24.86 0 1.52-.31 2.09-.84v-5.1c-.5-.38-1.14-.6-1.91-.6zM277.92 67.33c.11 1.65 1.23 2.77 3.04 2.77 1.08 0 2.24-.35 3.17-.92l.33 2.16c-.97.53-2.31.84-3.67.84-3.26 0-5.41-2.07-5.41-5.3 0-3.3 2.2-5.5 5.24-5.5 2.68 0 4.18 1.63 4.18 4.11 0 .55-.09 1.25-.22 1.69l-6.64.09v.06h-.02zm4.42-1.6v-.18c0-1.36-.59-2.22-1.94-2.22-1.43 0-2.29 1.17-2.42 2.42l4.36-.02zM290.08 72.2c-1.32 0-2.93-.37-3.94-.95l.57-2.02c1.01.57 2.31.95 3.43.95 1.01 0 1.67-.42 1.67-1.12 0-.79-.86-1.08-2.05-1.36-1.91-.44-3.43-1.23-3.43-3.15s1.61-3.17 4.05-3.17c1.25 0 2.75.33 3.7.81l-.57 2.02c-.99-.51-2.29-.84-3.19-.84-.95 0-1.52.35-1.52 1.01 0 .77.86 1.04 2.05 1.32 1.94.46 3.45 1.21 3.45 3.19.01 1.9-1.62 3.31-4.22 3.31zM297.72 59.85c-1.01 0-1.58-.62-1.58-1.56 0-.92.57-1.56 1.58-1.56 1.03 0 1.61.64 1.61 1.56 0 .95-.58 1.56-1.61 1.56zm-1.3 11.99V61.76l2.6-.37v10.45h-2.6zM301.22 70.5c0-.92.75-1.76 1.87-2.13-1.12-.57-1.85-1.72-1.85-3.12 0-2.09 1.65-3.87 4.47-3.87 1.14 0 2.16.33 2.86.64l2.73-.24.11 2.27-1.94-.33c.26.29.46 1.06.46 1.58 0 2.07-1.74 3.7-4.25 3.7-.48 0-.84-.04-1.39-.18-.35.13-.79.46-.79.88 0 .55.46.79 2.09.79h1.06c2.9 0 4.55.81 4.55 2.79 0 2.4-2.71 4.05-5.92 4.05-2.68 0-4.82-.99-4.82-2.82 0-1.06.77-2 2.29-2.25-.87-.31-1.53-.94-1.53-1.76zm1.6 3.48c0 .95 1.17 1.61 2.88 1.61 1.78 0 3.15-.66 3.15-1.72 0-.95-.92-1.17-2.82-1.17-.64 0-1.52-.04-1.94-.09-.72.27-1.27.75-1.27 1.37zm2.91-6.69c1.17 0 1.83-.84 1.83-2.11 0-1.21-.64-2.05-1.94-2.05-1.14 0-1.87.86-1.87 2.13 0 1.22.72 2.03 1.98 2.03zM319.43 71.84v-6.18c0-1.5-.59-2-1.76-2-.9 0-1.74.46-2.24.95v7.24h-2.6v-10.1l2.6-.35v1.61c.9-.99 2.11-1.63 3.34-1.63 2.05 0 3.26 1.32 3.26 3.5v6.97h-2.6v-.01zM326.69 67.33c.11 1.65 1.23 2.77 3.04 2.77 1.08 0 2.24-.35 3.17-.92l.33 2.16c-.97.53-2.31.84-3.67.84-3.26 0-5.41-2.07-5.41-5.3 0-3.3 2.2-5.5 5.24-5.5 2.68 0 4.18 1.63 4.18 4.11 0 .55-.09 1.25-.22 1.69l-6.64.09v.06h-.02zm4.43-1.6v-.18c0-1.36-.59-2.22-1.94-2.22-1.43 0-2.29 1.17-2.42 2.42l4.36-.02zM338.31 71.84h-2.6V61.76l2.6-.37v1.65c.64-1.08 1.45-1.67 2.64-1.67.62 0 1.25.13 1.8.46l-.57 2.33c-.48-.26-.97-.4-1.45-.4-.9 0-1.74.57-2.42 1.8v6.28zM343.52 76.22L341.47 76.22 346.82 56.4 348.87 56.4zM351.86 71.89L348.85 61.7 351.56 61.7 353.32 68.83 355.34 61.72 357.94 61.72 360.12 68.78 361.64 61.7 364.39 61.7 361.42 71.89 358.87 71.89 356.6 64.76 354.4 71.89 351.86 71.89zM368.58 71.84h-2.6V61.76l2.6-.37v1.65c.64-1.08 1.45-1.67 2.64-1.67.62 0 1.25.13 1.8.46l-.57 2.33c-.48-.26-.97-.4-1.45-.4-.9 0-1.74.57-2.42 1.8v6.28zM375.88 59.85c-1.01 0-1.58-.62-1.58-1.56 0-.92.57-1.56 1.58-1.56 1.03 0 1.61.64 1.61 1.56 0 .95-.57 1.56-1.61 1.56zm-1.3 11.99V61.76l2.6-.37v10.45h-2.6zM383.54 72.17c-2.27 0-3.45-.99-3.37-3.43l.15-4.78-1.58-.18.07-1.65 1.58-.51.04-2.24h2.51l-.04 2.38h2.86l-.07 2.13h-2.95l-.13 4.69c-.02.95.46 1.39 1.34 1.39.53 0 1.06-.13 1.58-.31l.35 2.11c-.76.27-1.46.4-2.34.4zM389.68 67.33c.11 1.65 1.23 2.77 3.04 2.77 1.08 0 2.24-.35 3.17-.92l.33 2.16c-.97.53-2.31.84-3.67.84-3.26 0-5.41-2.07-5.41-5.3 0-3.3 2.2-5.5 5.24-5.5 2.68 0 4.18 1.63 4.18 4.11 0 .55-.09 1.25-.22 1.69l-6.64.09v.06h-.02zm4.42-1.6v-.18c0-1.36-.59-2.22-1.94-2.22-1.43 0-2.29 1.17-2.42 2.42l4.36-.02zM401.29 71.84h-2.6V61.76l2.6-.37v1.65c.64-1.08 1.45-1.67 2.64-1.67.62 0 1.25.13 1.8.46l-.57 2.33c-.48-.26-.97-.4-1.45-.4-.9 0-1.74.57-2.42 1.8v6.28z" transform="translate(-51 -820) translate(51 820) translate(118 116)"/>
                    <path d="M405.63 75.87c2.51-1.45 5.21-4.71 5.21-9.02 0-4.33-2.71-7.57-5.21-9.02l1.3-1.72c2.84 1.45 6.32 5.28 6.32 10.74s-3.48 9.26-6.34 10.74l-1.28-1.72zM426.31 70.68c-.73.88-1.61 1.5-2.86 1.5-1.83 0-3.15-1.25-3.15-2.86 0-1.87 1.36-3.46 6.01-3.61v-.24c0-1.36-.57-1.94-2.02-1.94-1.03 0-2.29.46-3.37 1.08l-.53-2.05c.99-.62 2.57-1.19 4.25-1.19 3.12 0 4.33 1.39 4.27 4.18v3.63c0 .77.13.88.9.92l-.2 1.96c-1.94.22-2.84-.37-3.21-1.39h-.09v.01zm0-3.61c-2.53.31-3.45.81-3.45 1.89 0 .77.59 1.32 1.52 1.32.81 0 1.47-.37 1.94-.88v-2.33h-.01zM438.17 71.84v-6.18c0-1.5-.59-2-1.76-2-.9 0-1.74.46-2.24.95v7.24h-2.6v-10.1l2.6-.35v1.61c.9-.99 2.11-1.63 3.34-1.63 2.05 0 3.26 1.32 3.26 3.5v6.97h-2.6v-.01zM450.15 57.15l2.6-.35v15.05h-2.6v-.99c-.68.66-1.61 1.32-2.86 1.32-2.68 0-4.42-2.18-4.42-5.32 0-3.23 2.24-5.48 5.13-5.48.73 0 1.52.13 2.16.33v-4.56h-.01zm-1.91 6.29c-1.74 0-2.73 1.43-2.73 3.3 0 1.98.99 3.24 2.55 3.24.86 0 1.52-.31 2.09-.84v-5.1c-.5-.38-1.14-.6-1.91-.6zM471.43 67.91c0 2.27-1.36 3.94-5.35 3.94h-5.35V58.1h5.26c3.72 0 5 1.54 5 3.63 0 1.47-.88 2.46-2.46 2.99 1.8.39 2.9 1.56 2.9 3.19zm-5.52-7.66h-2.53v3.74h2.31c1.72 0 2.62-.73 2.62-1.92-.01-1.16-.84-1.82-2.4-1.82zm-.07 5.7h-2.46v3.74h2.66c1.8 0 2.68-.64 2.68-1.89 0-1.37-1.19-1.85-2.88-1.85zM476.18 71.84h-2.6V61.76l2.6-.37v1.65c.64-1.08 1.45-1.67 2.64-1.67.62 0 1.25.13 1.8.46l-.57 2.33c-.48-.26-.97-.4-1.45-.4-.9 0-1.74.57-2.42 1.8v6.28zM483.48 59.85c-1.01 0-1.58-.62-1.58-1.56 0-.92.57-1.56 1.58-1.56 1.03 0 1.61.64 1.61 1.56 0 .95-.57 1.56-1.61 1.56zm-1.3 11.99V61.76l2.6-.37v10.45h-2.6zM492.88 70.68c-.73.88-1.61 1.5-2.86 1.5-1.83 0-3.15-1.25-3.15-2.86 0-1.87 1.36-3.46 6.01-3.61v-.24c0-1.36-.57-1.94-2.02-1.94-1.03 0-2.29.46-3.37 1.08l-.53-2.05c.99-.62 2.57-1.19 4.25-1.19 3.12 0 4.33 1.39 4.27 4.18v3.63c0 .77.13.88.9.92l-.2 1.96c-1.94.22-2.84-.37-3.21-1.39h-.09v.01zm0-3.61c-2.53.31-3.45.81-3.45 1.89 0 .77.59 1.32 1.52 1.32.81 0 1.47-.37 1.94-.88v-2.33h-.01zM504.74 71.84v-6.18c0-1.5-.59-2-1.76-2-.9 0-1.74.46-2.24.95v7.24h-2.6v-10.1l2.6-.35v1.61c.9-.99 2.11-1.63 3.34-1.63 2.05 0 3.26 1.32 3.26 3.5v6.97h-2.6v-.01zM1.14 94.85c0-5.46 3.48-9.29 6.34-10.74l1.28 1.72c-2.49 1.45-5.21 4.69-5.21 9.02 0 4.31 2.73 7.57 5.21 9.02l-1.25 1.72c-2.89-1.48-6.37-5.28-6.37-10.74zM16.54 85.15l2.6-.35v15.05h-2.6v-.99c-.68.66-1.61 1.32-2.86 1.32-2.68 0-4.42-2.18-4.42-5.32 0-3.23 2.24-5.48 5.13-5.48.73 0 1.52.13 2.16.33v-4.56h-.01zm-1.91 6.29c-1.74 0-2.73 1.43-2.73 3.3 0 1.98.99 3.24 2.55 3.24.86 0 1.52-.31 2.09-.84v-5.1c-.5-.38-1.14-.6-1.91-.6zM23.87 95.33c.11 1.65 1.23 2.77 3.04 2.77 1.08 0 2.24-.35 3.17-.92l.33 2.16c-.97.53-2.31.84-3.67.84-3.26 0-5.41-2.07-5.41-5.3 0-3.3 2.2-5.5 5.24-5.5 2.68 0 4.18 1.63 4.18 4.11 0 .55-.09 1.25-.22 1.69l-6.64.09v.06h-.02zm4.42-1.6v-.18c0-1.36-.59-2.22-1.94-2.22-1.43 0-2.29 1.17-2.42 2.42l4.36-.02zM38.23 99.87L35.46 99.87 31.59 89.7 34.36 89.7 36.91 97.11 39.35 89.7 42.14 89.7zM45.36 95.33c.11 1.65 1.23 2.77 3.04 2.77 1.08 0 2.24-.35 3.17-.92l.33 2.16c-.97.53-2.31.84-3.67.84-3.26 0-5.41-2.07-5.41-5.3 0-3.3 2.2-5.5 5.24-5.5 2.68 0 4.18 1.63 4.18 4.11 0 .55-.09 1.25-.22 1.69l-6.64.09v.06h-.02zm4.42-1.6v-.18c0-1.36-.59-2.22-1.94-2.22-1.43 0-2.29 1.17-2.42 2.42l4.36-.02zM54.38 99.84L54.38 85.14 56.98 84.79 56.98 99.84 54.38 99.84zM64.28 100.17c-2.97 0-5.13-2.02-5.13-5.39 0-3.34 2.27-5.43 5.26-5.43 2.99 0 5.13 2.07 5.13 5.41 0 3.32-2.29 5.41-5.26 5.41zm.05-8.73c-1.69 0-2.62 1.36-2.62 3.32 0 1.94.97 3.3 2.66 3.3 1.67 0 2.6-1.32 2.6-3.28 0-1.95-.97-3.34-2.64-3.34zM77.15 89.37c2.68 0 4.44 2.18 4.44 5.3 0 3.23-2.24 5.48-5.13 5.48-.66 0-1.52-.09-2.16-.29v4.82h-2.6V89.74l2.6-.35v1.28c.7-.66 1.62-1.3 2.85-1.3zm-2.84 8.14c.48.37 1.14.57 1.91.57 1.74 0 2.73-1.41 2.73-3.3 0-1.98-.95-3.23-2.55-3.23-.86 0-1.52.33-2.09.84v5.12zM85.73 95.33c.11 1.65 1.23 2.77 3.04 2.77 1.08 0 2.24-.35 3.17-.92l.33 2.16c-.97.53-2.31.84-3.67.84-3.26 0-5.41-2.07-5.41-5.3 0-3.3 2.2-5.5 5.24-5.5 2.68 0 4.18 1.63 4.18 4.11 0 .55-.09 1.25-.22 1.69l-6.64.09v.06h-.02zm4.42-1.6v-.18c0-1.36-.59-2.22-1.94-2.22-1.43 0-2.29 1.17-2.42 2.42l4.36-.02zM97.35 99.84h-2.6V89.76l2.6-.37v1.65c.64-1.08 1.45-1.67 2.64-1.67.62 0 1.25.13 1.8.46l-.57 2.33c-.48-.26-.97-.4-1.45-.4-.9 0-1.74.57-2.42 1.8v6.28z" transform="translate(-51 -820) translate(51 820) translate(118 116)"/>
                    <path d="M101.68 103.87c2.51-1.45 5.21-4.71 5.21-9.02 0-4.33-2.71-7.57-5.21-9.02l1.3-1.72c2.84 1.45 6.32 5.28 6.32 10.74s-3.48 9.26-6.34 10.74l-1.28-1.72zM121.57 100.17c-2.97 0-5.13-2.02-5.13-5.39 0-3.34 2.27-5.43 5.26-5.43 2.99 0 5.13 2.07 5.13 5.41 0 3.32-2.29 5.41-5.26 5.41zm.04-8.73c-1.69 0-2.62 1.36-2.62 3.32 0 1.94.97 3.3 2.66 3.3 1.67 0 2.6-1.32 2.6-3.28 0-1.95-.97-3.34-2.64-3.34zM131.51 89.7v6.18c0 1.5.62 1.98 1.72 1.98.92 0 1.74-.42 2.22-.88V89.7h2.6v10.08l-2.6.35v-1.5c-.84.9-2.05 1.54-3.34 1.54-1.98 0-3.19-1.32-3.19-3.5V89.7h2.59zM143.41 99.84h-2.6V89.76l2.6-.37v1.65c.64-1.08 1.45-1.67 2.64-1.67.62 0 1.25.13 1.8.46l-.57 2.33c-.48-.26-.97-.4-1.45-.4-.9 0-1.74.57-2.42 1.8v6.28zM155.73 87.85c-1.01 0-1.58-.62-1.58-1.56 0-.92.57-1.56 1.58-1.56 1.03 0 1.61.64 1.61 1.56 0 .95-.57 1.56-1.61 1.56zm-1.3 11.99V89.76l2.6-.37v10.45h-2.6zM166.49 85.15l2.6-.35v15.05h-2.6v-.99c-.68.66-1.61 1.32-2.86 1.32-2.68 0-4.42-2.18-4.42-5.32 0-3.23 2.24-5.48 5.13-5.48.73 0 1.52.13 2.16.33v-4.56h-.01zm-1.91 6.29c-1.74 0-2.73 1.43-2.73 3.3 0 1.98.99 3.24 2.55 3.24.86 0 1.52-.31 2.09-.84v-5.1c-.51-.38-1.14-.6-1.91-.6zM173.82 95.33c.11 1.65 1.23 2.77 3.04 2.77 1.08 0 2.24-.35 3.17-.92l.33 2.16c-.97.53-2.31.84-3.67.84-3.26 0-5.41-2.07-5.41-5.3 0-3.3 2.2-5.5 5.24-5.5 2.68 0 4.18 1.63 4.18 4.11 0 .55-.09 1.25-.22 1.69l-6.64.09v.06h-.02zm4.42-1.6v-.18c0-1.36-.59-2.22-1.94-2.22-1.43 0-2.29 1.17-2.42 2.42l4.36-.02zM188.16 98.68c-.73.88-1.61 1.5-2.86 1.5-1.83 0-3.15-1.25-3.15-2.86 0-1.87 1.36-3.46 6.01-3.61v-.24c0-1.36-.57-1.94-2.02-1.94-1.03 0-2.29.46-3.37 1.08l-.53-2.05c.99-.62 2.57-1.19 4.25-1.19 3.12 0 4.33 1.39 4.27 4.18v3.63c0 .77.13.88.9.92l-.2 1.96c-1.94.22-2.84-.37-3.21-1.39h-.09v.01zm0-3.61c-2.53.31-3.45.81-3.45 1.89 0 .77.59 1.32 1.52 1.32.81 0 1.47-.37 1.94-.88v-2.33h-.01zM196.56 100.2c-1.32 0-2.93-.37-3.94-.95l.57-2.02c1.01.57 2.31.95 3.43.95 1.01 0 1.67-.42 1.67-1.12 0-.79-.86-1.08-2.05-1.36-1.91-.44-3.43-1.23-3.43-3.15s1.61-3.17 4.05-3.17c1.25 0 2.75.33 3.7.81l-.57 2.02c-.99-.51-2.29-.84-3.19-.84-.95 0-1.52.35-1.52 1.01 0 .77.86 1.04 2.05 1.32 1.94.46 3.45 1.21 3.45 3.19.01 1.9-1.62 3.31-4.22 3.31zM204.15 96.63c1.23 0 2.24 1.08 2.24 2.42 0 1.91-1.72 3.32-3.48 4.38l-1.14-1.03c1.39-.97 2.22-1.8 2.22-2.55 0-.57-.42-.97-1.78-1.56.12-.95.87-1.66 1.94-1.66zM218.72 98.68c-.73.88-1.61 1.5-2.86 1.5-1.83 0-3.15-1.25-3.15-2.86 0-1.87 1.36-3.46 6.01-3.61v-.24c0-1.36-.57-1.94-2.02-1.94-1.03 0-2.29.46-3.37 1.08l-.53-2.05c.99-.62 2.57-1.19 4.25-1.19 3.12 0 4.33 1.39 4.27 4.18v3.63c0 .77.13.88.9.92l-.2 1.96c-1.94.22-2.84-.37-3.21-1.39h-.09v.01zm0-3.61c-2.53.31-3.45.81-3.45 1.89 0 .77.59 1.32 1.52 1.32.81 0 1.47-.37 1.94-.88v-2.33h-.01zM230.58 99.84v-6.18c0-1.5-.59-2-1.76-2-.9 0-1.74.46-2.24.95v7.24h-2.6v-10.1l2.6-.35v1.61c.9-.99 2.11-1.63 3.34-1.63 2.05 0 3.26 1.32 3.26 3.5v6.97h-2.6v-.01zM242.56 85.15l2.6-.35v15.05h-2.6v-.99c-.68.66-1.61 1.32-2.86 1.32-2.68 0-4.42-2.18-4.42-5.32 0-3.23 2.24-5.48 5.13-5.48.73 0 1.52.13 2.16.33v-4.56h-.01zm-1.91 6.29c-1.74 0-2.73 1.43-2.73 3.3 0 1.98.99 3.24 2.55 3.24.86 0 1.52-.31 2.09-.84v-5.1c-.5-.38-1.14-.6-1.91-.6zM252.95 99.84L252.95 85.14 255.55 84.79 255.55 99.84 252.95 99.84zM260.27 95.33c.11 1.65 1.23 2.77 3.04 2.77 1.08 0 2.24-.35 3.17-.92l.33 2.16c-.97.53-2.31.84-3.67.84-3.26 0-5.41-2.07-5.41-5.3 0-3.3 2.2-5.5 5.24-5.5 2.68 0 4.18 1.63 4.18 4.11 0 .55-.09 1.25-.22 1.69l-6.64.09v.06h-.02zm4.43-1.6v-.18c0-1.36-.59-2.22-1.94-2.22-1.43 0-2.29 1.17-2.42 2.42l4.36-.02zM272.88 100.17c-2.27 0-3.45-.99-3.37-3.43l.15-4.78-1.58-.18.07-1.65 1.58-.51.04-2.24h2.51l-.04 2.38h2.86l-.07 2.13h-2.95l-.13 4.69c-.02.95.46 1.39 1.34 1.39.53 0 1.06-.13 1.58-.31l.35 2.11c-.76.27-1.46.4-2.34.4zM285.77 100.17c-2.27 0-3.45-.99-3.37-3.43l.15-4.78-1.58-.18.07-1.65 1.58-.51.04-2.24h2.51l-.04 2.38h2.86l-.07 2.13h-2.95l-.13 4.69c-.02.95.46 1.39 1.34 1.39.53 0 1.06-.13 1.58-.31l.35 2.11c-.76.27-1.46.4-2.34.4zM296.66 99.84v-6.18c0-1.5-.59-2-1.69-2-.97 0-1.8.46-2.31.95v7.24h-2.6v-14.7l2.6-.35v6.18c.9-.99 2.11-1.61 3.43-1.61 1.96 0 3.17 1.32 3.17 3.5v6.97h-2.6zM303.92 95.33c.11 1.65 1.23 2.77 3.04 2.77 1.08 0 2.24-.35 3.17-.92l.33 2.16c-.97.53-2.31.84-3.67.84-3.26 0-5.41-2.07-5.41-5.3 0-3.3 2.2-5.5 5.24-5.5 2.68 0 4.18 1.63 4.18 4.11 0 .55-.09 1.25-.22 1.69l-6.64.09v.06h-.02zm4.42-1.6v-.18c0-1.36-.59-2.22-1.94-2.22-1.43 0-2.29 1.17-2.42 2.42l4.36-.02zM325.68 99.84v-6.16c0-1.5-.59-2.02-1.67-2.02-.9 0-1.61.46-2.11.9v7.29h-2.6v-6.16c0-1.5-.57-2.02-1.65-2.02-.92 0-1.63.37-2.11.84v7.35h-2.6v-10.1l2.6-.35v1.43c.95-.95 1.98-1.45 3.23-1.45 1.23 0 2.27.59 2.77 1.74 1.01-1.1 2.22-1.74 3.61-1.74 1.92 0 3.12 1.32 3.12 3.52v6.95h-2.59v-.02zM338.57 99.84h-2.6V89.76l2.6-.37v1.65c.64-1.08 1.45-1.67 2.64-1.67.62 0 1.25.13 1.8.46l-.57 2.33c-.48-.26-.97-.4-1.45-.4-.9 0-1.74.57-2.42 1.8v6.28zM347.08 89.7v6.18c0 1.5.62 1.98 1.72 1.98.92 0 1.74-.42 2.22-.88V89.7h2.6v10.08l-2.6.35v-1.5c-.84.9-2.05 1.54-3.34 1.54-1.98 0-3.19-1.32-3.19-3.5V89.7h2.59zM362.99 99.84v-6.18c0-1.5-.59-2-1.76-2-.9 0-1.74.46-2.24.95v7.24h-2.6v-10.1l2.6-.35v1.61c.9-.99 2.11-1.63 3.34-1.63 2.05 0 3.26 1.32 3.26 3.5v6.97h-2.6v-.01zM375.2 99.89L372.19 89.7 374.9 89.7 376.66 96.83 378.68 89.72 381.28 89.72 383.46 96.78 384.98 89.7 387.73 89.7 384.76 99.89 382.21 99.89 379.94 92.76 377.74 99.89 375.2 99.89zM390.62 87.85c-1.01 0-1.58-.62-1.58-1.56 0-.92.57-1.56 1.58-1.56 1.03 0 1.61.64 1.61 1.56-.01.95-.58 1.56-1.61 1.56zm-1.3 11.99V89.76l2.6-.37v10.45h-2.6zM398.27 100.17c-2.27 0-3.45-.99-3.37-3.43l.15-4.78-1.58-.18.07-1.65 1.58-.51.04-2.24h2.51l-.04 2.38h2.86l-.07 2.13h-2.95l-.13 4.69c-.02.95.46 1.39 1.34 1.39.53 0 1.06-.13 1.58-.31l.35 2.11c-.75.27-1.46.4-2.34.4zM409.17 99.84v-6.18c0-1.5-.59-2-1.69-2-.97 0-1.8.46-2.31.95v7.24h-2.6v-14.7l2.6-.35v6.18c.9-.99 2.11-1.61 3.43-1.61 1.96 0 3.17 1.32 3.17 3.5v6.97h-2.6zM420.78 87.85c-1.01 0-1.58-.62-1.58-1.56 0-.92.57-1.56 1.58-1.56 1.03 0 1.61.64 1.61 1.56 0 .95-.58 1.56-1.61 1.56zm-1.3 11.99V89.76l2.6-.37v10.45h-2.6zM428.44 100.17c-2.27 0-3.45-.99-3.37-3.43l.15-4.78-1.58-.18.07-1.65 1.58-.51.04-2.24h2.51l-.04 2.38h2.86l-.07 2.13h-2.95l-.13 4.69c-.02.95.46 1.39 1.34 1.39.53 0 1.06-.13 1.58-.31l.35 2.11c-.76.27-1.46.4-2.34.4zM434.11 100.17c-1.03 0-1.76-.75-1.76-1.72s.73-1.69 1.76-1.69c1.01 0 1.72.73 1.72 1.69s-.71 1.72-1.72 1.72zM449.55 88.45L449.55 99.85 446.89 99.85 446.89 88.45 442.29 88.45 442.29 86.09 454.15 86.09 454.15 88.45zM462.16 99.84v-6.18c0-1.5-.59-2-1.69-2-.97 0-1.8.46-2.31.95v7.24h-2.6v-14.7l2.6-.35v6.18c.9-.99 2.11-1.61 3.43-1.61 1.96 0 3.17 1.32 3.17 3.5v6.97h-2.6zM469.42 95.33c.11 1.65 1.23 2.77 3.04 2.77 1.08 0 2.24-.35 3.17-.92l.33 2.16c-.97.53-2.31.84-3.67.84-3.26 0-5.41-2.07-5.41-5.3 0-3.3 2.2-5.5 5.24-5.5 2.68 0 4.18 1.63 4.18 4.11 0 .55-.09 1.25-.22 1.69l-6.64.09v.06h-.02zm4.42-1.6v-.18c0-1.36-.59-2.22-1.94-2.22-1.43 0-2.29 1.17-2.42 2.42l4.36-.02zM3.78 127.84h-2.6v-10.08l2.6-.37v1.65c.64-1.08 1.45-1.67 2.64-1.67.62 0 1.25.13 1.8.46l-.57 2.33c-.48-.26-.97-.4-1.45-.4-.9 0-1.74.57-2.42 1.8v6.28zM11.61 123.33c.11 1.65 1.23 2.77 3.04 2.77 1.08 0 2.24-.35 3.17-.92l.33 2.16c-.97.53-2.31.84-3.67.84-3.26 0-5.41-2.07-5.41-5.3 0-3.3 2.2-5.5 5.24-5.5 2.68 0 4.18 1.63 4.18 4.11 0 .55-.09 1.25-.22 1.69l-6.64.09v.06h-.02zm4.43-1.6v-.18c0-1.36-.59-2.22-1.94-2.22-1.43 0-2.29 1.17-2.42 2.42l4.36-.02zM23.78 128.2c-1.32 0-2.93-.37-3.94-.95l.57-2.02c1.01.57 2.31.95 3.43.95 1.01 0 1.67-.42 1.67-1.12 0-.79-.86-1.08-2.05-1.36-1.91-.44-3.43-1.23-3.43-3.15s1.61-3.17 4.05-3.17c1.25 0 2.75.33 3.7.81l-.57 2.02c-.99-.51-2.29-.84-3.19-.84-.95 0-1.52.35-1.52 1.01 0 .77.86 1.04 2.05 1.32 1.94.46 3.45 1.21 3.45 3.19 0 1.9-1.62 3.31-4.22 3.31zM32.62 117.7v6.18c0 1.5.62 1.98 1.72 1.98.92 0 1.74-.42 2.22-.88v-7.28h2.6v10.08l-2.6.35v-1.5c-.84.9-2.05 1.54-3.34 1.54-1.98 0-3.19-1.32-3.19-3.5v-6.97h2.59zM41.93 127.84L41.93 113.14 44.53 112.79 44.53 127.84zM50.88 128.17c-2.27 0-3.45-.99-3.37-3.43l.15-4.78-1.58-.18.07-1.65 1.58-.51.04-2.24h2.51l-.04 2.38h2.86l-.07 2.13h-2.95l-.13 4.69c-.02.95.46 1.39 1.34 1.39.53 0 1.06-.13 1.58-.31l.35 2.11c-.75.27-1.46.4-2.34.4zM62.08 127.89L59.07 117.7 61.78 117.7 63.54 124.83 65.56 117.72 68.16 117.72 70.34 124.78 71.86 117.7 74.61 117.7 71.64 127.89 69.09 127.89 66.82 120.76 64.62 127.89zM81.88 126.68c-.73.88-1.61 1.5-2.86 1.5-1.83 0-3.15-1.25-3.15-2.86 0-1.87 1.36-3.46 6.01-3.61v-.24c0-1.36-.57-1.94-2.02-1.94-1.03 0-2.29.46-3.37 1.08l-.53-2.05c.99-.62 2.57-1.19 4.25-1.19 3.12 0 4.33 1.39 4.27 4.18v3.63c0 .77.13.88.9.92l-.2 1.96c-1.94.22-2.84-.37-3.21-1.39h-.09v.01zm0-3.61c-2.53.31-3.45.81-3.45 1.89 0 .77.59 1.32 1.52 1.32.81 0 1.47-.37 1.94-.88v-2.33h-.01zM90.28 128.2c-1.32 0-2.93-.37-3.94-.95l.57-2.02c1.01.57 2.31.95 3.43.95 1.01 0 1.67-.42 1.67-1.12 0-.79-.86-1.08-2.05-1.36-1.91-.44-3.43-1.23-3.43-3.15s1.61-3.17 4.05-3.17c1.25 0 2.75.33 3.7.81l-.57 2.02c-.99-.51-2.29-.84-3.19-.84-.95 0-1.52.35-1.52 1.01 0 .77.86 1.04 2.05 1.32 1.94.46 3.45 1.21 3.45 3.19.01 1.9-1.62 3.31-4.22 3.31zM106.96 126.68c-.73.88-1.61 1.5-2.86 1.5-1.83 0-3.15-1.25-3.15-2.86 0-1.87 1.36-3.46 6.01-3.61v-.24c0-1.36-.57-1.94-2.02-1.94-1.03 0-2.29.46-3.37 1.08l-.53-2.05c.99-.62 2.57-1.19 4.25-1.19 3.12 0 4.33 1.39 4.27 4.18v3.63c0 .77.13.88.9.92l-.2 1.96c-1.94.22-2.84-.37-3.21-1.39h-.09v.01zm0-3.61c-2.53.31-3.45.81-3.45 1.89 0 .77.59 1.32 1.52 1.32.81 0 1.47-.37 1.94-.88v-2.33h-.01zM118.82 127.84v-6.18c0-1.5-.59-2-1.76-2-.9 0-1.74.46-2.24.95v7.24h-2.6v-10.1l2.6-.35v1.61c.9-.99 2.11-1.63 3.34-1.63 2.05 0 3.26 1.32 3.26 3.5v6.97h-2.6v-.01zM131.09 123.33c.11 1.65 1.23 2.77 3.04 2.77 1.08 0 2.24-.35 3.17-.92l.33 2.16c-.97.53-2.31.84-3.67.84-3.26 0-5.41-2.07-5.41-5.3 0-3.3 2.2-5.5 5.24-5.5 2.68 0 4.18 1.63 4.18 4.11 0 .55-.09 1.25-.22 1.69l-6.64.09v.06h-.02zm4.43-1.6v-.18c0-1.36-.59-2.22-1.94-2.22-1.43 0-2.29 1.17-2.42 2.42l4.36-.02zM146.71 127.84v-6.18c0-1.5-.59-2-1.76-2-.9 0-1.74.46-2.24.95v7.24h-2.6v-10.1l2.6-.35v1.61c.9-.99 2.11-1.63 3.34-1.63 2.05 0 3.26 1.32 3.26 3.5v6.97h-2.6v-.01zM155.6 128.17c-2.27 0-3.45-.99-3.37-3.43l.15-4.78-1.58-.18.07-1.65 1.58-.51.04-2.24H155l-.04 2.38h2.86l-.07 2.13h-2.95l-.13 4.69c-.02.95.46 1.39 1.34 1.39.53 0 1.06-.13 1.58-.31l.35 2.11c-.76.27-1.46.4-2.34.4zM161.19 115.85c-1.01 0-1.58-.62-1.58-1.56 0-.92.57-1.56 1.58-1.56 1.03 0 1.61.64 1.61 1.56-.01.95-.58 1.56-1.61 1.56zm-1.3 11.99v-10.08l2.6-.37v10.45h-2.6zM167.85 127.84h-2.6v-10.08l2.6-.37v1.65c.64-1.08 1.45-1.67 2.64-1.67.62 0 1.25.13 1.8.46l-.57 2.33c-.48-.26-.97-.4-1.45-.4-.9 0-1.74.57-2.42 1.8v6.28zM175.69 123.33c.11 1.65 1.23 2.77 3.04 2.77 1.08 0 2.24-.35 3.17-.92l.33 2.16c-.97.53-2.31.84-3.67.84-3.26 0-5.41-2.07-5.41-5.3 0-3.3 2.2-5.5 5.24-5.5 2.68 0 4.18 1.63 4.18 4.11 0 .55-.09 1.25-.22 1.69l-6.64.09v.06h-.02zm4.42-1.6v-.18c0-1.36-.59-2.22-1.94-2.22-1.43 0-2.29 1.17-2.42 2.42l4.36-.02zM184.71 127.84L184.71 113.14 187.31 112.79 187.31 127.84zM195.29 127.65l-.59 1.58c-1.01 2.77-2.16 3.61-4.03 3.61-.92 0-1.76-.22-2.57-.59l.77-2.13c.59.29 1.08.48 1.61.48.75 0 1.14-.33 1.69-1.72l.44-1.17-3.96-10.01h2.79l2.53 7.26 2.42-7.26h2.77l-3.87 9.95zM208.11 127.84h-2.6v-10.08l2.6-.37v1.65c.64-1.08 1.45-1.67 2.64-1.67.62 0 1.25.13 1.8.46l-.57 2.33c-.48-.26-.97-.4-1.45-.4-.9 0-1.74.57-2.42 1.8v6.28zM215.95 123.33c.11 1.65 1.23 2.77 3.04 2.77 1.08 0 2.24-.35 3.17-.92l.33 2.16c-.97.53-2.31.84-3.67.84-3.26 0-5.41-2.07-5.41-5.3 0-3.3 2.2-5.5 5.24-5.5 2.68 0 4.18 1.63 4.18 4.11 0 .55-.09 1.25-.22 1.69l-6.64.09v.06h-.02zm4.42-1.6v-.18c0-1.36-.59-2.22-1.94-2.22-1.43 0-2.29 1.17-2.42 2.42l4.36-.02zM237.7 127.84v-6.16c0-1.5-.59-2.02-1.67-2.02-.9 0-1.61.46-2.11.9v7.29h-2.6v-6.16c0-1.5-.57-2.02-1.65-2.02-.92 0-1.63.37-2.11.84v7.35h-2.6v-10.1l2.6-.35v1.43c.95-.95 1.98-1.45 3.23-1.45 1.23 0 2.27.59 2.77 1.74 1.01-1.1 2.22-1.74 3.61-1.74 1.92 0 3.12 1.32 3.12 3.52v6.95h-2.59v-.02zM248.31 126.68c-.73.88-1.61 1.5-2.86 1.5-1.83 0-3.15-1.25-3.15-2.86 0-1.87 1.36-3.46 6.01-3.61v-.24c0-1.36-.57-1.94-2.02-1.94-1.03 0-2.29.46-3.37 1.08l-.53-2.05c.99-.62 2.57-1.19 4.25-1.19 3.12 0 4.33 1.39 4.27 4.18v3.63c0 .77.13.88.9.92l-.2 1.96c-1.94.22-2.84-.37-3.21-1.39h-.09v.01zm0-3.61c-2.53.31-3.45.81-3.45 1.89 0 .77.59 1.32 1.52 1.32.81 0 1.47-.37 1.94-.88v-2.33h-.01zM260.25 113.15l2.6-.35v15.05h-2.6v-.99c-.68.66-1.61 1.32-2.86 1.32-2.68 0-4.42-2.18-4.42-5.32 0-3.23 2.24-5.48 5.13-5.48.73 0 1.52.13 2.16.33v-4.56h-.01zm-1.91 6.29c-1.74 0-2.73 1.43-2.73 3.3 0 1.98.99 3.24 2.55 3.24.86 0 1.52-.31 2.09-.84v-5.1c-.5-.38-1.14-.6-1.91-.6zM267.58 123.33c.11 1.65 1.23 2.77 3.04 2.77 1.08 0 2.24-.35 3.17-.92l.33 2.16c-.97.53-2.31.84-3.67.84-3.26 0-5.41-2.07-5.41-5.3 0-3.3 2.2-5.5 5.24-5.5 2.68 0 4.18 1.63 4.18 4.11 0 .55-.09 1.25-.22 1.69l-6.64.09v.06h-.02zm4.42-1.6v-.18c0-1.36-.59-2.22-1.94-2.22-1.43 0-2.29 1.17-2.42 2.42l4.36-.02zM286.28 128.17c-3.3 0-5.26-2.05-5.26-5.37 0-3.3 2.16-5.43 5.35-5.43 1.39 0 2.57.31 3.5.86l-.55 2.09c-.84-.53-1.8-.81-2.75-.81-1.87 0-2.88 1.28-2.88 3.23 0 2.07 1.17 3.28 2.88 3.28 1.06 0 2.02-.29 2.82-.79l.42 2.11c-.89.53-2.17.83-3.53.83zM296.42 128.17c-2.97 0-5.13-2.02-5.13-5.39 0-3.34 2.27-5.43 5.26-5.43 2.99 0 5.13 2.07 5.13 5.41 0 3.32-2.29 5.41-5.26 5.41zm.04-8.73c-1.69 0-2.62 1.36-2.62 3.32 0 1.94.97 3.3 2.66 3.3 1.67 0 2.6-1.32 2.6-3.28 0-1.95-.96-3.34-2.64-3.34zM316.59 127.84v-6.16c0-1.5-.59-2.02-1.67-2.02-.9 0-1.61.46-2.11.9v7.29h-2.6v-6.16c0-1.5-.57-2.02-1.65-2.02-.92 0-1.63.37-2.11.84v7.35h-2.6v-10.1l2.6-.35v1.43c.95-.95 1.98-1.45 3.23-1.45 1.23 0 2.27.59 2.77 1.74 1.01-1.1 2.22-1.74 3.61-1.74 1.92 0 3.12 1.32 3.12 3.52v6.95h-2.59v-.02zM327.31 117.37c2.68 0 4.44 2.18 4.44 5.3 0 3.23-2.24 5.48-5.13 5.48-.66 0-1.52-.09-2.16-.29v4.82h-2.6v-14.94l2.6-.35v1.28c.69-.66 1.62-1.3 2.85-1.3zm-2.84 8.14c.48.37 1.14.57 1.91.57 1.74 0 2.73-1.41 2.73-3.3 0-1.98-.95-3.23-2.55-3.23-.86 0-1.52.33-2.09.84v5.12zM339.25 126.68c-.73.88-1.61 1.5-2.86 1.5-1.83 0-3.15-1.25-3.15-2.86 0-1.87 1.36-3.46 6.01-3.61v-.24c0-1.36-.57-1.94-2.02-1.94-1.03 0-2.29.46-3.37 1.08l-.53-2.05c.99-.62 2.57-1.19 4.25-1.19 3.12 0 4.33 1.39 4.27 4.18v3.63c0 .77.13.88.9.92l-.2 1.96c-1.94.22-2.84-.37-3.21-1.39h-.09v.01zm0-3.61c-2.53.31-3.45.81-3.45 1.89 0 .77.59 1.32 1.52 1.32.81 0 1.47-.37 1.94-.88v-2.33h-.01zM351.11 127.84v-6.18c0-1.5-.59-2-1.76-2-.9 0-1.74.46-2.24.95v7.24h-2.6v-10.1l2.6-.35v1.61c.9-.99 2.11-1.63 3.34-1.63 2.05 0 3.26 1.32 3.26 3.5v6.97h-2.6v-.01zM361.49 127.65l-.59 1.58c-1.01 2.77-2.16 3.61-4.03 3.61-.92 0-1.76-.22-2.57-.59l.77-2.13c.59.29 1.08.48 1.61.48.75 0 1.14-.33 1.69-1.72l.44-1.17-3.96-10.01h2.79l2.53 7.26 2.42-7.26h2.77l-3.87 9.95zM371.72 127.84L371.72 113.14 374.32 112.79 374.32 127.84zM381.62 128.17c-2.97 0-5.13-2.02-5.13-5.39 0-3.34 2.27-5.43 5.26-5.43 2.99 0 5.13 2.07 5.13 5.41 0 3.32-2.29 5.41-5.26 5.41zm.05-8.73c-1.69 0-2.62 1.36-2.62 3.32 0 1.94.97 3.3 2.66 3.3 1.67 0 2.6-1.32 2.6-3.28 0-1.95-.97-3.34-2.64-3.34zM388.49 126.5c0-.92.75-1.76 1.87-2.13-1.12-.57-1.85-1.72-1.85-3.12 0-2.09 1.65-3.87 4.47-3.87 1.14 0 2.16.33 2.86.64l2.73-.24.11 2.27-1.94-.33c.26.29.46 1.06.46 1.58 0 2.07-1.74 3.7-4.25 3.7-.48 0-.84-.04-1.39-.18-.35.13-.79.46-.79.88 0 .55.46.79 2.09.79h1.06c2.9 0 4.55.81 4.55 2.79 0 2.4-2.71 4.05-5.92 4.05-2.68 0-4.82-.99-4.82-2.82 0-1.06.77-2 2.29-2.25-.87-.31-1.53-.94-1.53-1.76zm1.6 3.48c0 .95 1.17 1.61 2.88 1.61 1.78 0 3.15-.66 3.15-1.72 0-.95-.92-1.17-2.82-1.17-.64 0-1.52-.04-1.94-.09-.72.27-1.27.75-1.27 1.37zm2.91-6.69c1.17 0 1.83-.84 1.83-2.11 0-1.21-.64-2.05-1.94-2.05-1.14 0-1.87.86-1.87 2.13 0 1.22.72 2.03 1.98 2.03zM404.64 128.17c-2.97 0-5.13-2.02-5.13-5.39 0-3.34 2.27-5.43 5.26-5.43 2.99 0 5.13 2.07 5.13 5.41-.01 3.32-2.29 5.41-5.26 5.41zm.04-8.73c-1.69 0-2.62 1.36-2.62 3.32 0 1.94.97 3.3 2.66 3.3 1.67 0 2.6-1.32 2.6-3.28 0-1.95-.97-3.34-2.64-3.34zM422.41 126.68c-.73.88-1.61 1.5-2.86 1.5-1.83 0-3.15-1.25-3.15-2.86 0-1.87 1.36-3.46 6.01-3.61v-.24c0-1.36-.57-1.94-2.02-1.94-1.03 0-2.29.46-3.37 1.08l-.53-2.05c.99-.62 2.57-1.19 4.25-1.19 3.12 0 4.33 1.39 4.27 4.18v3.63c0 .77.13.88.9.92l-.2 1.96c-1.94.22-2.84-.37-3.21-1.39h-.09v.01zm0-3.61c-2.53.31-3.45.81-3.45 1.89 0 .77.59 1.32 1.52 1.32.81 0 1.47-.37 1.94-.88v-2.33h-.01zM434.27 127.84v-6.18c0-1.5-.59-2-1.76-2-.9 0-1.74.46-2.24.95v7.24h-2.6v-10.1l2.6-.35v1.61c.9-.99 2.11-1.63 3.34-1.63 2.05 0 3.26 1.32 3.26 3.5v6.97h-2.6v-.01zM446.26 113.15l2.6-.35v15.05h-2.6v-.99c-.68.66-1.61 1.32-2.86 1.32-2.68 0-4.42-2.18-4.42-5.32 0-3.23 2.24-5.48 5.13-5.48.73 0 1.52.13 2.16.33v-4.56h-.01zm-1.92 6.29c-1.74 0-2.73 1.43-2.73 3.3 0 1.98.99 3.24 2.55 3.24.86 0 1.52-.31 2.09-.84v-5.1c-.5-.38-1.14-.6-1.91-.6zM461.96 126.68c-.73.88-1.61 1.5-2.86 1.5-1.83 0-3.15-1.25-3.15-2.86 0-1.87 1.36-3.46 6.01-3.61v-.24c0-1.36-.57-1.94-2.02-1.94-1.03 0-2.29.46-3.37 1.08l-.53-2.05c.99-.62 2.57-1.19 4.25-1.19 3.12 0 4.33 1.39 4.27 4.18v3.63c0 .77.13.88.9.92l-.2 1.96c-1.94.22-2.84-.37-3.21-1.39h-.09v.01zm0-3.61c-2.53.31-3.45.81-3.45 1.89 0 .77.59 1.32 1.52 1.32.81 0 1.47-.37 1.94-.88v-2.33h-.01zM473.82 127.84v-6.18c0-1.5-.59-2-1.76-2-.9 0-1.74.46-2.24.95v7.24h-2.6v-10.1l2.6-.35v1.61c.9-.99 2.11-1.63 3.34-1.63 2.05 0 3.26 1.32 3.26 3.5v6.97h-2.6v-.01zM3.14 151.33c.11 1.65 1.23 2.77 3.04 2.77 1.08 0 2.24-.35 3.17-.92l.33 2.16c-.97.53-2.31.84-3.67.84-3.26 0-5.41-2.07-5.41-5.3 0-3.3 2.2-5.5 5.24-5.5 2.68 0 4.18 1.63 4.18 4.11 0 .55-.09 1.25-.22 1.69l-6.64.09v.06h-.02zm4.43-1.6v-.18c0-1.36-.59-2.22-1.94-2.22-1.43 0-2.29 1.17-2.42 2.42l4.36-.02zM12.16 155.84L12.16 141.14 14.76 140.79 14.76 155.84zM19.49 151.33c.11 1.65 1.23 2.77 3.04 2.77 1.08 0 2.24-.35 3.17-.92l.33 2.16c-.97.53-2.31.84-3.67.84-3.26 0-5.41-2.07-5.41-5.3 0-3.3 2.2-5.5 5.24-5.5 2.68 0 4.18 1.63 4.18 4.11 0 .55-.09 1.25-.22 1.69l-6.64.09v.06h-.02zm4.42-1.6v-.18c0-1.36-.59-2.22-1.94-2.22-1.43 0-2.29 1.17-2.42 2.42l4.36-.02zM27.94 154.5c0-.92.75-1.76 1.87-2.13-1.12-.57-1.85-1.72-1.85-3.12 0-2.09 1.65-3.87 4.47-3.87 1.14 0 2.16.33 2.86.64l2.73-.24.11 2.27-1.94-.33c.26.29.46 1.06.46 1.58 0 2.07-1.74 3.7-4.25 3.7-.48 0-.84-.04-1.39-.18-.35.13-.79.46-.79.88 0 .55.46.79 2.09.79h1.06c2.9 0 4.55.81 4.55 2.79 0 2.4-2.71 4.05-5.92 4.05-2.68 0-4.82-.99-4.82-2.82 0-1.06.77-2 2.29-2.25-.87-.31-1.53-.94-1.53-1.76zm1.6 3.48c0 .95 1.17 1.61 2.88 1.61 1.78 0 3.15-.66 3.15-1.72 0-.95-.92-1.17-2.82-1.17-.64 0-1.52-.04-1.94-.09-.72.27-1.27.75-1.27 1.37zm2.91-6.69c1.17 0 1.83-.84 1.83-2.11 0-1.21-.64-2.05-1.94-2.05-1.14 0-1.87.86-1.87 2.13 0 1.22.72 2.03 1.98 2.03zM44.88 154.68c-.73.88-1.61 1.5-2.86 1.5-1.83 0-3.15-1.25-3.15-2.86 0-1.87 1.36-3.46 6.01-3.61v-.24c0-1.36-.57-1.94-2.02-1.94-1.03 0-2.29.46-3.37 1.08l-.53-2.05c.99-.62 2.57-1.19 4.25-1.19 3.12 0 4.33 1.39 4.27 4.18v3.63c0 .77.13.88.9.92l-.2 1.96c-1.94.22-2.84-.37-3.21-1.39h-.09v.01zm0-3.61c-2.53.31-3.45.81-3.45 1.89 0 .77.59 1.32 1.52 1.32.81 0 1.47-.37 1.94-.88v-2.33h-.01zM56.74 155.84v-6.18c0-1.5-.59-2-1.76-2-.9 0-1.74.46-2.24.95v7.24h-2.6v-10.1l2.6-.35v1.61c.9-.99 2.11-1.63 3.34-1.63 2.05 0 3.26 1.32 3.26 3.5v6.97h-2.6v-.01zM65.62 156.17c-2.27 0-3.45-.99-3.37-3.43l.15-4.78-1.58-.18.07-1.65 1.58-.51.04-2.24h2.51l-.04 2.38h2.86l-.07 2.13h-2.95l-.13 4.69c-.02.95.46 1.39 1.34 1.39.53 0 1.06-.13 1.58-.31l.35 2.11c-.75.27-1.46.4-2.34.4zM76.82 155.89L73.81 145.7 76.52 145.7 78.28 152.83 80.3 145.72 82.9 145.72 85.08 152.78 86.6 145.7 89.35 145.7 86.38 155.89 83.83 155.89 81.56 148.76 79.36 155.89zM92.92 151.33c.11 1.65 1.23 2.77 3.04 2.77 1.08 0 2.24-.35 3.17-.92l.33 2.16c-.97.53-2.31.84-3.67.84-3.26 0-5.41-2.07-5.41-5.3 0-3.3 2.2-5.5 5.24-5.5 2.68 0 4.18 1.63 4.18 4.11 0 .55-.09 1.25-.22 1.69l-6.64.09v.06h-.02zm4.43-1.6v-.18c0-1.36-.59-2.22-1.94-2.22-1.43 0-2.29 1.17-2.42 2.42l4.36-.02zM106.7 156.15c-.66 0-1.61-.13-2.27-.35l-2.49.37v-15.03l2.6-.35v5.88c.68-.66 1.61-1.3 2.84-1.3 2.68 0 4.44 2.18 4.44 5.3 0 3.24-2.24 5.48-5.12 5.48zm-.07-8.6c-.86 0-1.52.33-2.09.84v5.13c.48.37 1.14.57 1.91.57 1.74 0 2.73-1.41 2.73-3.3 0-1.99-.94-3.24-2.55-3.24zM117.08 156.2c-1.32 0-2.93-.37-3.94-.95l.57-2.02c1.01.57 2.31.95 3.43.95 1.01 0 1.67-.42 1.67-1.12 0-.79-.86-1.08-2.05-1.36-1.91-.44-3.43-1.23-3.43-3.15s1.61-3.17 4.05-3.17c1.25 0 2.75.33 3.7.81l-.57 2.02c-.99-.51-2.29-.84-3.19-.84-.95 0-1.52.35-1.52 1.01 0 .77.86 1.04 2.05 1.32 1.94.46 3.45 1.21 3.45 3.19 0 1.9-1.62 3.31-4.22 3.31zM124.71 143.85c-1.01 0-1.58-.62-1.58-1.56 0-.92.57-1.56 1.58-1.56 1.03 0 1.61.64 1.61 1.56 0 .95-.57 1.56-1.61 1.56zm-1.29 11.99v-10.08l2.6-.37v10.45h-2.6zM132.37 156.17c-2.27 0-3.45-.99-3.37-3.43l.15-4.78-1.58-.18.07-1.65 1.58-.51.04-2.24h2.51l-.04 2.38h2.86l-.07 2.13h-2.95l-.13 4.69c-.02.95.46 1.39 1.34 1.39.53 0 1.06-.13 1.58-.31l.35 2.11c-.76.27-1.46.4-2.34.4zM138.51 151.33c.11 1.65 1.23 2.77 3.04 2.77 1.08 0 2.24-.35 3.17-.92l.33 2.16c-.97.53-2.31.84-3.67.84-3.26 0-5.41-2.07-5.41-5.3 0-3.3 2.2-5.5 5.24-5.5 2.68 0 4.18 1.63 4.18 4.11 0 .55-.09 1.25-.22 1.69l-6.64.09v.06h-.02zm4.42-1.6v-.18c0-1.36-.59-2.22-1.94-2.22-1.43 0-2.29 1.17-2.42 2.42l4.36-.02zM156.13 156.17c-2.27 0-3.45-.99-3.37-3.43l.15-4.78-1.58-.18.07-1.65 1.58-.51.04-2.24h2.51l-.04 2.38h2.86l-.07 2.13h-2.95l-.13 4.69c-.02.95.46 1.39 1.34 1.39.53 0 1.06-.13 1.58-.31l.35 2.11c-.76.27-1.46.4-2.34.4zM167.02 155.84v-6.18c0-1.5-.59-2-1.69-2-.97 0-1.8.46-2.31.95v7.24h-2.6v-14.7l2.6-.35v6.18c.9-.99 2.11-1.61 3.43-1.61 1.96 0 3.17 1.32 3.17 3.5v6.97h-2.6zM177.65 154.68c-.73.88-1.61 1.5-2.86 1.5-1.83 0-3.15-1.25-3.15-2.86 0-1.87 1.36-3.46 6.01-3.61v-.24c0-1.36-.57-1.94-2.02-1.94-1.03 0-2.29.46-3.37 1.08l-.53-2.05c.99-.62 2.57-1.19 4.25-1.19 3.12 0 4.33 1.39 4.27 4.18v3.63c0 .77.13.88.9.92l-.2 1.96c-1.94.22-2.84-.37-3.21-1.39h-.09v.01zm0-3.61c-2.53.31-3.45.81-3.45 1.89 0 .77.59 1.32 1.52 1.32.81 0 1.47-.37 1.94-.88v-2.33h-.01zM186.49 156.17c-2.27 0-3.45-.99-3.37-3.43l.15-4.78-1.58-.18.07-1.65 1.58-.51.04-2.24h2.51l-.04 2.38h2.86l-.07 2.13h-2.95l-.13 4.69c-.02.95.46 1.39 1.34 1.39.53 0 1.06-.13 1.58-.31l.35 2.11c-.76.27-1.46.4-2.34.4zM197.69 155.89L194.68 145.7 197.39 145.7 199.15 152.83 201.17 145.72 203.77 145.72 205.95 152.78 207.47 145.7 210.22 145.7 207.25 155.89 204.7 155.89 202.43 148.76 200.23 155.89zM213.79 151.33c.11 1.65 1.23 2.77 3.04 2.77 1.08 0 2.24-.35 3.17-.92l.33 2.16c-.97.53-2.31.84-3.67.84-3.26 0-5.41-2.07-5.41-5.3 0-3.3 2.2-5.5 5.24-5.5 2.68 0 4.18 1.63 4.18 4.11 0 .55-.09 1.25-.22 1.69l-6.64.09v.06h-.02zm4.42-1.6v-.18c0-1.36-.59-2.22-1.94-2.22-1.43 0-2.29 1.17-2.42 2.42l4.36-.02zM233.15 154.68c-.73.88-1.61 1.5-2.86 1.5-1.83 0-3.15-1.25-3.15-2.86 0-1.87 1.36-3.46 6.01-3.61v-.24c0-1.36-.57-1.94-2.02-1.94-1.03 0-2.29.46-3.37 1.08l-.53-2.05c.99-.62 2.57-1.19 4.25-1.19 3.12 0 4.33 1.39 4.27 4.18v3.63c0 .77.13.88.9.92l-.2 1.96c-1.94.22-2.84-.37-3.21-1.39h-.09v.01zm0-3.61c-2.53.31-3.45.81-3.45 1.89 0 .77.59 1.32 1.52 1.32.81 0 1.47-.37 1.94-.88v-2.33h-.01zM241 155.84h-2.6v-10.08l2.6-.37v1.65c.64-1.08 1.45-1.67 2.64-1.67.62 0 1.25.13 1.8.46l-.57 2.33c-.48-.26-.97-.4-1.45-.4-.9 0-1.74.57-2.42 1.8v6.28zM248.83 151.33c.11 1.65 1.23 2.77 3.04 2.77 1.08 0 2.24-.35 3.17-.92l.33 2.16c-.97.53-2.31.84-3.67.84-3.26 0-5.41-2.07-5.41-5.3 0-3.3 2.2-5.5 5.24-5.5 2.68 0 4.18 1.63 4.18 4.11 0 .55-.09 1.25-.22 1.69l-6.64.09v.06h-.02zm4.43-1.6v-.18c0-1.36-.59-2.22-1.94-2.22-1.43 0-2.29 1.17-2.42 2.42l4.36-.02zM266.46 156.17c-2.27 0-3.45-.99-3.37-3.43l.15-4.78-1.58-.18.07-1.65 1.58-.51.04-2.24h2.51l-.04 2.38h2.86l-.07 2.13h-2.95l-.13 4.69c-.02.95.46 1.39 1.34 1.39.53 0 1.06-.13 1.58-.31l.35 2.11c-.76.27-1.46.4-2.34.4zM273.34 155.84h-2.6v-10.08l2.6-.37v1.65c.64-1.08 1.45-1.67 2.64-1.67.62 0 1.25.13 1.8.46l-.57 2.33c-.48-.26-.97-.4-1.45-.4-.9 0-1.74.57-2.42 1.8v6.28zM281.86 145.7v6.18c0 1.5.62 1.98 1.72 1.98.92 0 1.74-.42 2.22-.88v-7.28h2.6v10.08l-2.6.35v-1.5c-.84.9-2.05 1.54-3.34 1.54-1.98 0-3.19-1.32-3.19-3.5v-6.97h2.59zM291.16 155.84L291.16 141.14 293.76 140.79 293.76 155.84zM301.74 155.65l-.59 1.58c-1.01 2.77-2.16 3.61-4.03 3.61-.92 0-1.76-.22-2.57-.59l.77-2.13c.59.29 1.08.48 1.61.48.75 0 1.14-.33 1.69-1.72l.44-1.17-3.96-10.01h2.79l2.53 7.26 2.42-7.26h2.77l-3.87 9.95zM317.41 145.37c2.68 0 4.44 2.18 4.44 5.3 0 3.23-2.24 5.48-5.13 5.48-.66 0-1.52-.09-2.16-.29v4.82h-2.6v-14.94l2.6-.35v1.28c.69-.66 1.61-1.3 2.85-1.3zm-2.84 8.14c.48.37 1.14.57 1.91.57 1.74 0 2.73-1.41 2.73-3.3 0-1.98-.95-3.23-2.55-3.23-.86 0-1.52.33-2.09.84v5.12zM326.62 155.84h-2.6v-10.08l2.6-.37v1.65c.64-1.08 1.45-1.67 2.64-1.67.62 0 1.25.13 1.8.46l-.57 2.33c-.48-.26-.97-.4-1.45-.4-.9 0-1.74.57-2.42 1.8v6.28zM337.05 156.17c-2.97 0-5.13-2.02-5.13-5.39 0-3.34 2.27-5.43 5.26-5.43 2.99 0 5.13 2.07 5.13 5.41 0 3.32-2.29 5.41-5.26 5.41zm.05-8.73c-1.69 0-2.62 1.36-2.62 3.32 0 1.94.97 3.3 2.66 3.3 1.67 0 2.6-1.32 2.6-3.28 0-1.95-.97-3.34-2.64-3.34zM347 145.7v6.18c0 1.5.62 1.98 1.72 1.98.92 0 1.74-.42 2.22-.88v-7.28h2.6v10.08l-2.6.35v-1.5c-.84.9-2.05 1.54-3.34 1.54-1.98 0-3.19-1.32-3.19-3.5v-6.97H347zM362.99 141.15l2.6-.35v15.05h-2.6v-.99c-.68.66-1.61 1.32-2.86 1.32-2.68 0-4.42-2.18-4.42-5.32 0-3.23 2.24-5.48 5.13-5.48.73 0 1.52.13 2.16.33v-4.56h-.01zm-1.91 6.29c-1.74 0-2.73 1.43-2.73 3.3 0 1.98.99 3.24 2.55 3.24.86 0 1.52-.31 2.09-.84v-5.1c-.51-.38-1.14-.6-1.91-.6zM377.91 156.17c-2.97 0-5.13-2.02-5.13-5.39 0-3.34 2.27-5.43 5.26-5.43 2.99 0 5.13 2.07 5.13 5.41-.01 3.32-2.29 5.41-5.26 5.41zm.04-8.73c-1.69 0-2.62 1.36-2.62 3.32 0 1.94.97 3.3 2.66 3.3 1.67 0 2.6-1.32 2.6-3.28 0-1.95-.97-3.34-2.64-3.34zM391.33 143.26c-.48-.22-1.06-.42-1.65-.42-.95 0-1.34.55-1.34 1.8v1.12h3.01l-.07 2.13h-2.88v7.94h-2.6v-7.92l-1.76-.13.09-1.65 1.65-.48.02-1.08c.07-2.9 1.41-4.05 3.67-4.05.99 0 1.89.29 2.4.51.01.03-.54 2.25-.54 2.23zM393.39 156.17c-1.03 0-1.76-.75-1.76-1.72s.73-1.69 1.76-1.69c1.01 0 1.72.73 1.72 1.69s-.71 1.72-1.72 1.72zM408.84 144.45L408.84 155.85 406.18 155.85 406.18 144.45 401.58 144.45 401.58 142.09 413.44 142.09 413.44 144.45zM421.44 155.84v-6.18c0-1.5-.59-2-1.69-2-.97 0-1.8.46-2.31.95v7.24h-2.6v-14.7l2.6-.35v6.18c.9-.99 2.11-1.61 3.43-1.61 1.96 0 3.17 1.32 3.17 3.5v6.97h-2.6zM428.7 151.33c.11 1.65 1.23 2.77 3.04 2.77 1.08 0 2.24-.35 3.17-.92l.33 2.16c-.97.53-2.31.84-3.67.84-3.26 0-5.41-2.07-5.41-5.3 0-3.3 2.2-5.5 5.24-5.5 2.68 0 4.18 1.63 4.18 4.11 0 .55-.09 1.25-.22 1.69l-6.64.09v.06h-.02zm4.42-1.6v-.18c0-1.36-.59-2.22-1.94-2.22-1.43 0-2.29 1.17-2.42 2.42l4.36-.02zM444.63 155.89L441.62 145.7 444.33 145.7 446.09 152.83 448.11 145.72 450.71 145.72 452.89 152.78 454.41 145.7 457.16 145.7 454.19 155.89 451.64 155.89 449.37 148.76 447.17 155.89zM460.73 151.33c.11 1.65 1.23 2.77 3.04 2.77 1.08 0 2.24-.35 3.17-.92l.33 2.16c-.97.53-2.31.84-3.67.84-3.26 0-5.41-2.07-5.41-5.3 0-3.3 2.2-5.5 5.24-5.5 2.68 0 4.18 1.63 4.18 4.11 0 .55-.09 1.25-.22 1.69l-6.64.09v.06h-.02zm4.43-1.6v-.18c0-1.36-.59-2.22-1.94-2.22-1.43 0-2.29 1.17-2.42 2.42l4.36-.02zM474.5 156.15c-.66 0-1.61-.13-2.27-.35l-2.49.37v-15.03l2.6-.35v5.88c.68-.66 1.61-1.3 2.84-1.3 2.68 0 4.44 2.18 4.44 5.3.01 3.24-2.23 5.48-5.12 5.48zm-.06-8.6c-.86 0-1.52.33-2.09.84v5.13c.48.37 1.14.57 1.91.57 1.74 0 2.73-1.41 2.73-3.3 0-1.99-.95-3.24-2.55-3.24zM484.89 156.2c-1.32 0-2.93-.37-3.94-.95l.57-2.02c1.01.57 2.31.95 3.43.95 1.01 0 1.67-.42 1.67-1.12 0-.79-.86-1.08-2.05-1.36-1.91-.44-3.43-1.23-3.43-3.15s1.61-3.17 4.05-3.17c1.25 0 2.75.33 3.7.81l-.57 2.02c-.99-.51-2.29-.84-3.19-.84-.95 0-1.52.35-1.52 1.01 0 .77.86 1.04 2.05 1.32 1.94.46 3.45 1.21 3.45 3.19 0 1.9-1.63 3.31-4.22 3.31zM492.52 143.85c-1.01 0-1.58-.62-1.58-1.56 0-.92.57-1.56 1.58-1.56 1.03 0 1.61.64 1.61 1.56 0 .95-.57 1.56-1.61 1.56zm-1.3 11.99v-10.08l2.6-.37v10.45h-2.6zM500.18 156.17c-2.27 0-3.45-.99-3.37-3.43l.15-4.78-1.58-.18.07-1.65 1.58-.51.04-2.24h2.51l-.04 2.38h2.86l-.07 2.13h-2.95l-.13 4.69c-.02.95.46 1.39 1.34 1.39.53 0 1.06-.13 1.58-.31l.35 2.11c-.76.27-1.46.4-2.34.4zM506.32 151.33c.11 1.65 1.23 2.77 3.04 2.77 1.08 0 2.24-.35 3.17-.92l.33 2.16c-.97.53-2.31.84-3.67.84-3.26 0-5.41-2.07-5.41-5.3 0-3.3 2.2-5.5 5.24-5.5 2.68 0 4.18 1.63 4.18 4.11 0 .55-.09 1.25-.22 1.69l-6.64.09v.06h-.02zm4.42-1.6v-.18c0-1.36-.59-2.22-1.94-2.22-1.43 0-2.29 1.17-2.42 2.42l4.36-.02zM7.79 183.84v-6.18c0-1.5-.59-2-1.69-2-.97 0-1.8.46-2.31.95v7.24h-2.6v-14.7l2.6-.35v6.18c.9-.99 2.11-1.61 3.43-1.61 1.96 0 3.17 1.32 3.17 3.5v6.97h-2.6zM18.41 182.68c-.73.88-1.61 1.5-2.86 1.5-1.83 0-3.15-1.25-3.15-2.86 0-1.87 1.36-3.46 6.01-3.61v-.24c0-1.36-.57-1.94-2.02-1.94-1.03 0-2.29.46-3.37 1.08l-.53-2.05c.99-.62 2.57-1.19 4.25-1.19 3.12 0 4.33 1.39 4.27 4.18v3.63c0 .77.13.88.9.92l-.2 1.96c-1.94.22-2.84-.37-3.21-1.39h-.09v.01zm0-3.61c-2.53.31-3.45.81-3.45 1.89 0 .77.59 1.32 1.52 1.32.81 0 1.47-.37 1.94-.88v-2.33h-.01zM26.82 184.2c-1.32 0-2.93-.37-3.94-.95l.57-2.02c1.01.57 2.31.95 3.43.95 1.01 0 1.67-.42 1.67-1.12 0-.79-.86-1.08-2.05-1.36-1.91-.44-3.43-1.23-3.43-3.15s1.61-3.17 4.05-3.17c1.25 0 2.75.33 3.7.81l-.57 2.02c-.99-.51-2.29-.84-3.19-.84-.95 0-1.52.35-1.52 1.01 0 .77.86 1.04 2.05 1.32 1.94.46 3.45 1.21 3.45 3.19 0 1.9-1.63 3.31-4.22 3.31zM42.92 184.15c-.66 0-1.61-.13-2.27-.35l-2.49.37v-15.03l2.6-.35v5.88c.68-.66 1.61-1.3 2.84-1.3 2.68 0 4.44 2.18 4.44 5.3.01 3.24-2.24 5.48-5.12 5.48zm-.07-8.6c-.86 0-1.52.33-2.09.84v5.13c.48.37 1.14.57 1.91.57 1.74 0 2.73-1.41 2.73-3.3.01-1.99-.94-3.24-2.55-3.24zM52.75 183.84h-2.6v-10.08l2.6-.37v1.65c.64-1.08 1.45-1.67 2.64-1.67.62 0 1.25.13 1.8.46l-.57 2.33c-.48-.26-.97-.4-1.45-.4-.9 0-1.74.57-2.42 1.8v6.28zM63.18 184.17c-2.97 0-5.13-2.02-5.13-5.39 0-3.34 2.27-5.43 5.26-5.43 2.99 0 5.13 2.07 5.13 5.41 0 3.32-2.29 5.41-5.26 5.41zm.05-8.73c-1.69 0-2.62 1.36-2.62 3.32 0 1.94.97 3.3 2.66 3.3 1.67 0 2.6-1.32 2.6-3.28 0-1.95-.97-3.34-2.64-3.34zM73.13 173.7v6.18c0 1.5.62 1.98 1.72 1.98.92 0 1.74-.42 2.22-.88v-7.28h2.6v10.08l-2.6.35v-1.5c-.84.9-2.05 1.54-3.34 1.54-1.98 0-3.19-1.32-3.19-3.5v-6.97h2.59zM81.86 182.5c0-.92.75-1.76 1.87-2.13-1.12-.57-1.85-1.72-1.85-3.12 0-2.09 1.65-3.87 4.47-3.87 1.14 0 2.16.33 2.86.64l2.73-.24.11 2.27-1.94-.33c.26.29.46 1.06.46 1.58 0 2.07-1.74 3.7-4.25 3.7-.48 0-.84-.04-1.39-.18-.35.13-.79.46-.79.88 0 .55.46.79 2.09.79h1.06c2.9 0 4.55.81 4.55 2.79 0 2.4-2.71 4.05-5.92 4.05-2.68 0-4.82-.99-4.82-2.82 0-1.06.77-2 2.29-2.25-.87-.31-1.53-.94-1.53-1.76zm1.6 3.48c0 .95 1.17 1.61 2.88 1.61 1.78 0 3.15-.66 3.15-1.72 0-.95-.92-1.17-2.82-1.17-.64 0-1.52-.04-1.94-.09-.71.27-1.27.75-1.27 1.37zm2.91-6.69c1.17 0 1.83-.84 1.83-2.11 0-1.21-.64-2.05-1.94-2.05-1.14 0-1.87.86-1.87 2.13 0 1.22.73 2.03 1.98 2.03zM100.08 183.84v-6.18c0-1.5-.59-2-1.69-2-.97 0-1.8.46-2.31.95v7.24h-2.6v-14.7l2.6-.35v6.18c.9-.99 2.11-1.61 3.43-1.61 1.96 0 3.17 1.32 3.17 3.5v6.97h-2.6zM108.96 184.17c-2.27 0-3.45-.99-3.37-3.43l.15-4.78-1.58-.18.07-1.65 1.58-.51.04-2.24h2.51l-.04 2.38h2.86l-.07 2.13h-2.95l-.13 4.69c-.02.95.46 1.39 1.34 1.39.53 0 1.06-.13 1.58-.31l.35 2.11c-.75.27-1.46.4-2.34.4zM122.93 184.17c-3.3 0-5.26-2.05-5.26-5.37 0-3.3 2.16-5.43 5.35-5.43 1.39 0 2.57.31 3.5.86l-.55 2.09c-.84-.53-1.8-.81-2.75-.81-1.87 0-2.88 1.28-2.88 3.23 0 2.07 1.17 3.28 2.88 3.28 1.06 0 2.02-.29 2.82-.79l.42 2.11c-.89.53-2.16.83-3.53.83zM133.07 184.17c-2.97 0-5.13-2.02-5.13-5.39 0-3.34 2.27-5.43 5.26-5.43 2.99 0 5.13 2.07 5.13 5.41 0 3.32-2.29 5.41-5.26 5.41zm.05-8.73c-1.69 0-2.62 1.36-2.62 3.32 0 1.94.97 3.3 2.66 3.3 1.67 0 2.6-1.32 2.6-3.28 0-1.95-.97-3.34-2.64-3.34zM143.02 173.7v6.18c0 1.5.62 1.98 1.72 1.98.92 0 1.74-.42 2.22-.88v-7.28h2.6v10.08l-2.6.35v-1.5c-.84.9-2.05 1.54-3.34 1.54-1.98 0-3.19-1.32-3.19-3.5v-6.97h2.59zM158.92 183.84v-6.18c0-1.5-.59-2-1.76-2-.9 0-1.74.46-2.24.95v7.24h-2.6v-10.1l2.6-.35v1.61c.9-.99 2.11-1.63 3.34-1.63 2.05 0 3.26 1.32 3.26 3.5v6.97h-2.6v-.01zM167.81 184.17c-2.27 0-3.45-.99-3.37-3.43l.15-4.78-1.58-.18.07-1.65 1.58-.51.04-2.24h2.51l-.04 2.38h2.86l-.07 2.13h-2.95l-.13 4.69c-.02.95.46 1.39 1.34 1.39.53 0 1.06-.13 1.58-.31l.35 2.11c-.76.27-1.46.4-2.34.4zM172.1 183.84L172.1 169.14 174.7 168.79 174.7 183.84zM179.43 179.33c.11 1.65 1.23 2.77 3.04 2.77 1.08 0 2.24-.35 3.17-.92l.33 2.16c-.97.53-2.31.84-3.67.84-3.26 0-5.41-2.07-5.41-5.3 0-3.3 2.2-5.5 5.24-5.5 2.68 0 4.18 1.63 4.18 4.11 0 .55-.09 1.25-.22 1.69l-6.64.09v.06h-.02zm4.42-1.6v-.18c0-1.36-.59-2.22-1.94-2.22-1.43 0-2.29 1.17-2.42 2.42l4.36-.02zM191.59 184.2c-1.32 0-2.93-.37-3.94-.95l.57-2.02c1.01.57 2.31.95 3.43.95 1.01 0 1.67-.42 1.67-1.12 0-.79-.86-1.08-2.05-1.36-1.91-.44-3.43-1.23-3.43-3.15s1.61-3.17 4.05-3.17c1.25 0 2.75.33 3.7.81l-.57 2.02c-.99-.51-2.29-.84-3.19-.84-.95 0-1.52.35-1.52 1.01 0 .77.86 1.04 2.05 1.32 1.94.46 3.45 1.21 3.45 3.19.01 1.9-1.62 3.31-4.22 3.31zM201.07 184.2c-1.32 0-2.93-.37-3.94-.95l.57-2.02c1.01.57 2.31.95 3.43.95 1.01 0 1.67-.42 1.67-1.12 0-.79-.86-1.08-2.05-1.36-1.91-.44-3.43-1.23-3.43-3.15s1.61-3.17 4.05-3.17c1.25 0 2.75.33 3.7.81l-.57 2.02c-.99-.51-2.29-.84-3.19-.84-.95 0-1.52.35-1.52 1.01 0 .77.86 1.04 2.05 1.32 1.94.46 3.45 1.21 3.45 3.19.01 1.9-1.62 3.31-4.22 3.31zM219.03 183.84v-6.18c0-1.5-.59-2-1.76-2-.9 0-1.74.46-2.24.95v7.24h-2.6v-10.1l2.6-.35v1.61c.9-.99 2.11-1.63 3.34-1.63 2.05 0 3.26 1.32 3.26 3.5v6.97h-2.6v-.01zM226.29 179.33c.11 1.65 1.23 2.77 3.04 2.77 1.08 0 2.24-.35 3.17-.92l.33 2.16c-.97.53-2.31.84-3.67.84-3.26 0-5.41-2.07-5.41-5.3 0-3.3 2.2-5.5 5.24-5.5 2.68 0 4.18 1.63 4.18 4.11 0 .55-.09 1.25-.22 1.69l-6.64.09v.06h-.02zm4.42-1.6v-.18c0-1.36-.59-2.22-1.94-2.22-1.43 0-2.29 1.17-2.42 2.42l4.36-.02zM237.07 183.89L234.06 173.7 236.77 173.7 238.53 180.83 240.55 173.72 243.15 173.72 245.33 180.78 246.85 173.7 249.6 173.7 246.63 183.89 244.08 183.89 241.81 176.76 239.61 183.89zM260.96 184.15c-.66 0-1.61-.13-2.27-.35l-2.49.37v-15.03l2.6-.35v5.88c.68-.66 1.61-1.3 2.84-1.3 2.68 0 4.44 2.18 4.44 5.3 0 3.24-2.24 5.48-5.12 5.48zm-.07-8.6c-.86 0-1.52.33-2.09.84v5.13c.48.37 1.14.57 1.91.57 1.74 0 2.73-1.41 2.73-3.3 0-1.99-.94-3.24-2.55-3.24zM270.7 173.7v6.18c0 1.5.62 1.98 1.72 1.98.92 0 1.74-.42 2.22-.88v-7.28h2.6v10.08l-2.6.35v-1.5c-.84.9-2.05 1.54-3.34 1.54-1.98 0-3.19-1.32-3.19-3.5v-6.97h2.59zM283.15 184.2c-1.32 0-2.93-.37-3.94-.95l.57-2.02c1.01.57 2.31.95 3.43.95 1.01 0 1.67-.42 1.67-1.12 0-.79-.86-1.08-2.05-1.36-1.91-.44-3.43-1.23-3.43-3.15s1.61-3.17 4.05-3.17c1.25 0 2.75.33 3.7.81l-.57 2.02c-.99-.51-2.29-.84-3.19-.84-.95 0-1.52.35-1.52 1.01 0 .77.86 1.04 2.05 1.32 1.94.46 3.45 1.21 3.45 3.19.01 1.9-1.62 3.31-4.22 3.31zM290.79 171.85c-1.01 0-1.58-.62-1.58-1.56 0-.92.57-1.56 1.58-1.56 1.03 0 1.61.64 1.61 1.56 0 .95-.58 1.56-1.61 1.56zm-1.3 11.99v-10.08l2.6-.37v10.45h-2.6zM301.46 183.84v-6.18c0-1.5-.59-2-1.76-2-.9 0-1.74.46-2.24.95v7.24h-2.6v-10.1l2.6-.35v1.61c.9-.99 2.11-1.63 3.34-1.63 2.05 0 3.26 1.32 3.26 3.5v6.97h-2.6v-.01zM308.72 179.33c.11 1.65 1.23 2.77 3.04 2.77 1.08 0 2.24-.35 3.17-.92l.33 2.16c-.97.53-2.31.84-3.67.84-3.26 0-5.41-2.07-5.41-5.3 0-3.3 2.2-5.5 5.24-5.5 2.68 0 4.18 1.63 4.18 4.11 0 .55-.09 1.25-.22 1.69l-6.64.09v.06h-.02zm4.42-1.6v-.18c0-1.36-.59-2.22-1.94-2.22-1.43 0-2.29 1.17-2.42 2.42l4.36-.02zM320.88 184.2c-1.32 0-2.93-.37-3.94-.95l.57-2.02c1.01.57 2.31.95 3.43.95 1.01 0 1.67-.42 1.67-1.12 0-.79-.86-1.08-2.05-1.36-1.91-.44-3.43-1.23-3.43-3.15s1.61-3.17 4.05-3.17c1.25 0 2.75.33 3.7.81l-.57 2.02c-.99-.51-2.29-.84-3.19-.84-.95 0-1.52.35-1.52 1.01 0 .77.86 1.04 2.05 1.32 1.94.46 3.45 1.21 3.45 3.19.01 1.9-1.62 3.31-4.22 3.31zM330.37 184.2c-1.32 0-2.93-.37-3.94-.95l.57-2.02c1.01.57 2.31.95 3.43.95 1.01 0 1.67-.42 1.67-1.12 0-.79-.86-1.08-2.05-1.36-1.91-.44-3.43-1.23-3.43-3.15s1.61-3.17 4.05-3.17c1.25 0 2.75.33 3.7.81l-.57 2.02c-.99-.51-2.29-.84-3.19-.84-.95 0-1.52.35-1.52 1.01 0 .77.86 1.04 2.05 1.32 1.94.46 3.45 1.21 3.45 3.19 0 1.9-1.63 3.31-4.22 3.31zM347.04 182.68c-.73.88-1.61 1.5-2.86 1.5-1.83 0-3.15-1.25-3.15-2.86 0-1.87 1.36-3.46 6.01-3.61v-.24c0-1.36-.57-1.94-2.02-1.94-1.03 0-2.29.46-3.37 1.08l-.53-2.05c.99-.62 2.57-1.19 4.25-1.19 3.12 0 4.33 1.39 4.27 4.18v3.63c0 .77.13.88.9.92l-.2 1.96c-1.94.22-2.84-.37-3.21-1.39h-.09v.01zm0-3.61c-2.53.31-3.45.81-3.45 1.89 0 .77.59 1.32 1.52 1.32.81 0 1.47-.37 1.94-.88v-2.33h-.01zM358.9 183.84v-6.18c0-1.5-.59-2-1.76-2-.9 0-1.74.46-2.24.95v7.24h-2.6v-10.1l2.6-.35v1.61c.9-.99 2.11-1.63 3.34-1.63 2.05 0 3.26 1.32 3.26 3.5v6.97h-2.6v-.01zM370.89 169.15l2.6-.35v15.05h-2.6v-.99c-.68.66-1.61 1.32-2.86 1.32-2.68 0-4.42-2.18-4.42-5.32 0-3.23 2.24-5.48 5.13-5.48.73 0 1.52.13 2.16.33v-4.56h-.01zm-1.91 6.29c-1.74 0-2.73 1.43-2.73 3.3 0 1.98.99 3.24 2.55 3.24.86 0 1.52-.31 2.09-.84v-5.1c-.51-.38-1.14-.6-1.91-.6zM383.23 179.33c.11 1.65 1.23 2.77 3.04 2.77 1.08 0 2.24-.35 3.17-.92l.33 2.16c-.97.53-2.31.84-3.67.84-3.26 0-5.41-2.07-5.41-5.3 0-3.3 2.2-5.5 5.24-5.5 2.68 0 4.18 1.63 4.18 4.11 0 .55-.09 1.25-.22 1.69l-6.64.09v.06h-.02zm4.42-1.6v-.18c0-1.36-.59-2.22-1.94-2.22-1.43 0-2.29 1.17-2.42 2.42l4.36-.02zM397.58 182.68c-.73.88-1.61 1.5-2.86 1.5-1.83 0-3.15-1.25-3.15-2.86 0-1.87 1.36-3.46 6.01-3.61v-.24c0-1.36-.57-1.94-2.02-1.94-1.03 0-2.29.46-3.37 1.08l-.53-2.05c.99-.62 2.57-1.19 4.25-1.19 3.12 0 4.33 1.39 4.27 4.18v3.63c0 .77.13.88.9.92l-.2 1.96c-1.94.22-2.84-.37-3.21-1.39h-.09v.01zm0-3.61c-2.53.31-3.45.81-3.45 1.89 0 .77.59 1.32 1.52 1.32.81 0 1.47-.37 1.94-.88v-2.33h-.01zM405.98 184.2c-1.32 0-2.93-.37-3.94-.95l.57-2.02c1.01.57 2.31.95 3.43.95 1.01 0 1.67-.42 1.67-1.12 0-.79-.86-1.08-2.05-1.36-1.91-.44-3.43-1.23-3.43-3.15s1.61-3.17 4.05-3.17c1.25 0 2.75.33 3.7.81l-.57 2.02c-.99-.51-2.29-.84-3.19-.84-.95 0-1.52.35-1.52 1.01 0 .77.86 1.04 2.05 1.32 1.94.46 3.45 1.21 3.45 3.19 0 1.9-1.62 3.31-4.22 3.31zM417.53 183.65l-.59 1.58c-1.01 2.77-2.16 3.61-4.03 3.61-.92 0-1.76-.22-2.57-.59l.77-2.13c.59.29 1.08.48 1.61.48.75 0 1.14-.33 1.69-1.72l.44-1.17-3.96-10.01h2.79l2.53 7.26 2.42-7.26h2.77l-3.87 9.95zM433.19 173.37c2.68 0 4.44 2.18 4.44 5.3 0 3.23-2.24 5.48-5.13 5.48-.66 0-1.52-.09-2.16-.29v4.82h-2.6v-14.94l2.6-.35v1.28c.7-.66 1.62-1.3 2.85-1.3zm-2.84 8.14c.48.37 1.14.57 1.91.57 1.74 0 2.73-1.41 2.73-3.3 0-1.98-.95-3.23-2.55-3.23-.86 0-1.52.33-2.09.84v5.12zM445.14 182.68c-.73.88-1.61 1.5-2.86 1.5-1.83 0-3.15-1.25-3.15-2.86 0-1.87 1.36-3.46 6.01-3.61v-.24c0-1.36-.57-1.94-2.02-1.94-1.03 0-2.29.46-3.37 1.08l-.53-2.05c.99-.62 2.57-1.19 4.25-1.19 3.12 0 4.33 1.39 4.27 4.18v3.63c0 .77.13.88.9.92l-.2 1.96c-1.94.22-2.84-.37-3.21-1.39h-.09v.01zm0-3.61c-2.53.31-3.45.81-3.45 1.89 0 .77.59 1.32 1.52 1.32.81 0 1.47-.37 1.94-.88v-2.33h-.01z" transform="translate(-51 -820) translate(51 820) translate(118 116)"/>
                    <path d="M455.48 183.65l-.59 1.58c-1.01 2.77-2.16 3.61-4.03 3.61-.92 0-1.76-.22-2.57-.59l.77-2.13c.59.29 1.08.48 1.61.48.75 0 1.14-.33 1.69-1.72l.44-1.17-3.96-10.01h2.79l2.53 7.26 2.42-7.26h2.77l-3.87 9.95zM473.43 183.84v-6.16c0-1.5-.59-2.02-1.67-2.02-.9 0-1.61.46-2.11.9v7.29h-2.6v-6.16c0-1.5-.57-2.02-1.65-2.02-.92 0-1.63.37-2.11.84v7.35h-2.6v-10.1l2.6-.35v1.43c.95-.95 1.98-1.45 3.23-1.45 1.23 0 2.27.59 2.77 1.74 1.01-1.1 2.22-1.74 3.61-1.74 1.92 0 3.12 1.32 3.12 3.52v6.95h-2.59v-.02zM480.67 179.33c.11 1.65 1.23 2.77 3.04 2.77 1.08 0 2.24-.35 3.17-.92l.33 2.16c-.97.53-2.31.84-3.67.84-3.26 0-5.41-2.07-5.41-5.3 0-3.3 2.2-5.5 5.24-5.5 2.68 0 4.18 1.63 4.18 4.11 0 .55-.09 1.25-.22 1.69l-6.64.09v.06h-.02zm4.42-1.6v-.18c0-1.36-.59-2.22-1.94-2.22-1.43 0-2.29 1.17-2.42 2.42l4.36-.02zM496.29 183.84v-6.18c0-1.5-.59-2-1.76-2-.9 0-1.74.46-2.24.95v7.24h-2.6v-10.1l2.6-.35v1.61c.9-.99 2.11-1.63 3.34-1.63 2.05 0 3.26 1.32 3.26 3.5v6.97h-2.6v-.01zM505.17 184.17c-2.27 0-3.45-.99-3.37-3.43l.15-4.78-1.58-.18.07-1.65 1.58-.51.04-2.24h2.51l-.04 2.38h2.86l-.07 2.13h-2.95l-.13 4.69c-.02.95.46 1.39 1.34 1.39.53 0 1.06-.13 1.58-.31l.35 2.11c-.75.27-1.46.4-2.34.4zM5.72 212.17c-2.97 0-5.13-2.02-5.13-5.39 0-3.34 2.27-5.43 5.26-5.43 2.99 0 5.13 2.07 5.13 5.41 0 3.32-2.29 5.41-5.26 5.41zm.04-8.73c-1.69 0-2.62 1.36-2.62 3.32 0 1.94.97 3.3 2.66 3.3 1.67 0 2.6-1.32 2.6-3.28 0-1.95-.97-3.34-2.64-3.34zM18.59 201.37c2.68 0 4.44 2.18 4.44 5.3 0 3.23-2.24 5.48-5.13 5.48-.66 0-1.52-.09-2.16-.29v4.82h-2.6v-14.94l2.6-.35v1.28c.69-.66 1.62-1.3 2.85-1.3zm-2.84 8.14c.48.37 1.14.57 1.91.57 1.74 0 2.73-1.41 2.73-3.3 0-1.98-.95-3.23-2.55-3.23-.86 0-1.52.33-2.09.84v5.12zM28.8 212.17c-2.27 0-3.45-.99-3.37-3.43l.15-4.78-1.58-.18.07-1.65 1.58-.51.04-2.24h2.51l-.04 2.38h2.86l-.07 2.13H28l-.13 4.69c-.02.95.46 1.39 1.34 1.39.53 0 1.06-.13 1.58-.31l.35 2.11c-.76.27-1.46.4-2.34.4zM34.38 199.85c-1.01 0-1.58-.62-1.58-1.56 0-.92.57-1.56 1.58-1.56 1.03 0 1.61.64 1.61 1.56 0 .95-.57 1.56-1.61 1.56zm-1.3 11.99v-10.08l2.6-.37v10.45h-2.6zM42.99 212.17c-2.97 0-5.13-2.02-5.13-5.39 0-3.34 2.27-5.43 5.26-5.43 2.99 0 5.13 2.07 5.13 5.41 0 3.32-2.29 5.41-5.26 5.41zm.04-8.73c-1.69 0-2.62 1.36-2.62 3.32 0 1.94.97 3.3 2.66 3.3 1.67 0 2.6-1.32 2.6-3.28 0-1.95-.97-3.34-2.64-3.34zM57.02 211.84v-6.18c0-1.5-.59-2-1.76-2-.9 0-1.74.46-2.24.95v7.24h-2.6v-10.1l2.6-.35v1.61c.9-.99 2.11-1.63 3.34-1.63 2.05 0 3.26 1.32 3.26 3.5v6.97h-2.6v-.01zM65.47 212.2c-1.32 0-2.93-.37-3.94-.95l.57-2.02c1.01.57 2.31.95 3.43.95 1.01 0 1.67-.42 1.67-1.12 0-.79-.86-1.08-2.05-1.36-1.91-.44-3.43-1.23-3.43-3.15s1.61-3.17 4.05-3.17c1.25 0 2.75.33 3.7.81l-.57 2.02c-.99-.51-2.29-.84-3.19-.84-.95 0-1.52.35-1.52 1.01 0 .77.86 1.04 2.05 1.32 1.94.46 3.45 1.21 3.45 3.19 0 1.9-1.62 3.31-4.22 3.31zM82.81 199.26c-.48-.22-1.06-.42-1.65-.42-.95 0-1.34.55-1.34 1.8v1.12h3.01l-.07 2.13h-2.88v7.94h-2.6v-7.92l-1.76-.13.09-1.65 1.65-.48.02-1.08c.07-2.9 1.41-4.05 3.67-4.05.99 0 1.89.29 2.4.51.01.03-.54 2.25-.54 2.23zM88.96 212.17c-2.97 0-5.13-2.02-5.13-5.39 0-3.34 2.27-5.43 5.26-5.43 2.99 0 5.13 2.07 5.13 5.41 0 3.32-2.28 5.41-5.26 5.41zm.05-8.73c-1.69 0-2.62 1.36-2.62 3.32 0 1.94.97 3.3 2.66 3.3 1.67 0 2.6-1.32 2.6-3.28 0-1.95-.97-3.34-2.64-3.34zM99 211.84h-2.6v-10.08l2.6-.37v1.65c.64-1.08 1.45-1.67 2.64-1.67.62 0 1.25.13 1.8.46l-.57 2.33c-.48-.26-.97-.4-1.45-.4-.9 0-1.74.57-2.42 1.8v6.28zM114.55 212.17c-2.97 0-5.13-2.02-5.13-5.39 0-3.34 2.27-5.43 5.26-5.43 2.99 0 5.13 2.07 5.13 5.41 0 3.32-2.29 5.41-5.26 5.41zm.04-8.73c-1.69 0-2.62 1.36-2.62 3.32 0 1.94.97 3.3 2.66 3.3 1.67 0 2.6-1.32 2.6-3.28 0-1.95-.96-3.34-2.64-3.34zM124.49 201.7v6.18c0 1.5.62 1.98 1.72 1.98.92 0 1.74-.42 2.22-.88v-7.28h2.6v10.08l-2.6.35v-1.5c-.84.9-2.05 1.54-3.34 1.54-1.98 0-3.19-1.32-3.19-3.5v-6.97h2.59zM136.39 211.84h-2.6v-10.08l2.6-.37v1.65c.64-1.08 1.45-1.67 2.64-1.67.62 0 1.25.13 1.8.46l-.57 2.33c-.48-.26-.97-.4-1.45-.4-.9 0-1.74.57-2.42 1.8v6.28zM152.08 212.17c-3.3 0-5.26-2.05-5.26-5.37 0-3.3 2.16-5.43 5.35-5.43 1.39 0 2.57.31 3.5.86l-.55 2.09c-.84-.53-1.8-.81-2.75-.81-1.87 0-2.88 1.28-2.88 3.23 0 2.07 1.17 3.28 2.88 3.28 1.06 0 2.02-.29 2.82-.79l.42 2.11c-.89.53-2.17.83-3.53.83zM157.75 211.84L157.75 197.14 160.35 196.79 160.35 211.84zM164.42 199.85c-1.01 0-1.58-.62-1.58-1.56 0-.92.57-1.56 1.58-1.56 1.03 0 1.61.64 1.61 1.56 0 .95-.57 1.56-1.61 1.56zm-1.3 11.99v-10.08l2.6-.37v10.45h-2.6zM170.45 207.33c.11 1.65 1.23 2.77 3.04 2.77 1.08 0 2.24-.35 3.17-.92l.33 2.16c-.97.53-2.31.84-3.67.84-3.26 0-5.41-2.07-5.41-5.3 0-3.3 2.2-5.5 5.24-5.5 2.68 0 4.18 1.63 4.18 4.11 0 .55-.09 1.25-.22 1.69l-6.64.09v.06h-.02zm4.42-1.6v-.18c0-1.36-.59-2.22-1.94-2.22-1.43 0-2.29 1.17-2.42 2.42l4.36-.02zM186.07 211.84v-6.18c0-1.5-.59-2-1.76-2-.9 0-1.74.46-2.24.95v7.24h-2.6v-10.1l2.6-.35v1.61c.9-.99 2.11-1.63 3.34-1.63 2.05 0 3.26 1.32 3.26 3.5v6.97h-2.6v-.01zM194.96 212.17c-2.27 0-3.45-.99-3.37-3.43l.15-4.78-1.58-.18.07-1.65 1.58-.51.04-2.24h2.51l-.04 2.38h2.86l-.07 2.13h-2.95l-.13 4.69c-.02.95.46 1.39 1.34 1.39.53 0 1.06-.13 1.58-.31l.35 2.11c-.76.27-1.46.4-2.34.4zM202.39 212.2c-1.32 0-2.93-.37-3.94-.95l.57-2.02c1.01.57 2.31.95 3.43.95 1.01 0 1.67-.42 1.67-1.12 0-.79-.86-1.08-2.05-1.36-1.91-.44-3.43-1.23-3.43-3.15s1.61-3.17 4.05-3.17c1.25 0 2.75.33 3.7.81l-.57 2.02c-.99-.51-2.29-.84-3.19-.84-.95 0-1.52.35-1.52 1.01 0 .77.86 1.04 2.05 1.32 1.94.46 3.45 1.21 3.45 3.19.01 1.9-1.62 3.31-4.22 3.31zM210.12 212.17c-1.03 0-1.76-.75-1.76-1.72s.73-1.69 1.76-1.69c1.01 0 1.72.73 1.72 1.69s-.71 1.72-1.72 1.72zM225.91 212.17c-4.22 0-7.15-2.71-7.15-7.17 0-4.45 2.9-7.24 7.17-7.24 1.67 0 3.63.44 4.86 1.19l-.86 2.33c-1.21-.75-2.6-1.21-3.96-1.21-2.73 0-4.51 1.87-4.51 4.84 0 3.08 1.69 5 4.51 5 .97 0 1.91-.24 2.6-.55v-2.64h-3.61v-2.27h6.09v6.42c-1.46.84-3.4 1.3-5.14 1.3zM236.27 211.84h-2.6v-10.08l2.6-.37v1.65c.64-1.08 1.45-1.67 2.64-1.67.62 0 1.25.13 1.8.46l-.57 2.33c-.48-.26-.97-.4-1.45-.4-.9 0-1.74.57-2.42 1.8v6.28zM244.1 207.33c.11 1.65 1.23 2.77 3.04 2.77 1.08 0 2.24-.35 3.17-.92l.33 2.16c-.97.53-2.31.84-3.67.84-3.26 0-5.41-2.07-5.41-5.3 0-3.3 2.2-5.5 5.24-5.5 2.68 0 4.18 1.63 4.18 4.11 0 .55-.09 1.25-.22 1.69l-6.64.09v.06h-.02zm4.43-1.6v-.18c0-1.36-.59-2.22-1.94-2.22-1.43 0-2.29 1.17-2.42 2.42l4.36-.02zM258.45 210.68c-.73.88-1.61 1.5-2.86 1.5-1.83 0-3.15-1.25-3.15-2.86 0-1.87 1.36-3.46 6.01-3.61v-.24c0-1.36-.57-1.94-2.02-1.94-1.03 0-2.29.46-3.37 1.08l-.53-2.05c.99-.62 2.57-1.19 4.25-1.19 3.12 0 4.33 1.39 4.27 4.18v3.63c0 .77.13.88.9.92l-.2 1.96c-1.94.22-2.84-.37-3.21-1.39h-.09v.01zm0-3.61c-2.53.31-3.45.81-3.45 1.89 0 .77.59 1.32 1.52 1.32.81 0 1.47-.37 1.94-.88v-2.33h-.01zM267.29 212.17c-2.27 0-3.45-.99-3.37-3.43l.15-4.78-1.58-.18.07-1.65 1.58-.51.04-2.24h2.51l-.04 2.38h2.86l-.07 2.13h-2.95l-.13 4.69c-.02.95.46 1.39 1.34 1.39.53 0 1.06-.13 1.58-.31l.35 2.11c-.75.27-1.46.4-2.34.4zM274.81 215.47c1.25-.59 1.78-1.41 1.78-3.59v-10.12l2.6-.37v10.54c0 2.95-.75 4.45-2.79 5.3l-1.59-1.76zm3.09-15.62c-1.01 0-1.58-.62-1.58-1.56 0-.92.57-1.56 1.58-1.56 1.03 0 1.61.64 1.61 1.56-.01.95-.58 1.56-1.61 1.56zM286.45 212.17c-2.97 0-5.13-2.02-5.13-5.39 0-3.34 2.27-5.43 5.26-5.43 2.99 0 5.13 2.07 5.13 5.41 0 3.32-2.29 5.41-5.26 5.41zm.05-8.73c-1.69 0-2.62 1.36-2.62 3.32 0 1.94.97 3.3 2.66 3.3 1.67 0 2.6-1.32 2.6-3.28 0-1.95-.97-3.34-2.64-3.34zM298.64 212.15c-.66 0-1.61-.13-2.27-.35l-2.49.37v-15.03l2.6-.35v5.88c.68-.66 1.61-1.3 2.84-1.3 2.68 0 4.44 2.18 4.44 5.3.01 3.24-2.24 5.48-5.12 5.48zm-.06-8.6c-.86 0-1.52.33-2.09.84v5.13c.48.37 1.14.57 1.91.57 1.74 0 2.73-1.41 2.73-3.3 0-1.99-.95-3.24-2.55-3.24zM313.8 204.41l5.19-6.32h3.19l-5.9 6.76 5.98 7h-3.28l-5.19-6.29h-.02v6.29h-2.68V198.1h2.68v6.32h.03v-.01zM329.05 210.68c-.73.88-1.61 1.5-2.86 1.5-1.83 0-3.15-1.25-3.15-2.86 0-1.87 1.36-3.46 6.01-3.61v-.24c0-1.36-.57-1.94-2.02-1.94-1.03 0-2.29.46-3.37 1.08l-.53-2.05c.99-.62 2.57-1.19 4.25-1.19 3.12 0 4.33 1.39 4.27 4.18v3.63c0 .77.13.88.9.92l-.2 1.96c-1.94.22-2.84-.37-3.21-1.39h-.09v.01zm0-3.61c-2.53.31-3.45.81-3.45 1.89 0 .77.59 1.32 1.52 1.32.81 0 1.47-.37 1.94-.88v-2.33h-.01z" transform="translate(-51 -820) translate(51 820) translate(118 116)"/>
                    <path d="M339.39 211.65l-.59 1.58c-1.01 2.77-2.16 3.61-4.03 3.61-.92 0-1.76-.22-2.57-.59l.77-2.13c.59.29 1.08.48 1.61.48.75 0 1.14-.33 1.69-1.72l.44-1.17-3.96-10.01h2.79l2.53 7.26 2.42-7.26h2.77l-3.87 9.95zM354.94 210.68c-.73.88-1.61 1.5-2.86 1.5-1.83 0-3.15-1.25-3.15-2.86 0-1.87 1.36-3.46 6.01-3.61v-.24c0-1.36-.57-1.94-2.02-1.94-1.03 0-2.29.46-3.37 1.08l-.53-2.05c.99-.62 2.57-1.19 4.25-1.19 3.12 0 4.33 1.39 4.27 4.18v3.63c0 .77.13.88.9.92l-.2 1.96c-1.94.22-2.84-.37-3.21-1.39h-.09v.01zm0-3.61c-2.53.31-3.45.81-3.45 1.89 0 .77.59 1.32 1.52 1.32.81 0 1.47-.37 1.94-.88v-2.33h-.01zM366.8 211.84v-6.18c0-1.5-.59-2-1.76-2-.9 0-1.74.46-2.24.95v7.24h-2.6v-10.1l2.6-.35v1.61c.9-.99 2.11-1.63 3.34-1.63 2.05 0 3.26 1.32 3.26 3.5v6.97h-2.6v-.01zM378.79 197.15l2.6-.35v15.05h-2.6v-.99c-.68.66-1.61 1.32-2.86 1.32-2.68 0-4.42-2.18-4.42-5.32 0-3.23 2.24-5.48 5.13-5.48.73 0 1.52.13 2.16.33v-4.56h-.01zm-1.92 6.29c-1.74 0-2.73 1.43-2.73 3.3 0 1.98.99 3.24 2.55 3.24.86 0 1.52-.31 2.09-.84v-5.1c-.5-.38-1.14-.6-1.91-.6zM400.06 207.91c0 2.27-1.36 3.94-5.35 3.94h-5.35V198.1h5.26c3.72 0 5 1.54 5 3.63 0 1.47-.88 2.46-2.46 2.99 1.8.39 2.9 1.56 2.9 3.19zm-5.52-7.66h-2.53v3.74h2.31c1.72 0 2.62-.73 2.62-1.92 0-1.16-.84-1.82-2.4-1.82zm-.07 5.7h-2.46v3.74h2.66c1.8 0 2.68-.64 2.68-1.89 0-1.37-1.18-1.85-2.88-1.85zM404.81 211.84h-2.6v-10.08l2.6-.37v1.65c.64-1.08 1.45-1.67 2.64-1.67.62 0 1.25.13 1.8.46l-.57 2.33c-.48-.26-.97-.4-1.45-.4-.9 0-1.74.57-2.42 1.8v6.28zM412.12 199.85c-1.01 0-1.58-.62-1.58-1.56 0-.92.57-1.56 1.58-1.56 1.03 0 1.61.64 1.61 1.56-.01.95-.58 1.56-1.61 1.56zm-1.3 11.99v-10.08l2.6-.37v10.45h-2.6zM421.51 210.68c-.73.88-1.61 1.5-2.86 1.5-1.83 0-3.15-1.25-3.15-2.86 0-1.87 1.36-3.46 6.01-3.61v-.24c0-1.36-.57-1.94-2.02-1.94-1.03 0-2.29.46-3.37 1.08l-.53-2.05c.99-.62 2.57-1.19 4.25-1.19 3.12 0 4.33 1.39 4.27 4.18v3.63c0 .77.13.88.9.92l-.2 1.96c-1.94.22-2.84-.37-3.21-1.39h-.09v.01zm0-3.61c-2.53.31-3.45.81-3.45 1.89 0 .77.59 1.32 1.52 1.32.81 0 1.47-.37 1.94-.88v-2.33h-.01zM433.37 211.84v-6.18c0-1.5-.59-2-1.76-2-.9 0-1.74.46-2.24.95v7.24h-2.6v-10.1l2.6-.35v1.61c.9-.99 2.11-1.63 3.34-1.63 2.05 0 3.26 1.32 3.26 3.5v6.97h-2.6v-.01zM440.5 212.17c-1.06 0-1.78-.68-1.78-1.65 0-.97.73-1.61 1.78-1.61 1.01 0 1.72.64 1.72 1.61-.01.97-.71 1.65-1.72 1.65zm-1.57-14.67h3.1l-.64 9.84h-1.8l-.66-9.84zM11.18 250.82L8.24 259.68 5.94 259.68 2.99 250.82 2.88 259.84.81 259.84 1.19 248.59 4.23 248.59 7.13 257.45 10.03 248.59 13.04 248.59 13.4 259.84 11.28 259.84zM17.89 259.84h-2.2v-11.25h3.94c2.84 0 4.36 1.35 4.36 3.42 0 1.6-.9 2.72-2.43 3.24l2.95 4.59h-2.5l-2.5-4.12-1.62.11v4.01zm1.62-5.78c1.35-.07 2.23-.68 2.23-1.91 0-1.17-.88-1.73-2.45-1.73h-1.42v3.67l1.64-.03zM1.1 279.84L1.1 268.59 3.3 268.59 3.3 277.92 8.38 277.92 8.38 279.85 1.1 279.85zM14.42 278.89c-.59.72-1.31 1.22-2.34 1.22-1.5 0-2.58-1.03-2.58-2.34 0-1.53 1.12-2.83 4.92-2.95v-.2c0-1.12-.47-1.58-1.66-1.58-.85 0-1.87.38-2.75.88l-.43-1.67c.81-.5 2.11-.97 3.47-.97 2.56 0 3.55 1.13 3.49 3.42v2.97c0 .63.11.72.74.76l-.16 1.6c-1.58.18-2.32-.31-2.63-1.13h-.07v-.01zm0-2.95c-2.07.25-2.83.67-2.83 1.55 0 .63.49 1.08 1.24 1.08.67 0 1.21-.31 1.58-.72v-1.91h.01zM20.84 275.85L20.84 279.85 18.72 279.85 18.72 267.82 20.84 267.53 20.84 275.24 20.88 275.24 23.85 271.55 26.39 271.55 22.95 275.49 26.41 279.85 23.87 279.85 20.88 275.85zM29.03 276.15c.09 1.35 1.01 2.27 2.48 2.27.88 0 1.84-.29 2.59-.76l.27 1.76c-.79.43-1.89.68-3.01.68-2.66 0-4.43-1.69-4.43-4.34 0-2.7 1.8-4.5 4.29-4.5 2.2 0 3.42 1.33 3.42 3.37 0 .45-.07 1.03-.18 1.39l-5.44.07v.06h.01zm3.62-1.31v-.14c0-1.12-.49-1.82-1.58-1.82-1.17 0-1.87.95-1.98 1.98l3.56-.02zM40.68 279.84L40.68 268.59 48.35 268.59 48.35 270.44 42.84 270.44 42.84 273.27 47.36 273.27 47.36 275.12 42.84 275.12 42.84 277.98 48.35 277.98 48.35 279.83 40.68 279.83zM50.31 279.84L50.31 267.81 52.43 267.52 52.43 279.84zM56.3 276.15c.09 1.35 1.01 2.27 2.49 2.27.88 0 1.84-.29 2.59-.76l.27 1.76c-.79.43-1.89.68-3.01.68-2.66 0-4.43-1.69-4.43-4.34 0-2.7 1.8-4.5 4.29-4.5 2.2 0 3.42 1.33 3.42 3.37 0 .45-.07 1.03-.18 1.39l-5.44.07v.06zm3.62-1.31v-.14c0-1.12-.49-1.82-1.58-1.82-1.17 0-1.87.95-1.98 1.98l3.56-.02zM67.5 280.11c-2.7 0-4.3-1.67-4.3-4.39 0-2.7 1.76-4.45 4.38-4.45 1.13 0 2.11.25 2.86.7l-.45 1.71c-.68-.43-1.48-.67-2.25-.67-1.53 0-2.36 1.04-2.36 2.65 0 1.69.95 2.68 2.36 2.68.86 0 1.66-.23 2.3-.65l.34 1.73c-.72.44-1.77.69-2.88.69zM75.08 280.11c-1.85 0-2.83-.81-2.75-2.81l.13-3.91-1.3-.14.05-1.35 1.3-.41.04-1.84h2.05l-.04 1.94h2.34l-.05 1.75h-2.41l-.11 3.84c-.02.77.38 1.13 1.1 1.13.43 0 .86-.11 1.3-.25l.29 1.73c-.65.22-1.23.32-1.94.32zM80.71 279.84h-2.12v-8.25l2.12-.31v1.35c.52-.88 1.19-1.37 2.16-1.37.5 0 1.03.11 1.48.38l-.47 1.91c-.4-.22-.79-.32-1.19-.32-.74 0-1.42.47-1.98 1.48v5.13zM89.24 280.11c-2.43 0-4.2-1.66-4.2-4.41 0-2.74 1.85-4.45 4.3-4.45 2.45 0 4.2 1.69 4.2 4.43 0 2.72-1.87 4.43-4.3 4.43zm.04-7.14c-1.39 0-2.14 1.12-2.14 2.72 0 1.58.79 2.7 2.18 2.7 1.37 0 2.12-1.08 2.12-2.68s-.79-2.74-2.16-2.74zM100.73 279.84v-5.06c0-1.22-.49-1.64-1.44-1.64-.74 0-1.42.38-1.84.77v5.92h-2.12v-8.26l2.12-.29v1.31c.74-.81 1.73-1.33 2.74-1.33 1.67 0 2.66 1.08 2.66 2.86v5.71h-2.12v.01zM106.12 270.03c-.83 0-1.3-.5-1.3-1.28 0-.76.47-1.28 1.3-1.28.85 0 1.31.52 1.31 1.28.01.78-.46 1.28-1.31 1.28zm-1.06 9.81v-8.25l2.12-.31v8.55h-2.12v.01zM113.27 280.11c-2.7 0-4.3-1.67-4.3-4.39 0-2.7 1.76-4.45 4.38-4.45 1.13 0 2.11.25 2.86.7l-.45 1.71c-.68-.43-1.48-.67-2.25-.67-1.53 0-2.36 1.04-2.36 2.65 0 1.69.95 2.68 2.36 2.68.86 0 1.66-.23 2.3-.65l.34 1.73c-.72.44-1.76.69-2.88.69zM120.49 280.13c-1.08 0-2.39-.31-3.22-.78l.47-1.66c.83.47 1.89.77 2.81.77.83 0 1.37-.34 1.37-.92 0-.65-.7-.88-1.67-1.12-1.57-.36-2.81-1.01-2.81-2.58s1.31-2.59 3.31-2.59c1.03 0 2.25.27 3.03.67l-.47 1.66c-.81-.41-1.87-.68-2.61-.68-.77 0-1.24.29-1.24.83 0 .63.7.85 1.67 1.08 1.58.38 2.83.99 2.83 2.61-.02 1.56-1.35 2.71-3.47 2.71zM135.25 280.11c-3.46 0-5.85-2.21-5.85-5.87 0-3.64 2.38-5.92 5.87-5.92 1.37 0 2.97.36 3.98.97l-.7 1.91c-.99-.61-2.12-.99-3.24-.99-2.23 0-3.69 1.53-3.69 3.96 0 2.52 1.39 4.09 3.69 4.09.79 0 1.57-.2 2.12-.45v-2.16h-2.95v-1.85h4.99v5.26c-1.22.68-2.8 1.05-4.22 1.05zM143.72 279.84h-2.12v-8.25l2.12-.31v1.35c.52-.88 1.19-1.37 2.16-1.37.5 0 1.03.11 1.48.38l-.47 1.91c-.4-.22-.79-.32-1.19-.32-.74 0-1.42.47-1.98 1.48v5.13zM152.26 280.11c-2.43 0-4.2-1.66-4.2-4.41 0-2.74 1.85-4.45 4.3-4.45 2.45 0 4.2 1.69 4.2 4.43 0 2.72-1.87 4.43-4.3 4.43zm.03-7.14c-1.39 0-2.14 1.12-2.14 2.72 0 1.58.79 2.7 2.18 2.7 1.37 0 2.12-1.08 2.12-2.68s-.79-2.74-2.16-2.74zM160.39 271.54v5.06c0 1.22.5 1.62 1.41 1.62.76 0 1.42-.34 1.82-.72v-5.96h2.12v8.25l-2.12.29v-1.22c-.68.74-1.67 1.26-2.74 1.26-1.62 0-2.61-1.08-2.61-2.86v-5.71h2.12v-.01zM172.45 271.27c2.2 0 3.64 1.78 3.64 4.34 0 2.65-1.84 4.48-4.2 4.48-.54 0-1.24-.07-1.76-.23v3.94h-2.12v-12.23l2.12-.29v1.04c.56-.52 1.32-1.05 2.32-1.05zm-2.32 6.67c.4.31.94.47 1.57.47 1.42 0 2.23-1.15 2.23-2.7 0-1.62-.77-2.65-2.09-2.65-.7 0-1.24.27-1.71.68v4.2zM178.54 277.21c1.01 0 1.84.88 1.84 1.98 0 1.57-1.4 2.72-2.84 3.58l-.94-.85c1.13-.79 1.82-1.48 1.82-2.09 0-.47-.34-.79-1.46-1.28.08-.76.69-1.34 1.58-1.34zM186.26 279.84L186.26 268.59 188.46 268.59 188.46 277.92 193.54 277.92 193.54 279.85 186.26 279.85zM195.38 279.84L195.38 268.59 197.58 268.59 197.58 277.92 202.66 277.92 202.66 279.85 195.38 279.85zM212.11 271.11c-.9-.59-1.87-.9-2.95-.9-2.2 0-3.66 1.51-3.66 3.96 0 2.49 1.42 4.05 3.69 4.05 1.15 0 2.25-.43 3.08-1.01l.41 2.02c-.9.54-2.3.88-3.58.88-3.46 0-5.82-2.18-5.82-5.87 0-3.6 2.36-5.92 5.87-5.92 1.31 0 2.67.34 3.64.88l-.68 1.91z" transform="translate(-51 -820) translate(51 820) translate(118 116)"/>
                </g>
            </g>
        </g>
    </g>
</svg>
