<svg xmlns="http://www.w3.org/2000/svg" width="750" height="380" viewBox="0 0 750 380">
    <g fill="none" fill-rule="evenodd">
        <g fill-rule="nonzero">
            <g>
                <path fill="#B2A6A1" d="M0 0H750V380H0z" transform="translate(-51 -1790) translate(51 1790)"/>
                <path fill="#FFF" d="M85.75 31.47c-9.6 3.6-21.8 13.2-21.8 23.2 0 7 7 8.2 13.8 9.2 9.2 1.6 13.2 8.2 13.2 14.2 0 7-5.2 13.4-14.4 13.4-10.6 0-21.8-8.2-21.8-25 0-21.6 17-32.4 30.6-36.2l.4 1.2zm42.8 0c-9.6 3.6-21.8 13.2-21.8 23.2 0 7 6.8 8.2 13.6 9.2 9.4 1.6 13.4 8.2 13.4 14.2 0 7-5.4 13.4-14.6 13.4-10.4 0-21.8-8.2-21.8-25 0-21.6 17.2-32.4 30.8-36.2l.4 1.2z" transform="translate(-51 -1790) translate(51 1790)"/>
                <g fill="#FFF">
                    <path d="M8.52 4.45L8.52 15.85 5.86 15.85 5.86 4.45 1.26 4.45 1.26 2.09 13.12 2.09 13.12 4.45zM20.91 15.84V9.66c0-1.5-.59-2-1.69-2-.97 0-1.8.46-2.31.95v7.24h-2.6V1.15l2.6-.35v6.18c.9-.99 2.11-1.61 3.43-1.61 1.96 0 3.17 1.32 3.17 3.5v6.97h-2.6zM27.95 11.33c.11 1.65 1.23 2.77 3.04 2.77 1.08 0 2.24-.35 3.17-.92l.33 2.16c-.97.53-2.31.84-3.67.84-3.26 0-5.41-2.07-5.41-5.3 0-3.3 2.2-5.5 5.24-5.5 2.68 0 4.18 1.63 4.18 4.11 0 .55-.09 1.25-.22 1.69l-6.64.09v.06h-.02zm4.42-1.6v-.18c0-1.36-.59-2.22-1.94-2.22-1.43 0-2.29 1.17-2.42 2.42l4.36-.02zM48.14 15.84V9.66c0-1.5-.59-2-1.76-2-.9 0-1.74.46-2.24.95v7.24h-2.6V5.75l2.6-.35v1.61c.9-.99 2.11-1.63 3.34-1.63 2.05 0 3.26 1.32 3.26 3.5v6.97h-2.6v-.01zM55.18 11.33c.11 1.65 1.23 2.77 3.04 2.77 1.08 0 2.24-.35 3.17-.92l.33 2.16c-.97.53-2.31.84-3.67.84-3.26 0-5.41-2.07-5.41-5.3 0-3.3 2.2-5.5 5.24-5.5 2.68 0 4.18 1.63 4.18 4.11 0 .55-.09 1.25-.22 1.69l-6.64.09v.06h-.02zm4.43-1.6v-.18c0-1.36-.59-2.22-1.94-2.22-1.43 0-2.29 1.17-2.42 2.42l4.36-.02zM65.74 15.89L62.73 5.7 65.44 5.7 67.2 12.83 69.22 5.72 71.82 5.72 74 12.78 75.52 5.7 78.27 5.7 75.3 15.89 72.75 15.89 70.48 8.76 68.28 15.89 65.74 15.89zM83.65 15.84L83.65 14 90.98 4.43 83.79 4.43 83.79 2.1 94.35 2.1 94.35 3.99 87.04 13.52 94.32 13.52 94.32 15.85 83.65 15.85zM97.64 3.85c-1.01 0-1.58-.62-1.58-1.56 0-.92.57-1.56 1.58-1.56 1.03 0 1.61.64 1.61 1.56 0 .95-.57 1.56-1.61 1.56zm-1.3 11.99V5.76l2.6-.37v10.45h-2.6zM114.23 15.84V9.68c0-1.5-.59-2.02-1.67-2.02-.9 0-1.61.46-2.11.9v7.29h-2.6V9.69c0-1.5-.57-2.02-1.65-2.02-.92 0-1.63.37-2.11.84v7.35h-2.6V5.76l2.6-.35v1.43c.95-.95 1.98-1.45 3.23-1.45 1.23 0 2.27.59 2.77 1.74 1.01-1.1 2.22-1.74 3.61-1.74 1.92 0 3.12 1.32 3.12 3.52v6.95h-2.59v-.02zM132.03 15.84V9.68c0-1.5-.59-2.02-1.67-2.02-.9 0-1.61.46-2.11.9v7.29h-2.6V9.69c0-1.5-.57-2.02-1.65-2.02-.92 0-1.63.37-2.11.84v7.35h-2.6V5.76l2.6-.35v1.43c.95-.95 1.98-1.45 3.23-1.45 1.23 0 2.27.59 2.77 1.74 1.01-1.1 2.22-1.74 3.61-1.74 1.92 0 3.12 1.32 3.12 3.52v6.95h-2.59v-.02zM138.34 1.15c1.23 0 2.24 1.08 2.24 2.4 0 1.94-1.72 3.34-3.48 4.4l-1.14-1.03c1.39-.97 2.22-1.8 2.22-2.55 0-.57-.42-.97-1.78-1.56.12-.96.86-1.66 1.94-1.66zM144.92 16.2c-1.32 0-2.93-.37-3.94-.95l.57-2.02c1.01.57 2.31.95 3.43.95 1.01 0 1.67-.42 1.67-1.12 0-.79-.86-1.08-2.05-1.36-1.91-.44-3.43-1.23-3.43-3.15s1.61-3.17 4.05-3.17c1.25 0 2.75.33 3.7.81l-.57 2.02c-.99-.51-2.29-.84-3.19-.84-.95 0-1.52.35-1.52 1.01 0 .77.86 1.04 2.05 1.32 1.94.46 3.45 1.21 3.45 3.19 0 1.9-1.62 3.31-4.22 3.31zM157.72 15.89L154.71 5.7 157.42 5.7 159.18 12.83 161.2 5.72 163.8 5.72 165.98 12.78 167.5 5.7 170.25 5.7 167.28 15.89 164.73 15.89 162.46 8.76 160.26 15.89 157.72 15.89zM173.61 11.33c.11 1.65 1.23 2.77 3.04 2.77 1.08 0 2.24-.35 3.17-.92l.33 2.16c-.97.53-2.31.84-3.67.84-3.26 0-5.41-2.07-5.41-5.3 0-3.3 2.2-5.5 5.24-5.5 2.68 0 4.18 1.63 4.18 4.11 0 .55-.09 1.25-.22 1.69l-6.64.09v.06h-.02zm4.42-1.6v-.18c0-1.36-.59-2.22-1.94-2.22-1.43 0-2.29 1.17-2.42 2.42l4.36-.02zM187.16 16.15c-.66 0-1.61-.13-2.27-.35l-2.49.37V1.14l2.6-.35v5.88c.68-.66 1.61-1.3 2.84-1.3 2.68 0 4.44 2.18 4.44 5.3.01 3.24-2.24 5.48-5.12 5.48zm-.07-8.6c-.86 0-1.52.33-2.09.84v5.13c.48.37 1.14.57 1.91.57 1.74 0 2.73-1.41 2.73-3.3 0-1.99-.94-3.24-2.55-3.24zM197.32 16.2c-1.32 0-2.93-.37-3.94-.95l.57-2.02c1.01.57 2.31.95 3.43.95 1.01 0 1.67-.42 1.67-1.12 0-.79-.86-1.08-2.05-1.36-1.91-.44-3.43-1.23-3.43-3.15s1.61-3.17 4.05-3.17c1.25 0 2.75.33 3.7.81l-.57 2.02c-.99-.51-2.29-.84-3.19-.84-.95 0-1.52.35-1.52 1.01 0 .77.86 1.04 2.05 1.32 1.94.46 3.45 1.21 3.45 3.19.01 1.9-1.62 3.31-4.22 3.31zM204.74 3.85c-1.01 0-1.58-.62-1.58-1.56 0-.92.57-1.56 1.58-1.56 1.03 0 1.61.64 1.61 1.56-.01.95-.58 1.56-1.61 1.56zm-1.3 11.99V5.76l2.6-.37v10.45h-2.6zM212.17 16.17c-2.27 0-3.45-.99-3.37-3.43l.15-4.78-1.58-.18.07-1.65 1.58-.51.04-2.24h2.51l-.04 2.38h2.86l-.07 2.13h-2.95l-.13 4.69c-.02.95.46 1.39 1.34 1.39.53 0 1.06-.13 1.58-.31l.35 2.11c-.75.27-1.46.4-2.34.4zM218.09 11.33c.11 1.65 1.23 2.77 3.04 2.77 1.08 0 2.24-.35 3.17-.92l.33 2.16c-.97.53-2.31.84-3.67.84-3.26 0-5.41-2.07-5.41-5.3 0-3.3 2.2-5.5 5.24-5.5 2.68 0 4.18 1.63 4.18 4.11 0 .55-.09 1.25-.22 1.69l-6.64.09v.06h-.02zm4.42-1.6v-.18c0-1.36-.59-2.22-1.94-2.22-1.43 0-2.29 1.17-2.42 2.42l4.36-.02zM231.69 15.84L231.69 1.14 234.29.79 234.29 15.84 231.69 15.84zM241.37 16.17c-2.97 0-5.13-2.02-5.13-5.39 0-3.34 2.27-5.43 5.26-5.43 2.99 0 5.13 2.07 5.13 5.41 0 3.32-2.29 5.41-5.26 5.41zm.04-8.73c-1.69 0-2.62 1.36-2.62 3.32 0 1.94.97 3.3 2.66 3.3 1.67 0 2.6-1.32 2.6-3.28 0-1.95-.97-3.34-2.64-3.34zM253.11 16.17c-2.97 0-5.13-2.02-5.13-5.39 0-3.34 2.27-5.43 5.26-5.43 2.99 0 5.13 2.07 5.13 5.41 0 3.32-2.29 5.41-5.26 5.41zm.05-8.73c-1.69 0-2.62 1.36-2.62 3.32 0 1.94.97 3.3 2.66 3.3 1.67 0 2.6-1.32 2.6-3.28 0-1.95-.97-3.34-2.64-3.34zM262.93 10.96L262.93 15.84 260.33 15.84 260.33 1.14 262.93.79 262.93 10.21 262.97 10.21 266.6 5.7 269.7 5.7 265.5 10.52 269.72 15.84 266.62 15.84 262.97 10.96zM274.12 16.2c-1.32 0-2.93-.37-3.94-.95l.57-2.02c1.01.57 2.31.95 3.43.95 1.01 0 1.67-.42 1.67-1.12 0-.79-.86-1.08-2.05-1.36-1.91-.44-3.43-1.23-3.43-3.15s1.61-3.17 4.05-3.17c1.25 0 2.75.33 3.7.81l-.57 2.02c-.99-.51-2.29-.84-3.19-.84-.95 0-1.52.35-1.52 1.01 0 .77.86 1.04 2.05 1.32 1.94.46 3.45 1.21 3.45 3.19.01 1.9-1.62 3.31-4.22 3.31zM289.57 16.17c-2.97 0-5.13-2.02-5.13-5.39 0-3.34 2.27-5.43 5.26-5.43 2.99 0 5.13 2.07 5.13 5.41 0 3.32-2.29 5.41-5.26 5.41zm.04-8.73c-1.69 0-2.62 1.36-2.62 3.32 0 1.94.97 3.3 2.66 3.3 1.67 0 2.6-1.32 2.6-3.28 0-1.95-.97-3.34-2.64-3.34zM299.29 5.7v6.18c0 1.5.62 1.98 1.72 1.98.92 0 1.74-.42 2.22-.88V5.7h2.6v10.08l-2.6.35v-1.5c-.84.9-2.05 1.54-3.34 1.54-1.98 0-3.19-1.32-3.19-3.5V5.7h2.59zM311.96 16.17c-2.27 0-3.45-.99-3.37-3.43l.15-4.78-1.58-.18.07-1.65 1.58-.51.04-2.24h2.51l-.04 2.38h2.86l-.07 2.13h-2.95l-.13 4.69c-.02.95.46 1.39 1.34 1.39.53 0 1.06-.13 1.58-.31l.35 2.11c-.75.27-1.46.4-2.34.4zM319.18 16.2c-1.32 0-2.93-.37-3.94-.95l.57-2.02c1.01.57 2.31.95 3.43.95 1.01 0 1.67-.42 1.67-1.12 0-.79-.86-1.08-2.05-1.36-1.91-.44-3.43-1.23-3.43-3.15s1.61-3.17 4.05-3.17c1.25 0 2.75.33 3.7.81l-.57 2.02c-.99-.51-2.29-.84-3.19-.84-.95 0-1.52.35-1.52 1.01 0 .77.86 1.04 2.05 1.32 1.94.46 3.45 1.21 3.45 3.19 0 1.9-1.62 3.31-4.22 3.31zM328.88 16.17c-2.27 0-3.45-.99-3.37-3.43l.15-4.78-1.58-.18.07-1.65 1.58-.51.04-2.24h2.51l-.04 2.38h2.86l-.07 2.13h-2.95l-.13 4.69c-.02.95.46 1.39 1.34 1.39.53 0 1.06-.13 1.58-.31l.35 2.11c-.75.27-1.46.4-2.34.4zM338.28 14.68c-.73.88-1.61 1.5-2.86 1.5-1.83 0-3.15-1.25-3.15-2.86 0-1.87 1.36-3.46 6.01-3.61v-.24c0-1.36-.57-1.94-2.02-1.94-1.03 0-2.29.46-3.37 1.08l-.53-2.05c.99-.62 2.57-1.19 4.25-1.19 3.12 0 4.33 1.39 4.27 4.18v3.63c0 .77.13.88.9.92l-.2 1.96c-1.94.22-2.84-.37-3.21-1.39h-.09v.01zm0-3.61c-2.53.31-3.45.81-3.45 1.89 0 .77.59 1.32 1.52 1.32.81 0 1.47-.37 1.94-.88v-2.33h-.01zM349.91 15.84V9.66c0-1.5-.59-2-1.76-2-.9 0-1.74.46-2.24.95v7.24h-2.6V5.75l2.6-.35v1.61c.9-.99 2.11-1.63 3.34-1.63 2.05 0 3.26 1.32 3.26 3.5v6.97h-2.6v-.01zM361.68 1.15l2.6-.35v15.05h-2.6v-.99c-.68.66-1.61 1.32-2.86 1.32-2.68 0-4.42-2.18-4.42-5.32 0-3.23 2.24-5.48 5.13-5.48.73 0 1.52.13 2.16.33V1.15h-.01zm-1.91 6.29c-1.74 0-2.73 1.43-2.73 3.3 0 1.98.99 3.24 2.55 3.24.86 0 1.52-.31 2.09-.84v-5.1c-.5-.38-1.14-.6-1.91-.6zM368.13 3.85c-1.01 0-1.58-.62-1.58-1.56 0-.92.57-1.56 1.58-1.56 1.03 0 1.61.64 1.61 1.56 0 .95-.58 1.56-1.61 1.56zm-1.3 11.99V5.76l2.6-.37v10.45h-2.6zM378.58 15.84V9.66c0-1.5-.59-2-1.76-2-.9 0-1.74.46-2.24.95v7.24h-2.6V5.75l2.6-.35v1.61c.9-.99 2.11-1.63 3.34-1.63 2.05 0 3.26 1.32 3.26 3.5v6.97h-2.6v-.01zM383.09 14.5c0-.92.75-1.76 1.87-2.13-1.12-.57-1.85-1.72-1.85-3.12 0-2.09 1.65-3.87 4.47-3.87 1.14 0 2.16.33 2.86.64l2.73-.24.11 2.27-1.94-.33c.26.29.46 1.06.46 1.58 0 2.07-1.74 3.7-4.25 3.7-.48 0-.84-.04-1.39-.18-.35.13-.79.46-.79.88 0 .55.46.79 2.09.79h1.06c2.9 0 4.55.81 4.55 2.79 0 2.4-2.71 4.05-5.92 4.05-2.68 0-4.82-.99-4.82-2.82 0-1.06.77-2 2.29-2.25-.87-.31-1.53-.94-1.53-1.76zm1.6 3.48c0 .95 1.17 1.61 2.88 1.61 1.78 0 3.15-.66 3.15-1.72 0-.95-.92-1.17-2.82-1.17-.64 0-1.52-.04-1.94-.09-.72.27-1.27.75-1.27 1.37zm2.91-6.69c1.17 0 1.83-.84 1.83-2.11 0-1.21-.64-2.05-1.94-2.05-1.14 0-1.87.86-1.87 2.13 0 1.22.72 2.03 1.98 2.03zM396.09 16.17c-1.06 0-1.78-.68-1.78-1.65 0-.97.73-1.61 1.78-1.61 1.01 0 1.72.64 1.72 1.61 0 .97-.71 1.65-1.72 1.65zM394.53 1.5h3.1l-.64 9.84h-1.8l-.66-9.84zM415.54 5.17c-1.1-.73-2.29-1.1-3.61-1.1-2.68 0-4.47 1.85-4.47 4.84 0 3.04 1.74 4.95 4.51 4.95 1.41 0 2.75-.53 3.76-1.23l.51 2.46c-1.1.66-2.82 1.08-4.38 1.08-4.22 0-7.11-2.66-7.11-7.17 0-4.4 2.88-7.24 7.17-7.24 1.61 0 3.26.42 4.45 1.08l-.83 2.33zM420.75 5.7v6.18c0 1.5.62 1.98 1.72 1.98.92 0 1.74-.42 2.22-.88V5.7h2.6v10.08l-2.6.35v-1.5c-.84.9-2.05 1.54-3.34 1.54-1.98 0-3.19-1.32-3.19-3.5V5.7h2.59zM432.98 16.2c-1.32 0-2.93-.37-3.94-.95l.57-2.02c1.01.57 2.31.95 3.43.95 1.01 0 1.67-.42 1.67-1.12 0-.79-.86-1.08-2.05-1.36-1.91-.44-3.43-1.23-3.43-3.15s1.61-3.17 4.05-3.17c1.25 0 2.75.33 3.7.81l-.57 2.02c-.99-.51-2.29-.84-3.19-.84-.95 0-1.52.35-1.52 1.01 0 .77.86 1.04 2.05 1.32 1.94.46 3.45 1.21 3.45 3.19.01 1.9-1.62 3.31-4.22 3.31zM442.69 16.17c-2.27 0-3.45-.99-3.37-3.43l.15-4.78-1.58-.18.07-1.65 1.58-.51.04-2.24h2.51l-.04 2.38h2.86l-.07 2.13h-2.95l-.13 4.69c-.02.95.46 1.39 1.34 1.39.53 0 1.06-.13 1.58-.31l.35 2.11c-.76.27-1.46.4-2.34.4zM451.18 16.17c-2.97 0-5.13-2.02-5.13-5.39 0-3.34 2.27-5.43 5.26-5.43 2.99 0 5.13 2.07 5.13 5.41 0 3.32-2.29 5.41-5.26 5.41zm.04-8.73c-1.69 0-2.62 1.36-2.62 3.32 0 1.94.97 3.3 2.66 3.3 1.67 0 2.6-1.32 2.6-3.28 0-1.95-.97-3.34-2.64-3.34zM471.13 15.84V9.68c0-1.5-.59-2.02-1.67-2.02-.9 0-1.61.46-2.11.9v7.29h-2.6V9.69c0-1.5-.57-2.02-1.65-2.02-.92 0-1.63.37-2.11.84v7.35h-2.6V5.76l2.6-.35v1.43c.95-.95 1.98-1.45 3.23-1.45 1.23 0 2.27.59 2.77 1.74 1.01-1.1 2.22-1.74 3.61-1.74 1.92 0 3.12 1.32 3.12 3.52v6.95h-2.59v-.02zM478.15 11.33c.11 1.65 1.23 2.77 3.04 2.77 1.08 0 2.24-.35 3.17-.92l.33 2.16c-.97.53-2.31.84-3.67.84-3.26 0-5.41-2.07-5.41-5.3 0-3.3 2.2-5.5 5.24-5.5 2.68 0 4.18 1.63 4.18 4.11 0 .55-.09 1.25-.22 1.69l-6.64.09v.06h-.02zm4.42-1.6v-.18c0-1.36-.59-2.22-1.94-2.22-1.43 0-2.29 1.17-2.42 2.42l4.36-.02zM489.54 15.84h-2.6V5.76l2.6-.37v1.65c.64-1.08 1.45-1.67 2.64-1.67.62 0 1.25.13 1.8.46l-.57 2.33c-.48-.26-.97-.4-1.45-.4-.9 0-1.74.57-2.42 1.8v6.28zM498.54 16.2c-1.32 0-2.93-.37-3.94-.95l.57-2.02c1.01.57 2.31.95 3.43.95 1.01 0 1.67-.42 1.67-1.12 0-.79-.86-1.08-2.05-1.36-1.91-.44-3.43-1.23-3.43-3.15s1.61-3.17 4.05-3.17c1.25 0 2.75.33 3.7.81l-.57 2.02c-.99-.51-2.29-.84-3.19-.84-.95 0-1.52.35-1.52 1.01 0 .77.86 1.04 2.05 1.32 1.94.46 3.45 1.21 3.45 3.19.01 1.9-1.62 3.31-4.22 3.31zM1.61 42.5c0-.92.75-1.76 1.87-2.13-1.12-.57-1.85-1.72-1.85-3.12 0-2.09 1.65-3.87 4.47-3.87 1.14 0 2.16.33 2.86.64l2.73-.24.11 2.27-1.94-.33c.26.29.46 1.06.46 1.58 0 2.07-1.74 3.7-4.25 3.7-.48 0-.84-.04-1.39-.18-.35.13-.79.46-.79.88 0 .55.46.79 2.09.79h1.06c2.9 0 4.55.81 4.55 2.79 0 2.4-2.71 4.05-5.92 4.05-2.68 0-4.82-.99-4.82-2.82 0-1.06.77-2 2.29-2.25-.87-.31-1.53-.94-1.53-1.76zm1.61 3.48c0 .95 1.17 1.61 2.88 1.61 1.78 0 3.15-.66 3.15-1.72 0-.95-.92-1.17-2.82-1.17-.64 0-1.52-.04-1.94-.09-.72.27-1.27.75-1.27 1.37zm2.9-6.69c1.17 0 1.83-.84 1.83-2.11 0-1.21-.64-2.05-1.94-2.05-1.14 0-1.87.86-1.87 2.13 0 1.22.73 2.03 1.98 2.03zM15.94 43.84h-2.6V33.76l2.6-.37v1.65c.64-1.08 1.45-1.67 2.64-1.67.62 0 1.25.13 1.8.46l-.57 2.33c-.48-.26-.97-.4-1.45-.4-.9 0-1.74.57-2.42 1.8v6.28zM27.24 42.68c-.73.88-1.61 1.5-2.86 1.5-1.83 0-3.15-1.25-3.15-2.86 0-1.87 1.36-3.46 6.01-3.61v-.24c0-1.36-.57-1.94-2.02-1.94-1.03 0-2.29.46-3.37 1.08l-.53-2.05c.99-.62 2.57-1.19 4.25-1.19 3.12 0 4.33 1.39 4.27 4.18v3.63c0 .77.13.88.9.92l-.2 1.96c-1.94.22-2.84-.37-3.21-1.39h-.09v.01zm0-3.61c-2.53.31-3.45.81-3.45 1.89 0 .77.59 1.32 1.52 1.32.81 0 1.47-.37 1.94-.88v-2.33h-.01zM37.63 43.87L34.86 43.87 30.99 33.7 33.76 33.7 36.31 41.11 38.75 33.7 41.54 33.7zM44.32 31.85c-1.01 0-1.58-.62-1.58-1.56 0-.92.57-1.56 1.58-1.56 1.03 0 1.61.64 1.61 1.56-.01.95-.58 1.56-1.61 1.56zm-1.3 11.99V33.76l2.6-.37v10.45h-2.6zM52.08 44.17c-2.27 0-3.45-.99-3.37-3.43l.15-4.78-1.58-.18.07-1.65 1.58-.51.04-2.24h2.51l-.04 2.38h2.86l-.07 2.13h-2.95l-.13 4.69c-.02.95.46 1.39 1.34 1.39.53 0 1.06-.13 1.58-.31l.35 2.11c-.75.27-1.46.4-2.34.4zM61.81 42.68c-.73.88-1.61 1.5-2.86 1.5-1.83 0-3.15-1.25-3.15-2.86 0-1.87 1.36-3.46 6.01-3.61v-.24c0-1.36-.57-1.94-2.02-1.94-1.03 0-2.29.46-3.37 1.08l-.53-2.05c.99-.62 2.57-1.19 4.25-1.19 3.12 0 4.33 1.39 4.27 4.18v3.63c0 .77.13.88.9.92l-.2 1.96c-1.94.22-2.84-.37-3.21-1.39h-.09v.01zm0-3.61c-2.53.31-3.45.81-3.45 1.89 0 .77.59 1.32 1.52 1.32.81 0 1.47-.37 1.94-.88v-2.33h-.01zM70.76 44.17c-2.27 0-3.45-.99-3.37-3.43l.15-4.78-1.58-.18.07-1.65 1.58-.51.04-2.24h2.51l-.04 2.38h2.86l-.07 2.13h-2.95l-.13 4.69c-.02.95.46 1.39 1.34 1.39.53 0 1.06-.13 1.58-.31l.35 2.11c-.76.27-1.46.4-2.34.4zM77.01 39.33c.11 1.65 1.23 2.77 3.04 2.77 1.08 0 2.24-.35 3.17-.92l.33 2.16c-.97.53-2.31.84-3.67.84-3.26 0-5.41-2.07-5.41-5.3 0-3.3 2.2-5.5 5.24-5.5 2.68 0 4.18 1.63 4.18 4.11 0 .55-.09 1.25-.22 1.69l-6.64.09v.06h-.02zm4.42-1.6v-.18c0-1.36-.59-2.22-1.94-2.22-1.43 0-2.29 1.17-2.42 2.42l4.36-.02zM94.85 44.17c-2.27 0-3.45-.99-3.37-3.43l.15-4.78-1.58-.18.07-1.65 1.58-.51.04-2.24h2.51l-.04 2.38h2.86L97 35.9h-2.95l-.13 4.69c-.02.95.46 1.39 1.34 1.39.53 0 1.06-.13 1.58-.31l.35 2.11c-.76.26-1.46.39-2.34.39zM103.67 44.17c-2.97 0-5.13-2.02-5.13-5.39 0-3.34 2.27-5.43 5.26-5.43 2.99 0 5.13 2.07 5.13 5.41 0 3.32-2.29 5.41-5.26 5.41zm.05-8.73c-1.69 0-2.62 1.36-2.62 3.32 0 1.94.97 3.3 2.66 3.3 1.67 0 2.6-1.32 2.6-3.28 0-1.95-.97-3.34-2.64-3.34zM117.64 31.85c-1.01 0-1.58-.62-1.58-1.56 0-.92.57-1.56 1.58-1.56 1.03 0 1.61.64 1.61 1.56 0 .95-.58 1.56-1.61 1.56zm-1.3 11.99V33.76l2.6-.37v10.45h-2.6zM125.41 44.17c-2.27 0-3.45-.99-3.37-3.43l.15-4.78-1.58-.18.07-1.65 1.58-.51.04-2.24h2.51l-.04 2.38h2.86l-.07 2.13h-2.95l-.13 4.69c-.02.95.46 1.39 1.34 1.39.53 0 1.06-.13 1.58-.31l.35 2.11c-.76.27-1.46.4-2.34.4zM131.06 40.63c1.23 0 2.24 1.08 2.24 2.42 0 1.91-1.72 3.32-3.48 4.38l-1.14-1.03c1.39-.97 2.22-1.8 2.22-2.55 0-.57-.42-.97-1.78-1.56.12-.95.86-1.66 1.94-1.66zM145.84 42.68c-.73.88-1.61 1.5-2.86 1.5-1.83 0-3.15-1.25-3.15-2.86 0-1.87 1.36-3.46 6.01-3.61v-.24c0-1.36-.57-1.94-2.02-1.94-1.03 0-2.29.46-3.37 1.08l-.53-2.05c.99-.62 2.57-1.19 4.25-1.19 3.12 0 4.33 1.39 4.27 4.18v3.63c0 .77.13.88.9.92l-.2 1.96c-1.94.22-2.84-.37-3.21-1.39h-.09v.01zm0-3.61c-2.53.31-3.45.81-3.45 1.89 0 .77.59 1.32 1.52 1.32.81 0 1.47-.37 1.94-.88v-2.33h-.01zM157.81 43.84v-6.18c0-1.5-.59-2-1.76-2-.9 0-1.74.46-2.24.95v7.24h-2.6v-10.1l2.6-.35v1.61c.9-.99 2.11-1.63 3.34-1.63 2.05 0 3.26 1.32 3.26 3.5v6.97h-2.6v-.01zM169.91 29.15l2.6-.35v15.05h-2.6v-.99c-.68.66-1.61 1.32-2.86 1.32-2.68 0-4.42-2.18-4.42-5.32 0-3.23 2.24-5.48 5.13-5.48.73 0 1.52.13 2.16.33v-4.56h-.01zM168 35.44c-1.74 0-2.73 1.43-2.73 3.3 0 1.98.99 3.24 2.55 3.24.86 0 1.52-.31 2.09-.84v-5.1c-.5-.38-1.14-.6-1.91-.6zM182.41 43.89L179.4 33.7 182.11 33.7 183.87 40.83 185.89 33.72 188.49 33.72 190.67 40.78 192.19 33.7 194.94 33.7 191.97 43.89 189.42 43.89 187.15 36.76 184.95 43.89 182.41 43.89zM198.62 39.33c.11 1.65 1.23 2.77 3.04 2.77 1.08 0 2.24-.35 3.17-.92l.33 2.16c-.97.53-2.31.84-3.67.84-3.26 0-5.41-2.07-5.41-5.3 0-3.3 2.2-5.5 5.24-5.5 2.68 0 4.18 1.63 4.18 4.11 0 .55-.09 1.25-.22 1.69l-6.64.09v.06h-.02zm4.42-1.6v-.18c0-1.36-.59-2.22-1.94-2.22-1.43 0-2.29 1.17-2.42 2.42l4.36-.02zM218.2 42.68c-.73.88-1.61 1.5-2.86 1.5-1.83 0-3.15-1.25-3.15-2.86 0-1.87 1.36-3.46 6.01-3.61v-.24c0-1.36-.57-1.94-2.02-1.94-1.03 0-2.29.46-3.37 1.08l-.53-2.05c.99-.62 2.57-1.19 4.25-1.19 3.12 0 4.33 1.39 4.27 4.18v3.63c0 .77.13.88.9.92l-.2 1.96c-1.94.22-2.84-.37-3.21-1.39h-.09v.01zm0-3.61c-2.53.31-3.45.81-3.45 1.89 0 .77.59 1.32 1.52 1.32.81 0 1.47-.37 1.94-.88v-2.33h-.01zM226.16 43.84h-2.6V33.76l2.6-.37v1.65c.64-1.08 1.45-1.67 2.64-1.67.62 0 1.25.13 1.8.46l-.57 2.33c-.48-.26-.97-.4-1.45-.4-.9 0-1.74.57-2.42 1.8v6.28zM234.11 39.33c.11 1.65 1.23 2.77 3.04 2.77 1.08 0 2.24-.35 3.17-.92l.33 2.16c-.97.53-2.31.84-3.67.84-3.26 0-5.41-2.07-5.41-5.3 0-3.3 2.2-5.5 5.24-5.5 2.68 0 4.18 1.63 4.18 4.11 0 .55-.09 1.25-.22 1.69l-6.64.09v.06h-.02zm4.42-1.6v-.18c0-1.36-.59-2.22-1.94-2.22-1.43 0-2.29 1.17-2.42 2.42l4.36-.02zM247.79 42.5c0-.92.75-1.76 1.87-2.13-1.12-.57-1.85-1.72-1.85-3.12 0-2.09 1.65-3.87 4.47-3.87 1.14 0 2.16.33 2.86.64l2.73-.24.11 2.27-1.94-.33c.26.29.46 1.06.46 1.58 0 2.07-1.74 3.7-4.25 3.7-.48 0-.84-.04-1.39-.18-.35.13-.79.46-.79.88 0 .55.46.79 2.09.79h1.06c2.9 0 4.55.81 4.55 2.79 0 2.4-2.71 4.05-5.92 4.05-2.68 0-4.82-.99-4.82-2.82 0-1.06.77-2 2.29-2.25-.87-.31-1.53-.94-1.53-1.76zm1.6 3.48c0 .95 1.17 1.61 2.88 1.61 1.78 0 3.15-.66 3.15-1.72 0-.95-.92-1.17-2.82-1.17-.64 0-1.52-.04-1.94-.09-.72.27-1.27.75-1.27 1.37zm2.91-6.69c1.17 0 1.83-.84 1.83-2.11 0-1.21-.64-2.05-1.94-2.05-1.14 0-1.87.86-1.87 2.13 0 1.22.72 2.03 1.98 2.03zM261.47 39.33c.11 1.65 1.23 2.77 3.04 2.77 1.08 0 2.24-.35 3.17-.92l.33 2.16c-.97.53-2.31.84-3.67.84-3.26 0-5.41-2.07-5.41-5.3 0-3.3 2.2-5.5 5.24-5.5 2.68 0 4.18 1.63 4.18 4.11 0 .55-.09 1.25-.22 1.69l-6.64.09v.06h-.02zm4.43-1.6v-.18c0-1.36-.59-2.22-1.94-2.22-1.43 0-2.29 1.17-2.42 2.42l4.36-.02zM274.19 44.17c-2.27 0-3.45-.99-3.37-3.43l.15-4.78-1.58-.18.07-1.65 1.58-.51.04-2.24h2.51l-.04 2.38h2.86l-.07 2.13h-2.95l-.13 4.69c-.02.95.46 1.39 1.34 1.39.53 0 1.06-.13 1.58-.31l.35 2.11c-.76.27-1.46.4-2.34.4zM282.17 44.17c-2.27 0-3.45-.99-3.37-3.43l.15-4.78-1.58-.18.07-1.65 1.58-.51.04-2.24h2.51l-.04 2.38h2.86l-.07 2.13h-2.95l-.13 4.69c-.02.95.46 1.39 1.34 1.39.53 0 1.06-.13 1.58-.31l.35 2.11c-.75.27-1.46.4-2.34.4zM287.87 31.85c-1.01 0-1.58-.62-1.58-1.56 0-.92.57-1.56 1.58-1.56 1.03 0 1.61.64 1.61 1.56 0 .95-.57 1.56-1.61 1.56zm-1.3 11.99V33.76l2.6-.37v10.45h-2.6zM298.65 43.84v-6.18c0-1.5-.59-2-1.76-2-.9 0-1.74.46-2.24.95v7.24h-2.6v-10.1l2.6-.35v1.61c.9-.99 2.11-1.63 3.34-1.63 2.05 0 3.26 1.32 3.26 3.5v6.97h-2.6v-.01zM303.49 42.5c0-.92.75-1.76 1.87-2.13-1.12-.57-1.85-1.72-1.85-3.12 0-2.09 1.65-3.87 4.47-3.87 1.14 0 2.16.33 2.86.64l2.73-.24.11 2.27-1.94-.33c.26.29.46 1.06.46 1.58 0 2.07-1.74 3.7-4.25 3.7-.48 0-.84-.04-1.39-.18-.35.13-.79.46-.79.88 0 .55.46.79 2.09.79h1.06c2.9 0 4.55.81 4.55 2.79 0 2.4-2.71 4.05-5.92 4.05-2.68 0-4.82-.99-4.82-2.82 0-1.06.77-2 2.29-2.25-.87-.31-1.53-.94-1.53-1.76zm1.61 3.48c0 .95 1.17 1.61 2.88 1.61 1.78 0 3.15-.66 3.15-1.72 0-.95-.92-1.17-2.82-1.17-.64 0-1.52-.04-1.94-.09-.72.27-1.27.75-1.27 1.37zm2.9-6.69c1.17 0 1.83-.84 1.83-2.11 0-1.21-.64-2.05-1.94-2.05-1.14 0-1.87.86-1.87 2.13 0 1.22.73 2.03 1.98 2.03zM323.93 44.17c-2.27 0-3.45-.99-3.37-3.43l.15-4.78-1.58-.18.07-1.65 1.58-.51.04-2.24h2.51l-.04 2.38h2.86l-.07 2.13h-2.95l-.13 4.69c-.02.95.46 1.39 1.34 1.39.53 0 1.06-.13 1.58-.31l.35 2.11c-.76.27-1.46.4-2.34.4zM332.75 44.17c-2.97 0-5.13-2.02-5.13-5.39 0-3.34 2.27-5.43 5.26-5.43 2.99 0 5.13 2.07 5.13 5.41 0 3.32-2.29 5.41-5.26 5.41zm.05-8.73c-1.69 0-2.62 1.36-2.62 3.32 0 1.94.97 3.3 2.66 3.3 1.67 0 2.6-1.32 2.6-3.28 0-1.95-.97-3.34-2.64-3.34zM346.9 43.84v-6.18c0-1.5-.59-2-1.76-2-.9 0-1.74.46-2.24.95v7.24h-2.6v-10.1l2.6-.35v1.61c.9-.99 2.11-1.63 3.34-1.63 2.05 0 3.26 1.32 3.26 3.5v6.97h-2.6v-.01zM355.45 44.2c-1.32 0-2.93-.37-3.94-.95l.57-2.02c1.01.57 2.31.95 3.43.95 1.01 0 1.67-.42 1.67-1.12 0-.79-.86-1.08-2.05-1.36-1.91-.44-3.43-1.23-3.43-3.15s1.61-3.17 4.05-3.17c1.25 0 2.75.33 3.7.81l-.57 2.02c-.99-.51-2.29-.84-3.19-.84-.95 0-1.52.35-1.52 1.01 0 .77.86 1.04 2.05 1.32 1.94.46 3.45 1.21 3.45 3.19.01 1.9-1.62 3.31-4.22 3.31zM371.56 44.17c-2.97 0-5.13-2.02-5.13-5.39 0-3.34 2.27-5.43 5.26-5.43 2.99 0 5.13 2.07 5.13 5.41 0 3.32-2.29 5.41-5.26 5.41zm.04-8.73c-1.69 0-2.62 1.36-2.62 3.32 0 1.94.97 3.3 2.66 3.3 1.67 0 2.6-1.32 2.6-3.28 0-1.95-.97-3.34-2.64-3.34zM385.09 31.26c-.48-.22-1.06-.42-1.65-.42-.95 0-1.34.55-1.34 1.8v1.12h3.01l-.07 2.13h-2.88v7.94h-2.6v-7.92l-1.76-.13.09-1.65 1.65-.48.02-1.08c.07-2.9 1.41-4.05 3.67-4.05.99 0 1.89.29 2.4.51.01.03-.54 2.25-.54 2.23zM396.55 44.17c-3.3 0-5.26-2.05-5.26-5.37 0-3.3 2.16-5.43 5.35-5.43 1.39 0 2.57.31 3.5.86l-.55 2.09c-.84-.53-1.8-.81-2.75-.81-1.87 0-2.88 1.28-2.88 3.23 0 2.07 1.17 3.28 2.88 3.28 1.06 0 2.02-.29 2.82-.79l.42 2.11c-.89.53-2.17.83-3.53.83zM407.66 42.68c-.73.88-1.61 1.5-2.86 1.5-1.83 0-3.15-1.25-3.15-2.86 0-1.87 1.36-3.46 6.01-3.61v-.24c0-1.36-.57-1.94-2.02-1.94-1.03 0-2.29.46-3.37 1.08l-.53-2.05c.99-.62 2.57-1.19 4.25-1.19 3.12 0 4.33 1.39 4.27 4.18v3.63c0 .77.13.88.9.92l-.2 1.96c-1.94.22-2.84-.37-3.21-1.39h-.09v.01zm0-3.61c-2.53.31-3.45.81-3.45 1.89 0 .77.59 1.32 1.52 1.32.81 0 1.47-.37 1.94-.88v-2.33h-.01zM413.03 43.84L413.03 29.14 415.63 28.79 415.63 43.84 413.03 43.84zM418.5 43.84L418.5 29.14 421.1 28.79 421.1 43.84 418.5 43.84zM427.13 44.2c-1.32 0-2.93-.37-3.94-.95l.57-2.02c1.01.57 2.31.95 3.43.95 1.01 0 1.67-.42 1.67-1.12 0-.79-.86-1.08-2.05-1.36-1.91-.44-3.43-1.23-3.43-3.15s1.61-3.17 4.05-3.17c1.25 0 2.75.33 3.7.81l-.57 2.02c-.99-.51-2.29-.84-3.19-.84-.95 0-1.52.35-1.52 1.01 0 .77.86 1.04 2.05 1.32 1.94.46 3.45 1.21 3.45 3.19 0 1.9-1.62 3.31-4.22 3.31zM444.03 42.68c-.73.88-1.61 1.5-2.86 1.5-1.83 0-3.15-1.25-3.15-2.86 0-1.87 1.36-3.46 6.01-3.61v-.24c0-1.36-.57-1.94-2.02-1.94-1.03 0-2.29.46-3.37 1.08l-.53-2.05c.99-.62 2.57-1.19 4.25-1.19 3.12 0 4.33 1.39 4.27 4.18v3.63c0 .77.13.88.9.92l-.2 1.96c-1.94.22-2.84-.37-3.21-1.39h-.09v.01zm0-3.61c-2.53.31-3.45.81-3.45 1.89 0 .77.59 1.32 1.52 1.32.81 0 1.47-.37 1.94-.88v-2.33h-.01zM456 43.84v-6.18c0-1.5-.59-2-1.76-2-.9 0-1.74.46-2.24.95v7.24h-2.6v-10.1l2.6-.35v1.61c.9-.99 2.11-1.63 3.34-1.63 2.05 0 3.26 1.32 3.26 3.5v6.97H456v-.01zM468.09 29.15l2.6-.35v15.05h-2.6v-.99c-.68.66-1.61 1.32-2.86 1.32-2.68 0-4.42-2.18-4.42-5.32 0-3.23 2.24-5.48 5.13-5.48.73 0 1.52.13 2.16.33v-4.56h-.01zm-1.91 6.29c-1.74 0-2.73 1.43-2.73 3.3 0 1.98.99 3.24 2.55 3.24.86 0 1.52-.31 2.09-.84v-5.1c-.5-.38-1.14-.6-1.91-.6zM3.48 59.85c-1.01 0-1.58-.62-1.58-1.56 0-.92.57-1.56 1.58-1.56 1.03 0 1.61.64 1.61 1.56 0 .95-.57 1.56-1.61 1.56zM2.19 71.84V61.76l2.6-.37v10.45h-2.6zM14.27 71.84v-6.18c0-1.5-.59-2-1.76-2-.9 0-1.74.46-2.24.95v7.24h-2.6v-10.1l2.6-.35v1.61c.9-.99 2.11-1.63 3.34-1.63 2.05 0 3.26 1.32 3.26 3.5v6.97h-2.6v-.01zM24.34 72.17c-3.3 0-5.26-2.05-5.26-5.37 0-3.3 2.16-5.43 5.35-5.43 1.39 0 2.57.31 3.5.86l-.55 2.09c-.84-.53-1.8-.81-2.75-.81-1.87 0-2.88 1.28-2.88 3.23 0 2.07 1.17 3.28 2.88 3.28 1.06 0 2.02-.29 2.82-.79l.42 2.11c-.89.53-2.17.83-3.53.83zM32.72 71.84h-2.6V61.76l2.6-.37v1.65c.64-1.08 1.45-1.67 2.64-1.67.62 0 1.25.13 1.8.46l-.57 2.33c-.48-.26-.97-.4-1.45-.4-.9 0-1.74.57-2.42 1.8v6.28zM40.66 67.33c.11 1.65 1.23 2.77 3.04 2.77 1.08 0 2.24-.35 3.17-.92l.33 2.16c-.97.53-2.31.84-3.67.84-3.26 0-5.41-2.07-5.41-5.3 0-3.3 2.2-5.5 5.24-5.5 2.68 0 4.18 1.63 4.18 4.11 0 .55-.09 1.25-.22 1.69l-6.64.09v.06h-.02zm4.43-1.6v-.18c0-1.36-.59-2.22-1.94-2.22-1.43 0-2.29 1.17-2.42 2.42l4.36-.02zM55.12 70.68c-.73.88-1.61 1.5-2.86 1.5-1.83 0-3.15-1.25-3.15-2.86 0-1.87 1.36-3.46 6.01-3.61v-.24c0-1.36-.57-1.94-2.02-1.94-1.03 0-2.29.46-3.37 1.08l-.53-2.05c.99-.62 2.57-1.19 4.25-1.19 3.12 0 4.33 1.39 4.27 4.18v3.63c0 .77.13.88.9.92l-.2 1.96c-1.94.22-2.84-.37-3.21-1.39h-.09v.01zm0-3.61c-2.53.31-3.45.81-3.45 1.89 0 .77.59 1.32 1.52 1.32.81 0 1.47-.37 1.94-.88v-2.33h-.01zM63.63 72.2c-1.32 0-2.93-.37-3.94-.95l.57-2.02c1.01.57 2.31.95 3.43.95 1.01 0 1.67-.42 1.67-1.12 0-.79-.86-1.08-2.05-1.36-1.91-.44-3.43-1.23-3.43-3.15s1.61-3.17 4.05-3.17c1.25 0 2.75.33 3.7.81l-.57 2.02c-.99-.51-2.29-.84-3.19-.84-.95 0-1.52.35-1.52 1.01 0 .77.86 1.04 2.05 1.32 1.94.46 3.45 1.21 3.45 3.19.01 1.9-1.62 3.31-4.22 3.31zM72.04 67.33c.11 1.65 1.23 2.77 3.04 2.77 1.08 0 2.24-.35 3.17-.92l.33 2.16c-.97.53-2.31.84-3.67.84-3.26 0-5.41-2.07-5.41-5.3 0-3.3 2.2-5.5 5.24-5.5 2.68 0 4.18 1.63 4.18 4.11 0 .55-.09 1.25-.22 1.69l-6.64.09v.06h-.02zm4.42-1.6v-.18c0-1.36-.59-2.22-1.94-2.22-1.43 0-2.29 1.17-2.42 2.42l4.36-.02zM87.85 57.15l2.6-.35v15.05h-2.6v-.99c-.68.66-1.61 1.32-2.86 1.32-2.68 0-4.42-2.18-4.42-5.32 0-3.23 2.24-5.48 5.13-5.48.73 0 1.52.13 2.16.33v-4.56h-.01zm-1.91 6.29c-1.74 0-2.73 1.43-2.73 3.3 0 1.98.99 3.24 2.55 3.24.86 0 1.52-.31 2.09-.84v-5.1c-.5-.38-1.14-.6-1.91-.6zM101.6 72.2c-1.32 0-2.93-.37-3.94-.95l.57-2.02c1.01.57 2.31.95 3.43.95 1.01 0 1.67-.42 1.67-1.12 0-.79-.86-1.08-2.05-1.36-1.91-.44-3.43-1.23-3.43-3.15s1.61-3.17 4.05-3.17c1.25 0 2.75.33 3.7.81l-.57 2.02c-.99-.51-2.29-.84-3.19-.84-.95 0-1.52.35-1.52 1.01 0 .77.86 1.04 2.05 1.32 1.94.46 3.45 1.21 3.45 3.19.01 1.9-1.62 3.31-4.22 3.31zM113.37 70.68c-.73.88-1.61 1.5-2.86 1.5-1.83 0-3.15-1.25-3.15-2.86 0-1.87 1.36-3.46 6.01-3.61v-.24c0-1.36-.57-1.94-2.02-1.94-1.03 0-2.29.46-3.37 1.08l-.53-2.05c.99-.62 2.57-1.19 4.25-1.19 3.12 0 4.33 1.39 4.27 4.18v3.63c0 .77.13.88.9.92l-.2 1.96c-1.94.22-2.84-.37-3.21-1.39h-.09v.01zm0-3.61c-2.53.31-3.45.81-3.45 1.89 0 .77.59 1.32 1.52 1.32.81 0 1.47-.37 1.94-.88v-2.33h-.01zM118.74 71.84L118.74 57.14 121.34 56.79 121.34 71.84zM126.18 67.33c.11 1.65 1.23 2.77 3.04 2.77 1.08 0 2.24-.35 3.17-.92l.33 2.16c-.97.53-2.31.84-3.67.84-3.26 0-5.41-2.07-5.41-5.3 0-3.3 2.2-5.5 5.24-5.5 2.68 0 4.18 1.63 4.18 4.11 0 .55-.09 1.25-.22 1.69l-6.64.09v.06h-.02zm4.42-1.6v-.18c0-1.36-.59-2.22-1.94-2.22-1.43 0-2.29 1.17-2.42 2.42l4.36-.02zM138.45 72.2c-1.32 0-2.93-.37-3.94-.95l.57-2.02c1.01.57 2.31.95 3.43.95 1.01 0 1.67-.42 1.67-1.12 0-.79-.86-1.08-2.05-1.36-1.91-.44-3.43-1.23-3.43-3.15s1.61-3.17 4.05-3.17c1.25 0 2.75.33 3.7.81l-.57 2.02c-.99-.51-2.29-.84-3.19-.84-.95 0-1.52.35-1.52 1.01 0 .77.86 1.04 2.05 1.32 1.94.46 3.45 1.21 3.45 3.19.01 1.9-1.62 3.31-4.22 3.31zM146.29 72.17c-1.03 0-1.76-.75-1.76-1.72s.73-1.69 1.76-1.69c1.01 0 1.72.73 1.72 1.69s-.71 1.72-1.72 1.72zM155.85 71.84L155.85 58.09 158.51 58.09 158.51 71.84zM165.23 72.17c-2.27 0-3.45-.99-3.37-3.43l.15-4.78-1.58-.18.07-1.65 1.58-.51.04-2.24h2.51l-.04 2.38h2.86l-.07 2.13h-2.95l-.13 4.69c-.02.95.46 1.39 1.34 1.39.53 0 1.06-.13 1.58-.31l.35 2.11c-.76.27-1.46.4-2.34.4zM176.05 59.85c-1.01 0-1.58-.62-1.58-1.56 0-.92.57-1.56 1.58-1.56 1.03 0 1.61.64 1.61 1.56 0 .95-.58 1.56-1.61 1.56zm-1.3 11.99V61.76l2.6-.37v10.45h-2.6zM183.38 72.2c-1.32 0-2.93-.37-3.94-.95l.57-2.02c1.01.57 2.31.95 3.43.95 1.01 0 1.67-.42 1.67-1.12 0-.79-.86-1.08-2.05-1.36-1.91-.44-3.43-1.23-3.43-3.15s1.61-3.17 4.05-3.17c1.25 0 2.75.33 3.7.81l-.57 2.02c-.99-.51-2.29-.84-3.19-.84-.95 0-1.52.35-1.52 1.01 0 .77.86 1.04 2.05 1.32 1.94.46 3.45 1.21 3.45 3.19 0 1.9-1.63 3.31-4.22 3.31zM196.84 71.89L193.83 61.7 196.54 61.7 198.3 68.83 200.32 61.72 202.92 61.72 205.1 68.78 206.62 61.7 209.37 61.7 206.4 71.89 203.85 71.89 201.58 64.76 199.38 71.89zM215.67 72.17c-2.97 0-5.13-2.02-5.13-5.39 0-3.34 2.27-5.43 5.26-5.43 2.99 0 5.13 2.07 5.13 5.41 0 3.32-2.29 5.41-5.26 5.41zm.04-8.73c-1.69 0-2.62 1.36-2.62 3.32 0 1.94.97 3.3 2.66 3.3 1.67 0 2.6-1.32 2.6-3.28.01-1.95-.96-3.34-2.64-3.34zM225.81 71.84h-2.6V61.76l2.6-.37v1.65c.64-1.08 1.45-1.67 2.64-1.67.62 0 1.25.13 1.8.46l-.57 2.33c-.48-.26-.97-.4-1.45-.4-.9 0-1.74.57-2.42 1.8v6.28zM234.52 66.96L234.52 71.84 231.92 71.84 231.92 57.14 234.52 56.79 234.52 66.21 234.56 66.21 238.19 61.7 241.29 61.7 237.09 66.52 241.31 71.84 238.21 71.84 234.56 66.96 234.52 66.96zM244.2 59.85c-1.01 0-1.58-.62-1.58-1.56 0-.92.57-1.56 1.58-1.56 1.03 0 1.61.64 1.61 1.56 0 .95-.57 1.56-1.61 1.56zm-1.29 11.99V61.76l2.6-.37v10.45h-2.6zM254.99 71.84v-6.18c0-1.5-.59-2-1.76-2-.9 0-1.74.46-2.24.95v7.24h-2.6v-10.1l2.6-.35v1.61c.9-.99 2.11-1.63 3.34-1.63 2.05 0 3.26 1.32 3.26 3.5v6.97h-2.6v-.01zM259.82 70.5c0-.92.75-1.76 1.87-2.13-1.12-.57-1.85-1.72-1.85-3.12 0-2.09 1.65-3.87 4.47-3.87 1.14 0 2.16.33 2.86.64l2.73-.24.11 2.27-1.94-.33c.26.29.46 1.06.46 1.58 0 2.07-1.74 3.7-4.25 3.7-.48 0-.84-.04-1.39-.18-.35.13-.79.46-.79.88 0 .55.46.79 2.09.79h1.06c2.9 0 4.55.81 4.55 2.79 0 2.4-2.71 4.05-5.92 4.05-2.68 0-4.82-.99-4.82-2.82 0-1.06.77-2 2.29-2.25-.87-.31-1.53-.94-1.53-1.76zm1.61 3.48c0 .95 1.17 1.61 2.88 1.61 1.78 0 3.15-.66 3.15-1.72 0-.95-.92-1.17-2.82-1.17-.64 0-1.52-.04-1.94-.09-.72.27-1.27.75-1.27 1.37zm2.9-6.69c1.17 0 1.83-.84 1.83-2.11 0-1.21-.64-2.05-1.94-2.05-1.14 0-1.87.86-1.87 2.13 0 1.22.73 2.03 1.98 2.03zM281.21 72.17c-2.97 0-5.13-2.02-5.13-5.39 0-3.34 2.27-5.43 5.26-5.43 2.99 0 5.13 2.07 5.13 5.41 0 3.32-2.29 5.41-5.26 5.41zm.04-8.73c-1.69 0-2.62 1.36-2.62 3.32 0 1.94.97 3.3 2.66 3.3 1.67 0 2.6-1.32 2.6-3.28 0-1.95-.97-3.34-2.64-3.34zM291.26 61.7v6.18c0 1.5.62 1.98 1.72 1.98.92 0 1.74-.42 2.22-.88V61.7h2.6v10.08l-2.6.35v-1.5c-.84.9-2.05 1.54-3.34 1.54-1.98 0-3.19-1.32-3.19-3.5V61.7h2.59zM304.26 72.17c-2.27 0-3.45-.99-3.37-3.43l.15-4.78-1.58-.18.07-1.65 1.58-.51.04-2.24h2.51l-.04 2.38h2.86l-.07 2.13h-2.95l-.13 4.69c-.02.95.46 1.39 1.34 1.39.53 0 1.06-.13 1.58-.31l.35 2.11c-.75.27-1.46.4-2.34.4zM313.22 70.5c0-.92.75-1.76 1.87-2.13-1.12-.57-1.85-1.72-1.85-3.12 0-2.09 1.65-3.87 4.47-3.87 1.14 0 2.16.33 2.86.64l2.73-.24.11 2.27-1.94-.33c.26.29.46 1.06.46 1.58 0 2.07-1.74 3.7-4.25 3.7-.48 0-.84-.04-1.39-.18-.35.13-.79.46-.79.88 0 .55.46.79 2.09.79h1.06c2.9 0 4.55.81 4.55 2.79 0 2.4-2.71 4.05-5.92 4.05-2.68 0-4.82-.99-4.82-2.82 0-1.06.77-2 2.29-2.25-.87-.31-1.53-.94-1.53-1.76zm1.6 3.48c0 .95 1.17 1.61 2.88 1.61 1.78 0 3.15-.66 3.15-1.72 0-.95-.92-1.17-2.82-1.17-.64 0-1.52-.04-1.94-.09-.72.27-1.27.75-1.27 1.37zm2.91-6.69c1.17 0 1.83-.84 1.83-2.11 0-1.21-.64-2.05-1.94-2.05-1.14 0-1.87.86-1.87 2.13 0 1.22.72 2.03 1.98 2.03zM327.54 71.84h-2.6V61.76l2.6-.37v1.65c.64-1.08 1.45-1.67 2.64-1.67.62 0 1.25.13 1.8.46l-.57 2.33c-.48-.26-.97-.4-1.45-.4-.9 0-1.74.57-2.42 1.8v6.28zM335.48 67.33c.11 1.65 1.23 2.77 3.04 2.77 1.08 0 2.24-.35 3.17-.92l.33 2.16c-.97.53-2.31.84-3.67.84-3.26 0-5.41-2.07-5.41-5.3 0-3.3 2.2-5.5 5.24-5.5 2.68 0 4.18 1.63 4.18 4.11 0 .55-.09 1.25-.22 1.69l-6.64.09v.06h-.02zm4.42-1.6v-.18c0-1.36-.59-2.22-1.94-2.22-1.43 0-2.29 1.17-2.42 2.42l4.36-.02zM349.93 70.68c-.73.88-1.61 1.5-2.86 1.5-1.83 0-3.15-1.25-3.15-2.86 0-1.87 1.36-3.46 6.01-3.61v-.24c0-1.36-.57-1.94-2.02-1.94-1.03 0-2.29.46-3.37 1.08l-.53-2.05c.99-.62 2.57-1.19 4.25-1.19 3.12 0 4.33 1.39 4.27 4.18v3.63c0 .77.13.88.9.92l-.2 1.96c-1.94.22-2.84-.37-3.21-1.39h-.09v.01zm0-3.61c-2.53.31-3.45.81-3.45 1.89 0 .77.59 1.32 1.52 1.32.81 0 1.47-.37 1.94-.88v-2.33h-.01zM358.89 72.17c-2.27 0-3.45-.99-3.37-3.43l.15-4.78-1.58-.18.07-1.65 1.58-.51.04-2.24h2.51l-.04 2.38h2.86l-.07 2.13h-2.95l-.13 4.69c-.02.95.46 1.39 1.34 1.39.53 0 1.06-.13 1.58-.31l.35 2.11c-.76.27-1.46.4-2.34.4zM365.11 72.17c-1.06 0-1.78-.68-1.78-1.65 0-.97.73-1.61 1.78-1.61 1.01 0 1.72.64 1.72 1.61 0 .97-.7 1.65-1.72 1.65zm-1.56-14.67h3.1l-.64 9.84h-1.8l-.66-9.84zM377.81 64.41l5.19-6.32h3.19l-5.9 6.76 5.98 7H383l-5.19-6.29h-.02v6.29h-2.68V58.1h2.68v6.32h.02v-.01zM393.16 70.68c-.73.88-1.61 1.5-2.86 1.5-1.83 0-3.15-1.25-3.15-2.86 0-1.87 1.36-3.46 6.01-3.61v-.24c0-1.36-.57-1.94-2.02-1.94-1.03 0-2.29.46-3.37 1.08l-.53-2.05c.99-.62 2.57-1.19 4.25-1.19 3.12 0 4.33 1.39 4.27 4.18v3.63c0 .77.13.88.9.92l-.2 1.96c-1.94.22-2.84-.37-3.21-1.39h-.09v.01zm0-3.61c-2.53.31-3.45.81-3.45 1.89 0 .77.59 1.32 1.52 1.32.81 0 1.47-.37 1.94-.88v-2.33h-.01z" transform="translate(-51 -1790) translate(51 1790) translate(123 111)"/>
                    <path d="M403.61 71.65l-.59 1.58c-1.01 2.77-2.16 3.61-4.03 3.61-.92 0-1.76-.22-2.57-.59l.77-2.13c.59.29 1.08.48 1.61.48.75 0 1.14-.33 1.69-1.72l.44-1.17-3.96-10.01h2.79l2.53 7.26 2.42-7.26h2.77l-3.87 9.95zM414.02 66.85c0-5.46 3.48-9.29 6.34-10.74l1.28 1.72c-2.49 1.45-5.21 4.69-5.21 9.02 0 4.31 2.73 7.57 5.21 9.02l-1.25 1.72c-2.9-1.48-6.37-5.28-6.37-10.74zM429.53 57.15l2.6-.35v15.05h-2.6v-.99c-.68.66-1.61 1.32-2.86 1.32-2.68 0-4.42-2.18-4.42-5.32 0-3.23 2.24-5.48 5.13-5.48.73 0 1.52.13 2.16.33v-4.56h-.01zm-1.91 6.29c-1.74 0-2.73 1.43-2.73 3.3 0 1.98.99 3.24 2.55 3.24.86 0 1.52-.31 2.09-.84v-5.1c-.51-.38-1.15-.6-1.91-.6zM436.96 67.33c.11 1.65 1.23 2.77 3.04 2.77 1.08 0 2.24-.35 3.17-.92l.33 2.16c-.97.53-2.31.84-3.67.84-3.26 0-5.41-2.07-5.41-5.3 0-3.3 2.2-5.5 5.24-5.5 2.68 0 4.18 1.63 4.18 4.11 0 .55-.09 1.25-.22 1.69l-6.64.09v.06h-.02zm4.43-1.6v-.18c0-1.36-.59-2.22-1.94-2.22-1.43 0-2.29 1.17-2.42 2.42l4.36-.02zM449.24 72.2c-1.32 0-2.93-.37-3.94-.95l.57-2.02c1.01.57 2.31.95 3.43.95 1.01 0 1.67-.42 1.67-1.12 0-.79-.86-1.08-2.05-1.36-1.91-.44-3.43-1.23-3.43-3.15s1.61-3.17 4.05-3.17c1.25 0 2.75.33 3.7.81l-.57 2.02c-.99-.51-2.29-.84-3.19-.84-.95 0-1.52.35-1.52 1.01 0 .77.86 1.04 2.05 1.32 1.94.46 3.45 1.21 3.45 3.19 0 1.9-1.62 3.31-4.22 3.31zM456.98 59.85c-1.01 0-1.58-.62-1.58-1.56 0-.92.57-1.56 1.58-1.56 1.03 0 1.61.64 1.61 1.56 0 .95-.57 1.56-1.61 1.56zm-1.29 11.99V61.76l2.6-.37v10.45h-2.6zM460.59 70.5c0-.92.75-1.76 1.87-2.13-1.12-.57-1.85-1.72-1.85-3.12 0-2.09 1.65-3.87 4.47-3.87 1.14 0 2.16.33 2.86.64l2.73-.24.11 2.27-1.94-.33c.26.29.46 1.06.46 1.58 0 2.07-1.74 3.7-4.25 3.7-.48 0-.84-.04-1.39-.18-.35.13-.79.46-.79.88 0 .55.46.79 2.09.79h1.06c2.9 0 4.55.81 4.55 2.79 0 2.4-2.71 4.05-5.92 4.05-2.68 0-4.82-.99-4.82-2.82 0-1.06.77-2 2.29-2.25-.87-.31-1.53-.94-1.53-1.76zm1.61 3.48c0 .95 1.17 1.61 2.88 1.61 1.78 0 3.15-.66 3.15-1.72 0-.95-.92-1.17-2.82-1.17-.64 0-1.52-.04-1.94-.09-.72.27-1.27.75-1.27 1.37zm2.9-6.69c1.17 0 1.83-.84 1.83-2.11 0-1.21-.64-2.05-1.94-2.05-1.14 0-1.87.86-1.87 2.13 0 1.22.73 2.03 1.98 2.03zM478.92 71.84v-6.18c0-1.5-.59-2-1.76-2-.9 0-1.74.46-2.24.95v7.24h-2.6v-10.1l2.6-.35v1.61c.9-.99 2.11-1.63 3.34-1.63 2.05 0 3.26 1.32 3.26 3.5v6.97h-2.6v-.01zM7.51 98.68c-.73.88-1.61 1.5-2.86 1.5-1.83 0-3.15-1.25-3.15-2.86 0-1.87 1.36-3.46 6.01-3.61v-.24c0-1.36-.57-1.94-2.02-1.94-1.03 0-2.29.46-3.37 1.08l-.53-2.05c.99-.62 2.57-1.19 4.25-1.19 3.12 0 4.33 1.39 4.27 4.18v3.63c0 .77.13.88.9.92l-.2 1.96c-1.94.22-2.84-.37-3.21-1.39h-.09v.01zm0-3.61c-2.53.31-3.45.81-3.45 1.89 0 .77.59 1.32 1.52 1.32.81 0 1.47-.37 1.94-.88v-2.33h-.01zM19.48 99.84v-6.18c0-1.5-.59-2-1.76-2-.9 0-1.74.46-2.24.95v7.24h-2.6v-10.1l2.6-.35v1.61c.9-.99 2.11-1.63 3.34-1.63 2.05 0 3.26 1.32 3.26 3.5v6.97h-2.6v-.01zM31.58 85.15l2.6-.35v15.05h-2.6v-.99c-.68.66-1.61 1.32-2.86 1.32-2.68 0-4.42-2.18-4.42-5.32 0-3.23 2.24-5.48 5.13-5.48.73 0 1.52.13 2.16.33v-4.56h-.01zm-1.92 6.29c-1.74 0-2.73 1.43-2.73 3.3 0 1.98.99 3.24 2.55 3.24.86 0 1.52-.31 2.09-.84v-5.1c-.5-.38-1.14-.6-1.91-.6zM44.07 99.89L41.06 89.7 43.77 89.7 45.53 96.83 47.55 89.72 50.15 89.72 52.33 96.78 53.85 89.7 56.6 89.7 53.63 99.89 51.08 99.89 48.81 92.76 46.61 99.89zM60.9 99.84h-2.6V89.76l2.6-.37v1.65c.64-1.08 1.45-1.67 2.64-1.67.62 0 1.25.13 1.8.46l-.57 2.33c-.48-.26-.97-.4-1.45-.4-.9 0-1.74.57-2.42 1.8v6.28zM68.32 87.85c-1.01 0-1.58-.62-1.58-1.56 0-.92.57-1.56 1.58-1.56 1.03 0 1.61.64 1.61 1.56-.01.95-.58 1.56-1.61 1.56zm-1.3 11.99V89.76l2.6-.37v10.45h-2.6zM76.08 100.17c-2.27 0-3.45-.99-3.37-3.43l.15-4.78-1.58-.18.07-1.65 1.58-.51.04-2.24h2.51l-.04 2.38h2.86l-.07 2.13h-2.95l-.13 4.69c-.02.95.46 1.39 1.34 1.39.53 0 1.06-.13 1.58-.31l.35 2.11c-.75.27-1.46.4-2.34.4zM81.78 87.85c-1.01 0-1.58-.62-1.58-1.56 0-.92.57-1.56 1.58-1.56 1.03 0 1.61.64 1.61 1.56 0 .95-.58 1.56-1.61 1.56zm-1.3 11.99V89.76l2.6-.37v10.45h-2.6zM92.56 99.84v-6.18c0-1.5-.59-2-1.76-2-.9 0-1.74.46-2.24.95v7.24h-2.6v-10.1l2.6-.35v1.61c.9-.99 2.11-1.63 3.34-1.63 2.05 0 3.26 1.32 3.26 3.5v6.97h-2.6v-.01zM97.4 98.5c0-.92.75-1.76 1.87-2.13-1.12-.57-1.85-1.72-1.85-3.12 0-2.09 1.65-3.87 4.47-3.87 1.14 0 2.16.33 2.86.64l2.73-.24.11 2.27-1.94-.33c.26.29.46 1.06.46 1.58 0 2.07-1.74 3.7-4.25 3.7-.48 0-.84-.04-1.39-.18-.35.13-.79.46-.79.88 0 .55.46.79 2.09.79h1.06c2.9 0 4.55.81 4.55 2.79 0 2.4-2.71 4.05-5.92 4.05-2.68 0-4.82-.99-4.82-2.82 0-1.06.77-2 2.29-2.25-.87-.31-1.53-.94-1.53-1.76zm1.6 3.48c0 .95 1.17 1.61 2.88 1.61 1.78 0 3.15-.66 3.15-1.72 0-.95-.92-1.17-2.82-1.17-.64 0-1.52-.04-1.94-.09-.71.27-1.27.75-1.27 1.37zm2.91-6.69c1.17 0 1.83-.84 1.83-2.11 0-1.21-.64-2.05-1.94-2.05-1.14 0-1.87.86-1.87 2.13 0 1.22.73 2.03 1.98 2.03z" transform="translate(-51 -1790) translate(51 1790) translate(123 111)"/>
                    <path d="M107.45 103.87c2.51-1.45 5.21-4.71 5.21-9.02 0-4.33-2.71-7.57-5.21-9.02l1.3-1.72c2.84 1.45 6.32 5.28 6.32 10.74s-3.48 9.26-6.34 10.74l-1.28-1.72zM128.35 98.68c-.73.88-1.61 1.5-2.86 1.5-1.83 0-3.15-1.25-3.15-2.86 0-1.87 1.36-3.46 6.01-3.61v-.24c0-1.36-.57-1.94-2.02-1.94-1.03 0-2.29.46-3.37 1.08l-.53-2.05c.99-.62 2.57-1.19 4.25-1.19 3.12 0 4.33 1.39 4.27 4.18v3.63c0 .77.13.88.9.92l-.2 1.96c-1.94.22-2.84-.37-3.21-1.39h-.09v.01zm0-3.61c-2.53.31-3.45.81-3.45 1.89 0 .77.59 1.32 1.52 1.32.81 0 1.47-.37 1.94-.88v-2.33h-.01zM140.32 99.84v-6.18c0-1.5-.59-2-1.76-2-.9 0-1.74.46-2.24.95v7.24h-2.6v-10.1l2.6-.35v1.61c.9-.99 2.11-1.63 3.34-1.63 2.05 0 3.26 1.32 3.26 3.5v6.97h-2.6v-.01zM152.42 85.15l2.6-.35v15.05h-2.6v-.99c-.68.66-1.61 1.32-2.86 1.32-2.68 0-4.42-2.18-4.42-5.32 0-3.23 2.24-5.48 5.13-5.48.73 0 1.52.13 2.16.33v-4.56h-.01zm-1.91 6.29c-1.74 0-2.73 1.43-2.73 3.3 0 1.98.99 3.24 2.55 3.24.86 0 1.52-.31 2.09-.84v-5.1c-.5-.38-1.14-.6-1.91-.6zM173.92 95.91c0 2.27-1.36 3.94-5.35 3.94h-5.35V86.1h5.26c3.72 0 5 1.54 5 3.63 0 1.47-.88 2.46-2.46 2.99 1.8.39 2.9 1.56 2.9 3.19zm-5.53-7.66h-2.53v3.74h2.31c1.72 0 2.62-.73 2.62-1.92 0-1.16-.83-1.82-2.4-1.82zm-.06 5.7h-2.46v3.74h2.66c1.8 0 2.68-.64 2.68-1.89 0-1.37-1.19-1.85-2.88-1.85zM178.78 99.84h-2.6V89.76l2.6-.37v1.65c.64-1.08 1.45-1.67 2.64-1.67.62 0 1.25.13 1.8.46l-.57 2.33c-.48-.26-.97-.4-1.45-.4-.9 0-1.74.57-2.42 1.8v6.28zM186.19 87.85c-1.01 0-1.58-.62-1.58-1.56 0-.92.57-1.56 1.58-1.56 1.03 0 1.61.64 1.61 1.56 0 .95-.58 1.56-1.61 1.56zm-1.3 11.99V89.76l2.6-.37v10.45h-2.6zM195.69 98.68c-.73.88-1.61 1.5-2.86 1.5-1.83 0-3.15-1.25-3.15-2.86 0-1.87 1.36-3.46 6.01-3.61v-.24c0-1.36-.57-1.94-2.02-1.94-1.03 0-2.29.46-3.37 1.08l-.53-2.05c.99-.62 2.57-1.19 4.25-1.19 3.12 0 4.33 1.39 4.27 4.18v3.63c0 .77.13.88.9.92l-.2 1.96c-1.94.22-2.84-.37-3.21-1.39h-.09v.01zm0-3.61c-2.53.31-3.45.81-3.45 1.89 0 .77.59 1.32 1.52 1.32.81 0 1.47-.37 1.94-.88v-2.33h-.01zM207.66 99.84v-6.18c0-1.5-.59-2-1.76-2-.9 0-1.74.46-2.24.95v7.24h-2.6v-10.1l2.6-.35v1.61c.9-.99 2.11-1.63 3.34-1.63 2.05 0 3.26 1.32 3.26 3.5v6.97h-2.6v-.01zM218.15 94.85c0-5.46 3.48-9.29 6.34-10.74l1.28 1.72c-2.49 1.45-5.21 4.69-5.21 9.02 0 4.31 2.73 7.57 5.21 9.02l-1.25 1.72c-2.89-1.48-6.37-5.28-6.37-10.74zM233.67 85.15l2.6-.35v15.05h-2.6v-.99c-.68.66-1.61 1.32-2.86 1.32-2.68 0-4.42-2.18-4.42-5.32 0-3.23 2.24-5.48 5.13-5.48.73 0 1.52.13 2.16.33v-4.56h-.01zm-1.92 6.29c-1.74 0-2.73 1.43-2.73 3.3 0 1.98.99 3.24 2.55 3.24.86 0 1.52-.31 2.09-.84v-5.1c-.5-.38-1.14-.6-1.91-.6zM241.1 95.33c.11 1.65 1.23 2.77 3.04 2.77 1.08 0 2.24-.35 3.17-.92l.33 2.16c-.97.53-2.31.84-3.67.84-3.26 0-5.41-2.07-5.41-5.3 0-3.3 2.2-5.5 5.24-5.5 2.68 0 4.18 1.63 4.18 4.11 0 .55-.09 1.25-.22 1.69l-6.64.09v.06h-.02zm4.42-1.6v-.18c0-1.36-.59-2.22-1.94-2.22-1.43 0-2.29 1.17-2.42 2.42l4.36-.02zM255.58 99.87L252.81 99.87 248.94 89.7 251.71 89.7 254.26 97.11 256.7 89.7 259.49 89.7zM262.81 95.33c.11 1.65 1.23 2.77 3.04 2.77 1.08 0 2.24-.35 3.17-.92l.33 2.16c-.97.53-2.31.84-3.67.84-3.26 0-5.41-2.07-5.41-5.3 0-3.3 2.2-5.5 5.24-5.5 2.68 0 4.18 1.63 4.18 4.11 0 .55-.09 1.25-.22 1.69l-6.64.09v.06h-.02zm4.43-1.6v-.18c0-1.36-.59-2.22-1.94-2.22-1.43 0-2.29 1.17-2.42 2.42l4.36-.02zM271.94 99.84L271.94 85.14 274.54 84.79 274.54 99.84zM281.95 100.17c-2.97 0-5.13-2.02-5.13-5.39 0-3.34 2.27-5.43 5.26-5.43 2.99 0 5.13 2.07 5.13 5.41 0 3.32-2.29 5.41-5.26 5.41zm.05-8.73c-1.69 0-2.62 1.36-2.62 3.32 0 1.94.97 3.3 2.66 3.3 1.67 0 2.6-1.32 2.6-3.28 0-1.95-.97-3.34-2.64-3.34zM294.93 89.37c2.68 0 4.44 2.18 4.44 5.3 0 3.23-2.24 5.48-5.13 5.48-.66 0-1.52-.09-2.16-.29v4.82h-2.6V89.74l2.6-.35v1.28c.7-.66 1.62-1.3 2.85-1.3zm-2.84 8.14c.48.37 1.14.57 1.91.57 1.74 0 2.73-1.41 2.73-3.3 0-1.98-.95-3.23-2.55-3.23-.86 0-1.52.33-2.09.84v5.12zM303.62 95.33c.11 1.65 1.23 2.77 3.04 2.77 1.08 0 2.24-.35 3.17-.92l.33 2.16c-.97.53-2.31.84-3.67.84-3.26 0-5.41-2.07-5.41-5.3 0-3.3 2.2-5.5 5.24-5.5 2.68 0 4.18 1.63 4.18 4.11 0 .55-.09 1.25-.22 1.69l-6.64.09v.06h-.02zm4.43-1.6v-.18c0-1.36-.59-2.22-1.94-2.22-1.43 0-2.29 1.17-2.42 2.42l4.36-.02zM315.35 99.84h-2.6V89.76l2.6-.37v1.65c.64-1.08 1.45-1.67 2.64-1.67.62 0 1.25.13 1.8.46l-.57 2.33c-.48-.26-.97-.4-1.45-.4-.9 0-1.74.57-2.42 1.8v6.28zM319.79 103.87c2.51-1.45 5.21-4.71 5.21-9.02 0-4.33-2.71-7.57-5.21-9.02l1.3-1.72c2.84 1.45 6.32 5.28 6.32 10.74s-3.48 9.26-6.34 10.74l-1.28-1.72zM341.97 99.84v-6.18c0-1.5-.59-2-1.69-2-.97 0-1.8.46-2.31.95v7.24h-2.6v-14.7l2.6-.35v6.18c.9-.99 2.11-1.61 3.43-1.61 1.96 0 3.17 1.32 3.17 3.5v6.97h-2.6zM352.7 98.68c-.73.88-1.61 1.5-2.86 1.5-1.83 0-3.15-1.25-3.15-2.86 0-1.87 1.36-3.46 6.01-3.61v-.24c0-1.36-.57-1.94-2.02-1.94-1.03 0-2.29.46-3.37 1.08l-.53-2.05c.99-.62 2.57-1.19 4.25-1.19 3.12 0 4.33 1.39 4.27 4.18v3.63c0 .77.13.88.9.92l-.2 1.96c-1.94.22-2.84-.37-3.21-1.39h-.09v.01zm0-3.61c-2.53.31-3.45.81-3.45 1.89 0 .77.59 1.32 1.52 1.32.81 0 1.47-.37 1.94-.88v-2.33h-.01zM363.09 99.87L360.32 99.87 356.45 89.7 359.22 89.7 361.77 97.11 364.21 89.7 367 89.7zM370.32 95.33c.11 1.65 1.23 2.77 3.04 2.77 1.08 0 2.24-.35 3.17-.92l.33 2.16c-.97.53-2.31.84-3.67.84-3.26 0-5.41-2.07-5.41-5.3 0-3.3 2.2-5.5 5.24-5.5 2.68 0 4.18 1.63 4.18 4.11 0 .55-.09 1.25-.22 1.69l-6.64.09v.06h-.02zm4.43-1.6v-.18c0-1.36-.59-2.22-1.94-2.22-1.43 0-2.29 1.17-2.42 2.42l4.36-.02zM389.33 100.15c-.66 0-1.61-.13-2.27-.35l-2.49.37V85.14l2.6-.35v5.88c.68-.66 1.61-1.3 2.84-1.3 2.68 0 4.44 2.18 4.44 5.3.01 3.24-2.24 5.48-5.12 5.48zm-.06-8.6c-.86 0-1.52.33-2.09.84v5.13c.48.37 1.14.57 1.91.57 1.74 0 2.73-1.41 2.73-3.3 0-1.99-.95-3.24-2.55-3.24zM398.64 95.33c.11 1.65 1.23 2.77 3.04 2.77 1.08 0 2.24-.35 3.17-.92l.33 2.16c-.97.53-2.31.84-3.67.84-3.26 0-5.41-2.07-5.41-5.3 0-3.3 2.2-5.5 5.24-5.5 2.68 0 4.18 1.63 4.18 4.11 0 .55-.09 1.25-.22 1.69l-6.64.09v.06h-.02zm4.42-1.6v-.18c0-1.36-.59-2.22-1.94-2.22-1.43 0-2.29 1.17-2.42 2.42l4.36-.02zM409.73 95.33c.11 1.65 1.23 2.77 3.04 2.77 1.08 0 2.24-.35 3.17-.92l.33 2.16c-.97.53-2.31.84-3.67.84-3.26 0-5.41-2.07-5.41-5.3 0-3.3 2.2-5.5 5.24-5.5 2.68 0 4.18 1.63 4.18 4.11 0 .55-.09 1.25-.22 1.69l-6.64.09v.06h-.02zm4.42-1.6v-.18c0-1.36-.59-2.22-1.94-2.22-1.43 0-2.29 1.17-2.42 2.42l4.36-.02zM425.46 99.84v-6.18c0-1.5-.59-2-1.76-2-.9 0-1.74.46-2.24.95v7.24h-2.6v-10.1l2.6-.35v1.61c.9-.99 2.11-1.63 3.34-1.63 2.05 0 3.26 1.32 3.26 3.5v6.97h-2.6v-.01zM441.23 99.87L438.46 99.87 434.59 89.7 437.36 89.7 439.91 97.11 442.35 89.7 445.14 89.7zM448.47 95.33c.11 1.65 1.23 2.77 3.04 2.77 1.08 0 2.24-.35 3.17-.92l.33 2.16c-.97.53-2.31.84-3.67.84-3.26 0-5.41-2.07-5.41-5.3 0-3.3 2.2-5.5 5.24-5.5 2.68 0 4.18 1.63 4.18 4.11 0 .55-.09 1.25-.22 1.69l-6.64.09v.06h-.02zm4.42-1.6v-.18c0-1.36-.59-2.22-1.94-2.22-1.43 0-2.29 1.17-2.42 2.42l4.36-.02zM460.19 99.84h-2.6V89.76l2.6-.37v1.65c.64-1.08 1.45-1.67 2.64-1.67.62 0 1.25.13 1.8.46l-.57 2.33c-.48-.26-.97-.4-1.45-.4-.9 0-1.74.57-2.42 1.8v6.28zM471.67 99.65l-.59 1.58c-1.01 2.77-2.16 3.61-4.03 3.61-.92 0-1.76-.22-2.57-.59l.77-2.13c.59.29 1.08.48 1.61.48.75 0 1.14-.33 1.69-1.72l.44-1.17-3.96-10.01h2.79l2.53 7.26 2.42-7.26h2.77l-3.87 9.95zM7.62 117.37c2.68 0 4.44 2.18 4.44 5.3 0 3.23-2.24 5.48-5.13 5.48-.66 0-1.52-.09-2.16-.29v4.82h-2.6v-14.94l2.6-.35v1.28c.69-.66 1.62-1.3 2.85-1.3zm-2.84 8.14c.48.37 1.14.57 1.91.57 1.74 0 2.73-1.41 2.73-3.3 0-1.98-.95-3.23-2.55-3.23-.86 0-1.52.33-2.09.84v5.12zM16.84 127.84h-2.6v-10.08l2.6-.37v1.65c.64-1.08 1.45-1.67 2.64-1.67.62 0 1.25.13 1.8.46l-.57 2.33c-.48-.26-.97-.4-1.45-.4-.9 0-1.74.57-2.42 1.8v6.28zM27.27 128.17c-2.97 0-5.13-2.02-5.13-5.39 0-3.34 2.27-5.43 5.26-5.43 2.99 0 5.13 2.07 5.13 5.41 0 3.32-2.29 5.41-5.26 5.41zm.04-8.73c-1.69 0-2.62 1.36-2.62 3.32 0 1.94.97 3.3 2.66 3.3 1.67 0 2.6-1.32 2.6-3.28 0-1.95-.97-3.34-2.64-3.34zM40.69 115.26c-.48-.22-1.06-.42-1.65-.42-.95 0-1.34.55-1.34 1.8v1.12h3.01l-.07 2.13h-2.88v7.94h-2.6v-7.92l-1.76-.13.09-1.65 1.65-.48.02-1.08c.07-2.9 1.41-4.05 3.67-4.05.99 0 1.89.29 2.4.51.01.03-.54 2.25-.54 2.23zM44.27 123.33c.11 1.65 1.23 2.77 3.04 2.77 1.08 0 2.24-.35 3.17-.92l.33 2.16c-.97.53-2.31.84-3.67.84-3.26 0-5.41-2.07-5.41-5.3 0-3.3 2.2-5.5 5.24-5.5 2.68 0 4.18 1.63 4.18 4.11 0 .55-.09 1.25-.22 1.69l-6.64.09v.06h-.02zm4.42-1.6v-.18c0-1.36-.59-2.22-1.94-2.22-1.43 0-2.29 1.17-2.42 2.42l4.36-.02zM56.44 128.2c-1.32 0-2.93-.37-3.94-.95l.57-2.02c1.01.57 2.31.95 3.43.95 1.01 0 1.67-.42 1.67-1.12 0-.79-.86-1.08-2.05-1.36-1.91-.44-3.43-1.23-3.43-3.15s1.61-3.17 4.05-3.17c1.25 0 2.75.33 3.7.81l-.57 2.02c-.99-.51-2.29-.84-3.19-.84-.95 0-1.52.35-1.52 1.01 0 .77.86 1.04 2.05 1.32 1.94.46 3.45 1.21 3.45 3.19 0 1.9-1.63 3.31-4.22 3.31zM65.92 128.2c-1.32 0-2.93-.37-3.94-.95l.57-2.02c1.01.57 2.31.95 3.43.95 1.01 0 1.67-.42 1.67-1.12 0-.79-.86-1.08-2.05-1.36-1.91-.44-3.43-1.23-3.43-3.15s1.61-3.17 4.05-3.17c1.25 0 2.75.33 3.7.81l-.57 2.02c-.99-.51-2.29-.84-3.19-.84-.95 0-1.52.35-1.52 1.01 0 .77.86 1.04 2.05 1.32 1.94.46 3.45 1.21 3.45 3.19 0 1.9-1.62 3.31-4.22 3.31zM73.55 115.85c-1.01 0-1.58-.62-1.58-1.56 0-.92.57-1.56 1.58-1.56 1.03 0 1.61.64 1.61 1.56 0 .95-.57 1.56-1.61 1.56zm-1.3 11.99v-10.08l2.6-.37v10.45h-2.6zM82.16 128.17c-2.97 0-5.13-2.02-5.13-5.39 0-3.34 2.27-5.43 5.26-5.43 2.99 0 5.13 2.07 5.13 5.41 0 3.32-2.29 5.41-5.26 5.41zm.04-8.73c-1.69 0-2.62 1.36-2.62 3.32 0 1.94.97 3.3 2.66 3.3 1.67 0 2.6-1.32 2.6-3.28 0-1.95-.97-3.34-2.64-3.34zM96.19 127.84v-6.18c0-1.5-.59-2-1.76-2-.9 0-1.74.46-2.24.95v7.24h-2.6v-10.1l2.6-.35v1.61c.9-.99 2.11-1.63 3.34-1.63 2.05 0 3.26 1.32 3.26 3.5v6.97h-2.6v-.01zM106.82 126.68c-.73.88-1.61 1.5-2.86 1.5-1.83 0-3.15-1.25-3.15-2.86 0-1.87 1.36-3.46 6.01-3.61v-.24c0-1.36-.57-1.94-2.02-1.94-1.03 0-2.29.46-3.37 1.08l-.53-2.05c.99-.62 2.57-1.19 4.25-1.19 3.12 0 4.33 1.39 4.27 4.18v3.63c0 .77.13.88.9.92l-.2 1.96c-1.94.22-2.84-.37-3.21-1.39h-.09v.01zm0-3.61c-2.53.31-3.45.81-3.45 1.89 0 .77.59 1.32 1.52 1.32.81 0 1.47-.37 1.94-.88v-2.33h-.01zM112.07 127.84L112.07 113.14 114.67 112.79 114.67 127.84zM127.78 126.68c-.73.88-1.61 1.5-2.86 1.5-1.83 0-3.15-1.25-3.15-2.86 0-1.87 1.36-3.46 6.01-3.61v-.24c0-1.36-.57-1.94-2.02-1.94-1.03 0-2.29.46-3.37 1.08l-.53-2.05c.99-.62 2.57-1.19 4.25-1.19 3.12 0 4.33 1.39 4.27 4.18v3.63c0 .77.13.88.9.92l-.2 1.96c-1.94.22-2.84-.37-3.21-1.39h-.09v.01zm0-3.61c-2.53.31-3.45.81-3.45 1.89 0 .77.59 1.32 1.52 1.32.81 0 1.47-.37 1.94-.88v-2.33h-.01zM139.64 127.84v-6.18c0-1.5-.59-2-1.76-2-.9 0-1.74.46-2.24.95v7.24h-2.6v-10.1l2.6-.35v1.61c.9-.99 2.11-1.63 3.34-1.63 2.05 0 3.26 1.32 3.26 3.5v6.97h-2.6v-.01zM151.63 113.15l2.6-.35v15.05h-2.6v-.99c-.68.66-1.61 1.32-2.86 1.32-2.68 0-4.42-2.18-4.42-5.32 0-3.23 2.24-5.48 5.13-5.48.73 0 1.52.13 2.16.33v-4.56h-.01zm-1.91 6.29c-1.74 0-2.73 1.43-2.73 3.3 0 1.98.99 3.24 2.55 3.24.86 0 1.52-.31 2.09-.84v-5.1c-.51-.38-1.14-.6-1.91-.6zM163.97 123.33c.11 1.65 1.23 2.77 3.04 2.77 1.08 0 2.24-.35 3.17-.92l.33 2.16c-.97.53-2.31.84-3.67.84-3.26 0-5.41-2.07-5.41-5.3 0-3.3 2.2-5.5 5.24-5.5 2.68 0 4.18 1.63 4.18 4.11 0 .55-.09 1.25-.22 1.69l-6.64.09v.06h-.02zm4.42-1.6v-.18c0-1.36-.59-2.22-1.94-2.22-1.43 0-2.29 1.17-2.42 2.42l4.36-.02zM178.32 126.68c-.73.88-1.61 1.5-2.86 1.5-1.83 0-3.15-1.25-3.15-2.86 0-1.87 1.36-3.46 6.01-3.61v-.24c0-1.36-.57-1.94-2.02-1.94-1.03 0-2.29.46-3.37 1.08l-.53-2.05c.99-.62 2.57-1.19 4.25-1.19 3.12 0 4.33 1.39 4.27 4.18v3.63c0 .77.13.88.9.92l-.2 1.96c-1.94.22-2.84-.37-3.21-1.39h-.09v.01zm0-3.61c-2.53.31-3.45.81-3.45 1.89 0 .77.59 1.32 1.52 1.32.81 0 1.47-.37 1.94-.88v-2.33h-.01zM186.72 128.2c-1.32 0-2.93-.37-3.94-.95l.57-2.02c1.01.57 2.31.95 3.43.95 1.01 0 1.67-.42 1.67-1.12 0-.79-.86-1.08-2.05-1.36-1.91-.44-3.43-1.23-3.43-3.15s1.61-3.17 4.05-3.17c1.25 0 2.75.33 3.7.81l-.57 2.02c-.99-.51-2.29-.84-3.19-.84-.95 0-1.52.35-1.52 1.01 0 .77.86 1.04 2.05 1.32 1.94.46 3.45 1.21 3.45 3.19 0 1.9-1.62 3.31-4.22 3.31zM198.27 127.65l-.59 1.58c-1.01 2.77-2.16 3.61-4.03 3.61-.92 0-1.76-.22-2.57-.59l.77-2.13c.59.29 1.08.48 1.61.48.75 0 1.14-.33 1.69-1.72l.44-1.17-3.96-10.01h2.79l2.53 7.26 2.42-7.26h2.77l-3.87 9.95zM212.08 128.17c-2.27 0-3.45-.99-3.37-3.43l.15-4.78-1.58-.18.07-1.65 1.58-.51.04-2.24h2.51l-.04 2.38h2.86l-.07 2.13h-2.95l-.13 4.69c-.02.95.46 1.39 1.34 1.39.53 0 1.06-.13 1.58-.31l.35 2.11c-.75.27-1.46.4-2.34.4zM220.8 128.17c-2.97 0-5.13-2.02-5.13-5.39 0-3.34 2.27-5.43 5.26-5.43 2.99 0 5.13 2.07 5.13 5.41 0 3.32-2.29 5.41-5.26 5.41zm.04-8.73c-1.69 0-2.62 1.36-2.62 3.32 0 1.94.97 3.3 2.66 3.3 1.67 0 2.6-1.32 2.6-3.28 0-1.95-.97-3.34-2.64-3.34zM235.14 127.89L232.13 117.7 234.84 117.7 236.6 124.83 238.62 117.72 241.22 117.72 243.4 124.78 244.92 117.7 247.67 117.7 244.7 127.89 242.15 127.89 239.88 120.76 237.68 127.89zM253.86 128.17c-2.97 0-5.13-2.02-5.13-5.39 0-3.34 2.27-5.43 5.26-5.43 2.99 0 5.13 2.07 5.13 5.41 0 3.32-2.29 5.41-5.26 5.41zm.05-8.73c-1.69 0-2.62 1.36-2.62 3.32 0 1.94.97 3.3 2.66 3.3 1.67 0 2.6-1.32 2.6-3.28 0-1.95-.97-3.34-2.64-3.34zM263.89 127.84h-2.6v-10.08l2.6-.37v1.65c.64-1.08 1.45-1.67 2.64-1.67.62 0 1.25.13 1.8.46l-.57 2.33c-.48-.26-.97-.4-1.45-.4-.9 0-1.74.57-2.42 1.8v6.28zM272.5 122.96L272.5 127.84 269.9 127.84 269.9 113.14 272.5 112.79 272.5 122.21 272.54 122.21 276.17 117.7 279.27 117.7 275.07 122.52 279.29 127.84 276.19 127.84 272.54 122.96zM287.67 127.89L284.66 117.7 287.37 117.7 289.13 124.83 291.15 117.72 293.75 117.72 295.93 124.78 297.45 117.7 300.2 117.7 297.23 127.89 294.68 127.89 292.41 120.76 290.21 127.89zM303.1 115.85c-1.01 0-1.58-.62-1.58-1.56 0-.92.57-1.56 1.58-1.56 1.03 0 1.61.64 1.61 1.56-.01.95-.58 1.56-1.61 1.56zm-1.3 11.99v-10.08l2.6-.37v10.45h-2.6zM310.75 128.17c-2.27 0-3.45-.99-3.37-3.43l.15-4.78-1.58-.18.07-1.65 1.58-.51.04-2.24h2.51l-.04 2.38h2.86l-.07 2.13h-2.95l-.13 4.69c-.02.95.46 1.39 1.34 1.39.53 0 1.06-.13 1.58-.31l.35 2.11c-.75.27-1.46.4-2.34.4zM321.64 127.84v-6.18c0-1.5-.59-2-1.69-2-.97 0-1.8.46-2.31.95v7.24h-2.6v-14.7l2.6-.35v6.18c.9-.99 2.11-1.61 3.43-1.61 1.96 0 3.17 1.32 3.17 3.5v6.97h-2.6zM328.33 128.17c-1.03 0-1.76-.75-1.76-1.72s.73-1.69 1.76-1.69c1.01 0 1.72.73 1.72 1.69s-.71 1.72-1.72 1.72zM5.77 175.84H2.1v-11.25h3.82c3.83 0 6.07 2.2 6.07 5.55-.01 3.47-2.22 5.7-6.22 5.7zm.02-9.39H4.3v7.54h1.6c2.38 0 3.89-1.24 3.89-3.75-.01-2.53-1.43-3.79-4-3.79zM12.95 175.84L12.95 174.33 18.95 166.5 13.06 166.5 13.06 164.59 21.7 164.59 21.7 166.14 15.72 173.94 21.68 173.94 21.68 175.85 12.95 175.85zM24.54 173.21c1.01 0 1.84.88 1.84 1.98 0 1.57-1.4 2.72-2.84 3.58l-.94-.85c1.13-.79 1.82-1.48 1.82-2.09 0-.47-.34-.79-1.46-1.28.09-.76.7-1.34 1.58-1.34zM37.5 176.11c-3.33 0-5.78-2.18-5.78-5.87 0-3.47 2.47-5.92 5.8-5.92 3.31 0 5.76 2.16 5.76 5.85 0 3.48-2.45 5.94-5.78 5.94zm-.03-9.95c-2.14 0-3.53 1.62-3.53 4.01 0 2.47 1.4 4.11 3.6 4.11 2.14 0 3.55-1.64 3.55-4.03 0-2.47-1.43-4.09-3.62-4.09zM46.72 175.88L44.25 167.54 46.46 167.54 47.9 173.37 49.56 167.55 51.68 167.55 53.46 173.33 54.7 167.53 56.95 167.53 54.52 175.87 52.43 175.87 50.58 170.04 48.78 175.87 46.72 175.87zM63.67 175.84v-5.06c0-1.22-.49-1.64-1.44-1.64-.74 0-1.42.38-1.84.77v5.92h-2.12v-8.26l2.12-.29v1.31c.74-.81 1.73-1.33 2.74-1.33 1.67 0 2.66 1.08 2.66 2.86v5.71h-2.12v.01zM69.61 172.15c.09 1.35 1.01 2.27 2.48 2.27.88 0 1.84-.29 2.59-.76l.27 1.76c-.79.43-1.89.68-3.01.68-2.66 0-4.43-1.69-4.43-4.34 0-2.7 1.8-4.5 4.29-4.5 2.2 0 3.42 1.33 3.42 3.37 0 .45-.07 1.03-.18 1.39l-5.44.07v.06h.01zm3.62-1.31v-.14c0-1.12-.49-1.82-1.58-1.82-1.17 0-1.87.95-1.98 1.98l3.56-.02zM79.12 175.84H77v-8.25l2.12-.31v1.35c.52-.88 1.19-1.37 2.16-1.37.5 0 1.03.11 1.48.38l-.47 1.91c-.4-.22-.79-.32-1.19-.32-.74 0-1.42.47-1.98 1.48v5.13zM1.29 195.84L1.29 194.33 7.29 186.5 1.4 186.5 1.4 184.59 10.04 184.59 10.04 186.14 4.06 193.94 10.02 193.94 10.02 195.85 1.29 195.85zM12.91 186.03c-.83 0-1.3-.5-1.3-1.28 0-.76.47-1.28 1.3-1.28.85 0 1.31.52 1.31 1.28.01.78-.46 1.28-1.31 1.28zm-1.06 9.81v-8.25l2.12-.31v8.55h-2.12v.01zM26.67 195.84v-5.04c0-1.22-.49-1.66-1.37-1.66-.74 0-1.31.38-1.73.74v5.96h-2.12v-5.04c0-1.22-.47-1.66-1.35-1.66-.76 0-1.33.31-1.73.68v6.01h-2.12v-8.26l2.12-.29v1.17c.77-.77 1.62-1.19 2.65-1.19 1.01 0 1.85.49 2.27 1.42.83-.9 1.82-1.42 2.95-1.42 1.57 0 2.56 1.08 2.56 2.88v5.69h-2.13v.01zM41.41 195.84v-5.04c0-1.22-.49-1.66-1.37-1.66-.74 0-1.31.38-1.73.74v5.96h-2.12v-5.04c0-1.22-.47-1.66-1.35-1.66-.76 0-1.33.31-1.73.68v6.01h-2.12v-8.26l2.12-.29v1.17c.77-.77 1.62-1.19 2.65-1.19 1.01 0 1.85.49 2.27 1.42.83-.9 1.82-1.42 2.95-1.42 1.57 0 2.56 1.08 2.56 2.88v5.69h-2.13v.01zM46.75 183.82c1.01 0 1.84.88 1.84 1.96 0 1.58-1.4 2.74-2.84 3.6l-.94-.85c1.13-.79 1.82-1.48 1.82-2.09 0-.47-.34-.79-1.46-1.28.09-.77.7-1.34 1.58-1.34zM52.32 196.13c-1.08 0-2.39-.31-3.22-.78l.47-1.66c.83.47 1.89.77 2.81.77.83 0 1.37-.34 1.37-.92 0-.65-.7-.88-1.67-1.12-1.57-.36-2.81-1.01-2.81-2.58s1.31-2.59 3.31-2.59c1.03 0 2.25.27 3.03.67l-.47 1.66c-.81-.41-1.87-.68-2.61-.68-.77 0-1.24.29-1.24.83 0 .63.7.85 1.67 1.08 1.58.38 2.83.99 2.83 2.61-.02 1.56-1.35 2.71-3.47 2.71zM70.05 187.11c-.9-.59-1.87-.9-2.95-.9-2.2 0-3.66 1.51-3.66 3.96 0 2.49 1.42 4.05 3.69 4.05 1.15 0 2.25-.43 3.08-1.01l.41 2.02c-.9.54-2.3.88-3.58.88-3.46 0-5.82-2.18-5.82-5.87 0-3.6 2.36-5.92 5.87-5.92 1.31 0 2.67.34 3.64.88l-.68 1.91zM73.86 192.15c.09 1.35 1.01 2.27 2.49 2.27.88 0 1.84-.29 2.59-.76l.27 1.76c-.79.43-1.89.68-3.01.68-2.66 0-4.43-1.69-4.43-4.34 0-2.7 1.8-4.5 4.29-4.5 2.2 0 3.42 1.33 3.42 3.37 0 .45-.07 1.03-.18 1.39l-5.44.07v.06zm3.62-1.31v-.14c0-1.12-.49-1.82-1.58-1.82-1.17 0-1.87.95-1.98 1.98l3.56-.02zM86.64 195.84v-5.06c0-1.22-.49-1.64-1.44-1.64-.74 0-1.42.38-1.84.77v5.92h-2.12v-8.26l2.12-.29v1.31c.74-.81 1.73-1.33 2.74-1.33 1.67 0 2.66 1.08 2.66 2.86v5.71h-2.12v.01zM93.91 196.11c-1.85 0-2.83-.81-2.75-2.81l.13-3.91-1.3-.14.05-1.35 1.3-.41.04-1.84h2.05l-.04 1.94h2.34l-.05 1.75h-2.41l-.11 3.84c-.02.77.38 1.13 1.1 1.13.43 0 .86-.11 1.3-.25l.29 1.73c-.64.22-1.22.32-1.94.32zM99.55 195.84h-2.12v-8.25l2.12-.31v1.35c.52-.88 1.19-1.37 2.16-1.37.5 0 1.03.11 1.48.38l-.47 1.91c-.4-.22-.79-.32-1.19-.32-.74 0-1.42.47-1.98 1.48v5.13zM108.71 194.89c-.59.72-1.31 1.22-2.34 1.22-1.5 0-2.58-1.03-2.58-2.34 0-1.53 1.12-2.83 4.92-2.95v-.2c0-1.12-.47-1.58-1.66-1.58-.85 0-1.87.38-2.75.88l-.43-1.67c.81-.5 2.11-.97 3.47-.97 2.56 0 3.55 1.13 3.49 3.42v2.97c0 .63.11.72.74.76l-.16 1.6c-1.58.18-2.32-.31-2.63-1.13h-.07v-.01zm0-2.95c-2.07.25-2.83.67-2.83 1.55 0 .63.49 1.08 1.24 1.08.67 0 1.21-.31 1.58-.72v-1.91h.01zM113.01 195.84L113.01 183.81 115.13 183.52 115.13 195.84zM127.07 195.84L124.4 195.84 120.4 184.59 122.67 184.59 125.75 193.63 128.83 184.59 131.1 184.59zM136.27 194.89c-.59.72-1.31 1.22-2.34 1.22-1.5 0-2.58-1.03-2.58-2.34 0-1.53 1.12-2.83 4.92-2.95v-.2c0-1.12-.47-1.58-1.66-1.58-.85 0-1.87.38-2.75.88l-.43-1.67c.81-.5 2.11-.97 3.47-.97 2.56 0 3.55 1.13 3.49 3.42v2.97c0 .63.11.72.74.76l-.16 1.6c-1.58.18-2.32-.31-2.63-1.13h-.07v-.01zm0-2.95c-2.07.25-2.83.67-2.83 1.55 0 .63.49 1.08 1.24 1.08.67 0 1.21-.31 1.58-.72v-1.91h.01zM144.38 196.11c-2.7 0-4.3-1.67-4.3-4.39 0-2.7 1.76-4.45 4.38-4.45 1.13 0 2.11.25 2.86.7l-.45 1.71c-.68-.43-1.48-.67-2.25-.67-1.53 0-2.36 1.04-2.36 2.65 0 1.69.95 2.68 2.36 2.68.86 0 1.66-.23 2.3-.65l.34 1.73c-.72.44-1.76.69-2.88.69zM151.08 187.54v5.06c0 1.22.5 1.62 1.41 1.62.76 0 1.42-.34 1.82-.72v-5.96h2.12v8.25l-2.12.29v-1.22c-.68.74-1.67 1.26-2.74 1.26-1.62 0-2.61-1.08-2.61-2.86v-5.71h2.12v-.01zM160.75 187.54v5.06c0 1.22.5 1.62 1.41 1.62.76 0 1.42-.34 1.82-.72v-5.96h2.12v8.25l-2.12.29v-1.22c-.68.74-1.67 1.26-2.74 1.26-1.62 0-2.61-1.08-2.61-2.86v-5.71h2.12v-.01zM178.78 195.84v-5.04c0-1.22-.49-1.66-1.37-1.66-.74 0-1.31.38-1.73.74v5.96h-2.12v-5.04c0-1.22-.47-1.66-1.35-1.66-.76 0-1.33.31-1.73.68v6.01h-2.12v-8.26l2.12-.29v1.17c.77-.77 1.62-1.19 2.65-1.19 1.01 0 1.85.49 2.27 1.42.83-.9 1.82-1.42 2.95-1.42 1.57 0 2.56 1.08 2.56 2.88v5.69h-2.13v.01z" transform="translate(-51 -1790) translate(51 1790) translate(123 111)"/>
                </g>
                <path fill="#FFF" d="M603.63 298.92c9.6-3.6 21.8-13.2 21.8-23.2 0-7-7-8-13.8-9.2-9.2-1.6-13.2-8-13.2-14.2 0-7 5.4-13.4 14.6-13.4 10.4 0 21.8 8.2 21.8 25 0 21.6-17.2 32.4-30.8 36.2l-.4-1.2zm42.6 0c9.6-3.6 21.8-13.2 21.8-23.2 0-7-6.8-8-13.6-9.2-9.4-1.6-13.4-8-13.4-14.2 0-7 5.4-13.4 14.6-13.4 10.4 0 21.8 8.2 21.8 25 0 21.6-17.2 32.4-30.8 36.2l-.4-1.2z" transform="translate(-51 -1790) translate(51 1790)"/>
            </g>
        </g>
    </g>
</svg>
