<svg xmlns="http://www.w3.org/2000/svg" width="750" height="414" viewBox="0 0 750 414">
    <g fill="none" fill-rule="evenodd">
        <g fill-rule="nonzero">
            <g>
                <path fill="#97C459" d="M0 0H750V414H0z" transform="translate(-51 -5923) translate(51 5923)"/>
                <path fill="#FFF" d="M90.75 39.47c-9.6 3.6-21.8 13.2-21.8 23.2 0 7 7 8.2 13.8 9.2 9.2 1.6 13.2 8.2 13.2 14.2 0 7-5.2 13.4-14.4 13.4-10.6 0-21.8-8.2-21.8-25 0-21.6 17-32.4 30.6-36.2l.4 1.2zm42.8 0c-9.6 3.6-21.8 13.2-21.8 23.2 0 7 6.8 8.2 13.6 9.2 9.4 1.6 13.4 8.2 13.4 14.2 0 7-5.4 13.4-14.6 13.4-10.4 0-21.8-8.2-21.8-25 0-21.6 17.2-32.4 30.8-36.2l.4 1.2zM600.63 324.92c9.6-3.6 21.8-13.2 21.8-23.2 0-7-7-8-13.8-9.2-9.2-1.6-13.2-8-13.2-14.2 0-7 5.4-13.4 14.6-13.4 10.4 0 21.8 8.2 21.8 25 0 21.6-17.2 32.4-30.8 36.2l-.4-1.2zm42.6 0c9.6-3.6 21.8-13.2 21.8-23.2 0-7-6.8-8-13.6-9.2-9.4-1.6-13.4-8-13.4-14.2 0-7 5.4-13.4 14.6-13.4 10.4 0 21.8 8.2 21.8 25 0 21.6-17.2 32.4-30.8 36.2l-.4-1.2z" transform="translate(-51 -5923) translate(51 5923)"/>
                <g fill="#FFF">
                    <path d="M2.43 15.84L2.43 2.09 5.09 2.09 5.09 15.84zM6.7 7.09L9.23 1.66 11.54 2.45 8.17 7.09 6.7 7.09zM17.52 15.87L14.75 15.87 10.88 5.7 13.65 5.7 16.2 13.12 18.64 5.7 21.43 5.7zM24.65 11.33c.11 1.65 1.23 2.77 3.04 2.77 1.08 0 2.24-.35 3.17-.92l.33 2.16c-.97.53-2.31.84-3.67.84-3.26 0-5.41-2.07-5.41-5.3 0-3.3 2.2-5.5 5.24-5.5 2.68 0 4.18 1.63 4.18 4.11 0 .55-.09 1.25-.22 1.69l-6.64.09v.06h-.02zm4.42-1.6v-.18c0-1.36-.59-2.22-1.94-2.22-1.43 0-2.29 1.17-2.42 2.42l4.36-.02zM45.28 15.84V9.66c0-1.5-.59-2-1.69-2-.97 0-1.8.46-2.31.95v7.24h-2.6V1.15l2.6-.35v6.18c.9-.99 2.11-1.61 3.43-1.61 1.96 0 3.17 1.32 3.17 3.5v6.98h-2.6v-.01zM55.91 14.68c-.73.88-1.61 1.5-2.86 1.5-1.83 0-3.15-1.25-3.15-2.86 0-1.87 1.36-3.45 6.01-3.61v-.24c0-1.36-.57-1.94-2.02-1.94-1.03 0-2.29.46-3.37 1.08l-.53-2.05c.99-.62 2.57-1.19 4.25-1.19 3.12 0 4.33 1.39 4.27 4.18v3.63c0 .77.13.88.9.92l-.2 1.96c-1.94.22-2.84-.37-3.21-1.39h-.09v.01zm0-3.61c-2.53.31-3.45.81-3.45 1.89 0 .77.59 1.32 1.52 1.32.81 0 1.47-.37 1.94-.88v-2.33h-.01zM67.86 1.15l2.6-.35v15.05h-2.6v-.99c-.68.66-1.61 1.32-2.86 1.32-2.68 0-4.42-2.18-4.42-5.32 0-3.23 2.24-5.48 5.13-5.48.73 0 1.52.13 2.16.33V1.15h-.01zm-1.92 6.29c-1.74 0-2.73 1.43-2.73 3.3 0 1.98.99 3.23 2.55 3.23.86 0 1.52-.31 2.09-.84v-5.1c-.5-.37-1.14-.59-1.91-.59zM81.82 16.17c-2.27 0-3.45-.99-3.37-3.43l.15-4.77-1.58-.18.07-1.65 1.58-.51.04-2.24h2.51l-.04 2.38h2.86l-.07 2.13h-2.95l-.13 4.69c-.02.95.46 1.39 1.34 1.39.53 0 1.06-.13 1.58-.31l.35 2.11c-.75.26-1.46.39-2.34.39zM92.71 15.84V9.66c0-1.5-.59-2-1.69-2-.97 0-1.8.46-2.31.95v7.24h-2.6V1.15l2.6-.35v6.18c.9-.99 2.11-1.61 3.43-1.61 1.96 0 3.17 1.32 3.17 3.5v6.98h-2.6v-.01zM99.97 11.33c.11 1.65 1.23 2.77 3.04 2.77 1.08 0 2.24-.35 3.17-.92l.33 2.16c-.97.53-2.31.84-3.67.84-3.26 0-5.41-2.07-5.41-5.3 0-3.3 2.2-5.5 5.24-5.5 2.68 0 4.18 1.63 4.18 4.11 0 .55-.09 1.25-.22 1.69l-6.64.09v.06h-.02zm4.43-1.6v-.18c0-1.36-.59-2.22-1.94-2.22-1.43 0-2.29 1.17-2.42 2.42l4.36-.02zM119.44 5.37c2.68 0 4.44 2.18 4.44 5.3 0 3.23-2.24 5.48-5.13 5.48-.66 0-1.52-.09-2.16-.29v4.82h-2.6V5.74l2.6-.35v1.28c.7-.66 1.62-1.3 2.85-1.3zm-2.84 8.14c.48.37 1.14.57 1.91.57 1.74 0 2.73-1.41 2.73-3.3 0-1.98-.95-3.23-2.55-3.23-.86 0-1.52.33-2.09.84v5.12zM126.06 15.84L126.06 1.14 128.66.79 128.66 15.84 126.06 15.84zM133.39 11.33c.11 1.65 1.23 2.77 3.04 2.77 1.08 0 2.24-.35 3.17-.92l.33 2.16c-.97.53-2.31.84-3.67.84-3.26 0-5.41-2.07-5.41-5.3 0-3.3 2.2-5.5 5.24-5.5 2.68 0 4.18 1.63 4.18 4.11 0 .55-.09 1.25-.22 1.69l-6.64.09v.06h-.02zm4.42-1.6v-.18c0-1.36-.59-2.22-1.94-2.22-1.43 0-2.29 1.17-2.42 2.42l4.36-.02zM147.73 14.68c-.73.88-1.61 1.5-2.86 1.5-1.83 0-3.15-1.25-3.15-2.86 0-1.87 1.36-3.45 6.01-3.61v-.24c0-1.36-.57-1.94-2.02-1.94-1.03 0-2.29.46-3.37 1.08l-.53-2.05c.99-.62 2.57-1.19 4.25-1.19 3.12 0 4.33 1.39 4.27 4.18v3.63c0 .77.13.88.9.92l-.2 1.96c-1.94.22-2.84-.37-3.21-1.39h-.09v.01zm0-3.61c-2.53.31-3.45.81-3.45 1.89 0 .77.59 1.32 1.52 1.32.81 0 1.47-.37 1.94-.88v-2.33h-.01zM156.14 16.2c-1.32 0-2.93-.37-3.94-.95l.57-2.02c1.01.57 2.31.95 3.43.95 1.01 0 1.67-.42 1.67-1.12 0-.79-.86-1.08-2.05-1.36-1.91-.44-3.43-1.23-3.43-3.15 0-1.91 1.61-3.17 4.05-3.17 1.25 0 2.75.33 3.7.81l-.57 2.02c-.99-.51-2.29-.84-3.19-.84-.95 0-1.52.35-1.52 1.01 0 .77.86 1.03 2.05 1.32 1.94.46 3.45 1.21 3.45 3.19 0 1.9-1.63 3.31-4.22 3.31zM164.98 5.7v6.18c0 1.5.62 1.98 1.72 1.98.92 0 1.74-.42 2.22-.88V5.7h2.6v10.08l-2.6.35v-1.5c-.84.9-2.05 1.54-3.34 1.54-1.98 0-3.19-1.32-3.19-3.5V5.69h2.59v.01zM176.88 15.84h-2.6V5.76l2.6-.37v1.65c.64-1.08 1.45-1.67 2.64-1.67.62 0 1.25.13 1.8.46l-.57 2.33c-.48-.26-.97-.4-1.45-.4-.9 0-1.74.57-2.42 1.8v6.28zM184.72 11.33c.11 1.65 1.23 2.77 3.04 2.77 1.08 0 2.24-.35 3.17-.92l.33 2.16c-.97.53-2.31.84-3.67.84-3.26 0-5.41-2.07-5.41-5.3 0-3.3 2.2-5.5 5.24-5.5 2.68 0 4.18 1.63 4.18 4.11 0 .55-.09 1.25-.22 1.69l-6.64.09v.06h-.02zm4.42-1.6v-.18c0-1.36-.59-2.22-1.94-2.22-1.43 0-2.29 1.17-2.42 2.42l4.36-.02zM203.28 16.17c-2.97 0-5.13-2.02-5.13-5.39 0-3.34 2.27-5.44 5.26-5.44 2.99 0 5.13 2.07 5.13 5.41 0 3.33-2.29 5.42-5.26 5.42zm.05-8.73c-1.69 0-2.62 1.36-2.62 3.32 0 1.94.97 3.3 2.66 3.3 1.67 0 2.6-1.32 2.6-3.28 0-1.95-.97-3.34-2.64-3.34zM216.7 3.26c-.48-.22-1.06-.42-1.65-.42-.95 0-1.34.55-1.34 1.8v1.12h3.01l-.07 2.13h-2.88v7.94h-2.6V7.91l-1.76-.13.09-1.65 1.65-.48.02-1.08c.07-2.9 1.41-4.05 3.67-4.05.99 0 1.89.29 2.4.51.01.03-.54 2.25-.54 2.23zM225.17 15.89L222.16 5.7 224.87 5.7 226.63 12.83 228.65 5.72 231.25 5.72 233.43 12.78 234.95 5.7 237.7 5.7 234.73 15.89 232.18 15.89 229.91 8.76 227.71 15.89 225.17 15.89zM243.89 16.17c-2.97 0-5.13-2.02-5.13-5.39 0-3.34 2.27-5.44 5.26-5.44 2.99 0 5.13 2.07 5.13 5.41 0 3.33-2.29 5.42-5.26 5.42zm.05-8.73c-1.69 0-2.62 1.36-2.62 3.32 0 1.94.97 3.3 2.66 3.3 1.67 0 2.6-1.32 2.6-3.28 0-1.95-.97-3.34-2.64-3.34zM253.92 15.84h-2.6V5.76l2.6-.37v1.65c.64-1.08 1.45-1.67 2.64-1.67.62 0 1.25.13 1.8.46l-.57 2.33c-.48-.26-.97-.4-1.45-.4-.9 0-1.74.57-2.42 1.8v6.28zM262.53 10.96L262.53 15.84 259.93 15.84 259.93 1.14 262.53.79 262.53 10.21 262.57 10.21 266.2 5.7 269.3 5.7 265.1 10.52 269.32 15.84 266.22 15.84 262.57 10.96zM272.1 3.85c-1.01 0-1.58-.62-1.58-1.56 0-.92.57-1.56 1.58-1.56 1.03 0 1.61.64 1.61 1.56-.01.95-.58 1.56-1.61 1.56zm-1.3 11.99V5.76l2.6-.37v10.45h-2.6zM282.77 15.84V9.66c0-1.5-.59-2-1.76-2-.9 0-1.74.46-2.24.95v7.24h-2.6V5.75l2.6-.35v1.61c.9-.99 2.11-1.63 3.34-1.63 2.05 0 3.26 1.32 3.26 3.5v6.98h-2.6v-.02zM287.5 14.5c0-.92.75-1.76 1.87-2.13-1.12-.57-1.85-1.72-1.85-3.12 0-2.09 1.65-3.87 4.47-3.87 1.14 0 2.16.33 2.86.64l2.73-.24.11 2.27-1.94-.33c.26.29.46 1.06.46 1.58 0 2.07-1.74 3.7-4.25 3.7-.48 0-.84-.04-1.39-.18-.35.13-.79.46-.79.88 0 .55.46.79 2.09.79h1.06c2.9 0 4.55.81 4.55 2.79 0 2.4-2.71 4.05-5.92 4.05-2.68 0-4.82-.99-4.82-2.82 0-1.06.77-2 2.29-2.24-.87-.32-1.53-.95-1.53-1.77zm1.6 3.48c0 .95 1.17 1.61 2.88 1.61 1.78 0 3.15-.66 3.15-1.72 0-.95-.92-1.17-2.82-1.17-.64 0-1.52-.04-1.94-.09-.72.27-1.27.75-1.27 1.37zm2.91-6.69c1.17 0 1.83-.84 1.83-2.11 0-1.21-.64-2.05-1.94-2.05-1.14 0-1.87.86-1.87 2.13 0 1.22.72 2.03 1.98 2.03zM306.02 15.89L303 5.7 305.71 5.7 307.47 12.83 309.49 5.72 312.09 5.72 314.27 12.78 315.79 5.7 318.54 5.7 315.57 15.89 313.02 15.89 310.75 8.76 308.55 15.89 306.02 15.89zM321.44 3.85c-1.01 0-1.58-.62-1.58-1.56 0-.92.57-1.56 1.58-1.56 1.03 0 1.61.64 1.61 1.56 0 .95-.57 1.56-1.61 1.56zm-1.3 11.99V5.76l2.6-.37v10.45h-2.6zM329.1 16.17c-2.27 0-3.45-.99-3.37-3.43l.15-4.77-1.58-.18.07-1.65 1.58-.51.04-2.24h2.51l-.04 2.38h2.86l-.07 2.13h-2.95l-.13 4.69c-.02.95.46 1.39 1.34 1.39.53 0 1.06-.13 1.58-.31l.35 2.11c-.76.26-1.46.39-2.34.39zM339.99 15.84V9.66c0-1.5-.59-2-1.69-2-.97 0-1.8.46-2.31.95v7.24h-2.6V1.15l2.6-.35v6.18c.9-.99 2.11-1.61 3.43-1.61 1.96 0 3.17 1.32 3.17 3.5v6.98h-2.6v-.01zM353.21 8.41l5.19-6.31h3.19l-5.9 6.75 5.98 7h-3.28l-5.19-6.29h-.02v6.29h-2.68V2.1h2.68v6.31h.03zM368.46 14.68c-.73.88-1.61 1.5-2.86 1.5-1.83 0-3.15-1.25-3.15-2.86 0-1.87 1.36-3.45 6.01-3.61v-.24c0-1.36-.57-1.94-2.02-1.94-1.03 0-2.29.46-3.37 1.08l-.53-2.05c.99-.62 2.57-1.19 4.25-1.19 3.12 0 4.33 1.39 4.27 4.18v3.63c0 .77.13.88.9.92l-.2 1.96c-1.94.22-2.84-.37-3.21-1.39h-.09v.01zm0-3.61c-2.53.31-3.45.81-3.45 1.89 0 .77.59 1.32 1.52 1.32.81 0 1.47-.37 1.94-.88v-2.33h-.01z" transform="translate(-51 -5923) translate(51 5923) translate(108 117)"/>
                    <path d="M378.79 15.65l-.59 1.58c-1.01 2.77-2.16 3.61-4.03 3.61-.92 0-1.76-.22-2.57-.59l.77-2.13c.59.29 1.08.48 1.61.48.75 0 1.14-.33 1.69-1.72l.44-1.17-3.96-10.01h2.79l2.53 7.26 2.42-7.26h2.77l-3.87 9.95zM393.56 16.17c-2.97 0-5.13-2.02-5.13-5.39 0-3.34 2.27-5.44 5.26-5.44 2.99 0 5.13 2.07 5.13 5.41 0 3.33-2.29 5.42-5.26 5.42zm.04-8.73c-1.69 0-2.62 1.36-2.62 3.32 0 1.94.97 3.3 2.66 3.3 1.67 0 2.6-1.32 2.6-3.28 0-1.95-.97-3.34-2.64-3.34zM407.59 15.84V9.66c0-1.5-.59-2-1.76-2-.9 0-1.74.46-2.24.95v7.24h-2.6V5.75l2.6-.35v1.61c.9-.99 2.11-1.63 3.34-1.63 2.05 0 3.26 1.32 3.26 3.5v6.98h-2.6v-.02zM423.23 14.68c-.73.88-1.61 1.5-2.86 1.5-1.83 0-3.15-1.25-3.15-2.86 0-1.87 1.36-3.45 6.01-3.61v-.24c0-1.36-.57-1.94-2.02-1.94-1.03 0-2.29.46-3.37 1.08l-.53-2.05c.99-.62 2.57-1.19 4.25-1.19 3.12 0 4.33 1.39 4.27 4.18v3.63c0 .77.13.88.9.92l-.2 1.96c-1.94.22-2.84-.37-3.21-1.39h-.09v.01zm0-3.61c-2.53.31-3.45.81-3.45 1.89 0 .77.59 1.32 1.52 1.32.81 0 1.47-.37 1.94-.88v-2.33h-.01zM440.11 15.84V9.66c0-1.5-.59-2-1.76-2-.9 0-1.74.46-2.24.95v7.24h-2.6V5.75l2.6-.35v1.61c.9-.99 2.11-1.63 3.34-1.63 2.05 0 3.26 1.32 3.26 3.5v6.98h-2.6v-.02zM447.92 5.7v6.18c0 1.5.62 1.98 1.72 1.98.92 0 1.74-.42 2.22-.88V5.7h2.6v10.08l-2.6.35v-1.5c-.84.9-2.05 1.54-3.34 1.54-1.98 0-3.19-1.32-3.19-3.5V5.69h2.59v.01zM469.96 15.84V9.68c0-1.5-.59-2.02-1.67-2.02-.9 0-1.61.46-2.11.9v7.29h-2.6V9.69c0-1.5-.57-2.02-1.65-2.02-.92 0-1.63.37-2.11.84v7.35h-2.6V5.76l2.6-.35v1.43c.95-.95 1.98-1.45 3.23-1.45 1.23 0 2.27.59 2.77 1.74 1.01-1.1 2.22-1.74 3.61-1.74 1.92 0 3.12 1.32 3.12 3.52v6.95h-2.59v-.02zM479.99 16.15c-.66 0-1.61-.13-2.27-.35l-2.49.37V1.14l2.6-.35v5.88c.68-.66 1.61-1.3 2.84-1.3 2.68 0 4.44 2.18 4.44 5.3.01 3.24-2.24 5.48-5.12 5.48zm-.06-8.6c-.86 0-1.52.33-2.09.84v5.13c.48.37 1.14.57 1.91.57 1.74 0 2.73-1.41 2.73-3.3 0-1.99-.95-3.24-2.55-3.24zM489.19 11.33c.11 1.65 1.23 2.77 3.04 2.77 1.08 0 2.24-.35 3.17-.92l.33 2.16c-.97.53-2.31.84-3.67.84-3.26 0-5.41-2.07-5.41-5.3 0-3.3 2.2-5.5 5.24-5.5 2.68 0 4.18 1.63 4.18 4.11 0 .55-.09 1.25-.22 1.69l-6.64.09v.06h-.02zm4.42-1.6v-.18c0-1.36-.59-2.22-1.94-2.22-1.43 0-2.29 1.17-2.42 2.42l4.36-.02zM500.8 15.84h-2.6V5.76l2.6-.37v1.65c.64-1.08 1.45-1.67 2.64-1.67.62 0 1.25.13 1.8.46l-.57 2.33c-.48-.26-.97-.4-1.45-.4-.9 0-1.74.57-2.42 1.8v6.28zM6.72 44.17c-2.97 0-5.13-2.02-5.13-5.39 0-3.34 2.27-5.44 5.26-5.44 2.99 0 5.13 2.07 5.13 5.41 0 3.33-2.29 5.42-5.26 5.42zm.04-8.73c-1.69 0-2.62 1.36-2.62 3.32 0 1.94.97 3.3 2.66 3.3 1.67 0 2.6-1.32 2.6-3.28 0-1.95-.97-3.34-2.64-3.34zM20.14 31.26c-.48-.22-1.06-.42-1.65-.42-.95 0-1.34.55-1.34 1.8v1.12h3.01l-.07 2.13h-2.88v7.94h-2.6v-7.92l-1.76-.13.09-1.65 1.65-.48.02-1.08c.07-2.9 1.41-4.05 3.67-4.05.99 0 1.89.29 2.4.51.01.03-.54 2.25-.54 2.23zM32.15 33.37c2.68 0 4.44 2.18 4.44 5.3 0 3.23-2.24 5.48-5.13 5.48-.66 0-1.52-.09-2.16-.29v4.82h-2.6V33.74l2.6-.35v1.28c.69-.66 1.62-1.3 2.85-1.3zm-2.84 8.14c.48.37 1.14.57 1.91.57 1.74 0 2.73-1.41 2.73-3.3 0-1.98-.95-3.23-2.55-3.23-.86 0-1.52.33-2.09.84v5.12zM41.37 43.84h-2.6V33.76l2.6-.37v1.65c.64-1.08 1.45-1.67 2.64-1.67.62 0 1.25.13 1.8.46l-.57 2.33c-.48-.26-.97-.4-1.45-.4-.9 0-1.74.57-2.42 1.8v6.28zM51.8 44.17c-2.97 0-5.13-2.02-5.13-5.39 0-3.34 2.27-5.44 5.26-5.44 2.99 0 5.13 2.07 5.13 5.41-.01 3.33-2.29 5.42-5.26 5.42zm.04-8.73c-1.69 0-2.62 1.36-2.62 3.32 0 1.94.97 3.3 2.66 3.3 1.67 0 2.6-1.32 2.6-3.28 0-1.95-.97-3.34-2.64-3.34zM57.45 47.47c1.25-.59 1.78-1.41 1.78-3.59V33.76l2.6-.37v10.54c0 2.95-.75 4.44-2.79 5.3l-1.59-1.76zm3.08-15.62c-1.01 0-1.58-.62-1.58-1.56 0-.92.57-1.56 1.58-1.56 1.03 0 1.61.64 1.61 1.56 0 .95-.58 1.56-1.61 1.56zM66.51 39.33c.11 1.65 1.23 2.77 3.04 2.77 1.08 0 2.24-.35 3.17-.92l.33 2.16c-.97.53-2.31.84-3.67.84-3.26 0-5.41-2.07-5.41-5.3 0-3.3 2.2-5.5 5.24-5.5 2.68 0 4.18 1.63 4.18 4.11 0 .55-.09 1.25-.22 1.69l-6.64.09v.06h-.02zm4.43-1.6v-.18c0-1.36-.59-2.22-1.94-2.22-1.43 0-2.29 1.17-2.42 2.42l4.36-.02zM80.2 44.17c-3.3 0-5.26-2.05-5.26-5.37 0-3.3 2.16-5.44 5.35-5.44 1.39 0 2.57.31 3.5.86l-.55 2.09c-.84-.53-1.8-.81-2.75-.81-1.87 0-2.88 1.28-2.88 3.23 0 2.07 1.17 3.28 2.88 3.28 1.06 0 2.02-.29 2.82-.79l.42 2.11c-.89.54-2.17.84-3.53.84zM89.46 44.17c-2.27 0-3.45-.99-3.37-3.43l.15-4.77-1.58-.18.07-1.65 1.58-.51.04-2.24h2.51l-.04 2.38h2.86l-.07 2.13h-2.95l-.13 4.69c-.02.95.46 1.39 1.34 1.39.53 0 1.06-.13 1.58-.31l.35 2.11c-.76.26-1.46.39-2.34.39zM96.89 44.2c-1.32 0-2.93-.37-3.94-.95l.57-2.02c1.01.57 2.31.95 3.43.95 1.01 0 1.67-.42 1.67-1.12 0-.79-.86-1.08-2.05-1.36-1.91-.44-3.43-1.23-3.43-3.15 0-1.91 1.61-3.17 4.05-3.17 1.25 0 2.75.33 3.7.81l-.57 2.02c-.99-.51-2.29-.84-3.19-.84-.95 0-1.52.35-1.52 1.01 0 .77.86 1.03 2.05 1.32 1.94.46 3.45 1.21 3.45 3.19.01 1.9-1.62 3.31-4.22 3.31zM104.62 44.17c-1.03 0-1.76-.75-1.76-1.72s.73-1.69 1.76-1.69c1.01 0 1.72.73 1.72 1.69s-.71 1.72-1.72 1.72zM113.92 43.84L113.92 30.09 123.29 30.09 123.29 32.36 116.56 32.36 116.56 35.81 122.08 35.81 122.08 38.08 116.56 38.08 116.56 41.58 123.29 41.58 123.29 43.85 113.92 43.85zM131.02 42.68c-.73.88-1.61 1.5-2.86 1.5-1.83 0-3.15-1.25-3.15-2.86 0-1.87 1.36-3.45 6.01-3.61v-.24c0-1.36-.57-1.94-2.02-1.94-1.03 0-2.29.46-3.37 1.08l-.53-2.05c.99-.62 2.57-1.19 4.25-1.19 3.12 0 4.33 1.39 4.27 4.18v3.63c0 .77.13.88.9.92l-.2 1.96c-1.94.22-2.84-.37-3.21-1.39h-.09v.01zm0-3.61c-2.53.31-3.45.81-3.45 1.89 0 .77.59 1.32 1.52 1.32.81 0 1.47-.37 1.94-.88v-2.33h-.01zM140.94 44.17c-3.3 0-5.26-2.05-5.26-5.37 0-3.3 2.16-5.44 5.35-5.44 1.39 0 2.57.31 3.5.86l-.55 2.09c-.84-.53-1.8-.81-2.75-.81-1.87 0-2.88 1.28-2.88 3.23 0 2.07 1.17 3.28 2.88 3.28 1.06 0 2.02-.29 2.82-.79l.42 2.11c-.89.54-2.17.84-3.53.84zM153.21 43.84v-6.18c0-1.5-.59-2-1.69-2-.97 0-1.8.46-2.31.95v7.24h-2.6v-14.7l2.6-.35v6.18c.9-.99 2.11-1.61 3.43-1.61 1.96 0 3.17 1.32 3.17 3.5v6.98h-2.6v-.01zM167.12 44.17c-2.27 0-3.45-.99-3.37-3.43l.15-4.77-1.58-.18.07-1.65 1.58-.51.04-2.24h2.51l-.04 2.38h2.86l-.07 2.13h-2.95l-.13 4.69c-.02.95.46 1.39 1.34 1.39.53 0 1.06-.13 1.58-.31l.35 2.11c-.76.26-1.46.39-2.34.39zM172.71 31.85c-1.01 0-1.58-.62-1.58-1.56 0-.92.57-1.56 1.58-1.56 1.03 0 1.61.64 1.61 1.56-.01.95-.58 1.56-1.61 1.56zm-1.3 11.99V33.76l2.6-.37v10.45h-2.6zM189.51 43.84v-6.16c0-1.5-.59-2.02-1.67-2.02-.9 0-1.61.46-2.11.9v7.29h-2.6v-6.16c0-1.5-.57-2.02-1.65-2.02-.92 0-1.63.37-2.11.84v7.35h-2.6v-10.1l2.6-.35v1.43c.95-.95 1.98-1.45 3.23-1.45 1.23 0 2.27.59 2.77 1.74 1.01-1.1 2.22-1.74 3.61-1.74 1.92 0 3.12 1.32 3.12 3.52v6.95h-2.59v-.02zM196.75 39.33c.11 1.65 1.23 2.77 3.04 2.77 1.08 0 2.24-.35 3.17-.92l.33 2.16c-.97.53-2.31.84-3.67.84-3.26 0-5.41-2.07-5.41-5.3 0-3.3 2.2-5.5 5.24-5.5 2.68 0 4.18 1.63 4.18 4.11 0 .55-.09 1.25-.22 1.69l-6.64.09v.06h-.02zm4.42-1.6v-.18c0-1.36-.59-2.22-1.94-2.22-1.43 0-2.29 1.17-2.42 2.42l4.36-.02zM213.93 44.2c-1.32 0-2.93-.37-3.94-.95l.57-2.02c1.01.57 2.31.95 3.43.95 1.01 0 1.67-.42 1.67-1.12 0-.79-.86-1.08-2.05-1.36-1.91-.44-3.43-1.23-3.43-3.15 0-1.91 1.61-3.17 4.05-3.17 1.25 0 2.75.33 3.7.81l-.57 2.02c-.99-.51-2.29-.84-3.19-.84-.95 0-1.52.35-1.52 1.01 0 .77.86 1.03 2.05 1.32 1.94.46 3.45 1.21 3.45 3.19.01 1.9-1.62 3.31-4.22 3.31zM226.87 43.84v-6.18c0-1.5-.59-2-1.69-2-.97 0-1.8.46-2.31.95v7.24h-2.6v-14.7l2.6-.35v6.18c.9-.99 2.11-1.61 3.43-1.61 1.96 0 3.17 1.32 3.17 3.5v6.98h-2.6v-.01zM234.13 39.33c.11 1.65 1.23 2.77 3.04 2.77 1.08 0 2.24-.35 3.17-.92l.33 2.16c-.97.53-2.31.84-3.67.84-3.26 0-5.41-2.07-5.41-5.3 0-3.3 2.2-5.5 5.24-5.5 2.68 0 4.18 1.63 4.18 4.11 0 .55-.09 1.25-.22 1.69l-6.64.09v.06h-.02zm4.42-1.6v-.18c0-1.36-.59-2.22-1.94-2.22-1.43 0-2.29 1.17-2.42 2.42l4.36-.02zM241.74 35.09L244.27 29.66 246.58 30.45 243.21 35.09 241.74 35.09zM250.47 44.2c-1.32 0-2.93-.37-3.94-.95l.57-2.02c1.01.57 2.31.95 3.43.95 1.01 0 1.67-.42 1.67-1.12 0-.79-.86-1.08-2.05-1.36-1.91-.44-3.43-1.23-3.43-3.15 0-1.91 1.61-3.17 4.05-3.17 1.25 0 2.75.33 3.7.81l-.57 2.02c-.99-.51-2.29-.84-3.19-.84-.95 0-1.52.35-1.52 1.01 0 .77.86 1.03 2.05 1.32 1.94.46 3.45 1.21 3.45 3.19.01 1.9-1.62 3.31-4.22 3.31zM268.51 48.69v-5.83c-.68.66-1.61 1.32-2.86 1.32-2.68 0-4.42-2.18-4.42-5.32 0-3.23 2.24-5.48 5.13-5.48.88 0 1.91.22 2.51.44l2.25-.42v15.29h-2.61zm-1.91-13.27c-1.74 0-2.73 1.45-2.73 3.32 0 1.98.99 3.28 2.55 3.28.86 0 1.52-.35 2.09-.88v-5.1c-.5-.38-1.14-.62-1.91-.62zM276.39 33.7v6.18c0 1.5.62 1.98 1.72 1.98.92 0 1.74-.42 2.22-.88V33.7h2.6v10.08l-2.6.35v-1.5c-.84.9-2.05 1.54-3.34 1.54-1.98 0-3.19-1.32-3.19-3.5v-6.98h2.59v.01zM286.99 31.85c-1.01 0-1.58-.62-1.58-1.56 0-.92.57-1.56 1.58-1.56 1.03 0 1.61.64 1.61 1.56 0 .95-.57 1.56-1.61 1.56zm-1.3 11.99V33.76l2.6-.37v10.45h-2.6zM295.73 44.17c-3.3 0-5.26-2.05-5.26-5.37 0-3.3 2.16-5.44 5.35-5.44 1.39 0 2.57.31 3.5.86l-.55 2.09c-.84-.53-1.8-.81-2.75-.81-1.87 0-2.88 1.28-2.88 3.23 0 2.07 1.17 3.28 2.88 3.28 1.06 0 2.02-.29 2.82-.79l.42 2.11c-.89.54-2.17.84-3.53.84zM304 38.96L304 43.84 301.4 43.84 301.4 29.14 304 28.79 304 38.21 304.04 38.21 307.67 33.7 310.77 33.7 306.57 38.52 310.79 43.84 307.69 43.84 304.04 38.96zM312.27 43.84L312.27 29.14 314.87 28.79 314.87 43.84 312.27 43.84zM322.85 43.65l-.59 1.58c-1.01 2.77-2.16 3.61-4.03 3.61-.92 0-1.76-.22-2.57-.59l.77-2.13c.59.29 1.08.48 1.61.48.75 0 1.14-.33 1.69-1.72l.44-1.17-3.96-10.01H319l2.53 7.26 2.42-7.26h2.77l-3.87 9.95zM332.51 42.5c0-.92.75-1.76 1.87-2.13-1.12-.57-1.85-1.72-1.85-3.12 0-2.09 1.65-3.87 4.47-3.87 1.14 0 2.16.33 2.86.64l2.73-.24.11 2.27-1.94-.33c.26.29.46 1.06.46 1.58 0 2.07-1.74 3.7-4.25 3.7-.48 0-.84-.04-1.39-.18-.35.13-.79.46-.79.88 0 .55.46.79 2.09.79h1.06c2.9 0 4.55.81 4.55 2.79 0 2.4-2.71 4.05-5.92 4.05-2.68 0-4.82-.99-4.82-2.82 0-1.06.77-2 2.29-2.24-.87-.32-1.53-.95-1.53-1.77zm1.61 3.48c0 .95 1.17 1.61 2.88 1.61 1.78 0 3.15-.66 3.15-1.72 0-.95-.92-1.17-2.82-1.17-.64 0-1.52-.04-1.94-.09-.72.27-1.27.75-1.27 1.37zm2.9-6.69c1.17 0 1.83-.84 1.83-2.11 0-1.21-.64-2.05-1.94-2.05-1.14 0-1.87.86-1.87 2.13 0 1.22.73 2.03 1.98 2.03zM346.72 43.84h-2.6V33.76l2.6-.37v1.65c.64-1.08 1.45-1.67 2.64-1.67.62 0 1.25.13 1.8.46l-.57 2.33c-.48-.26-.97-.4-1.45-.4-.9 0-1.74.57-2.42 1.8v6.28zM357.92 42.68c-.73.88-1.61 1.5-2.86 1.5-1.83 0-3.15-1.25-3.15-2.86 0-1.87 1.36-3.45 6.01-3.61v-.24c0-1.36-.57-1.94-2.02-1.94-1.03 0-2.29.46-3.37 1.08l-.53-2.05c.99-.62 2.57-1.19 4.25-1.19 3.12 0 4.33 1.39 4.27 4.18v3.63c0 .77.13.88.9.92l-.2 1.96c-1.94.22-2.84-.37-3.21-1.39h-.09v.01zm0-3.61c-2.53.31-3.45.81-3.45 1.89 0 .77.59 1.32 1.52 1.32.81 0 1.47-.37 1.94-.88v-2.33h-.01zM366.32 44.2c-1.32 0-2.93-.37-3.94-.95l.57-2.02c1.01.57 2.31.95 3.43.95 1.01 0 1.67-.42 1.67-1.12 0-.79-.86-1.08-2.05-1.36-1.91-.44-3.43-1.23-3.43-3.15 0-1.91 1.61-3.17 4.05-3.17 1.25 0 2.75.33 3.7.81l-.57 2.02c-.99-.51-2.29-.84-3.19-.84-.95 0-1.52.35-1.52 1.01 0 .77.86 1.03 2.05 1.32 1.94.46 3.45 1.21 3.45 3.19.01 1.9-1.62 3.31-4.22 3.31zM378.09 33.37c2.68 0 4.44 2.18 4.44 5.3 0 3.23-2.24 5.48-5.13 5.48-.66 0-1.52-.09-2.16-.29v4.82h-2.6V33.74l2.6-.35v1.28c.7-.66 1.62-1.3 2.85-1.3zm-2.83 8.14c.48.37 1.14.57 1.91.57 1.74 0 2.73-1.41 2.73-3.3 0-1.98-.95-3.23-2.55-3.23-.86 0-1.52.33-2.09.84v5.12zM386.67 39.33c.11 1.65 1.23 2.77 3.04 2.77 1.08 0 2.24-.35 3.17-.92l.33 2.16c-.97.53-2.31.84-3.67.84-3.26 0-5.41-2.07-5.41-5.3 0-3.3 2.2-5.5 5.24-5.5 2.68 0 4.18 1.63 4.18 4.11 0 .55-.09 1.25-.22 1.69l-6.64.09v.06h-.02zm4.43-1.6v-.18c0-1.36-.59-2.22-1.94-2.22-1.43 0-2.29 1.17-2.42 2.42l4.36-.02zM402.38 29.15l2.6-.35v15.05h-2.6v-.99c-.68.66-1.61 1.32-2.86 1.32-2.68 0-4.42-2.18-4.42-5.32 0-3.23 2.24-5.48 5.13-5.48.73 0 1.52.13 2.16.33v-4.56h-.01zm-1.91 6.29c-1.74 0-2.73 1.43-2.73 3.3 0 1.98.99 3.23 2.55 3.23.86 0 1.52-.31 2.09-.84v-5.1c-.5-.37-1.14-.59-1.91-.59zM416.35 44.17c-2.27 0-3.45-.99-3.37-3.43l.15-4.77-1.58-.18.07-1.65 1.58-.51.04-2.24h2.51l-.04 2.38h2.86l-.07 2.13h-2.95l-.13 4.69c-.02.95.46 1.39 1.34 1.39.53 0 1.06-.13 1.58-.31l.35 2.11c-.76.26-1.46.39-2.34.39zM427.24 43.84v-6.18c0-1.5-.59-2-1.69-2-.97 0-1.8.46-2.31.95v7.24h-2.6v-14.7l2.6-.35v6.18c.9-.99 2.11-1.61 3.43-1.61 1.96 0 3.17 1.32 3.17 3.5v6.98h-2.6v-.01zM434.5 39.33c.11 1.65 1.23 2.77 3.04 2.77 1.08 0 2.24-.35 3.17-.92l.33 2.16c-.97.53-2.31.84-3.67.84-3.26 0-5.41-2.07-5.41-5.3 0-3.3 2.2-5.5 5.24-5.5 2.68 0 4.18 1.63 4.18 4.11 0 .55-.09 1.25-.22 1.69l-6.64.09v.06h-.02zm4.42-1.6v-.18c0-1.36-.59-2.22-1.94-2.22-1.43 0-2.29 1.17-2.42 2.42l4.36-.02zM453.97 33.37c2.68 0 4.44 2.18 4.44 5.3 0 3.23-2.24 5.48-5.13 5.48-.66 0-1.52-.09-2.16-.29v4.82h-2.6V33.74l2.6-.35v1.28c.69-.66 1.62-1.3 2.85-1.3zm-2.84 8.14c.48.37 1.14.57 1.91.57 1.74 0 2.73-1.41 2.73-3.3 0-1.98-.95-3.23-2.55-3.23-.86 0-1.52.33-2.09.84v5.12zM463.19 43.84h-2.6V33.76l2.6-.37v1.65c.64-1.08 1.45-1.67 2.64-1.67.62 0 1.25.13 1.8.46l-.57 2.33c-.48-.26-.97-.4-1.45-.4-.9 0-1.74.57-2.42 1.8v6.28zM473.61 44.17c-2.97 0-5.13-2.02-5.13-5.39 0-3.34 2.27-5.44 5.26-5.44 2.99 0 5.13 2.07 5.13 5.41 0 3.33-2.29 5.42-5.26 5.42zm.05-8.73c-1.69 0-2.62 1.36-2.62 3.32 0 1.94.97 3.3 2.66 3.3 1.67 0 2.6-1.32 2.6-3.28 0-1.95-.97-3.34-2.64-3.34zM479.27 47.47c1.25-.59 1.78-1.41 1.78-3.59V33.76l2.6-.37v10.54c0 2.95-.75 4.44-2.79 5.3l-1.59-1.76zm3.08-15.62c-1.01 0-1.58-.62-1.58-1.56 0-.92.57-1.56 1.58-1.56 1.03 0 1.61.64 1.61 1.56-.01.95-.58 1.56-1.61 1.56zM488.33 39.33c.11 1.65 1.23 2.77 3.04 2.77 1.08 0 2.24-.35 3.17-.92l.33 2.16c-.97.53-2.31.84-3.67.84-3.26 0-5.41-2.07-5.41-5.3 0-3.3 2.2-5.5 5.24-5.5 2.68 0 4.18 1.63 4.18 4.11 0 .55-.09 1.25-.22 1.69l-6.64.09v.06h-.02zm4.42-1.6v-.18c0-1.36-.59-2.22-1.94-2.22-1.43 0-2.29 1.17-2.42 2.42l4.36-.02zM502.02 44.17c-3.3 0-5.26-2.05-5.26-5.37 0-3.3 2.16-5.44 5.35-5.44 1.39 0 2.57.31 3.5.86l-.55 2.09c-.84-.53-1.8-.81-2.75-.81-1.87 0-2.88 1.28-2.88 3.23 0 2.07 1.17 3.28 2.88 3.28 1.06 0 2.02-.29 2.82-.79l.42 2.11c-.89.54-2.17.84-3.53.84zM511.28 44.17c-2.27 0-3.45-.99-3.37-3.43l.15-4.77-1.58-.18.07-1.65 1.58-.51.04-2.24h2.51l-.04 2.38h2.86l-.07 2.13h-2.95l-.13 4.69c-.02.95.46 1.39 1.34 1.39.53 0 1.06-.13 1.58-.31l.35 2.11c-.76.26-1.46.39-2.34.39zM514.16 35.09L516.69 29.66 519 30.45 515.63 35.09 514.16 35.09zM522.89 44.2c-1.32 0-2.93-.37-3.94-.95l.57-2.02c1.01.57 2.31.95 3.43.95 1.01 0 1.67-.42 1.67-1.12 0-.79-.86-1.08-2.05-1.36-1.91-.44-3.43-1.23-3.43-3.15 0-1.91 1.61-3.17 4.05-3.17 1.25 0 2.75.33 3.7.81l-.57 2.02c-.99-.51-2.29-.84-3.19-.84-.95 0-1.52.35-1.52 1.01 0 .77.86 1.03 2.05 1.32 1.94.46 3.45 1.21 3.45 3.19.01 1.9-1.62 3.31-4.22 3.31zM8.88 57.15l2.6-.35v15.05h-2.6v-.99c-.68.66-1.61 1.32-2.86 1.32-2.68 0-4.42-2.18-4.42-5.32 0-3.23 2.24-5.48 5.13-5.48.73 0 1.52.13 2.16.33v-4.56h-.01zm-1.92 6.29c-1.74 0-2.73 1.43-2.73 3.3 0 1.98.99 3.23 2.55 3.23.86 0 1.52-.31 2.09-.84v-5.1c-.5-.37-1.14-.59-1.91-.59zM16.2 67.33c.11 1.65 1.23 2.77 3.04 2.77 1.08 0 2.24-.35 3.17-.92l.33 2.16c-.97.53-2.31.84-3.67.84-3.26 0-5.41-2.07-5.41-5.3 0-3.3 2.2-5.5 5.24-5.5 2.68 0 4.18 1.63 4.18 4.11 0 .55-.09 1.25-.22 1.69l-6.64.09v.06h-.02zm4.42-1.6v-.18c0-1.36-.59-2.22-1.94-2.22-1.43 0-2.29 1.17-2.42 2.42l4.36-.02zM28.37 72.2c-1.32 0-2.93-.37-3.94-.95l.57-2.02c1.01.57 2.31.95 3.43.95 1.01 0 1.67-.42 1.67-1.12 0-.79-.86-1.08-2.05-1.36-1.91-.44-3.43-1.23-3.43-3.15 0-1.91 1.61-3.17 4.05-3.17 1.25 0 2.75.33 3.7.81l-.57 2.02c-.99-.51-2.29-.84-3.19-.84-.95 0-1.52.35-1.52 1.01 0 .77.86 1.03 2.05 1.32 1.94.46 3.45 1.21 3.45 3.19 0 1.9-1.63 3.31-4.22 3.31zM36 59.85c-1.01 0-1.58-.62-1.58-1.56 0-.92.57-1.56 1.58-1.56 1.03 0 1.61.64 1.61 1.56 0 .95-.58 1.56-1.61 1.56zm-1.3 11.99V61.76l2.6-.37v10.45h-2.6zM39.5 70.5c0-.92.75-1.76 1.87-2.13-1.12-.57-1.85-1.72-1.85-3.12 0-2.09 1.65-3.87 4.47-3.87 1.14 0 2.16.33 2.86.64l2.73-.24.11 2.27-1.94-.33c.26.29.46 1.06.46 1.58 0 2.07-1.74 3.7-4.25 3.7-.48 0-.84-.04-1.39-.18-.35.13-.79.46-.79.88 0 .55.46.79 2.09.79h1.06c2.9 0 4.55.81 4.55 2.79 0 2.4-2.71 4.05-5.92 4.05-2.68 0-4.82-.99-4.82-2.82 0-1.06.77-2 2.29-2.24-.87-.32-1.53-.95-1.53-1.77zm1.6 3.48c0 .95 1.17 1.61 2.88 1.61 1.78 0 3.15-.66 3.15-1.72 0-.95-.92-1.17-2.82-1.17-.64 0-1.52-.04-1.94-.09-.72.27-1.27.75-1.27 1.37zm2.91-6.69c1.17 0 1.83-.84 1.83-2.11 0-1.21-.64-2.05-1.94-2.05-1.14 0-1.87.86-1.87 2.13 0 1.22.72 2.03 1.98 2.03zM57.71 71.84v-6.18c0-1.5-.59-2-1.76-2-.9 0-1.74.46-2.24.95v7.24h-2.6v-10.1l2.6-.35v1.61c.9-.99 2.11-1.63 3.34-1.63 2.05 0 3.26 1.32 3.26 3.5v6.98h-2.6v-.02zM73.27 71.87L70.5 71.87 66.63 61.7 69.4 61.7 71.95 69.12 74.39 61.7 77.18 61.7zM79.84 59.85c-1.01 0-1.58-.62-1.58-1.56 0-.92.57-1.56 1.58-1.56 1.03 0 1.61.64 1.61 1.56 0 .95-.57 1.56-1.61 1.56zm-1.29 11.99V61.76l2.6-.37v10.45h-2.6zM87.06 72.2c-1.32 0-2.93-.37-3.94-.95l.57-2.02c1.01.57 2.31.95 3.43.95 1.01 0 1.67-.42 1.67-1.12 0-.79-.86-1.08-2.05-1.36-1.91-.44-3.43-1.23-3.43-3.15 0-1.91 1.61-3.17 4.05-3.17 1.25 0 2.75.33 3.7.81l-.57 2.02c-.99-.51-2.29-.84-3.19-.84-.95 0-1.52.35-1.52 1.01 0 .77.86 1.03 2.05 1.32 1.94.46 3.45 1.21 3.45 3.19.01 1.9-1.62 3.31-4.22 3.31zM94.7 59.85c-1.01 0-1.58-.62-1.58-1.56 0-.92.57-1.56 1.58-1.56 1.03 0 1.61.64 1.61 1.56-.01.95-.58 1.56-1.61 1.56zm-1.3 11.99V61.76l2.6-.37v10.45h-2.6zM103.3 72.17c-2.97 0-5.13-2.02-5.13-5.39 0-3.34 2.27-5.44 5.26-5.44 2.99 0 5.13 2.07 5.13 5.41 0 3.33-2.29 5.42-5.26 5.42zm.04-8.73c-1.69 0-2.62 1.36-2.62 3.32 0 1.94.97 3.3 2.66 3.3 1.67 0 2.6-1.32 2.6-3.28 0-1.95-.97-3.34-2.64-3.34zM117.33 71.84v-6.18c0-1.5-.59-2-1.76-2-.9 0-1.74.46-2.24.95v7.24h-2.6v-10.1l2.6-.35v1.61c.9-.99 2.11-1.63 3.34-1.63 2.05 0 3.26 1.32 3.26 3.5v6.98h-2.6v-.02zM132.97 70.68c-.73.88-1.61 1.5-2.86 1.5-1.83 0-3.15-1.25-3.15-2.86 0-1.87 1.36-3.45 6.01-3.61v-.24c0-1.36-.57-1.94-2.02-1.94-1.03 0-2.29.46-3.37 1.08l-.53-2.05c.99-.62 2.57-1.19 4.25-1.19 3.12 0 4.33 1.39 4.27 4.18v3.63c0 .77.13.88.9.92l-.2 1.96c-1.94.22-2.84-.37-3.21-1.39h-.09v.01zm0-3.61c-2.53.31-3.45.81-3.45 1.89 0 .77.59 1.32 1.52 1.32.81 0 1.47-.37 1.94-.88v-2.33h-.01zM144.83 71.84v-6.18c0-1.5-.59-2-1.76-2-.9 0-1.74.46-2.24.95v7.24h-2.6v-10.1l2.6-.35v1.61c.9-.99 2.11-1.63 3.34-1.63 2.05 0 3.26 1.32 3.26 3.5v6.98h-2.6v-.02zM156.82 57.15l2.6-.35v15.05h-2.6v-.99c-.68.66-1.61 1.32-2.86 1.32-2.68 0-4.42-2.18-4.42-5.32 0-3.23 2.24-5.48 5.13-5.48.73 0 1.52.13 2.16.33v-4.56h-.01zm-1.91 6.29c-1.74 0-2.73 1.43-2.73 3.3 0 1.98.99 3.23 2.55 3.23.86 0 1.52-.31 2.09-.84v-5.1c-.5-.37-1.14-.59-1.91-.59zM173.89 57.15l2.6-.35v15.05h-2.6v-.99c-.68.66-1.61 1.32-2.86 1.32-2.68 0-4.42-2.18-4.42-5.32 0-3.23 2.24-5.48 5.13-5.48.73 0 1.52.13 2.16.33v-4.56h-.01zm-1.91 6.29c-1.74 0-2.73 1.43-2.73 3.3 0 1.98.99 3.23 2.55 3.23.86 0 1.52-.31 2.09-.84v-5.1c-.5-.37-1.14-.59-1.91-.59zM181.22 67.33c.11 1.65 1.23 2.77 3.04 2.77 1.08 0 2.24-.35 3.17-.92l.33 2.16c-.97.53-2.31.84-3.67.84-3.26 0-5.41-2.07-5.41-5.3 0-3.3 2.2-5.5 5.24-5.5 2.68 0 4.18 1.63 4.18 4.11 0 .55-.09 1.25-.22 1.69l-6.64.09v.06h-.02zm4.42-1.6v-.18c0-1.36-.59-2.22-1.94-2.22-1.43 0-2.29 1.17-2.42 2.42l4.36-.02zM195.58 71.87L192.81 71.87 188.94 61.7 191.71 61.7 194.26 69.12 196.7 61.7 199.49 61.7zM202.71 67.33c.11 1.65 1.23 2.77 3.04 2.77 1.08 0 2.24-.35 3.17-.92l.33 2.16c-.97.53-2.31.84-3.67.84-3.26 0-5.41-2.07-5.41-5.3 0-3.3 2.2-5.5 5.24-5.5 2.68 0 4.18 1.63 4.18 4.11 0 .55-.09 1.25-.22 1.69l-6.64.09v.06h-.02zm4.42-1.6v-.18c0-1.36-.59-2.22-1.94-2.22-1.43 0-2.29 1.17-2.42 2.42l4.36-.02zM211.73 71.84L211.73 57.14 214.33 56.79 214.33 71.84 211.73 71.84zM221.63 72.17c-2.97 0-5.13-2.02-5.13-5.39 0-3.34 2.27-5.44 5.26-5.44 2.99 0 5.13 2.07 5.13 5.41 0 3.33-2.29 5.42-5.26 5.42zm.05-8.73c-1.69 0-2.62 1.36-2.62 3.32 0 1.94.97 3.3 2.66 3.3 1.67 0 2.6-1.32 2.6-3.28 0-1.95-.97-3.34-2.64-3.34zM234.5 61.37c2.68 0 4.44 2.18 4.44 5.3 0 3.23-2.24 5.48-5.13 5.48-.66 0-1.52-.09-2.16-.29v4.82h-2.6V61.74l2.6-.35v1.28c.7-.66 1.62-1.3 2.85-1.3zm-2.84 8.14c.48.37 1.14.57 1.91.57 1.74 0 2.73-1.41 2.73-3.3 0-1.98-.95-3.23-2.55-3.23-.86 0-1.52.33-2.09.84v5.12zM243.08 67.33c.11 1.65 1.23 2.77 3.04 2.77 1.08 0 2.24-.35 3.17-.92l.33 2.16c-.97.53-2.31.84-3.67.84-3.26 0-5.41-2.07-5.41-5.3 0-3.3 2.2-5.5 5.24-5.5 2.68 0 4.18 1.63 4.18 4.11 0 .55-.09 1.25-.22 1.69l-6.64.09v.06h-.02zm4.42-1.6v-.18c0-1.36-.59-2.22-1.94-2.22-1.43 0-2.29 1.17-2.42 2.42l4.36-.02zM258.79 57.15l2.6-.35v15.05h-2.6v-.99c-.68.66-1.61 1.32-2.86 1.32-2.68 0-4.42-2.18-4.42-5.32 0-3.23 2.24-5.48 5.13-5.48.73 0 1.52.13 2.16.33v-4.56h-.01zm-1.91 6.29c-1.74 0-2.73 1.43-2.73 3.3 0 1.98.99 3.23 2.55 3.23.86 0 1.52-.31 2.09-.84v-5.1c-.51-.37-1.15-.59-1.91-.59zM271.13 67.33c.11 1.65 1.23 2.77 3.04 2.77 1.08 0 2.24-.35 3.17-.92l.33 2.16c-.97.53-2.31.84-3.67.84-3.26 0-5.41-2.07-5.41-5.3 0-3.3 2.2-5.5 5.24-5.5 2.68 0 4.18 1.63 4.18 4.11 0 .55-.09 1.25-.22 1.69l-6.64.09v.06h-.02zm4.42-1.6v-.18c0-1.36-.59-2.22-1.94-2.22-1.43 0-2.29 1.17-2.42 2.42l4.36-.02zM286.75 71.84v-6.18c0-1.5-.59-2-1.76-2-.9 0-1.74.46-2.24.95v7.24h-2.6v-10.1l2.6-.35v1.61c.9-.99 2.11-1.63 3.34-1.63 2.05 0 3.26 1.32 3.26 3.5v6.98h-2.6v-.02zM291.48 70.5c0-.92.75-1.76 1.87-2.13-1.12-.57-1.85-1.72-1.85-3.12 0-2.09 1.65-3.87 4.47-3.87 1.14 0 2.16.33 2.86.64l2.73-.24.11 2.27-1.94-.33c.26.29.46 1.06.46 1.58 0 2.07-1.74 3.7-4.25 3.7-.48 0-.84-.04-1.39-.18-.35.13-.79.46-.79.88 0 .55.46.79 2.09.79h1.06c2.9 0 4.55.81 4.55 2.79 0 2.4-2.71 4.05-5.92 4.05-2.68 0-4.82-.99-4.82-2.82 0-1.06.77-2 2.29-2.24-.87-.32-1.53-.95-1.53-1.77zm1.6 3.48c0 .95 1.17 1.61 2.88 1.61 1.78 0 3.15-.66 3.15-1.72 0-.95-.92-1.17-2.82-1.17-.64 0-1.52-.04-1.94-.09-.72.27-1.27.75-1.27 1.37zm2.91-6.69c1.17 0 1.83-.84 1.83-2.11 0-1.21-.64-2.05-1.94-2.05-1.14 0-1.87.86-1.87 2.13 0 1.22.72 2.03 1.98 2.03zM308.42 70.68c-.73.88-1.61 1.5-2.86 1.5-1.83 0-3.15-1.25-3.15-2.86 0-1.87 1.36-3.45 6.01-3.61v-.24c0-1.36-.57-1.94-2.02-1.94-1.03 0-2.29.46-3.37 1.08l-.53-2.05c.99-.62 2.57-1.19 4.25-1.19 3.12 0 4.33 1.39 4.27 4.18v3.63c0 .77.13.88.9.92l-.2 1.96c-1.94.22-2.84-.37-3.21-1.39h-.09v.01zm0-3.61c-2.53.31-3.45.81-3.45 1.89 0 .77.59 1.32 1.52 1.32.81 0 1.47-.37 1.94-.88v-2.33h-.01zM313.1 70.5c0-.92.75-1.76 1.87-2.13-1.12-.57-1.85-1.72-1.85-3.12 0-2.09 1.65-3.87 4.47-3.87 1.14 0 2.16.33 2.86.64l2.73-.24.11 2.27-1.94-.33c.26.29.46 1.06.46 1.58 0 2.07-1.74 3.7-4.25 3.7-.48 0-.84-.04-1.39-.18-.35.13-.79.46-.79.88 0 .55.46.79 2.09.79h1.06c2.9 0 4.55.81 4.55 2.79 0 2.4-2.71 4.05-5.92 4.05-2.68 0-4.82-.99-4.82-2.82 0-1.06.77-2 2.29-2.24-.87-.32-1.53-.95-1.53-1.77zm1.61 3.48c0 .95 1.17 1.61 2.88 1.61 1.78 0 3.15-.66 3.15-1.72 0-.95-.92-1.17-2.82-1.17-.64 0-1.52-.04-1.94-.09-.72.27-1.27.75-1.27 1.37zm2.91-6.69c1.17 0 1.83-.84 1.83-2.11 0-1.21-.64-2.05-1.94-2.05-1.14 0-1.87.86-1.87 2.13-.01 1.22.72 2.03 1.98 2.03zM326.02 59.85c-1.01 0-1.58-.62-1.58-1.56 0-.92.57-1.56 1.58-1.56 1.03 0 1.61.64 1.61 1.56-.01.95-.58 1.56-1.61 1.56zm-1.3 11.99V61.76l2.6-.37v10.45h-2.6zM336.69 71.84v-6.18c0-1.5-.59-2-1.76-2-.9 0-1.74.46-2.24.95v7.24h-2.6v-10.1l2.6-.35v1.61c.9-.99 2.11-1.63 3.34-1.63 2.05 0 3.26 1.32 3.26 3.5v6.98h-2.6v-.02zM341.42 70.5c0-.92.75-1.76 1.87-2.13-1.12-.57-1.85-1.72-1.85-3.12 0-2.09 1.65-3.87 4.47-3.87 1.14 0 2.16.33 2.86.64l2.73-.24.11 2.27-1.94-.33c.26.29.46 1.06.46 1.58 0 2.07-1.74 3.7-4.25 3.7-.48 0-.84-.04-1.39-.18-.35.13-.79.46-.79.88 0 .55.46.79 2.09.79h1.06c2.9 0 4.55.81 4.55 2.79 0 2.4-2.71 4.05-5.92 4.05-2.68 0-4.82-.99-4.82-2.82 0-1.06.77-2 2.29-2.24-.87-.32-1.53-.95-1.53-1.77zm1.6 3.48c0 .95 1.17 1.61 2.88 1.61 1.78 0 3.15-.66 3.15-1.72 0-.95-.92-1.17-2.82-1.17-.64 0-1.52-.04-1.94-.09-.72.27-1.27.75-1.27 1.37zm2.91-6.69c1.17 0 1.83-.84 1.83-2.11 0-1.21-.64-2.05-1.94-2.05-1.14 0-1.87.86-1.87 2.13 0 1.22.72 2.03 1.98 2.03zM353.85 68.63c1.23 0 2.24 1.08 2.24 2.42 0 1.91-1.72 3.32-3.48 4.38l-1.14-1.03c1.39-.97 2.22-1.8 2.22-2.55 0-.57-.42-.97-1.78-1.56.11-.95.86-1.66 1.94-1.66zM367.75 72.17c-3.3 0-5.26-2.05-5.26-5.37 0-3.3 2.16-5.44 5.35-5.44 1.39 0 2.57.31 3.5.86l-.55 2.09c-.84-.53-1.8-.81-2.75-.81-1.87 0-2.88 1.28-2.88 3.23 0 2.07 1.17 3.28 2.88 3.28 1.06 0 2.02-.29 2.82-.79l.42 2.11c-.89.54-2.16.84-3.53.84zM377.89 72.17c-2.97 0-5.13-2.02-5.13-5.39 0-3.34 2.27-5.44 5.26-5.44 2.99 0 5.13 2.07 5.13 5.41 0 3.33-2.29 5.42-5.26 5.42zm.05-8.73c-1.69 0-2.62 1.36-2.62 3.32 0 1.94.97 3.3 2.66 3.3 1.67 0 2.6-1.32 2.6-3.28 0-1.95-.97-3.34-2.64-3.34zM398.07 71.84v-6.16c0-1.5-.59-2.02-1.67-2.02-.9 0-1.61.46-2.11.9v7.29h-2.6v-6.16c0-1.5-.57-2.02-1.65-2.02-.92 0-1.63.37-2.11.84v7.35h-2.6v-10.1l2.6-.35v1.43c.95-.95 1.98-1.45 3.23-1.45 1.23 0 2.27.59 2.77 1.74 1.01-1.1 2.22-1.74 3.61-1.74 1.92 0 3.12 1.32 3.12 3.52v6.95h-2.59v-.02zM416.09 71.84v-6.16c0-1.5-.59-2.02-1.67-2.02-.9 0-1.61.46-2.11.9v7.29h-2.6v-6.16c0-1.5-.57-2.02-1.65-2.02-.92 0-1.63.37-2.11.84v7.35h-2.6v-10.1l2.6-.35v1.43c.95-.95 1.98-1.45 3.23-1.45 1.23 0 2.27.59 2.77 1.74 1.01-1.1 2.22-1.74 3.61-1.74 1.92 0 3.12 1.32 3.12 3.52v6.95h-2.59v-.02zM423.87 61.7v6.18c0 1.5.62 1.98 1.72 1.98.92 0 1.74-.42 2.22-.88V61.7h2.6v10.08l-2.6.35v-1.5c-.84.9-2.05 1.54-3.34 1.54-1.98 0-3.19-1.32-3.19-3.5v-6.98h2.59v.01zM439.78 71.84v-6.18c0-1.5-.59-2-1.76-2-.9 0-1.74.46-2.24.95v7.24h-2.6v-10.1l2.6-.35v1.61c.9-.99 2.11-1.63 3.34-1.63 2.05 0 3.26 1.32 3.26 3.5v6.98h-2.6v-.02zM446.38 59.85c-1.01 0-1.58-.62-1.58-1.56 0-.92.57-1.56 1.58-1.56 1.03 0 1.61.64 1.61 1.56-.01.95-.58 1.56-1.61 1.56zm-1.3 11.99V61.76l2.6-.37v10.45h-2.6zM455.11 72.17c-3.3 0-5.26-2.05-5.26-5.37 0-3.3 2.16-5.44 5.35-5.44 1.39 0 2.57.31 3.5.86l-.55 2.09c-.84-.53-1.8-.81-2.75-.81-1.87 0-2.88 1.28-2.88 3.23 0 2.07 1.17 3.28 2.88 3.28 1.06 0 2.02-.29 2.82-.79l.42 2.11c-.89.54-2.16.84-3.53.84zM466.11 70.68c-.73.88-1.61 1.5-2.86 1.5-1.83 0-3.15-1.25-3.15-2.86 0-1.87 1.36-3.45 6.01-3.61v-.24c0-1.36-.57-1.94-2.02-1.94-1.03 0-2.29.46-3.37 1.08l-.53-2.05c.99-.62 2.57-1.19 4.25-1.19 3.12 0 4.33 1.39 4.27 4.18v3.63c0 .77.13.88.9.92l-.2 1.96c-1.94.22-2.84-.37-3.21-1.39h-.09v.01zm0-3.61c-2.53.31-3.45.81-3.45 1.89 0 .77.59 1.32 1.52 1.32.81 0 1.47-.37 1.94-.88v-2.33h-.01zM474.96 72.17c-2.27 0-3.45-.99-3.37-3.43l.15-4.77-1.58-.18.07-1.65 1.58-.51.04-2.24h2.51l-.04 2.38h2.86l-.07 2.13h-2.95l-.13 4.69c-.02.95.46 1.39 1.34 1.39.53 0 1.06-.13 1.58-.31l.35 2.11c-.76.26-1.47.39-2.34.39zM480.54 59.85c-1.01 0-1.58-.62-1.58-1.56 0-.92.57-1.56 1.58-1.56 1.03 0 1.61.64 1.61 1.56 0 .95-.57 1.56-1.61 1.56zm-1.3 11.99V61.76l2.6-.37v10.45h-2.6zM489.85 71.87L487.08 71.87 483.21 61.7 485.98 61.7 488.53 69.12 490.97 61.7 493.76 61.7zM496.98 67.33c.11 1.65 1.23 2.77 3.04 2.77 1.08 0 2.24-.35 3.17-.92l.33 2.16c-.97.53-2.31.84-3.67.84-3.26 0-5.41-2.07-5.41-5.3 0-3.3 2.2-5.5 5.24-5.5 2.68 0 4.18 1.63 4.18 4.11 0 .55-.09 1.25-.22 1.69l-6.64.09v.06h-.02zm4.42-1.6v-.18c0-1.36-.59-2.22-1.94-2.22-1.43 0-2.29 1.17-2.42 2.42l4.36-.02zM507.25 68.63c1.23 0 2.24 1.08 2.24 2.42 0 1.91-1.72 3.32-3.48 4.38l-1.14-1.03c1.39-.97 2.22-1.8 2.22-2.55 0-.57-.42-.97-1.78-1.56.11-.95.86-1.66 1.94-1.66zM7.51 98.68c-.73.88-1.61 1.5-2.86 1.5-1.83 0-3.15-1.25-3.15-2.86 0-1.87 1.36-3.45 6.01-3.61v-.24c0-1.36-.57-1.94-2.02-1.94-1.03 0-2.29.46-3.37 1.08l-.53-2.05c.99-.62 2.57-1.19 4.25-1.19 3.12 0 4.33 1.39 4.27 4.18v3.63c0 .77.13.88.9.92l-.2 1.96c-1.94.22-2.84-.37-3.21-1.39h-.09v.01zm0-3.61c-2.53.31-3.45.81-3.45 1.89 0 .77.59 1.32 1.52 1.32.81 0 1.47-.37 1.94-.88v-2.33h-.01zM19.37 99.84v-6.18c0-1.5-.59-2-1.76-2-.9 0-1.74.46-2.24.95v7.24h-2.6v-10.1l2.6-.35v1.61c.9-.99 2.11-1.63 3.34-1.63 2.05 0 3.26 1.32 3.26 3.5v6.98h-2.6v-.02zM31.36 85.15l2.6-.35v15.05h-2.6v-.99c-.68.66-1.61 1.32-2.86 1.32-2.68 0-4.42-2.18-4.42-5.32 0-3.23 2.24-5.48 5.13-5.48.73 0 1.52.13 2.16.33v-4.56h-.01zm-1.92 6.29c-1.74 0-2.73 1.43-2.73 3.3 0 1.98.99 3.23 2.55 3.23.86 0 1.52-.31 2.09-.84v-5.1c-.5-.37-1.14-.59-1.91-.59zM45.33 100.17c-2.27 0-3.45-.99-3.37-3.43l.15-4.77-1.58-.18.07-1.65 1.58-.51.04-2.24h2.51l-.04 2.38h2.86l-.07 2.13h-2.95l-.13 4.69c-.02.95.46 1.39 1.34 1.39.53 0 1.06-.13 1.58-.31l.35 2.11c-.76.26-1.46.39-2.34.39zM52.21 99.84h-2.6V89.76l2.6-.37v1.65c.64-1.08 1.45-1.67 2.64-1.67.62 0 1.25.13 1.8.46l-.57 2.33c-.48-.26-.97-.4-1.45-.4-.9 0-1.74.57-2.42 1.8v6.28zM60.73 89.7v6.18c0 1.5.62 1.98 1.72 1.98.92 0 1.74-.42 2.22-.88V89.7h2.6v10.08l-2.6.35v-1.5c-.84.9-2.05 1.54-3.34 1.54-1.98 0-3.19-1.32-3.19-3.5v-6.98h2.59v.01zM70.03 99.84L70.03 85.14 72.63 84.79 72.63 99.84zM80.61 99.65l-.59 1.58c-1.01 2.77-2.16 3.61-4.03 3.61-.92 0-1.76-.22-2.57-.59l.77-2.13c.59.29 1.08.48 1.61.48.75 0 1.14-.33 1.69-1.72l.44-1.17-3.96-10.01h2.79l2.53 7.26 2.42-7.26h2.77l-3.87 9.95zM95.6 100.15c-.66 0-1.61-.13-2.27-.35l-2.49.37V85.14l2.6-.35v5.88c.68-.66 1.61-1.3 2.84-1.3 2.68 0 4.44 2.18 4.44 5.3 0 3.24-2.24 5.48-5.12 5.48zm-.07-8.6c-.86 0-1.52.33-2.09.84v5.13c.48.37 1.14.57 1.91.57 1.74 0 2.73-1.41 2.73-3.3 0-1.99-.94-3.24-2.55-3.24zM104.79 95.33c.11 1.65 1.23 2.77 3.04 2.77 1.08 0 2.24-.35 3.17-.92l.33 2.16c-.97.53-2.31.84-3.67.84-3.26 0-5.41-2.07-5.41-5.3 0-3.3 2.2-5.5 5.24-5.5 2.68 0 4.18 1.63 4.18 4.11 0 .55-.09 1.25-.22 1.69l-6.64.09v.06h-.02zm4.42-1.6v-.18c0-1.36-.59-2.22-1.94-2.22-1.43 0-2.29 1.17-2.42 2.42l4.36-.02zM119.14 98.68c-.73.88-1.61 1.5-2.86 1.5-1.83 0-3.15-1.25-3.15-2.86 0-1.87 1.36-3.45 6.01-3.61v-.24c0-1.36-.57-1.94-2.02-1.94-1.03 0-2.29.46-3.37 1.08l-.53-2.05c.99-.62 2.57-1.19 4.25-1.19 3.12 0 4.33 1.39 4.27 4.18v3.63c0 .77.13.88.9.92l-.2 1.96c-1.94.22-2.84-.37-3.21-1.39h-.09v.01zm0-3.61c-2.53.31-3.45.81-3.45 1.89 0 .77.59 1.32 1.52 1.32.81 0 1.47-.37 1.94-.88v-2.33h-.01zM126.9 89.7v6.18c0 1.5.62 1.98 1.72 1.98.92 0 1.74-.42 2.22-.88V89.7h2.6v10.08l-2.6.35v-1.5c-.84.9-2.05 1.54-3.34 1.54-1.98 0-3.19-1.32-3.19-3.5v-6.98h2.59v.01zM139.79 100.17c-2.27 0-3.45-.99-3.37-3.43l.15-4.77-1.58-.18.07-1.65 1.58-.51.04-2.24h2.51l-.04 2.38h2.86l-.07 2.13H139l-.13 4.69c-.02.95.46 1.39 1.34 1.39.53 0 1.06-.13 1.58-.31l.35 2.11c-.76.26-1.47.39-2.35.39zM145.38 87.85c-1.01 0-1.58-.62-1.58-1.56 0-.92.57-1.56 1.58-1.56 1.03 0 1.61.64 1.61 1.56 0 .95-.57 1.56-1.61 1.56zm-1.3 11.99V89.76l2.6-.37v10.45h-2.6zM155.44 87.26c-.48-.22-1.06-.42-1.65-.42-.95 0-1.34.55-1.34 1.8v1.12h3.01l-.07 2.13h-2.88v7.94h-2.6v-7.92l-1.76-.13.09-1.65 1.65-.48.02-1.08c.07-2.9 1.41-4.05 3.67-4.05.99 0 1.89.29 2.4.51.01.03-.54 2.25-.54 2.23zM159.5 89.7v6.18c0 1.5.62 1.98 1.72 1.98.92 0 1.74-.42 2.22-.88V89.7h2.6v10.08l-2.6.35v-1.5c-.84.9-2.05 1.54-3.34 1.54-1.98 0-3.19-1.32-3.19-3.5v-6.98h2.59v.01zM168.81 99.84L168.81 85.14 171.41 84.79 171.41 99.84zM183.73 100.17c-2.97 0-5.13-2.02-5.13-5.39 0-3.34 2.27-5.44 5.26-5.44 2.99 0 5.13 2.07 5.13 5.41 0 3.33-2.29 5.42-5.26 5.42zm.04-8.73c-1.69 0-2.62 1.36-2.62 3.32 0 1.94.97 3.3 2.66 3.3 1.67 0 2.6-1.32 2.6-3.28 0-1.95-.97-3.34-2.64-3.34zM196.6 89.37c2.68 0 4.44 2.18 4.44 5.3 0 3.23-2.24 5.48-5.13 5.48-.66 0-1.52-.09-2.16-.29v4.82h-2.6V89.74l2.6-.35v1.28c.69-.66 1.61-1.3 2.85-1.3zm-2.84 8.14c.48.37 1.14.57 1.91.57 1.74 0 2.73-1.41 2.73-3.3 0-1.98-.95-3.23-2.55-3.23-.86 0-1.52.33-2.09.84v5.12zM206.8 100.17c-2.27 0-3.45-.99-3.37-3.43l.15-4.77-1.58-.18.07-1.65 1.58-.51.04-2.24h2.51l-.04 2.38h2.86l-.07 2.13H206l-.13 4.69c-.02.95.46 1.39 1.34 1.39.53 0 1.06-.13 1.58-.31l.35 2.11c-.75.26-1.46.39-2.34.39zM212.39 87.85c-1.01 0-1.58-.62-1.58-1.56 0-.92.57-1.56 1.58-1.56 1.03 0 1.61.64 1.61 1.56 0 .95-.57 1.56-1.61 1.56zm-1.3 11.99V89.76l2.6-.37v10.45h-2.6zM220.99 100.17c-2.97 0-5.13-2.02-5.13-5.39 0-3.34 2.27-5.44 5.26-5.44 2.99 0 5.13 2.07 5.13 5.41 0 3.33-2.29 5.42-5.26 5.42zm.05-8.73c-1.69 0-2.62 1.36-2.62 3.32 0 1.94.97 3.3 2.66 3.3 1.67 0 2.6-1.32 2.6-3.28 0-1.95-.97-3.34-2.64-3.34zM235.03 99.84v-6.18c0-1.5-.59-2-1.76-2-.9 0-1.74.46-2.24.95v7.24h-2.6v-10.1l2.6-.35v1.61c.9-.99 2.11-1.63 3.34-1.63 2.05 0 3.26 1.32 3.26 3.5v6.98h-2.6v-.02zM243.48 100.2c-1.32 0-2.93-.37-3.94-.95l.57-2.02c1.01.57 2.31.95 3.43.95 1.01 0 1.67-.42 1.67-1.12 0-.79-.86-1.08-2.05-1.36-1.91-.44-3.43-1.23-3.43-3.15 0-1.91 1.61-3.17 4.05-3.17 1.25 0 2.75.33 3.7.81l-.57 2.02c-.99-.51-2.29-.84-3.19-.84-.95 0-1.52.35-1.52 1.01 0 .77.86 1.03 2.05 1.32 1.94.46 3.45 1.21 3.45 3.19 0 1.9-1.63 3.31-4.22 3.31zM258.42 100.17c-2.27 0-3.45-.99-3.37-3.43l.15-4.77-1.58-.18.07-1.65 1.58-.51.04-2.24h2.51l-.04 2.38h2.86l-.07 2.13h-2.95l-.13 4.69c-.02.95.46 1.39 1.34 1.39.53 0 1.06-.13 1.58-.31l.35 2.11c-.76.26-1.47.39-2.34.39zM269.31 99.84v-6.18c0-1.5-.59-2-1.69-2-.97 0-1.8.46-2.31.95v7.24h-2.6v-14.7l2.6-.35v6.18c.9-.99 2.11-1.61 3.43-1.61 1.96 0 3.17 1.32 3.17 3.5v6.98h-2.6v-.01zM279.93 98.68c-.73.88-1.61 1.5-2.86 1.5-1.83 0-3.15-1.25-3.15-2.86 0-1.87 1.36-3.45 6.01-3.61v-.24c0-1.36-.57-1.94-2.02-1.94-1.03 0-2.29.46-3.37 1.08l-.53-2.05c.99-.62 2.57-1.19 4.25-1.19 3.12 0 4.33 1.39 4.27 4.18v3.63c0 .77.13.88.9.92l-.2 1.96c-1.94.22-2.84-.37-3.21-1.39h-.09v.01zm0-3.61c-2.53.31-3.45.81-3.45 1.89 0 .77.59 1.32 1.52 1.32.81 0 1.47-.37 1.94-.88v-2.33h-.01zM288.77 100.17c-2.27 0-3.45-.99-3.37-3.43l.15-4.77-1.58-.18.07-1.65 1.58-.51.04-2.24h2.51l-.04 2.38H291l-.07 2.13h-2.95l-.13 4.69c-.02.95.46 1.39 1.34 1.39.53 0 1.06-.13 1.58-.31l.35 2.11c-.76.26-1.47.39-2.35.39zM299.97 99.89L296.96 89.7 299.67 89.7 301.43 96.83 303.45 89.72 306.05 89.72 308.23 96.78 309.75 89.7 312.5 89.7 309.53 99.89 306.98 99.89 304.71 92.76 302.51 99.89zM316.08 95.33c.11 1.65 1.23 2.77 3.04 2.77 1.08 0 2.24-.35 3.17-.92l.33 2.16c-.97.53-2.31.84-3.67.84-3.26 0-5.41-2.07-5.41-5.3 0-3.3 2.2-5.5 5.24-5.5 2.68 0 4.18 1.63 4.18 4.11 0 .55-.09 1.25-.22 1.69l-6.64.09v.06h-.02zm4.42-1.6v-.18c0-1.36-.59-2.22-1.94-2.22-1.43 0-2.29 1.17-2.42 2.42l4.36-.02zM332 99.89L328.99 89.7 331.7 89.7 333.46 96.83 335.48 89.72 338.08 89.72 340.26 96.78 341.78 89.7 344.53 89.7 341.56 99.89 339 99.89 336.73 92.76 334.53 99.89zM350.72 100.17c-2.97 0-5.13-2.02-5.13-5.39 0-3.34 2.27-5.44 5.26-5.44 2.99 0 5.13 2.07 5.13 5.41 0 3.33-2.28 5.42-5.26 5.42zm.05-8.73c-1.69 0-2.62 1.36-2.62 3.32 0 1.94.97 3.3 2.66 3.3 1.67 0 2.6-1.32 2.6-3.28 0-1.95-.97-3.34-2.64-3.34zM360.76 99.84h-2.6V89.76l2.6-.37v1.65c.64-1.08 1.45-1.67 2.64-1.67.62 0 1.25.13 1.8.46l-.57 2.33c-.48-.26-.97-.4-1.45-.4-.9 0-1.74.57-2.42 1.8v6.28zM369.36 94.96L369.36 99.84 366.76 99.84 366.76 85.14 369.36 84.79 369.36 94.21 369.4 94.21 373.03 89.7 376.13 89.7 371.93 94.52 376.15 99.84 373.05 99.84 369.4 94.96zM386.23 100.17c-2.27 0-3.45-.99-3.37-3.43l.15-4.77-1.58-.18.07-1.65 1.58-.51.04-2.24h2.51l-.04 2.38h2.86l-.07 2.13h-2.95l-.13 4.69c-.02.95.46 1.39 1.34 1.39.53 0 1.06-.13 1.58-.31l.35 2.11c-.75.26-1.46.39-2.34.39zM394.94 100.17c-2.97 0-5.13-2.02-5.13-5.39 0-3.34 2.27-5.44 5.26-5.44 2.99 0 5.13 2.07 5.13 5.41 0 3.33-2.29 5.42-5.26 5.42zm.05-8.73c-1.69 0-2.62 1.36-2.62 3.32 0 1.94.97 3.3 2.66 3.3 1.67 0 2.6-1.32 2.6-3.28 0-1.95-.97-3.34-2.64-3.34zM401.81 98.5c0-.92.75-1.76 1.87-2.13-1.12-.57-1.85-1.72-1.85-3.12 0-2.09 1.65-3.87 4.47-3.87 1.14 0 2.16.33 2.86.64l2.73-.24.11 2.27-1.94-.33c.26.29.46 1.06.46 1.58 0 2.07-1.74 3.7-4.25 3.7-.48 0-.84-.04-1.39-.18-.35.13-.79.46-.79.88 0 .55.46.79 2.09.79h1.06c2.9 0 4.55.81 4.55 2.79 0 2.4-2.71 4.05-5.92 4.05-2.68 0-4.82-.99-4.82-2.82 0-1.06.77-2 2.29-2.24-.87-.32-1.53-.95-1.53-1.77zm1.6 3.48c0 .95 1.17 1.61 2.88 1.61 1.78 0 3.15-.66 3.15-1.72 0-.95-.92-1.17-2.82-1.17-.64 0-1.52-.04-1.94-.09-.72.27-1.27.75-1.27 1.37zm2.91-6.69c1.17 0 1.83-.84 1.83-2.11 0-1.21-.64-2.05-1.94-2.05-1.14 0-1.87.86-1.87 2.13 0 1.22.72 2.03 1.98 2.03zM415.38 95.33c.11 1.65 1.23 2.77 3.04 2.77 1.08 0 2.24-.35 3.17-.92l.33 2.16c-.97.53-2.31.84-3.67.84-3.26 0-5.41-2.07-5.41-5.3 0-3.3 2.2-5.5 5.24-5.5 2.68 0 4.18 1.63 4.18 4.11 0 .55-.09 1.25-.22 1.69l-6.64.09v.06h-.02zm4.42-1.6v-.18c0-1.36-.59-2.22-1.94-2.22-1.43 0-2.29 1.17-2.42 2.42l4.36-.02zM427.99 100.17c-2.27 0-3.45-.99-3.37-3.43l.15-4.77-1.58-.18.07-1.65 1.58-.51.04-2.24h2.51l-.04 2.38h2.86l-.07 2.13h-2.95l-.13 4.69c-.02.95.46 1.39 1.34 1.39.53 0 1.06-.13 1.58-.31l.35 2.11c-.76.26-1.46.39-2.34.39zM438.88 99.84v-6.18c0-1.5-.59-2-1.69-2-.97 0-1.8.46-2.31.95v7.24h-2.6v-14.7l2.6-.35v6.18c.9-.99 2.11-1.61 3.43-1.61 1.96 0 3.17 1.32 3.17 3.5v6.98h-2.6v-.01zM446.14 95.33c.11 1.65 1.23 2.77 3.04 2.77 1.08 0 2.24-.35 3.17-.92l.33 2.16c-.97.53-2.31.84-3.67.84-3.26 0-5.41-2.07-5.41-5.3 0-3.3 2.2-5.5 5.24-5.5 2.68 0 4.18 1.63 4.18 4.11 0 .55-.09 1.25-.22 1.69l-6.64.09v.06h-.02zm4.42-1.6v-.18c0-1.36-.59-2.22-1.94-2.22-1.43 0-2.29 1.17-2.42 2.42l4.36-.02zM457.75 99.84h-2.6V89.76l2.6-.37v1.65c.64-1.08 1.45-1.67 2.64-1.67.62 0 1.25.13 1.8.46l-.57 2.33c-.48-.26-.97-.4-1.45-.4-.9 0-1.74.57-2.42 1.8v6.28zM472.36 100.17c-2.27 0-3.45-.99-3.37-3.43l.15-4.77-1.58-.18.07-1.65 1.58-.51.04-2.24h2.51l-.04 2.38h2.86l-.07 2.13h-2.95l-.13 4.69c-.02.95.46 1.39 1.34 1.39.53 0 1.06-.13 1.58-.31l.35 2.11c-.76.26-1.46.39-2.34.39zM481.07 100.17c-2.97 0-5.13-2.02-5.13-5.39 0-3.34 2.27-5.44 5.26-5.44 2.99 0 5.13 2.07 5.13 5.41 0 3.33-2.29 5.42-5.26 5.42zm.05-8.73c-1.69 0-2.62 1.36-2.62 3.32 0 1.94.97 3.3 2.66 3.3 1.67 0 2.6-1.32 2.6-3.28 0-1.95-.97-3.34-2.64-3.34zM8.02 115.21c-.46-.2-.99-.37-1.5-.37-.95 0-1.34.55-1.34 1.8v1.12h2.95l-.07 2.13H5.24v7.94h-2.6v-7.92l-1.76-.13.09-1.65 1.65-.48.02-1.08c.07-2.9 1.39-4.05 3.67-4.05.84 0 1.67.24 2.2.44.01.05-.49 2.28-.49 2.25zm2.79.77c-1.03 0-1.58-.62-1.58-1.54 0-.95.55-1.56 1.58-1.56s1.61.62 1.61 1.56c0 .93-.57 1.54-1.61 1.54zm-1.3 11.86v-10.08l2.6-.37v10.45h-2.6zM21.42 127.84v-6.18c0-1.5-.59-2-1.76-2-.9 0-1.74.46-2.24.95v7.24h-2.6v-10.1l2.6-.35v1.61c.9-.99 2.11-1.63 3.34-1.63 2.05 0 3.26 1.32 3.26 3.5v6.98h-2.6v-.02zM32.04 126.68c-.73.88-1.61 1.5-2.86 1.5-1.83 0-3.15-1.25-3.15-2.86 0-1.87 1.36-3.45 6.01-3.61v-.24c0-1.36-.57-1.94-2.02-1.94-1.03 0-2.29.46-3.37 1.08l-.53-2.05c.99-.62 2.57-1.19 4.25-1.19 3.12 0 4.33 1.39 4.27 4.18v3.63c0 .77.13.88.9.92l-.2 1.96c-1.94.22-2.84-.37-3.21-1.39h-.09v.01zm0-3.61c-2.53.31-3.45.81-3.45 1.89 0 .77.59 1.32 1.52 1.32.81 0 1.47-.37 1.94-.88v-2.33h-.01zM37.3 127.84L37.3 113.14 39.9 112.79 39.9 127.84zM43.96 115.85c-1.01 0-1.58-.62-1.58-1.56 0-.92.57-1.56 1.58-1.56 1.03 0 1.61.64 1.61 1.56 0 .95-.57 1.56-1.61 1.56zm-1.29 11.99v-10.08l2.6-.37v10.45h-2.6zM47.09 127.84L47.09 126.06 52.39 119.9 47.28 119.9 47.28 117.7 55.71 117.7 55.71 119.44 50.38 125.62 55.71 125.62 55.71 127.84 47.09 127.84zM59.43 123.33c.11 1.65 1.23 2.77 3.04 2.77 1.08 0 2.24-.35 3.17-.92l.33 2.16c-.97.53-2.31.84-3.67.84-3.26 0-5.41-2.07-5.41-5.3 0-3.3 2.2-5.5 5.24-5.5 2.68 0 4.18 1.63 4.18 4.11 0 .55-.09 1.25-.22 1.69l-6.64.09v.06h-.02zm4.42-1.6v-.18c0-1.36-.59-2.22-1.94-2.22-1.43 0-2.29 1.17-2.42 2.42l4.36-.02zM69.84 128.17c-1.03 0-1.76-.75-1.76-1.72s.73-1.69 1.76-1.69c1.01 0 1.72.73 1.72 1.69s-.71 1.72-1.72 1.72zM79.18 127.84L79.18 114.09 81.84 114.09 81.84 127.84zM88.45 128.17c-2.27 0-3.45-.99-3.37-3.43l.15-4.77-1.58-.18.07-1.65 1.58-.51.04-2.24h2.51l-.04 2.38h2.86l-.07 2.13h-2.95l-.13 4.69c-.02.95.46 1.39 1.34 1.39.53 0 1.06-.13 1.58-.31l.35 2.11c-.76.26-1.46.39-2.34.39zM99.05 115.85c-1.01 0-1.58-.62-1.58-1.56 0-.92.57-1.56 1.58-1.56 1.03 0 1.61.64 1.61 1.56 0 .95-.58 1.56-1.61 1.56zm-1.3 11.99v-10.08l2.6-.37v10.45h-2.6zM106.27 128.2c-1.32 0-2.93-.37-3.94-.95l.57-2.02c1.01.57 2.31.95 3.43.95 1.01 0 1.67-.42 1.67-1.12 0-.79-.86-1.08-2.05-1.36-1.91-.44-3.43-1.23-3.43-3.15 0-1.91 1.61-3.17 4.05-3.17 1.25 0 2.75.33 3.7.81l-.57 2.02c-.99-.51-2.29-.84-3.19-.84-.95 0-1.52.35-1.52 1.01 0 .77.86 1.03 2.05 1.32 1.94.46 3.45 1.21 3.45 3.19 0 1.9-1.63 3.31-4.22 3.31zM122.94 126.68c-.73.88-1.61 1.5-2.86 1.5-1.83 0-3.15-1.25-3.15-2.86 0-1.87 1.36-3.45 6.01-3.61v-.24c0-1.36-.57-1.94-2.02-1.94-1.03 0-2.29.46-3.37 1.08l-.53-2.05c.99-.62 2.57-1.19 4.25-1.19 3.12 0 4.33 1.39 4.27 4.18v3.63c0 .77.13.88.9.92l-.2 1.96c-1.94.22-2.84-.37-3.21-1.39h-.09v.01zm0-3.61c-2.53.31-3.45.81-3.45 1.89 0 .77.59 1.32 1.52 1.32.81 0 1.47-.37 1.94-.88v-2.33h-.01zM136.8 128.17c-2.27 0-3.45-.99-3.37-3.43l.15-4.77-1.58-.18.07-1.65 1.58-.51.04-2.24h2.51l-.04 2.38h2.86l-.07 2.13H136l-.13 4.69c-.02.95.46 1.39 1.34 1.39.53 0 1.06-.13 1.58-.31l.35 2.11c-.75.26-1.46.39-2.34.39zM143.69 127.84h-2.6v-10.08l2.6-.37v1.65c.64-1.08 1.45-1.67 2.64-1.67.62 0 1.25.13 1.8.46l-.57 2.33c-.48-.26-.97-.4-1.45-.4-.9 0-1.74.57-2.42 1.8v6.28zM152.2 117.7v6.18c0 1.5.62 1.98 1.72 1.98.92 0 1.74-.42 2.22-.88v-7.28h2.6v10.08l-2.6.35v-1.5c-.84.9-2.05 1.54-3.34 1.54-1.98 0-3.19-1.32-3.19-3.5v-6.98h2.59v.01zM163.47 123.33c.11 1.65 1.23 2.77 3.04 2.77 1.08 0 2.24-.35 3.17-.92l.33 2.16c-.97.53-2.31.84-3.67.84-3.26 0-5.41-2.07-5.41-5.3 0-3.3 2.2-5.5 5.24-5.5 2.68 0 4.18 1.63 4.18 4.11 0 .55-.09 1.25-.22 1.69l-6.64.09v.06h-.02zm4.42-1.6v-.18c0-1.36-.59-2.22-1.94-2.22-1.43 0-2.29 1.17-2.42 2.42l4.36-.02zM175.72 131.47c1.25-.59 1.78-1.41 1.78-3.59v-10.12l2.6-.37v10.54c0 2.95-.75 4.44-2.79 5.3l-1.59-1.76zm3.08-15.62c-1.01 0-1.58-.62-1.58-1.56 0-.92.57-1.56 1.58-1.56 1.03 0 1.61.64 1.61 1.56 0 .95-.58 1.56-1.61 1.56zM187.36 128.17c-2.97 0-5.13-2.02-5.13-5.39 0-3.34 2.27-5.44 5.26-5.44 2.99 0 5.13 2.07 5.13 5.41 0 3.33-2.29 5.42-5.26 5.42zm.04-8.73c-1.69 0-2.62 1.36-2.62 3.32 0 1.94.97 3.3 2.66 3.3 1.67 0 2.6-1.32 2.6-3.28 0-1.95-.97-3.34-2.64-3.34zM199.76 127.65l-.59 1.58c-1.01 2.77-2.16 3.61-4.03 3.61-.92 0-1.76-.22-2.57-.59l.77-2.13c.59.29 1.08.48 1.61.48.75 0 1.14-.33 1.69-1.72l.44-1.17-3.96-10.01h2.79l2.53 7.26 2.42-7.26h2.77l-3.87 9.95zM213.58 128.17c-2.27 0-3.45-.99-3.37-3.43l.15-4.77-1.58-.18.07-1.65 1.58-.51.04-2.24h2.51l-.04 2.38h2.86l-.07 2.13h-2.95l-.13 4.69c-.02.95.46 1.39 1.34 1.39.53 0 1.06-.13 1.58-.31l.35 2.11c-.76.26-1.46.39-2.34.39zM222.29 128.17c-2.97 0-5.13-2.02-5.13-5.39 0-3.34 2.27-5.44 5.26-5.44 2.99 0 5.13 2.07 5.13 5.41 0 3.33-2.29 5.42-5.26 5.42zm.05-8.73c-1.69 0-2.62 1.36-2.62 3.32 0 1.94.97 3.3 2.66 3.3 1.67 0 2.6-1.32 2.6-3.28 0-1.95-.97-3.34-2.64-3.34zM236.64 127.89L233.63 117.7 236.34 117.7 238.1 124.83 240.12 117.72 242.72 117.72 244.9 124.78 246.42 117.7 249.17 117.7 246.2 127.89 243.65 127.89 241.38 120.76 239.18 127.89zM255.36 128.17c-2.97 0-5.13-2.02-5.13-5.39 0-3.34 2.27-5.44 5.26-5.44 2.99 0 5.13 2.07 5.13 5.41 0 3.33-2.29 5.42-5.26 5.42zm.04-8.73c-1.69 0-2.62 1.36-2.62 3.32 0 1.94.97 3.3 2.66 3.3 1.67 0 2.6-1.32 2.6-3.28 0-1.95-.97-3.34-2.64-3.34zM265.39 127.84h-2.6v-10.08l2.6-.37v1.65c.64-1.08 1.45-1.67 2.64-1.67.62 0 1.25.13 1.8.46l-.57 2.33c-.48-.26-.97-.4-1.45-.4-.9 0-1.74.57-2.42 1.8v6.28zM273.99 122.96L273.99 127.84 271.39 127.84 271.39 113.14 273.99 112.79 273.99 122.21 274.03 122.21 277.66 117.7 280.76 117.7 276.56 122.52 280.78 127.84 277.68 127.84 274.03 122.96zM289.17 127.89L286.16 117.7 288.87 117.7 290.63 124.83 292.65 117.72 295.25 117.72 297.43 124.78 298.95 117.7 301.7 117.7 298.73 127.89 296.18 127.89 293.91 120.76 291.71 127.89zM304.59 115.85c-1.01 0-1.58-.62-1.58-1.56 0-.92.57-1.56 1.58-1.56 1.03 0 1.61.64 1.61 1.56 0 .95-.57 1.56-1.61 1.56zm-1.3 11.99v-10.08l2.6-.37v10.45h-2.6zM312.25 128.17c-2.27 0-3.45-.99-3.37-3.43l.15-4.77-1.58-.18.07-1.65 1.58-.51.04-2.24h2.51l-.04 2.38h2.86l-.07 2.13h-2.95l-.13 4.69c-.02.95.46 1.39 1.34 1.39.53 0 1.06-.13 1.58-.31l.35 2.11c-.76.26-1.46.39-2.34.39zM323.14 127.84v-6.18c0-1.5-.59-2-1.69-2-.97 0-1.8.46-2.31.95v7.24h-2.6v-14.7l2.6-.35v6.18c.9-.99 2.11-1.61 3.43-1.61 1.96 0 3.17 1.32 3.17 3.5v6.98h-2.6v-.01zM336.36 120.41l5.19-6.31h3.19l-5.9 6.75 5.98 7h-3.28l-5.19-6.29h-.02v6.29h-2.68V114.1h2.68v6.31h.03zM351.61 126.68c-.73.88-1.61 1.5-2.86 1.5-1.83 0-3.15-1.25-3.15-2.86 0-1.87 1.36-3.45 6.01-3.61v-.24c0-1.36-.57-1.94-2.02-1.94-1.03 0-2.29.46-3.37 1.08l-.53-2.05c.99-.62 2.57-1.19 4.25-1.19 3.12 0 4.33 1.39 4.27 4.18v3.63c0 .77.13.88.9.92l-.2 1.96c-1.94.22-2.84-.37-3.21-1.39h-.09v.01zm0-3.61c-2.53.31-3.45.81-3.45 1.89 0 .77.59 1.32 1.52 1.32.81 0 1.47-.37 1.94-.88v-2.33h-.01z" transform="translate(-51 -5923) translate(51 5923) translate(108 117)"/>
                    <path d="M361.95 127.65l-.59 1.58c-1.01 2.77-2.16 3.61-4.03 3.61-.92 0-1.76-.22-2.57-.59l.77-2.13c.59.29 1.08.48 1.61.48.75 0 1.14-.33 1.69-1.72l.44-1.17-3.96-10.01h2.79l2.53 7.26 2.42-7.26h2.77l-3.87 9.95zM367.53 124.63c1.23 0 2.24 1.08 2.24 2.42 0 1.91-1.72 3.32-3.48 4.38l-1.14-1.03c1.39-.97 2.22-1.8 2.22-2.55 0-.57-.42-.97-1.78-1.56.12-.95.87-1.66 1.94-1.66zM382.1 126.68c-.73.88-1.61 1.5-2.86 1.5-1.83 0-3.15-1.25-3.15-2.86 0-1.87 1.36-3.45 6.01-3.61v-.24c0-1.36-.57-1.94-2.02-1.94-1.03 0-2.29.46-3.37 1.08l-.53-2.05c.99-.62 2.57-1.19 4.25-1.19 3.12 0 4.33 1.39 4.27 4.18v3.63c0 .77.13.88.9.92l-.2 1.96c-1.94.22-2.84-.37-3.21-1.39h-.09v.01zm0-3.61c-2.53.31-3.45.81-3.45 1.89 0 .77.59 1.32 1.52 1.32.81 0 1.47-.37 1.94-.88v-2.33h-.01zM399.06 113.15l2.6-.35v15.05h-2.6v-.99c-.68.66-1.61 1.32-2.86 1.32-2.68 0-4.42-2.18-4.42-5.32 0-3.23 2.24-5.48 5.13-5.48.73 0 1.52.13 2.16.33v-4.56h-.01zm-1.92 6.29c-1.74 0-2.73 1.43-2.73 3.3 0 1.98.99 3.23 2.55 3.23.86 0 1.52-.31 2.09-.84v-5.1c-.5-.37-1.14-.59-1.91-.59zM406.38 123.33c.11 1.65 1.23 2.77 3.04 2.77 1.08 0 2.24-.35 3.17-.92l.33 2.16c-.97.53-2.31.84-3.67.84-3.26 0-5.41-2.07-5.41-5.3 0-3.3 2.2-5.5 5.24-5.5 2.68 0 4.18 1.63 4.18 4.11 0 .55-.09 1.25-.22 1.69l-6.64.09v.06h-.02zm4.43-1.6v-.18c0-1.36-.59-2.22-1.94-2.22-1.43 0-2.29 1.17-2.42 2.42l4.36-.02zM420.84 117.37c2.68 0 4.44 2.18 4.44 5.3 0 3.23-2.24 5.48-5.13 5.48-.66 0-1.52-.09-2.16-.29v4.82h-2.6v-14.94l2.6-.35v1.28c.69-.66 1.62-1.3 2.85-1.3zm-2.84 8.14c.48.37 1.14.57 1.91.57 1.74 0 2.73-1.41 2.73-3.3 0-1.98-.95-3.23-2.55-3.23-.86 0-1.52.33-2.09.84v5.12zM429.42 123.33c.11 1.65 1.23 2.77 3.04 2.77 1.08 0 2.24-.35 3.17-.92l.33 2.16c-.97.53-2.31.84-3.67.84-3.26 0-5.41-2.07-5.41-5.3 0-3.3 2.2-5.5 5.24-5.5 2.68 0 4.18 1.63 4.18 4.11 0 .55-.09 1.25-.22 1.69l-6.64.09v.06h-.02zm4.42-1.6v-.18c0-1.36-.59-2.22-1.94-2.22-1.43 0-2.29 1.17-2.42 2.42l4.36-.02zM445.04 127.84v-6.18c0-1.5-.59-2-1.76-2-.9 0-1.74.46-2.24.95v7.24h-2.6v-10.1l2.6-.35v1.61c.9-.99 2.11-1.63 3.34-1.63 2.05 0 3.26 1.32 3.26 3.5v6.98h-2.6v-.02zM457.03 113.15l2.6-.35v15.05h-2.6v-.99c-.68.66-1.61 1.32-2.86 1.32-2.68 0-4.42-2.18-4.42-5.32 0-3.23 2.24-5.48 5.13-5.48.73 0 1.52.13 2.16.33v-4.56h-.01zm-1.92 6.29c-1.74 0-2.73 1.43-2.73 3.3 0 1.98.99 3.23 2.55 3.23.86 0 1.52-.31 2.09-.84v-5.1c-.5-.37-1.14-.59-1.91-.59zM467.72 126.68c-.73.88-1.61 1.5-2.86 1.5-1.83 0-3.15-1.25-3.15-2.86 0-1.87 1.36-3.45 6.01-3.61v-.24c0-1.36-.57-1.94-2.02-1.94-1.03 0-2.29.46-3.37 1.08l-.53-2.05c.99-.62 2.57-1.19 4.25-1.19 3.12 0 4.33 1.39 4.27 4.18v3.63c0 .77.13.88.9.92l-.2 1.96c-1.94.22-2.84-.37-3.21-1.39h-.09v.01zm0-3.61c-2.53.31-3.45.81-3.45 1.89 0 .77.59 1.32 1.52 1.32.81 0 1.47-.37 1.94-.88v-2.33h-.01zM477.73 128.15c-.66 0-1.61-.13-2.27-.35l-2.49.37v-15.03l2.6-.35v5.88c.68-.66 1.61-1.3 2.84-1.3 2.68 0 4.44 2.18 4.44 5.3 0 3.24-2.24 5.48-5.12 5.48zm-.07-8.6c-.86 0-1.52.33-2.09.84v5.13c.48.37 1.14.57 1.91.57 1.74 0 2.73-1.41 2.73-3.3 0-1.99-.94-3.24-2.55-3.24zM484.96 127.84L484.96 113.14 487.56 112.79 487.56 127.84zM492.29 123.33c.11 1.65 1.23 2.77 3.04 2.77 1.08 0 2.24-.35 3.17-.92l.33 2.16c-.97.53-2.31.84-3.67.84-3.26 0-5.41-2.07-5.41-5.3 0-3.3 2.2-5.5 5.24-5.5 2.68 0 4.18 1.63 4.18 4.11 0 .55-.09 1.25-.22 1.69l-6.64.09v.06h-.02zm4.42-1.6v-.18c0-1.36-.59-2.22-1.94-2.22-1.43 0-2.29 1.17-2.42 2.42l4.36-.02zM502.57 124.63c1.23 0 2.24 1.08 2.24 2.42 0 1.91-1.72 3.32-3.48 4.38l-1.14-1.03c1.39-.97 2.22-1.8 2.22-2.55 0-.57-.42-.97-1.78-1.56.11-.95.86-1.66 1.94-1.66zM5.33 156.2c-1.32 0-2.93-.37-3.94-.95l.57-2.02c1.01.57 2.31.95 3.43.95 1.01 0 1.67-.42 1.67-1.12 0-.79-.86-1.08-2.05-1.36-1.91-.44-3.43-1.23-3.43-3.15 0-1.91 1.61-3.17 4.05-3.17 1.25 0 2.75.33 3.7.81l-.57 2.02c-.99-.51-2.29-.84-3.19-.84-.95 0-1.52.35-1.52 1.01 0 .77.86 1.03 2.05 1.32 1.94.46 3.45 1.21 3.45 3.19.01 1.9-1.62 3.31-4.22 3.31zM14.26 150.96L14.26 155.84 11.66 155.84 11.66 141.14 14.26 140.79 14.26 150.21 14.3 150.21 17.93 145.7 21.03 145.7 16.83 150.52 21.05 155.84 17.95 155.84 14.3 150.96zM23.83 143.85c-1.01 0-1.58-.62-1.58-1.56 0-.92.57-1.56 1.58-1.56 1.03 0 1.61.64 1.61 1.56 0 .95-.57 1.56-1.61 1.56zm-1.29 11.99v-10.08l2.6-.37v10.45h-2.6zM27.9 155.84L27.9 141.14 30.5 140.79 30.5 155.84zM33.27 155.84L33.27 141.14 35.87 140.79 35.87 155.84zM40.6 151.33c.11 1.65 1.23 2.77 3.04 2.77 1.08 0 2.24-.35 3.17-.92l.33 2.16c-.97.53-2.31.84-3.67.84-3.26 0-5.41-2.07-5.41-5.3 0-3.3 2.2-5.5 5.24-5.5 2.68 0 4.18 1.63 4.18 4.11 0 .55-.09 1.25-.22 1.69l-6.64.09v.06h-.02zm4.42-1.6v-.18c0-1.36-.59-2.22-1.94-2.22-1.43 0-2.29 1.17-2.42 2.42l4.36-.02zM56.31 141.15l2.6-.35v15.05h-2.6v-.99c-.68.66-1.61 1.32-2.86 1.32-2.68 0-4.42-2.18-4.42-5.32 0-3.23 2.24-5.48 5.13-5.48.73 0 1.52.13 2.16.33v-4.56h-.01zm-1.92 6.29c-1.74 0-2.73 1.43-2.73 3.3 0 1.98.99 3.23 2.55 3.23.86 0 1.52-.31 2.09-.84v-5.1c-.5-.37-1.14-.59-1.91-.59zM62.93 152.63c1.23 0 2.24 1.08 2.24 2.42 0 1.91-1.72 3.32-3.48 4.38l-1.14-1.03c1.39-.97 2.22-1.8 2.22-2.55 0-.57-.42-.97-1.78-1.56.11-.95.86-1.66 1.94-1.66zM77.49 154.68c-.73.88-1.61 1.5-2.86 1.5-1.83 0-3.15-1.25-3.15-2.86 0-1.87 1.36-3.45 6.01-3.61v-.24c0-1.36-.57-1.94-2.02-1.94-1.03 0-2.29.46-3.37 1.08l-.53-2.05c.99-.62 2.57-1.19 4.25-1.19 3.12 0 4.33 1.39 4.27 4.18v3.63c0 .77.13.88.9.92l-.2 1.96c-1.94.22-2.84-.37-3.21-1.39h-.09v.01zm0-3.61c-2.53.31-3.45.81-3.45 1.89 0 .77.59 1.32 1.52 1.32.81 0 1.47-.37 1.94-.88v-2.33h-.01zM89.35 155.84v-6.18c0-1.5-.59-2-1.76-2-.9 0-1.74.46-2.24.95v7.24h-2.6v-10.1l2.6-.35v1.61c.9-.99 2.11-1.63 3.34-1.63 2.05 0 3.26 1.32 3.26 3.5v6.98h-2.6v-.02zM101.34 141.15l2.6-.35v15.05h-2.6v-.99c-.68.66-1.61 1.32-2.86 1.32-2.68 0-4.42-2.18-4.42-5.32 0-3.23 2.24-5.48 5.13-5.48.73 0 1.52.13 2.16.33v-4.56h-.01zm-1.91 6.29c-1.74 0-2.73 1.43-2.73 3.3 0 1.98.99 3.23 2.55 3.23.86 0 1.52-.31 2.09-.84v-5.1c-.51-.37-1.14-.59-1.91-.59zM117.71 143.26c-.48-.22-1.06-.42-1.65-.42-.95 0-1.34.55-1.34 1.8v1.12h3.01l-.07 2.13h-2.88v7.94h-2.6v-7.92l-1.76-.13.09-1.65 1.65-.48.02-1.08c.07-2.9 1.41-4.05 3.67-4.05.99 0 1.89.29 2.4.51.01.03-.54 2.25-.54 2.23zM121.86 155.84h-2.6v-10.08l2.6-.37v1.65c.64-1.08 1.45-1.67 2.64-1.67.62 0 1.25.13 1.8.46l-.57 2.33c-.48-.26-.97-.4-1.45-.4-.9 0-1.74.57-2.42 1.8v6.28zM129.17 143.85c-1.01 0-1.58-.62-1.58-1.56 0-.92.57-1.56 1.58-1.56 1.03 0 1.61.64 1.61 1.56-.01.95-.58 1.56-1.61 1.56zm-1.3 11.99v-10.08l2.6-.37v10.45h-2.6zM135.2 151.33c.11 1.65 1.23 2.77 3.04 2.77 1.08 0 2.24-.35 3.17-.92l.33 2.16c-.97.53-2.31.84-3.67.84-3.26 0-5.41-2.07-5.41-5.3 0-3.3 2.2-5.5 5.24-5.5 2.68 0 4.18 1.63 4.18 4.11 0 .55-.09 1.25-.22 1.69l-6.64.09v.06h-.02zm4.42-1.6v-.18c0-1.36-.59-2.22-1.94-2.22-1.43 0-2.29 1.17-2.42 2.42l4.36-.02zM150.82 155.84v-6.18c0-1.5-.59-2-1.76-2-.9 0-1.74.46-2.24.95v7.24h-2.6v-10.1l2.6-.35v1.61c.9-.99 2.11-1.63 3.34-1.63 2.05 0 3.26 1.32 3.26 3.5v6.98h-2.6v-.02zM162.81 141.15l2.6-.35v15.05h-2.6v-.99c-.68.66-1.61 1.32-2.86 1.32-2.68 0-4.42-2.18-4.42-5.32 0-3.23 2.24-5.48 5.13-5.48.73 0 1.52.13 2.16.33v-4.56h-.01zm-1.92 6.29c-1.74 0-2.73 1.43-2.73 3.3 0 1.98.99 3.23 2.55 3.23.86 0 1.52-.31 2.09-.84v-5.1c-.5-.37-1.14-.59-1.91-.59zM168.17 155.84L168.17 141.14 170.77 140.79 170.77 155.84zM178.75 155.65l-.59 1.58c-1.01 2.77-2.16 3.61-4.03 3.61-.92 0-1.76-.22-2.57-.59l.77-2.13c.59.29 1.08.48 1.61.48.75 0 1.14-.33 1.69-1.72l.44-1.17-3.96-10.01h2.79l2.53 7.26 2.42-7.26h2.77l-3.87 9.95zM194.42 145.37c2.68 0 4.44 2.18 4.44 5.3 0 3.23-2.24 5.48-5.13 5.48-.66 0-1.52-.09-2.16-.29v4.82h-2.6v-14.94l2.6-.35v1.28c.69-.66 1.62-1.3 2.85-1.3zm-2.84 8.14c.48.37 1.14.57 1.91.57 1.74 0 2.73-1.41 2.73-3.3 0-1.98-.95-3.23-2.55-3.23-.86 0-1.52.33-2.09.84v5.12zM203.64 155.84h-2.6v-10.08l2.6-.37v1.65c.64-1.08 1.45-1.67 2.64-1.67.62 0 1.25.13 1.8.46l-.57 2.33c-.48-.26-.97-.4-1.45-.4-.9 0-1.74.57-2.42 1.8v6.28zM214.06 156.17c-2.97 0-5.13-2.02-5.13-5.39 0-3.34 2.27-5.44 5.26-5.44 2.99 0 5.13 2.07 5.13 5.41 0 3.33-2.28 5.42-5.26 5.42zm.05-8.73c-1.69 0-2.62 1.36-2.62 3.32 0 1.94.97 3.3 2.66 3.3 1.67 0 2.6-1.32 2.6-3.28 0-1.95-.97-3.34-2.64-3.34zM227.48 143.26c-.48-.22-1.06-.42-1.65-.42-.95 0-1.34.55-1.34 1.8v1.12h3.01l-.07 2.13h-2.88v7.94h-2.6v-7.92l-1.76-.13.09-1.65 1.65-.48.02-1.08c.07-2.9 1.41-4.05 3.67-4.05.99 0 1.89.29 2.4.51.01.03-.54 2.25-.54 2.23zM231.07 151.33c.11 1.65 1.23 2.77 3.04 2.77 1.08 0 2.24-.35 3.17-.92l.33 2.16c-.97.53-2.31.84-3.67.84-3.26 0-5.41-2.07-5.41-5.3 0-3.3 2.2-5.5 5.24-5.5 2.68 0 4.18 1.63 4.18 4.11 0 .55-.09 1.25-.22 1.69l-6.64.09v.06h-.02zm4.42-1.6v-.18c0-1.36-.59-2.22-1.94-2.22-1.43 0-2.29 1.17-2.42 2.42l4.36-.02zM243.23 156.2c-1.32 0-2.93-.37-3.94-.95l.57-2.02c1.01.57 2.31.95 3.43.95 1.01 0 1.67-.42 1.67-1.12 0-.79-.86-1.08-2.05-1.36-1.91-.44-3.43-1.23-3.43-3.15 0-1.91 1.61-3.17 4.05-3.17 1.25 0 2.75.33 3.7.81l-.57 2.02c-.99-.51-2.29-.84-3.19-.84-.95 0-1.52.35-1.52 1.01 0 .77.86 1.03 2.05 1.32 1.94.46 3.45 1.21 3.45 3.19.01 1.9-1.62 3.31-4.22 3.31zM252.72 156.2c-1.32 0-2.93-.37-3.94-.95l.57-2.02c1.01.57 2.31.95 3.43.95 1.01 0 1.67-.42 1.67-1.12 0-.79-.86-1.08-2.05-1.36-1.91-.44-3.43-1.23-3.43-3.15 0-1.91 1.61-3.17 4.05-3.17 1.25 0 2.75.33 3.7.81l-.57 2.02c-.99-.51-2.29-.84-3.19-.84-.95 0-1.52.35-1.52 1.01 0 .77.86 1.03 2.05 1.32 1.94.46 3.45 1.21 3.45 3.19 0 1.9-1.63 3.31-4.22 3.31zM260.35 143.85c-1.01 0-1.58-.62-1.58-1.56 0-.92.57-1.56 1.58-1.56 1.03 0 1.61.64 1.61 1.56 0 .95-.57 1.56-1.61 1.56zm-1.3 11.99v-10.08l2.6-.37v10.45h-2.6zM268.95 156.17c-2.97 0-5.13-2.02-5.13-5.39 0-3.34 2.27-5.44 5.26-5.44 2.99 0 5.13 2.07 5.13 5.41 0 3.33-2.29 5.42-5.26 5.42zm.05-8.73c-1.69 0-2.62 1.36-2.62 3.32 0 1.94.97 3.3 2.66 3.3 1.67 0 2.6-1.32 2.6-3.28 0-1.95-.97-3.34-2.64-3.34zM282.99 155.84v-6.18c0-1.5-.59-2-1.76-2-.9 0-1.74.46-2.24.95v7.24h-2.6v-10.1l2.6-.35v1.61c.9-.99 2.11-1.63 3.34-1.63 2.05 0 3.26 1.32 3.26 3.5v6.98h-2.6v-.02zM293.62 154.68c-.73.88-1.61 1.5-2.86 1.5-1.83 0-3.15-1.25-3.15-2.86 0-1.87 1.36-3.45 6.01-3.61v-.24c0-1.36-.57-1.94-2.02-1.94-1.03 0-2.29.46-3.37 1.08l-.53-2.05c.99-.62 2.57-1.19 4.25-1.19 3.12 0 4.33 1.39 4.27 4.18v3.63c0 .77.13.88.9.92l-.2 1.96c-1.94.22-2.84-.37-3.21-1.39h-.09v.01zm0-3.61c-2.53.31-3.45.81-3.45 1.89 0 .77.59 1.32 1.52 1.32.81 0 1.47-.37 1.94-.88v-2.33h-.01zM298.87 155.84L298.87 141.14 301.47 140.79 301.47 155.84zM305.63 156.17c-1.03 0-1.76-.75-1.76-1.72s.73-1.69 1.76-1.69c1.01 0 1.72.73 1.72 1.69s-.71 1.72-1.72 1.72zM10.85 192.62c0 1.85-1.12 3.22-4.38 3.22H2.09v-11.25h4.3c3.04 0 4.09 1.26 4.09 2.97 0 1.21-.72 2.02-2.02 2.45 1.49.32 2.39 1.28 2.39 2.61zm-4.52-6.26H4.26v3.06h1.89c1.4 0 2.14-.59 2.14-1.57 0-.95-.68-1.49-1.96-1.49zm-.06 4.66H4.25v3.06h2.18c1.48 0 2.2-.52 2.2-1.55 0-1.11-.97-1.51-2.36-1.51zM18.08 196.11c-3.46 0-5.85-2.21-5.85-5.87 0-3.64 2.38-5.92 5.87-5.92 1.37 0 2.97.36 3.98.97l-.7 1.91c-.99-.61-2.12-.99-3.24-.99-2.23 0-3.69 1.53-3.69 3.96 0 2.52 1.39 4.09 3.69 4.09.79 0 1.57-.2 2.12-.45v-2.16h-2.95v-1.85h4.99v5.26c-1.21.68-2.8 1.05-4.22 1.05zM25.46 193.22c1.01 0 1.84.88 1.84 1.98 0 1.57-1.4 2.72-2.84 3.58l-.94-.85c1.13-.79 1.82-1.48 1.82-2.09 0-.47-.34-.79-1.46-1.28.09-.77.7-1.34 1.58-1.34zM41.46 187.11c-.9-.59-1.87-.9-2.95-.9-2.2 0-3.66 1.51-3.66 3.96 0 2.48 1.42 4.05 3.69 4.05 1.15 0 2.25-.43 3.08-1.01l.41 2.02c-.9.54-2.3.88-3.58.88-3.46 0-5.82-2.18-5.82-5.87 0-3.6 2.36-5.92 5.87-5.92 1.31 0 2.67.34 3.64.88l-.68 1.91zM47.38 196.11c-2.43 0-4.2-1.66-4.2-4.41 0-2.74 1.85-4.45 4.3-4.45 2.45 0 4.2 1.69 4.2 4.43.01 2.72-1.86 4.43-4.3 4.43zm.04-7.14c-1.39 0-2.14 1.12-2.14 2.72 0 1.58.79 2.7 2.18 2.7 1.37 0 2.12-1.08 2.12-2.68s-.79-2.74-2.16-2.74zM58.87 195.84v-5.06c0-1.22-.49-1.64-1.44-1.64-.74 0-1.42.38-1.84.77v5.92h-2.12v-8.26l2.12-.29v1.31c.74-.81 1.73-1.33 2.74-1.33 1.67 0 2.66 1.08 2.66 2.86v5.71h-2.12v.01zM65.78 196.13c-1.08 0-2.39-.31-3.22-.77l.47-1.66c.83.47 1.89.77 2.81.77.83 0 1.37-.34 1.37-.92 0-.65-.7-.88-1.67-1.12-1.57-.36-2.81-1.01-2.81-2.58s1.31-2.59 3.31-2.59c1.03 0 2.25.27 3.03.67l-.47 1.66c-.81-.41-1.87-.68-2.61-.68-.77 0-1.24.29-1.24.83 0 .63.7.85 1.67 1.08 1.58.38 2.83.99 2.83 2.61-.01 1.55-1.35 2.7-3.47 2.7zM73.01 187.54v5.06c0 1.22.5 1.62 1.41 1.62.76 0 1.42-.34 1.82-.72v-5.96h2.12v8.25l-2.12.29v-1.22c-.68.74-1.67 1.26-2.74 1.26-1.62 0-2.61-1.08-2.61-2.86v-5.71h2.12v-.01zM80.63 195.84L80.63 183.81 82.75 183.52 82.75 195.84zM87.96 196.11c-1.85 0-2.83-.81-2.75-2.81l.13-3.91-1.3-.14.05-1.35 1.3-.41.04-1.84h2.05l-.04 1.94h2.34l-.05 1.75h-2.41l-.11 3.84c-.02.77.38 1.13 1.1 1.13.43 0 .86-.11 1.3-.25l.29 1.73c-.65.22-1.23.32-1.94.32zM95.82 194.89c-.59.72-1.31 1.22-2.34 1.22-1.5 0-2.58-1.03-2.58-2.34 0-1.53 1.12-2.83 4.92-2.95v-.2c0-1.12-.47-1.58-1.66-1.58-.85 0-1.87.38-2.75.88l-.43-1.67c.81-.5 2.11-.97 3.47-.97 2.56 0 3.55 1.13 3.49 3.42v2.97c0 .63.11.72.74.76l-.16 1.6c-1.58.18-2.32-.31-2.63-1.13h-.07v-.01zm0-2.95c-2.07.25-2.83.67-2.83 1.55 0 .63.49 1.08 1.24 1.08.67 0 1.21-.31 1.58-.72v-1.91h.01zM105.52 195.84v-5.06c0-1.22-.49-1.64-1.44-1.64-.74 0-1.42.38-1.84.77v5.92h-2.12v-8.26l2.12-.29v1.31c.74-.81 1.73-1.33 2.74-1.33 1.67 0 2.66 1.08 2.66 2.86v5.71h-2.12v.01zM112.79 196.11c-1.85 0-2.83-.81-2.75-2.81l.13-3.91-1.3-.14.05-1.35 1.3-.41.04-1.84h2.05l-.04 1.94h2.34l-.05 1.75h-2.41l-.11 3.84c-.02.77.38 1.13 1.1 1.13.43 0 .86-.11 1.3-.25l.29 1.73c-.64.22-1.22.32-1.94.32zM10.85 212.62c0 1.85-1.12 3.22-4.38 3.22H2.09v-11.25h4.3c3.04 0 4.09 1.26 4.09 2.97 0 1.21-.72 2.02-2.02 2.45 1.49.32 2.39 1.28 2.39 2.61zm-4.52-6.26H4.26v3.06h1.89c1.4 0 2.14-.59 2.14-1.57 0-.95-.68-1.49-1.96-1.49zm-.06 4.66H4.25v3.06h2.18c1.48 0 2.2-.52 2.2-1.55 0-1.11-.97-1.51-2.36-1.51zM14.73 215.84h-2.12v-8.25l2.12-.31v1.35c.52-.88 1.19-1.37 2.16-1.37.5 0 1.03.11 1.48.38l-.47 1.91c-.4-.22-.79-.32-1.19-.32-.74 0-1.42.47-1.98 1.48v5.13zM20.71 206.03c-.83 0-1.3-.5-1.3-1.28 0-.76.47-1.28 1.3-1.28.85 0 1.31.52 1.31 1.28 0 .78-.47 1.28-1.31 1.28zm-1.06 9.81v-8.25l2.12-.31v8.55h-2.12v.01zM29.51 203.82l2.12-.29v12.32h-2.12v-.81c-.56.54-1.31 1.08-2.34 1.08-2.2 0-3.62-1.78-3.62-4.36 0-2.65 1.84-4.48 4.2-4.48.59 0 1.24.11 1.76.27v-3.73zm-1.56 5.15c-1.42 0-2.23 1.17-2.23 2.7 0 1.62.81 2.65 2.09 2.65.7 0 1.24-.25 1.71-.68v-4.18c-.42-.31-.94-.49-1.57-.49zM33.43 214.75c0-.76.61-1.44 1.53-1.75-.92-.47-1.51-1.4-1.51-2.56 0-1.71 1.35-3.17 3.65-3.17.94 0 1.76.27 2.34.52l2.23-.2.09 1.85-1.58-.27c.22.23.38.86.38 1.3 0 1.69-1.42 3.02-3.47 3.02-.4 0-.68-.04-1.13-.14-.29.11-.65.38-.65.72 0 .45.38.65 1.71.65h.86c2.38 0 3.73.67 3.73 2.29 0 1.96-2.21 3.31-4.84 3.31-2.2 0-3.94-.81-3.94-2.3 0-.86.63-1.64 1.87-1.84-.73-.25-1.27-.77-1.27-1.43zm1.32 2.84c0 .77.95 1.31 2.36 1.31 1.46 0 2.58-.54 2.58-1.4 0-.77-.76-.95-2.3-.95-.52 0-1.24-.04-1.58-.07-.61.21-1.06.61-1.06 1.11zm2.37-5.47c.95 0 1.49-.68 1.49-1.73 0-.99-.52-1.67-1.58-1.67-.94 0-1.53.7-1.53 1.75 0 .98.6 1.65 1.62 1.65zM44.54 212.15c.09 1.35 1.01 2.27 2.48 2.27.88 0 1.84-.29 2.59-.76l.27 1.76c-.79.43-1.89.68-3.01.68-2.66 0-4.43-1.69-4.43-4.34 0-2.7 1.8-4.5 4.29-4.5 2.2 0 3.42 1.33 3.42 3.37 0 .45-.07 1.03-.18 1.39l-5.44.07v.06h.01zm3.62-1.31v-.14c0-1.12-.49-1.82-1.58-1.82-1.17 0-1.87.95-1.98 1.98l3.56-.02zM56.37 207.27c2.2 0 3.64 1.78 3.64 4.34 0 2.65-1.84 4.48-4.2 4.48-.54 0-1.24-.07-1.76-.23v3.94h-2.12v-12.23l2.12-.29v1.04c.55-.52 1.31-1.05 2.32-1.05zm-2.33 6.67c.4.31.94.47 1.57.47 1.42 0 2.23-1.15 2.23-2.7 0-1.62-.77-2.65-2.09-2.65-.7 0-1.24.27-1.71.68v4.2zM65.49 216.11c-2.43 0-4.2-1.66-4.2-4.41 0-2.74 1.85-4.45 4.3-4.45 2.45 0 4.2 1.69 4.2 4.43.01 2.72-1.87 4.43-4.3 4.43zm.04-7.14c-1.39 0-2.14 1.12-2.14 2.72 0 1.58.79 2.7 2.18 2.7 1.37 0 2.12-1.08 2.12-2.68s-.79-2.74-2.16-2.74zM73.7 215.84h-2.12v-8.25l2.12-.31v1.35c.52-.88 1.19-1.37 2.16-1.37.5 0 1.03.11 1.48.38l-.47 1.91c-.4-.22-.79-.32-1.19-.32-.74 0-1.42.47-1.98 1.48v5.13zM81.73 216.11c-1.85 0-2.83-.81-2.75-2.81l.13-3.91-1.3-.14.05-1.35 1.3-.41.04-1.84h2.05l-.04 1.94h2.34l-.05 1.75h-2.41l-.11 3.84c-.02.77.38 1.13 1.1 1.13.43 0 .86-.11 1.3-.25l.29 1.73c-.65.22-1.22.32-1.94.32zM97.79 207.11c-.9-.59-1.87-.9-2.95-.9-2.2 0-3.66 1.51-3.66 3.96 0 2.48 1.42 4.05 3.69 4.05 1.15 0 2.25-.43 3.08-1.01l.41 2.02c-.9.54-2.3.88-3.58.88-3.46 0-5.82-2.18-5.82-5.87 0-3.6 2.36-5.92 5.87-5.92 1.31 0 2.67.34 3.64.88l-.68 1.91zM103.71 216.11c-2.43 0-4.2-1.66-4.2-4.41 0-2.74 1.85-4.45 4.3-4.45 2.45 0 4.2 1.69 4.2 4.43 0 2.72-1.87 4.43-4.3 4.43zm.03-7.14c-1.39 0-2.14 1.12-2.14 2.72 0 1.58.79 2.7 2.18 2.7 1.37 0 2.12-1.08 2.12-2.68s-.79-2.74-2.16-2.74zM115.19 215.84v-5.06c0-1.22-.49-1.64-1.44-1.64-.74 0-1.42.38-1.84.77v5.92h-2.12v-8.26l2.12-.29v1.31c.74-.81 1.73-1.33 2.74-1.33 1.67 0 2.66 1.08 2.66 2.86v5.71h-2.12v.01zM122.1 216.13c-1.08 0-2.39-.31-3.22-.77l.47-1.66c.83.47 1.89.77 2.81.77.83 0 1.37-.34 1.37-.92 0-.65-.7-.88-1.67-1.12-1.57-.36-2.81-1.01-2.81-2.58s1.31-2.59 3.31-2.59c1.03 0 2.25.27 3.03.67l-.47 1.66c-.81-.41-1.87-.68-2.61-.68-.77 0-1.24.29-1.24.83 0 .63.7.85 1.67 1.08 1.58.38 2.83.99 2.83 2.61-.01 1.55-1.34 2.7-3.47 2.7zM129.34 207.54v5.06c0 1.22.5 1.62 1.41 1.62.76 0 1.42-.34 1.82-.72v-5.96h2.12v8.25l-2.12.29v-1.22c-.68.74-1.67 1.26-2.74 1.26-1.62 0-2.61-1.08-2.61-2.86v-5.71h2.12v-.01zM136.95 215.84L136.95 203.81 139.07 203.52 139.07 215.84zM144.28 216.11c-1.85 0-2.83-.81-2.75-2.81l.13-3.91-1.3-.14.05-1.35 1.3-.41.04-1.84h2.05l-.04 1.94h2.34l-.05 1.75h-2.41l-.11 3.84c-.02.77.38 1.13 1.1 1.13.43 0 .86-.11 1.3-.25l.29 1.73c-.65.22-1.22.32-1.94.32zM148.85 206.03c-.83 0-1.3-.5-1.3-1.28 0-.76.47-1.28 1.3-1.28.85 0 1.31.52 1.31 1.28 0 .78-.47 1.28-1.31 1.28zm-1.06 9.81v-8.25l2.12-.31v8.55h-2.12v.01zM157.58 215.84v-5.06c0-1.22-.49-1.64-1.44-1.64-.74 0-1.42.38-1.84.77v5.92h-2.12v-8.26l2.12-.29v1.31c.74-.81 1.73-1.33 2.74-1.33 1.67 0 2.66 1.08 2.66 2.86v5.71h-2.12v.01zM161.45 214.75c0-.76.61-1.44 1.53-1.75-.92-.47-1.51-1.4-1.51-2.56 0-1.71 1.35-3.17 3.65-3.17.94 0 1.76.27 2.34.52l2.23-.2.09 1.85-1.58-.27c.22.23.38.86.38 1.3 0 1.69-1.42 3.02-3.47 3.02-.4 0-.68-.04-1.13-.14-.29.11-.65.38-.65.72 0 .45.38.65 1.71.65h.86c2.38 0 3.73.67 3.73 2.29 0 1.96-2.21 3.31-4.84 3.31-2.2 0-3.94-.81-3.94-2.3 0-.86.63-1.64 1.87-1.84-.73-.25-1.27-.77-1.27-1.43zm1.31 2.84c0 .77.95 1.31 2.36 1.31 1.46 0 2.58-.54 2.58-1.4 0-.77-.76-.95-2.3-.95-.52 0-1.24-.04-1.58-.07-.61.21-1.06.61-1.06 1.11zm2.38-5.47c.95 0 1.49-.68 1.49-1.73 0-.99-.52-1.67-1.58-1.67-.94 0-1.53.7-1.53 1.75 0 .98.59 1.65 1.62 1.65zM171.62 213.22c1.01 0 1.84.88 1.84 1.98 0 1.57-1.4 2.72-2.84 3.58l-.94-.85c1.13-.79 1.82-1.48 1.82-2.09 0-.47-.34-.79-1.46-1.28.08-.77.69-1.34 1.58-1.34zM179.34 215.84L179.34 204.59 181.54 204.59 181.54 213.92 186.62 213.92 186.62 215.85 179.34 215.85zM188.46 215.84L188.46 204.59 190.66 204.59 190.66 213.92 195.74 213.92 195.74 215.85 188.46 215.85zM205.19 207.11c-.9-.59-1.87-.9-2.95-.9-2.2 0-3.66 1.51-3.66 3.96 0 2.48 1.42 4.05 3.69 4.05 1.15 0 2.25-.43 3.08-1.01l.41 2.02c-.9.54-2.3.88-3.58.88-3.46 0-5.82-2.18-5.82-5.87 0-3.6 2.36-5.92 5.87-5.92 1.31 0 2.67.34 3.64.88l-.68 1.91z" transform="translate(-51 -5923) translate(51 5923) translate(108 117)"/>
                </g>
            </g>
        </g>
    </g>
</svg>
