<svg xmlns="http://www.w3.org/2000/svg" width="78" height="78" viewBox="0 0 78 78">
    <g fill="none" fill-rule="evenodd">
        <g fill-rule="nonzero">
            <g transform="translate(-48 -436) translate(48 436)">
                <circle cx="38.78" cy="39.13" r="38.47" fill="#FFF"/>
                <g fill="#4B819D">
                    <path d="M66.03 31.47v34.81c6.93-6.96 11.22-16.55 11.22-27.15 0-2.62-.26-5.18-.76-7.66H66.03zM15.35 17.75c2.05 0 3.65.35 4.8 1.06 1.14.7 1.96 1.88 2.46 3.52.5 1.64.75 3.93.75 6.86v16.72l15.22-18.92c2.17-2.82 4.5-5.06 7-6.73 2.49-1.67 5.35-2.51 8.58-2.51h6.16v3.08c-3.64 0-6.76.46-9.37 1.36-2.61.91-4.85 2.54-6.73 4.88l-1.02 1.25c.69-.15 1.43-.24 2.28-.24h30.16C70.9 12.23 56.2.66 38.78.66c-13.34 0-25.09 6.79-31.99 17.1h8.56v-.01z"/>
                    <path d="M38.81 33.75l-7.71 9.52 20.33 21.12c1.34 1.49 2.81 2.85 4.37 4.1V31.47h-5.6c-2.94 0-5.18.7-6.73 2.1-1.55 1.4-2.32 3.7-2.32 6.9h-2.36V34.1c-.01-.13.02-.23.02-.35zM11.83 29.19c0-2.99-.41-5.21-1.23-6.64-.82-1.44-2.46-2.16-4.93-2.16h-.48C2.09 25.93.32 32.32.32 39.12c0 10.78 4.44 20.52 11.58 27.5l-.07-37.43zM48.39 74.47c-3.37-1.5-7-4.27-10.87-8.32L23.35 51.37v23c4.72 2.07 9.94 3.23 15.43 3.23 4.35 0 8.53-.73 12.43-2.07-.95-.3-1.89-.65-2.82-1.06z"/>
                </g>
            </g>
        </g>
    </g>
</svg>
