<svg xmlns="http://www.w3.org/2000/svg" width="750" height="366" viewBox="0 0 750 366">
    <g fill="none" fill-rule="evenodd">
        <g fill-rule="nonzero">
            <g>
                <path fill="#4789AD" d="M0 0H750V366H0z" transform="translate(-51 -700) translate(51 700)"/>
                <path fill="#FFF" d="M90.75 39.47c-9.6 3.6-21.8 13.2-21.8 23.2 0 7 7 8.2 13.8 9.2 9.2 1.6 13.2 8.2 13.2 14.2 0 7-5.2 13.4-14.4 13.4-10.6 0-21.8-8.2-21.8-25 0-21.6 17-32.4 30.6-36.2l.4 1.2zm42.8 0c-9.6 3.6-21.8 13.2-21.8 23.2 0 7 6.8 8.2 13.6 9.2 9.4 1.6 13.4 8.2 13.4 14.2 0 7-5.4 13.4-14.6 13.4-10.4 0-21.8-8.2-21.8-25 0-21.6 17.2-32.4 30.8-36.2l.4 1.2zM606.63 277.92c9.6-3.6 21.8-13.2 21.8-23.2 0-7-7-8-13.8-9.2-9.2-1.6-13.2-8-13.2-14.2 0-7 5.4-13.4 14.6-13.4 10.4 0 21.8 8.2 21.8 25 0 21.6-17.2 32.4-30.8 36.2l-.4-1.2zm42.6 0c9.6-3.6 21.8-13.2 21.8-23.2 0-7-6.8-8-13.6-9.2-9.4-1.6-13.4-8-13.4-14.2 0-7 5.4-13.4 14.6-13.4 10.4 0 21.8 8.2 21.8 25 0 21.6-17.2 32.4-30.8 36.2l-.4-1.2z" transform="translate(-51 -700) translate(51 700)"/>
                <g fill="#FFF">
                    <path d="M8.07 12.08c0-1.14-1.03-1.56-3.06-2.11C3.03 9.42.74 8.54.74 5.83c0-2.44 1.87-4.07 4.93-4.07 1.87 0 3.41.46 4.73 1.21l-.66 2.27c-1.21-.73-2.75-1.19-4.05-1.19-1.61 0-2.31.68-2.31 1.63 0 1.12 1.23 1.56 3.12 2.07 2.07.57 4.2 1.52 4.2 4.14 0 2.51-2 4.29-5.24 4.29-1.83 0-3.65-.48-4.95-1.28l.62-2.31c1.28.77 2.73 1.32 4.38 1.32 1.51 0 2.56-.73 2.56-1.83zM17.51 16.17c-2.97 0-5.13-2.02-5.13-5.39 0-3.34 2.27-5.43 5.26-5.43 2.99 0 5.13 2.07 5.13 5.41 0 3.32-2.29 5.41-5.26 5.41zm.04-8.73c-1.69 0-2.62 1.36-2.62 3.32 0 1.94.97 3.3 2.66 3.3 1.67 0 2.6-1.32 2.6-3.28.01-1.95-.96-3.34-2.64-3.34zM29.39 14.5c0-.92.75-1.76 1.87-2.13-1.12-.57-1.85-1.72-1.85-3.12 0-2.09 1.65-3.87 4.47-3.87 1.14 0 2.16.33 2.86.64l2.73-.24.11 2.27-1.94-.33c.26.29.46 1.06.46 1.58 0 2.07-1.74 3.7-4.25 3.7-.48 0-.84-.04-1.39-.18-.35.13-.79.46-.79.88 0 .55.46.79 2.09.79h1.06c2.9 0 4.55.81 4.55 2.79 0 2.4-2.71 4.05-5.92 4.05-2.68 0-4.82-.99-4.82-2.82 0-1.06.77-2 2.29-2.25-.87-.31-1.53-.94-1.53-1.76zM31 17.98c0 .95 1.17 1.61 2.88 1.61 1.78 0 3.15-.66 3.15-1.72 0-.95-.92-1.17-2.82-1.17-.64 0-1.52-.04-1.94-.09-.72.27-1.27.75-1.27 1.37zm2.9-6.69c1.17 0 1.83-.84 1.83-2.11 0-1.21-.64-2.05-1.94-2.05-1.14 0-1.87.86-1.87 2.13 0 1.22.73 2.03 1.98 2.03zM41 15.84L41 1.14 43.6.79 43.6 15.84 41 15.84zM51.7 14.68c-.73.88-1.61 1.5-2.86 1.5-1.83 0-3.15-1.25-3.15-2.86 0-1.87 1.36-3.46 6.01-3.61v-.24c0-1.36-.57-1.94-2.02-1.94-1.03 0-2.29.46-3.37 1.08l-.53-2.05c.99-.62 2.57-1.19 4.25-1.19 3.12 0 4.33 1.39 4.27 4.18v3.63c0 .77.13.88.9.92l-.2 1.96c-1.94.22-2.84-.37-3.21-1.39h-.09v.01zm0-3.61c-2.53.31-3.45.81-3.45 1.89 0 .77.59 1.32 1.52 1.32.81 0 1.47-.37 1.94-.88v-2.33h-.01zM63.64 1.15l2.6-.35v15.05h-2.6v-.99c-.68.66-1.61 1.32-2.86 1.32-2.68 0-4.42-2.18-4.42-5.32 0-3.23 2.24-5.48 5.13-5.48.73 0 1.52.13 2.16.33V1.15h-.01zm-1.91 6.29c-1.74 0-2.73 1.43-2.73 3.3 0 1.98.99 3.24 2.55 3.24.86 0 1.52-.31 2.09-.84v-5.1c-.5-.38-1.14-.6-1.91-.6zM77.61 16.17c-2.27 0-3.45-.99-3.37-3.43l.15-4.78-1.58-.18.07-1.65 1.58-.51.04-2.24h2.51l-.04 2.38h2.86l-.07 2.13h-2.95l-.13 4.69c-.02.95.46 1.39 1.34 1.39.53 0 1.06-.13 1.58-.31l.35 2.11c-.75.27-1.46.4-2.34.4zM86.33 16.17c-2.97 0-5.13-2.02-5.13-5.39 0-3.34 2.27-5.43 5.26-5.43 2.99 0 5.13 2.07 5.13 5.41-.01 3.32-2.29 5.41-5.26 5.41zm.04-8.73c-1.69 0-2.62 1.36-2.62 3.32 0 1.94.97 3.3 2.66 3.3 1.67 0 2.6-1.32 2.6-3.28 0-1.95-.97-3.34-2.64-3.34zM105.38 15.84V9.66c0-1.5-.59-2-1.69-2-.97 0-1.8.46-2.31.95v7.24h-2.6V1.15l2.6-.35v6.18c.9-.99 2.11-1.61 3.43-1.61 1.96 0 3.17 1.32 3.17 3.5v6.97h-2.6zM116 14.68c-.73.88-1.61 1.5-2.86 1.5-1.83 0-3.15-1.25-3.15-2.86 0-1.87 1.36-3.46 6.01-3.61v-.24c0-1.36-.57-1.94-2.02-1.94-1.03 0-2.29.46-3.37 1.08l-.53-2.05c.99-.62 2.57-1.19 4.25-1.19 3.12 0 4.33 1.39 4.27 4.18v3.63c0 .77.13.88.9.92l-.2 1.96c-1.94.22-2.84-.37-3.21-1.39H116v.01zm0-3.61c-2.53.31-3.45.81-3.45 1.89 0 .77.59 1.32 1.52 1.32.81 0 1.47-.37 1.94-.88v-2.33H116zM126.28 15.87L123.51 15.87 119.64 5.7 122.41 5.7 124.96 13.11 127.4 5.7 130.19 5.7zM133.4 11.33c.11 1.65 1.23 2.77 3.04 2.77 1.08 0 2.24-.35 3.17-.92l.33 2.16c-.97.53-2.31.84-3.67.84-3.26 0-5.41-2.07-5.41-5.3 0-3.3 2.2-5.5 5.24-5.5 2.68 0 4.18 1.63 4.18 4.11 0 .55-.09 1.25-.22 1.69l-6.64.09v.06h-.02zm4.43-1.6v-.18c0-1.36-.59-2.22-1.94-2.22-1.43 0-2.29 1.17-2.42 2.42l4.36-.02zM152.65 15.65l-.59 1.58c-1.01 2.77-2.16 3.61-4.03 3.61-.92 0-1.76-.22-2.57-.59l.77-2.13c.59.29 1.08.48 1.61.48.75 0 1.14-.33 1.69-1.72l.44-1.17-3.96-10.01h2.79l2.53 7.26 2.42-7.26h2.77l-3.87 9.95zM162.42 16.17c-2.97 0-5.13-2.02-5.13-5.39 0-3.34 2.27-5.43 5.26-5.43 2.99 0 5.13 2.07 5.13 5.41 0 3.32-2.29 5.41-5.26 5.41zm.04-8.73c-1.69 0-2.62 1.36-2.62 3.32 0 1.94.97 3.3 2.66 3.3 1.67 0 2.6-1.32 2.6-3.28.01-1.95-.96-3.34-2.64-3.34zM172.36 5.7v6.18c0 1.5.62 1.98 1.72 1.98.92 0 1.74-.42 2.22-.88V5.7h2.6v10.08l-2.6.35v-1.5c-.84.9-2.05 1.54-3.34 1.54-1.98 0-3.19-1.32-3.19-3.5V5.7h2.59zM184.27 15.84h-2.6V5.76l2.6-.37v1.65c.64-1.08 1.45-1.67 2.64-1.67.62 0 1.25.13 1.8.46l-.57 2.33c-.48-.26-.97-.4-1.45-.4-.9 0-1.74.57-2.42 1.8v6.28zM200.04 16.15c-.66 0-1.61-.13-2.27-.35l-2.49.37V1.14l2.6-.35v5.88c.68-.66 1.61-1.3 2.84-1.3 2.68 0 4.44 2.18 4.44 5.3.01 3.24-2.24 5.48-5.12 5.48zm-.07-8.6c-.86 0-1.52.33-2.09.84v5.13c.48.37 1.14.57 1.91.57 1.74 0 2.73-1.41 2.73-3.3.01-1.99-.94-3.24-2.55-3.24zM209.87 15.84h-2.6V5.76l2.6-.37v1.65c.64-1.08 1.45-1.67 2.64-1.67.62 0 1.25.13 1.8.46l-.57 2.33c-.48-.26-.97-.4-1.45-.4-.9 0-1.74.57-2.42 1.8v6.28zM217.18 3.85c-1.01 0-1.58-.62-1.58-1.56 0-.92.57-1.56 1.58-1.56 1.03 0 1.61.64 1.61 1.56-.01.95-.58 1.56-1.61 1.56zm-1.3 11.99V5.76l2.6-.37v10.45h-2.6zM220.67 14.5c0-.92.75-1.76 1.87-2.13-1.12-.57-1.85-1.72-1.85-3.12 0-2.09 1.65-3.87 4.47-3.87 1.14 0 2.16.33 2.86.64l2.73-.24.11 2.27-1.94-.33c.26.29.46 1.06.46 1.58 0 2.07-1.74 3.7-4.25 3.7-.48 0-.84-.04-1.39-.18-.35.13-.79.46-.79.88 0 .55.46.79 2.09.79h1.06c2.9 0 4.55.81 4.55 2.79 0 2.4-2.71 4.05-5.92 4.05-2.68 0-4.82-.99-4.82-2.82 0-1.06.77-2 2.29-2.25-.87-.31-1.53-.94-1.53-1.76zm1.61 3.48c0 .95 1.17 1.61 2.88 1.61 1.78 0 3.15-.66 3.15-1.72 0-.95-.92-1.17-2.82-1.17-.64 0-1.52-.04-1.94-.09-.72.27-1.27.75-1.27 1.37zm2.91-6.69c1.17 0 1.83-.84 1.83-2.11 0-1.21-.64-2.05-1.94-2.05-1.14 0-1.87.86-1.87 2.13 0 1.22.72 2.03 1.98 2.03zM238.89 15.84V9.66c0-1.5-.59-2-1.69-2-.97 0-1.8.46-2.31.95v7.24h-2.6V1.15l2.6-.35v6.18c.9-.99 2.11-1.61 3.43-1.61 1.96 0 3.17 1.32 3.17 3.5v6.97h-2.6zM247.78 16.17c-2.27 0-3.45-.99-3.37-3.43l.15-4.78-1.58-.18.07-1.65 1.58-.51.04-2.24h2.51l-.04 2.38H250l-.07 2.13h-2.95l-.13 4.69c-.02.95.46 1.39 1.34 1.39.53 0 1.06-.13 1.58-.31l.35 2.11c-.76.27-1.46.4-2.34.4zM269.82 15.84V9.68c0-1.5-.59-2.02-1.67-2.02-.9 0-1.61.46-2.11.9v7.29h-2.6V9.69c0-1.5-.57-2.02-1.65-2.02-.92 0-1.63.37-2.11.84v7.35h-2.6V5.76l2.6-.35v1.43c.95-.95 1.98-1.45 3.23-1.45 1.23 0 2.27.59 2.77 1.74 1.01-1.1 2.22-1.74 3.61-1.74 1.92 0 3.12 1.32 3.12 3.52v6.95h-2.59v-.02zM276.4 3.85c-1.01 0-1.58-.62-1.58-1.56 0-.92.57-1.56 1.58-1.56 1.03 0 1.61.64 1.61 1.56 0 .95-.58 1.56-1.61 1.56zm-1.3 11.99V5.76l2.6-.37v10.45h-2.6zM287.07 15.84V9.66c0-1.5-.59-2-1.76-2-.9 0-1.74.46-2.24.95v7.24h-2.6V5.75l2.6-.35v1.61c.9-.99 2.11-1.63 3.34-1.63 2.05 0 3.26 1.32 3.26 3.5v6.97h-2.6v-.01zM299.06 1.15l2.6-.35v15.05h-2.6v-.99c-.68.66-1.61 1.32-2.86 1.32-2.68 0-4.42-2.18-4.42-5.32 0-3.23 2.24-5.48 5.13-5.48.73 0 1.52.13 2.16.33V1.15h-.01zm-1.91 6.29c-1.74 0-2.73 1.43-2.73 3.3 0 1.98.99 3.24 2.55 3.24.86 0 1.52-.31 2.09-.84v-5.1c-.51-.38-1.14-.6-1.91-.6zM305.68 12.63c1.23 0 2.24 1.08 2.24 2.42 0 1.91-1.72 3.32-3.48 4.38l-1.14-1.03c1.39-.97 2.22-1.8 2.22-2.55 0-.57-.42-.97-1.78-1.56.11-.95.86-1.66 1.94-1.66zM321.61 1.15l2.6-.35v15.05h-2.6v-.99c-.68.66-1.61 1.32-2.86 1.32-2.68 0-4.42-2.18-4.42-5.32 0-3.23 2.24-5.48 5.13-5.48.73 0 1.52.13 2.16.33V1.15h-.01zm-1.92 6.29c-1.74 0-2.73 1.43-2.73 3.3 0 1.98.99 3.24 2.55 3.24.86 0 1.52-.31 2.09-.84v-5.1c-.5-.38-1.14-.6-1.91-.6zM328.93 11.33c.11 1.65 1.23 2.77 3.04 2.77 1.08 0 2.24-.35 3.17-.92l.33 2.16c-.97.53-2.31.84-3.67.84-3.26 0-5.41-2.07-5.41-5.3 0-3.3 2.2-5.5 5.24-5.5 2.68 0 4.18 1.63 4.18 4.11 0 .55-.09 1.25-.22 1.69l-6.64.09v.06h-.02zm4.43-1.6v-.18c0-1.36-.59-2.22-1.94-2.22-1.43 0-2.29 1.17-2.42 2.42l4.36-.02zM339.91 11.33c.11 1.65 1.23 2.77 3.04 2.77 1.08 0 2.24-.35 3.17-.92l.33 2.16c-.97.53-2.31.84-3.67.84-3.26 0-5.41-2.07-5.41-5.3 0-3.3 2.2-5.5 5.24-5.5 2.68 0 4.18 1.63 4.18 4.11 0 .55-.09 1.25-.22 1.69l-6.64.09v.06h-.02zm4.42-1.6v-.18c0-1.36-.59-2.22-1.94-2.22-1.43 0-2.29 1.17-2.42 2.42l4.36-.02zM354.37 5.37c2.68 0 4.44 2.18 4.44 5.3 0 3.23-2.24 5.48-5.13 5.48-.66 0-1.52-.09-2.16-.29v4.82h-2.6V5.74l2.6-.35v1.28c.69-.66 1.61-1.3 2.85-1.3zm-2.84 8.14c.48.37 1.14.57 1.91.57 1.74 0 2.73-1.41 2.73-3.3 0-1.98-.95-3.23-2.55-3.23-.86 0-1.52.33-2.09.84v5.12zM367.96 11.33c.11 1.65 1.23 2.77 3.04 2.77 1.08 0 2.24-.35 3.17-.92l.33 2.16c-.97.53-2.31.84-3.67.84-3.26 0-5.41-2.07-5.41-5.3 0-3.3 2.2-5.5 5.24-5.5 2.68 0 4.18 1.63 4.18 4.11 0 .55-.09 1.25-.22 1.69l-6.64.09v.06h-.02zm4.42-1.6v-.18c0-1.36-.59-2.22-1.94-2.22-1.43 0-2.29 1.17-2.42 2.42l4.36-.02zM382.83 15.84L380.61 12.23 378.41 15.84 375.55 15.84 379.05 10.65 375.68 5.7 378.5 5.7 380.59 8.98 382.61 5.7 385.45 5.7 382.17 10.61 385.65 15.85 382.83 15.85zM392.42 5.37c2.68 0 4.44 2.18 4.44 5.3 0 3.23-2.24 5.48-5.13 5.48-.66 0-1.52-.09-2.16-.29v4.82h-2.6V5.74l2.6-.35v1.28c.7-.66 1.62-1.3 2.85-1.3zm-2.84 8.14c.48.37 1.14.57 1.91.57 1.74 0 2.73-1.41 2.73-3.3 0-1.98-.95-3.23-2.55-3.23-.86 0-1.52.33-2.09.84v5.12zM401 11.33c.11 1.65 1.23 2.77 3.04 2.77 1.08 0 2.24-.35 3.17-.92l.33 2.16c-.97.53-2.31.84-3.67.84-3.26 0-5.41-2.07-5.41-5.3 0-3.3 2.2-5.5 5.24-5.5 2.68 0 4.18 1.63 4.18 4.11 0 .55-.09 1.25-.22 1.69l-6.64.09v.06H401zm4.43-1.6v-.18c0-1.36-.59-2.22-1.94-2.22-1.43 0-2.29 1.17-2.42 2.42l4.36-.02zM412.62 15.84h-2.6V5.76l2.6-.37v1.65c.64-1.08 1.45-1.67 2.64-1.67.62 0 1.25.13 1.8.46l-.57 2.33c-.48-.26-.97-.4-1.45-.4-.9 0-1.74.57-2.42 1.8v6.28zM419.92 3.85c-1.01 0-1.58-.62-1.58-1.56 0-.92.57-1.56 1.58-1.56 1.03 0 1.61.64 1.61 1.56 0 .95-.57 1.56-1.61 1.56zm-1.3 11.99V5.76l2.6-.37v10.45h-2.6zM425.95 11.33c.11 1.65 1.23 2.77 3.04 2.77 1.08 0 2.24-.35 3.17-.92l.33 2.16c-.97.53-2.31.84-3.67.84-3.26 0-5.41-2.07-5.41-5.3 0-3.3 2.2-5.5 5.24-5.5 2.68 0 4.18 1.63 4.18 4.11 0 .55-.09 1.25-.22 1.69l-6.64.09v.06h-.02zm4.42-1.6v-.18c0-1.36-.59-2.22-1.94-2.22-1.43 0-2.29 1.17-2.42 2.42l4.36-.02zM441.57 15.84V9.66c0-1.5-.59-2-1.76-2-.9 0-1.74.46-2.24.95v7.24h-2.6V5.75l2.6-.35v1.61c.9-.99 2.11-1.63 3.34-1.63 2.05 0 3.26 1.32 3.26 3.5v6.97h-2.6v-.01zM451.54 16.17c-3.3 0-5.26-2.05-5.26-5.37 0-3.3 2.16-5.43 5.35-5.43 1.39 0 2.57.31 3.5.86l-.55 2.09c-.84-.53-1.8-.81-2.75-.81-1.87 0-2.88 1.28-2.88 3.23 0 2.07 1.17 3.28 2.88 3.28 1.06 0 2.02-.29 2.82-.79l.42 2.11c-.89.53-2.17.83-3.53.83zM459.06 11.33c.11 1.65 1.23 2.77 3.04 2.77 1.08 0 2.24-.35 3.17-.92l.33 2.16c-.97.53-2.31.84-3.67.84-3.26 0-5.41-2.07-5.41-5.3 0-3.3 2.2-5.5 5.24-5.5 2.68 0 4.18 1.63 4.18 4.11 0 .55-.09 1.25-.22 1.69l-6.64.09v.06h-.02zm4.42-1.6v-.18c0-1.36-.59-2.22-1.94-2.22-1.43 0-2.29 1.17-2.42 2.42l4.36-.02zM469.33 12.63c1.23 0 2.24 1.08 2.24 2.42 0 1.91-1.72 3.32-3.48 4.38l-1.14-1.03c1.39-.97 2.22-1.8 2.22-2.55 0-.57-.42-.97-1.78-1.56.12-.95.86-1.66 1.94-1.66zM483.9 14.68c-.73.88-1.61 1.5-2.86 1.5-1.83 0-3.15-1.25-3.15-2.86 0-1.87 1.36-3.46 6.01-3.61v-.24c0-1.36-.57-1.94-2.02-1.94-1.03 0-2.29.46-3.37 1.08l-.53-2.05c.99-.62 2.57-1.19 4.25-1.19 3.12 0 4.33 1.39 4.27 4.18v3.63c0 .77.13.88.9.92l-.2 1.96c-1.94.22-2.84-.37-3.21-1.39h-.09v.01zm0-3.61c-2.53.31-3.45.81-3.45 1.89 0 .77.59 1.32 1.52 1.32.81 0 1.47-.37 1.94-.88v-2.33h-.01zM495.75 15.84V9.66c0-1.5-.59-2-1.76-2-.9 0-1.74.46-2.24.95v7.24h-2.6V5.75l2.6-.35v1.61c.9-.99 2.11-1.63 3.34-1.63 2.05 0 3.26 1.32 3.26 3.5v6.97h-2.6v-.01zM507.74 1.15l2.6-.35v15.05h-2.6v-.99c-.68.66-1.61 1.32-2.86 1.32-2.68 0-4.42-2.18-4.42-5.32 0-3.23 2.24-5.48 5.13-5.48.73 0 1.52.13 2.16.33V1.15h-.01zm-1.91 6.29c-1.74 0-2.73 1.43-2.73 3.3 0 1.98.99 3.24 2.55 3.24.86 0 1.52-.31 2.09-.84v-5.1c-.5-.38-1.14-.6-1.91-.6zM4.33 44.2c-1.32 0-2.93-.37-3.94-.95l.57-2.02c1.01.57 2.31.95 3.43.95 1.01 0 1.67-.42 1.67-1.12 0-.79-.86-1.08-2.05-1.36C2.1 39.26.58 38.47.58 36.55s1.61-3.17 4.05-3.17c1.25 0 2.75.33 3.7.81l-.57 2.02c-.99-.51-2.29-.84-3.19-.84-.95 0-1.52.35-1.52 1.01 0 .77.86 1.04 2.05 1.32 1.94.46 3.45 1.21 3.45 3.19.01 1.9-1.62 3.31-4.22 3.31zM17.27 43.84v-6.18c0-1.5-.59-2-1.69-2-.97 0-1.8.46-2.31.95v7.24h-2.6v-14.7l2.6-.35v6.18c.9-.99 2.11-1.61 3.43-1.61 1.96 0 3.17 1.32 3.17 3.5v6.97h-2.6zM27.89 42.68c-.73.88-1.61 1.5-2.86 1.5-1.83 0-3.15-1.25-3.15-2.86 0-1.87 1.36-3.46 6.01-3.61v-.24c0-1.36-.57-1.94-2.02-1.94-1.03 0-2.29.46-3.37 1.08l-.53-2.05c.99-.62 2.57-1.19 4.25-1.19 3.12 0 4.33 1.39 4.27 4.18v3.63c0 .77.13.88.9.92l-.2 1.96c-1.94.22-2.84-.37-3.21-1.39h-.09v.01zm0-3.61c-2.53.31-3.45.81-3.45 1.89 0 .77.59 1.32 1.52 1.32.81 0 1.47-.37 1.94-.88v-2.33h-.01zM35.75 43.84h-2.6V33.76l2.6-.37v1.65c.64-1.08 1.45-1.67 2.64-1.67.62 0 1.25.13 1.8.46l-.57 2.33c-.48-.26-.97-.4-1.45-.4-.9 0-1.74.57-2.42 1.8v6.28zM47.19 33.37c2.68 0 4.44 2.18 4.44 5.3 0 3.23-2.24 5.48-5.13 5.48-.66 0-1.52-.09-2.16-.29v4.82h-2.6V33.74l2.6-.35v1.28c.69-.66 1.62-1.3 2.85-1.3zm-2.84 8.14c.48.37 1.14.57 1.91.57 1.74 0 2.73-1.41 2.73-3.3 0-1.98-.95-3.23-2.55-3.23-.86 0-1.52.33-2.09.84v5.12zM61.97 44.2c-1.32 0-2.93-.37-3.94-.95l.57-2.02c1.01.57 2.31.95 3.43.95 1.01 0 1.67-.42 1.67-1.12 0-.79-.86-1.08-2.05-1.36-1.91-.44-3.43-1.23-3.43-3.15s1.61-3.17 4.05-3.17c1.25 0 2.75.33 3.7.81l-.57 2.02c-.99-.51-2.29-.84-3.19-.84-.95 0-1.52.35-1.52 1.01 0 .77.86 1.04 2.05 1.32 1.94.46 3.45 1.21 3.45 3.19.01 1.9-1.62 3.31-4.22 3.31zM70.9 38.96L70.9 43.84 68.3 43.84 68.3 29.14 70.9 28.79 70.9 38.21 70.94 38.21 74.57 33.7 77.67 33.7 73.47 38.52 77.69 43.84 74.59 43.84 70.94 38.96zM80.47 31.85c-1.01 0-1.58-.62-1.58-1.56 0-.92.57-1.56 1.58-1.56 1.03 0 1.61.64 1.61 1.56 0 .95-.57 1.56-1.61 1.56zm-1.3 11.99V33.76l2.6-.37v10.45h-2.6zM84.54 43.84L84.54 29.14 87.14 28.79 87.14 43.84 84.54 43.84zM89.91 43.84L89.91 29.14 92.51 28.79 92.51 43.84 89.91 43.84zM98.43 44.2c-1.32 0-2.93-.37-3.94-.95l.57-2.02c1.01.57 2.31.95 3.43.95 1.01 0 1.67-.42 1.67-1.12 0-.79-.86-1.08-2.05-1.36-1.91-.44-3.43-1.23-3.43-3.15s1.61-3.17 4.05-3.17c1.25 0 2.75.33 3.7.81l-.57 2.02c-.99-.51-2.29-.84-3.19-.84-.95 0-1.52.35-1.52 1.01 0 .77.86 1.04 2.05 1.32 1.94.46 3.45 1.21 3.45 3.19 0 1.9-1.63 3.31-4.22 3.31zM116.47 29.15l2.6-.35v15.05h-2.6v-.99c-.68.66-1.61 1.32-2.86 1.32-2.68 0-4.42-2.18-4.42-5.32 0-3.23 2.24-5.48 5.13-5.48.73 0 1.52.13 2.16.33v-4.56h-.01zm-1.92 6.29c-1.74 0-2.73 1.43-2.73 3.3 0 1.98.99 3.24 2.55 3.24.86 0 1.52-.31 2.09-.84v-5.1c-.5-.38-1.14-.6-1.91-.6zM124.43 43.84h-2.6V33.76l2.6-.37v1.65c.64-1.08 1.45-1.67 2.64-1.67.62 0 1.25.13 1.8.46l-.57 2.33c-.48-.26-.97-.4-1.45-.4-.9 0-1.74.57-2.42 1.8v6.28zM131.73 31.85c-1.01 0-1.58-.62-1.58-1.56 0-.92.57-1.56 1.58-1.56 1.03 0 1.61.64 1.61 1.56 0 .95-.57 1.56-1.61 1.56zm-1.3 11.99V33.76l2.6-.37v10.45h-2.6zM141.04 43.87L138.27 43.87 134.4 33.7 137.17 33.7 139.72 41.11 142.16 33.7 144.95 33.7zM147.62 31.85c-1.01 0-1.58-.62-1.58-1.56 0-.92.57-1.56 1.58-1.56 1.03 0 1.61.64 1.61 1.56-.01.95-.58 1.56-1.61 1.56zm-1.3 11.99V33.76l2.6-.37v10.45h-2.6zM158.29 43.84v-6.18c0-1.5-.59-2-1.76-2-.9 0-1.74.46-2.24.95v7.24h-2.6v-10.1l2.6-.35v1.61c.9-.99 2.11-1.63 3.34-1.63 2.05 0 3.26 1.32 3.26 3.5v6.97h-2.6v-.01zM163.02 42.5c0-.92.75-1.76 1.87-2.13-1.12-.57-1.85-1.72-1.85-3.12 0-2.09 1.65-3.87 4.47-3.87 1.14 0 2.16.33 2.86.64l2.73-.24.11 2.27-1.94-.33c.26.29.46 1.06.46 1.58 0 2.07-1.74 3.7-4.25 3.7-.48 0-.84-.04-1.39-.18-.35.13-.79.46-.79.88 0 .55.46.79 2.09.79h1.06c2.9 0 4.55.81 4.55 2.79 0 2.4-2.71 4.05-5.92 4.05-2.68 0-4.82-.99-4.82-2.82 0-1.06.77-2 2.29-2.25-.87-.31-1.53-.94-1.53-1.76zm1.6 3.48c0 .95 1.17 1.61 2.88 1.61 1.78 0 3.15-.66 3.15-1.72 0-.95-.92-1.17-2.82-1.17-.64 0-1.52-.04-1.94-.09-.72.27-1.27.75-1.27 1.37zm2.91-6.69c1.17 0 1.83-.84 1.83-2.11 0-1.21-.64-2.05-1.94-2.05-1.14 0-1.87.86-1.87 2.13 0 1.22.72 2.03 1.98 2.03zM183.23 44.17c-2.27 0-3.45-.99-3.37-3.43l.15-4.78-1.58-.18.07-1.65 1.58-.51.04-2.24h2.51l-.04 2.38h2.86l-.07 2.13h-2.95l-.13 4.69c-.02.95.46 1.39 1.34 1.39.53 0 1.06-.13 1.58-.31l.35 2.11c-.75.27-1.46.4-2.34.4zM194.12 43.84v-6.18c0-1.5-.59-2-1.69-2-.97 0-1.8.46-2.31.95v7.24h-2.6v-14.7l2.6-.35v6.18c.9-.99 2.11-1.61 3.43-1.61 1.96 0 3.17 1.32 3.17 3.5v6.97h-2.6zM200.72 31.85c-1.01 0-1.58-.62-1.58-1.56 0-.92.57-1.56 1.58-1.56 1.03 0 1.61.64 1.61 1.56 0 .95-.57 1.56-1.61 1.56zm-1.3 11.99V33.76l2.6-.37v10.45h-2.6zM207.94 44.2c-1.32 0-2.93-.37-3.94-.95l.57-2.02c1.01.57 2.31.95 3.43.95 1.01 0 1.67-.42 1.67-1.12 0-.79-.86-1.08-2.05-1.36-1.91-.44-3.43-1.23-3.43-3.15s1.61-3.17 4.05-3.17c1.25 0 2.75.33 3.7.81l-.57 2.02c-.99-.51-2.29-.84-3.19-.84-.95 0-1.52.35-1.52 1.01 0 .77.86 1.04 2.05 1.32 1.94.46 3.45 1.21 3.45 3.19 0 1.9-1.62 3.31-4.22 3.31zM221.18 43.89L218.17 33.7 220.88 33.7 222.64 40.83 224.66 33.72 227.26 33.72 229.44 40.78 230.96 33.7 233.71 33.7 230.74 43.89 228.19 43.89 225.92 36.76 223.72 43.89 221.18 43.89zM239.91 44.17c-2.97 0-5.13-2.02-5.13-5.39 0-3.34 2.27-5.43 5.26-5.43 2.99 0 5.13 2.07 5.13 5.41-.01 3.32-2.29 5.41-5.26 5.41zm.04-8.73c-1.69 0-2.62 1.36-2.62 3.32 0 1.94.97 3.3 2.66 3.3 1.67 0 2.6-1.32 2.6-3.28 0-1.95-.97-3.34-2.64-3.34zM249.94 43.84h-2.6V33.76l2.6-.37v1.65c.64-1.08 1.45-1.67 2.64-1.67.62 0 1.25.13 1.8.46l-.57 2.33c-.48-.26-.97-.4-1.45-.4-.9 0-1.74.57-2.42 1.8v6.28zM258.54 38.96L258.54 43.84 255.94 43.84 255.94 29.14 258.54 28.79 258.54 38.21 258.58 38.21 262.21 33.7 265.31 33.7 261.11 38.52 265.33 43.84 262.23 43.84 258.58 38.96zM268.2 44.17c-1.03 0-1.76-.75-1.76-1.72s.73-1.69 1.76-1.69c1.01 0 1.72.73 1.72 1.69s-.71 1.72-1.72 1.72zM283.64 32.45L283.64 43.85 280.98 43.85 280.98 32.45 276.38 32.45 276.38 30.09 288.24 30.09 288.24 32.45zM296.25 43.84v-6.18c0-1.5-.59-2-1.69-2-.97 0-1.8.46-2.31.95v7.24h-2.6v-14.7l2.6-.35v6.18c.9-.99 2.11-1.61 3.43-1.61 1.96 0 3.17 1.32 3.17 3.5v6.97h-2.6zM306.87 42.68c-.73.88-1.61 1.5-2.86 1.5-1.83 0-3.15-1.25-3.15-2.86 0-1.87 1.36-3.46 6.01-3.61v-.24c0-1.36-.57-1.94-2.02-1.94-1.03 0-2.29.46-3.37 1.08l-.53-2.05c.99-.62 2.57-1.19 4.25-1.19 3.12 0 4.33 1.39 4.27 4.18v3.63c0 .77.13.88.9.92l-.2 1.96c-1.94.22-2.84-.37-3.21-1.39h-.09v.01zm0-3.61c-2.53.31-3.45.81-3.45 1.89 0 .77.59 1.32 1.52 1.32.81 0 1.47-.37 1.94-.88v-2.33h-.01zM318.73 43.84v-6.18c0-1.5-.59-2-1.76-2-.9 0-1.74.46-2.24.95v7.24h-2.6v-10.1l2.6-.35v1.61c.9-.99 2.11-1.63 3.34-1.63 2.05 0 3.26 1.32 3.26 3.5v6.97h-2.6v-.01zM326.63 38.96L326.63 43.84 324.03 43.84 324.03 29.14 326.63 28.79 326.63 38.21 326.67 38.21 330.3 33.7 333.4 33.7 329.2 38.52 333.42 43.84 330.32 43.84 326.67 38.96zM345.13 43.65l-.59 1.58c-1.01 2.77-2.16 3.61-4.03 3.61-.92 0-1.76-.22-2.57-.59l.77-2.13c.59.29 1.08.48 1.61.48.75 0 1.14-.33 1.69-1.72l.44-1.17-3.96-10.01h2.79l2.53 7.26 2.42-7.26H349l-3.87 9.95zM354.9 44.17c-2.97 0-5.13-2.02-5.13-5.39 0-3.34 2.27-5.43 5.26-5.43 2.99 0 5.13 2.07 5.13 5.41 0 3.32-2.29 5.41-5.26 5.41zm.04-8.73c-1.69 0-2.62 1.36-2.62 3.32 0 1.94.97 3.3 2.66 3.3 1.67 0 2.6-1.32 2.6-3.28 0-1.95-.97-3.34-2.64-3.34zM364.84 33.7v6.18c0 1.5.62 1.98 1.72 1.98.92 0 1.74-.42 2.22-.88V33.7h2.6v10.08l-2.6.35v-1.5c-.84.9-2.05 1.54-3.34 1.54-1.98 0-3.19-1.32-3.19-3.5V33.7h2.59zM375.4 40.63c1.23 0 2.24 1.08 2.24 2.42 0 1.91-1.72 3.32-3.48 4.38l-1.14-1.03c1.39-.97 2.22-1.8 2.22-2.55 0-.57-.42-.97-1.78-1.56.11-.95.86-1.66 1.94-1.66zM389.96 42.68c-.73.88-1.61 1.5-2.86 1.5-1.83 0-3.15-1.25-3.15-2.86 0-1.87 1.36-3.46 6.01-3.61v-.24c0-1.36-.57-1.94-2.02-1.94-1.03 0-2.29.46-3.37 1.08l-.53-2.05c.99-.62 2.57-1.19 4.25-1.19 3.12 0 4.33 1.39 4.27 4.18v3.63c0 .77.13.88.9.92l-.2 1.96c-1.94.22-2.84-.37-3.21-1.39h-.09v.01zm0-3.61c-2.53.31-3.45.81-3.45 1.89 0 .77.59 1.32 1.52 1.32.81 0 1.47-.37 1.94-.88v-2.33h-.01zM401.82 43.84v-6.18c0-1.5-.59-2-1.76-2-.9 0-1.74.46-2.24.95v7.24h-2.6v-10.1l2.6-.35v1.61c.9-.99 2.11-1.63 3.34-1.63 2.05 0 3.26 1.32 3.26 3.5v6.97h-2.6v-.01zM413.81 29.15l2.6-.35v15.05h-2.6v-.99c-.68.66-1.61 1.32-2.86 1.32-2.68 0-4.42-2.18-4.42-5.32 0-3.23 2.24-5.48 5.13-5.48.73 0 1.52.13 2.16.33v-4.56h-.01zm-1.91 6.29c-1.74 0-2.73 1.43-2.73 3.3 0 1.98.99 3.24 2.55 3.24.86 0 1.52-.31 2.09-.84v-5.1c-.51-.38-1.14-.6-1.91-.6zM427.78 44.17c-2.27 0-3.45-.99-3.37-3.43l.15-4.78-1.58-.18.07-1.65 1.58-.51.04-2.24h2.51l-.04 2.38H430l-.07 2.13h-2.95l-.13 4.69c-.02.95.46 1.39 1.34 1.39.53 0 1.06-.13 1.58-.31l.35 2.11c-.76.27-1.46.4-2.34.4zM438.67 43.84v-6.18c0-1.5-.59-2-1.69-2-.97 0-1.8.46-2.31.95v7.24h-2.6v-14.7l2.6-.35v6.18c.9-.99 2.11-1.61 3.43-1.61 1.96 0 3.17 1.32 3.17 3.5v6.97h-2.6zM449.29 42.68c-.73.88-1.61 1.5-2.86 1.5-1.83 0-3.15-1.25-3.15-2.86 0-1.87 1.36-3.46 6.01-3.61v-.24c0-1.36-.57-1.94-2.02-1.94-1.03 0-2.29.46-3.37 1.08l-.53-2.05c.99-.62 2.57-1.19 4.25-1.19 3.12 0 4.33 1.39 4.27 4.18v3.63c0 .77.13.88.9.92l-.2 1.96c-1.94.22-2.84-.37-3.21-1.39h-.09v.01zm0-3.61c-2.53.31-3.45.81-3.45 1.89 0 .77.59 1.32 1.52 1.32.81 0 1.47-.37 1.94-.88v-2.33h-.01zM461.15 43.84v-6.18c0-1.5-.59-2-1.76-2-.9 0-1.74.46-2.24.95v7.24h-2.6v-10.1l2.6-.35v1.61c.9-.99 2.11-1.63 3.34-1.63 2.05 0 3.26 1.32 3.26 3.5v6.97h-2.6v-.01zM469.05 38.96L469.05 43.84 466.45 43.84 466.45 29.14 469.05 28.79 469.05 38.21 469.09 38.21 472.72 33.7 475.82 33.7 471.62 38.52 475.84 43.84 472.74 43.84 469.09 38.96zM480.47 44.2c-1.32 0-2.93-.37-3.94-.95l.57-2.02c1.01.57 2.31.95 3.43.95 1.01 0 1.67-.42 1.67-1.12 0-.79-.86-1.08-2.05-1.36-1.91-.44-3.43-1.23-3.43-3.15s1.61-3.17 4.05-3.17c1.25 0 2.75.33 3.7.81l-.57 2.02c-.99-.51-2.29-.84-3.19-.84-.95 0-1.52.35-1.52 1.01 0 .77.86 1.04 2.05 1.32 1.94.46 3.45 1.21 3.45 3.19 0 1.9-1.63 3.31-4.22 3.31zM495.41 44.17c-2.27 0-3.45-.99-3.37-3.43l.15-4.78-1.58-.18.07-1.65 1.58-.51.04-2.24h2.51l-.04 2.38h2.86l-.07 2.13h-2.95l-.13 4.69c-.02.95.46 1.39 1.34 1.39.53 0 1.06-.13 1.58-.31l.35 2.11c-.76.27-1.46.4-2.34.4zM504.12 44.17c-2.97 0-5.13-2.02-5.13-5.39 0-3.34 2.27-5.43 5.26-5.43 2.99 0 5.13 2.07 5.13 5.41 0 3.32-2.29 5.41-5.26 5.41zm.04-8.73c-1.69 0-2.62 1.36-2.62 3.32 0 1.94.97 3.3 2.66 3.3 1.67 0 2.6-1.32 2.6-3.28 0-1.95-.97-3.34-2.64-3.34zM13.93 71.84v-6.16c0-1.5-.59-2.02-1.67-2.02-.9 0-1.61.46-2.11.9v7.29h-2.6v-6.16c0-1.5-.57-2.02-1.65-2.02-.92 0-1.63.37-2.11.84v7.35h-2.6v-10.1l2.6-.35v1.43c.95-.95 1.98-1.45 3.23-1.45 1.23 0 2.27.59 2.77 1.74 1.01-1.1 2.22-1.74 3.61-1.74 1.92 0 3.12 1.32 3.12 3.52v6.95h-2.59v-.02zM24.42 71.65l-.59 1.58c-1.01 2.77-2.16 3.61-4.03 3.61-.92 0-1.76-.22-2.57-.59l.77-2.13c.59.29 1.08.48 1.61.48.75 0 1.14-.33 1.69-1.72l.44-1.17-3.96-10.01h2.79l2.53 7.26 2.42-7.26h2.77l-3.87 9.95zM39.97 70.68c-.73.88-1.61 1.5-2.86 1.5-1.83 0-3.15-1.25-3.15-2.86 0-1.87 1.36-3.46 6.01-3.61v-.24c0-1.36-.57-1.94-2.02-1.94-1.03 0-2.29.46-3.37 1.08l-.53-2.05c.99-.62 2.57-1.19 4.25-1.19 3.12 0 4.33 1.39 4.27 4.18v3.63c0 .77.13.88.9.92l-.2 1.96c-1.94.22-2.84-.37-3.21-1.39h-.09v.01zm0-3.61c-2.53.31-3.45.81-3.45 1.89 0 .77.59 1.32 1.52 1.32.81 0 1.47-.37 1.94-.88v-2.33h-.01zM48.38 72.2c-1.32 0-2.93-.37-3.94-.95l.57-2.02c1.01.57 2.31.95 3.43.95 1.01 0 1.67-.42 1.67-1.12 0-.79-.86-1.08-2.05-1.36-1.91-.44-3.43-1.23-3.43-3.15s1.61-3.17 4.05-3.17c1.25 0 2.75.33 3.7.81l-.57 2.02c-.99-.51-2.29-.84-3.19-.84-.95 0-1.52.35-1.52 1.01 0 .77.86 1.04 2.05 1.32 1.94.46 3.45 1.21 3.45 3.19 0 1.9-1.63 3.31-4.22 3.31zM57.86 72.2c-1.32 0-2.93-.37-3.94-.95l.57-2.02c1.01.57 2.31.95 3.43.95 1.01 0 1.67-.42 1.67-1.12 0-.79-.86-1.08-2.05-1.36-1.91-.44-3.43-1.23-3.43-3.15s1.61-3.17 4.05-3.17c1.25 0 2.75.33 3.7.81l-.57 2.02c-.99-.51-2.29-.84-3.19-.84-.95 0-1.52.35-1.52 1.01 0 .77.86 1.04 2.05 1.32 1.94.46 3.45 1.21 3.45 3.19 0 1.9-1.63 3.31-4.22 3.31zM68.73 72.17c-2.97 0-5.13-2.02-5.13-5.39 0-3.34 2.27-5.43 5.26-5.43 2.99 0 5.13 2.07 5.13 5.41 0 3.32-2.29 5.41-5.26 5.41zm.04-8.73c-1.69 0-2.62 1.36-2.62 3.32 0 1.94.97 3.3 2.66 3.3 1.67 0 2.6-1.32 2.6-3.28 0-1.95-.97-3.34-2.64-3.34zM80.83 72.17c-3.3 0-5.26-2.05-5.26-5.37 0-3.3 2.16-5.43 5.35-5.43 1.39 0 2.57.31 3.5.86l-.55 2.09c-.84-.53-1.8-.81-2.75-.81-1.87 0-2.88 1.28-2.88 3.23 0 2.07 1.17 3.28 2.88 3.28 1.06 0 2.02-.29 2.82-.79l.42 2.11c-.89.53-2.17.83-3.53.83zM87.8 59.85c-1.01 0-1.58-.62-1.58-1.56 0-.92.57-1.56 1.58-1.56 1.03 0 1.61.64 1.61 1.56 0 .95-.58 1.56-1.61 1.56zm-1.3 11.99V61.76l2.6-.37v10.45h-2.6zM97.19 70.68c-.73.88-1.61 1.5-2.86 1.5-1.83 0-3.15-1.25-3.15-2.86 0-1.87 1.36-3.46 6.01-3.61v-.24c0-1.36-.57-1.94-2.02-1.94-1.03 0-2.29.46-3.37 1.08l-.53-2.05c.99-.62 2.57-1.19 4.25-1.19 3.12 0 4.33 1.39 4.27 4.18v3.63c0 .77.13.88.9.92l-.2 1.96c-1.94.22-2.84-.37-3.21-1.39h-.09v.01zm0-3.61c-2.53.31-3.45.81-3.45 1.89 0 .77.59 1.32 1.52 1.32.81 0 1.47-.37 1.94-.88v-2.33h-.01zM106.04 72.17c-2.27 0-3.45-.99-3.37-3.43l.15-4.78-1.58-.18.07-1.65 1.58-.51.04-2.24h2.51l-.04 2.38h2.86l-.07 2.13h-2.95l-.13 4.69c-.02.95.46 1.39 1.34 1.39.53 0 1.06-.13 1.58-.31l.35 2.11c-.76.27-1.46.4-2.34.4zM112.18 67.33c.11 1.65 1.23 2.77 3.04 2.77 1.08 0 2.24-.35 3.17-.92l.33 2.16c-.97.53-2.31.84-3.67.84-3.26 0-5.41-2.07-5.41-5.3 0-3.3 2.2-5.5 5.24-5.5 2.68 0 4.18 1.63 4.18 4.11 0 .55-.09 1.25-.22 1.69l-6.64.09v.06h-.02zm4.42-1.6v-.18c0-1.36-.59-2.22-1.94-2.22-1.43 0-2.29 1.17-2.42 2.42l4.36-.02zM124.34 72.2c-1.32 0-2.93-.37-3.94-.95l.57-2.02c1.01.57 2.31.95 3.43.95 1.01 0 1.67-.42 1.67-1.12 0-.79-.86-1.08-2.05-1.36-1.91-.44-3.43-1.23-3.43-3.15s1.61-3.17 4.05-3.17c1.25 0 2.75.33 3.7.81l-.57 2.02c-.99-.51-2.29-.84-3.19-.84-.95 0-1.52.35-1.52 1.01 0 .77.86 1.04 2.05 1.32 1.94.46 3.45 1.21 3.45 3.19.01 1.9-1.62 3.31-4.22 3.31zM131.93 68.63c1.23 0 2.24 1.08 2.24 2.42 0 1.91-1.72 3.32-3.48 4.38l-1.14-1.03c1.39-.97 2.22-1.8 2.22-2.55 0-.57-.42-.97-1.78-1.56.12-.95.86-1.66 1.94-1.66zM147.16 59.26c-.48-.22-1.06-.42-1.65-.42-.95 0-1.34.55-1.34 1.8v1.12h3.01l-.07 2.13h-2.88v7.94h-2.6v-7.92l-1.76-.13.09-1.65 1.65-.48.02-1.08c.07-2.9 1.41-4.05 3.67-4.05.99 0 1.89.29 2.4.51.01.03-.54 2.25-.54 2.23zM153.32 72.17c-2.97 0-5.13-2.02-5.13-5.39 0-3.34 2.27-5.43 5.26-5.43 2.99 0 5.13 2.07 5.13 5.41-.01 3.32-2.29 5.41-5.26 5.41zm.04-8.73c-1.69 0-2.62 1.36-2.62 3.32 0 1.94.97 3.3 2.66 3.3 1.67 0 2.6-1.32 2.6-3.28 0-1.95-.97-3.34-2.64-3.34zM163.35 71.84h-2.6V61.76l2.6-.37v1.65c.64-1.08 1.45-1.67 2.64-1.67.62 0 1.25.13 1.8.46l-.57 2.33c-.48-.26-.97-.4-1.45-.4-.9 0-1.74.57-2.42 1.8v6.28zM180.97 71.84v-6.18c0-1.5-.59-2-1.69-2-.97 0-1.8.46-2.31.95v7.24h-2.6v-14.7l2.6-.35v6.18c.9-.99 2.11-1.61 3.43-1.61 1.96 0 3.17 1.32 3.17 3.5v6.97h-2.6zM191.59 70.68c-.73.88-1.61 1.5-2.86 1.5-1.83 0-3.15-1.25-3.15-2.86 0-1.87 1.36-3.46 6.01-3.61v-.24c0-1.36-.57-1.94-2.02-1.94-1.03 0-2.29.46-3.37 1.08l-.53-2.05c.99-.62 2.57-1.19 4.25-1.19 3.12 0 4.33 1.39 4.27 4.18v3.63c0 .77.13.88.9.92l-.2 1.96c-1.94.22-2.84-.37-3.21-1.39h-.09v.01zm0-3.61c-2.53.31-3.45.81-3.45 1.89 0 .77.59 1.32 1.52 1.32.81 0 1.47-.37 1.94-.88v-2.33h-.01zM201.87 71.87L199.1 71.87 195.23 61.7 198 61.7 200.55 69.11 202.99 61.7 205.78 61.7zM208.45 59.85c-1.01 0-1.58-.62-1.58-1.56 0-.92.57-1.56 1.58-1.56 1.03 0 1.61.64 1.61 1.56-.01.95-.58 1.56-1.61 1.56zm-1.3 11.99V61.76l2.6-.37v10.45h-2.6zM219.12 71.84v-6.18c0-1.5-.59-2-1.76-2-.9 0-1.74.46-2.24.95v7.24h-2.6v-10.1l2.6-.35v1.61c.9-.99 2.11-1.63 3.34-1.63 2.05 0 3.26 1.32 3.26 3.5v6.97h-2.6v-.01zM223.84 70.5c0-.92.75-1.76 1.87-2.13-1.12-.57-1.85-1.72-1.85-3.12 0-2.09 1.65-3.87 4.47-3.87 1.14 0 2.16.33 2.86.64l2.73-.24.11 2.27-1.94-.33c.26.29.46 1.06.46 1.58 0 2.07-1.74 3.7-4.25 3.7-.48 0-.84-.04-1.39-.18-.35.13-.79.46-.79.88 0 .55.46.79 2.09.79h1.06c2.9 0 4.55.81 4.55 2.79 0 2.4-2.71 4.05-5.92 4.05-2.68 0-4.82-.99-4.82-2.82 0-1.06.77-2 2.29-2.25-.87-.31-1.53-.94-1.53-1.76zm1.61 3.48c0 .95 1.17 1.61 2.88 1.61 1.78 0 3.15-.66 3.15-1.72 0-.95-.92-1.17-2.82-1.17-.64 0-1.52-.04-1.94-.09-.72.27-1.27.75-1.27 1.37zm2.91-6.69c1.17 0 1.83-.84 1.83-2.11 0-1.21-.64-2.05-1.94-2.05-1.14 0-1.87.86-1.87 2.13 0 1.22.72 2.03 1.98 2.03zM244.06 72.17c-2.27 0-3.45-.99-3.37-3.43l.15-4.78-1.58-.18.07-1.65 1.58-.51.04-2.24h2.51l-.04 2.38h2.86l-.07 2.13h-2.95l-.13 4.69c-.02.95.46 1.39 1.34 1.39.53 0 1.06-.13 1.58-.31l.35 2.11c-.75.27-1.46.4-2.34.4zM254.95 71.84v-6.18c0-1.5-.59-2-1.69-2-.97 0-1.8.46-2.31.95v7.24h-2.6v-14.7l2.6-.35v6.18c.9-.99 2.11-1.61 3.43-1.61 1.96 0 3.17 1.32 3.17 3.5v6.97h-2.6zM262.21 67.33c.11 1.65 1.23 2.77 3.04 2.77 1.08 0 2.24-.35 3.17-.92l.33 2.16c-.97.53-2.31.84-3.67.84-3.26 0-5.41-2.07-5.41-5.3 0-3.3 2.2-5.5 5.24-5.5 2.68 0 4.18 1.63 4.18 4.11 0 .55-.09 1.25-.22 1.69l-6.64.09v.06h-.02zm4.42-1.6v-.18c0-1.36-.59-2.22-1.94-2.22-1.43 0-2.29 1.17-2.42 2.42l4.36-.02zM282.23 59.26c-.48-.22-1.06-.42-1.65-.42-.95 0-1.34.55-1.34 1.8v1.12h3.01l-.07 2.13h-2.88v7.94h-2.6v-7.92l-1.76-.13.09-1.65 1.65-.48.02-1.08c.07-2.9 1.41-4.05 3.67-4.05.99 0 1.89.29 2.4.51.01.03-.54 2.25-.54 2.23zM288.39 72.17c-2.97 0-5.13-2.02-5.13-5.39 0-3.34 2.27-5.43 5.26-5.43 2.99 0 5.13 2.07 5.13 5.41 0 3.32-2.29 5.41-5.26 5.41zm.04-8.73c-1.69 0-2.62 1.36-2.62 3.32 0 1.94.97 3.3 2.66 3.3 1.67 0 2.6-1.32 2.6-3.28.01-1.95-.96-3.34-2.64-3.34zM298.42 71.84h-2.6V61.76l2.6-.37v1.65c.64-1.08 1.45-1.67 2.64-1.67.62 0 1.25.13 1.8.46l-.57 2.33c-.48-.26-.97-.4-1.45-.4-.9 0-1.74.57-2.42 1.8v6.28zM306.25 67.33c.11 1.65 1.23 2.77 3.04 2.77 1.08 0 2.24-.35 3.17-.92l.33 2.16c-.97.53-2.31.84-3.67.84-3.26 0-5.41-2.07-5.41-5.3 0-3.3 2.2-5.5 5.24-5.5 2.68 0 4.18 1.63 4.18 4.11 0 .55-.09 1.25-.22 1.69l-6.64.09v.06h-.02zm4.43-1.6v-.18c0-1.36-.59-2.22-1.94-2.22-1.43 0-2.29 1.17-2.42 2.42l4.36-.02zM318.42 72.2c-1.32 0-2.93-.37-3.94-.95l.57-2.02c1.01.57 2.31.95 3.43.95 1.01 0 1.67-.42 1.67-1.12 0-.79-.86-1.08-2.05-1.36-1.91-.44-3.43-1.23-3.43-3.15s1.61-3.17 4.05-3.17c1.25 0 2.75.33 3.7.81l-.57 2.02c-.99-.51-2.29-.84-3.19-.84-.95 0-1.52.35-1.52 1.01 0 .77.86 1.04 2.05 1.32 1.94.46 3.45 1.21 3.45 3.19 0 1.9-1.62 3.31-4.22 3.31zM326.05 59.85c-1.01 0-1.58-.62-1.58-1.56 0-.92.57-1.56 1.58-1.56 1.03 0 1.61.64 1.61 1.56 0 .95-.57 1.56-1.61 1.56zm-1.3 11.99V61.76l2.6-.37v10.45h-2.6zM329.55 70.5c0-.92.75-1.76 1.87-2.13-1.12-.57-1.85-1.72-1.85-3.12 0-2.09 1.65-3.87 4.47-3.87 1.14 0 2.16.33 2.86.64l2.73-.24.11 2.27-1.94-.33c.26.29.46 1.06.46 1.58 0 2.07-1.74 3.7-4.25 3.7-.48 0-.84-.04-1.39-.18-.35.13-.79.46-.79.88 0 .55.46.79 2.09.79h1.06c2.9 0 4.55.81 4.55 2.79 0 2.4-2.71 4.05-5.92 4.05-2.68 0-4.82-.99-4.82-2.82 0-1.06.77-2 2.29-2.25-.87-.31-1.53-.94-1.53-1.76zm1.61 3.48c0 .95 1.17 1.61 2.88 1.61 1.78 0 3.15-.66 3.15-1.72 0-.95-.92-1.17-2.82-1.17-.64 0-1.52-.04-1.94-.09-.72.27-1.27.75-1.27 1.37zm2.9-6.69c1.17 0 1.83-.84 1.83-2.11 0-1.21-.64-2.05-1.94-2.05-1.14 0-1.87.86-1.87 2.13 0 1.22.73 2.03 1.98 2.03zM347.77 71.84v-6.18c0-1.5-.59-2-1.69-2-.97 0-1.8.46-2.31.95v7.24h-2.6v-14.7l2.6-.35v6.18c.9-.99 2.11-1.61 3.43-1.61 1.96 0 3.17 1.32 3.17 3.5v6.97h-2.6zM356.66 72.17c-2.27 0-3.45-.99-3.37-3.43l.15-4.78-1.58-.18.07-1.65 1.58-.51.04-2.24h2.51l-.04 2.38h2.86l-.07 2.13h-2.95l-.13 4.69c-.02.95.46 1.39 1.34 1.39.53 0 1.06-.13 1.58-.31l.35 2.11c-.76.27-1.46.4-2.34.4zM369.55 72.17c-2.27 0-3.45-.99-3.37-3.43l.15-4.78-1.58-.18.07-1.65 1.58-.51.04-2.24h2.51l-.04 2.38h2.86l-.07 2.13h-2.95l-.13 4.69c-.02.95.46 1.39 1.34 1.39.53 0 1.06-.13 1.58-.31l.35 2.11c-.76.27-1.46.4-2.34.4zM378.26 72.17c-2.97 0-5.13-2.02-5.13-5.39 0-3.34 2.27-5.43 5.26-5.43 2.99 0 5.13 2.07 5.13 5.41 0 3.32-2.29 5.41-5.26 5.41zm.04-8.73c-1.69 0-2.62 1.36-2.62 3.32 0 1.94.97 3.3 2.66 3.3 1.67 0 2.6-1.32 2.6-3.28 0-1.95-.96-3.34-2.64-3.34zM395.46 72.15c-.66 0-1.61-.13-2.27-.35l-2.49.37V57.14l2.6-.35v5.88c.68-.66 1.61-1.3 2.84-1.3 2.68 0 4.44 2.18 4.44 5.3.01 3.24-2.23 5.48-5.12 5.48zm-.06-8.6c-.86 0-1.52.33-2.09.84v5.13c.48.37 1.14.57 1.91.57 1.74 0 2.73-1.41 2.73-3.3 0-1.99-.95-3.24-2.55-3.24zM405.3 71.84h-2.6V61.76l2.6-.37v1.65c.64-1.08 1.45-1.67 2.64-1.67.62 0 1.25.13 1.8.46l-.57 2.33c-.48-.26-.97-.4-1.45-.4-.9 0-1.74.57-2.42 1.8v6.28zM412.6 59.85c-1.01 0-1.58-.62-1.58-1.56 0-.92.57-1.56 1.58-1.56 1.03 0 1.61.64 1.61 1.56 0 .95-.58 1.56-1.61 1.56zm-1.3 11.99V61.76l2.6-.37v10.45h-2.6zM423.27 71.84v-6.18c0-1.5-.59-2-1.76-2-.9 0-1.74.46-2.24.95v7.24h-2.6v-10.1l2.6-.35v1.61c.9-.99 2.11-1.63 3.34-1.63 2.05 0 3.26 1.32 3.26 3.5v6.97h-2.6v-.01zM428 70.5c0-.92.75-1.76 1.87-2.13-1.12-.57-1.85-1.72-1.85-3.12 0-2.09 1.65-3.87 4.47-3.87 1.14 0 2.16.33 2.86.64l2.73-.24.11 2.27-1.94-.33c.26.29.46 1.06.46 1.58 0 2.07-1.74 3.7-4.25 3.7-.48 0-.84-.04-1.39-.18-.35.13-.79.46-.79.88 0 .55.46.79 2.09.79h1.06c2.9 0 4.55.81 4.55 2.79 0 2.4-2.71 4.05-5.92 4.05-2.68 0-4.82-.99-4.82-2.82 0-1.06.77-2 2.29-2.25-.87-.31-1.53-.94-1.53-1.76zm1.61 3.48c0 .95 1.17 1.61 2.88 1.61 1.78 0 3.15-.66 3.15-1.72 0-.95-.92-1.17-2.82-1.17-.64 0-1.52-.04-1.94-.09-.72.27-1.27.75-1.27 1.37zm2.9-6.69c1.17 0 1.83-.84 1.83-2.11 0-1.21-.64-2.05-1.94-2.05-1.14 0-1.87.86-1.87 2.13 0 1.22.73 2.03 1.98 2.03zM449.85 71.65l-.59 1.58c-1.01 2.77-2.16 3.61-4.03 3.61-.92 0-1.76-.22-2.57-.59l.77-2.13c.59.29 1.08.48 1.61.48.75 0 1.14-.33 1.69-1.72l.44-1.17-3.96-10.01H446l2.53 7.26 2.42-7.26h2.77l-3.87 9.95zM459.61 72.17c-2.97 0-5.13-2.02-5.13-5.39 0-3.34 2.27-5.43 5.26-5.43 2.99 0 5.13 2.07 5.13 5.41 0 3.32-2.29 5.41-5.26 5.41zm.05-8.73c-1.69 0-2.62 1.36-2.62 3.32 0 1.94.97 3.3 2.66 3.3 1.67 0 2.6-1.32 2.6-3.28 0-1.95-.97-3.34-2.64-3.34zM469.56 61.7v6.18c0 1.5.62 1.98 1.72 1.98.92 0 1.74-.42 2.22-.88V61.7h2.6v10.08l-2.6.35v-1.5c-.84.9-2.05 1.54-3.34 1.54-1.98 0-3.19-1.32-3.19-3.5V61.7h2.59zM485.18 59.85c-1.01 0-1.58-.62-1.58-1.56 0-.92.57-1.56 1.58-1.56 1.03 0 1.61.64 1.61 1.56-.01.95-.58 1.56-1.61 1.56zm-1.3 11.99V61.76l2.6-.37v10.45h-2.6zM495.85 71.84v-6.18c0-1.5-.59-2-1.76-2-.9 0-1.74.46-2.24.95v7.24h-2.6v-10.1l2.6-.35v1.61c.9-.99 2.11-1.63 3.34-1.63 2.05 0 3.26 1.32 3.26 3.5v6.97h-2.6v-.01zM5.72 100.17c-2.97 0-5.13-2.02-5.13-5.39 0-3.34 2.27-5.43 5.26-5.43 2.99 0 5.13 2.07 5.13 5.41 0 3.32-2.29 5.41-5.26 5.41zm.04-8.73c-1.69 0-2.62 1.36-2.62 3.32 0 1.94.97 3.3 2.66 3.3 1.67 0 2.6-1.32 2.6-3.28 0-1.95-.97-3.34-2.64-3.34zM19.75 99.84v-6.18c0-1.5-.59-2-1.76-2-.9 0-1.74.46-2.24.95v7.24h-2.6v-10.1l2.6-.35v1.61c.9-.99 2.11-1.63 3.34-1.63 2.05 0 3.26 1.32 3.26 3.5v6.97h-2.6v-.01zM33.66 100.17c-2.27 0-3.45-.99-3.37-3.43l.15-4.78-1.58-.18.07-1.65 1.58-.51.04-2.24h2.51l-.04 2.38h2.86l-.07 2.13h-2.95l-.13 4.69c-.02.95.46 1.39 1.34 1.39.53 0 1.06-.13 1.58-.31l.35 2.11c-.76.27-1.46.4-2.34.4zM44.55 99.84v-6.18c0-1.5-.59-2-1.69-2-.97 0-1.8.46-2.31.95v7.24h-2.6v-14.7l2.6-.35v6.18c.9-.99 2.11-1.61 3.43-1.61 1.96 0 3.17 1.32 3.17 3.5v6.97h-2.6zM51.15 87.85c-1.01 0-1.58-.62-1.58-1.56 0-.92.57-1.56 1.58-1.56 1.03 0 1.61.64 1.61 1.56-.01.95-.58 1.56-1.61 1.56zm-1.3 11.99V89.76l2.6-.37v10.45h-2.6zM58.36 100.2c-1.32 0-2.93-.37-3.94-.95l.57-2.02c1.01.57 2.31.95 3.43.95 1.01 0 1.67-.42 1.67-1.12 0-.79-.86-1.08-2.05-1.36-1.91-.44-3.43-1.23-3.43-3.15s1.61-3.17 4.05-3.17c1.25 0 2.75.33 3.7.81l-.57 2.02c-.99-.51-2.29-.84-3.19-.84-.95 0-1.52.35-1.52 1.01 0 .77.86 1.04 2.05 1.32 1.94.46 3.45 1.21 3.45 3.19.01 1.9-1.62 3.31-4.22 3.31zM75.15 89.37c2.68 0 4.44 2.18 4.44 5.3 0 3.23-2.24 5.48-5.13 5.48-.66 0-1.52-.09-2.16-.29v4.82h-2.6V89.74l2.6-.35v1.28c.69-.66 1.62-1.3 2.85-1.3zm-2.84 8.14c.48.37 1.14.57 1.91.57 1.74 0 2.73-1.41 2.73-3.3 0-1.98-.95-3.23-2.55-3.23-.86 0-1.52.33-2.09.84v5.12zM84.37 99.84h-2.6V89.76l2.6-.37v1.65c.64-1.08 1.45-1.67 2.64-1.67.62 0 1.25.13 1.8.46l-.57 2.33c-.48-.26-.97-.4-1.45-.4-.9 0-1.74.57-2.42 1.8v6.28zM94.79 100.17c-2.97 0-5.13-2.02-5.13-5.39 0-3.34 2.27-5.43 5.26-5.43 2.99 0 5.13 2.07 5.13 5.41 0 3.32-2.28 5.41-5.26 5.41zm.05-8.73c-1.69 0-2.62 1.36-2.62 3.32 0 1.94.97 3.3 2.66 3.3 1.67 0 2.6-1.32 2.6-3.28 0-1.95-.97-3.34-2.64-3.34zM100.45 103.47c1.25-.59 1.78-1.41 1.78-3.59V89.76l2.6-.37v10.54c0 2.95-.75 4.45-2.79 5.3l-1.59-1.76zm3.08-15.62c-1.01 0-1.58-.62-1.58-1.56 0-.92.57-1.56 1.58-1.56 1.03 0 1.61.64 1.61 1.56-.01.95-.58 1.56-1.61 1.56zM109.51 95.33c.11 1.65 1.23 2.77 3.04 2.77 1.08 0 2.24-.35 3.17-.92l.33 2.16c-.97.53-2.31.84-3.67.84-3.26 0-5.41-2.07-5.41-5.3 0-3.3 2.2-5.5 5.24-5.5 2.68 0 4.18 1.63 4.18 4.11 0 .55-.09 1.25-.22 1.69l-6.64.09v.06h-.02zm4.43-1.6v-.18c0-1.36-.59-2.22-1.94-2.22-1.43 0-2.29 1.17-2.42 2.42l4.36-.02zM123.2 100.17c-3.3 0-5.26-2.05-5.26-5.37 0-3.3 2.16-5.43 5.35-5.43 1.39 0 2.57.31 3.5.86l-.55 2.09c-.84-.53-1.8-.81-2.75-.81-1.87 0-2.88 1.28-2.88 3.23 0 2.07 1.17 3.28 2.88 3.28 1.06 0 2.02-.29 2.82-.79l.42 2.11c-.89.53-2.17.83-3.53.83zM132.46 100.17c-2.27 0-3.45-.99-3.37-3.43l.15-4.78-1.58-.18.07-1.65 1.58-.51.04-2.24h2.51l-.04 2.38h2.86l-.07 2.13h-2.95l-.13 4.69c-.02.95.46 1.39 1.34 1.39.53 0 1.06-.13 1.58-.31l.35 2.11c-.76.27-1.46.4-2.34.4zM138.13 100.17c-1.03 0-1.76-.75-1.76-1.72s.73-1.69 1.76-1.69c1.01 0 1.72.73 1.72 1.69s-.7 1.72-1.72 1.72zM9.85 144.62c0 1.85-1.12 3.22-4.38 3.22H1.09v-11.25h4.3c3.04 0 4.09 1.26 4.09 2.97 0 1.21-.72 2.02-2.02 2.45 1.49.32 2.39 1.28 2.39 2.61zm-4.52-6.26H3.26v3.06h1.89c1.4 0 2.14-.59 2.14-1.57 0-.95-.68-1.49-1.96-1.49zm-.06 4.66H3.25v3.06h2.18c1.48 0 2.2-.52 2.2-1.55 0-1.11-.97-1.51-2.36-1.51zM17.08 148.11c-3.46 0-5.85-2.21-5.85-5.87 0-3.64 2.38-5.92 5.87-5.92 1.37 0 2.97.36 3.98.97l-.7 1.91c-.99-.61-2.12-.99-3.24-.99-2.23 0-3.69 1.53-3.69 3.96 0 2.52 1.39 4.09 3.69 4.09.79 0 1.57-.2 2.12-.45v-2.16h-2.95v-1.85h4.99v5.26c-1.21.68-2.8 1.05-4.22 1.05zM24.46 145.21c1.01 0 1.84.88 1.84 1.98 0 1.57-1.4 2.72-2.84 3.58l-.94-.85c1.13-.79 1.82-1.48 1.82-2.09 0-.47-.34-.79-1.46-1.28.09-.76.7-1.34 1.58-1.34zM40.46 139.11c-.9-.59-1.87-.9-2.95-.9-2.2 0-3.66 1.51-3.66 3.96 0 2.49 1.42 4.05 3.69 4.05 1.15 0 2.25-.43 3.08-1.01l.41 2.02c-.9.54-2.3.88-3.58.88-3.46 0-5.82-2.18-5.82-5.87 0-3.6 2.36-5.92 5.87-5.92 1.31 0 2.67.34 3.64.88l-.68 1.91zM46.38 148.11c-2.43 0-4.2-1.66-4.2-4.41 0-2.74 1.85-4.45 4.3-4.45 2.45 0 4.2 1.69 4.2 4.43.01 2.72-1.86 4.43-4.3 4.43zm.04-7.14c-1.39 0-2.14 1.12-2.14 2.72 0 1.58.79 2.7 2.18 2.7 1.37 0 2.12-1.08 2.12-2.68s-.79-2.74-2.16-2.74zM57.87 147.84v-5.06c0-1.22-.49-1.64-1.44-1.64-.74 0-1.42.38-1.84.77v5.92h-2.12v-8.26l2.12-.29v1.31c.74-.81 1.73-1.33 2.74-1.33 1.67 0 2.66 1.08 2.66 2.86v5.71h-2.12v.01zM64.78 148.13c-1.08 0-2.39-.31-3.22-.78l.47-1.66c.83.47 1.89.77 2.81.77.83 0 1.37-.34 1.37-.92 0-.65-.7-.88-1.67-1.12-1.57-.36-2.81-1.01-2.81-2.58s1.31-2.59 3.31-2.59c1.03 0 2.25.27 3.03.67l-.47 1.66c-.81-.41-1.87-.68-2.61-.68-.77 0-1.24.29-1.24.83 0 .63.7.85 1.67 1.08 1.58.38 2.83.99 2.83 2.61-.01 1.56-1.35 2.71-3.47 2.71zM72.01 139.54v5.06c0 1.22.5 1.62 1.41 1.62.76 0 1.42-.34 1.82-.72v-5.96h2.12v8.25l-2.12.29v-1.22c-.68.74-1.67 1.26-2.74 1.26-1.62 0-2.61-1.08-2.61-2.86v-5.71h2.12v-.01zM79.63 147.84L79.63 135.81 81.75 135.52 81.75 147.84zM86.96 148.11c-1.85 0-2.83-.81-2.75-2.81l.13-3.91-1.3-.14.05-1.35 1.3-.41.04-1.84h2.05l-.04 1.94h2.34l-.05 1.75h-2.41l-.11 3.84c-.02.77.38 1.13 1.1 1.13.43 0 .86-.11 1.3-.25l.29 1.73c-.65.22-1.23.32-1.94.32zM94.82 146.89c-.59.72-1.31 1.22-2.34 1.22-1.5 0-2.58-1.03-2.58-2.34 0-1.53 1.12-2.83 4.92-2.95v-.2c0-1.12-.47-1.58-1.66-1.58-.85 0-1.87.38-2.75.88l-.43-1.67c.81-.5 2.11-.97 3.47-.97 2.56 0 3.55 1.13 3.49 3.42v2.97c0 .63.11.72.74.76l-.16 1.6c-1.58.18-2.32-.31-2.63-1.13h-.07v-.01zm0-2.95c-2.07.25-2.83.67-2.83 1.55 0 .63.49 1.08 1.24 1.08.67 0 1.21-.31 1.58-.72v-1.91h.01zM104.52 147.84v-5.06c0-1.22-.49-1.64-1.44-1.64-.74 0-1.42.38-1.84.77v5.92h-2.12v-8.26l2.12-.29v1.31c.74-.81 1.73-1.33 2.74-1.33 1.67 0 2.66 1.08 2.66 2.86v5.71h-2.12v.01zM111.79 148.11c-1.85 0-2.83-.81-2.75-2.81l.13-3.91-1.3-.14.05-1.35 1.3-.41.04-1.84h2.05l-.04 1.94h2.34l-.05 1.75h-2.41l-.11 3.84c-.02.77.38 1.13 1.1 1.13.43 0 .86-.11 1.3-.25l.29 1.73c-.64.22-1.22.32-1.94.32zM9.85 164.62c0 1.85-1.12 3.22-4.38 3.22H1.09v-11.25h4.3c3.04 0 4.09 1.26 4.09 2.97 0 1.21-.72 2.02-2.02 2.45 1.49.32 2.39 1.28 2.39 2.61zm-4.52-6.26H3.26v3.06h1.89c1.4 0 2.14-.59 2.14-1.57 0-.95-.68-1.49-1.96-1.49zm-.06 4.66H3.25v3.06h2.18c1.48 0 2.2-.52 2.2-1.55 0-1.11-.97-1.51-2.36-1.51zM13.73 167.84h-2.12v-8.25l2.12-.31v1.35c.52-.88 1.19-1.37 2.16-1.37.5 0 1.03.11 1.48.38l-.47 1.91c-.4-.22-.79-.32-1.19-.32-.74 0-1.42.47-1.98 1.48v5.13zM19.71 158.03c-.83 0-1.3-.5-1.3-1.28 0-.76.47-1.28 1.3-1.28.85 0 1.31.52 1.31 1.28 0 .78-.47 1.28-1.31 1.28zm-1.06 9.81v-8.25l2.12-.31v8.55h-2.12v.01zM28.51 155.82l2.12-.29v12.32h-2.12v-.81c-.56.54-1.31 1.08-2.34 1.08-2.2 0-3.62-1.78-3.62-4.36 0-2.65 1.84-4.48 4.2-4.48.59 0 1.24.11 1.76.27v-3.73zm-1.56 5.15c-1.42 0-2.23 1.17-2.23 2.7 0 1.62.81 2.65 2.09 2.65.7 0 1.24-.25 1.71-.69v-4.18c-.42-.3-.94-.48-1.57-.48zM32.43 166.75c0-.76.61-1.44 1.53-1.75-.92-.47-1.51-1.41-1.51-2.56 0-1.71 1.35-3.17 3.65-3.17.94 0 1.76.27 2.34.52l2.23-.2.09 1.85-1.58-.27c.22.23.38.87.38 1.3 0 1.69-1.42 3.03-3.47 3.03-.4 0-.68-.04-1.13-.14-.29.11-.65.38-.65.72 0 .45.38.65 1.71.65h.86c2.38 0 3.73.67 3.73 2.29 0 1.96-2.21 3.31-4.84 3.31-2.2 0-3.94-.81-3.94-2.3 0-.87.63-1.64 1.87-1.84-.73-.26-1.27-.78-1.27-1.44zm1.32 2.84c0 .77.95 1.31 2.36 1.31 1.46 0 2.58-.54 2.58-1.4 0-.77-.76-.95-2.3-.95-.52 0-1.24-.04-1.58-.07-.61.21-1.06.61-1.06 1.11zm2.37-5.47c.95 0 1.49-.68 1.49-1.73 0-.99-.52-1.67-1.58-1.67-.94 0-1.53.7-1.53 1.75 0 .98.6 1.65 1.62 1.65zM43.54 164.15c.09 1.35 1.01 2.27 2.48 2.27.88 0 1.84-.29 2.59-.76l.27 1.76c-.79.43-1.89.68-3.01.68-2.66 0-4.43-1.69-4.43-4.34 0-2.7 1.8-4.5 4.29-4.5 2.2 0 3.42 1.33 3.42 3.37 0 .45-.07 1.03-.18 1.39l-5.44.07v.06h.01zm3.62-1.31v-.14c0-1.12-.49-1.82-1.58-1.82-1.17 0-1.87.95-1.98 1.98l3.56-.02zM55.37 159.27c2.2 0 3.64 1.78 3.64 4.34 0 2.65-1.84 4.48-4.2 4.48-.54 0-1.24-.07-1.76-.23v3.94h-2.12v-12.23l2.12-.29v1.04c.55-.52 1.31-1.05 2.32-1.05zm-2.33 6.67c.4.31.94.47 1.57.47 1.42 0 2.23-1.15 2.23-2.7 0-1.62-.77-2.65-2.09-2.65-.7 0-1.24.27-1.71.68v4.2zM64.49 168.11c-2.43 0-4.2-1.66-4.2-4.41 0-2.74 1.85-4.45 4.3-4.45 2.45 0 4.2 1.69 4.2 4.43.01 2.72-1.87 4.43-4.3 4.43zm.04-7.14c-1.39 0-2.14 1.12-2.14 2.72 0 1.58.79 2.7 2.18 2.7 1.37 0 2.12-1.08 2.12-2.68s-.79-2.74-2.16-2.74zM72.7 167.84h-2.12v-8.25l2.12-.31v1.35c.52-.88 1.19-1.37 2.16-1.37.5 0 1.03.11 1.48.38l-.47 1.91c-.4-.22-.79-.32-1.19-.32-.74 0-1.42.47-1.98 1.48v5.13zM80.73 168.11c-1.85 0-2.83-.81-2.75-2.81l.13-3.91-1.3-.14.05-1.35 1.3-.41.04-1.84h2.05l-.04 1.94h2.34l-.05 1.75h-2.41l-.11 3.84c-.02.77.38 1.13 1.1 1.13.43 0 .86-.11 1.3-.25l.29 1.73c-.65.22-1.22.32-1.94.32zM96.79 159.11c-.9-.59-1.87-.9-2.95-.9-2.2 0-3.66 1.51-3.66 3.96 0 2.49 1.42 4.05 3.69 4.05 1.15 0 2.25-.43 3.08-1.01l.41 2.02c-.9.54-2.3.88-3.58.88-3.46 0-5.82-2.18-5.82-5.87 0-3.6 2.36-5.92 5.87-5.92 1.31 0 2.67.34 3.64.88l-.68 1.91zM102.71 168.11c-2.43 0-4.2-1.66-4.2-4.41 0-2.74 1.85-4.45 4.3-4.45 2.45 0 4.2 1.69 4.2 4.43 0 2.72-1.87 4.43-4.3 4.43zm.03-7.14c-1.39 0-2.14 1.12-2.14 2.72 0 1.58.79 2.7 2.18 2.7 1.37 0 2.12-1.08 2.12-2.68s-.79-2.74-2.16-2.74zM114.19 167.84v-5.06c0-1.22-.49-1.64-1.44-1.64-.74 0-1.42.38-1.84.77v5.92h-2.12v-8.26l2.12-.29v1.31c.74-.81 1.73-1.33 2.74-1.33 1.67 0 2.66 1.08 2.66 2.86v5.71h-2.12v.01zM121.1 168.13c-1.08 0-2.39-.31-3.22-.78l.47-1.66c.83.47 1.89.77 2.81.77.83 0 1.37-.34 1.37-.92 0-.65-.7-.88-1.67-1.12-1.57-.36-2.81-1.01-2.81-2.58s1.31-2.59 3.31-2.59c1.03 0 2.25.27 3.03.67l-.47 1.66c-.81-.41-1.87-.68-2.61-.68-.77 0-1.24.29-1.24.83 0 .63.7.85 1.67 1.08 1.58.38 2.83.99 2.83 2.61-.01 1.56-1.34 2.71-3.47 2.71zM128.34 159.54v5.06c0 1.22.5 1.62 1.41 1.62.76 0 1.42-.34 1.82-.72v-5.96h2.12v8.25l-2.12.29v-1.22c-.68.74-1.67 1.26-2.74 1.26-1.62 0-2.61-1.08-2.61-2.86v-5.71h2.12v-.01zM135.95 167.84L135.95 155.81 138.07 155.52 138.07 167.84zM143.28 168.11c-1.85 0-2.83-.81-2.75-2.81l.13-3.91-1.3-.14.05-1.35 1.3-.41.04-1.84h2.05l-.04 1.94h2.34l-.05 1.75h-2.41l-.11 3.84c-.02.77.38 1.13 1.1 1.13.43 0 .86-.11 1.3-.25l.29 1.73c-.65.22-1.22.32-1.94.32zM147.85 158.03c-.83 0-1.3-.5-1.3-1.28 0-.76.47-1.28 1.3-1.28.85 0 1.31.52 1.31 1.28 0 .78-.47 1.28-1.31 1.28zm-1.06 9.81v-8.25l2.12-.31v8.55h-2.12v.01zM156.58 167.84v-5.06c0-1.22-.49-1.64-1.44-1.64-.74 0-1.42.38-1.84.77v5.92h-2.12v-8.26l2.12-.29v1.31c.74-.81 1.73-1.33 2.74-1.33 1.67 0 2.66 1.08 2.66 2.86v5.71h-2.12v.01zM160.45 166.75c0-.76.61-1.44 1.53-1.75-.92-.47-1.51-1.41-1.51-2.56 0-1.71 1.35-3.17 3.65-3.17.94 0 1.76.27 2.34.52l2.23-.2.09 1.85-1.58-.27c.22.23.38.87.38 1.3 0 1.69-1.42 3.03-3.47 3.03-.4 0-.68-.04-1.13-.14-.29.11-.65.38-.65.72 0 .45.38.65 1.71.65h.86c2.38 0 3.73.67 3.73 2.29 0 1.96-2.21 3.31-4.84 3.31-2.2 0-3.94-.81-3.94-2.3 0-.87.63-1.64 1.87-1.84-.73-.26-1.27-.78-1.27-1.44zm1.31 2.84c0 .77.95 1.31 2.36 1.31 1.46 0 2.58-.54 2.58-1.4 0-.77-.76-.95-2.3-.95-.52 0-1.24-.04-1.58-.07-.61.21-1.06.61-1.06 1.11zm2.38-5.47c.95 0 1.49-.68 1.49-1.73 0-.99-.52-1.67-1.58-1.67-.94 0-1.53.7-1.53 1.75 0 .98.59 1.65 1.62 1.65zM170.62 165.21c1.01 0 1.84.88 1.84 1.98 0 1.57-1.4 2.72-2.84 3.58l-.94-.85c1.13-.79 1.82-1.48 1.82-2.09 0-.47-.34-.79-1.46-1.28.08-.76.69-1.34 1.58-1.34zM178.34 167.84L178.34 156.59 180.54 156.59 180.54 165.92 185.62 165.92 185.62 167.85 178.34 167.85zM187.46 167.84L187.46 156.59 189.66 156.59 189.66 165.92 194.74 165.92 194.74 167.85 187.46 167.85zM204.19 159.11c-.9-.59-1.87-.9-2.95-.9-2.2 0-3.66 1.51-3.66 3.96 0 2.49 1.42 4.05 3.69 4.05 1.15 0 2.25-.43 3.08-1.01l.41 2.02c-.9.54-2.3.88-3.58.88-3.46 0-5.82-2.18-5.82-5.87 0-3.6 2.36-5.92 5.87-5.92 1.31 0 2.67.34 3.64.88l-.68 1.91z" transform="translate(-51 -700) translate(51 700) translate(108 116)"/>
                </g>
            </g>
        </g>
    </g>
</svg>
