<svg xmlns="http://www.w3.org/2000/svg" width="342" height="370" viewBox="0 0 342 370">
    <g fill="none" fill-rule="evenodd">
        <g fill-rule="nonzero">
            <g>
                <path fill="#4789AD" d="M0 0H342V370H0z" transform="translate(-37 -1177) translate(37 1177)"/>
                <g fill="#FFF">
                    <path d="M7.52 10.66c0-1.04-.94-1.42-2.78-1.92-1.8-.5-3.88-1.3-3.88-3.76 0-2.22 1.7-3.7 4.48-3.7 1.7 0 3.1.42 4.3 1.1l-.6 2.06c-1.1-.66-2.5-1.08-3.68-1.08-1.46 0-2.1.62-2.1 1.48 0 1.02 1.12 1.42 2.84 1.88 1.88.52 3.82 1.38 3.82 3.76 0 2.28-1.82 3.9-4.76 3.9-1.66 0-3.32-.44-4.5-1.16l.56-2.1c1.16.7 2.48 1.2 3.98 1.2 1.36 0 2.32-.66 2.32-1.66zM16.1 14.38c-2.7 0-4.66-1.84-4.66-4.9 0-3.04 2.06-4.94 4.78-4.94s4.66 1.88 4.66 4.92c0 3.02-2.08 4.92-4.78 4.92zm.04-7.94c-1.54 0-2.38 1.24-2.38 3.02 0 1.76.88 3 2.42 3 1.52 0 2.36-1.2 2.36-2.98s-.88-3.04-2.4-3.04zM26.9 12.86c0-.84.68-1.6 1.7-1.94-1.02-.52-1.68-1.56-1.68-2.84 0-1.9 1.5-3.52 4.06-3.52 1.04 0 1.96.3 2.6.58l2.48-.22.1 2.06-1.76-.3c.24.26.42.96.42 1.44 0 1.88-1.58 3.36-3.86 3.36-.44 0-.76-.04-1.26-.16-.32.12-.72.42-.72.8 0 .5.42.72 1.9.72h.96c2.64 0 4.14.74 4.14 2.54 0 2.18-2.46 3.68-5.38 3.68-2.44 0-4.38-.9-4.38-2.56 0-.96.7-1.82 2.08-2.04-.8-.28-1.4-.86-1.4-1.6zm1.46 3.16c0 .86 1.06 1.46 2.62 1.46 1.62 0 2.86-.6 2.86-1.56 0-.86-.84-1.06-2.56-1.06-.58 0-1.38-.04-1.76-.08-.66.24-1.16.68-1.16 1.24zM31 9.94c1.06 0 1.66-.76 1.66-1.92 0-1.1-.58-1.86-1.76-1.86-1.04 0-1.7.78-1.7 1.94 0 1.1.66 1.84 1.8 1.84zM37.46 14.08L37.46.72 39.82.4 39.82 14.08 37.46 14.08zM47.18 13.02c-.66.8-1.46 1.36-2.6 1.36-1.66 0-2.86-1.14-2.86-2.6 0-1.7 1.24-3.14 5.46-3.28v-.22c0-1.24-.52-1.76-1.84-1.76-.94 0-2.08.42-3.06.98l-.48-1.86c.9-.56 2.34-1.08 3.86-1.08 2.84 0 3.94 1.26 3.88 3.8v3.3c0 .7.12.8.82.84l-.18 1.78c-1.76.2-2.58-.34-2.92-1.26h-.08zm0-3.28c-2.3.28-3.14.74-3.14 1.72 0 .7.54 1.2 1.38 1.2.74 0 1.34-.34 1.76-.8V9.74zM58.04.72L60.4.4v13.68h-2.36v-.9c-.62.6-1.46 1.2-2.6 1.2-2.44 0-4.02-1.98-4.02-4.84 0-2.94 2.04-4.98 4.66-4.98.66 0 1.38.12 1.96.3V.72zM56.3 6.44c-1.58 0-2.48 1.3-2.48 3 0 1.8.9 2.94 2.32 2.94.78 0 1.38-.28 1.9-.76V6.98c-.46-.34-1.04-.54-1.74-.54zM70.74 14.38c-2.06 0-3.14-.9-3.06-3.12l.14-4.34-1.44-.16.06-1.5 1.44-.46.04-2.04h2.28l-.04 2.16h2.6l-.06 1.94h-2.68l-.12 4.26c-.02.86.42 1.26 1.22 1.26.48 0 .96-.12 1.44-.28l.32 1.92c-.7.24-1.34.36-2.14.36zM78.66 14.38c-2.7 0-4.66-1.84-4.66-4.9 0-3.04 2.06-4.94 4.78-4.94s4.66 1.88 4.66 4.92c0 3.02-2.08 4.92-4.78 4.92zm.04-7.94c-1.54 0-2.38 1.24-2.38 3.02 0 1.76.88 3 2.42 3 1.52 0 2.36-1.2 2.36-2.98s-.88-3.04-2.4-3.04zM95.98 14.08V8.46c0-1.36-.54-1.82-1.54-1.82-.88 0-1.64.42-2.1.86v6.58h-2.36V.72L92.34.4v5.62c.82-.9 1.92-1.46 3.12-1.46 1.78 0 2.88 1.2 2.88 3.18v6.34h-2.36zM105.64 13.02c-.66.8-1.46 1.36-2.6 1.36-1.66 0-2.86-1.14-2.86-2.6 0-1.7 1.24-3.14 5.46-3.28v-.22c0-1.24-.52-1.76-1.84-1.76-.94 0-2.08.42-3.06.98l-.48-1.86c.9-.56 2.34-1.08 3.86-1.08 2.84 0 3.94 1.26 3.88 3.8v3.3c0 .7.12.8.82.84l-.18 1.78c-1.76.2-2.58-.34-2.92-1.26h-.08zm0-3.28c-2.3.28-3.14.74-3.14 1.72 0 .7.54 1.2 1.38 1.2.74 0 1.34-.34 1.76-.8V9.74zM114.98 14.1L112.46 14.1 108.94 4.86 111.46 4.86 113.78 11.6 116 4.86 118.54 4.86zM121.46 9.98c.1 1.5 1.12 2.52 2.76 2.52.98 0 2.04-.32 2.88-.84l.3 1.96c-.88.48-2.1.76-3.34.76-2.96 0-4.92-1.88-4.92-4.82 0-3 2-5 4.76-5 2.44 0 3.8 1.48 3.8 3.74 0 .5-.08 1.14-.2 1.54l-6.04.08v.06zm4.02-1.46v-.16c0-1.24-.54-2.02-1.76-2.02-1.3 0-2.08 1.06-2.2 2.2l3.96-.02zM138.96 13.9l-.54 1.44c-.92 2.52-1.96 3.28-3.66 3.28-.84 0-1.6-.2-2.34-.54l.7-1.94c.54.26.98.44 1.46.44.68 0 1.04-.3 1.54-1.56l.4-1.06-3.6-9.1h2.54l2.3 6.6 2.2-6.6h2.52l-3.52 9.04zM147.84 14.38c-2.7 0-4.66-1.84-4.66-4.9 0-3.04 2.06-4.94 4.78-4.94s4.66 1.88 4.66 4.92c0 3.02-2.08 4.92-4.78 4.92zm.04-7.94c-1.54 0-2.38 1.24-2.38 3.02 0 1.76.88 3 2.42 3 1.52 0 2.36-1.2 2.36-2.98s-.88-3.04-2.4-3.04zM156.88 4.86v5.62c0 1.36.56 1.8 1.56 1.8.84 0 1.58-.38 2.02-.8V4.86h2.36v9.16l-2.36.32v-1.36c-.76.82-1.86 1.4-3.04 1.4-1.8 0-2.9-1.2-2.9-3.18V4.86h2.36zM167.7 14.08h-2.36V4.92l2.36-.34v1.5c.58-.98 1.32-1.52 2.4-1.52.56 0 1.14.12 1.64.42l-.52 2.12c-.44-.24-.88-.36-1.32-.36-.82 0-1.58.52-2.2 1.64v5.7zM182.04 14.36c-.6 0-1.46-.12-2.06-.32l-2.26.34V.72l2.36-.32v5.34c.62-.6 1.46-1.18 2.58-1.18 2.44 0 4.04 1.98 4.04 4.82 0 2.94-2.04 4.98-4.66 4.98zm-.06-7.82c-.78 0-1.38.3-1.9.76v4.66c.44.34 1.04.52 1.74.52 1.58 0 2.48-1.28 2.48-3 0-1.8-.86-2.94-2.32-2.94zM190.98 14.08h-2.36V4.92l2.36-.34v1.5c.58-.98 1.32-1.52 2.4-1.52.56 0 1.14.12 1.64.42l-.52 2.12c-.44-.24-.88-.36-1.32-.36-.82 0-1.58.52-2.2 1.64v5.7zM197.62 3.18c-.92 0-1.44-.56-1.44-1.42 0-.84.52-1.42 1.44-1.42.94 0 1.46.58 1.46 1.42 0 .86-.52 1.42-1.46 1.42zm-1.18 10.9V4.92l2.36-.34v9.5h-2.36zM200.8 12.86c0-.84.68-1.6 1.7-1.94-1.02-.52-1.68-1.56-1.68-2.84 0-1.9 1.5-3.52 4.06-3.52 1.04 0 1.96.3 2.6.58l2.48-.22.1 2.06-1.76-.3c.24.26.42.96.42 1.44 0 1.88-1.58 3.36-3.86 3.36-.44 0-.76-.04-1.26-.16-.32.12-.72.42-.72.8 0 .5.42.72 1.9.72h.96c2.64 0 4.14.74 4.14 2.54 0 2.18-2.46 3.68-5.38 3.68-2.44 0-4.38-.9-4.38-2.56 0-.96.7-1.82 2.08-2.04-.8-.28-1.4-.86-1.4-1.6zm1.46 3.16c0 .86 1.06 1.46 2.62 1.46 1.62 0 2.86-.6 2.86-1.56 0-.86-.84-1.06-2.56-1.06-.58 0-1.38-.04-1.76-.08-.66.24-1.16.68-1.16 1.24zm2.64-6.08c1.06 0 1.66-.76 1.66-1.92 0-1.1-.58-1.86-1.76-1.86-1.04 0-1.7.78-1.7 1.94 0 1.1.66 1.84 1.8 1.84zM217.36 14.08V8.46c0-1.36-.54-1.82-1.54-1.82-.88 0-1.64.42-2.1.86v6.58h-2.36V.72l2.36-.32v5.62c.82-.9 1.92-1.46 3.12-1.46 1.78 0 2.88 1.2 2.88 3.18v6.34h-2.36zM225.44 14.38c-2.06 0-3.14-.9-3.06-3.12l.14-4.34-1.44-.16.06-1.5 1.44-.46.04-2.04h2.28l-.04 2.16h2.6l-.06 1.94h-2.68l-.12 4.26c-.02.86.42 1.26 1.22 1.26.48 0 .96-.12 1.44-.28l.32 1.92c-.7.24-1.34.36-2.14.36zM12.84 38.08v-5.6c0-1.36-.54-1.84-1.52-1.84-.82 0-1.46.42-1.92.82V38.08H7.04v-5.6c0-1.36-.52-1.84-1.5-1.84-.84 0-1.48.34-1.92.76v6.68H1.26V28.9l2.36-.32v1.3c.86-.86 1.8-1.32 2.94-1.32 1.12 0 2.06.54 2.52 1.58.92-1 2.02-1.58 3.28-1.58 1.74 0 2.84 1.2 2.84 3.2v6.32h-2.36zM18.82 27.18c-.92 0-1.44-.56-1.44-1.42 0-.84.52-1.42 1.44-1.42.94 0 1.46.58 1.46 1.42 0 .86-.52 1.42-1.46 1.42zm-1.18 10.9v-9.16l2.36-.34v9.5h-2.36zM28.52 38.08v-5.62c0-1.36-.54-1.82-1.6-1.82-.82 0-1.58.42-2.04.86v6.58h-2.36V28.9l2.36-.32v1.46c.82-.9 1.92-1.48 3.04-1.48 1.86 0 2.96 1.2 2.96 3.18v6.34h-2.36zM39.42 24.72l2.36-.32v13.68h-2.36v-.9c-.62.6-1.46 1.2-2.6 1.2-2.44 0-4.02-1.98-4.02-4.84 0-2.94 2.04-4.98 4.66-4.98.66 0 1.38.12 1.96.3v-4.14zm-1.74 5.72c-1.58 0-2.48 1.3-2.48 3 0 1.8.9 2.94 2.32 2.94.78 0 1.38-.28 1.9-.76v-4.64c-.46-.34-1.04-.54-1.74-.54zM45.44 35.16c1.12 0 2.04.98 2.04 2.2 0 1.74-1.56 3.02-3.16 3.98l-1.04-.94c1.26-.88 2.02-1.64 2.02-2.32 0-.52-.38-.88-1.62-1.42.1-.86.78-1.5 1.76-1.5zM59.92 24.72l2.36-.32v13.68h-2.36v-.9c-.62.6-1.46 1.2-2.6 1.2-2.44 0-4.02-1.98-4.02-4.84 0-2.94 2.04-4.98 4.66-4.98.66 0 1.38.12 1.96.3v-4.14zm-1.74 5.72c-1.58 0-2.48 1.3-2.48 3 0 1.8.9 2.94 2.32 2.94.78 0 1.38-.28 1.9-.76v-4.64c-.46-.34-1.04-.54-1.74-.54zM66.58 33.98c.1 1.5 1.12 2.52 2.76 2.52.98 0 2.04-.32 2.88-.84l.3 1.96c-.88.48-2.1.76-3.34.76-2.96 0-4.92-1.88-4.92-4.82 0-3 2-5 4.76-5 2.44 0 3.8 1.48 3.8 3.74 0 .5-.08 1.14-.2 1.54l-6.04.08v.06zm4.02-1.46v-.16c0-1.24-.54-2.02-1.76-2.02-1.3 0-2.08 1.06-2.2 2.2l3.96-.02zM76.56 33.98c.1 1.5 1.12 2.52 2.76 2.52.98 0 2.04-.32 2.88-.84l.3 1.96c-.88.48-2.1.76-3.34.76-2.96 0-4.92-1.88-4.92-4.82 0-3 2-5 4.76-5 2.44 0 3.8 1.48 3.8 3.74 0 .5-.08 1.14-.2 1.54l-6.04.08v.06zm4.02-1.46v-.16c0-1.24-.54-2.02-1.76-2.02-1.3 0-2.08 1.06-2.2 2.2l3.96-.02zM89.7 28.56c2.44 0 4.04 1.98 4.04 4.82 0 2.94-2.04 4.98-4.66 4.98-.6 0-1.38-.08-1.96-.26v4.38h-2.36V28.9l2.36-.32v1.16c.62-.6 1.46-1.18 2.58-1.18zm-2.58 7.4c.44.34 1.04.52 1.74.52 1.58 0 2.48-1.28 2.48-3 0-1.8-.86-2.94-2.32-2.94-.78 0-1.38.3-1.9.76v4.66zM102.06 33.98c.1 1.5 1.12 2.52 2.76 2.52.98 0 2.04-.32 2.88-.84l.3 1.96c-.88.48-2.1.76-3.34.76-2.96 0-4.92-1.88-4.92-4.82 0-3 2-5 4.76-5 2.44 0 3.8 1.48 3.8 3.74 0 .5-.08 1.14-.2 1.54l-6.04.08v.06zm4.02-1.46v-.16c0-1.24-.54-2.02-1.76-2.02-1.3 0-2.08 1.06-2.2 2.2l3.96-.02zM115.58 38.08L113.56 34.8 111.56 38.08 108.96 38.08 112.14 33.36 109.08 28.86 111.64 28.86 113.54 31.84 115.38 28.86 117.96 28.86 114.98 33.32 118.14 38.08zM124.3 28.56c2.44 0 4.04 1.98 4.04 4.82 0 2.94-2.04 4.98-4.66 4.98-.6 0-1.38-.08-1.96-.26v4.38h-2.36V28.9l2.36-.32v1.16c.62-.6 1.46-1.18 2.58-1.18zm-2.58 7.4c.44.34 1.04.52 1.74.52 1.58 0 2.48-1.28 2.48-3 0-1.8-.86-2.94-2.32-2.94-.78 0-1.38.3-1.9.76v4.66zM132.1 33.98c.1 1.5 1.12 2.52 2.76 2.52.98 0 2.04-.32 2.88-.84l.3 1.96c-.88.48-2.1.76-3.34.76-2.96 0-4.92-1.88-4.92-4.82 0-3 2-5 4.76-5 2.44 0 3.8 1.48 3.8 3.74 0 .5-.08 1.14-.2 1.54l-6.04.08v.06zm4.02-1.46v-.16c0-1.24-.54-2.02-1.76-2.02-1.3 0-2.08 1.06-2.2 2.2l3.96-.02zM142.66 38.08h-2.36v-9.16l2.36-.34v1.5c.58-.98 1.32-1.52 2.4-1.52.56 0 1.14.12 1.64.42l-.52 2.12c-.44-.24-.88-.36-1.32-.36-.82 0-1.58.52-2.2 1.64v5.7zM149.3 27.18c-.92 0-1.44-.56-1.44-1.42 0-.84.52-1.42 1.44-1.42.94 0 1.46.58 1.46 1.42 0 .86-.52 1.42-1.46 1.42zm-1.18 10.9v-9.16l2.36-.34v9.5h-2.36zM154.78 33.98c.1 1.5 1.12 2.52 2.76 2.52.98 0 2.04-.32 2.88-.84l.3 1.96c-.88.48-2.1.76-3.34.76-2.96 0-4.92-1.88-4.92-4.82 0-3 2-5 4.76-5 2.44 0 3.8 1.48 3.8 3.74 0 .5-.08 1.14-.2 1.54l-6.04.08v.06zm4.02-1.46v-.16c0-1.24-.54-2.02-1.76-2.02-1.3 0-2.08 1.06-2.2 2.2l3.96-.02zM168.98 38.08v-5.62c0-1.36-.54-1.82-1.6-1.82-.82 0-1.58.42-2.04.86v6.58h-2.36V28.9l2.36-.32v1.46c.82-.9 1.92-1.48 3.04-1.48 1.86 0 2.96 1.2 2.96 3.18v6.34h-2.36zM178.04 38.38c-3 0-4.78-1.86-4.78-4.88 0-3 1.96-4.94 4.86-4.94 1.26 0 2.34.28 3.18.78l-.5 1.9c-.76-.48-1.64-.74-2.5-.74-1.7 0-2.62 1.16-2.62 2.94 0 1.88 1.06 2.98 2.62 2.98.96 0 1.84-.26 2.56-.72l.38 1.92c-.8.48-1.96.76-3.2.76zM184.88 33.98c.1 1.5 1.12 2.52 2.76 2.52.98 0 2.04-.32 2.88-.84l.3 1.96c-.88.48-2.1.76-3.34.76-2.96 0-4.92-1.88-4.92-4.82 0-3 2-5 4.76-5 2.44 0 3.8 1.48 3.8 3.74 0 .5-.08 1.14-.2 1.54l-6.04.08v.06zm4.02-1.46v-.16c0-1.24-.54-2.02-1.76-2.02-1.3 0-2.08 1.06-2.2 2.2l3.96-.02zM194.22 35.16c1.12 0 2.04.98 2.04 2.2 0 1.74-1.56 3.02-3.16 3.98l-1.04-.94c1.26-.88 2.02-1.64 2.02-2.32 0-.52-.38-.88-1.62-1.42.1-.86.78-1.5 1.76-1.5zM207.46 37.02c-.66.8-1.46 1.36-2.6 1.36-1.66 0-2.86-1.14-2.86-2.6 0-1.7 1.24-3.14 5.46-3.28v-.22c0-1.24-.52-1.76-1.84-1.76-.94 0-2.08.42-3.06.98l-.48-1.86c.9-.56 2.34-1.08 3.86-1.08 2.84 0 3.94 1.26 3.88 3.8v3.3c0 .7.12.8.82.84l-.18 1.78c-1.76.2-2.58-.34-2.92-1.26h-.08zm0-3.28c-2.3.28-3.14.74-3.14 1.72 0 .7.54 1.2 1.38 1.2.74 0 1.34-.34 1.76-.8v-2.12zM218.24 38.08v-5.62c0-1.36-.54-1.82-1.6-1.82-.82 0-1.58.42-2.04.86v6.58h-2.36V28.9l2.36-.32v1.46c.82-.9 1.92-1.48 3.04-1.48 1.86 0 2.96 1.2 2.96 3.18v6.34h-2.36zM229.14 24.72l2.36-.32v13.68h-2.36v-.9c-.62.6-1.46 1.2-2.6 1.2-2.44 0-4.02-1.98-4.02-4.84 0-2.94 2.04-4.98 4.66-4.98.66 0 1.38.12 1.96.3v-4.14zm-1.74 5.72c-1.58 0-2.48 1.3-2.48 3 0 1.8.9 2.94 2.32 2.94.78 0 1.38-.28 1.9-.76v-4.64c-.46-.34-1.04-.54-1.74-.54zM4.12 62.4c-1.2 0-2.66-.34-3.58-.86l.52-1.84c.92.52 2.1.86 3.12.86.92 0 1.52-.38 1.52-1.02 0-.72-.78-.98-1.86-1.24C2.1 57.9.72 57.18.72 55.44c0-1.74 1.46-2.88 3.68-2.88 1.14 0 2.5.3 3.36.74l-.52 1.84c-.9-.46-2.08-.76-2.9-.76-.86 0-1.38.32-1.38.92 0 .7.78.94 1.86 1.2 1.76.42 3.14 1.1 3.14 2.9 0 1.72-1.48 3-3.84 3zM15.88 62.08v-5.62c0-1.36-.54-1.82-1.54-1.82-.88 0-1.64.42-2.1.86v6.58H9.88V48.72l2.36-.32v5.62c.82-.9 1.92-1.46 3.12-1.46 1.78 0 2.88 1.2 2.88 3.18v6.34h-2.36zM25.54 61.02c-.66.8-1.46 1.36-2.6 1.36-1.66 0-2.86-1.14-2.86-2.6 0-1.7 1.24-3.14 5.46-3.28v-.22c0-1.24-.52-1.76-1.84-1.76-.94 0-2.08.42-3.06.98l-.48-1.86c.9-.56 2.34-1.08 3.86-1.08 2.84 0 3.94 1.26 3.88 3.8v3.3c0 .7.12.8.82.84l-.18 1.78c-1.76.2-2.58-.34-2.92-1.26h-.08zm0-3.28c-2.3.28-3.14.74-3.14 1.72 0 .7.54 1.2 1.38 1.2.74 0 1.34-.34 1.76-.8v-2.12zM32.68 62.08h-2.36v-9.16l2.36-.34v1.5c.58-.98 1.32-1.52 2.4-1.52.56 0 1.14.12 1.64.42l-.52 2.12c-.44-.24-.88-.36-1.32-.36-.82 0-1.58.52-2.2 1.64v5.7zM43.08 52.56c2.44 0 4.04 1.98 4.04 4.82 0 2.94-2.04 4.98-4.66 4.98-.6 0-1.38-.08-1.96-.26v4.38h-2.36V52.9l2.36-.32v1.16c.62-.6 1.46-1.18 2.58-1.18zm-2.58 7.4c.44.34 1.04.52 1.74.52 1.58 0 2.48-1.28 2.48-3 0-1.8-.86-2.94-2.32-2.94-.78 0-1.38.3-1.9.76v4.66zM56.52 62.4c-1.2 0-2.66-.34-3.58-.86l.52-1.84c.92.52 2.1.86 3.12.86.92 0 1.52-.38 1.52-1.02 0-.72-.78-.98-1.86-1.24-1.74-.4-3.12-1.12-3.12-2.86 0-1.74 1.46-2.88 3.68-2.88 1.14 0 2.5.3 3.36.74l-.52 1.84c-.9-.46-2.08-.76-2.9-.76-.86 0-1.38.32-1.38.92 0 .7.78.94 1.86 1.2 1.76.42 3.14 1.1 3.14 2.9 0 1.72-1.48 3-3.84 3zM64.64 57.64L64.64 62.08 62.28 62.08 62.28 48.72 64.64 48.4 64.64 56.96 64.68 56.96 67.98 52.86 70.8 52.86 66.98 57.24 70.82 62.08 68 62.08 64.68 57.64zM73.34 51.18c-.92 0-1.44-.56-1.44-1.42 0-.84.52-1.42 1.44-1.42.94 0 1.46.58 1.46 1.42 0 .86-.52 1.42-1.46 1.42zm-1.18 10.9v-9.16l2.36-.34v9.5h-2.36zM77.04 62.08L77.04 48.72 79.4 48.4 79.4 62.08 77.04 62.08zM81.92 62.08L81.92 48.72 84.28 48.4 84.28 62.08 81.92 62.08zM89.66 62.4c-1.2 0-2.66-.34-3.58-.86l.52-1.84c.92.52 2.1.86 3.12.86.92 0 1.52-.38 1.52-1.02 0-.72-.78-.98-1.86-1.24-1.74-.4-3.12-1.12-3.12-2.86 0-1.74 1.46-2.88 3.68-2.88 1.14 0 2.5.3 3.36.74l-.52 1.84c-.9-.46-2.08-.76-2.9-.76-.86 0-1.38.32-1.38.92 0 .7.78.94 1.86 1.2 1.76.42 3.14 1.1 3.14 2.9 0 1.72-1.48 3-3.84 3zM106.06 48.72l2.36-.32v13.68h-2.36v-.9c-.62.6-1.46 1.2-2.6 1.2-2.44 0-4.02-1.98-4.02-4.84 0-2.94 2.04-4.98 4.66-4.98.66 0 1.38.12 1.96.3v-4.14zm-1.74 5.72c-1.58 0-2.48 1.3-2.48 3 0 1.8.9 2.94 2.32 2.94.78 0 1.38-.28 1.9-.76v-4.64c-.46-.34-1.04-.54-1.74-.54zM113.3 62.08h-2.36v-9.16l2.36-.34v1.5c.58-.98 1.32-1.52 2.4-1.52.56 0 1.14.12 1.64.42l-.52 2.12c-.44-.24-.88-.36-1.32-.36-.82 0-1.58.52-2.2 1.64v5.7zM119.94 51.18c-.92 0-1.44-.56-1.44-1.42 0-.84.52-1.42 1.44-1.42.94 0 1.46.58 1.46 1.42 0 .86-.52 1.42-1.46 1.42zm-1.18 10.9v-9.16l2.36-.34v9.5h-2.36zM128.4 62.1L125.88 62.1 122.36 52.86 124.88 52.86 127.2 59.6 129.42 52.86 131.96 52.86zM134.38 51.18c-.92 0-1.44-.56-1.44-1.42 0-.84.52-1.42 1.44-1.42.94 0 1.46.58 1.46 1.42 0 .86-.52 1.42-1.46 1.42zm-1.18 10.9v-9.16l2.36-.34v9.5h-2.36zM144.08 62.08v-5.62c0-1.36-.54-1.82-1.6-1.82-.82 0-1.58.42-2.04.86v6.58h-2.36V52.9l2.36-.32v1.46c.82-.9 1.92-1.48 3.04-1.48 1.86 0 2.96 1.2 2.96 3.18v6.34h-2.36zM148.38 60.86c0-.84.68-1.6 1.7-1.94-1.02-.52-1.68-1.56-1.68-2.84 0-1.9 1.5-3.52 4.06-3.52 1.04 0 1.96.3 2.6.58l2.48-.22.1 2.06-1.76-.3c.24.26.42.96.42 1.44 0 1.88-1.58 3.36-3.86 3.36-.44 0-.76-.04-1.26-.16-.32.12-.72.42-.72.8 0 .5.42.72 1.9.72h.96c2.64 0 4.14.74 4.14 2.54 0 2.18-2.46 3.68-5.38 3.68-2.44 0-4.38-.9-4.38-2.56 0-.96.7-1.82 2.08-2.04-.8-.28-1.4-.86-1.4-1.6zm1.46 3.16c0 .86 1.06 1.46 2.62 1.46 1.62 0 2.86-.6 2.86-1.56 0-.86-.84-1.06-2.56-1.06-.58 0-1.38-.04-1.76-.08-.66.24-1.16.68-1.16 1.24zm2.64-6.08c1.06 0 1.66-.76 1.66-1.92 0-1.1-.58-1.86-1.76-1.86-1.04 0-1.7.78-1.7 1.94 0 1.1.66 1.84 1.8 1.84zM166.76 62.38c-2.06 0-3.14-.9-3.06-3.12l.14-4.34-1.44-.16.06-1.5 1.44-.46.04-2.04h2.28l-.04 2.16h2.6l-.06 1.94h-2.68l-.12 4.26c-.02.86.42 1.26 1.22 1.26.48 0 .96-.12 1.44-.28l.32 1.92c-.7.24-1.34.36-2.14.36zM176.66 62.08v-5.62c0-1.36-.54-1.82-1.54-1.82-.88 0-1.64.42-2.1.86v6.58h-2.36V48.72l2.36-.32v5.62c.82-.9 1.92-1.46 3.12-1.46 1.78 0 2.88 1.2 2.88 3.18v6.34h-2.36zM182.66 51.18c-.92 0-1.44-.56-1.44-1.42 0-.84.52-1.42 1.44-1.42.94 0 1.46.58 1.46 1.42 0 .86-.52 1.42-1.46 1.42zm-1.18 10.9v-9.16l2.36-.34v9.5h-2.36zM189.22 62.4c-1.2 0-2.66-.34-3.58-.86l.52-1.84c.92.52 2.1.86 3.12.86.92 0 1.52-.38 1.52-1.02 0-.72-.78-.98-1.86-1.24-1.74-.4-3.12-1.12-3.12-2.86 0-1.74 1.46-2.88 3.68-2.88 1.14 0 2.5.3 3.36.74l-.52 1.84c-.9-.46-2.08-.76-2.9-.76-.86 0-1.38.32-1.38.92 0 .7.78.94 1.86 1.2 1.76.42 3.14 1.1 3.14 2.9 0 1.72-1.48 3-3.84 3zM201.26 62.12L198.52 52.86 200.98 52.86 202.58 59.34 204.42 52.88 206.78 52.88 208.76 59.3 210.14 52.86 212.64 52.86 209.94 62.12 207.62 62.12 205.56 55.64 203.56 62.12 201.26 62.12zM218.28 62.38c-2.7 0-4.66-1.84-4.66-4.9 0-3.04 2.06-4.94 4.78-4.94s4.66 1.88 4.66 4.92c0 3.02-2.08 4.92-4.78 4.92zm.04-7.94c-1.54 0-2.38 1.24-2.38 3.02 0 1.76.88 3 2.42 3 1.52 0 2.36-1.2 2.36-2.98s-.88-3.04-2.4-3.04zM227.4 62.08h-2.36v-9.16l2.36-.34v1.5c.58-.98 1.32-1.52 2.4-1.52.56 0 1.14.12 1.64.42l-.52 2.12c-.44-.24-.88-.36-1.32-.36-.82 0-1.58.52-2.2 1.64v5.7zM235.22 57.64L235.22 62.08 232.86 62.08 232.86 48.72 235.22 48.4 235.22 56.96 235.26 56.96 238.56 52.86 241.38 52.86 237.56 57.24 241.4 62.08 238.58 62.08 235.26 57.64zM244 62.38c-.94 0-1.6-.68-1.6-1.56s.66-1.54 1.6-1.54c.92 0 1.56.66 1.56 1.54s-.64 1.56-1.56 1.56zM7.02 75.72L7.02 86.08 4.6 86.08 4.6 75.72.42 75.72.42 73.58 11.2 73.58 11.2 75.72 7.02 75.72zM18.48 86.08v-5.62c0-1.36-.54-1.82-1.54-1.82-.88 0-1.64.42-2.1.86v6.58h-2.36V72.72l2.36-.32v5.62c.82-.9 1.92-1.46 3.12-1.46 1.78 0 2.88 1.2 2.88 3.18v6.34h-2.36zM28.14 85.02c-.66.8-1.46 1.36-2.6 1.36-1.66 0-2.86-1.14-2.86-2.6 0-1.7 1.24-3.14 5.46-3.28v-.22c0-1.24-.52-1.76-1.84-1.76-.94 0-2.08.42-3.06.98l-.48-1.86c.9-.56 2.34-1.08 3.86-1.08 2.84 0 3.94 1.26 3.88 3.8v3.3c0 .7.12.8.82.84l-.18 1.78c-1.76.2-2.58-.34-2.92-1.26h-.08zm0-3.28c-2.3.28-3.14.74-3.14 1.72 0 .7.54 1.2 1.38 1.2.74 0 1.34-.34 1.76-.8v-2.12zM38.92 86.08v-5.62c0-1.36-.54-1.82-1.6-1.82-.82 0-1.58.42-2.04.86v6.58h-2.36V76.9l2.36-.32v1.46c.82-.9 1.92-1.48 3.04-1.48 1.86 0 2.96 1.2 2.96 3.18v6.34h-2.36zM46.1 81.64L46.1 86.08 43.74 86.08 43.74 72.72 46.1 72.4 46.1 80.96 46.14 80.96 49.44 76.86 52.26 76.86 48.44 81.24 52.28 86.08 49.46 86.08 46.14 81.64zM62.92 85.9l-.54 1.44c-.92 2.52-1.96 3.28-3.66 3.28-.84 0-1.6-.2-2.34-.54l.7-1.94c.54.26.98.44 1.46.44.68 0 1.04-.3 1.54-1.56l.4-1.06-3.6-9.1h2.54l2.3 6.6 2.2-6.6h2.52l-3.52 9.04zM71.8 86.38c-2.7 0-4.66-1.84-4.66-4.9 0-3.04 2.06-4.94 4.78-4.94s4.66 1.88 4.66 4.92c0 3.02-2.08 4.92-4.78 4.92zm.04-7.94c-1.54 0-2.38 1.24-2.38 3.02 0 1.76.88 3 2.42 3 1.52 0 2.36-1.2 2.36-2.98s-.88-3.04-2.4-3.04zM80.84 76.86v5.62c0 1.36.56 1.8 1.56 1.8.84 0 1.58-.38 2.02-.8v-6.62h2.36v9.16l-2.36.32v-1.36c-.76.82-1.86 1.4-3.04 1.4-1.8 0-2.9-1.2-2.9-3.18v-6.34h2.36zM90.44 83.16c1.12 0 2.04.98 2.04 2.2 0 1.74-1.56 3.02-3.16 3.98l-1.04-.94c1.26-.88 2.02-1.64 2.02-2.32 0-.52-.38-.88-1.62-1.42.1-.86.78-1.5 1.76-1.5zM103.68 85.02c-.66.8-1.46 1.36-2.6 1.36-1.66 0-2.86-1.14-2.86-2.6 0-1.7 1.24-3.14 5.46-3.28v-.22c0-1.24-.52-1.76-1.84-1.76-.94 0-2.08.42-3.06.98l-.48-1.86c.9-.56 2.34-1.08 3.86-1.08 2.84 0 3.94 1.26 3.88 3.8v3.3c0 .7.12.8.82.84l-.18 1.78c-1.76.2-2.58-.34-2.92-1.26h-.08zm0-3.28c-2.3.28-3.14.74-3.14 1.72 0 .7.54 1.2 1.38 1.2.74 0 1.34-.34 1.76-.8v-2.12zM114.46 86.08v-5.62c0-1.36-.54-1.82-1.6-1.82-.82 0-1.58.42-2.04.86v6.58h-2.36V76.9l2.36-.32v1.46c.82-.9 1.92-1.48 3.04-1.48 1.86 0 2.96 1.2 2.96 3.18v6.34h-2.36zM125.36 72.72l2.36-.32v13.68h-2.36v-.9c-.62.6-1.46 1.2-2.6 1.2-2.44 0-4.02-1.98-4.02-4.84 0-2.94 2.04-4.98 4.66-4.98.66 0 1.38.12 1.96.3v-4.14zm-1.74 5.72c-1.58 0-2.48 1.3-2.48 3 0 1.8.9 2.94 2.32 2.94.78 0 1.38-.28 1.9-.76v-4.64c-.46-.34-1.04-.54-1.74-.54zM138.06 86.38c-2.06 0-3.14-.9-3.06-3.12l.14-4.34-1.44-.16.06-1.5 1.44-.46.04-2.04h2.28l-.04 2.16h2.6l-.06 1.94h-2.68l-.12 4.26c-.02.86.42 1.26 1.22 1.26.48 0 .96-.12 1.44-.28l.32 1.92c-.7.24-1.34.36-2.14.36zM147.96 86.08v-5.62c0-1.36-.54-1.82-1.54-1.82-.88 0-1.64.42-2.1.86v6.58h-2.36V72.72l2.36-.32v5.62c.82-.9 1.92-1.46 3.12-1.46 1.78 0 2.88 1.2 2.88 3.18v6.34h-2.36zM157.62 85.02c-.66.8-1.46 1.36-2.6 1.36-1.66 0-2.86-1.14-2.86-2.6 0-1.7 1.24-3.14 5.46-3.28v-.22c0-1.24-.52-1.76-1.84-1.76-.94 0-2.08.42-3.06.98l-.48-1.86c.9-.56 2.34-1.08 3.86-1.08 2.84 0 3.94 1.26 3.88 3.8v3.3c0 .7.12.8.82.84l-.18 1.78c-1.76.2-2.58-.34-2.92-1.26h-.08zm0-3.28c-2.3.28-3.14.74-3.14 1.72 0 .7.54 1.2 1.38 1.2.74 0 1.34-.34 1.76-.8v-2.12zM168.4 86.08v-5.62c0-1.36-.54-1.82-1.6-1.82-.82 0-1.58.42-2.04.86v6.58h-2.36V76.9l2.36-.32v1.46c.82-.9 1.92-1.48 3.04-1.48 1.86 0 2.96 1.2 2.96 3.18v6.34h-2.36zM175.58 81.64L175.58 86.08 173.22 86.08 173.22 72.72 175.58 72.4 175.58 80.96 175.62 80.96 178.92 76.86 181.74 76.86 177.92 81.24 181.76 86.08 178.94 86.08 175.62 81.64zM185.96 86.4c-1.2 0-2.66-.34-3.58-.86l.52-1.84c.92.52 2.1.86 3.12.86.92 0 1.52-.38 1.52-1.02 0-.72-.78-.98-1.86-1.24-1.74-.4-3.12-1.12-3.12-2.86 0-1.74 1.46-2.88 3.68-2.88 1.14 0 2.5.3 3.36.74l-.52 1.84c-.9-.46-2.08-.76-2.9-.76-.86 0-1.38.32-1.38.92 0 .7.78.94 1.86 1.2 1.76.42 3.14 1.1 3.14 2.9 0 1.72-1.48 3-3.84 3zM199.54 86.38c-2.06 0-3.14-.9-3.06-3.12l.14-4.34-1.44-.16.06-1.5 1.44-.46.04-2.04H199l-.04 2.16h2.6l-.06 1.94h-2.68l-.12 4.26c-.02.86.42 1.26 1.22 1.26.48 0 .96-.12 1.44-.28l.32 1.92c-.7.24-1.34.36-2.14.36zM207.46 86.38c-2.7 0-4.66-1.84-4.66-4.9 0-3.04 2.06-4.94 4.78-4.94s4.66 1.88 4.66 4.92c0 3.02-2.08 4.92-4.78 4.92zm.04-7.94c-1.54 0-2.38 1.24-2.38 3.02 0 1.76.88 3 2.42 3 1.52 0 2.36-1.2 2.36-2.98s-.88-3.04-2.4-3.04zM230.36 86.08v-5.6c0-1.36-.54-1.84-1.52-1.84-.82 0-1.46.42-1.92.82V86.08h-2.36v-5.6c0-1.36-.52-1.84-1.5-1.84-.84 0-1.48.34-1.92.76v6.68h-2.36V76.9l2.36-.32v1.3c.86-.86 1.8-1.32 2.94-1.32 1.12 0 2.06.54 2.52 1.58.92-1 2.02-1.58 3.28-1.58 1.74 0 2.84 1.2 2.84 3.2v6.32h-2.36zM239.9 85.9l-.54 1.44c-.92 2.52-1.96 3.28-3.66 3.28-.84 0-1.6-.2-2.34-.54l.7-1.94c.54.26.98.44 1.46.44.68 0 1.04-.3 1.54-1.56l.4-1.06-3.6-9.1h2.54l2.3 6.6 2.2-6.6h2.52l-3.52 9.04zM6.1 109.02c-.66.8-1.46 1.36-2.6 1.36-1.66 0-2.86-1.14-2.86-2.6 0-1.7 1.24-3.14 5.46-3.28v-.22c0-1.24-.52-1.76-1.84-1.76-.94 0-2.08.42-3.06.98l-.48-1.86c.9-.56 2.34-1.08 3.86-1.08 2.84 0 3.94 1.26 3.88 3.8v3.3c0 .7.12.8.82.84l-.18 1.78c-1.76.2-2.58-.34-2.92-1.26H6.1zm0-3.28c-2.3.28-3.14.74-3.14 1.72 0 .7.54 1.2 1.38 1.2.74 0 1.34-.34 1.76-.8v-2.12zM13.74 110.4c-1.2 0-2.66-.34-3.58-.86l.52-1.84c.92.52 2.1.86 3.12.86.92 0 1.52-.38 1.52-1.02 0-.72-.78-.98-1.86-1.24-1.74-.4-3.12-1.12-3.12-2.86 0-1.74 1.46-2.88 3.68-2.88 1.14 0 2.5.3 3.36.74l-.52 1.84c-.9-.46-2.08-.76-2.9-.76-.86 0-1.38.32-1.38.92 0 .7.78.94 1.86 1.2 1.76.42 3.14 1.1 3.14 2.9 0 1.72-1.48 3-3.84 3zM22.36 110.4c-1.2 0-2.66-.34-3.58-.86l.52-1.84c.92.52 2.1.86 3.12.86.92 0 1.52-.38 1.52-1.02 0-.72-.78-.98-1.86-1.24-1.74-.4-3.12-1.12-3.12-2.86 0-1.74 1.46-2.88 3.68-2.88 1.14 0 2.5.3 3.36.74l-.52 1.84c-.9-.46-2.08-.76-2.9-.76-.86 0-1.38.32-1.38.92 0 .7.78.94 1.86 1.2 1.76.42 3.14 1.1 3.14 2.9 0 1.72-1.48 3-3.84 3zM32.24 110.38c-2.7 0-4.66-1.84-4.66-4.9 0-3.04 2.06-4.94 4.78-4.94s4.66 1.88 4.66 4.92c0 3.02-2.08 4.92-4.78 4.92zm.04-7.94c-1.54 0-2.38 1.24-2.38 3.02 0 1.76.88 3 2.42 3 1.52 0 2.36-1.2 2.36-2.98s-.88-3.04-2.4-3.04zM43.24 110.38c-3 0-4.78-1.86-4.78-4.88 0-3 1.96-4.94 4.86-4.94 1.26 0 2.34.28 3.18.78l-.5 1.9c-.76-.48-1.64-.74-2.5-.74-1.7 0-2.62 1.16-2.62 2.94 0 1.88 1.06 2.98 2.62 2.98.96 0 1.84-.26 2.56-.72l.38 1.92c-.8.48-1.96.76-3.2.76zM49.58 99.18c-.92 0-1.44-.56-1.44-1.42 0-.84.52-1.42 1.44-1.42.94 0 1.46.58 1.46 1.42 0 .86-.52 1.42-1.46 1.42zm-1.18 10.9v-9.16l2.36-.34v9.5H48.4zM58.12 109.02c-.66.8-1.46 1.36-2.6 1.36-1.66 0-2.86-1.14-2.86-2.6 0-1.7 1.24-3.14 5.46-3.28v-.22c0-1.24-.52-1.76-1.84-1.76-.94 0-2.08.42-3.06.98l-.48-1.86c.9-.56 2.34-1.08 3.86-1.08 2.84 0 3.94 1.26 3.88 3.8v3.3c0 .7.12.8.82.84l-.18 1.78c-1.76.2-2.58-.34-2.92-1.26h-.08zm0-3.28c-2.3.28-3.14.74-3.14 1.72 0 .7.54 1.2 1.38 1.2.74 0 1.34-.34 1.76-.8v-2.12zM66.16 110.38c-2.06 0-3.14-.9-3.06-3.12l.14-4.34-1.44-.16.06-1.5 1.44-.46.04-2.04h2.28l-.04 2.16h2.6l-.06 1.94h-2.68l-.12 4.26c-.02.86.42 1.26 1.22 1.26.48 0 .96-.12 1.44-.28l.32 1.92c-.7.24-1.34.36-2.14.36zM71.74 105.98c.1 1.5 1.12 2.52 2.76 2.52.98 0 2.04-.32 2.88-.84l.3 1.96c-.88.48-2.1.76-3.34.76-2.96 0-4.92-1.88-4.92-4.82 0-3 2-5 4.76-5 2.44 0 3.8 1.48 3.8 3.74 0 .5-.08 1.14-.2 1.54l-6.04.08v.06zm4.02-1.46v-.16c0-1.24-.54-2.02-1.76-2.02-1.3 0-2.08 1.06-2.2 2.2l3.96-.02zM82.8 110.4c-1.2 0-2.66-.34-3.58-.86l.52-1.84c.92.52 2.1.86 3.12.86.92 0 1.52-.38 1.52-1.02 0-.72-.78-.98-1.86-1.24-1.74-.4-3.12-1.12-3.12-2.86 0-1.74 1.46-2.88 3.68-2.88 1.14 0 2.5.3 3.36.74l-.52 1.84c-.9-.46-2.08-.76-2.9-.76-.86 0-1.38.32-1.38.92 0 .7.78.94 1.86 1.2 1.76.42 3.14 1.1 3.14 2.9 0 1.72-1.48 3-3.84 3zM89.7 107.16c1.12 0 2.04.98 2.04 2.2 0 1.74-1.56 3.02-3.16 3.98l-1.04-.94c1.26-.88 2.02-1.64 2.02-2.32 0-.52-.38-.88-1.62-1.42.1-.86.78-1.5 1.76-1.5zM103.54 98.64c-.44-.2-.96-.38-1.5-.38-.86 0-1.22.5-1.22 1.64v1.02h2.74l-.06 1.94h-2.62v7.22h-2.36v-7.2l-1.6-.12.08-1.5 1.5-.44.02-.98c.06-2.64 1.28-3.68 3.34-3.68.9 0 1.72.26 2.18.46 0 .02-.5 2.04-.5 2.02zM109.14 110.38c-2.7 0-4.66-1.84-4.66-4.9 0-3.04 2.06-4.94 4.78-4.94s4.66 1.88 4.66 4.92c0 3.02-2.08 4.92-4.78 4.92zm.04-7.94c-1.54 0-2.38 1.24-2.38 3.02 0 1.76.88 3 2.42 3 1.52 0 2.36-1.2 2.36-2.98s-.88-3.04-2.4-3.04zM118.26 110.08h-2.36v-9.16l2.36-.34v1.5c.58-.98 1.32-1.52 2.4-1.52.56 0 1.14.12 1.64.42l-.52 2.12c-.44-.24-.88-.36-1.32-.36-.82 0-1.58.52-2.2 1.64v5.7zM134.28 110.08v-5.62c0-1.36-.54-1.82-1.54-1.82-.88 0-1.64.42-2.1.86v6.58h-2.36V96.72l2.36-.32v5.62c.82-.9 1.92-1.46 3.12-1.46 1.78 0 2.88 1.2 2.88 3.18v6.34h-2.36zM143.94 109.02c-.66.8-1.46 1.36-2.6 1.36-1.66 0-2.86-1.14-2.86-2.6 0-1.7 1.24-3.14 5.46-3.28v-.22c0-1.24-.52-1.76-1.84-1.76-.94 0-2.08.42-3.06.98l-.48-1.86c.9-.56 2.34-1.08 3.86-1.08 2.84 0 3.94 1.26 3.88 3.8v3.3c0 .7.12.8.82.84l-.18 1.78c-1.76.2-2.58-.34-2.92-1.26h-.08zm0-3.28c-2.3.28-3.14.74-3.14 1.72 0 .7.54 1.2 1.38 1.2.74 0 1.34-.34 1.76-.8v-2.12zM153.28 110.1L150.76 110.1 147.24 100.86 149.76 100.86 152.08 107.6 154.3 100.86 156.84 100.86zM159.26 99.18c-.92 0-1.44-.56-1.44-1.42 0-.84.52-1.42 1.44-1.42.94 0 1.46.58 1.46 1.42 0 .86-.52 1.42-1.46 1.42zm-1.18 10.9v-9.16l2.36-.34v9.5h-2.36zM168.96 110.08v-5.62c0-1.36-.54-1.82-1.6-1.82-.82 0-1.58.42-2.04.86v6.58h-2.36v-9.18l2.36-.32v1.46c.82-.9 1.92-1.48 3.04-1.48 1.86 0 2.96 1.2 2.96 3.18v6.34h-2.36zM173.26 108.86c0-.84.68-1.6 1.7-1.94-1.02-.52-1.68-1.56-1.68-2.84 0-1.9 1.5-3.52 4.06-3.52 1.04 0 1.96.3 2.6.58l2.48-.22.1 2.06-1.76-.3c.24.26.42.96.42 1.44 0 1.88-1.58 3.36-3.86 3.36-.44 0-.76-.04-1.26-.16-.32.12-.72.42-.72.8 0 .5.42.72 1.9.72h.96c2.64 0 4.14.74 4.14 2.54 0 2.18-2.46 3.68-5.38 3.68-2.44 0-4.38-.9-4.38-2.56 0-.96.7-1.82 2.08-2.04-.8-.28-1.4-.86-1.4-1.6zm1.46 3.16c0 .86 1.06 1.46 2.62 1.46 1.62 0 2.86-.6 2.86-1.56 0-.86-.84-1.06-2.56-1.06-.58 0-1.38-.04-1.76-.08-.66.24-1.16.68-1.16 1.24zm2.64-6.08c1.06 0 1.66-.76 1.66-1.92 0-1.1-.58-1.86-1.76-1.86-1.04 0-1.7.78-1.7 1.94 0 1.1.66 1.84 1.8 1.84zM191.64 110.38c-2.06 0-3.14-.9-3.06-3.12l.14-4.34-1.44-.16.06-1.5 1.44-.46.04-2.04h2.28l-.04 2.16h2.6l-.06 1.94h-2.68l-.12 4.26c-.02.86.42 1.26 1.22 1.26.48 0 .96-.12 1.44-.28l.32 1.92c-.7.24-1.34.36-2.14.36zM201.54 110.08v-5.62c0-1.36-.54-1.82-1.54-1.82-.88 0-1.64.42-2.1.86v6.58h-2.36V96.72l2.36-.32v5.62c.82-.9 1.92-1.46 3.12-1.46 1.78 0 2.88 1.2 2.88 3.18v6.34h-2.36zM208.14 105.98c.1 1.5 1.12 2.52 2.76 2.52.98 0 2.04-.32 2.88-.84l.3 1.96c-.88.48-2.1.76-3.34.76-2.96 0-4.92-1.88-4.92-4.82 0-3 2-5 4.76-5 2.44 0 3.8 1.48 3.8 3.74 0 .5-.08 1.14-.2 1.54l-6.04.08v.06zm4.02-1.46v-.16c0-1.24-.54-2.02-1.76-2.02-1.3 0-2.08 1.06-2.2 2.2l3.96-.02zM6.7 122.64c-.44-.2-.96-.38-1.5-.38-.86 0-1.22.5-1.22 1.64v1.02h2.74l-.06 1.94H4.04v7.22H1.68v-7.2l-1.6-.12.08-1.5 1.5-.44.02-.98c.06-2.64 1.28-3.68 3.34-3.68.9 0 1.72.26 2.18.46 0 .02-.5 2.04-.5 2.02zM12.3 134.38c-2.7 0-4.66-1.84-4.66-4.9 0-3.04 2.06-4.94 4.78-4.94s4.66 1.88 4.66 4.92c0 3.02-2.08 4.92-4.78 4.92zm.04-7.94c-1.54 0-2.38 1.24-2.38 3.02 0 1.76.88 3 2.42 3 1.52 0 2.36-1.2 2.36-2.98s-.88-3.04-2.4-3.04zM21.42 134.08h-2.36v-9.16l2.36-.34v1.5c.58-.98 1.32-1.52 2.4-1.52.56 0 1.14.12 1.64.42l-.52 2.12c-.44-.24-.88-.36-1.32-.36-.82 0-1.58.52-2.2 1.64v5.7zM28.54 129.98c.1 1.5 1.12 2.52 2.76 2.52.98 0 2.04-.32 2.88-.84l.3 1.96c-.88.48-2.1.76-3.34.76-2.96 0-4.92-1.88-4.92-4.82 0-3 2-5 4.76-5 2.44 0 3.8 1.48 3.8 3.74 0 .5-.08 1.14-.2 1.54l-6.04.08v.06zm4.02-1.46v-.16c0-1.24-.54-2.02-1.76-2.02-1.3 0-2.08 1.06-2.2 2.2l3.96-.02zM39.6 134.4c-1.2 0-2.66-.34-3.58-.86l.52-1.84c.92.52 2.1.86 3.12.86.92 0 1.52-.38 1.52-1.02 0-.72-.78-.98-1.86-1.24-1.74-.4-3.12-1.12-3.12-2.86 0-1.74 1.46-2.88 3.68-2.88 1.14 0 2.5.3 3.36.74l-.52 1.84c-.9-.46-2.08-.76-2.9-.76-.86 0-1.38.32-1.38.92 0 .7.78.94 1.86 1.2 1.76.42 3.14 1.1 3.14 2.9 0 1.72-1.48 3-3.84 3zM46.54 123.18c-.92 0-1.44-.56-1.44-1.42 0-.84.52-1.42 1.44-1.42.94 0 1.46.58 1.46 1.42 0 .86-.52 1.42-1.46 1.42zm-1.18 10.9v-9.16l2.36-.34v9.5h-2.36zM49.72 132.86c0-.84.68-1.6 1.7-1.94-1.02-.52-1.68-1.56-1.68-2.84 0-1.9 1.5-3.52 4.06-3.52 1.04 0 1.96.3 2.6.58l2.48-.22.1 2.06-1.76-.3c.24.26.42.96.42 1.44 0 1.88-1.58 3.36-3.86 3.36-.44 0-.76-.04-1.26-.16-.32.12-.72.42-.72.8 0 .5.42.72 1.9.72h.96c2.64 0 4.14.74 4.14 2.54 0 2.18-2.46 3.68-5.38 3.68-2.44 0-4.38-.9-4.38-2.56 0-.96.7-1.82 2.08-2.04-.8-.28-1.4-.86-1.4-1.6zm1.46 3.16c0 .86 1.06 1.46 2.62 1.46 1.62 0 2.86-.6 2.86-1.56 0-.86-.84-1.06-2.56-1.06-.58 0-1.38-.04-1.76-.08-.66.24-1.16.68-1.16 1.24zm2.64-6.08c1.06 0 1.66-.76 1.66-1.92 0-1.1-.58-1.86-1.76-1.86-1.04 0-1.7.78-1.7 1.94 0 1.1.66 1.84 1.8 1.84zM66.28 134.08v-5.62c0-1.36-.54-1.82-1.54-1.82-.88 0-1.64.42-2.1.86v6.58h-2.36v-13.36l2.36-.32v5.62c.82-.9 1.92-1.46 3.12-1.46 1.78 0 2.88 1.2 2.88 3.18v6.34h-2.36zM74.36 134.38c-2.06 0-3.14-.9-3.06-3.12l.14-4.34-1.44-.16.06-1.5 1.44-.46.04-2.04h2.28l-.04 2.16h2.6l-.06 1.94h-2.68l-.12 4.26c-.02.86.42 1.26 1.22 1.26.48 0 .96-.12 1.44-.28l.32 1.92c-.7.24-1.34.36-2.14.36zM86.08 134.38c-2.06 0-3.14-.9-3.06-3.12l.14-4.34-1.44-.16.06-1.5 1.44-.46.04-2.04h2.28l-.04 2.16h2.6l-.06 1.94h-2.68l-.12 4.26c-.02.86.42 1.26 1.22 1.26.48 0 .96-.12 1.44-.28l.32 1.92c-.7.24-1.34.36-2.14.36zM94 134.38c-2.7 0-4.66-1.84-4.66-4.9 0-3.04 2.06-4.94 4.78-4.94s4.66 1.88 4.66 4.92c0 3.02-2.08 4.92-4.78 4.92zm.04-7.94c-1.54 0-2.38 1.24-2.38 3.02 0 1.76.88 3 2.42 3 1.52 0 2.36-1.2 2.36-2.98s-.88-3.04-2.4-3.04zM109.64 134.36c-.6 0-1.46-.12-2.06-.32l-2.26.34v-13.66l2.36-.32v5.34c.62-.6 1.46-1.18 2.58-1.18 2.44 0 4.04 1.98 4.04 4.82 0 2.94-2.04 4.98-4.66 4.98zm-.06-7.82c-.78 0-1.38.3-1.9.76v4.66c.44.34 1.04.52 1.74.52 1.58 0 2.48-1.28 2.48-3 0-1.8-.86-2.94-2.32-2.94zM118.58 134.08h-2.36v-9.16l2.36-.34v1.5c.58-.98 1.32-1.52 2.4-1.52.56 0 1.14.12 1.64.42l-.52 2.12c-.44-.24-.88-.36-1.32-.36-.82 0-1.58.52-2.2 1.64v5.7zM125.22 123.18c-.92 0-1.44-.56-1.44-1.42 0-.84.52-1.42 1.44-1.42.94 0 1.46.58 1.46 1.42 0 .86-.52 1.42-1.46 1.42zm-1.18 10.9v-9.16l2.36-.34v9.5h-2.36zM134.92 134.08v-5.62c0-1.36-.54-1.82-1.6-1.82-.82 0-1.58.42-2.04.86v6.58h-2.36v-9.18l2.36-.32v1.46c.82-.9 1.92-1.48 3.04-1.48 1.86 0 2.96 1.2 2.96 3.18v6.34h-2.36zM139.22 132.86c0-.84.68-1.6 1.7-1.94-1.02-.52-1.68-1.56-1.68-2.84 0-1.9 1.5-3.52 4.06-3.52 1.04 0 1.96.3 2.6.58l2.48-.22.1 2.06-1.76-.3c.24.26.42.96.42 1.44 0 1.88-1.58 3.36-3.86 3.36-.44 0-.76-.04-1.26-.16-.32.12-.72.42-.72.8 0 .5.42.72 1.9.72h.96c2.64 0 4.14.74 4.14 2.54 0 2.18-2.46 3.68-5.38 3.68-2.44 0-4.38-.9-4.38-2.56 0-.96.7-1.82 2.08-2.04-.8-.28-1.4-.86-1.4-1.6zm1.46 3.16c0 .86 1.06 1.46 2.62 1.46 1.62 0 2.86-.6 2.86-1.56 0-.86-.84-1.06-2.56-1.06-.58 0-1.38-.04-1.76-.08-.66.24-1.16.68-1.16 1.24zm2.64-6.08c1.06 0 1.66-.76 1.66-1.92 0-1.1-.58-1.86-1.76-1.86-1.04 0-1.7.78-1.7 1.94 0 1.1.66 1.84 1.8 1.84zM159.08 133.9l-.54 1.44c-.92 2.52-1.96 3.28-3.66 3.28-.84 0-1.6-.2-2.34-.54l.7-1.94c.54.26.98.44 1.46.44.68 0 1.04-.3 1.54-1.56l.4-1.06-3.6-9.1h2.54l2.3 6.6 2.2-6.6h2.52l-3.52 9.04zM167.96 134.38c-2.7 0-4.66-1.84-4.66-4.9 0-3.04 2.06-4.94 4.78-4.94s4.66 1.88 4.66 4.92c0 3.02-2.08 4.92-4.78 4.92zm.04-7.94c-1.54 0-2.38 1.24-2.38 3.02 0 1.76.88 3 2.42 3 1.52 0 2.36-1.2 2.36-2.98s-.88-3.04-2.4-3.04zM177 124.86v5.62c0 1.36.56 1.8 1.56 1.8.84 0 1.58-.38 2.02-.8v-6.62h2.36v9.16l-2.36.32v-1.36c-.76.82-1.86 1.4-3.04 1.4-1.8 0-2.9-1.2-2.9-3.18v-6.34H177zM191.2 123.18c-.92 0-1.44-.56-1.44-1.42 0-.84.52-1.42 1.44-1.42.94 0 1.46.58 1.46 1.42 0 .86-.52 1.42-1.46 1.42zm-1.18 10.9v-9.16l2.36-.34v9.5h-2.36zM200.9 134.08v-5.62c0-1.36-.54-1.82-1.6-1.82-.82 0-1.58.42-2.04.86v6.58h-2.36v-9.18l2.36-.32v1.46c.82-.9 1.92-1.48 3.04-1.48 1.86 0 2.96 1.2 2.96 3.18v6.34h-2.36zM214.4 134.38c-2.7 0-4.66-1.84-4.66-4.9 0-3.04 2.06-4.94 4.78-4.94s4.66 1.88 4.66 4.92c0 3.02-2.08 4.92-4.78 4.92zm.04-7.94c-1.54 0-2.38 1.24-2.38 3.02 0 1.76.88 3 2.42 3 1.52 0 2.36-1.2 2.36-2.98s-.88-3.04-2.4-3.04zM227.16 134.08v-5.62c0-1.36-.54-1.82-1.6-1.82-.82 0-1.58.42-2.04.86v6.58h-2.36v-9.18l2.36-.32v1.46c.82-.9 1.92-1.48 3.04-1.48 1.86 0 2.96 1.2 2.96 3.18v6.34h-2.36zM4.52 158.38c-2.06 0-3.14-.9-3.06-3.12l.14-4.34-1.44-.16.06-1.5 1.44-.46.04-2.04h2.28l-.04 2.16h2.6l-.06 1.94H3.8l-.12 4.26c-.02.86.42 1.26 1.22 1.26.48 0 .96-.12 1.44-.28l.32 1.92c-.7.24-1.34.36-2.14.36zM14.42 158.08v-5.62c0-1.36-.54-1.82-1.54-1.82-.88 0-1.64.42-2.1.86v6.58H8.42v-13.36l2.36-.32v5.62c.82-.9 1.92-1.46 3.12-1.46 1.78 0 2.88 1.2 2.88 3.18v6.34h-2.36zM20.42 147.18c-.92 0-1.44-.56-1.44-1.42 0-.84.52-1.42 1.44-1.42.94 0 1.46.58 1.46 1.42 0 .86-.52 1.42-1.46 1.42zm-1.18 10.9v-9.16l2.36-.34v9.5h-2.36zM26.98 158.4c-1.2 0-2.66-.34-3.58-.86l.52-1.84c.92.52 2.1.86 3.12.86.92 0 1.52-.38 1.52-1.02 0-.72-.78-.98-1.86-1.24-1.74-.4-3.12-1.12-3.12-2.86 0-1.74 1.46-2.88 3.68-2.88 1.14 0 2.5.3 3.36.74l-.52 1.84c-.9-.46-2.08-.76-2.9-.76-.86 0-1.38.32-1.38.92 0 .7.78.94 1.86 1.2 1.76.42 3.14 1.1 3.14 2.9 0 1.72-1.48 3-3.84 3zM42.24 148.56c2.44 0 4.04 1.98 4.04 4.82 0 2.94-2.04 4.98-4.66 4.98-.6 0-1.38-.08-1.96-.26v4.38H37.3V148.9l2.36-.32v1.16c.62-.6 1.46-1.18 2.58-1.18zm-2.58 7.4c.44.34 1.04.52 1.74.52 1.58 0 2.48-1.28 2.48-3 0-1.8-.86-2.94-2.32-2.94-.78 0-1.38.3-1.9.76v4.66zM50.62 158.08h-2.36v-9.16l2.36-.34v1.5c.58-.98 1.32-1.52 2.4-1.52.56 0 1.14.12 1.64.42l-.52 2.12c-.44-.24-.88-.36-1.32-.36-.82 0-1.58.52-2.2 1.64v5.7zM60.1 158.38c-2.7 0-4.66-1.84-4.66-4.9 0-3.04 2.06-4.94 4.78-4.94s4.66 1.88 4.66 4.92c0 3.02-2.08 4.92-4.78 4.92zm.04-7.94c-1.54 0-2.38 1.24-2.38 3.02 0 1.76.88 3 2.42 3 1.52 0 2.36-1.2 2.36-2.98s-.88-3.04-2.4-3.04zM65.24 161.38c1.14-.54 1.62-1.28 1.62-3.26v-9.2l2.36-.34v9.58c0 2.68-.68 4.04-2.54 4.82l-1.44-1.6zm2.8-14.2c-.92 0-1.44-.56-1.44-1.42 0-.84.52-1.42 1.44-1.42.94 0 1.46.58 1.46 1.42 0 .86-.52 1.42-1.46 1.42zM73.48 153.98c.1 1.5 1.12 2.52 2.76 2.52.98 0 2.04-.32 2.88-.84l.3 1.96c-.88.48-2.1.76-3.34.76-2.96 0-4.92-1.88-4.92-4.82 0-3 2-5 4.76-5 2.44 0 3.8 1.48 3.8 3.74 0 .5-.08 1.14-.2 1.54l-6.04.08v.06zm4.02-1.46v-.16c0-1.24-.54-2.02-1.76-2.02-1.3 0-2.08 1.06-2.2 2.2l3.96-.02zM85.92 158.38c-3 0-4.78-1.86-4.78-4.88 0-3 1.96-4.94 4.86-4.94 1.26 0 2.34.28 3.18.78l-.5 1.9c-.76-.48-1.64-.74-2.5-.74-1.7 0-2.62 1.16-2.62 2.94 0 1.88 1.06 2.98 2.62 2.98.96 0 1.84-.26 2.56-.72l.38 1.92c-.8.48-1.96.76-3.2.76zM94.34 158.38c-2.06 0-3.14-.9-3.06-3.12l.14-4.34-1.44-.16.06-1.5 1.44-.46.04-2.04h2.28l-.04 2.16h2.6l-.06 1.94h-2.68l-.12 4.26c-.02.86.42 1.26 1.22 1.26.48 0 .96-.12 1.44-.28l.32 1.92c-.7.24-1.34.36-2.14.36zM99.5 158.38c-.94 0-1.6-.68-1.6-1.56s.66-1.54 1.6-1.54c.92 0 1.56.66 1.56 1.54s-.64 1.56-1.56 1.56zM8.93 197.22c0 1.65-.99 2.87-3.89 2.87H1.15v-10h3.83c2.71 0 3.63 1.12 3.63 2.64 0 1.07-.64 1.79-1.79 2.18 1.31.27 2.11 1.12 2.11 2.31zm-4.02-5.57H3.07v2.72h1.68c1.25 0 1.9-.53 1.9-1.39.01-.85-.6-1.33-1.74-1.33zm-.04 4.14H3.08v2.72h1.94c1.31 0 1.95-.46 1.95-1.38-.01-.99-.87-1.34-2.1-1.34zM15.36 200.32c-3.07 0-5.2-1.97-5.2-5.22 0-3.23 2.11-5.27 5.22-5.27 1.22 0 2.64.32 3.54.86l-.62 1.7c-.88-.54-1.89-.88-2.88-.88-1.98 0-3.28 1.36-3.28 3.52 0 2.24 1.23 3.63 3.28 3.63.7 0 1.39-.18 1.89-.4v-1.92h-2.62v-1.65h4.43v4.67c-1.08.63-2.49.96-3.76.96zM21.92 197.74c.9 0 1.63.79 1.63 1.76 0 1.39-1.25 2.42-2.53 3.18l-.83-.75c1.01-.7 1.62-1.31 1.62-1.86 0-.42-.3-.71-1.3-1.14.08-.67.63-1.19 1.41-1.19zM36.15 192.32c-.8-.53-1.67-.8-2.62-.8-1.95 0-3.25 1.35-3.25 3.52 0 2.21 1.26 3.6 3.28 3.6 1.02 0 2-.38 2.74-.9l.37 1.79c-.8.48-2.05.79-3.19.79-3.07 0-5.17-1.94-5.17-5.22 0-3.2 2.1-5.27 5.22-5.27 1.17 0 2.37.3 3.23.78l-.61 1.71zM41.41 200.32c-2.16 0-3.73-1.47-3.73-3.92 0-2.43 1.65-3.95 3.83-3.95s3.73 1.5 3.73 3.94c-.01 2.41-1.67 3.93-3.83 3.93zm.03-6.35c-1.23 0-1.9.99-1.9 2.42 0 1.41.7 2.4 1.94 2.4 1.22 0 1.89-.96 1.89-2.38-.01-1.43-.71-2.44-1.93-2.44zM51.62 200.08v-4.5c0-1.09-.43-1.46-1.28-1.46-.66 0-1.27.34-1.63.69v5.27h-1.89v-7.35l1.89-.26v1.17c.66-.72 1.54-1.18 2.43-1.18 1.49 0 2.37.96 2.37 2.54v5.07h-1.89v.01zM57.76 200.34c-.96 0-2.13-.27-2.87-.69l.42-1.47c.74.42 1.68.69 2.5.69.74 0 1.22-.3 1.22-.82 0-.58-.62-.78-1.49-.99-1.39-.32-2.5-.9-2.5-2.29 0-1.39 1.17-2.3 2.95-2.3.91 0 2 .24 2.69.59l-.42 1.47c-.72-.37-1.66-.61-2.32-.61-.69 0-1.1.26-1.1.74 0 .56.62.75 1.49.96 1.41.34 2.51.88 2.51 2.32-.01 1.37-1.19 2.4-3.08 2.4zM64.19 192.7v4.5c0 1.09.45 1.44 1.25 1.44.67 0 1.26-.3 1.62-.64v-5.3h1.89v7.33l-1.89.26v-1.09c-.61.66-1.49 1.12-2.43 1.12-1.44 0-2.32-.96-2.32-2.55v-5.07h1.88zM70.96 200.08L70.96 189.39 72.85 189.13 72.85 200.08zM77.47 200.32c-1.65 0-2.51-.72-2.45-2.5l.11-3.47-1.15-.13.05-1.2 1.15-.37.03-1.63h1.83l-.03 1.73h2.08l-.05 1.55H76.9l-.1 3.41c-.02.69.34 1.01.98 1.01.38 0 .77-.1 1.15-.22l.26 1.54c-.57.19-1.08.28-1.72.28zM84.46 199.23c-.53.64-1.17 1.09-2.08 1.09-1.33 0-2.29-.91-2.29-2.08 0-1.36.99-2.51 4.37-2.62v-.18c0-.99-.42-1.41-1.47-1.41-.75 0-1.66.34-2.45.78l-.38-1.49c.72-.45 1.87-.86 3.09-.86 2.27 0 3.15 1.01 3.11 3.04v2.64c0 .56.1.64.66.67l-.14 1.43c-1.41.16-2.06-.27-2.34-1.01h-.08zm0-2.62c-1.84.22-2.51.59-2.51 1.38 0 .56.43.96 1.1.96.59 0 1.07-.27 1.41-.64v-1.7zM93.09 200.08v-4.5c0-1.09-.43-1.46-1.28-1.46-.66 0-1.26.34-1.63.69v5.27h-1.89v-7.35l1.89-.26v1.17c.66-.72 1.54-1.18 2.43-1.18 1.49 0 2.37.96 2.37 2.54v5.07h-1.89v.01zM99.55 200.32c-1.65 0-2.51-.72-2.45-2.5l.11-3.47-1.15-.13.05-1.2 1.15-.37.03-1.63h1.82l-.03 1.73h2.08l-.05 1.55h-2.15l-.1 3.41c-.02.69.34 1.01.98 1.01.38 0 .77-.1 1.15-.22l.26 1.54c-.54.19-1.06.28-1.7.28zM8.93 215.22c0 1.65-.99 2.87-3.89 2.87H1.15v-10h3.83c2.71 0 3.63 1.12 3.63 2.64 0 1.07-.64 1.79-1.79 2.18 1.31.27 2.11 1.12 2.11 2.31zm-4.02-5.57H3.07v2.72h1.68c1.25 0 1.9-.53 1.9-1.39.01-.85-.6-1.33-1.74-1.33zm-.04 4.14H3.08v2.72h1.94c1.31 0 1.95-.46 1.95-1.38-.01-.99-.87-1.34-2.1-1.34zM12.38 218.08h-1.89v-7.33l1.89-.27v1.2c.46-.78 1.06-1.22 1.92-1.22.45 0 .91.1 1.31.34l-.42 1.7c-.35-.19-.7-.29-1.06-.29-.66 0-1.26.42-1.76 1.31v4.56h.01zM17.7 209.36c-.74 0-1.15-.45-1.15-1.14 0-.67.42-1.14 1.15-1.14.75 0 1.17.46 1.17 1.14 0 .69-.42 1.14-1.17 1.14zm-.95 8.72v-7.33l1.89-.27v7.6h-1.89zM25.52 207.39l1.89-.26v10.95h-1.89v-.72c-.5.48-1.17.96-2.08.96-1.95 0-3.22-1.59-3.22-3.87 0-2.35 1.63-3.99 3.73-3.99.53 0 1.1.1 1.57.24v-3.31zm-1.39 4.58c-1.26 0-1.98 1.04-1.98 2.4 0 1.44.72 2.35 1.86 2.35.62 0 1.1-.22 1.52-.61v-3.71c-.38-.27-.84-.43-1.4-.43zM29.01 217.11c0-.67.54-1.28 1.36-1.55-.82-.42-1.34-1.25-1.34-2.27 0-1.52 1.2-2.82 3.25-2.82.83 0 1.57.24 2.08.46l1.98-.18.08 1.65-1.41-.24c.19.21.34.77.34 1.15 0 1.5-1.26 2.69-3.09 2.69-.35 0-.61-.03-1.01-.13-.26.1-.58.34-.58.64 0 .4.34.58 1.52.58h.77c2.11 0 3.31.59 3.31 2.03 0 1.75-1.97 2.95-4.31 2.95-1.95 0-3.51-.72-3.51-2.05 0-.77.56-1.46 1.67-1.63-.63-.23-1.11-.69-1.11-1.28zm1.17 2.52c0 .69.85 1.17 2.1 1.17 1.3 0 2.29-.48 2.29-1.25 0-.69-.67-.85-2.05-.85-.46 0-1.1-.03-1.41-.06-.53.19-.93.55-.93.99zm2.11-4.86c.85 0 1.33-.61 1.33-1.54 0-.88-.46-1.49-1.41-1.49-.83 0-1.36.62-1.36 1.55 0 .89.53 1.48 1.44 1.48zM38.88 214.8c.08 1.2.9 2.02 2.21 2.02.78 0 1.63-.26 2.3-.67l.24 1.57c-.71.38-1.68.61-2.67.61-2.37 0-3.94-1.51-3.94-3.86 0-2.4 1.6-4 3.81-4 1.95 0 3.04 1.18 3.04 2.99 0 .4-.06.91-.16 1.23l-4.83.06v.05zm3.22-1.17v-.13c0-.99-.43-1.62-1.41-1.62-1.04 0-1.67.85-1.76 1.76l3.17-.01zM49.39 210.46c1.95 0 3.23 1.58 3.23 3.86 0 2.35-1.63 3.99-3.73 3.99-.48 0-1.1-.06-1.57-.21v3.51h-1.89v-10.87l1.89-.26v.93c.5-.48 1.18-.95 2.07-.95zm-2.06 5.92c.35.27.83.42 1.39.42 1.26 0 1.98-1.02 1.98-2.4 0-1.44-.69-2.35-1.86-2.35-.62 0-1.11.24-1.52.61.01-.05.01 3.72.01 3.72zM57.5 218.32c-2.16 0-3.73-1.47-3.73-3.92 0-2.43 1.65-3.95 3.83-3.95s3.73 1.5 3.73 3.94c0 2.41-1.66 3.93-3.83 3.93zm.04-6.35c-1.23 0-1.9.99-1.9 2.42 0 1.41.7 2.4 1.94 2.4 1.22 0 1.89-.96 1.89-2.38-.01-1.43-.72-2.44-1.93-2.44zM64.8 218.08h-1.89v-7.33l1.89-.27v1.2c.46-.78 1.06-1.22 1.92-1.22.45 0 .91.1 1.31.34l-.42 1.7c-.35-.19-.7-.29-1.06-.29-.66 0-1.26.42-1.76 1.31v4.56h.01zM71.94 218.32c-1.65 0-2.51-.72-2.45-2.5l.11-3.47-1.15-.13.05-1.2 1.15-.37.03-1.63h1.82l-.03 1.73h2.08l-.05 1.55h-2.15l-.1 3.41c-.02.69.34 1.01.98 1.01.38 0 .77-.1 1.15-.22l.26 1.54c-.55.19-1.06.28-1.7.28zM86.21 210.32c-.8-.53-1.67-.8-2.62-.8-1.95 0-3.25 1.35-3.25 3.52 0 2.21 1.26 3.6 3.28 3.6 1.02 0 2-.38 2.74-.9l.37 1.79c-.8.48-2.05.79-3.19.79-3.07 0-5.17-1.94-5.17-5.22 0-3.2 2.1-5.27 5.22-5.27 1.17 0 2.37.3 3.23.78l-.61 1.71zM91.47 218.32c-2.16 0-3.73-1.47-3.73-3.92 0-2.43 1.65-3.95 3.83-3.95s3.73 1.5 3.73 3.94c0 2.41-1.67 3.93-3.83 3.93zm.03-6.35c-1.23 0-1.9.99-1.9 2.42 0 1.41.7 2.4 1.94 2.4 1.22 0 1.89-.96 1.89-2.38-.01-1.43-.71-2.44-1.93-2.44zM101.68 218.08v-4.5c0-1.09-.43-1.46-1.28-1.46-.66 0-1.27.34-1.63.69v5.27h-1.89v-7.35l1.89-.26v1.17c.66-.72 1.54-1.18 2.43-1.18 1.49 0 2.37.96 2.37 2.54v5.07h-1.89v.01zM107.82 218.34c-.96 0-2.13-.27-2.87-.69l.42-1.47c.74.42 1.68.69 2.5.69.74 0 1.22-.3 1.22-.82 0-.58-.62-.78-1.49-.99-1.39-.32-2.5-.9-2.5-2.29 0-1.39 1.17-2.3 2.95-2.3.91 0 2 .24 2.69.59l-.42 1.47c-.72-.37-1.66-.61-2.32-.61-.69 0-1.11.26-1.11.74 0 .56.62.75 1.49.96 1.41.34 2.51.88 2.51 2.32.01 1.37-1.18 2.4-3.07 2.4zM114.25 210.7v4.5c0 1.09.45 1.44 1.25 1.44.67 0 1.26-.3 1.62-.64v-5.3h1.89v7.33l-1.89.26v-1.09c-.61.66-1.49 1.12-2.43 1.12-1.44 0-2.32-.96-2.32-2.55v-5.07h1.88zM121.02 218.08L121.02 207.39 122.91 207.13 122.91 218.08zM127.54 218.32c-1.65 0-2.51-.72-2.45-2.5l.11-3.47-1.15-.13.05-1.2 1.15-.37.03-1.63h1.83l-.03 1.73h2.08l-.05 1.55h-2.14l-.1 3.41c-.02.69.34 1.01.98 1.01.38 0 .77-.1 1.15-.22l.26 1.54c-.57.19-1.08.28-1.72.28zM131.6 209.36c-.74 0-1.15-.45-1.15-1.14 0-.67.42-1.14 1.15-1.14.75 0 1.17.46 1.17 1.14 0 .69-.42 1.14-1.17 1.14zm-.95 8.72v-7.33l1.89-.27v7.6h-1.89zM139.36 218.08v-4.5c0-1.09-.43-1.46-1.28-1.46-.66 0-1.26.34-1.63.69v5.27h-1.89v-7.35l1.89-.26v1.17c.66-.72 1.54-1.18 2.43-1.18 1.49 0 2.37.96 2.37 2.54v5.07h-1.89v.01zM142.8 217.11c0-.67.54-1.28 1.36-1.55-.82-.42-1.34-1.25-1.34-2.27 0-1.52 1.2-2.82 3.25-2.82.83 0 1.57.24 2.08.46l1.99-.18.08 1.65-1.41-.24c.19.21.34.77.34 1.15 0 1.5-1.26 2.69-3.09 2.69-.35 0-.61-.03-1.01-.13-.26.1-.58.34-.58.64 0 .4.34.58 1.52.58h.77c2.11 0 3.31.59 3.31 2.03 0 1.75-1.97 2.95-4.31 2.95-1.95 0-3.5-.72-3.5-2.05 0-.77.56-1.46 1.67-1.63-.65-.23-1.13-.69-1.13-1.28zm1.17 2.52c0 .69.85 1.17 2.1 1.17 1.3 0 2.29-.48 2.29-1.25 0-.69-.67-.85-2.05-.85-.46 0-1.1-.03-1.41-.06-.53.19-.93.55-.93.99zm2.11-4.86c.85 0 1.33-.61 1.33-1.54 0-.88-.46-1.49-1.41-1.49-.83 0-1.36.62-1.36 1.55 0 .89.53 1.48 1.44 1.48zM151.84 215.74c.9 0 1.63.79 1.63 1.76 0 1.39-1.25 2.42-2.53 3.18l-.83-.75c1.01-.7 1.62-1.31 1.62-1.86 0-.42-.3-.71-1.3-1.14.08-.67.62-1.19 1.41-1.19zM158.7 218.08L158.7 208.08 160.65 208.08 160.65 216.37 165.16 216.37 165.16 218.08zM166.81 218.08L166.81 208.08 168.76 208.08 168.76 216.37 173.27 216.37 173.27 218.08zM181.68 210.32c-.8-.53-1.67-.8-2.62-.8-1.95 0-3.25 1.35-3.25 3.52 0 2.21 1.26 3.6 3.28 3.6 1.02 0 2-.38 2.74-.9l.37 1.79c-.8.48-2.05.79-3.19.79-3.07 0-5.17-1.94-5.17-5.22 0-3.2 2.1-5.27 5.22-5.27 1.17 0 2.37.3 3.23.78l-.61 1.71z" transform="translate(-37 -1177) translate(37 1177) translate(42 94)"/>
                </g>
                <path fill="#FFF" d="M43.66 25.98c-6.88 2.72-15.68 10.08-15.68 17.6 0 5.28 5.12 5.92 9.44 6.56 6.56.96 9.12 5.6 9.12 9.6 0 4.96-3.84 9.28-9.92 9.28-7.36 0-14.88-6.08-14.88-17.6 0-15.04 11.84-23.52 21.6-26.4l.32.96zm30.09 0c-6.88 2.72-15.68 10.08-15.68 17.6 0 5.28 5.12 5.92 9.44 6.56 6.56.96 9.12 5.6 9.12 9.6 0 4.96-3.84 9.28-9.92 9.28-7.36 0-14.88-6.08-14.88-17.6 0-15.04 11.84-23.52 21.6-26.4l.32.96zM253.96 288.46c7.68-2.88 17.44-10.56 17.44-18.56 0-5.6-5.6-6.4-11.04-7.36-7.36-1.28-10.56-6.4-10.56-11.36 0-5.6 4.32-10.72 11.68-10.72 8.32 0 17.44 6.56 17.44 20 0 17.28-13.76 25.92-24.64 28.96l-.32-.96zm34.08 0c7.68-2.88 17.44-10.56 17.44-18.56 0-5.6-5.44-6.4-10.88-7.36-7.52-1.28-10.72-6.4-10.72-11.36 0-5.6 4.32-10.72 11.68-10.72 8.32 0 17.44 6.56 17.44 20 0 17.28-13.76 25.92-24.64 28.96l-.32-.96z" transform="translate(-37 -1177) translate(37 1177)"/>
            </g>
        </g>
    </g>
</svg>
