<svg xmlns="http://www.w3.org/2000/svg" width="750" height="414" viewBox="0 0 750 414">
    <g fill="none" fill-rule="evenodd">
        <g fill-rule="nonzero">
            <g>
                <path fill="#4789AD" d="M0 0H750V414H0z" transform="translate(-51 -2624) translate(51 2624)"/>
                <path fill="#FFF" d="M90.75 39.47c-9.6 3.6-21.8 13.2-21.8 23.2 0 7 7 8.2 13.8 9.2 9.2 1.6 13.2 8.2 13.2 14.2 0 7-5.2 13.4-14.4 13.4-10.6 0-21.8-8.2-21.8-25 0-21.6 17-32.4 30.6-36.2l.4 1.2zm42.8 0c-9.6 3.6-21.8 13.2-21.8 23.2 0 7 6.8 8.2 13.6 9.2 9.4 1.6 13.4 8.2 13.4 14.2 0 7-5.4 13.4-14.6 13.4-10.4 0-21.8-8.2-21.8-25 0-21.6 17.2-32.4 30.8-36.2l.4 1.2zM606.63 324.92c9.6-3.6 21.8-13.2 21.8-23.2 0-7-7-8-13.8-9.2-9.2-1.6-13.2-8-13.2-14.2 0-7 5.4-13.4 14.6-13.4 10.4 0 21.8 8.2 21.8 25 0 21.6-17.2 32.4-30.8 36.2l-.4-1.2zm42.6 0c9.6-3.6 21.8-13.2 21.8-23.2 0-7-6.8-8-13.6-9.2-9.4-1.6-13.4-8-13.4-14.2 0-7 5.4-13.4 14.6-13.4 10.4 0 21.8 8.2 21.8 25 0 21.6-17.2 32.4-30.8 36.2l-.4-1.2z" transform="translate(-51 -2624) translate(51 2624)"/>
                <g fill="#FFF">
                    <path d="M5.09 8.41l5.19-6.31h3.19l-5.9 6.75 5.98 7h-3.28L5.08 9.56h-.02v6.29H2.38V2.1h2.68v6.31h.03zM20.34 14.68c-.73.88-1.61 1.5-2.86 1.5-1.83 0-3.15-1.25-3.15-2.86 0-1.87 1.36-3.45 6.01-3.61v-.24c0-1.36-.57-1.94-2.02-1.94-1.03 0-2.29.46-3.37 1.08l-.53-2.05c.99-.62 2.57-1.19 4.25-1.19 3.12 0 4.33 1.39 4.27 4.18v3.63c0 .77.13.88.9.92l-.2 1.96c-1.94.22-2.84-.37-3.21-1.39h-.09v.01zm0-3.61c-2.53.31-3.45.81-3.45 1.89 0 .77.59 1.32 1.52 1.32.81 0 1.47-.37 1.94-.88v-2.33h-.01z" transform="translate(-51 -2624) translate(51 2624) translate(117 116)"/>
                    <path d="M30.68 15.65l-.59 1.58c-1.01 2.77-2.16 3.61-4.03 3.61-.92 0-1.76-.22-2.57-.59l.77-2.13c.59.29 1.08.48 1.61.48.75 0 1.14-.33 1.69-1.72l.44-1.17L24.04 5.7h2.79l2.53 7.26 2.42-7.26h2.77l-3.87 9.95zM34.48 7.09L37.01 1.66 39.32 2.45 35.95 7.09 34.48 7.09zM43.22 16.2c-1.32 0-2.93-.37-3.94-.95l.57-2.02c1.01.57 2.31.95 3.43.95 1.01 0 1.67-.42 1.67-1.12 0-.79-.86-1.08-2.05-1.36-1.91-.44-3.43-1.23-3.43-3.15 0-1.91 1.61-3.17 4.05-3.17 1.25 0 2.75.33 3.7.81l-.57 2.02c-.99-.51-2.29-.84-3.19-.84-.95 0-1.52.35-1.52 1.01 0 .77.86 1.03 2.05 1.32 1.94.46 3.45 1.21 3.45 3.19 0 1.9-1.63 3.31-4.22 3.31zM58.15 16.17c-2.27 0-3.45-.99-3.37-3.43l.15-4.77-1.58-.18.07-1.65L55 5.63l.04-2.24h2.51l-.04 2.38h2.86L60.3 7.9h-2.95l-.13 4.69c-.02.95.46 1.39 1.34 1.39.53 0 1.06-.13 1.58-.31l.35 2.11c-.75.26-1.46.39-2.34.39zM67.77 14.68c-.73.88-1.61 1.5-2.86 1.5-1.83 0-3.15-1.25-3.15-2.86 0-1.87 1.36-3.45 6.01-3.61v-.24c0-1.36-.57-1.94-2.02-1.94-1.03 0-2.29.46-3.37 1.08l-.53-2.05c.99-.62 2.57-1.19 4.25-1.19 3.12 0 4.33 1.39 4.27 4.18v3.63c0 .77.13.88.9.92l-.2 1.96c-1.94.22-2.84-.37-3.21-1.39h-.09v.01zm0-3.61c-2.53.31-3.45.81-3.45 1.89 0 .77.59 1.32 1.52 1.32.81 0 1.47-.37 1.94-.88v-2.33h-.01zM73.03 15.84L73.03 1.14 75.63.79 75.63 15.84 73.03 15.84zM80.35 11.33c.11 1.65 1.23 2.77 3.04 2.77 1.08 0 2.24-.35 3.17-.92l.33 2.16c-.97.53-2.31.84-3.67.84-3.26 0-5.41-2.07-5.41-5.3 0-3.3 2.2-5.5 5.24-5.5 2.68 0 4.18 1.63 4.18 4.11 0 .55-.09 1.25-.22 1.69l-6.64.09v.06h-.02zm4.43-1.6v-.18c0-1.36-.59-2.22-1.94-2.22-1.43 0-2.29 1.17-2.42 2.42l4.36-.02zM95.97 15.84V9.66c0-1.5-.59-2-1.76-2-.9 0-1.74.46-2.24.95v7.24h-2.6V5.75l2.6-.35v1.61c.9-.99 2.11-1.63 3.34-1.63 2.05 0 3.26 1.32 3.26 3.5v6.98h-2.6v-.02zM104.86 16.17c-2.27 0-3.45-.99-3.37-3.43l.15-4.77-1.58-.18.07-1.65 1.58-.51.04-2.24h2.51l-.04 2.38h2.86l-.07 2.13h-2.95l-.13 4.69c-.02.95.46 1.39 1.34 1.39.53 0 1.06-.13 1.58-.31l.35 2.11c-.76.26-1.46.39-2.34.39zM119.49 14.68c-.73.88-1.61 1.5-2.86 1.5-1.83 0-3.15-1.25-3.15-2.86 0-1.87 1.36-3.45 6.01-3.61v-.24c0-1.36-.57-1.94-2.02-1.94-1.03 0-2.29.46-3.37 1.08l-.53-2.05c.99-.62 2.57-1.19 4.25-1.19 3.12 0 4.33 1.39 4.27 4.18v3.63c0 .77.13.88.9.92l-.2 1.96c-1.94.22-2.84-.37-3.21-1.39h-.09v.01zm0-3.61c-2.53.31-3.45.81-3.45 1.89 0 .77.59 1.32 1.52 1.32.81 0 1.47-.37 1.94-.88v-2.33h-.01zM131.35 15.84V9.66c0-1.5-.59-2-1.76-2-.9 0-1.74.46-2.24.95v7.24h-2.6V5.75l2.6-.35v1.61c.9-.99 2.11-1.63 3.34-1.63 2.05 0 3.26 1.32 3.26 3.5v6.98h-2.6v-.02zM143.34 1.15l2.6-.35v15.05h-2.6v-.99c-.68.66-1.61 1.32-2.86 1.32-2.68 0-4.42-2.18-4.42-5.32 0-3.23 2.24-5.48 5.13-5.48.73 0 1.52.13 2.16.33V1.15h-.01zm-1.92 6.29c-1.74 0-2.73 1.43-2.73 3.3 0 1.98.99 3.23 2.55 3.23.86 0 1.52-.31 2.09-.84v-5.1c-.5-.37-1.14-.59-1.91-.59zM158.38 16.17c-3.3 0-5.26-2.05-5.26-5.37 0-3.3 2.16-5.44 5.35-5.44 1.39 0 2.57.31 3.5.86l-.55 2.09c-.84-.53-1.8-.81-2.75-.81-1.87 0-2.88 1.28-2.88 3.23 0 2.07 1.17 3.28 2.88 3.28 1.06 0 2.02-.29 2.82-.79l.42 2.11c-.89.54-2.16.84-3.53.84zM166.66 15.84h-2.6V5.76l2.6-.37v1.65c.64-1.08 1.45-1.67 2.64-1.67.62 0 1.25.13 1.8.46l-.57 2.33c-.48-.26-.97-.4-1.45-.4-.9 0-1.74.57-2.42 1.8v6.28zM174.49 11.33c.11 1.65 1.23 2.77 3.04 2.77 1.08 0 2.24-.35 3.17-.92l.33 2.16c-.97.53-2.31.84-3.67.84-3.26 0-5.41-2.07-5.41-5.3 0-3.3 2.2-5.5 5.24-5.5 2.68 0 4.18 1.63 4.18 4.11 0 .55-.09 1.25-.22 1.69l-6.64.09v.06h-.02zm4.42-1.6v-.18c0-1.36-.59-2.22-1.94-2.22-1.43 0-2.29 1.17-2.42 2.42l4.36-.02zM188.83 14.68c-.73.88-1.61 1.5-2.86 1.5-1.83 0-3.15-1.25-3.15-2.86 0-1.87 1.36-3.45 6.01-3.61v-.24c0-1.36-.57-1.94-2.02-1.94-1.03 0-2.29.46-3.37 1.08l-.53-2.05c.99-.62 2.57-1.19 4.25-1.19 3.12 0 4.33 1.39 4.27 4.18v3.63c0 .77.13.88.9.92l-.2 1.96c-1.94.22-2.84-.37-3.21-1.39h-.09v.01zm0-3.61c-2.53.31-3.45.81-3.45 1.89 0 .77.59 1.32 1.52 1.32.81 0 1.47-.37 1.94-.88v-2.33h-.01zM197.67 16.17c-2.27 0-3.45-.99-3.37-3.43l.15-4.77-1.58-.18.07-1.65 1.58-.51.04-2.24h2.51l-.04 2.38h2.86l-.07 2.13h-2.95l-.13 4.69c-.02.95.46 1.39 1.34 1.39.53 0 1.06-.13 1.58-.31l.35 2.11c-.75.26-1.46.39-2.34.39zM203.26 3.85c-1.01 0-1.58-.62-1.58-1.56 0-.92.57-1.56 1.58-1.56 1.03 0 1.61.64 1.61 1.56 0 .95-.57 1.56-1.61 1.56zm-1.3 11.99V5.76l2.6-.37v10.45h-2.6zM212.57 15.87L209.8 15.87 205.93 5.7 208.7 5.7 211.25 13.12 213.69 5.7 216.48 5.7zM219.15 3.85c-1.01 0-1.58-.62-1.58-1.56 0-.92.57-1.56 1.58-1.56 1.03 0 1.61.64 1.61 1.56-.01.95-.58 1.56-1.61 1.56zm-1.3 11.99V5.76l2.6-.37v10.45h-2.6zM226.8 16.17c-2.27 0-3.45-.99-3.37-3.43l.15-4.77-1.58-.18.07-1.65 1.58-.51.04-2.24h2.51l-.04 2.38h2.86l-.07 2.13H226l-.13 4.69c-.02.95.46 1.39 1.34 1.39.53 0 1.06-.13 1.58-.31l.35 2.11c-.75.26-1.46.39-2.34.39zM236.31 15.65l-.59 1.58c-1.01 2.77-2.16 3.61-4.03 3.61-.92 0-1.76-.22-2.57-.59l.77-2.13c.59.29 1.08.48 1.61.48.75 0 1.14-.33 1.69-1.72l.44-1.17-3.96-10.01h2.79l2.53 7.26 2.42-7.26h2.77l-3.87 9.95zM247.83 3.85c-1.01 0-1.58-.62-1.58-1.56 0-.92.57-1.56 1.58-1.56 1.03 0 1.61.64 1.61 1.56 0 .95-.57 1.56-1.61 1.56zm-1.29 11.99V5.76l2.6-.37v10.45h-2.6zM255.05 16.2c-1.32 0-2.93-.37-3.94-.95l.57-2.02c1.01.57 2.31.95 3.43.95 1.01 0 1.67-.42 1.67-1.12 0-.79-.86-1.08-2.05-1.36-1.91-.44-3.43-1.23-3.43-3.15 0-1.91 1.61-3.17 4.05-3.17 1.25 0 2.75.33 3.7.81l-.57 2.02c-.99-.51-2.29-.84-3.19-.84-.95 0-1.52.35-1.52 1.01 0 .77.86 1.03 2.05 1.32 1.94.46 3.45 1.21 3.45 3.19 0 1.9-1.62 3.31-4.22 3.31zM271.73 14.68c-.73.88-1.61 1.5-2.86 1.5-1.83 0-3.15-1.25-3.15-2.86 0-1.87 1.36-3.45 6.01-3.61v-.24c0-1.36-.57-1.94-2.02-1.94-1.03 0-2.29.46-3.37 1.08l-.53-2.05c.99-.62 2.57-1.19 4.25-1.19 3.12 0 4.33 1.39 4.27 4.18v3.63c0 .77.13.88.9.92l-.2 1.96c-1.94.22-2.84-.37-3.21-1.39h-.09v.01zm0-3.61c-2.53.31-3.45.81-3.45 1.89 0 .77.59 1.32 1.52 1.32.81 0 1.47-.37 1.94-.88v-2.33h-.01zM281.43 14.5c0-.92.75-1.76 1.87-2.13-1.12-.57-1.85-1.72-1.85-3.12 0-2.09 1.65-3.87 4.47-3.87 1.14 0 2.16.33 2.86.64l2.73-.24.11 2.27-1.94-.33c.26.29.46 1.06.46 1.58 0 2.07-1.74 3.7-4.25 3.7-.48 0-.84-.04-1.39-.18-.35.13-.79.46-.79.88 0 .55.46.79 2.09.79h1.06c2.9 0 4.55.81 4.55 2.79 0 2.4-2.71 4.05-5.92 4.05-2.68 0-4.82-.99-4.82-2.82 0-1.06.77-2 2.29-2.24-.87-.32-1.53-.95-1.53-1.77zm1.6 3.48c0 .95 1.17 1.61 2.88 1.61 1.78 0 3.15-.66 3.15-1.72 0-.95-.92-1.17-2.82-1.17-.64 0-1.52-.04-1.94-.09-.72.27-1.27.75-1.27 1.37zm2.91-6.69c1.17 0 1.83-.84 1.83-2.11 0-1.21-.64-2.05-1.94-2.05-1.14 0-1.87.86-1.87 2.13 0 1.22.72 2.03 1.98 2.03zM295.64 15.84h-2.6V5.76l2.6-.37v1.65c.64-1.08 1.45-1.67 2.64-1.67.62 0 1.25.13 1.8.46l-.57 2.33c-.48-.26-.97-.4-1.45-.4-.9 0-1.74.57-2.42 1.8v6.28zM303.47 11.33c.11 1.65 1.23 2.77 3.04 2.77 1.08 0 2.24-.35 3.17-.92l.33 2.16c-.97.53-2.31.84-3.67.84-3.26 0-5.41-2.07-5.41-5.3 0-3.3 2.2-5.5 5.24-5.5 2.68 0 4.18 1.63 4.18 4.11 0 .55-.09 1.25-.22 1.69l-6.64.09v.06h-.02zm4.42-1.6v-.18c0-1.36-.59-2.22-1.94-2.22-1.43 0-2.29 1.17-2.42 2.42l4.36-.02zM317.82 14.68c-.73.88-1.61 1.5-2.86 1.5-1.83 0-3.15-1.25-3.15-2.86 0-1.87 1.36-3.45 6.01-3.61v-.24c0-1.36-.57-1.94-2.02-1.94-1.03 0-2.29.46-3.37 1.08l-.53-2.05c.99-.62 2.57-1.19 4.25-1.19 3.12 0 4.33 1.39 4.27 4.18v3.63c0 .77.13.88.9.92l-.2 1.96c-1.94.22-2.84-.37-3.21-1.39h-.09v.01zm0-3.61c-2.53.31-3.45.81-3.45 1.89 0 .77.59 1.32 1.52 1.32.81 0 1.47-.37 1.94-.88v-2.33h-.01zM326.66 16.17c-2.27 0-3.45-.99-3.37-3.43l.15-4.77-1.58-.18.07-1.65 1.58-.51.04-2.24h2.51l-.04 2.38h2.86l-.07 2.13h-2.95l-.13 4.69c-.02.95.46 1.39 1.34 1.39.53 0 1.06-.13 1.58-.31l.35 2.11c-.76.26-1.46.39-2.34.39zM341.29 14.68c-.73.88-1.61 1.5-2.86 1.5-1.83 0-3.15-1.25-3.15-2.86 0-1.87 1.36-3.45 6.01-3.61v-.24c0-1.36-.57-1.94-2.02-1.94-1.03 0-2.29.46-3.37 1.08l-.53-2.05c.99-.62 2.57-1.19 4.25-1.19 3.12 0 4.33 1.39 4.27 4.18v3.63c0 .77.13.88.9.92l-.2 1.96c-1.94.22-2.84-.37-3.21-1.39h-.09v.01zm0-3.61c-2.53.31-3.45.81-3.45 1.89 0 .77.59 1.32 1.52 1.32.81 0 1.47-.37 1.94-.88v-2.33h-.01zM349.69 16.2c-1.32 0-2.93-.37-3.94-.95l.57-2.02c1.01.57 2.31.95 3.43.95 1.01 0 1.67-.42 1.67-1.12 0-.79-.86-1.08-2.05-1.36-1.91-.44-3.43-1.23-3.43-3.15 0-1.91 1.61-3.17 4.05-3.17 1.25 0 2.75.33 3.7.81l-.57 2.02c-.99-.51-2.29-.84-3.19-.84-.95 0-1.52.35-1.52 1.01 0 .77.86 1.03 2.05 1.32 1.94.46 3.45 1.21 3.45 3.19.01 1.9-1.62 3.31-4.22 3.31zM359.17 16.2c-1.32 0-2.93-.37-3.94-.95l.57-2.02c1.01.57 2.31.95 3.43.95 1.01 0 1.67-.42 1.67-1.12 0-.79-.86-1.08-2.05-1.36-1.91-.44-3.43-1.23-3.43-3.15 0-1.91 1.61-3.17 4.05-3.17 1.25 0 2.75.33 3.7.81l-.57 2.02c-.99-.51-2.29-.84-3.19-.84-.95 0-1.52.35-1.52 1.01 0 .77.86 1.03 2.05 1.32 1.94.46 3.45 1.21 3.45 3.19.01 1.9-1.62 3.31-4.22 3.31zM367.47 11.33c.11 1.65 1.23 2.77 3.04 2.77 1.08 0 2.24-.35 3.17-.92l.33 2.16c-.97.53-2.31.84-3.67.84-3.26 0-5.41-2.07-5.41-5.3 0-3.3 2.2-5.5 5.24-5.5 2.68 0 4.18 1.63 4.18 4.11 0 .55-.09 1.25-.22 1.69l-6.64.09v.06h-.02zm4.42-1.6v-.18c0-1.36-.59-2.22-1.94-2.22-1.43 0-2.29 1.17-2.42 2.42l4.36-.02zM380.08 16.17c-2.27 0-3.45-.99-3.37-3.43l.15-4.77-1.58-.18.07-1.65 1.58-.51.04-2.24h2.51l-.04 2.38h2.86l-.07 2.13h-2.95l-.13 4.69c-.02.95.46 1.39 1.34 1.39.53 0 1.06-.13 1.58-.31l.35 2.11c-.76.26-1.46.39-2.34.39zM392.97 16.17c-2.27 0-3.45-.99-3.37-3.43l.15-4.77-1.58-.18.07-1.65 1.58-.51.04-2.24h2.51l-.04 2.38h2.86l-.07 2.13h-2.95l-.13 4.69c-.02.95.46 1.39 1.34 1.39.53 0 1.06-.13 1.58-.31l.35 2.11c-.76.26-1.46.39-2.34.39zM401.68 16.17c-2.97 0-5.13-2.02-5.13-5.39 0-3.34 2.27-5.44 5.26-5.44 2.99 0 5.13 2.07 5.13 5.41 0 3.33-2.29 5.42-5.26 5.42zm.04-8.73c-1.69 0-2.62 1.36-2.62 3.32 0 1.94.97 3.3 2.66 3.3 1.67 0 2.6-1.32 2.6-3.28 0-1.95-.97-3.34-2.64-3.34zM420.42 10.52L420.42 15.84 417.76 15.84 417.76 10.49 412.96 2.08 415.86 2.08 419.12 8.02 422.31 2.08 425.19 2.08zM430.67 5.37c2.68 0 4.44 2.18 4.44 5.3 0 3.23-2.24 5.48-5.13 5.48-.66 0-1.52-.09-2.16-.29v4.82h-2.6V5.74l2.6-.35v1.28c.7-.66 1.62-1.3 2.85-1.3zm-2.83 8.14c.48.37 1.14.57 1.91.57 1.74 0 2.73-1.41 2.73-3.3 0-1.98-.95-3.23-2.55-3.23-.86 0-1.52.33-2.09.84v5.12zM440.44 16.2c-1.32 0-2.93-.37-3.94-.95l.57-2.02c1.01.57 2.31.95 3.43.95 1.01 0 1.67-.42 1.67-1.12 0-.79-.86-1.08-2.05-1.36-1.91-.44-3.43-1.23-3.43-3.15 0-1.91 1.61-3.17 4.05-3.17 1.25 0 2.75.33 3.7.81l-.57 2.02c-.99-.51-2.29-.84-3.19-.84-.95 0-1.52.35-1.52 1.01 0 .77.86 1.03 2.05 1.32 1.94.46 3.45 1.21 3.45 3.19.01 1.9-1.62 3.31-4.22 3.31zM448.08 3.85c-1.01 0-1.58-.62-1.58-1.56 0-.92.57-1.56 1.58-1.56 1.03 0 1.61.64 1.61 1.56-.01.95-.58 1.56-1.61 1.56zm-1.3 11.99V5.76l2.6-.37v10.45h-2.6zM452.15 15.84L452.15 1.14 454.75.79 454.75 15.84 452.15 15.84zM462.84 14.68c-.73.88-1.61 1.5-2.86 1.5-1.83 0-3.15-1.25-3.15-2.86 0-1.87 1.36-3.45 6.01-3.61v-.24c0-1.36-.57-1.94-2.02-1.94-1.03 0-2.29.46-3.37 1.08l-.53-2.05c.99-.62 2.57-1.19 4.25-1.19 3.12 0 4.33 1.39 4.27 4.18v3.63c0 .77.13.88.9.92l-.2 1.96c-1.94.22-2.84-.37-3.21-1.39h-.09v.01zm0-3.61c-2.53.31-3.45.81-3.45 1.89 0 .77.59 1.32 1.52 1.32.81 0 1.47-.37 1.94-.88v-2.33h-.01zM474.7 15.84V9.66c0-1.5-.59-2-1.76-2-.9 0-1.74.46-2.24.95v7.24h-2.6V5.75l2.6-.35v1.61c.9-.99 2.11-1.63 3.34-1.63 2.05 0 3.26 1.32 3.26 3.5v6.98h-2.6v-.02zM483.58 16.17c-2.27 0-3.45-.99-3.37-3.43l.15-4.77-1.58-.18.07-1.65 1.58-.51.04-2.24h2.51l-.04 2.38h2.86l-.07 2.13h-2.95l-.13 4.69c-.02.95.46 1.39 1.34 1.39.53 0 1.06-.13 1.58-.31l.35 2.11c-.75.26-1.46.39-2.34.39zM489.17 3.85c-1.01 0-1.58-.62-1.58-1.56 0-.92.57-1.56 1.58-1.56 1.03 0 1.61.64 1.61 1.56 0 .95-.57 1.56-1.61 1.56zm-1.3 11.99V5.76l2.6-.37v10.45h-2.6zM14.71 32.82L11.12 43.65 8.3 43.65 4.69 32.82 4.56 43.84 2.03 43.84 2.49 30.09 6.21 30.09 9.75 40.92 13.29 30.09 16.96 30.09 17.4 43.84 14.8 43.84zM21.99 39.33c.11 1.65 1.23 2.77 3.04 2.77 1.08 0 2.24-.35 3.17-.92l.33 2.16c-.97.53-2.31.84-3.67.84-3.26 0-5.41-2.07-5.41-5.3 0-3.3 2.2-5.5 5.24-5.5 2.68 0 4.18 1.63 4.18 4.11 0 .55-.09 1.25-.22 1.69l-6.64.09v.06h-.02zm4.42-1.6v-.18c0-1.36-.59-2.22-1.94-2.22-1.43 0-2.29 1.17-2.42 2.42l4.36-.02zM36.33 42.68c-.73.88-1.61 1.5-2.86 1.5-1.83 0-3.15-1.25-3.15-2.86 0-1.87 1.36-3.45 6.01-3.61v-.24c0-1.36-.57-1.94-2.02-1.94-1.03 0-2.29.46-3.37 1.08l-.53-2.05c.99-.62 2.57-1.19 4.25-1.19 3.12 0 4.33 1.39 4.27 4.18v3.63c0 .77.13.88.9.92l-.2 1.96c-1.94.22-2.84-.37-3.21-1.39h-.09v.01zm0-3.61c-2.53.31-3.45.81-3.45 1.89 0 .77.59 1.32 1.52 1.32.81 0 1.47-.37 1.94-.88v-2.33h-.01zM41.59 43.84L41.59 29.14 44.19 28.79 44.19 43.84 41.59 43.84zM50.1 44.2c-1.32 0-2.93-.37-3.94-.95l.57-2.02c1.01.57 2.31.95 3.43.95 1.01 0 1.67-.42 1.67-1.12 0-.79-.86-1.08-2.05-1.36-1.91-.44-3.43-1.23-3.43-3.15 0-1.91 1.61-3.17 4.05-3.17 1.25 0 2.75.33 3.7.81l-.57 2.02c-.99-.51-2.29-.84-3.19-.84-.95 0-1.52.35-1.52 1.01 0 .77.86 1.03 2.05 1.32 1.94.46 3.45 1.21 3.45 3.19.01 1.9-1.62 3.31-4.22 3.31zM65.99 44.17c-2.97 0-5.13-2.02-5.13-5.39 0-3.34 2.27-5.44 5.26-5.44 2.99 0 5.13 2.07 5.13 5.41 0 3.33-2.29 5.42-5.26 5.42zm.04-8.73c-1.69 0-2.62 1.36-2.62 3.32 0 1.94.97 3.3 2.66 3.3 1.67 0 2.6-1.32 2.6-3.28 0-1.95-.97-3.34-2.64-3.34zM80.02 43.84v-6.18c0-1.5-.59-2-1.76-2-.9 0-1.74.46-2.24.95v7.24h-2.6v-10.1l2.6-.35v1.61c.9-.99 2.11-1.63 3.34-1.63 2.05 0 3.26 1.32 3.26 3.5v6.98h-2.6v-.02zM96.06 43.84L93.33 43.84 89.54 30.09 92.4 30.09 94.8 40.56 97.66 30.09 100.74 30.09 103.64 40.56 106.02 30.09 108.75 30.09 104.97 43.84 102.2 43.84 99.16 33.21zM117.27 43.84v-6.18c0-1.5-.59-2-1.69-2-.97 0-1.8.46-2.31.95v7.24h-2.6v-14.7l2.6-.35v6.18c.9-.99 2.11-1.61 3.43-1.61 1.96 0 3.17 1.32 3.17 3.5v6.98h-2.6v-.01zM124.53 39.33c.11 1.65 1.23 2.77 3.04 2.77 1.08 0 2.24-.35 3.17-.92l.33 2.16c-.97.53-2.31.84-3.67.84-3.26 0-5.41-2.07-5.41-5.3 0-3.3 2.2-5.5 5.24-5.5 2.68 0 4.18 1.63 4.18 4.11 0 .55-.09 1.25-.22 1.69l-6.64.09v.06h-.02zm4.42-1.6v-.18c0-1.36-.59-2.22-1.94-2.22-1.43 0-2.29 1.17-2.42 2.42l4.36-.02zM135.5 39.33c.11 1.65 1.23 2.77 3.04 2.77 1.08 0 2.24-.35 3.17-.92l.33 2.16c-.97.53-2.31.84-3.67.84-3.26 0-5.41-2.07-5.41-5.3 0-3.3 2.2-5.5 5.24-5.5 2.68 0 4.18 1.63 4.18 4.11 0 .55-.09 1.25-.22 1.69l-6.64.09v.06h-.02zm4.43-1.6v-.18c0-1.36-.59-2.22-1.94-2.22-1.43 0-2.29 1.17-2.42 2.42l4.36-.02zM144.52 43.84L144.52 29.14 147.12 28.79 147.12 43.84 144.52 43.84zM153.04 44.2c-1.32 0-2.93-.37-3.94-.95l.57-2.02c1.01.57 2.31.95 3.43.95 1.01 0 1.67-.42 1.67-1.12 0-.79-.86-1.08-2.05-1.36-1.91-.44-3.43-1.23-3.43-3.15 0-1.91 1.61-3.17 4.05-3.17 1.25 0 2.75.33 3.7.81l-.57 2.02c-.99-.51-2.29-.84-3.19-.84-.95 0-1.52.35-1.52 1.01 0 .77.86 1.03 2.05 1.32 1.94.46 3.45 1.21 3.45 3.19 0 1.9-1.63 3.31-4.22 3.31zM169.71 42.68c-.73.88-1.61 1.5-2.86 1.5-1.83 0-3.15-1.25-3.15-2.86 0-1.87 1.36-3.45 6.01-3.61v-.24c0-1.36-.57-1.94-2.02-1.94-1.03 0-2.29.46-3.37 1.08l-.53-2.05c.99-.62 2.57-1.19 4.25-1.19 3.12 0 4.33 1.39 4.27 4.18v3.63c0 .77.13.88.9.92l-.2 1.96c-1.94.22-2.84-.37-3.21-1.39h-.09v.01zm0-3.61c-2.53.31-3.45.81-3.45 1.89 0 .77.59 1.32 1.52 1.32.81 0 1.47-.37 1.94-.88v-2.33h-.01zM181.57 43.84v-6.18c0-1.5-.59-2-1.76-2-.9 0-1.74.46-2.24.95v7.24h-2.6v-10.1l2.6-.35v1.61c.9-.99 2.11-1.63 3.34-1.63 2.05 0 3.26 1.32 3.26 3.5v6.98h-2.6v-.02zM193.56 29.15l2.6-.35v15.05h-2.6v-.99c-.68.66-1.61 1.32-2.86 1.32-2.68 0-4.42-2.18-4.42-5.32 0-3.23 2.24-5.48 5.13-5.48.73 0 1.52.13 2.16.33v-4.56h-.01zm-1.91 6.29c-1.74 0-2.73 1.43-2.73 3.3 0 1.98.99 3.23 2.55 3.23.86 0 1.52-.31 2.09-.84v-5.1c-.5-.37-1.14-.59-1.91-.59zM208.48 44.17c-2.97 0-5.13-2.02-5.13-5.39 0-3.34 2.27-5.44 5.26-5.44 2.99 0 5.13 2.07 5.13 5.41 0 3.33-2.29 5.42-5.26 5.42zm.04-8.73c-1.69 0-2.62 1.36-2.62 3.32 0 1.94.97 3.3 2.66 3.3 1.67 0 2.6-1.32 2.6-3.28 0-1.95-.97-3.34-2.64-3.34zM218.42 33.7v6.18c0 1.5.62 1.98 1.72 1.98.92 0 1.74-.42 2.22-.88V33.7h2.6v10.08l-2.6.35v-1.5c-.84.9-2.05 1.54-3.34 1.54-1.98 0-3.19-1.32-3.19-3.5v-6.98h2.59v.01zM230.32 43.84h-2.6V33.76l2.6-.37v1.65c.64-1.08 1.45-1.67 2.64-1.67.62 0 1.25.13 1.8.46l-.57 2.33c-.48-.26-.97-.4-1.45-.4-.9 0-1.74.57-2.42 1.8v6.28zM243.3 39.33c.11 1.65 1.23 2.77 3.04 2.77 1.08 0 2.24-.35 3.17-.92l.33 2.16c-.97.53-2.31.84-3.67.84-3.26 0-5.41-2.07-5.41-5.3 0-3.3 2.2-5.5 5.24-5.5 2.68 0 4.18 1.63 4.18 4.11 0 .55-.09 1.25-.22 1.69l-6.64.09v.06h-.02zm4.42-1.6v-.18c0-1.36-.59-2.22-1.94-2.22-1.43 0-2.29 1.17-2.42 2.42l4.36-.02zM255.38 43.84h-2.6v-7.92l-1.76-.13.09-1.65 1.65-.48.02-.86c.07-2.9 1.41-4.05 3.67-4.05.99 0 1.89.29 2.4.51 0 .02-.55 2.24-.55 2.22-.48-.22-1.06-.42-1.65-.42-.95 0-1.34.55-1.34 1.8v.9h4.86l.02-1.19c.07-2.9 1.39-4.05 3.65-4.05 1.01 0 1.89.29 2.4.51 0 .02-.53 2.24-.53 2.22-.51-.22-1.08-.42-1.67-.42-.95 0-1.34.55-1.34 1.8v1.12h3.04l-.07 2.13h-2.88v7.94h-2.6v-7.94h-4.82v7.96h.01zM271.88 44.17c-2.97 0-5.13-2.02-5.13-5.39 0-3.34 2.27-5.44 5.26-5.44 2.99 0 5.13 2.07 5.13 5.41 0 3.33-2.29 5.42-5.26 5.42zm.04-8.73c-1.69 0-2.62 1.36-2.62 3.32 0 1.94.97 3.3 2.66 3.3 1.67 0 2.6-1.32 2.6-3.28 0-1.95-.97-3.34-2.64-3.34zM281.91 43.84h-2.6V33.76l2.6-.37v1.65c.64-1.08 1.45-1.67 2.64-1.67.62 0 1.25.13 1.8.46l-.57 2.33c-.48-.26-.97-.4-1.45-.4-.9 0-1.74.57-2.42 1.8v6.28zM291.72 44.17c-2.27 0-3.45-.99-3.37-3.43l.15-4.77-1.58-.18.07-1.65 1.58-.51.04-2.24h2.51l-.04 2.38h2.86l-.07 2.13h-2.95l-.13 4.69c-.02.95.46 1.39 1.34 1.39.53 0 1.06-.13 1.58-.31l.35 2.11c-.76.26-1.46.39-2.34.39zM299.16 44.2c-1.32 0-2.93-.37-3.94-.95l.57-2.02c1.01.57 2.31.95 3.43.95 1.01 0 1.67-.42 1.67-1.12 0-.79-.86-1.08-2.05-1.36-1.91-.44-3.43-1.23-3.43-3.15 0-1.91 1.61-3.17 4.05-3.17 1.25 0 2.75.33 3.7.81l-.57 2.02c-.99-.51-2.29-.84-3.19-.84-.95 0-1.52.35-1.52 1.01 0 .77.86 1.03 2.05 1.32 1.94.46 3.45 1.21 3.45 3.19 0 1.9-1.63 3.31-4.22 3.31zM314.09 44.17c-2.27 0-3.45-.99-3.37-3.43l.15-4.77-1.58-.18.07-1.65 1.58-.51.04-2.24h2.51l-.04 2.38h2.86l-.07 2.13h-2.95l-.13 4.69c-.02.95.46 1.39 1.34 1.39.53 0 1.06-.13 1.58-.31l.35 2.11c-.75.26-1.46.39-2.34.39zM322.81 44.17c-2.97 0-5.13-2.02-5.13-5.39 0-3.34 2.27-5.44 5.26-5.44 2.99 0 5.13 2.07 5.13 5.41 0 3.33-2.29 5.42-5.26 5.42zm.04-8.73c-1.69 0-2.62 1.36-2.62 3.32 0 1.94.97 3.3 2.66 3.3 1.67 0 2.6-1.32 2.6-3.28 0-1.95-.97-3.34-2.64-3.34zM348 43.84v-6.16c0-1.5-.59-2.02-1.67-2.02-.9 0-1.61.46-2.11.9v7.29h-2.6v-6.16c0-1.5-.57-2.02-1.65-2.02-.92 0-1.63.37-2.11.84v7.35h-2.6v-10.1l2.6-.35v1.43c.95-.95 1.98-1.45 3.23-1.45 1.23 0 2.27.59 2.77 1.74 1.01-1.1 2.22-1.74 3.61-1.74 1.92 0 3.12 1.32 3.12 3.52v6.95H348v-.02zM355.23 39.33c.11 1.65 1.23 2.77 3.04 2.77 1.08 0 2.24-.35 3.17-.92l.33 2.16c-.97.53-2.31.84-3.67.84-3.26 0-5.41-2.07-5.41-5.3 0-3.3 2.2-5.5 5.24-5.5 2.68 0 4.18 1.63 4.18 4.11 0 .55-.09 1.25-.22 1.69l-6.64.09v.06h-.02zm4.43-1.6v-.18c0-1.36-.59-2.22-1.94-2.22-1.43 0-2.29 1.17-2.42 2.42l4.36-.02zM366.21 39.33c.11 1.65 1.23 2.77 3.04 2.77 1.08 0 2.24-.35 3.17-.92l.33 2.16c-.97.53-2.31.84-3.67.84-3.26 0-5.41-2.07-5.41-5.3 0-3.3 2.2-5.5 5.24-5.5 2.68 0 4.18 1.63 4.18 4.11 0 .55-.09 1.25-.22 1.69l-6.64.09v.06h-.02zm4.42-1.6v-.18c0-1.36-.59-2.22-1.94-2.22-1.43 0-2.29 1.17-2.42 2.42l4.36-.02zM378.82 44.17c-2.27 0-3.45-.99-3.37-3.43l.15-4.77-1.58-.18.07-1.65 1.58-.51.04-2.24h2.51l-.04 2.38h2.86l-.07 2.13h-2.95l-.13 4.69c-.02.95.46 1.39 1.34 1.39.53 0 1.06-.13 1.58-.31l.35 2.11c-.76.26-1.46.39-2.34.39zM391.71 44.17c-2.27 0-3.45-.99-3.37-3.43l.15-4.77-1.58-.18.07-1.65 1.58-.51.04-2.24h2.51l-.04 2.38h2.86l-.07 2.13h-2.95l-.13 4.69c-.02.95.46 1.39 1.34 1.39.53 0 1.06-.13 1.58-.31l.35 2.11c-.76.26-1.46.39-2.34.39zM402.6 43.84v-6.18c0-1.5-.59-2-1.69-2-.97 0-1.8.46-2.31.95v7.24H396v-14.7l2.6-.35v6.18c.9-.99 2.11-1.61 3.43-1.61 1.96 0 3.17 1.32 3.17 3.5v6.98h-2.6v-.01zM409.86 39.33c.11 1.65 1.23 2.77 3.04 2.77 1.08 0 2.24-.35 3.17-.92l.33 2.16c-.97.53-2.31.84-3.67.84-3.26 0-5.41-2.07-5.41-5.3 0-3.3 2.2-5.5 5.24-5.5 2.68 0 4.18 1.63 4.18 4.11 0 .55-.09 1.25-.22 1.69l-6.64.09v.06h-.02zm4.42-1.6v-.18c0-1.36-.59-2.22-1.94-2.22-1.43 0-2.29 1.17-2.42 2.42l4.36-.02zM430.49 43.84v-6.18c0-1.5-.59-2-1.76-2-.9 0-1.74.46-2.24.95v7.24h-2.6v-10.1l2.6-.35v1.61c.9-.99 2.11-1.63 3.34-1.63 2.05 0 3.26 1.32 3.26 3.5v6.98h-2.6v-.02zM437.75 39.33c.11 1.65 1.23 2.77 3.04 2.77 1.08 0 2.24-.35 3.17-.92l.33 2.16c-.97.53-2.31.84-3.67.84-3.26 0-5.41-2.07-5.41-5.3 0-3.3 2.2-5.5 5.24-5.5 2.68 0 4.18 1.63 4.18 4.11 0 .55-.09 1.25-.22 1.69l-6.64.09v.06h-.02zm4.43-1.6v-.18c0-1.36-.59-2.22-1.94-2.22-1.43 0-2.29 1.17-2.42 2.42l4.36-.02zM448.73 39.33c.11 1.65 1.23 2.77 3.04 2.77 1.08 0 2.24-.35 3.17-.92l.33 2.16c-.97.53-2.31.84-3.67.84-3.26 0-5.41-2.07-5.41-5.3 0-3.3 2.2-5.5 5.24-5.5 2.68 0 4.18 1.63 4.18 4.11 0 .55-.09 1.25-.22 1.69l-6.64.09v.06h-.02zm4.42-1.6v-.18c0-1.36-.59-2.22-1.94-2.22-1.43 0-2.29 1.17-2.42 2.42l4.36-.02zM464.44 29.15l2.6-.35v15.05h-2.6v-.99c-.68.66-1.61 1.32-2.86 1.32-2.68 0-4.42-2.18-4.42-5.32 0-3.23 2.24-5.48 5.13-5.48.73 0 1.52.13 2.16.33v-4.56h-.01zm-1.92 6.29c-1.74 0-2.73 1.43-2.73 3.3 0 1.98.99 3.23 2.55 3.23.86 0 1.52-.31 2.09-.84v-5.1c-.5-.37-1.14-.59-1.91-.59zM472.95 44.2c-1.32 0-2.93-.37-3.94-.95l.57-2.02c1.01.57 2.31.95 3.43.95 1.01 0 1.67-.42 1.67-1.12 0-.79-.86-1.08-2.05-1.36-1.91-.44-3.43-1.23-3.43-3.15 0-1.91 1.61-3.17 4.05-3.17 1.25 0 2.75.33 3.7.81l-.57 2.02c-.99-.51-2.29-.84-3.19-.84-.95 0-1.52.35-1.52 1.01 0 .77.86 1.03 2.05 1.32 1.94.46 3.45 1.21 3.45 3.19.01 1.9-1.62 3.31-4.22 3.31zM6.72 72.17c-2.97 0-5.13-2.02-5.13-5.39 0-3.34 2.27-5.44 5.26-5.44 2.99 0 5.13 2.07 5.13 5.41 0 3.33-2.29 5.42-5.26 5.42zm.04-8.73c-1.69 0-2.62 1.36-2.62 3.32 0 1.94.97 3.3 2.66 3.3 1.67 0 2.6-1.32 2.6-3.28 0-1.95-.97-3.34-2.64-3.34zM20.14 59.26c-.48-.22-1.06-.42-1.65-.42-.95 0-1.34.55-1.34 1.8v1.12h3.01l-.07 2.13h-2.88v7.94h-2.6v-7.92l-1.76-.13.09-1.65 1.65-.48.02-1.08c.07-2.9 1.41-4.05 3.67-4.05.99 0 1.89.29 2.4.51.01.03-.54 2.25-.54 2.23zM31.25 72.17c-2.97 0-5.13-2.02-5.13-5.39 0-3.34 2.27-5.44 5.26-5.44 2.99 0 5.13 2.07 5.13 5.41 0 3.33-2.29 5.42-5.26 5.42zm.04-8.73c-1.69 0-2.62 1.36-2.62 3.32 0 1.94.97 3.3 2.66 3.3 1.67 0 2.6-1.32 2.6-3.28 0-1.95-.97-3.34-2.64-3.34zM41.19 61.7v6.18c0 1.5.62 1.98 1.72 1.98.92 0 1.74-.42 2.22-.88V61.7h2.6v10.08l-2.6.35v-1.5c-.84.9-2.05 1.54-3.34 1.54-1.98 0-3.19-1.32-3.19-3.5v-6.98h2.59v.01zM53.09 71.84h-2.6V61.76l2.6-.37v1.65c.64-1.08 1.45-1.67 2.64-1.67.62 0 1.25.13 1.8.46l-.57 2.33c-.48-.26-.97-.4-1.45-.4-.9 0-1.74.57-2.42 1.8v6.28zM70.71 71.84v-6.18c0-1.5-.59-2-1.69-2-.97 0-1.8.46-2.31.95v7.24h-2.6v-14.7l2.6-.35v6.18c.9-.99 2.11-1.61 3.43-1.61 1.96 0 3.17 1.32 3.17 3.5v6.98h-2.6v-.01zM80.55 72.17c-2.97 0-5.13-2.02-5.13-5.39 0-3.34 2.27-5.44 5.26-5.44 2.99 0 5.13 2.07 5.13 5.41 0 3.33-2.29 5.42-5.26 5.42zm.04-8.73c-1.69 0-2.62 1.36-2.62 3.32 0 1.94.97 3.3 2.66 3.3 1.67 0 2.6-1.32 2.6-3.28 0-1.95-.97-3.34-2.64-3.34zM100.72 71.84v-6.16c0-1.5-.59-2.02-1.67-2.02-.9 0-1.61.46-2.11.9v7.29h-2.6v-6.16c0-1.5-.57-2.02-1.65-2.02-.92 0-1.63.37-2.11.84v7.35h-2.6v-10.1l2.6-.35v1.43c.95-.95 1.98-1.45 3.23-1.45 1.23 0 2.27.59 2.77 1.74 1.01-1.1 2.22-1.74 3.61-1.74 1.92 0 3.12 1.32 3.12 3.52v6.95h-2.59v-.02zM107.96 67.33c.11 1.65 1.23 2.77 3.04 2.77 1.08 0 2.24-.35 3.17-.92l.33 2.16c-.97.53-2.31.84-3.67.84-3.26 0-5.41-2.07-5.41-5.3 0-3.3 2.2-5.5 5.24-5.5 2.68 0 4.18 1.63 4.18 4.11 0 .55-.09 1.25-.22 1.69l-6.64.09v.06h-.02zm4.42-1.6v-.18c0-1.36-.59-2.22-1.94-2.22-1.43 0-2.29 1.17-2.42 2.42l4.36-.02zM121.73 72.15c-.66 0-1.61-.13-2.27-.35l-2.49.37V57.14l2.6-.35v5.88c.68-.66 1.61-1.3 2.84-1.3 2.68 0 4.44 2.18 4.44 5.3.01 3.24-2.24 5.48-5.12 5.48zm-.06-8.6c-.86 0-1.52.33-2.09.84v5.13c.48.37 1.14.57 1.91.57 1.74 0 2.73-1.41 2.73-3.3 0-1.99-.95-3.24-2.55-3.24zM133.5 72.17c-2.97 0-5.13-2.02-5.13-5.39 0-3.34 2.27-5.44 5.26-5.44 2.99 0 5.13 2.07 5.13 5.41 0 3.33-2.29 5.42-5.26 5.42zm.04-8.73c-1.69 0-2.62 1.36-2.62 3.32 0 1.94.97 3.3 2.66 3.3 1.67 0 2.6-1.32 2.6-3.28.01-1.95-.96-3.34-2.64-3.34zM143.44 61.7v6.18c0 1.5.62 1.98 1.72 1.98.92 0 1.74-.42 2.22-.88V61.7h2.6v10.08l-2.6.35v-1.5c-.84.9-2.05 1.54-3.34 1.54-1.98 0-3.19-1.32-3.19-3.5v-6.98h2.59v.01zM159.35 71.84v-6.18c0-1.5-.59-2-1.76-2-.9 0-1.74.46-2.24.95v7.24h-2.6v-10.1l2.6-.35v1.61c.9-.99 2.11-1.63 3.34-1.63 2.05 0 3.26 1.32 3.26 3.5v6.98h-2.6v-.02zM171.34 57.15l2.6-.35v15.05h-2.6v-.99c-.68.66-1.61 1.32-2.86 1.32-2.68 0-4.42-2.18-4.42-5.32 0-3.23 2.24-5.48 5.13-5.48.73 0 1.52.13 2.16.33v-4.56h-.01zm-1.91 6.29c-1.74 0-2.73 1.43-2.73 3.3 0 1.98.99 3.23 2.55 3.23.86 0 1.52-.31 2.09-.84v-5.1c-.51-.37-1.14-.59-1.91-.59zM186.39 72.17c-3.3 0-5.26-2.05-5.26-5.37 0-3.3 2.16-5.44 5.35-5.44 1.39 0 2.57.31 3.5.86l-.55 2.09c-.84-.53-1.8-.81-2.75-.81-1.87 0-2.88 1.28-2.88 3.23 0 2.07 1.17 3.28 2.88 3.28 1.06 0 2.02-.29 2.82-.79l.42 2.11c-.89.54-2.17.84-3.53.84zM196.53 72.17c-2.97 0-5.13-2.02-5.13-5.39 0-3.34 2.27-5.44 5.26-5.44 2.99 0 5.13 2.07 5.13 5.41 0 3.33-2.29 5.42-5.26 5.42zm.04-8.73c-1.69 0-2.62 1.36-2.62 3.32 0 1.94.97 3.3 2.66 3.3 1.67 0 2.6-1.32 2.6-3.28 0-1.95-.96-3.34-2.64-3.34zM216.7 71.84v-6.16c0-1.5-.59-2.02-1.67-2.02-.9 0-1.61.46-2.11.9v7.29h-2.6v-6.16c0-1.5-.57-2.02-1.65-2.02-.92 0-1.63.37-2.11.84v7.35h-2.6v-10.1l2.6-.35v1.43c.95-.95 1.98-1.45 3.23-1.45 1.23 0 2.27.59 2.77 1.74 1.01-1.1 2.22-1.74 3.61-1.74 1.92 0 3.12 1.32 3.12 3.52v6.95h-2.59v-.02zM234.72 71.84v-6.16c0-1.5-.59-2.02-1.67-2.02-.9 0-1.61.46-2.11.9v7.29h-2.6v-6.16c0-1.5-.57-2.02-1.65-2.02-.92 0-1.63.37-2.11.84v7.35h-2.6v-10.1l2.6-.35v1.43c.95-.95 1.98-1.45 3.23-1.45 1.23 0 2.27.59 2.77 1.74 1.01-1.1 2.22-1.74 3.61-1.74 1.92 0 3.12 1.32 3.12 3.52v6.95h-2.59v-.02zM242.51 61.7v6.18c0 1.5.62 1.98 1.72 1.98.92 0 1.74-.42 2.22-.88V61.7h2.6v10.08l-2.6.35v-1.5c-.84.9-2.05 1.54-3.34 1.54-1.98 0-3.19-1.32-3.19-3.5v-6.98h2.59v.01zM258.41 71.84v-6.18c0-1.5-.59-2-1.76-2-.9 0-1.74.46-2.24.95v7.24h-2.6v-10.1l2.6-.35v1.61c.9-.99 2.11-1.63 3.34-1.63 2.05 0 3.26 1.32 3.26 3.5v6.98h-2.6v-.02zM265.01 59.85c-1.01 0-1.58-.62-1.58-1.56 0-.92.57-1.56 1.58-1.56 1.03 0 1.61.64 1.61 1.56 0 .95-.57 1.56-1.61 1.56zm-1.3 11.99V61.76l2.6-.37v10.45h-2.6zM272.67 72.17c-2.27 0-3.45-.99-3.37-3.43l.15-4.77-1.58-.18.07-1.65 1.58-.51.04-2.24h2.51l-.04 2.38h2.86l-.07 2.13h-2.95l-.13 4.69c-.02.95.46 1.39 1.34 1.39.53 0 1.06-.13 1.58-.31l.35 2.11c-.76.26-1.46.39-2.34.39zM282.17 71.65l-.59 1.58c-1.01 2.77-2.16 3.61-4.03 3.61-.92 0-1.76-.22-2.57-.59l.77-2.13c.59.29 1.08.48 1.61.48.75 0 1.14-.33 1.69-1.72l.44-1.17-3.96-10.01h2.79l2.53 7.26 2.42-7.26h2.77l-3.87 9.95zM287.89 72.17c-1.03 0-1.76-.75-1.76-1.72s.73-1.69 1.76-1.69c1.01 0 1.72.73 1.72 1.69s-.71 1.72-1.72 1.72zM299.9 64.41l5.19-6.31h3.19l-5.9 6.75 5.98 7h-3.28l-5.19-6.29h-.02v6.29h-2.68V58.1h2.68v6.31h.03zM315.15 70.68c-.73.88-1.61 1.5-2.86 1.5-1.83 0-3.15-1.25-3.15-2.86 0-1.87 1.36-3.45 6.01-3.61v-.24c0-1.36-.57-1.94-2.02-1.94-1.03 0-2.29.46-3.37 1.08l-.53-2.05c.99-.62 2.57-1.19 4.25-1.19 3.12 0 4.33 1.39 4.27 4.18v3.63c0 .77.13.88.9.92l-.2 1.96c-1.94.22-2.84-.37-3.21-1.39h-.09v.01zm0-3.61c-2.53.31-3.45.81-3.45 1.89 0 .77.59 1.32 1.52 1.32.81 0 1.47-.37 1.94-.88v-2.33h-.01z" transform="translate(-51 -2624) translate(51 2624) translate(117 116)"/>
                    <path d="M325.49 71.65l-.59 1.58c-1.01 2.77-2.16 3.61-4.03 3.61-.92 0-1.76-.22-2.57-.59l.77-2.13c.59.29 1.08.48 1.61.48.75 0 1.14-.33 1.69-1.72l.44-1.17-3.96-10.01h2.79l2.53 7.26 2.42-7.26h2.77l-3.87 9.95zM342.32 71.84v-6.18c0-1.5-.59-2-1.69-2-.97 0-1.8.46-2.31.95v7.24h-2.6v-14.7l2.6-.35v6.18c.9-.99 2.11-1.61 3.43-1.61 1.96 0 3.17 1.32 3.17 3.5v6.98h-2.6v-.01zM352.95 70.68c-.73.88-1.61 1.5-2.86 1.5-1.83 0-3.15-1.25-3.15-2.86 0-1.87 1.36-3.45 6.01-3.61v-.24c0-1.36-.57-1.94-2.02-1.94-1.03 0-2.29.46-3.37 1.08l-.53-2.05c.99-.62 2.57-1.19 4.25-1.19 3.12 0 4.33 1.39 4.27 4.18v3.63c0 .77.13.88.9.92l-.2 1.96c-1.94.22-2.84-.37-3.21-1.39h-.09v.01zm0-3.61c-2.53.31-3.45.81-3.45 1.89 0 .77.59 1.32 1.52 1.32.81 0 1.47-.37 1.94-.88v-2.33h-.01zM361.35 72.2c-1.32 0-2.93-.37-3.94-.95l.57-2.02c1.01.57 2.31.95 3.43.95 1.01 0 1.67-.42 1.67-1.12 0-.79-.86-1.08-2.05-1.36-1.91-.44-3.43-1.23-3.43-3.15 0-1.91 1.61-3.17 4.05-3.17 1.25 0 2.75.33 3.7.81l-.57 2.02c-.99-.51-2.29-.84-3.19-.84-.95 0-1.52.35-1.52 1.01 0 .77.86 1.03 2.05 1.32 1.94.46 3.45 1.21 3.45 3.19 0 1.9-1.62 3.31-4.22 3.31zM372.13 70.5c0-.92.75-1.76 1.87-2.13-1.12-.57-1.85-1.72-1.85-3.12 0-2.09 1.65-3.87 4.47-3.87 1.14 0 2.16.33 2.86.64l2.73-.24.11 2.27-1.94-.33c.26.29.46 1.06.46 1.58 0 2.07-1.74 3.7-4.25 3.7-.48 0-.84-.04-1.39-.18-.35.13-.79.46-.79.88 0 .55.46.79 2.09.79h1.06c2.9 0 4.55.81 4.55 2.79 0 2.4-2.71 4.05-5.92 4.05-2.68 0-4.82-.99-4.82-2.82 0-1.06.77-2 2.29-2.24-.87-.32-1.53-.95-1.53-1.77zm1.6 3.48c0 .95 1.17 1.61 2.88 1.61 1.78 0 3.15-.66 3.15-1.72 0-.95-.92-1.17-2.82-1.17-.64 0-1.52-.04-1.94-.09-.71.27-1.27.75-1.27 1.37zm2.91-6.69c1.17 0 1.83-.84 1.83-2.11 0-1.21-.64-2.05-1.94-2.05-1.14 0-1.87.86-1.87 2.13 0 1.22.72 2.03 1.98 2.03zM385.04 59.85c-1.01 0-1.58-.62-1.58-1.56 0-.92.57-1.56 1.58-1.56 1.03 0 1.61.64 1.61 1.56 0 .95-.57 1.56-1.61 1.56zm-1.3 11.99V61.76l2.6-.37v10.45h-2.6zM394.35 71.87L391.58 71.87 387.71 61.7 390.48 61.7 393.03 69.12 395.47 61.7 398.26 61.7zM401.48 67.33c.11 1.65 1.23 2.77 3.04 2.77 1.08 0 2.24-.35 3.17-.92l.33 2.16c-.97.53-2.31.84-3.67.84-3.26 0-5.41-2.07-5.41-5.3 0-3.3 2.2-5.5 5.24-5.5 2.68 0 4.18 1.63 4.18 4.11 0 .55-.09 1.25-.22 1.69l-6.64.09v.06h-.02zm4.42-1.6v-.18c0-1.36-.59-2.22-1.94-2.22-1.43 0-2.29 1.17-2.42 2.42l4.36-.02zM417.1 71.84v-6.18c0-1.5-.59-2-1.76-2-.9 0-1.74.46-2.24.95v7.24h-2.6v-10.1l2.6-.35v1.61c.9-.99 2.11-1.63 3.34-1.63 2.05 0 3.26 1.32 3.26 3.5v6.98h-2.6v-.02zM431.95 72.17c-2.97 0-5.13-2.02-5.13-5.39 0-3.34 2.27-5.44 5.26-5.44 2.99 0 5.13 2.07 5.13 5.41-.01 3.33-2.29 5.42-5.26 5.42zm.04-8.73c-1.69 0-2.62 1.36-2.62 3.32 0 1.94.97 3.3 2.66 3.3 1.67 0 2.6-1.32 2.6-3.28 0-1.95-.97-3.34-2.64-3.34zM441.89 61.7v6.18c0 1.5.62 1.98 1.72 1.98.92 0 1.74-.42 2.22-.88V61.7h2.6v10.08l-2.6.35v-1.5c-.84.9-2.05 1.54-3.34 1.54-1.98 0-3.19-1.32-3.19-3.5v-6.98h2.59v.01zM453.79 71.84h-2.6V61.76l2.6-.37v1.65c.64-1.08 1.45-1.67 2.64-1.67.62 0 1.25.13 1.8.46l-.57 2.33c-.48-.26-.97-.4-1.45-.4-.9 0-1.74.57-2.42 1.8v6.28zM4.08 99.89L1.07 89.7 3.78 89.7 5.54 96.83 7.56 89.72 10.16 89.72 12.34 96.78 13.86 89.7 16.61 89.7 13.64 99.89 11.09 99.89 8.82 92.76 6.62 99.89zM20.8 99.84h-2.6V89.76l2.6-.37v1.65c.64-1.08 1.45-1.67 2.64-1.67.62 0 1.25.13 1.8.46l-.57 2.33c-.48-.26-.97-.4-1.45-.4-.9 0-1.74.57-2.42 1.8v6.28zM28.1 87.85c-1.01 0-1.58-.62-1.58-1.56 0-.92.57-1.56 1.58-1.56 1.03 0 1.61.64 1.61 1.56 0 .95-.57 1.56-1.61 1.56zm-1.3 11.99V89.76l2.6-.37v10.45h-2.6zM35.76 100.17c-2.27 0-3.45-.99-3.37-3.43l.15-4.77-1.58-.18.07-1.65 1.58-.51.04-2.24h2.51l-.04 2.38h2.86l-.07 2.13h-2.95l-.13 4.69c-.02.95.46 1.39 1.34 1.39.53 0 1.06-.13 1.58-.31l.35 2.11c-.76.26-1.46.39-2.34.39zM43.63 100.17c-2.27 0-3.45-.99-3.37-3.43l.15-4.77-1.58-.18.07-1.65 1.58-.51.04-2.24h2.51l-.04 2.38h2.86l-.07 2.13h-2.95l-.13 4.69c-.02.95.46 1.39 1.34 1.39.53 0 1.06-.13 1.58-.31l.35 2.11c-.75.26-1.46.39-2.34.39zM49.77 95.33c.11 1.65 1.23 2.77 3.04 2.77 1.08 0 2.24-.35 3.17-.92l.33 2.16c-.97.53-2.31.84-3.67.84-3.26 0-5.41-2.07-5.41-5.3 0-3.3 2.2-5.5 5.24-5.5 2.68 0 4.18 1.63 4.18 4.11 0 .55-.09 1.25-.22 1.69l-6.64.09v.06h-.02zm4.43-1.6v-.18c0-1.36-.59-2.22-1.94-2.22-1.43 0-2.29 1.17-2.42 2.42l4.36-.02zM65.39 99.84v-6.18c0-1.5-.59-2-1.76-2-.9 0-1.74.46-2.24.95v7.24h-2.6v-10.1l2.6-.35v1.61c.9-.99 2.11-1.63 3.34-1.63 2.05 0 3.26 1.32 3.26 3.5v6.98h-2.6v-.02zM88.45 99.84v-6.16c0-1.5-.59-2.02-1.67-2.02-.9 0-1.61.46-2.11.9v7.29h-2.6v-6.16c0-1.5-.57-2.02-1.65-2.02-.92 0-1.63.37-2.11.84v7.35h-2.6v-10.1l2.6-.35v1.43c.95-.95 1.98-1.45 3.23-1.45 1.23 0 2.27.59 2.77 1.74 1.01-1.1 2.22-1.74 3.61-1.74 1.92 0 3.12 1.32 3.12 3.52v6.95h-2.59v-.02zM99.05 98.68c-.73.88-1.61 1.5-2.86 1.5-1.83 0-3.15-1.25-3.15-2.86 0-1.87 1.36-3.45 6.01-3.61v-.24c0-1.36-.57-1.94-2.02-1.94-1.03 0-2.29.46-3.37 1.08l-.53-2.05c.99-.62 2.57-1.19 4.25-1.19 3.12 0 4.33 1.39 4.27 4.18v3.63c0 .77.13.88.9.92l-.2 1.96c-1.94.22-2.84-.37-3.21-1.39h-.09v.01zm0-3.61c-2.53.31-3.45.81-3.45 1.89 0 .77.59 1.32 1.52 1.32.81 0 1.47-.37 1.94-.88v-2.33h-.01zM107.89 100.17c-2.27 0-3.45-.99-3.37-3.43l.15-4.77-1.58-.18.07-1.65 1.58-.51.04-2.24h2.51l-.04 2.38h2.86l-.07 2.13h-2.95l-.13 4.69c-.02.95.46 1.39 1.34 1.39.53 0 1.06-.13 1.58-.31l.35 2.11c-.75.26-1.46.39-2.34.39zM114.03 95.33c.11 1.65 1.23 2.77 3.04 2.77 1.08 0 2.24-.35 3.17-.92l.33 2.16c-.97.53-2.31.84-3.67.84-3.26 0-5.41-2.07-5.41-5.3 0-3.3 2.2-5.5 5.24-5.5 2.68 0 4.18 1.63 4.18 4.11 0 .55-.09 1.25-.22 1.69l-6.64.09v.06h-.02zm4.43-1.6v-.18c0-1.36-.59-2.22-1.94-2.22-1.43 0-2.29 1.17-2.42 2.42l4.36-.02zM125.65 99.84h-2.6V89.76l2.6-.37v1.65c.64-1.08 1.45-1.67 2.64-1.67.62 0 1.25.13 1.8.46l-.57 2.33c-.48-.26-.97-.4-1.45-.4-.9 0-1.74.57-2.42 1.8v6.28zM132.95 87.85c-1.01 0-1.58-.62-1.58-1.56 0-.92.57-1.56 1.58-1.56 1.03 0 1.61.64 1.61 1.56 0 .95-.57 1.56-1.61 1.56zm-1.3 11.99V89.76l2.6-.37v10.45h-2.6zM142.35 98.68c-.73.88-1.61 1.5-2.86 1.5-1.83 0-3.15-1.25-3.15-2.86 0-1.87 1.36-3.45 6.01-3.61v-.24c0-1.36-.57-1.94-2.02-1.94-1.03 0-2.29.46-3.37 1.08l-.53-2.05c.99-.62 2.57-1.19 4.25-1.19 3.12 0 4.33 1.39 4.27 4.18v3.63c0 .77.13.88.9.92l-.2 1.96c-1.94.22-2.84-.37-3.21-1.39h-.09v.01zm0-3.61c-2.53.31-3.45.81-3.45 1.89 0 .77.59 1.32 1.52 1.32.81 0 1.47-.37 1.94-.88v-2.33h-.01zM147.6 99.84L147.6 85.14 150.2 84.79 150.2 99.84zM156.12 100.2c-1.32 0-2.93-.37-3.94-.95l.57-2.02c1.01.57 2.31.95 3.43.95 1.01 0 1.67-.42 1.67-1.12 0-.79-.86-1.08-2.05-1.36-1.91-.44-3.43-1.23-3.43-3.15 0-1.91 1.61-3.17 4.05-3.17 1.25 0 2.75.33 3.7.81l-.57 2.02c-.99-.51-2.29-.84-3.19-.84-.95 0-1.52.35-1.52 1.01 0 .77.86 1.03 2.05 1.32 1.94.46 3.45 1.21 3.45 3.19 0 1.9-1.63 3.31-4.22 3.31zM172.79 98.68c-.73.88-1.61 1.5-2.86 1.5-1.83 0-3.15-1.25-3.15-2.86 0-1.87 1.36-3.45 6.01-3.61v-.24c0-1.36-.57-1.94-2.02-1.94-1.03 0-2.29.46-3.37 1.08l-.53-2.05c.99-.62 2.57-1.19 4.25-1.19 3.12 0 4.33 1.39 4.27 4.18v3.63c0 .77.13.88.9.92l-.2 1.96c-1.94.22-2.84-.37-3.21-1.39h-.09v.01zm0-3.61c-2.53.31-3.45.81-3.45 1.89 0 .77.59 1.32 1.52 1.32.81 0 1.47-.37 1.94-.88v-2.33h-.01zM188.5 89.37c2.68 0 4.44 2.18 4.44 5.3 0 3.23-2.24 5.48-5.13 5.48-.66 0-1.52-.09-2.16-.29v4.82h-2.6V89.74l2.6-.35v1.28c.7-.66 1.62-1.3 2.85-1.3zm-2.84 8.14c.48.37 1.14.57 1.91.57 1.74 0 2.73-1.41 2.73-3.3 0-1.98-.95-3.23-2.55-3.23-.86 0-1.52.33-2.09.84v5.12zM197.72 99.84h-2.6V89.76l2.6-.37v1.65c.64-1.08 1.45-1.67 2.64-1.67.62 0 1.25.13 1.8.46l-.57 2.33c-.48-.26-.97-.4-1.45-.4-.9 0-1.74.57-2.42 1.8v6.28zM208.15 100.17c-2.97 0-5.13-2.02-5.13-5.39 0-3.34 2.27-5.44 5.26-5.44 2.99 0 5.13 2.07 5.13 5.41 0 3.33-2.29 5.42-5.26 5.42zm.04-8.73c-1.69 0-2.62 1.36-2.62 3.32 0 1.94.97 3.3 2.66 3.3 1.67 0 2.6-1.32 2.6-3.28 0-1.95-.97-3.34-2.64-3.34zM221.57 87.26c-.48-.22-1.06-.42-1.65-.42-.95 0-1.34.55-1.34 1.8v1.12h3.01l-.07 2.13h-2.88v7.94h-2.6v-7.92l-1.76-.13.09-1.65 1.65-.48.02-1.08c.07-2.9 1.41-4.05 3.67-4.05.99 0 1.89.29 2.4.51.01.03-.54 2.25-.54 2.23zM225.15 95.33c.11 1.65 1.23 2.77 3.04 2.77 1.08 0 2.24-.35 3.17-.92l.33 2.16c-.97.53-2.31.84-3.67.84-3.26 0-5.41-2.07-5.41-5.3 0-3.3 2.2-5.5 5.24-5.5 2.68 0 4.18 1.63 4.18 4.11 0 .55-.09 1.25-.22 1.69l-6.64.09v.06h-.02zm4.43-1.6v-.18c0-1.36-.59-2.22-1.94-2.22-1.43 0-2.29 1.17-2.42 2.42l4.36-.02zM237.32 100.2c-1.32 0-2.93-.37-3.94-.95l.57-2.02c1.01.57 2.31.95 3.43.95 1.01 0 1.67-.42 1.67-1.12 0-.79-.86-1.08-2.05-1.36-1.91-.44-3.43-1.23-3.43-3.15 0-1.91 1.61-3.17 4.05-3.17 1.25 0 2.75.33 3.7.81l-.57 2.02c-.99-.51-2.29-.84-3.19-.84-.95 0-1.52.35-1.52 1.01 0 .77.86 1.03 2.05 1.32 1.94.46 3.45 1.21 3.45 3.19 0 1.9-1.63 3.31-4.22 3.31zM246.8 100.2c-1.32 0-2.93-.37-3.94-.95l.57-2.02c1.01.57 2.31.95 3.43.95 1.01 0 1.67-.42 1.67-1.12 0-.79-.86-1.08-2.05-1.36-1.91-.44-3.43-1.23-3.43-3.15 0-1.91 1.61-3.17 4.05-3.17 1.25 0 2.75.33 3.7.81l-.57 2.02c-.99-.51-2.29-.84-3.19-.84-.95 0-1.52.35-1.52 1.01 0 .77.86 1.03 2.05 1.32 1.94.46 3.45 1.21 3.45 3.19 0 1.9-1.62 3.31-4.22 3.31zM254.43 87.85c-1.01 0-1.58-.62-1.58-1.56 0-.92.57-1.56 1.58-1.56 1.03 0 1.61.64 1.61 1.56 0 .95-.57 1.56-1.61 1.56zm-1.29 11.99V89.76l2.6-.37v10.45h-2.6zM263.04 100.17c-2.97 0-5.13-2.02-5.13-5.39 0-3.34 2.27-5.44 5.26-5.44 2.99 0 5.13 2.07 5.13 5.41 0 3.33-2.29 5.42-5.26 5.42zm.04-8.73c-1.69 0-2.62 1.36-2.62 3.32 0 1.94.97 3.3 2.66 3.3 1.67 0 2.6-1.32 2.6-3.28 0-1.95-.97-3.34-2.64-3.34zM277.07 99.84v-6.18c0-1.5-.59-2-1.76-2-.9 0-1.74.46-2.24.95v7.24h-2.6v-10.1l2.6-.35v1.61c.9-.99 2.11-1.63 3.34-1.63 2.05 0 3.26 1.32 3.26 3.5v6.98h-2.6v-.02zM287.7 98.68c-.73.88-1.61 1.5-2.86 1.5-1.83 0-3.15-1.25-3.15-2.86 0-1.87 1.36-3.45 6.01-3.61v-.24c0-1.36-.57-1.94-2.02-1.94-1.03 0-2.29.46-3.37 1.08l-.53-2.05c.99-.62 2.57-1.19 4.25-1.19 3.12 0 4.33 1.39 4.27 4.18v3.63c0 .77.13.88.9.92l-.2 1.96c-1.94.22-2.84-.37-3.21-1.39h-.09v.01zm0-3.61c-2.53.31-3.45.81-3.45 1.89 0 .77.59 1.32 1.52 1.32.81 0 1.47-.37 1.94-.88v-2.33h-.01zM292.96 99.84L292.96 85.14 295.56 84.79 295.56 99.84zM303.34 99.84L303.34 85.14 305.94 84.79 305.94 99.84zM313.24 100.17c-2.97 0-5.13-2.02-5.13-5.39 0-3.34 2.27-5.44 5.26-5.44 2.99 0 5.13 2.07 5.13 5.41 0 3.33-2.29 5.42-5.26 5.42zm.04-8.73c-1.69 0-2.62 1.36-2.62 3.32 0 1.94.97 3.3 2.66 3.3 1.67 0 2.6-1.32 2.6-3.28 0-1.95-.96-3.34-2.64-3.34zM325.21 100.17c-2.97 0-5.13-2.02-5.13-5.39 0-3.34 2.27-5.44 5.26-5.44 2.99 0 5.13 2.07 5.13 5.41 0 3.33-2.29 5.42-5.26 5.42zm.04-8.73c-1.69 0-2.62 1.36-2.62 3.32 0 1.94.97 3.3 2.66 3.3 1.67 0 2.6-1.32 2.6-3.28 0-1.95-.97-3.34-2.64-3.34zM335.24 94.96L335.24 99.84 332.64 99.84 332.64 85.14 335.24 84.79 335.24 94.21 335.28 94.21 338.91 89.7 342.01 89.7 337.81 94.52 342.03 99.84 338.93 99.84 335.28 94.96zM352.11 100.17c-2.27 0-3.45-.99-3.37-3.43l.15-4.77-1.58-.18.07-1.65 1.58-.51.04-2.24h2.51l-.04 2.38h2.86l-.07 2.13h-2.95l-.13 4.69c-.02.95.46 1.39 1.34 1.39.53 0 1.06-.13 1.58-.31l.35 2.11c-.75.26-1.46.39-2.34.39zM363 99.84v-6.18c0-1.5-.59-2-1.69-2-.97 0-1.8.46-2.31.95v7.24h-2.6v-14.7l2.6-.35v6.18c.9-.99 2.11-1.61 3.43-1.61 1.96 0 3.17 1.32 3.17 3.5v6.98H363v-.01zM373.63 98.68c-.73.88-1.61 1.5-2.86 1.5-1.83 0-3.15-1.25-3.15-2.86 0-1.87 1.36-3.45 6.01-3.61v-.24c0-1.36-.57-1.94-2.02-1.94-1.03 0-2.29.46-3.37 1.08l-.53-2.05c.99-.62 2.57-1.19 4.25-1.19 3.12 0 4.33 1.39 4.27 4.18v3.63c0 .77.13.88.9.92l-.2 1.96c-1.94.22-2.84-.37-3.21-1.39h-.09v.01zm0-3.61c-2.53.31-3.45.81-3.45 1.89 0 .77.59 1.32 1.52 1.32.81 0 1.47-.37 1.94-.88v-2.33h-.01zM382.47 100.17c-2.27 0-3.45-.99-3.37-3.43l.15-4.77-1.58-.18.07-1.65 1.58-.51.04-2.24h2.51l-.04 2.38h2.86l-.07 2.13h-2.95l-.13 4.69c-.02.95.46 1.39 1.34 1.39.53 0 1.06-.13 1.58-.31l.35 2.11c-.75.26-1.46.39-2.34.39zM393.08 87.85c-1.01 0-1.58-.62-1.58-1.56 0-.92.57-1.56 1.58-1.56 1.03 0 1.61.64 1.61 1.56-.01.95-.58 1.56-1.61 1.56zm-1.3 11.99V89.76l2.6-.37v10.45h-2.6zM400.29 100.2c-1.32 0-2.93-.37-3.94-.95l.57-2.02c1.01.57 2.31.95 3.43.95 1.01 0 1.67-.42 1.67-1.12 0-.79-.86-1.08-2.05-1.36-1.91-.44-3.43-1.23-3.43-3.15 0-1.91 1.61-3.17 4.05-3.17 1.25 0 2.75.33 3.7.81l-.57 2.02c-.99-.51-2.29-.84-3.19-.84-.95 0-1.52.35-1.52 1.01 0 .77.86 1.03 2.05 1.32 1.94.46 3.45 1.21 3.45 3.19.01 1.9-1.62 3.31-4.22 3.31zM414.15 89.7v6.18c0 1.5.62 1.98 1.72 1.98.92 0 1.74-.42 2.22-.88V89.7h2.6v10.08l-2.6.35v-1.5c-.84.9-2.05 1.54-3.34 1.54-1.98 0-3.19-1.32-3.19-3.5v-6.98h2.59v.01zM430.06 99.84v-6.18c0-1.5-.59-2-1.76-2-.9 0-1.74.46-2.24.95v7.24h-2.6v-10.1l2.6-.35v1.61c.9-.99 2.11-1.63 3.34-1.63 2.05 0 3.26 1.32 3.26 3.5v6.98h-2.6v-.02zM436.66 87.85c-1.01 0-1.58-.62-1.58-1.56 0-.92.57-1.56 1.58-1.56 1.03 0 1.61.64 1.61 1.56-.01.95-.58 1.56-1.61 1.56zm-1.3 11.99V89.76l2.6-.37v10.45h-2.6zM447.42 104.69v-5.83c-.68.66-1.61 1.32-2.86 1.32-2.68 0-4.42-2.18-4.42-5.32 0-3.23 2.24-5.48 5.13-5.48.88 0 1.91.22 2.51.44l2.25-.42v15.29h-2.61zm-1.92-13.27c-1.74 0-2.73 1.45-2.73 3.32 0 1.98.99 3.28 2.55 3.28.86 0 1.52-.35 2.09-.88v-5.1c-.5-.38-1.14-.62-1.91-.62zM455.29 89.7v6.18c0 1.5.62 1.98 1.72 1.98.92 0 1.74-.42 2.22-.88V89.7h2.6v10.08l-2.6.35v-1.5c-.84.9-2.05 1.54-3.34 1.54-1.98 0-3.19-1.32-3.19-3.5v-6.98h2.59v.01zM466.55 95.33c.11 1.65 1.23 2.77 3.04 2.77 1.08 0 2.24-.35 3.17-.92l.33 2.16c-.97.53-2.31.84-3.67.84-3.26 0-5.41-2.07-5.41-5.3 0-3.3 2.2-5.5 5.24-5.5 2.68 0 4.18 1.63 4.18 4.11 0 .55-.09 1.25-.22 1.69l-6.64.09v.06h-.02zm4.43-1.6v-.18c0-1.36-.59-2.22-1.94-2.22-1.43 0-2.29 1.17-2.42 2.42l4.36-.02zM484.18 100.17c-2.27 0-3.45-.99-3.37-3.43l.15-4.77-1.58-.18.07-1.65 1.58-.51.04-2.24h2.51l-.04 2.38h2.86l-.07 2.13h-2.95l-.13 4.69c-.02.95.46 1.39 1.34 1.39.53 0 1.06-.13 1.58-.31l.35 2.11c-.76.26-1.46.39-2.34.39zM492.89 100.17c-2.97 0-5.13-2.02-5.13-5.39 0-3.34 2.27-5.44 5.26-5.44 2.99 0 5.13 2.07 5.13 5.41 0 3.33-2.29 5.42-5.26 5.42zm.04-8.73c-1.69 0-2.62 1.36-2.62 3.32 0 1.94.97 3.3 2.66 3.3 1.67 0 2.6-1.32 2.6-3.28 0-1.95-.97-3.34-2.64-3.34zM6.72 128.17c-2.97 0-5.13-2.02-5.13-5.39 0-3.34 2.27-5.44 5.26-5.44 2.99 0 5.13 2.07 5.13 5.41 0 3.33-2.29 5.42-5.26 5.42zm.04-8.73c-1.69 0-2.62 1.36-2.62 3.32 0 1.94.97 3.3 2.66 3.3 1.67 0 2.6-1.32 2.6-3.28 0-1.95-.97-3.34-2.64-3.34zM16.66 117.7v6.18c0 1.5.62 1.98 1.72 1.98.92 0 1.74-.42 2.22-.88v-7.28h2.6v10.08l-2.6.35v-1.5c-.84.9-2.05 1.54-3.34 1.54-1.98 0-3.19-1.32-3.19-3.5v-6.98h2.59v.01zM28.56 127.84h-2.6v-10.08l2.6-.37v1.65c.64-1.08 1.45-1.67 2.64-1.67.62 0 1.25.13 1.8.46l-.57 2.33c-.48-.26-.97-.4-1.45-.4-.9 0-1.74.57-2.42 1.8v6.28zM44.12 128.17c-2.97 0-5.13-2.02-5.13-5.39 0-3.34 2.27-5.44 5.26-5.44 2.99 0 5.13 2.07 5.13 5.41 0 3.33-2.29 5.42-5.26 5.42zm.04-8.73c-1.69 0-2.62 1.36-2.62 3.32 0 1.94.97 3.3 2.66 3.3 1.67 0 2.6-1.32 2.6-3.28 0-1.95-.97-3.34-2.64-3.34zM54.15 127.84h-2.6v-10.08l2.6-.37v1.65c.64-1.08 1.45-1.67 2.64-1.67.62 0 1.25.13 1.8.46l-.57 2.33c-.48-.26-.97-.4-1.45-.4-.9 0-1.74.57-2.42 1.8v6.28zM59.36 126.5c0-.92.75-1.76 1.87-2.13-1.12-.57-1.85-1.72-1.85-3.12 0-2.09 1.65-3.87 4.47-3.87 1.14 0 2.16.33 2.86.64l2.73-.24.11 2.27-1.94-.33c.26.29.46 1.06.46 1.58 0 2.07-1.74 3.7-4.25 3.7-.48 0-.84-.04-1.39-.18-.35.13-.79.46-.79.88 0 .55.46.79 2.09.79h1.06c2.9 0 4.55.81 4.55 2.79 0 2.4-2.71 4.05-5.92 4.05-2.68 0-4.82-.99-4.82-2.82 0-1.06.77-2 2.29-2.24-.87-.32-1.53-.95-1.53-1.77zm1.61 3.48c0 .95 1.17 1.61 2.88 1.61 1.78 0 3.15-.66 3.15-1.72 0-.95-.92-1.17-2.82-1.17-.64 0-1.52-.04-1.94-.09-.72.27-1.27.75-1.27 1.37zm2.9-6.69c1.17 0 1.83-.84 1.83-2.11 0-1.21-.64-2.05-1.94-2.05-1.14 0-1.87.86-1.87 2.13 0 1.22.73 2.03 1.98 2.03zM76.3 126.68c-.73.88-1.61 1.5-2.86 1.5-1.83 0-3.15-1.25-3.15-2.86 0-1.87 1.36-3.45 6.01-3.61v-.24c0-1.36-.57-1.94-2.02-1.94-1.03 0-2.29.46-3.37 1.08l-.53-2.05c.99-.62 2.57-1.19 4.25-1.19 3.12 0 4.33 1.39 4.27 4.18v3.63c0 .77.13.88.9.92l-.2 1.96c-1.94.22-2.84-.37-3.21-1.39h-.09v.01zm0-3.61c-2.53.31-3.45.81-3.45 1.89 0 .77.59 1.32 1.52 1.32.81 0 1.47-.37 1.94-.88v-2.33h-.01zM88.16 127.84v-6.18c0-1.5-.59-2-1.76-2-.9 0-1.74.46-2.24.95v7.24h-2.6v-10.1l2.6-.35v1.61c.9-.99 2.11-1.63 3.34-1.63 2.05 0 3.26 1.32 3.26 3.5v6.98h-2.6v-.02zM94.76 115.85c-1.01 0-1.58-.62-1.58-1.56 0-.92.57-1.56 1.58-1.56 1.03 0 1.61.64 1.61 1.56 0 .95-.58 1.56-1.61 1.56zm-1.3 11.99v-10.08l2.6-.37v10.45h-2.6zM97.88 127.84L97.88 126.06 103.18 119.9 98.07 119.9 98.07 117.7 106.5 117.7 106.5 119.44 101.17 125.62 106.5 125.62 106.5 127.84 97.88 127.84zM113.7 126.68c-.73.88-1.61 1.5-2.86 1.5-1.83 0-3.15-1.25-3.15-2.86 0-1.87 1.36-3.45 6.01-3.61v-.24c0-1.36-.57-1.94-2.02-1.94-1.03 0-2.29.46-3.37 1.08l-.53-2.05c.99-.62 2.57-1.19 4.25-1.19 3.12 0 4.33 1.39 4.27 4.18v3.63c0 .77.13.88.9.92l-.2 1.96c-1.94.22-2.84-.37-3.21-1.39h-.09v.01zm0-3.61c-2.53.31-3.45.81-3.45 1.89 0 .77.59 1.32 1.52 1.32.81 0 1.47-.37 1.94-.88v-2.33h-.01zM122.55 128.17c-2.27 0-3.45-.99-3.37-3.43l.15-4.77-1.58-.18.07-1.65 1.58-.51.04-2.24h2.51l-.04 2.38h2.86l-.07 2.13h-2.95l-.13 4.69c-.02.95.46 1.39 1.34 1.39.53 0 1.06-.13 1.58-.31l.35 2.11c-.76.26-1.46.39-2.34.39zM128.13 115.85c-1.01 0-1.58-.62-1.58-1.56 0-.92.57-1.56 1.58-1.56 1.03 0 1.61.64 1.61 1.56 0 .95-.57 1.56-1.61 1.56zm-1.3 11.99v-10.08l2.6-.37v10.45h-2.6zM136.74 128.17c-2.97 0-5.13-2.02-5.13-5.39 0-3.34 2.27-5.44 5.26-5.44 2.99 0 5.13 2.07 5.13 5.41 0 3.33-2.29 5.42-5.26 5.42zm.04-8.73c-1.69 0-2.62 1.36-2.62 3.32 0 1.94.97 3.3 2.66 3.3 1.67 0 2.6-1.32 2.6-3.28 0-1.95-.97-3.34-2.64-3.34zM150.77 127.84v-6.18c0-1.5-.59-2-1.76-2-.9 0-1.74.46-2.24.95v7.24h-2.6v-10.1l2.6-.35v1.61c.9-.99 2.11-1.63 3.34-1.63 2.05 0 3.26 1.32 3.26 3.5v6.98h-2.6v-.02zM157.33 124.63c1.23 0 2.24 1.08 2.24 2.42 0 1.91-1.72 3.32-3.48 4.38l-1.14-1.03c1.39-.97 2.22-1.8 2.22-2.55 0-.57-.42-.97-1.78-1.56.11-.95.86-1.66 1.94-1.66zM173.17 127.84v-6.18c0-1.5-.59-2-1.69-2-.97 0-1.8.46-2.31.95v7.24h-2.6v-14.7l2.6-.35v6.18c.9-.99 2.11-1.61 3.43-1.61 1.96 0 3.17 1.32 3.17 3.5v6.98h-2.6v-.01zM180.43 123.33c.11 1.65 1.23 2.77 3.04 2.77 1.08 0 2.24-.35 3.17-.92l.33 2.16c-.97.53-2.31.84-3.67.84-3.26 0-5.41-2.07-5.41-5.3 0-3.3 2.2-5.5 5.24-5.5 2.68 0 4.18 1.63 4.18 4.11 0 .55-.09 1.25-.22 1.69l-6.64.09v.06h-.02zm4.42-1.6v-.18c0-1.36-.59-2.22-1.94-2.22-1.43 0-2.29 1.17-2.42 2.42l4.36-.02zM189.44 127.84L189.44 113.14 192.04 112.79 192.04 127.84zM200.25 117.37c2.68 0 4.44 2.18 4.44 5.3 0 3.23-2.24 5.48-5.13 5.48-.66 0-1.52-.09-2.16-.29v4.82h-2.6v-14.94l2.6-.35v1.28c.69-.66 1.62-1.3 2.85-1.3zm-2.84 8.14c.48.37 1.14.57 1.91.57 1.74 0 2.73-1.41 2.73-3.3 0-1.98-.95-3.23-2.55-3.23-.86 0-1.52.33-2.09.84v5.12zM208.17 115.85c-1.01 0-1.58-.62-1.58-1.56 0-.92.57-1.56 1.58-1.56 1.03 0 1.61.64 1.61 1.56-.01.95-.58 1.56-1.61 1.56zm-1.3 11.99v-10.08l2.6-.37v10.45h-2.6zM218.84 127.84v-6.18c0-1.5-.59-2-1.76-2-.9 0-1.74.46-2.24.95v7.24h-2.6v-10.1l2.6-.35v1.61c.9-.99 2.11-1.63 3.34-1.63 2.05 0 3.26 1.32 3.26 3.5v6.98h-2.6v-.02zM223.57 126.5c0-.92.75-1.76 1.87-2.13-1.12-.57-1.85-1.72-1.85-3.12 0-2.09 1.65-3.87 4.47-3.87 1.14 0 2.16.33 2.86.64l2.73-.24.11 2.27-1.94-.33c.26.29.46 1.06.46 1.58 0 2.07-1.74 3.7-4.25 3.7-.48 0-.84-.04-1.39-.18-.35.13-.79.46-.79.88 0 .55.46.79 2.09.79H229c2.9 0 4.55.81 4.55 2.79 0 2.4-2.71 4.05-5.92 4.05-2.68 0-4.82-.99-4.82-2.82 0-1.06.77-2 2.29-2.24-.87-.32-1.53-.95-1.53-1.77zm1.6 3.48c0 .95 1.17 1.61 2.88 1.61 1.78 0 3.15-.66 3.15-1.72 0-.95-.92-1.17-2.82-1.17-.64 0-1.52-.04-1.94-.09-.72.27-1.27.75-1.27 1.37zm2.91-6.69c1.17 0 1.83-.84 1.83-2.11 0-1.21-.64-2.05-1.94-2.05-1.14 0-1.87.86-1.87 2.13 0 1.22.72 2.03 1.98 2.03zM242.71 117.7v6.18c0 1.5.62 1.98 1.72 1.98.92 0 1.74-.42 2.22-.88v-7.28h2.6v10.08l-2.6.35v-1.5c-.84.9-2.05 1.54-3.34 1.54-1.98 0-3.19-1.32-3.19-3.5v-6.98h2.59v.01zM255.16 128.2c-1.32 0-2.93-.37-3.94-.95l.57-2.02c1.01.57 2.31.95 3.43.95 1.01 0 1.67-.42 1.67-1.12 0-.79-.86-1.08-2.05-1.36-1.91-.44-3.43-1.23-3.43-3.15 0-1.91 1.61-3.17 4.05-3.17 1.25 0 2.75.33 3.7.81l-.57 2.02c-.99-.51-2.29-.84-3.19-.84-.95 0-1.52.35-1.52 1.01 0 .77.86 1.03 2.05 1.32 1.94.46 3.45 1.21 3.45 3.19 0 1.9-1.63 3.31-4.22 3.31zM270.1 128.17c-2.27 0-3.45-.99-3.37-3.43l.15-4.77-1.58-.18.07-1.65 1.58-.51.04-2.24h2.51l-.04 2.38h2.86l-.07 2.13h-2.95l-.13 4.69c-.02.95.46 1.39 1.34 1.39.53 0 1.06-.13 1.58-.31l.35 2.11c-.76.26-1.46.39-2.34.39zM278.81 128.17c-2.97 0-5.13-2.02-5.13-5.39 0-3.34 2.27-5.44 5.26-5.44 2.99 0 5.13 2.07 5.13 5.41 0 3.33-2.29 5.42-5.26 5.42zm.04-8.73c-1.69 0-2.62 1.36-2.62 3.32 0 1.94.97 3.3 2.66 3.3 1.67 0 2.6-1.32 2.6-3.28 0-1.95-.97-3.34-2.64-3.34zM296.69 117.37c2.68 0 4.44 2.18 4.44 5.3 0 3.23-2.24 5.48-5.13 5.48-.66 0-1.52-.09-2.16-.29v4.82h-2.6v-14.94l2.6-.35v1.28c.7-.66 1.62-1.3 2.85-1.3zm-2.84 8.14c.48.37 1.14.57 1.91.57 1.74 0 2.73-1.41 2.73-3.3 0-1.98-.95-3.23-2.55-3.23-.86 0-1.52.33-2.09.84v5.12zM305.91 127.84h-2.6v-10.08l2.6-.37v1.65c.64-1.08 1.45-1.67 2.64-1.67.62 0 1.25.13 1.8.46l-.57 2.33c-.48-.26-.97-.4-1.45-.4-.9 0-1.74.57-2.42 1.8v6.28zM316.34 128.17c-2.97 0-5.13-2.02-5.13-5.39 0-3.34 2.27-5.44 5.26-5.44 2.99 0 5.13 2.07 5.13 5.41 0 3.33-2.29 5.42-5.26 5.42zm.04-8.73c-1.69 0-2.62 1.36-2.62 3.32 0 1.94.97 3.3 2.66 3.3 1.67 0 2.6-1.32 2.6-3.28 0-1.95-.97-3.34-2.64-3.34zM336.51 127.84v-6.16c0-1.5-.59-2.02-1.67-2.02-.9 0-1.61.46-2.11.9v7.29h-2.6v-6.16c0-1.5-.57-2.02-1.65-2.02-.92 0-1.63.37-2.11.84v7.35h-2.6v-10.1l2.6-.35v1.43c.95-.95 1.98-1.45 3.23-1.45 1.23 0 2.27.59 2.77 1.74 1.01-1.1 2.22-1.74 3.61-1.74 1.92 0 3.12 1.32 3.12 3.52v6.95h-2.59v-.02zM346.32 128.17c-2.97 0-5.13-2.02-5.13-5.39 0-3.34 2.27-5.44 5.26-5.44 2.99 0 5.13 2.07 5.13 5.41 0 3.33-2.29 5.42-5.26 5.42zm.05-8.73c-1.69 0-2.62 1.36-2.62 3.32 0 1.94.97 3.3 2.66 3.3 1.67 0 2.6-1.32 2.6-3.28 0-1.95-.97-3.34-2.64-3.34zM357.35 128.17c-2.27 0-3.45-.99-3.37-3.43l.15-4.77-1.58-.18.07-1.65 1.58-.51.04-2.24h2.51l-.04 2.38h2.86l-.07 2.13h-2.95l-.13 4.69c-.02.95.46 1.39 1.34 1.39.53 0 1.06-.13 1.58-.31l.35 2.11c-.76.26-1.46.39-2.34.39zM363.48 123.33c.11 1.65 1.23 2.77 3.04 2.77 1.08 0 2.24-.35 3.17-.92l.33 2.16c-.97.53-2.31.84-3.67.84-3.26 0-5.41-2.07-5.41-5.3 0-3.3 2.2-5.5 5.24-5.5 2.68 0 4.18 1.63 4.18 4.11 0 .55-.09 1.25-.22 1.69l-6.64.09v.06h-.02zm4.43-1.6v-.18c0-1.36-.59-2.22-1.94-2.22-1.43 0-2.29 1.17-2.42 2.42l4.36-.02zM381.11 128.17c-2.27 0-3.45-.99-3.37-3.43l.15-4.77-1.58-.18.07-1.65 1.58-.51.04-2.24h2.51l-.04 2.38h2.86l-.07 2.13h-2.95l-.13 4.69c-.02.95.46 1.39 1.34 1.39.53 0 1.06-.13 1.58-.31l.35 2.11c-.76.26-1.46.39-2.34.39zM392 127.84v-6.18c0-1.5-.59-2-1.69-2-.97 0-1.8.46-2.31.95v7.24h-2.6v-14.7l2.6-.35v6.18c.9-.99 2.11-1.61 3.43-1.61 1.96 0 3.17 1.32 3.17 3.5v6.98H392v-.01zM399.25 123.33c.11 1.65 1.23 2.77 3.04 2.77 1.08 0 2.24-.35 3.17-.92l.33 2.16c-.97.53-2.31.84-3.67.84-3.26 0-5.41-2.07-5.41-5.3 0-3.3 2.2-5.5 5.24-5.5 2.68 0 4.18 1.63 4.18 4.11 0 .55-.09 1.25-.22 1.69l-6.64.09v.06h-.02zm4.43-1.6v-.18c0-1.36-.59-2.22-1.94-2.22-1.43 0-2.29 1.17-2.42 2.42l4.36-.02zM414.59 115.85c-1.01 0-1.58-.62-1.58-1.56 0-.92.57-1.56 1.58-1.56 1.03 0 1.61.64 1.61 1.56-.01.95-.58 1.56-1.61 1.56zm-1.3 11.99v-10.08l2.6-.37v10.45h-2.6zM431.4 127.84v-6.16c0-1.5-.59-2.02-1.67-2.02-.9 0-1.61.46-2.11.9v7.29h-2.6v-6.16c0-1.5-.57-2.02-1.65-2.02-.92 0-1.63.37-2.11.84v7.35h-2.6v-10.1l2.6-.35v1.43c.95-.95 1.98-1.45 3.23-1.45 1.23 0 2.27.59 2.77 1.74 1.01-1.1 2.22-1.74 3.61-1.74 1.92 0 3.12 1.32 3.12 3.52v6.95h-2.59v-.02zM442.11 117.37c2.68 0 4.44 2.18 4.44 5.3 0 3.23-2.24 5.48-5.13 5.48-.66 0-1.52-.09-2.16-.29v4.82h-2.6v-14.94l2.6-.35v1.28c.69-.66 1.62-1.3 2.85-1.3zm-2.84 8.14c.48.37 1.14.57 1.91.57 1.74 0 2.73-1.41 2.73-3.3 0-1.98-.95-3.23-2.55-3.23-.86 0-1.52.33-2.09.84v5.12zM453.26 128.17c-2.97 0-5.13-2.02-5.13-5.39 0-3.34 2.27-5.44 5.26-5.44 2.99 0 5.13 2.07 5.13 5.41 0 3.33-2.29 5.42-5.26 5.42zm.05-8.73c-1.69 0-2.62 1.36-2.62 3.32 0 1.94.97 3.3 2.66 3.3 1.67 0 2.6-1.32 2.6-3.28 0-1.95-.97-3.34-2.64-3.34zM463.29 127.84h-2.6v-10.08l2.6-.37v1.65c.64-1.08 1.45-1.67 2.64-1.67.62 0 1.25.13 1.8.46l-.57 2.33c-.48-.26-.97-.4-1.45-.4-.9 0-1.74.57-2.42 1.8v6.28zM473.11 128.17c-2.27 0-3.45-.99-3.37-3.43l.15-4.77-1.58-.18.07-1.65 1.58-.51.04-2.24h2.51l-.04 2.38h2.86l-.07 2.13h-2.95l-.13 4.69c-.02.95.46 1.39 1.34 1.39.53 0 1.06-.13 1.58-.31l.35 2.11c-.76.26-1.46.39-2.34.39zM482.72 126.68c-.73.88-1.61 1.5-2.86 1.5-1.83 0-3.15-1.25-3.15-2.86 0-1.87 1.36-3.45 6.01-3.61v-.24c0-1.36-.57-1.94-2.02-1.94-1.03 0-2.29.46-3.37 1.08l-.53-2.05c.99-.62 2.57-1.19 4.25-1.19 3.12 0 4.33 1.39 4.27 4.18v3.63c0 .77.13.88.9.92l-.2 1.96c-1.94.22-2.84-.37-3.21-1.39h-.09v.01zm0-3.61c-2.53.31-3.45.81-3.45 1.89 0 .77.59 1.32 1.52 1.32.81 0 1.47-.37 1.94-.88v-2.33h-.01zM494.58 127.84v-6.18c0-1.5-.59-2-1.76-2-.9 0-1.74.46-2.24.95v7.24h-2.6v-10.1l2.6-.35v1.61c.9-.99 2.11-1.63 3.34-1.63 2.05 0 3.26 1.32 3.26 3.5v6.98h-2.6v-.02zM503.47 128.17c-2.27 0-3.45-.99-3.37-3.43l.15-4.77-1.58-.18.07-1.65 1.58-.51.04-2.24h2.51l-.04 2.38h2.86l-.07 2.13h-2.95l-.13 4.69c-.02.95.46 1.39 1.34 1.39.53 0 1.06-.13 1.58-.31l.35 2.11c-.76.26-1.46.39-2.34.39zM4.08 155.89L1.07 145.7 3.78 145.7 5.54 152.83 7.56 145.72 10.16 145.72 12.34 152.78 13.86 145.7 16.61 145.7 13.64 155.89 11.09 155.89 8.82 148.76 6.62 155.89zM22.8 156.17c-2.97 0-5.13-2.02-5.13-5.39 0-3.34 2.27-5.44 5.26-5.44 2.99 0 5.13 2.07 5.13 5.41 0 3.33-2.29 5.42-5.26 5.42zm.04-8.73c-1.69 0-2.62 1.36-2.62 3.32 0 1.94.97 3.3 2.66 3.3 1.67 0 2.6-1.32 2.6-3.28 0-1.95-.96-3.34-2.64-3.34zM32.83 155.84h-2.6v-10.08l2.6-.37v1.65c.64-1.08 1.45-1.67 2.64-1.67.62 0 1.25.13 1.8.46l-.57 2.33c-.48-.26-.97-.4-1.45-.4-.9 0-1.74.57-2.42 1.8v6.28zM41.43 150.96L41.43 155.84 38.83 155.84 38.83 141.14 41.43 140.79 41.43 150.21 41.47 150.21 45.1 145.7 48.2 145.7 44 150.52 48.22 155.84 45.12 155.84 41.47 150.96zM56.61 155.89L53.6 145.7 56.31 145.7 58.07 152.83 60.09 145.72 62.69 145.72 64.87 152.78 66.39 145.7 69.14 145.7 66.17 155.89 63.62 155.89 61.35 148.76 59.15 155.89zM72.72 151.33c.11 1.65 1.23 2.77 3.04 2.77 1.08 0 2.24-.35 3.17-.92l.33 2.16c-.97.53-2.31.84-3.67.84-3.26 0-5.41-2.07-5.41-5.3 0-3.3 2.2-5.5 5.24-5.5 2.68 0 4.18 1.63 4.18 4.11 0 .55-.09 1.25-.22 1.69l-6.64.09v.06h-.02zm4.42-1.6v-.18c0-1.36-.59-2.22-1.94-2.22-1.43 0-2.29 1.17-2.42 2.42l4.36-.02zM93.44 141.15l2.6-.35v15.05h-2.6v-.99c-.68.66-1.61 1.32-2.86 1.32-2.68 0-4.42-2.18-4.42-5.32 0-3.23 2.24-5.48 5.13-5.48.73 0 1.52.13 2.16.33v-4.56h-.01zm-1.91 6.29c-1.74 0-2.73 1.43-2.73 3.3 0 1.98.99 3.23 2.55 3.23.86 0 1.52-.31 2.09-.84v-5.1c-.51-.37-1.14-.59-1.91-.59zM103.34 156.17c-2.97 0-5.13-2.02-5.13-5.39 0-3.34 2.27-5.44 5.26-5.44 2.99 0 5.13 2.07 5.13 5.41 0 3.33-2.29 5.42-5.26 5.42zm.04-8.73c-1.69 0-2.62 1.36-2.62 3.32 0 1.94.97 3.3 2.66 3.3 1.67 0 2.6-1.32 2.6-3.28 0-1.95-.96-3.34-2.64-3.34zM111.72 156.17c-1.03 0-1.76-.75-1.76-1.72s.73-1.69 1.76-1.69c1.01 0 1.72.73 1.72 1.69s-.71 1.72-1.72 1.72zM7.57 200.77c0-.94-.85-1.28-2.5-1.73-1.62-.45-3.49-1.17-3.49-3.38 0-2 1.53-3.33 4.03-3.33 1.53 0 2.79.38 3.87.99l-.54 1.85c-.99-.59-2.25-.97-3.31-.97-1.31 0-1.89.56-1.89 1.33 0 .92 1.01 1.28 2.56 1.69 1.69.47 3.44 1.24 3.44 3.39 0 2.05-1.64 3.51-4.29 3.51-1.49 0-2.99-.4-4.05-1.04l.5-1.89c1.04.63 2.23 1.08 3.58 1.08 1.23-.01 2.09-.6 2.09-1.5zM20.49 200.62c0 1.85-1.12 3.22-4.38 3.22h-4.38v-11.25h4.3c3.04 0 4.09 1.26 4.09 2.97 0 1.21-.72 2.02-2.02 2.45 1.49.32 2.39 1.28 2.39 2.61zm-4.52-6.26H13.9v3.06h1.89c1.4 0 2.14-.59 2.14-1.57.01-.95-.68-1.49-1.96-1.49zm-.05 4.66H13.9v3.06h2.18c1.48 0 2.2-.52 2.2-1.55 0-1.11-.97-1.51-2.36-1.51zM23.1 201.22c1.01 0 1.84.88 1.84 1.98 0 1.57-1.4 2.72-2.84 3.58l-.94-.85c1.13-.79 1.82-1.48 1.82-2.09 0-.47-.34-.79-1.46-1.28.09-.77.7-1.34 1.58-1.34zM36.13 204.11c-3.46 0-5.85-2.21-5.85-5.87 0-3.64 2.38-5.92 5.87-5.92 1.37 0 2.97.36 3.98.97l-.7 1.91c-.99-.61-2.12-.99-3.24-.99-2.23 0-3.69 1.53-3.69 3.96 0 2.52 1.39 4.09 3.69 4.09.79 0 1.57-.2 2.12-.45v-2.16h-2.95v-1.85h4.99v5.26c-1.21.68-2.79 1.05-4.22 1.05zM44.61 203.84h-2.12v-8.25l2.12-.31v1.35c.52-.88 1.19-1.37 2.16-1.37.5 0 1.03.11 1.48.38l-.47 1.91c-.4-.22-.79-.32-1.19-.32-.74 0-1.42.47-1.98 1.48v5.13zM53.77 202.89c-.59.72-1.31 1.22-2.34 1.22-1.5 0-2.58-1.03-2.58-2.34 0-1.53 1.12-2.83 4.92-2.95v-.2c0-1.12-.47-1.58-1.66-1.58-.85 0-1.87.38-2.75.88l-.43-1.67c.81-.5 2.11-.97 3.47-.97 2.56 0 3.55 1.13 3.49 3.42v2.97c0 .63.11.72.74.76l-.16 1.6c-1.58.18-2.32-.31-2.63-1.13h-.07v-.01zm0-2.95c-2.07.25-2.83.67-2.83 1.55 0 .63.49 1.08 1.24 1.08.67 0 1.21-.31 1.58-.72v-1.91h.01zM63.48 203.84v-5.06c0-1.22-.49-1.64-1.44-1.64-.74 0-1.42.38-1.84.77v5.92h-2.12v-8.26l2.12-.29v1.31c.74-.81 1.73-1.33 2.74-1.33 1.67 0 2.66 1.08 2.66 2.86v5.71h-2.12v.01zM70.75 204.11c-1.85 0-2.83-.81-2.75-2.81l.13-3.91-1.3-.14.05-1.35 1.3-.41.04-1.84h2.05l-.04 1.94h2.34l-.05 1.75h-2.41l-.11 3.84c-.02.77.38 1.13 1.1 1.13.43 0 .86-.11 1.3-.25l.29 1.73c-.65.22-1.22.32-1.94.32zM76.83 204.13c-1.08 0-2.39-.31-3.22-.77l.47-1.66c.83.47 1.89.77 2.81.77.83 0 1.37-.34 1.37-.92 0-.65-.7-.88-1.67-1.12-1.57-.36-2.81-1.01-2.81-2.58s1.31-2.59 3.31-2.59c1.03 0 2.25.27 3.03.67l-.47 1.66c-.81-.41-1.87-.68-2.61-.68-.77 0-1.24.29-1.24.83 0 .63.7.85 1.67 1.08 1.58.38 2.83.99 2.83 2.61-.01 1.55-1.34 2.7-3.47 2.7zM90.47 202.89c-.59.72-1.31 1.22-2.34 1.22-1.5 0-2.58-1.03-2.58-2.34 0-1.53 1.12-2.83 4.92-2.95v-.2c0-1.12-.47-1.58-1.66-1.58-.85 0-1.87.38-2.75.88l-.43-1.67c.81-.5 2.11-.97 3.47-.97 2.56 0 3.55 1.13 3.49 3.42v2.97c0 .63.11.72.74.76l-.16 1.6c-1.58.18-2.32-.31-2.63-1.13h-.07v-.01zm0-2.95c-2.07.25-2.83.67-2.83 1.55 0 .63.49 1.08 1.24 1.08.67 0 1.21-.31 1.58-.72v-1.91h.01zM100.18 203.84v-5.06c0-1.22-.49-1.64-1.44-1.64-.74 0-1.42.38-1.84.77v5.92h-2.12v-8.26l2.12-.29v1.31c.74-.81 1.73-1.33 2.74-1.33 1.67 0 2.66 1.08 2.66 2.86v5.71h-2.12v.01zM109.99 191.82l2.12-.29v12.32h-2.12v-.81c-.56.54-1.31 1.08-2.34 1.08-2.2 0-3.62-1.78-3.62-4.36 0-2.65 1.84-4.48 4.2-4.48.59 0 1.24.11 1.76.27v-3.73zm-1.57 5.15c-1.42 0-2.23 1.17-2.23 2.7 0 1.62.81 2.65 2.09 2.65.7 0 1.24-.25 1.71-.68v-4.18c-.42-.31-.94-.49-1.57-.49zM126.92 195.11c-.9-.59-1.87-.9-2.95-.9-2.2 0-3.66 1.51-3.66 3.96 0 2.48 1.42 4.05 3.69 4.05 1.15 0 2.25-.43 3.08-1.01l.41 2.02c-.9.54-2.3.88-3.58.88-3.46 0-5.82-2.18-5.82-5.87 0-3.6 2.36-5.92 5.87-5.92 1.31 0 2.67.34 3.64.88l-.68 1.91zM132.85 204.11c-2.43 0-4.2-1.66-4.2-4.41 0-2.74 1.85-4.45 4.3-4.45 2.45 0 4.2 1.69 4.2 4.43 0 2.72-1.87 4.43-4.3 4.43zm.03-7.14c-1.39 0-2.14 1.12-2.14 2.72 0 1.58.79 2.7 2.18 2.7 1.37 0 2.12-1.08 2.12-2.68s-.79-2.74-2.16-2.74zM149.35 203.84v-5.04c0-1.22-.49-1.66-1.37-1.66-.74 0-1.31.38-1.73.74v5.96h-2.12v-5.04c0-1.22-.47-1.66-1.35-1.66-.76 0-1.33.31-1.73.68v6.01h-2.12v-8.26l2.12-.29v1.17c.77-.77 1.62-1.19 2.65-1.19 1.01 0 1.86.49 2.27 1.42.83-.9 1.82-1.42 2.95-1.42 1.57 0 2.56 1.08 2.56 2.88v5.69h-2.13v.01zM164.1 203.84v-5.04c0-1.22-.49-1.66-1.37-1.66-.74 0-1.31.38-1.73.74v5.96h-2.12v-5.04c0-1.22-.47-1.66-1.35-1.66-.76 0-1.33.31-1.73.68v6.01h-2.12v-8.26l2.12-.29v1.17c.77-.77 1.62-1.19 2.65-1.19 1.01 0 1.86.49 2.27 1.42.83-.9 1.82-1.42 2.95-1.42 1.57 0 2.56 1.08 2.56 2.88v5.69h-2.13v.01zM170.46 195.54v5.06c0 1.22.5 1.62 1.41 1.62.76 0 1.42-.34 1.82-.72v-5.96h2.12v8.25l-2.12.29v-1.22c-.68.74-1.67 1.26-2.74 1.26-1.62 0-2.61-1.08-2.61-2.86v-5.71h2.12v-.01zM183.48 203.84v-5.06c0-1.22-.49-1.64-1.44-1.64-.74 0-1.42.38-1.84.77v5.92h-2.12v-8.26l2.12-.29v1.31c.74-.81 1.73-1.33 2.74-1.33 1.67 0 2.66 1.08 2.66 2.86v5.71h-2.12v.01zM188.88 194.03c-.83 0-1.3-.5-1.3-1.28 0-.76.47-1.28 1.3-1.28.85 0 1.31.52 1.31 1.28 0 .78-.47 1.28-1.31 1.28zm-1.06 9.81v-8.25l2.12-.31v8.55h-2.12v.01zM196.02 204.11c-2.7 0-4.3-1.67-4.3-4.39 0-2.7 1.76-4.45 4.38-4.45 1.13 0 2.11.25 2.86.7l-.45 1.71c-.68-.43-1.48-.67-2.25-.67-1.53 0-2.36 1.04-2.36 2.65 0 1.69.95 2.68 2.36 2.68.86 0 1.66-.23 2.3-.65l.34 1.73c-.71.44-1.76.69-2.88.69zM205.02 202.89c-.59.72-1.31 1.22-2.34 1.22-1.5 0-2.58-1.03-2.58-2.34 0-1.53 1.12-2.83 4.92-2.95v-.2c0-1.12-.47-1.58-1.66-1.58-.85 0-1.87.38-2.75.88l-.43-1.67c.81-.5 2.11-.97 3.47-.97 2.56 0 3.55 1.13 3.49 3.42v2.97c0 .63.11.72.74.76l-.16 1.6c-1.58.18-2.32-.31-2.63-1.13h-.07v-.01zm0-2.95c-2.07.25-2.83.67-2.83 1.55 0 .63.49 1.08 1.24 1.08.67 0 1.21-.31 1.58-.72v-1.91h.01zM212.26 204.11c-1.85 0-2.83-.81-2.75-2.81l.13-3.91-1.3-.14.05-1.35 1.3-.41.04-1.84h2.05l-.04 1.94h2.34l-.05 1.75h-2.41l-.11 3.84c-.02.77.38 1.13 1.1 1.13.43 0 .86-.11 1.3-.25l.29 1.73c-.64.22-1.22.32-1.94.32zM216.83 194.03c-.83 0-1.3-.5-1.3-1.28 0-.76.47-1.28 1.3-1.28.85 0 1.31.52 1.31 1.28.01.78-.46 1.28-1.31 1.28zm-1.06 9.81v-8.25l2.12-.31v8.55h-2.12v.01zM223.87 204.11c-2.43 0-4.2-1.66-4.2-4.41 0-2.74 1.85-4.45 4.3-4.45 2.45 0 4.2 1.69 4.2 4.43 0 2.72-1.87 4.43-4.3 4.43zm.04-7.14c-1.39 0-2.14 1.12-2.14 2.72 0 1.58.79 2.7 2.18 2.7 1.37 0 2.12-1.08 2.12-2.68s-.8-2.74-2.16-2.74zM235.35 203.84v-5.06c0-1.22-.49-1.64-1.44-1.64-.74 0-1.42.38-1.84.77v5.92h-2.12v-8.26l2.12-.29v1.31c.74-.81 1.73-1.33 2.74-1.33 1.67 0 2.66 1.08 2.66 2.86v5.71h-2.12v.01zM242.26 204.13c-1.08 0-2.39-.31-3.22-.77l.47-1.66c.83.47 1.89.77 2.81.77.83 0 1.37-.34 1.37-.92 0-.65-.7-.88-1.67-1.12-1.57-.36-2.81-1.01-2.81-2.58s1.31-2.59 3.31-2.59c1.03 0 2.25.27 3.03.67l-.47 1.66c-.81-.41-1.87-.68-2.61-.68-.77 0-1.24.29-1.24.83 0 .63.7.85 1.67 1.08 1.58.38 2.83.99 2.83 2.61-.01 1.55-1.34 2.7-3.47 2.7zM261.8 194.82L258.86 203.68 256.56 203.68 253.61 194.82 253.5 203.84 251.43 203.84 251.81 192.59 254.85 192.59 257.75 201.45 260.65 192.59 263.66 192.59 264.02 203.84 261.9 203.84zM270.51 202.89c-.59.72-1.31 1.22-2.34 1.22-1.5 0-2.58-1.03-2.58-2.34 0-1.53 1.12-2.83 4.92-2.95v-.2c0-1.12-.47-1.58-1.66-1.58-.85 0-1.87.38-2.75.88l-.43-1.67c.81-.5 2.11-.97 3.47-.97 2.56 0 3.55 1.13 3.49 3.42v2.97c0 .63.11.72.74.76l-.16 1.6c-1.58.18-2.32-.31-2.63-1.13h-.07v-.01zm0-2.95c-2.07.25-2.83.67-2.83 1.55 0 .63.49 1.08 1.24 1.08.67 0 1.21-.31 1.58-.72v-1.91h.01zM280.21 203.84v-5.06c0-1.22-.49-1.64-1.44-1.64-.74 0-1.42.38-1.84.77v5.92h-2.12v-8.26l2.12-.29v1.31c.74-.81 1.73-1.33 2.74-1.33 1.67 0 2.66 1.08 2.66 2.86v5.71h-2.12v.01zM288.9 202.89c-.59.72-1.31 1.22-2.34 1.22-1.5 0-2.58-1.03-2.58-2.34 0-1.53 1.12-2.83 4.92-2.95v-.2c0-1.12-.47-1.58-1.66-1.58-.85 0-1.87.38-2.75.88l-.43-1.67c.81-.5 2.11-.97 3.47-.97 2.56 0 3.55 1.13 3.49 3.42v2.97c0 .63.11.72.74.76l-.16 1.6c-1.58.18-2.32-.31-2.63-1.13h-.07v-.01zm0-2.95c-2.07.25-2.83.67-2.83 1.55 0 .63.49 1.08 1.24 1.08.67 0 1.21-.31 1.58-.72v-1.91h.01zM292.73 202.75c0-.76.61-1.44 1.53-1.75-.92-.47-1.51-1.4-1.51-2.56 0-1.71 1.35-3.17 3.65-3.17.94 0 1.76.27 2.34.52l2.23-.2.09 1.85-1.58-.27c.22.23.38.86.38 1.3 0 1.69-1.42 3.02-3.47 3.02-.4 0-.68-.04-1.13-.14-.29.11-.65.38-.65.72 0 .45.38.65 1.71.65h.86c2.38 0 3.73.67 3.73 2.29 0 1.96-2.21 3.31-4.84 3.31-2.2 0-3.94-.81-3.94-2.3 0-.86.63-1.64 1.87-1.84-.73-.25-1.27-.77-1.27-1.43zm1.32 2.84c0 .77.95 1.31 2.36 1.31 1.46 0 2.58-.54 2.58-1.4 0-.77-.76-.95-2.3-.95-.52 0-1.24-.04-1.58-.07-.61.21-1.06.61-1.06 1.11zm2.38-5.47c.95 0 1.49-.68 1.49-1.73 0-.99-.52-1.67-1.58-1.67-.94 0-1.53.7-1.53 1.75-.01.98.59 1.65 1.62 1.65zM303.84 200.15c.09 1.35 1.01 2.27 2.48 2.27.88 0 1.84-.29 2.59-.76l.27 1.76c-.79.43-1.89.68-3.01.68-2.66 0-4.43-1.69-4.43-4.34 0-2.7 1.8-4.5 4.29-4.5 2.2 0 3.42 1.33 3.42 3.37 0 .45-.07 1.03-.18 1.39l-5.44.07v.06h.01zm3.62-1.31v-.14c0-1.12-.49-1.82-1.58-1.82-1.17 0-1.87.95-1.98 1.98l3.56-.02zM313.34 203.84h-2.12v-8.25l2.12-.31v1.35c.52-.88 1.19-1.37 2.16-1.37.5 0 1.03.11 1.48.38l-.47 1.91c-.4-.22-.79-.32-1.19-.32-.74 0-1.42.47-1.98 1.48v5.13zM7.08 219.49L7.08 223.85 4.9 223.85 4.9 219.47.97 212.59 3.35 212.59 6.02 217.45 8.63 212.59 10.99 212.59zM15.47 215.27c2.2 0 3.64 1.78 3.64 4.34 0 2.65-1.84 4.48-4.2 4.48-.54 0-1.24-.07-1.76-.23v3.94h-2.12v-12.23l2.12-.29v1.04c.56-.52 1.31-1.05 2.32-1.05zm-2.32 6.67c.4.31.94.47 1.57.47 1.42 0 2.23-1.15 2.23-2.7 0-1.62-.77-2.65-2.09-2.65-.7 0-1.24.27-1.71.68v4.2zM23.46 224.13c-1.08 0-2.39-.31-3.22-.77l.47-1.66c.83.47 1.89.77 2.81.77.83 0 1.37-.34 1.37-.92 0-.65-.7-.88-1.67-1.12-1.57-.36-2.81-1.01-2.81-2.58s1.31-2.59 3.31-2.59c1.03 0 2.25.27 3.03.67l-.47 1.66c-.81-.41-1.87-.68-2.61-.68-.77 0-1.24.29-1.24.83 0 .63.7.85 1.67 1.08 1.58.38 2.83.99 2.83 2.61-.01 1.55-1.34 2.7-3.47 2.7zM29.71 214.03c-.83 0-1.3-.5-1.3-1.28 0-.76.47-1.28 1.3-1.28.85 0 1.31.52 1.31 1.28 0 .78-.47 1.28-1.31 1.28zm-1.06 9.81v-8.25l2.12-.31v8.55h-2.12v.01zM33.04 223.84L33.04 211.81 35.16 211.52 35.16 223.84zM41.79 222.89c-.59.72-1.31 1.22-2.34 1.22-1.5 0-2.58-1.03-2.58-2.34 0-1.53 1.12-2.83 4.92-2.95v-.2c0-1.12-.47-1.58-1.66-1.58-.85 0-1.87.38-2.75.88l-.43-1.67c.81-.5 2.11-.97 3.47-.97 2.56 0 3.55 1.13 3.49 3.42v2.97c0 .63.11.72.74.76l-.16 1.6c-1.58.18-2.32-.31-2.63-1.13h-.07v-.01zm0-2.95c-2.07.25-2.83.67-2.83 1.55 0 .63.49 1.08 1.24 1.08.67 0 1.21-.31 1.58-.72v-1.91h.01zM51.49 223.84v-5.06c0-1.22-.49-1.64-1.44-1.64-.74 0-1.42.38-1.84.77v5.92h-2.12v-8.26l2.12-.29v1.31c.74-.81 1.73-1.33 2.74-1.33 1.67 0 2.66 1.08 2.66 2.86v5.71h-2.12v.01zM58.76 224.11c-1.85 0-2.83-.81-2.75-2.81l.13-3.91-1.3-.14.05-1.35 1.3-.41.04-1.84h2.05l-.04 1.94h2.34l-.05 1.75h-2.41l-.11 3.84c-.02.77.38 1.13 1.1 1.13.43 0 .86-.11 1.3-.25l.29 1.73c-.64.22-1.22.32-1.94.32zM63.33 214.03c-.83 0-1.3-.5-1.3-1.28 0-.76.47-1.28 1.3-1.28.85 0 1.31.52 1.31 1.28 0 .78-.46 1.28-1.31 1.28zm-1.06 9.81v-8.25l2.12-.31v8.55h-2.12v.01zM81.01 214.82L78.08 223.68 75.78 223.68 72.83 214.82 72.72 223.84 70.65 223.84 71.03 212.59 74.07 212.59 76.97 221.45 79.87 212.59 82.88 212.59 83.24 223.84 81.12 223.84zM86.96 220.15c.09 1.35 1.01 2.27 2.49 2.27.88 0 1.84-.29 2.59-.76l.27 1.76c-.79.43-1.89.68-3.01.68-2.66 0-4.43-1.69-4.43-4.34 0-2.7 1.8-4.5 4.29-4.5 2.2 0 3.42 1.33 3.42 3.37 0 .45-.07 1.03-.18 1.39l-5.44.07v.06zm3.62-1.31v-.14c0-1.12-.49-1.82-1.58-1.82-1.17 0-1.87.95-1.98 1.98l3.56-.02zM98.7 222.89c-.59.72-1.31 1.22-2.34 1.22-1.5 0-2.58-1.03-2.58-2.34 0-1.53 1.12-2.83 4.92-2.95v-.2c0-1.12-.47-1.58-1.66-1.58-.85 0-1.87.38-2.75.88l-.43-1.67c.81-.5 2.11-.97 3.47-.97 2.56 0 3.55 1.13 3.49 3.42v2.97c0 .63.11.72.74.76l-.16 1.6c-1.58.18-2.32-.31-2.63-1.13h-.07v-.01zm0-2.95c-2.07.25-2.83.67-2.83 1.55 0 .63.49 1.08 1.24 1.08.67 0 1.21-.31 1.58-.72v-1.91h.01zM103 223.84L103 211.81 105.12 211.52 105.12 223.84zM109.97 224.13c-1.08 0-2.39-.31-3.22-.77l.47-1.66c.83.47 1.89.77 2.81.77.83 0 1.37-.34 1.37-.92 0-.65-.7-.88-1.67-1.12-1.57-.36-2.81-1.01-2.81-2.58s1.31-2.59 3.31-2.59c1.03 0 2.25.27 3.03.67l-.47 1.66c-.81-.41-1.87-.68-2.61-.68-.77 0-1.24.29-1.24.83 0 .63.7.85 1.67 1.08 1.58.38 2.83.99 2.83 2.61-.02 1.55-1.35 2.7-3.47 2.7zM122.96 224.11c-2.43 0-4.2-1.66-4.2-4.41 0-2.74 1.85-4.45 4.3-4.45 2.45 0 4.2 1.69 4.2 4.43.01 2.72-1.87 4.43-4.3 4.43zm.04-7.14c-1.39 0-2.14 1.12-2.14 2.72 0 1.58.79 2.7 2.18 2.7 1.37 0 2.12-1.08 2.12-2.68s-.79-2.74-2.16-2.74zM134.45 223.84v-5.06c0-1.22-.49-1.64-1.44-1.64-.74 0-1.42.38-1.84.77v5.92h-2.12v-8.26l2.12-.29v1.31c.74-.81 1.73-1.33 2.74-1.33 1.67 0 2.66 1.08 2.66 2.86v5.71h-2.12v.01zM147.57 223.84L145.34 223.84 142.24 212.59 144.58 212.59 146.54 221.16 148.88 212.59 151.4 212.59 153.78 221.16 155.73 212.59 157.96 212.59 154.86 223.84 152.59 223.84 150.11 215.14zM164.92 223.84v-5.06c0-1.22-.49-1.64-1.39-1.64-.79 0-1.48.38-1.89.77v5.92h-2.12V211.8l2.12-.29v5.06c.74-.81 1.73-1.31 2.81-1.31 1.6 0 2.59 1.08 2.59 2.86v5.71h-2.12v.01zM170.86 220.15c.09 1.35 1.01 2.27 2.49 2.27.88 0 1.84-.29 2.59-.76l.27 1.76c-.79.43-1.89.68-3.01.68-2.66 0-4.43-1.69-4.43-4.34 0-2.7 1.8-4.5 4.29-4.5 2.2 0 3.42 1.33 3.42 3.37 0 .45-.07 1.03-.18 1.39l-5.44.07v.06zm3.62-1.31v-.14c0-1.12-.49-1.82-1.58-1.82-1.17 0-1.87.95-1.98 1.98l3.56-.02zM179.84 220.15c.09 1.35 1.01 2.27 2.48 2.27.88 0 1.84-.29 2.59-.76l.27 1.76c-.79.43-1.89.68-3.01.68-2.66 0-4.43-1.69-4.43-4.34 0-2.7 1.8-4.5 4.29-4.5 2.2 0 3.42 1.33 3.42 3.37 0 .45-.07 1.03-.18 1.39l-5.44.07v.06h.01zm3.62-1.31v-.14c0-1.12-.49-1.82-1.58-1.82-1.17 0-1.87.95-1.98 1.98l3.56-.02zM187.22 223.84L187.22 211.81 189.34 211.52 189.34 223.84zM194.18 224.13c-1.08 0-2.39-.31-3.22-.77l.47-1.66c.83.47 1.89.77 2.81.77.83 0 1.37-.34 1.37-.92 0-.65-.7-.88-1.67-1.12-1.57-.36-2.81-1.01-2.81-2.58s1.31-2.59 3.31-2.59c1.03 0 2.25.27 3.03.67l-.47 1.66c-.81-.41-1.87-.68-2.61-.68-.77 0-1.24.29-1.24.83 0 .63.7.85 1.67 1.08 1.58.38 2.83.99 2.83 2.61-.01 1.55-1.34 2.7-3.47 2.7z" transform="translate(-51 -2624) translate(51 2624) translate(117 116)"/>
                </g>
            </g>
        </g>
    </g>
</svg>
