<svg xmlns="http://www.w3.org/2000/svg" width="750" height="414" viewBox="0 0 750 414">
    <g fill="none" fill-rule="evenodd">
        <g fill-rule="nonzero">
            <g>
                <path fill="#4789AD" d="M0 0H750V414H0z" transform="translate(-50 -70) translate(50 70)"/>
                <path fill="#FFF" d="M90.75 39.47c-9.6 3.6-21.79 13.2-21.79 23.2 0 7 7 8.2 13.79 9.2 9.2 1.6 13.2 8.2 13.2 14.2 0 7-5.2 13.4-14.39 13.4-10.6 0-21.8-8.2-21.8-25 0-21.6 17-32.4 30.59-36.2l.4 1.2zm42.8 0c-9.6 3.6-21.8 13.2-21.8 23.2 0 7 6.8 8.2 13.6 9.2 9.4 1.6 13.4 8.2 13.4 14.2 0 7-5.4 13.4-14.6 13.4-10.4 0-21.8-8.2-21.8-25 0-21.6 17.2-32.4 30.8-36.2l.4 1.2zM606.63 324.92c9.6-3.6 21.8-13.2 21.8-23.2 0-7-7-8-13.8-9.2-9.2-1.6-13.2-8-13.2-14.2 0-7 5.4-13.4 14.6-13.4 10.4 0 21.8 8.2 21.8 25 0 21.6-17.2 32.4-30.8 36.2l-.4-1.2zm42.6 0c9.6-3.6 21.8-13.2 21.8-23.2 0-7-6.8-8-13.6-9.2-9.4-1.6-13.4-8-13.4-14.2 0-7 5.4-13.4 14.6-13.4 10.4 0 21.8 8.2 21.8 25 0 21.6-17.2 32.4-30.8 36.2l-.4-1.2zM122.09 124.41L127.28 118.09 130.47 118.09 124.58 124.85 130.58 131.85 127.3 131.85 122.11 125.56 122.11 125.56 122.11 131.85 119.42 131.85 119.42 118.09 122.11 118.09 122.11 124.41zM137.34 130.68c-.664.921-1.725 1.474-2.86 1.49-.802.058-1.592-.215-2.187-.756-.595-.54-.943-1.3-.963-2.104 0-1.87 1.36-3.45 6-3.6v-.25c0-1.36-.58-1.93-2-1.93-1.192.079-2.346.45-3.36 1.08l-.53-2.05c1.285-.77 2.752-1.18 4.25-1.19 3.12 0 4.33 1.39 4.26 4.18v3.63c0 .77.14.88.91.93l-.2 1.95c-1.94.22-2.84-.37-3.22-1.38h-.1zm0-3.61c-2.53.31-3.46.81-3.46 1.89.009.383.179.745.468.996.29.252.671.37 1.052.324.743-.002 1.45-.322 1.94-.88v-2.33z" transform="translate(-50 -70) translate(50 70)"/>
                <path fill="#FFF" d="M147.68 131.65l-.6 1.58c-1 2.77-2.15 3.61-4 3.61-.893-.006-1.773-.208-2.58-.59l.77-2.14c.492.282 1.044.446 1.61.48.75 0 1.14-.33 1.69-1.71l.44-1.17-4-10h2.8l2.53 7.26 2.42-7.26h2.77l-3.85 9.94zM151.48 123.09L154.01 117.65 156.32 118.44 153 123.09zM160.22 132.2c-1.37-.007-2.718-.332-3.94-.95l.57-2c1.05.588 2.227.91 3.43.94 1 0 1.67-.42 1.67-1.12 0-.7-.85-1.08-2-1.36-1.92-.44-3.43-1.24-3.43-3.15s1.6-3.17 4-3.17c1.278.004 2.54.283 3.7.82l-.57 2c-.991-.505-2.079-.791-3.19-.84-1 0-1.52.35-1.52 1s.86 1 2.05 1.33c1.93.46 3.45 1.21 3.45 3.19s-1.63 3.31-4.22 3.31zM175.15 132.17c-2.26 0-3.45-1-3.36-3.43l.15-4.77-1.58-.18.06-1.65 1.59-.51v-2.24h2.51v2.38h2.86l-.07 2.13h-2.95l-.13 4.69c-.065.375.054.758.319 1.03.265.274.644.403 1.021.35.542-.017 1.079-.118 1.59-.3l.35 2.11c-.758.264-1.557.396-2.36.39zM184.77 130.68c-.664.921-1.725 1.474-2.86 1.49-.802.058-1.592-.215-2.187-.756-.595-.54-.943-1.3-.963-2.104 0-1.87 1.37-3.45 6-3.6v-.25c0-1.36-.57-1.93-2-1.93-1.191.08-2.345.451-3.36 1.08l-.53-2.05c1.285-.77 2.752-1.18 4.25-1.19 3.12 0 4.33 1.39 4.27 4.18v3.63c0 .77.13.88.9.93l-.2 1.95c-1.94.22-2.84-.37-3.21-1.38h-.11zm0-3.61c-2.53.31-3.46.81-3.46 1.89.009.383.179.745.468.996.29.252.671.37 1.052.324.743 0 1.45-.32 1.94-.88v-2.33zM190 131.84L190 117.15 192.59 116.79 192.59 131.84zM197.35 127.33c.012.772.34 1.506.906 2.03.567.526 1.323.796 2.094.75 1.12-.022 2.215-.343 3.17-.93l.33 2.16c-1.142.569-2.404.853-3.68.83-1.45.122-2.88-.393-3.92-1.41-1.038-1.019-1.582-2.438-1.49-3.89-.105-1.443.405-2.863 1.402-3.91.998-1.047 2.392-1.625 3.838-1.59 1.127-.107 2.244.29 3.05 1.085.807.795 1.22 1.906 1.13 3.035-.002.57-.076 1.138-.22 1.69l-6.65.09.04.06zm4.43-1.6v-.18c0-1.36-.6-2.22-1.94-2.22-1.319.042-2.378 1.101-2.42 2.42l4.36-.02zM213 131.84v-6.18c0-1.49-.59-2-1.76-2-.846.038-1.647.395-2.24 1v7.23h-2.6v-10.1l2.6-.35V123c.838-.985 2.048-1.576 3.34-1.63 2.05 0 3.26 1.32 3.26 3.5v7l-2.6-.03zM221.86 132.17c-2.27 0-3.45-1-3.37-3.43l.16-4.77-1.59-.18.07-1.65 1.58-.51.05-2.24h2.51v2.38h2.86l-.13 2.13h-2.95l-.13 4.69c-.065.375.054.758.319 1.03.265.274.644.403 1.021.35.54-.017 1.072-.119 1.58-.3l.35 2.11c-.749.262-1.537.394-2.33.39zM236.49 130.68c-.664.921-1.725 1.474-2.86 1.49-.802.058-1.592-.215-2.187-.756-.595-.54-.943-1.3-.963-2.104 0-1.87 1.37-3.45 6-3.6v-.25c0-1.36-.57-1.93-2-1.93-1.191.08-2.345.451-3.36 1.08l-.53-2.05c1.285-.77 2.752-1.18 4.25-1.19 3.12 0 4.33 1.39 4.27 4.18v3.63c0 .77.13.88.9.93l-.2 1.95c-1.94.22-2.84-.37-3.21-1.38h-.11zm0-3.61c-2.53.31-3.45.81-3.45 1.89.006.382.173.744.461.996.288.252.67.37 1.049.324.743 0 1.45-.32 1.94-.88v-2.33zM248.35 131.84v-6.18c0-1.49-.6-2-1.76-2-.849.04-1.651.397-2.25 1v7.23h-2.59v-10.1l2.59-.35V123c.843-.984 2.056-1.574 3.35-1.63 2 0 3.25 1.32 3.25 3.5v7l-2.59-.03zM260.34 117.15l2.59-.36v15.05h-2.59v-1c-.74.802-1.77 1.277-2.86 1.32-2.69 0-4.43-2.17-4.43-5.32-.088-1.418.412-2.81 1.383-3.846.97-1.038 2.326-1.628 3.747-1.634.732.005 1.46.116 2.16.33v-4.54zm-1.92 6.29c-1.74 0-2.73 1.43-2.73 3.3 0 1.87 1 3.23 2.56 3.23.778.005 1.527-.293 2.09-.83V124c-.564-.387-1.237-.583-1.92-.56zM275.38 132.17c-3.3 0-5.26-2-5.26-5.36-.106-1.457.42-2.889 1.445-3.93 1.024-1.041 2.447-1.591 3.905-1.51 1.223-.034 2.432.263 3.5.86l-.55 2.09c-.821-.526-1.774-.81-2.75-.82-1.87 0-2.88 1.28-2.88 3.24 0 1.96 1.21 3.26 2.88 3.26.996.008 1.973-.266 2.82-.79l.41 2.11c-1.078.587-2.292.88-3.52.85zM283.66 131.84h-2.6v-10.07l2.6-.38V123c.481-1.022 1.51-1.673 2.64-1.67.63-.012 1.252.147 1.8.46l-.57 2.34c-.442-.254-.94-.392-1.45-.4-1.083.091-2.021.789-2.42 1.8v6.31zM291.49 127.33c.012.772.34 1.506.906 2.03.567.526 1.323.796 2.094.75 1.12-.02 2.216-.342 3.17-.93l.33 2.16c-1.139.567-2.398.852-3.67.83-3.26 0-5.42-2.06-5.42-5.3-.105-1.443.405-2.863 1.402-3.91.998-1.047 2.392-1.625 3.838-1.59 1.128-.11 2.247.285 3.055 1.081.807.796 1.22 1.91 1.125 3.039-.002.57-.076 1.138-.22 1.69l-6.64.09.03.06zm4.42-1.6v-.18c0-1.36-.59-2.22-1.94-2.22-1.317.046-2.374 1.103-2.42 2.42l4.36-.02zM305.83 130.68c-.662.923-1.724 1.477-2.86 1.49-.802.058-1.592-.215-2.187-.756-.595-.54-.943-1.3-.963-2.104 0-1.87 1.37-3.45 6-3.6v-.25c0-1.36-.57-1.93-2-1.93-1.195.079-2.352.45-3.37 1.08l-.53-2.05c1.285-.768 2.753-1.179 4.25-1.19 3.12 0 4.33 1.39 4.27 4.18v3.63c0 .77.13.88.9.93l-.2 1.95c-1.93.22-2.84-.37-3.21-1.38h-.1zm0-3.61c-2.53.31-3.45.81-3.45 1.89.006.382.173.744.461.996.288.252.67.37 1.049.324.743 0 1.45-.32 1.94-.88v-2.33zM314.67 132.17c-2.26 0-3.45-1-3.36-3.43l.15-4.77-1.58-.18.06-1.65 1.59-.51v-2.24h2.51v2.38h2.86l-.07 2.13h-2.95l-.13 4.69c-.065.375.054.758.319 1.03.265.274.644.403 1.021.35.542-.017 1.079-.118 1.59-.3l.35 2.11c-.758.264-1.557.396-2.36.39zM320.26 119.85c-.862 0-1.56-.698-1.56-1.56 0-.862.698-1.56 1.56-1.56.862 0 1.56.698 1.56 1.56 0 .862-.698 1.56-1.56 1.56zm-1.3 12v-10.08l2.6-.38v10.45l-2.6.01zM329.57 131.87L326.8 131.87 322.92 121.7 325.7 121.7 328.25 129.12 330.69 121.7 333.49 121.7zM336.15 119.85c-.862 0-1.56-.698-1.56-1.56 0-.862.698-1.56 1.56-1.56.862 0 1.56.698 1.56 1.56 0 .862-.698 1.56-1.56 1.56zm-1.3 12v-10.08l2.59-.38v10.45l-2.59.01zM343.8 132.17c-2.26 0-3.45-1-3.36-3.43l.15-4.77-1.58-.18.06-1.65 1.59-.51v-2.24h2.51v2.38H346v2.13h-3l-.13 4.69c-.065.375.054.758.319 1.03.265.274.644.403 1.021.35.54-.016 1.072-.118 1.58-.3l.36 2.11c-.755.263-1.55.395-2.35.39zM353.31 131.65l-.6 1.58c-1 2.77-2.15 3.61-4 3.61-.893-.006-1.773-.208-2.58-.59l.77-2.14c.492.282 1.044.446 1.61.48.75 0 1.14-.33 1.69-1.71l.44-1.17-4-10h2.8L352 129l2.42-7.26h2.77l-3.88 9.91zM368.86 130.68c-.664.921-1.725 1.474-2.86 1.49-.802.058-1.592-.215-2.187-.756-.595-.54-.943-1.3-.963-2.104 0-1.87 1.37-3.45 6-3.6v-.25c0-1.36-.57-1.93-2-1.93-1.195.079-2.352.45-3.37 1.08l-.53-2.05c1.285-.768 2.753-1.179 4.25-1.19 3.12 0 4.33 1.39 4.27 4.18v3.63c0 .77.13.88.9.93l-.2 1.95c-1.94.22-2.84-.37-3.21-1.38h-.1zm0-3.61c-2.53.31-3.45.81-3.45 1.89.006.382.173.744.461.996.288.252.67.37 1.049.324.743 0 1.45-.32 1.94-.88v-2.33zM376.71 131.84h-2.59v-10.07l2.59-.38V123c.485-1.018 1.512-1.668 2.64-1.67.634-.013 1.26.146 1.81.46l-.57 2.34c-.444-.256-.947-.394-1.46-.4-1.08.098-2.015.793-2.42 1.8v6.31zM384.55 127.33c.012.772.34 1.506.906 2.03.567.526 1.323.796 2.094.75 1.12-.02 2.216-.342 3.17-.93l.33 2.16c-1.139.567-2.398.852-3.67.83-3.26 0-5.42-2.06-5.42-5.3-.105-1.443.405-2.863 1.402-3.91.998-1.047 2.392-1.625 3.838-1.59 1.127-.107 2.244.29 3.05 1.085.807.795 1.22 1.906 1.13 3.035-.002.57-.076 1.138-.22 1.69l-6.64.09.03.06zm4.42-1.6v-.18c0-1.36-.6-2.22-1.94-2.22-1.319.042-2.378 1.101-2.42 2.42l4.36-.02zM403.91 130.68c-.666.924-1.731 1.477-2.87 1.49-.8.055-1.588-.22-2.18-.76-.593-.54-.94-1.298-.96-2.1 0-1.87 1.36-3.45 6-3.6v-.25c0-1.36-.58-1.93-2-1.93-1.195.08-2.351.45-3.37 1.08l-.52-2.05c1.282-.768 2.746-1.179 4.24-1.19 3.13 0 4.34 1.39 4.27 4.18v3.63c0 .77.13.88.9.93l-.19 1.95c-1.94.22-2.84-.37-3.22-1.38h-.1zm0-3.61c-2.53.31-3.46.81-3.46 1.89.005.384.174.748.465 1 .29.252.674.368 1.055.32.742-.004 1.448-.324 1.94-.88v-2.33zM413.61 130.5c.099-1.039.853-1.898 1.87-2.13-1.168-.6-1.887-1.818-1.85-3.13 0-2.09 1.65-3.87 4.46-3.87 1.003.006 1.994.22 2.91.63l2.72-.24.11 2.26-1.93-.33c.303.475.463 1.027.46 1.59 0 2.07-1.74 3.69-4.25 3.69-.465.003-.93-.054-1.38-.17-.36.13-.8.46-.8.88s.47.79 2.09.79h.98c2.91 0 4.56.81 4.56 2.79 0 2.4-2.71 4-5.92 4-2.69 0-4.82-1-4.82-2.81.062-1.232 1.058-2.21 2.29-2.25-.804-.201-1.4-.877-1.5-1.7zm1.6 3.48c0 .94 1.17 1.6 2.88 1.6s3.15-.66 3.15-1.71c0-1.05-.92-1.17-2.82-1.17-.63 0-1.51 0-1.93-.09-.73.27-1.28.75-1.28 1.39v-.02zm2.91-6.69c1.16 0 1.82-.84 1.82-2.11.066-.54-.11-1.082-.484-1.478-.373-.396-.903-.606-1.446-.572-.544.001-1.062.237-1.42.646-.358.41-.522.955-.45 1.494-.052.543.139 1.08.52 1.47.382.39.916.59 1.46.55zM427.82 131.84h-2.6v-10.07l2.6-.38V123c.483-1.02 1.511-1.67 2.64-1.67.63-.013 1.253.146 1.8.46l-.57 2.34c-.44-.257-.94-.395-1.45-.4-1.081.096-2.017.792-2.42 1.8v6.31zM435.65 127.33c.012.772.34 1.506.906 2.03.567.526 1.323.796 2.094.75 1.12-.023 2.215-.344 3.17-.93l.33 2.16c-1.142.569-2.404.853-3.68.83-1.45.122-2.88-.393-3.92-1.41-1.038-1.019-1.582-2.438-1.49-3.89-.105-1.441.403-2.86 1.399-3.906.996-1.047 2.387-1.626 3.831-1.594 1.129-.11 2.249.286 3.058 1.08.809.796 1.223 1.91 1.132 3.04 0 .571-.077 1.14-.23 1.69l-6.64.09.04.06zm4.42-1.6v-.18c0-1.36-.59-2.22-1.93-2.22-1.319.042-2.378 1.101-2.42 2.42l4.35-.02zM450 130.68c-.66.925-1.723 1.478-2.86 1.49-.8.055-1.588-.22-2.18-.76-.593-.54-.94-1.298-.96-2.1 0-1.87 1.36-3.45 6-3.6v-.25c0-1.36-.57-1.93-2-1.93-1.195.08-2.351.45-3.37 1.08l-.52-2.05c1.282-.768 2.746-1.179 4.24-1.19 3.13 0 4.34 1.39 4.27 4.18v3.63c0 .77.13.88.9.93l-.2 1.95c-1.93.22-2.83-.37-3.21-1.38H450zm0-3.61c-2.53.31-3.45.81-3.45 1.89.005.384.174.748.465 1 .29.252.674.368 1.055.32.74-.002 1.443-.322 1.93-.88v-2.33zM458.84 132.17c-2.27 0-3.46-1-3.37-3.43l.15-4.77-1.58-.18.07-1.65 1.58-.51.05-2.24h2.5v2.38h2.86l-.1 2.13h-2.94l-.14 4.69c-.06.376.06.758.327 1.03.266.273.646.402 1.023.35.539-.018 1.072-.12 1.58-.3l.35 2.11c-.758.266-1.557.398-2.36.39zM473.47 130.68c-.664.921-1.725 1.474-2.86 1.49-.802.058-1.592-.215-2.187-.756-.595-.54-.943-1.3-.963-2.104 0-1.87 1.37-3.45 6-3.6v-.25c0-1.36-.57-1.93-2-1.93-1.191.08-2.345.451-3.36 1.08l-.53-2.05c1.285-.77 2.752-1.18 4.25-1.19 3.12 0 4.33 1.39 4.26 4.18v3.63c0 .77.14.88.91.93l-.2 1.95c-1.94.22-2.84-.37-3.21-1.38h-.11zm0-3.61c-2.53.31-3.46.81-3.46 1.89.009.383.179.745.468.996.29.252.671.37 1.052.324.743 0 1.45-.32 1.94-.88v-2.33zM481.87 132.2c-1.369-.009-2.717-.334-3.94-.95l.57-2c1.054.587 2.234.91 3.44.94 1 0 1.67-.42 1.67-1.12 0-.7-.86-1.08-2.05-1.36-1.91-.44-3.43-1.24-3.43-3.15s1.61-3.17 4-3.17c1.278.005 2.54.284 3.7.82l-.58 2c-.99-.506-2.079-.792-3.19-.84-.94 0-1.51.35-1.51 1s.85 1 2 1.33c1.94.46 3.46 1.21 3.46 3.19s-1.54 3.31-4.14 3.31zM491.35 132.2c-1.366-.007-2.711-.333-3.93-.95l.57-2c1.05.588 2.227.91 3.43.94 1 0 1.67-.42 1.67-1.12 0-.7-.86-1.08-2-1.36-1.92-.44-3.44-1.24-3.44-3.15s1.61-3.17 4-3.17c1.278.004 2.54.283 3.7.82l-.57 2c-.991-.505-2.079-.791-3.19-.84-1 0-1.52.35-1.52 1s.86 1 2 1.33c1.94.46 3.46 1.21 3.46 3.19s-1.53 3.31-4.18 3.31zM499.65 127.33c.012.772.34 1.506.906 2.03.567.526 1.323.796 2.094.75 1.12-.02 2.216-.342 3.17-.93l.33 2.16c-1.139.567-2.398.852-3.67.83-1.45.122-2.88-.393-3.92-1.41-1.038-1.019-1.582-2.438-1.49-3.89-.105-1.441.403-2.86 1.399-3.906.996-1.047 2.387-1.626 3.831-1.594 1.128-.11 2.247.285 3.055 1.081.807.796 1.22 1.91 1.125 3.039-.002.57-.076 1.138-.22 1.69l-6.64.09.03.06zm4.42-1.6v-.18c0-1.36-.59-2.22-1.94-2.22-1.317.046-2.374 1.103-2.42 2.42l4.36-.02zM512.25 132.17c-2.26 0-3.45-1-3.36-3.43L509 124l-1.58-.18.06-1.65 1.59-.51v-2.24h2.51v2.38h2.86l-.07 2.13h-2.95l-.13 4.69c-.065.375.054.758.319 1.03.265.274.644.403 1.021.35.542-.017 1.079-.118 1.59-.3l.35 2.11c-.748.25-1.532.371-2.32.36zM525.15 132.17c-2.27 0-3.46-1-3.37-3.43l.15-4.77-1.58-.18.07-1.65 1.58-.51v-2.24h2.51v2.38h2.86l-.07 2.13h-2.95l-.13 4.69c-.065.375.054.758.319 1.03.265.274.644.403 1.021.35.542-.017 1.079-.118 1.59-.3l.35 2.11c-.755.264-1.55.396-2.35.39zM533.86 132.17c-3 0-5.13-2-5.13-5.39-.094-1.437.424-2.847 1.426-3.881 1.002-1.035 2.395-1.597 3.834-1.549 3 0 5.13 2.07 5.13 5.41.088 1.434-.432 2.838-1.434 3.868-1.001 1.03-2.39 1.59-3.826 1.542zm0-8.73c-1.69 0-2.62 1.36-2.62 3.32 0 1.96 1 3.3 2.67 3.3s2.59-1.32 2.59-3.28c0-1.96-.93-3.34-2.6-3.34h-.04zM550.4 126.52L550.4 131.84 547.74 131.84 547.74 126.5 542.94 118.09 545.85 118.09 549.1 124 552.29 118.06 555.18 118.06zM560.65 121.37c2.69 0 4.45 2.18 4.45 5.3.088 1.418-.412 2.81-1.383 3.846-.97 1.038-2.326 1.628-3.747 1.634-.73.002-1.455-.092-2.16-.28v4.82h-2.59v-14.95l2.59-.35v1.28c.737-.792 1.759-1.26 2.84-1.3zm-2.84 8.14c.559.399 1.234.6 1.92.57 1.74 0 2.73-1.4 2.73-3.3s-1-3.23-2.55-3.23c-.78.003-1.53.3-2.1.83v5.13zM570.42 132.2c-1.37-.007-2.718-.332-3.94-.95l.57-2c1.053.588 2.234.91 3.44.94 1 0 1.67-.42 1.67-1.12 0-.7-.86-1.08-2-1.36-1.91-.44-3.43-1.24-3.43-3.15s1.61-3.17 4.05-3.17c1.275.003 2.534.283 3.69.82l-.57 2c-.991-.505-2.079-.791-3.19-.84-.94 0-1.52.35-1.52 1s.86 1 2.05 1.33c1.94.46 3.45 1.21 3.45 3.19s-1.69 3.31-4.27 3.31zM578.05 119.85c-.862 0-1.56-.698-1.56-1.56 0-.862.698-1.56 1.56-1.56.862 0 1.56.698 1.56 1.56 0 .862-.698 1.56-1.56 1.56zm-1.29 12v-10.08l2.59-.38v10.45l-2.59.01zM582.12 131.84L582.12 117.15 584.72 116.79 584.72 131.84zM592.82 130.68c-.664.921-1.725 1.474-2.86 1.49-.802.058-1.592-.215-2.187-.756-.595-.54-.943-1.3-.963-2.104 0-1.87 1.36-3.45 6-3.6v-.25c0-1.36-.57-1.93-2-1.93-1.192.079-2.346.45-3.36 1.08l-.53-2.05c1.285-.77 2.752-1.18 4.25-1.19 3.12 0 4.33 1.39 4.26 4.18v3.63c0 .77.14.88.91.93l-.2 1.95c-1.94.22-2.84-.37-3.21-1.38h-.11zm0-3.61c-2.53.31-3.46.81-3.46 1.89.009.383.179.745.468.996.29.252.671.37 1.052.324.743 0 1.45-.32 1.94-.88v-2.33zM604.68 131.84v-6.18c0-1.49-.6-2-1.76-2-.85.039-1.652.396-2.25 1v7.23h-2.6v-10.1l2.6-.35V123c.84-.986 2.055-1.577 3.35-1.63 2 0 3.25 1.32 3.25 3.5v7l-2.59-.03zM613.56 132.17c-2.26 0-3.45-1-3.36-3.43l.15-4.77-1.58-.18.06-1.65 1.59-.51v-2.24H613l-.05 2.38h2.87l-.07 2.13h-3l-.13 4.69c-.08.387.039.79.315 1.072.277.283.676.41 1.065.338.54-.016 1.072-.118 1.58-.3l.36 2.11c-.767.257-1.572.378-2.38.36zM619.15 119.85c-.862 0-1.56-.698-1.56-1.56 0-.862.698-1.56 1.56-1.56.862 0 1.56.698 1.56 1.56 0 .862-.698 1.56-1.56 1.56zm-1.3 12v-10.08l2.6-.38v10.45l-2.6.01zM131.71 148.82L128.12 159.65 125.3 159.65 121.69 148.82 121.56 159.82 119 159.82 119.46 146.07 123.18 146.07 126.72 156.9 130.27 146.07 134 146.07 134.44 159.82 131.85 159.82zM139 155.33c.012.772.34 1.506.906 2.03.567.526 1.323.796 2.094.75 1.12-.02 2.216-.342 3.17-.93l.33 2.16c-1.139.567-2.398.852-3.67.83-3.26 0-5.42-2.06-5.42-5.3-.105-1.443.405-2.863 1.402-3.91.998-1.047 2.392-1.625 3.838-1.59 1.127-.107 2.244.29 3.05 1.085.807.795 1.22 1.906 1.13 3.035-.002.57-.076 1.138-.22 1.69l-6.64.09.03.06zm4.42-1.6v-.18c0-1.36-.6-2.22-1.94-2.22-1.319.042-2.378 1.101-2.42 2.42l4.36-.02zM153.33 158.68c-.664.921-1.725 1.474-2.86 1.49-.802.058-1.592-.215-2.187-.756-.595-.54-.943-1.3-.963-2.104 0-1.87 1.37-3.45 6-3.6v-.25c0-1.36-.57-1.93-2-1.93-1.195.079-2.352.45-3.37 1.08l-.53-2.05c1.285-.768 2.753-1.179 4.25-1.19 3.12 0 4.33 1.39 4.27 4.18v3.63c0 .77.13.88.9.93l-.2 1.95c-1.94.22-2.84-.37-3.21-1.38h-.1zm0-3.61c-2.53.31-3.45.81-3.45 1.89.006.382.173.744.461.996.288.252.67.37 1.049.324.743 0 1.45-.32 1.94-.88v-2.33zM158.59 159.84L158.59 145.15 161.18 144.79 161.18 159.84zM167.1 160.2c-1.369-.009-2.717-.334-3.94-.95l.58-2c1.05.588 2.227.91 3.43.94 1 0 1.67-.42 1.67-1.12 0-.7-.86-1.08-2.05-1.36-1.91-.44-3.43-1.24-3.43-3.15s1.61-3.17 4-3.17c1.278.005 2.54.284 3.7.82l-.58 2c-.99-.506-2.079-.792-3.19-.84-.94 0-1.51.35-1.51 1s.85 1 2 1.33c1.94.46 3.46 1.21 3.46 3.19s-1.54 3.31-4.14 3.31zM183 160.17c-3 0-5.13-2-5.13-5.39-.094-1.437.424-2.847 1.426-3.881 1.002-1.035 2.395-1.597 3.834-1.549 3 0 5.13 2.07 5.13 5.41.088 1.434-.432 2.838-1.434 3.868-1.001 1.03-2.39 1.59-3.826 1.542zm0-8.73c-1.69 0-2.62 1.36-2.62 3.32 0 1.96 1 3.3 2.66 3.3 1.66 0 2.6-1.32 2.6-3.28 0-1.96-.94-3.34-2.64-3.34zM197 159.84v-6.18c0-1.49-.59-2-1.76-2-.846.038-1.647.395-2.24 1v7.23h-2.6v-10.1l2.6-.35V151c.838-.985 2.048-1.576 3.34-1.63 2 0 3.26 1.32 3.26 3.5v7l-2.6-.03zM213.06 159.84L210.33 159.84 206.55 146.09 209.41 146.09 211.8 156.57 214.67 146.09 217.75 146.09 220.65 156.57 223 146.09 225.72 146.09 222 159.84 219.2 159.84 216.2 149.22zM234.27 159.84v-6.18c0-1.49-.6-2-1.7-2-.869.029-1.695.386-2.31 1v7.23h-2.59v-14.74l2.59-.36V151c.868-.998 2.118-1.582 3.44-1.61 1.95 0 3.16 1.32 3.16 3.5v7l-2.59-.05zM241.53 155.33c.012.772.34 1.506.906 2.03.567.526 1.323.796 2.094.75 1.12-.02 2.216-.342 3.17-.93l.33 2.16c-1.139.567-2.398.852-3.67.83-3.26 0-5.42-2.06-5.42-5.3-.105-1.443.405-2.863 1.402-3.91.998-1.047 2.392-1.625 3.838-1.59 1.127-.107 2.244.29 3.05 1.085.807.795 1.22 1.906 1.13 3.035-.002.57-.076 1.138-.22 1.69l-6.64.09.03.06zm4.42-1.6v-.18c0-1.36-.6-2.22-1.94-2.22-1.319.042-2.378 1.101-2.42 2.42l4.36-.02zM252.5 155.33c.015.771.343 1.503.91 2.028.565.524 1.32.796 2.09.752 1.12-.022 2.215-.343 3.17-.93l.33 2.16c-1.142.569-2.404.853-3.68.83-1.45.122-2.88-.393-3.92-1.41-1.038-1.019-1.582-2.438-1.49-3.89-.105-1.443.405-2.863 1.402-3.91.998-1.047 2.392-1.625 3.838-1.59 1.127-.107 2.244.29 3.05 1.085.807.795 1.22 1.906 1.13 3.035-.002.57-.076 1.138-.22 1.69l-6.65.09.04.06zm4.43-1.6v-.18c0-1.36-.6-2.22-1.94-2.22-1.319.042-2.378 1.101-2.42 2.42l4.36-.02zM261.52 159.84L261.52 145.15 264.12 144.79 264.12 159.84zM270 160.2c-1.37-.007-2.718-.332-3.94-.95l.57-2c1.05.588 2.227.91 3.43.94 1 0 1.68-.42 1.68-1.12 0-.7-.86-1.08-2-1.36-1.91-.44-3.43-1.24-3.43-3.15s1.6-3.17 4.05-3.17c1.275.003 2.534.283 3.69.82l-.57 2c-.991-.505-2.079-.791-3.19-.84-.95 0-1.52.35-1.52 1s.86 1 2.05 1.33c1.93.46 3.45 1.21 3.45 3.19s-1.64 3.31-4.27 3.31zM286.71 158.68c-.66.925-1.723 1.478-2.86 1.49-.8.055-1.588-.22-2.18-.76-.593-.54-.94-1.298-.96-2.1 0-1.87 1.36-3.45 6-3.6v-.25c0-1.36-.57-1.93-2-1.93-1.195.08-2.351.45-3.37 1.08l-.53-2.05c1.286-.767 2.753-1.177 4.25-1.19 3.13 0 4.34 1.39 4.27 4.18v3.63c0 .77.13.88.9.93l-.2 1.95c-1.93.22-2.83-.37-3.21-1.38h-.11zm0-3.61c-2.53.31-3.45.81-3.45 1.89.005.384.174.748.465 1 .29.252.674.368 1.055.32.74-.002 1.443-.322 1.93-.88v-2.33zM298.57 159.84v-6.18c0-1.49-.59-2-1.76-2-.846.038-1.647.395-2.24 1v7.23H292v-10.1l2.6-.35V151c.838-.985 2.048-1.576 3.34-1.63 2 0 3.26 1.32 3.26 3.5v7l-2.63-.03zM310.56 145.15l2.6-.36v15.05h-2.6v-1c-.738.806-1.768 1.282-2.86 1.32-2.68 0-4.42-2.17-4.42-5.32-.088-1.418.412-2.81 1.383-3.846.97-1.038 2.326-1.628 3.747-1.634.729.006 1.453.117 2.15.33v-4.54zm-1.91 6.29c-1.74 0-2.73 1.43-2.73 3.3 0 1.87 1 3.23 2.55 3.23.78.013 1.532-.285 2.09-.83V152c-.56-.388-1.23-.585-1.91-.56zM325.48 160.17c-3 0-5.13-2-5.13-5.39-.094-1.437.424-2.847 1.426-3.881 1.002-1.035 2.395-1.597 3.834-1.549 3 0 5.13 2.07 5.13 5.41.088 1.434-.432 2.838-1.434 3.868-1.001 1.03-2.39 1.59-3.826 1.542zm0-8.73c-1.69 0-2.62 1.36-2.62 3.32 0 1.96 1 3.3 2.66 3.3 1.66 0 2.6-1.32 2.6-3.28 0-1.96-.93-3.34-2.6-3.34h-.04zM335.42 149.7v6.18c0 1.5.62 2 1.72 2 .824-.005 1.616-.319 2.22-.88v-7.3H342v10.08l-2.6.35v-1.5c-.856.954-2.069 1.511-3.35 1.54-2 0-3.19-1.32-3.19-3.49v-7l2.56.02zM347.32 159.84h-2.6v-10.07l2.6-.38V151c.483-1.02 1.511-1.67 2.64-1.67.634-.013 1.26.146 1.81.46l-.58 2.34c-.44-.258-.94-.396-1.45-.4-1.081.096-2.017.792-2.42 1.8v6.31zM360.3 155.33c.012.772.34 1.506.906 2.03.567.526 1.323.796 2.094.75 1.12-.022 2.215-.343 3.17-.93l.33 2.16c-1.142.569-2.404.853-3.68.83-1.45.122-2.88-.393-3.92-1.41-1.038-1.019-1.582-2.438-1.49-3.89-.105-1.443.405-2.863 1.402-3.91.998-1.047 2.392-1.625 3.838-1.59 1.127-.107 2.244.29 3.05 1.085.807.795 1.22 1.906 1.13 3.035-.002.57-.076 1.138-.22 1.69l-6.65.09.04.06zm4.42-1.6v-.18c0-1.36-.59-2.22-1.93-2.22-1.319.042-2.378 1.101-2.42 2.42l4.35-.02zM372.38 159.84h-2.6v-7.92l-1.76-.13.09-1.65 1.65-.48v-.86c.07-2.91 1.41-4.05 3.68-4.05.823.01 1.635.184 2.39.51 0 0-.55 2.24-.55 2.22-.513-.257-1.076-.4-1.65-.42-.94 0-1.34.55-1.34 1.81v.9h4.86v-1.19c.06-2.91 1.38-4.05 3.65-4.05.826.01 1.642.183 2.4.51 0 0-.53 2.24-.53 2.22-.523-.251-1.09-.394-1.67-.42-.95 0-1.34.55-1.34 1.8v1.13h3l-.06 2.13h-2.89v7.94h-2.51v-7.94h-4.82v7.94zM388.88 160.17c-3 0-5.13-2-5.13-5.39-.094-1.437.424-2.847 1.426-3.881 1.002-1.035 2.395-1.597 3.834-1.549 3 0 5.13 2.07 5.13 5.41.088 1.434-.432 2.838-1.434 3.868-1.001 1.03-2.39 1.59-3.826 1.542zm0-8.73c-1.69 0-2.62 1.36-2.62 3.32 0 1.96 1 3.3 2.67 3.3s2.59-1.32 2.59-3.28c0-1.96-.93-3.34-2.6-3.34h-.04zM398.91 159.84h-2.6v-10.07l2.6-.38V151c.483-1.02 1.511-1.67 2.64-1.67.63-.013 1.253.146 1.8.46l-.57 2.34c-.44-.257-.94-.395-1.45-.4-1.081.096-2.017.792-2.42 1.8v6.31zM408.72 160.17c-2.27 0-3.45-1-3.37-3.43l.16-4.77-1.59-.18.07-1.65 1.58-.51.05-2.24h2.51l-.05 2.38h2.86l-.06 2.13h-2.95l-.13 4.69c-.065.375.054.758.319 1.03.265.274.644.403 1.021.35.54-.016 1.072-.118 1.58-.3l.36 2.11c-.758.264-1.557.396-2.36.39zM416.16 160.2c-1.37-.007-2.718-.332-3.94-.95l.57-2c1.05.588 2.227.91 3.43.94 1 0 1.67-.42 1.67-1.12 0-.7-.85-1.08-2-1.36-1.92-.44-3.43-1.24-3.43-3.15s1.6-3.17 4-3.17c1.278.004 2.54.283 3.7.82l-.57 2c-.991-.505-2.079-.791-3.19-.84-.95 0-1.52.35-1.52 1s.86 1 2.05 1.33c1.93.46 3.45 1.21 3.45 3.19s-1.63 3.31-4.22 3.31zM431.09 160.17c-2.26 0-3.45-1-3.36-3.43l.15-4.77-1.58-.18.06-1.65 1.59-.51v-2.24h2.51v2.38h2.86l-.07 2.13h-2.95l-.13 4.69c-.065.375.054.758.319 1.03.265.274.644.403 1.021.35.542-.017 1.079-.118 1.59-.3l.35 2.11c-.758.264-1.557.396-2.36.39zM439.81 160.17c-3 0-5.13-2-5.13-5.39-.094-1.437.424-2.847 1.426-3.881 1.002-1.035 2.395-1.597 3.834-1.549 3 0 5.13 2.07 5.13 5.41.088 1.434-.432 2.838-1.434 3.868-1.001 1.03-2.39 1.59-3.826 1.542zm0-8.73c-1.69 0-2.62 1.36-2.62 3.32 0 1.96 1 3.3 2.67 3.3s2.59-1.32 2.59-3.28c0-1.96-.93-3.34-2.6-3.34h-.04zM465 159.84v-6.16c0-1.49-.6-2-1.67-2-.793.03-1.547.35-2.12.9v7.28h-2.59v-6.16c0-1.49-.58-2-1.65-2-.79-.01-1.551.292-2.12.84v7.34h-2.59v-10.1l2.59-.35v1.43c.832-.912 2.006-1.437 3.24-1.45 1.196-.054 2.3.64 2.77 1.74.896-1.073 2.212-1.708 3.61-1.74 1.91 0 3.12 1.32 3.12 3.52v7l-2.59-.09zM472.23 155.33c.015.771.343 1.503.91 2.028.565.524 1.32.796 2.09.752 1.12-.022 2.215-.343 3.17-.93l.33 2.16c-1.142.569-2.404.853-3.68.83-1.45.122-2.88-.393-3.92-1.41-1.038-1.019-1.582-2.438-1.49-3.89-.105-1.443.405-2.863 1.402-3.91.998-1.047 2.392-1.625 3.838-1.59 1.127-.107 2.244.29 3.05 1.085.807.795 1.22 1.906 1.13 3.035-.002.57-.076 1.138-.22 1.69l-6.65.09.04.06zm4.43-1.6v-.18c0-1.36-.6-2.22-1.94-2.22-1.319.042-2.378 1.101-2.42 2.42l4.36-.02zM483.21 155.33c.012.772.34 1.506.906 2.03.567.526 1.323.796 2.094.75 1.12-.022 2.215-.343 3.17-.93l.33 2.16c-1.142.569-2.404.853-3.68.83-1.45.122-2.88-.393-3.92-1.41-1.038-1.019-1.582-2.438-1.49-3.89-.105-1.443.405-2.863 1.402-3.91.998-1.047 2.392-1.625 3.838-1.59 1.127-.107 2.244.29 3.05 1.085.807.795 1.22 1.906 1.13 3.035-.002.57-.076 1.138-.22 1.69l-6.65.09.04.06zm4.42-1.6v-.18c0-1.36-.59-2.22-1.93-2.22-1.319.042-2.378 1.101-2.42 2.42l4.35-.02zM495.82 160.17c-2.27 0-3.46-1-3.37-3.43l.16-4.77-1.59-.18.07-1.65 1.58-.51v-2.24h2.51v2.38H498v2.13h-3l-.14 4.69c-.06.376.06.758.327 1.03.266.273.646.402 1.023.35.539-.018 1.072-.12 1.58-.3l.35 2.11c-.746.261-1.53.393-2.32.39zM508.71 160.17c-2.27 0-3.46-1-3.37-3.43l.16-4.77-1.59-.18.07-1.65 1.58-.51.05-2.24h2.51v2.38h2.86l-.06 2.13h-3l-.13 4.69c-.065.375.054.758.319 1.03.265.274.644.403 1.021.35.54-.017 1.072-.119 1.58-.3l.35 2.11c-.755.264-1.55.396-2.35.39zM519.6 159.84v-6.18c0-1.49-.59-2-1.69-2-.872.027-1.701.384-2.32 1v7.23H513v-14.74l2.59-.36V151c.868-.998 2.118-1.582 3.44-1.61 2 0 3.17 1.32 3.17 3.5v7l-2.6-.05zM526.86 155.33c.012.772.34 1.506.906 2.03.567.526 1.323.796 2.094.75 1.12-.02 2.216-.342 3.17-.93l.33 2.16c-1.139.567-2.398.852-3.67.83-1.45.122-2.88-.393-3.92-1.41-1.038-1.019-1.582-2.438-1.49-3.89-.105-1.441.403-2.86 1.399-3.906.996-1.047 2.387-1.626 3.831-1.594 1.128-.11 2.247.285 3.055 1.081.807.796 1.22 1.91 1.125 3.039-.002.57-.076 1.138-.22 1.69l-6.64.09.03.06zm4.42-1.6v-.18c0-1.36-.59-2.22-1.94-2.22-1.317.046-2.374 1.103-2.42 2.42l4.36-.02zM547.49 159.84v-6.18c0-1.49-.59-2-1.76-2-.846.041-1.645.398-2.24 1v7.23h-2.6v-10.1l2.6-.35V151c.838-.985 2.048-1.576 3.34-1.63 2 0 3.26 1.32 3.26 3.5v7l-2.6-.03zM554.75 155.33c.012.772.34 1.506.906 2.03.567.526 1.323.796 2.094.75 1.12-.022 2.215-.343 3.17-.93l.33 2.16c-1.142.569-2.404.853-3.68.83-1.45.122-2.88-.393-3.92-1.41-1.038-1.019-1.582-2.438-1.49-3.89-.105-1.443.405-2.863 1.402-3.91.998-1.047 2.392-1.625 3.838-1.59 1.127-.107 2.244.29 3.05 1.085.807.795 1.22 1.906 1.13 3.035-.002.57-.076 1.138-.22 1.69l-6.65.09.04.06zm4.43-1.6v-.18c0-1.36-.6-2.22-1.94-2.22-1.319.042-2.378 1.101-2.42 2.42l4.36-.02zM565.73 155.33c.012.772.34 1.506.906 2.03.567.526 1.323.796 2.094.75 1.12-.023 2.215-.344 3.17-.93l.33 2.16c-1.142.569-2.404.853-3.68.83-1.45.122-2.88-.393-3.92-1.41-1.038-1.019-1.582-2.438-1.49-3.89-.105-1.443.405-2.863 1.402-3.91.998-1.047 2.392-1.625 3.838-1.59 1.127-.107 2.244.29 3.05 1.085.807.795 1.22 1.906 1.13 3.035-.002.57-.076 1.138-.22 1.69l-6.65.09.04.06zm4.42-1.6v-.18c0-1.36-.59-2.22-1.93-2.22-1.319.042-2.378 1.101-2.42 2.42l4.35-.02zM581.44 145.15l2.6-.36v15.05h-2.6v-1c-.739.804-1.769 1.28-2.86 1.32-2.69 0-4.42-2.17-4.42-5.32-.091-1.417.407-2.808 1.376-3.846.97-1.037 2.324-1.629 3.744-1.634.732.005 1.46.116 2.16.33v-4.54zm-1.92 6.29c-1.73 0-2.72 1.43-2.72 3.3 0 1.87 1 3.23 2.55 3.23.78.013 1.532-.285 2.09-.83V152c-.564-.387-1.237-.583-1.92-.56zM590 160.2c-1.369-.009-2.717-.334-3.94-.95l.57-2c1.054.587 2.234.91 3.44.94 1 0 1.67-.42 1.67-1.12 0-.7-.86-1.08-2.05-1.36-1.91-.44-3.43-1.24-3.43-3.15s1.61-3.17 4-3.17c1.278.005 2.54.284 3.7.82l-.58 2c-.99-.506-2.079-.792-3.19-.84-.94 0-1.51.35-1.51 1s.85 1 2 1.33c1.94.46 3.46 1.21 3.46 3.19s-1.59 3.31-4.14 3.31zM123.72 188.17c-3 0-5.13-2-5.13-5.39-.094-1.437.424-2.847 1.426-3.881 1.002-1.035 2.395-1.597 3.834-1.549 3 0 5.13 2.07 5.13 5.41.088 1.434-.432 2.838-1.434 3.868-1.001 1.03-2.39 1.59-3.826 1.542zm0-8.73c-1.69 0-2.62 1.36-2.62 3.32 0 1.96 1 3.3 2.67 3.3s2.59-1.32 2.59-3.28c0-1.96-.93-3.34-2.6-3.34h-.04zM137.14 175.26c-.515-.254-1.077-.397-1.65-.42-1 0-1.34.55-1.34 1.8v1.13h3l-.07 2.13h-2.88v7.94h-2.59v-7.92l-1.76-.13.08-1.65 1.65-.48v-1.08c.06-2.91 1.4-4.05 3.67-4.05.826.012 1.64.185 2.4.51 0 0-.51 2.24-.51 2.22zM148.25 188.17c-3 0-5.13-2-5.13-5.39-.094-1.437.424-2.847 1.426-3.881 1.002-1.035 2.395-1.597 3.834-1.549 3 0 5.13 2.07 5.13 5.41.088 1.434-.432 2.838-1.434 3.868-1.001 1.03-2.39 1.59-3.826 1.542zm0-8.73c-1.69 0-2.62 1.36-2.62 3.32 0 1.96 1 3.3 2.67 3.3s2.59-1.32 2.59-3.28c0-1.96-.89-3.34-2.6-3.34h-.04zM158.19 177.7v6.18c0 1.5.62 2 1.72 2 .824-.003 1.617-.317 2.22-.88v-7.3h2.6v10.08l-2.6.35v-1.5c-.853.952-2.062 1.51-3.34 1.54-2 0-3.2-1.32-3.2-3.49v-7l2.6.02zM170.09 187.84h-2.59v-10.07l2.59-.38V179c.483-1.02 1.511-1.67 2.64-1.67.634-.013 1.26.146 1.81.46l-.57 2.34c-.444-.256-.947-.394-1.46-.4-1.08.098-2.015.793-2.42 1.8v6.31zM187.71 187.84v-6.18c0-1.49-.59-2-1.69-2-.87.027-1.696.384-2.31 1v7.23h-2.6v-14.74l2.6-.36V179c.863-1 2.11-1.585 3.43-1.61 2 0 3.17 1.32 3.17 3.5v7l-2.6-.05zM197.55 188.17c-3 0-5.13-2-5.13-5.39-.094-1.437.424-2.847 1.426-3.881 1.002-1.035 2.395-1.597 3.834-1.549 3 0 5.13 2.07 5.13 5.41.088 1.434-.432 2.838-1.434 3.868-1.001 1.03-2.39 1.59-3.826 1.542zm0-8.73c-1.69 0-2.62 1.36-2.62 3.32 0 1.96 1 3.3 2.67 3.3s2.59-1.32 2.59-3.28c0-1.96-.93-3.34-2.6-3.34h-.04zM217.72 187.84v-6.16c0-1.49-.59-2-1.67-2-.79.03-1.541.351-2.11.9v7.28h-2.6v-6.16c0-1.49-.57-2-1.65-2-.786-.007-1.544.294-2.11.84v7.34H205v-10.1l2.6-.35v1.43c.83-.91 1.999-1.435 3.23-1.45 1.198-.053 2.304.64 2.78 1.74.893-1.072 2.205-1.706 3.6-1.74 1.92 0 3.13 1.32 3.13 3.52v7l-2.62-.09zM225 183.33c.012.772.34 1.506.906 2.03.567.526 1.323.796 2.094.75 1.118-.022 2.209-.343 3.16-.93l.33 2.16c-1.138.569-2.398.853-3.67.83-1.45.122-2.88-.393-3.92-1.41-1.038-1.019-1.582-2.438-1.49-3.89-.105-1.441.403-2.86 1.399-3.906.996-1.047 2.387-1.626 3.831-1.594 1.128-.11 2.247.285 3.055 1.081.807.796 1.22 1.91 1.125 3.039.003.57-.071 1.14-.22 1.69l-6.64.09.04.06zm4.42-1.6v-.18c0-1.36-.59-2.22-1.93-2.22-1.32.041-2.383 1.1-2.43 2.42l4.36-.02zM238.73 188.15c-.77-.009-1.534-.126-2.27-.35l-2.48.37v-15l2.59-.36v5.88c.737-.792 1.759-1.26 2.84-1.3 2.69 0 4.45 2.18 4.45 5.3.082 1.415-.42 2.8-1.39 3.833-.97 1.033-2.323 1.621-3.74 1.627zm-.06-8.6c-.78.003-1.53.3-2.1.83v5.13c.559.399 1.234.6 1.92.57 1.74 0 2.73-1.4 2.73-3.3s-.95-3.23-2.55-3.23zM250.5 188.17c-3 0-5.13-2-5.13-5.39-.094-1.437.424-2.847 1.426-3.881 1.002-1.035 2.395-1.597 3.834-1.549 3 0 5.13 2.07 5.13 5.41.088 1.434-.432 2.838-1.434 3.868-1.001 1.03-2.39 1.59-3.826 1.542zm0-8.73c-1.69 0-2.61 1.36-2.61 3.32 0 1.96 1 3.3 2.66 3.3 1.66 0 2.6-1.32 2.6-3.28 0-1.96-.93-3.34-2.61-3.34h-.04zM260.44 177.7v6.18c0 1.5.62 2 1.72 2 .824-.003 1.617-.317 2.22-.88v-7.3H267v10.08l-2.6.35v-1.5c-.85.955-2.061 1.513-3.34 1.54-2 0-3.19-1.32-3.19-3.49v-7l2.57.02zM276.35 187.84v-6.18c0-1.49-.59-2-1.76-2-.846.038-1.647.395-2.24 1v7.23h-2.6v-10.1l2.6-.35V179c.838-.985 2.048-1.576 3.34-1.63 2.05 0 3.26 1.32 3.26 3.5v7l-2.6-.03zM288.34 173.15l2.6-.36v15.05h-2.6v-1c-.739.804-1.769 1.28-2.86 1.32-2.69 0-4.42-2.17-4.42-5.32-.091-1.417.407-2.808 1.376-3.846.97-1.037 2.324-1.629 3.744-1.634.732.005 1.46.116 2.16.33v-4.54zm-1.91 6.29c-1.74 0-2.73 1.43-2.73 3.3 0 1.87 1 3.23 2.55 3.23.78.013 1.532-.285 2.09-.83V180c-.56-.387-1.23-.583-1.91-.56zM303.39 188.17c-3.3 0-5.26-2-5.26-5.36-.105-1.455.42-2.885 1.441-3.926 1.022-1.041 2.442-1.592 3.899-1.514 1.223-.034 2.432.263 3.5.86l-.55 2.09c-.82-.528-1.774-.812-2.75-.82-1.87 0-2.88 1.28-2.88 3.24 0 1.96 1.21 3.26 2.88 3.26.996.009 1.974-.265 2.82-.79l.42 2.11c-1.078.587-2.292.88-3.52.85zM313.53 188.17c-3 0-5.13-2-5.13-5.39-.094-1.437.424-2.847 1.426-3.881 1.002-1.035 2.395-1.597 3.834-1.549 3 0 5.13 2.07 5.13 5.41.088 1.434-.432 2.838-1.434 3.868-1.001 1.03-2.39 1.59-3.826 1.542zm0-8.73c-1.69 0-2.61 1.36-2.61 3.32 0 1.96 1 3.3 2.66 3.3 1.66 0 2.59-1.32 2.59-3.28 0-1.96-.92-3.34-2.6-3.34h-.04zM333.7 187.84v-6.16c0-1.49-.59-2-1.67-2-.79.033-1.54.353-2.11.9v7.28h-2.6v-6.16c0-1.49-.57-2-1.65-2-.786-.007-1.544.294-2.11.84v7.34H321v-10.1l2.6-.35v1.43c.83-.91 1.999-1.435 3.23-1.45 1.198-.053 2.304.64 2.78 1.74.896-1.073 2.212-1.708 3.61-1.74 1.91 0 3.12 1.32 3.12 3.52v7l-2.64-.09zM351.72 187.84v-6.16c0-1.49-.59-2-1.67-2-.79.03-1.541.351-2.11.9v7.28h-2.6v-6.16c0-1.49-.57-2-1.65-2-.786-.007-1.544.294-2.11.84v7.34H339v-10.1l2.6-.35v1.43c.828-.911 1.999-1.437 3.23-1.45 1.196-.054 2.3.64 2.77 1.74.899-1.07 2.213-1.704 3.61-1.74 1.92 0 3.13 1.32 3.13 3.52v7l-2.62-.09zM359.51 177.7v6.18c0 1.5.61 2 1.71 2 .827-.003 1.623-.317 2.23-.88v-7.3H366v10.08l-2.59.35v-1.5c-.856.954-2.069 1.511-3.35 1.54-2 0-3.19-1.32-3.19-3.49v-7l2.64.02zM375.41 187.84v-6.18c0-1.49-.59-2-1.76-2-.846.041-1.645.398-2.24 1v7.23h-2.6v-10.1l2.6-.35V179c.838-.985 2.048-1.576 3.34-1.63 2.05 0 3.26 1.32 3.26 3.5v7l-2.6-.03zM382 175.85c-.862 0-1.56-.698-1.56-1.56 0-.862.698-1.56 1.56-1.56.862 0 1.56.698 1.56 1.56 0 .862-.698 1.56-1.56 1.56zm-1.3 12v-10.08l2.6-.38v10.45l-2.6.01zM389.67 188.17c-2.27 0-3.46-1-3.37-3.43l.16-4.77-1.59-.18.07-1.65 1.58-.51.05-2.24h2.51l-.05 2.38h2.86l-.06 2.13h-2.95l-.13 4.69c-.065.375.054.758.319 1.03.265.274.644.403 1.021.35.54-.017 1.072-.119 1.58-.3l.35 2.11c-.755.264-1.55.396-2.35.39zM399.17 187.65l-.59 1.58c-1 2.77-2.16 3.61-4 3.61-.89-.007-1.767-.208-2.57-.59l.77-2.14c.489.282 1.037.446 1.6.48.75 0 1.15-.33 1.7-1.71l.44-1.17-4-10h2.79l2.53 7.26 2.42-7.26h2.78l-3.87 9.94zM404.89 188.17c-.64.05-1.254-.265-1.59-.813-.334-.547-.334-1.237 0-1.784.336-.548.95-.862 1.59-.813.64-.05 1.254.265 1.59.813.334.547.334 1.237 0 1.784-.336.548-.95.862-1.59.813zM416.9 180.41L422.1 174.09 425.29 174.09 419.39 180.85 425.39 187.85 422.1 187.85 416.9 181.56 416.9 181.56 416.9 187.85 414.2 187.85 414.2 174.09 416.88 174.09 416.88 180.41zM432.15 186.68c-.664.921-1.725 1.474-2.86 1.49-.802.058-1.592-.215-2.187-.756-.595-.54-.943-1.3-.963-2.104 0-1.87 1.37-3.45 6-3.6v-.25c0-1.36-.57-1.93-2-1.93-1.195.079-2.352.45-3.37 1.08l-.53-2.05c1.285-.768 2.753-1.179 4.25-1.19 3.12 0 4.33 1.39 4.27 4.18v3.63c0 .77.13.88.9.93l-.2 1.95c-1.94.22-2.84-.37-3.21-1.38h-.1zm0-3.61c-2.53.31-3.45.81-3.45 1.89.006.382.173.744.461.996.288.252.67.37 1.049.324.743 0 1.45-.32 1.94-.88v-2.33z" transform="translate(-50 -70) translate(50 70)"/>
                <path fill="#FFF" d="M442.49 187.65l-.59 1.58c-1 2.77-2.16 3.61-4 3.61-.893-.008-1.773-.209-2.58-.59l.77-2.14c.492.282 1.044.446 1.61.48.75 0 1.15-.33 1.7-1.71l.44-1.17-4-10h2.8l2.53 7.26 2.42-7.26h2.77l-3.87 9.94zM459.32 187.84v-6.18c0-1.49-.6-2-1.7-2-.869.029-1.695.386-2.31 1v7.23h-2.59v-14.74l2.59-.36V179c.868-.998 2.118-1.582 3.44-1.61 2 0 3.17 1.32 3.17 3.5v7l-2.6-.05zM470 186.68c-.666.924-1.731 1.477-2.87 1.49-.8.055-1.588-.22-2.18-.76-.593-.54-.94-1.298-.96-2.1 0-1.87 1.36-3.45 6-3.6v-.25c0-1.36-.58-1.93-2-1.93-1.195.08-2.351.45-3.37 1.08l-.52-2.05c1.282-.768 2.746-1.179 4.24-1.19 3.13 0 4.34 1.39 4.27 4.18v3.63c0 .77.13.88.9.93l-.19 1.95c-1.94.22-2.84-.37-3.22-1.38h-.1zm0-3.61c-2.53.31-3.46.81-3.46 1.89.005.384.174.748.465 1 .29.252.674.368 1.055.32.742-.004 1.448-.324 1.94-.88v-2.33zM478.35 188.2c-1.37-.007-2.718-.332-3.94-.95l.57-2c1.053.588 2.234.91 3.44.94 1 0 1.67-.42 1.67-1.12 0-.7-.86-1.08-2.05-1.36-1.91-.44-3.43-1.24-3.43-3.15s1.6-3.17 4-3.17c1.275.003 2.534.283 3.69.82l-.57 2c-.991-.505-2.079-.791-3.19-.84-1 0-1.52.35-1.52 1s.86 1 2 1.33c1.94.46 3.45 1.21 3.45 3.19s-1.47 3.31-4.12 3.31zM489.13 186.5c.105-1.036.856-1.892 1.87-2.13-1.166-.602-1.885-1.818-1.85-3.13 0-2.09 1.65-3.87 4.47-3.87.987.016 1.96.234 2.86.64l2.73-.24.11 2.26-1.94-.33c.303.475.463 1.027.46 1.59 0 2.07-1.74 3.69-4.24 3.69-.469.004-.936-.053-1.39-.17-.35.13-.79.46-.79.88s.46.79 2.09.79h1c2.91 0 4.56.81 4.56 2.79 0 2.4-2.71 4-5.92 4-2.69 0-4.82-1-4.82-2.81.062-1.232 1.058-2.21 2.29-2.25-.803-.206-1.396-.886-1.49-1.71zm1.6 3.48c0 .94 1.17 1.6 2.89 1.6 1.72 0 3.14-.66 3.14-1.71 0-1.05-.92-1.17-2.81-1.17-.64 0-1.52 0-1.94-.09-.72.27-1.28.75-1.28 1.39v-.02zm2.91-6.69c1.17 0 1.83-.84 1.83-2.11.067-.542-.112-1.085-.487-1.482s-.908-.605-1.453-.568c-.544.001-1.062.237-1.42.646-.358.41-.522.955-.45 1.494-.052.543.139 1.08.52 1.47.382.39.916.59 1.46.55zM502 175.85c-.862 0-1.56-.698-1.56-1.56 0-.862.698-1.56 1.56-1.56.862 0 1.56.698 1.56 1.56 0 .862-.698 1.56-1.56 1.56zm-1.3 12v-10.08l2.6-.38v10.45l-2.6.01zM511.35 187.87L508.58 187.87 504.7 177.7 507.48 177.7 510.03 185.12 512.47 177.7 515.27 177.7zM518.48 183.33c.012.772.34 1.506.906 2.03.567.526 1.323.796 2.094.75 1.12-.02 2.216-.342 3.17-.93l.33 2.16c-1.139.567-2.398.852-3.67.83-3.26 0-5.42-2.06-5.42-5.3-.105-1.443.405-2.863 1.402-3.91.998-1.047 2.392-1.625 3.838-1.59 1.127-.107 2.244.29 3.05 1.085.807.795 1.22 1.906 1.13 3.035-.002.57-.076 1.138-.22 1.69l-6.64.09.03.06zm4.42-1.6v-.18c0-1.36-.6-2.22-1.94-2.22-1.319.042-2.378 1.101-2.42 2.42l4.36-.02zM534.1 187.84v-6.18c0-1.49-.6-2-1.76-2-.85.039-1.652.396-2.25 1v7.23h-2.59v-10.1l2.59-.35V179c.84-.986 2.055-1.577 3.35-1.63 2 0 3.25 1.32 3.25 3.5v7l-2.59-.03zM549 188.17c-3 0-5.13-2-5.13-5.39-.097-1.438.42-2.85 1.422-3.885 1.003-1.035 2.398-1.596 3.838-1.545 3 0 5.12 2.07 5.12 5.41.091 1.433-.427 2.837-1.427 3.868-1 1.03-2.388 1.59-3.823 1.542zm0-8.73c-1.7 0-2.62 1.36-2.62 3.32 0 1.96 1 3.3 2.66 3.3 1.66 0 2.6-1.32 2.6-3.28 0-1.96-.98-3.34-2.64-3.34zM558.89 177.7v6.18c0 1.5.61 2 1.71 2 .827-.003 1.623-.317 2.23-.88v-7.3h2.59v10.08l-2.59.35v-1.5c-.856.954-2.069 1.511-3.35 1.54-2 0-3.19-1.32-3.19-3.49v-7l2.6.02zM570.79 187.84h-2.6v-10.07l2.6-.38V179c.483-1.02 1.511-1.67 2.64-1.67.63-.013 1.253.146 1.8.46l-.57 2.34c-.44-.257-.94-.395-1.45-.4-1.081.096-2.017.792-2.42 1.8v6.31zM121.08 215.89L118.08 205.7 120.79 205.7 122.55 212.83 124.55 205.72 127.15 205.72 129.33 212.79 130.85 205.7 133.6 205.7 130.6 215.89 128.05 215.89 125.78 208.76 123.58 215.89zM137.8 215.84h-2.6v-10.07l2.6-.38V207c.483-1.02 1.511-1.67 2.64-1.67.63-.012 1.252.147 1.8.46l-.57 2.34c-.44-.257-.94-.395-1.45-.4-1.081.096-2.017.792-2.42 1.8v6.31zM145.1 203.85c-.862 0-1.56-.698-1.56-1.56 0-.862.698-1.56 1.56-1.56.862 0 1.56.698 1.56 1.56 0 .862-.698 1.56-1.56 1.56zm-1.3 12v-10.08l2.6-.38v10.45l-2.6.01zM152.76 216.17c-2.27 0-3.46-1-3.37-3.43l.15-4.77-1.58-.18.07-1.65 1.58-.51v-2.24h2.5v2.38H155l-.07 2.13H152l-.14 4.69c-.06.376.06.758.327 1.03.266.273.646.402 1.023.35.539-.018 1.072-.12 1.58-.3l.35 2.11c-.764.268-1.57.4-2.38.39zM160.63 216.17c-2.26 0-3.45-1-3.36-3.43l.15-4.77-1.58-.18.06-1.65 1.59-.51v-2.24H160v2.38h2.86l-.07 2.13h-2.95l-.13 4.69c-.065.375.054.758.319 1.03.265.274.644.403 1.021.35.542-.017 1.079-.118 1.59-.3l.35 2.11c-.758.264-1.557.396-2.36.39zM166.77 211.33c.012.772.34 1.506.906 2.03.567.526 1.323.796 2.094.75 1.12-.022 2.215-.343 3.17-.93l.33 2.16c-1.142.569-2.404.853-3.68.83-1.45.122-2.88-.393-3.92-1.41-1.038-1.019-1.582-2.438-1.49-3.89-.105-1.443.405-2.863 1.402-3.91.998-1.047 2.392-1.625 3.838-1.59 1.127-.107 2.244.29 3.05 1.085.807.795 1.22 1.906 1.13 3.035-.002.57-.076 1.138-.22 1.69l-6.65.09.04.06zm4.43-1.6v-.18c0-1.36-.6-2.22-1.94-2.22-1.319.042-2.378 1.101-2.42 2.42l4.36-.02zM182.39 215.84v-6.18c0-1.49-.59-2-1.76-2-.84.025-1.639.364-2.24.95v7.23h-2.6v-10.1l2.6-.35V207c.838-.985 2.048-1.576 3.34-1.63 2.05 0 3.26 1.32 3.26 3.5v7l-2.6-.03zM205.45 215.84v-6.16c0-1.49-.6-2-1.67-2-.793.03-1.547.35-2.12.9v7.28h-2.59v-6.16c0-1.49-.57-2-1.65-2-.79-.01-1.551.292-2.12.84v7.34h-2.59v-10.1l2.59-.35v1.43c.834-.91 2.006-1.435 3.24-1.45 1.196-.054 2.3.64 2.77 1.74.896-1.073 2.212-1.708 3.61-1.74 1.91 0 3.12 1.32 3.12 3.52v6.95l-2.59-.04zM216.05 214.68c-.664.921-1.725 1.474-2.86 1.49-.802.058-1.592-.215-2.187-.756-.595-.54-.943-1.3-.963-2.104 0-1.87 1.37-3.45 6-3.6v-.25c0-1.36-.57-1.93-2-1.93-1.195.079-2.352.45-3.37 1.08l-.53-2.05c1.285-.768 2.753-1.179 4.25-1.19 3.12 0 4.33 1.39 4.27 4.18v3.63c0 .77.13.88.9.93l-.2 1.95c-1.93.22-2.84-.37-3.21-1.38h-.1zm0-3.61c-2.53.31-3.45.81-3.45 1.89.006.382.173.744.461.996.288.252.67.37 1.049.324.743 0 1.45-.32 1.94-.88v-2.33zM224.89 216.17c-2.26 0-3.45-1-3.36-3.43l.15-4.77-1.58-.18.06-1.65 1.59-.51v-2.24h2.51v2.38h2.86l-.07 2.13h-2.95l-.13 4.69c-.065.375.054.758.319 1.03.265.274.644.403 1.021.35.542-.017 1.079-.118 1.59-.3l.35 2.11c-.758.264-1.557.396-2.36.39zM231 211.33c.012.772.34 1.506.906 2.03.567.526 1.323.796 2.094.75 1.12-.022 2.215-.343 3.17-.93l.33 2.16c-1.142.569-2.404.853-3.68.83-1.45.122-2.88-.393-3.92-1.41-1.038-1.019-1.582-2.438-1.49-3.89-.105-1.443.405-2.863 1.402-3.91.998-1.047 2.392-1.625 3.838-1.59 1.127-.107 2.244.29 3.05 1.085.807.795 1.22 1.906 1.13 3.035-.002.57-.076 1.138-.22 1.69l-6.65.09.04.06zm4.43-1.6v-.18c0-1.36-.6-2.22-1.94-2.22-1.319.042-2.378 1.101-2.42 2.42l4.36-.02zM242.65 215.84h-2.6v-10.07l2.6-.38V207c.483-1.02 1.511-1.67 2.64-1.67.63-.012 1.252.147 1.8.46l-.57 2.34c-.44-.257-.94-.395-1.45-.4-1.081.096-2.017.792-2.42 1.8v6.31zM250 203.85c-.862 0-1.56-.698-1.56-1.56 0-.862.698-1.56 1.56-1.56.862 0 1.56.698 1.56 1.56 0 .862-.698 1.56-1.56 1.56zm-1.3 12v-10.08l2.6-.38v10.45l-2.6.01zM259.35 214.68c-.664.921-1.725 1.474-2.86 1.49-.802.058-1.592-.215-2.187-.756-.595-.54-.943-1.3-.963-2.104 0-1.87 1.36-3.45 6-3.6v-.25c0-1.36-.58-1.93-2-1.93-1.192.079-2.346.45-3.36 1.08l-.53-2.05c1.282-.768 2.746-1.179 4.24-1.19 3.13 0 4.34 1.39 4.27 4.18v3.63c0 .77.13.88.9.93l-.19 1.95c-1.94.22-2.84-.37-3.22-1.38h-.1zm0-3.61c-2.53.31-3.46.81-3.46 1.89.009.383.179.745.468.996.29.252.671.37 1.052.324.742-.004 1.448-.324 1.94-.88v-2.33zM264.6 215.84L264.6 201.15 267.2 200.79 267.2 215.79zM273.12 216.2c-1.37-.007-2.718-.332-3.94-.95l.57-2c1.05.588 2.227.91 3.43.94 1 0 1.68-.42 1.68-1.12 0-.7-.86-1.08-2.05-1.36-1.91-.44-3.43-1.24-3.43-3.15s1.6-3.17 4.05-3.17c1.275.003 2.534.283 3.69.82l-.57 2c-.991-.505-2.079-.791-3.19-.84-.95 0-1.52.35-1.52 1s.86 1 2.05 1.33c1.93.46 3.45 1.21 3.45 3.19s-1.63 3.31-4.22 3.31zM289.79 214.68c-.66.925-1.723 1.478-2.86 1.49-.8.055-1.588-.22-2.18-.76-.593-.54-.94-1.298-.96-2.1 0-1.87 1.36-3.45 6-3.6v-.25c0-1.36-.57-1.93-2-1.93-1.195.08-2.351.45-3.37 1.08l-.52-2.05c1.282-.768 2.746-1.179 4.24-1.19 3.13 0 4.34 1.39 4.27 4.18v3.63c0 .77.13.88.9.93l-.2 1.95c-1.93.22-2.83-.37-3.21-1.38h-.11zm0-3.61c-2.53.31-3.45.81-3.45 1.89.005.384.174.748.465 1 .29.252.674.368 1.055.32.74-.002 1.443-.322 1.93-.88v-2.33zM305.5 205.37c2.69 0 4.45 2.18 4.45 5.3.088 1.418-.412 2.81-1.383 3.846-.97 1.038-2.326 1.628-3.747 1.634-.73.002-1.455-.092-2.16-.28v4.82h-2.59v-14.95l2.59-.35v1.28c.737-.792 1.759-1.26 2.84-1.3zm-2.84 8.14c.559.399 1.234.6 1.92.57 1.74 0 2.73-1.4 2.73-3.3s-.95-3.23-2.56-3.23c-.776.004-1.522.3-2.09.83v5.13zM314.72 215.84h-2.6v-10.07l2.6-.38V207c.483-1.02 1.511-1.67 2.64-1.67.63-.013 1.253.146 1.8.46l-.57 2.34c-.44-.257-.94-.395-1.45-.4-1.081.096-2.017.792-2.42 1.8v6.31zM325.15 216.17c-3 0-5.13-2-5.13-5.39-.094-1.437.424-2.847 1.426-3.881 1.002-1.035 2.395-1.597 3.834-1.549 3 0 5.13 2.07 5.13 5.41.088 1.434-.432 2.838-1.434 3.868-1.001 1.03-2.39 1.59-3.826 1.542zm0-8.73c-1.69 0-2.62 1.36-2.62 3.32 0 1.96 1 3.3 2.67 3.3s2.59-1.32 2.59-3.28c0-1.96-.93-3.34-2.6-3.34h-.04zM338.57 203.26c-.515-.254-1.077-.397-1.65-.42-.95 0-1.34.55-1.34 1.8v1.13h3l-.07 2.13h-2.88v7.94H333v-7.92l-1.76-.13.09-1.65 1.65-.48v-1.08c.07-2.91 1.41-4.05 3.68-4.05.826.012 1.64.185 2.4.51 0 0-.49 2.24-.49 2.22zM342.15 211.33c.012.772.34 1.506.906 2.03.567.526 1.323.796 2.094.75 1.12-.022 2.215-.343 3.17-.93l.33 2.16c-1.142.569-2.404.853-3.68.83-1.45.122-2.88-.393-3.92-1.41-1.038-1.019-1.582-2.438-1.49-3.89-.105-1.443.405-2.863 1.402-3.91.998-1.047 2.392-1.625 3.838-1.59 1.127-.107 2.244.29 3.05 1.085.807.795 1.22 1.906 1.13 3.035-.002.57-.076 1.138-.22 1.69l-6.65.09.04.06zm4.43-1.6v-.18c0-1.36-.6-2.22-1.94-2.22-1.319.042-2.378 1.101-2.42 2.42l4.36-.02zM354.32 216.2c-1.37-.007-2.718-.332-3.94-.95l.57-2c1.05.588 2.227.91 3.43.94 1 0 1.68-.42 1.68-1.12 0-.7-.86-1.08-2.05-1.36-1.91-.44-3.43-1.24-3.43-3.15s1.6-3.17 4.05-3.17c1.275.003 2.534.283 3.69.82l-.57 2c-.991-.505-2.079-.791-3.19-.84-.95 0-1.52.35-1.52 1s.86 1 2 1.33c1.93.46 3.45 1.21 3.45 3.19s-1.58 3.31-4.17 3.31zM363.8 216.2c-1.37-.007-2.718-.332-3.94-.95l.57-2c1.053.588 2.234.91 3.44.94 1 0 1.67-.42 1.67-1.12 0-.7-.86-1.08-2.05-1.36-1.91-.44-3.43-1.24-3.43-3.15s1.61-3.17 4.05-3.17c1.275.003 2.534.283 3.69.82l-.57 2c-.991-.505-2.079-.791-3.19-.84-.94 0-1.52.35-1.52 1s.86 1 2.05 1.33c1.94.46 3.45 1.21 3.45 3.19s-1.62 3.31-4.22 3.31zM371.43 203.85c-.862 0-1.56-.698-1.56-1.56 0-.862.698-1.56 1.56-1.56.862 0 1.56.698 1.56 1.56 0 .862-.698 1.56-1.56 1.56zm-1.29 12v-10.08l2.59-.38v10.45l-2.59.01zM380 216.17c-3 0-5.13-2-5.13-5.39-.094-1.437.424-2.847 1.426-3.881 1.002-1.035 2.395-1.597 3.834-1.549 3 0 5.13 2.07 5.13 5.41.088 1.434-.432 2.838-1.434 3.868-1.001 1.03-2.39 1.59-3.826 1.542zm0-8.73c-1.69 0-2.62 1.36-2.62 3.32 0 1.96 1 3.3 2.66 3.3 1.66 0 2.6-1.32 2.6-3.28 0-1.96-.89-3.34-2.56-3.34H380zM394.07 215.84v-6.18c0-1.49-.59-2-1.76-2-.84.025-1.639.364-2.24.95v7.23h-2.6v-10.1l2.6-.35V207c.838-.985 2.048-1.576 3.34-1.63 2 0 3.26 1.32 3.26 3.5v7l-2.6-.03zM404.7 214.68c-.664.921-1.725 1.474-2.86 1.49-.802.058-1.592-.215-2.187-.756-.595-.54-.943-1.3-.963-2.104 0-1.87 1.37-3.45 6-3.6v-.25c0-1.36-.57-1.93-2-1.93-1.191.08-2.345.451-3.36 1.08l-.53-2.05c1.285-.77 2.752-1.18 4.25-1.19 3.12 0 4.33 1.39 4.26 4.18v3.63c0 .77.14.88.91.93l-.2 1.95c-1.94.22-2.84-.37-3.21-1.38h-.11zm0-3.61c-2.53.31-3.46.81-3.46 1.89.009.383.179.745.468.996.29.252.671.37 1.052.324.743 0 1.45-.32 1.94-.88v-2.33zM410 215.84L410 201.15 412.59 200.79 412.59 215.79zM420.34 215.84L420.34 201.15 422.94 200.79 422.94 215.79zM430.24 216.17c-3 0-5.13-2-5.13-5.39-.094-1.437.424-2.847 1.426-3.881 1.002-1.035 2.395-1.597 3.834-1.549 3 0 5.13 2.07 5.13 5.41.088 1.434-.432 2.838-1.434 3.868-1.001 1.03-2.39 1.59-3.826 1.542zm0-8.73c-1.69 0-2.61 1.36-2.61 3.32 0 1.96 1 3.3 2.66 3.3 1.66 0 2.59-1.32 2.59-3.28 0-1.96-.88-3.34-2.6-3.34h-.04zM442.21 216.17c-3 0-5.13-2-5.13-5.39-.094-1.437.424-2.847 1.426-3.881 1.002-1.035 2.395-1.597 3.834-1.549 3 0 5.13 2.07 5.13 5.41.088 1.434-.432 2.838-1.434 3.868-1.001 1.03-2.39 1.59-3.826 1.542zm0-8.73c-1.69 0-2.62 1.36-2.62 3.32 0 1.96 1 3.3 2.67 3.3s2.59-1.32 2.59-3.28c0-1.96-.93-3.34-2.6-3.34h-.04zM452.24 211L452.24 215.88 449.64 215.88 449.64 201.15 452.24 200.79 452.24 210.21 452.24 210.21 455.87 205.7 459 205.7 454.79 210.52 459.02 215.84 455.92 215.84 452.28 211zM469.11 216.17c-2.26 0-3.45-1-3.36-3.43l.15-4.77-1.58-.18.06-1.65 1.59-.51v-2.24h2.51v2.38h2.86l-.07 2.13h-2.95l-.13 4.69c-.065.375.054.758.319 1.03.265.274.644.403 1.021.35.542-.017 1.079-.118 1.59-.3l.35 2.11c-.758.264-1.557.396-2.36.39zM480 215.84v-6.18c0-1.49-.59-2-1.69-2-.863.011-1.689.35-2.31.95v7.23h-2.6v-14.69l2.6-.36V207c.863-1 2.11-1.585 3.43-1.61 2 0 3.17 1.32 3.17 3.5v7l-2.6-.05zM490.63 214.68c-.664.921-1.725 1.474-2.86 1.49-.802.058-1.592-.215-2.187-.756-.595-.54-.943-1.3-.963-2.104 0-1.87 1.37-3.45 6-3.6v-.25c0-1.36-.57-1.93-2-1.93-1.191.08-2.345.451-3.36 1.08l-.53-2.05c1.285-.77 2.752-1.18 4.25-1.19 3.12 0 4.33 1.39 4.27 4.18v3.63c0 .77.13.88.9.93l-.2 1.95c-1.94.22-2.84-.37-3.21-1.38h-.11zm0-3.61c-2.53.31-3.46.81-3.46 1.89.009.383.179.745.468.996.29.252.671.37 1.052.324.743 0 1.45-.32 1.94-.88v-2.33zM499.47 216.17c-2.26 0-3.45-1-3.36-3.43l.15-4.77-1.58-.18.06-1.65 1.59-.51v-2.24h2.51v2.38h2.87l-.07 2.13h-3l-.13 4.69c-.065.375.054.758.319 1.03.265.274.644.403 1.021.35.54-.016 1.072-.118 1.58-.3l.36 2.11c-.746.26-1.53.392-2.32.39zM510.08 203.85c-.862 0-1.56-.698-1.56-1.56 0-.862.698-1.56 1.56-1.56.862 0 1.56.698 1.56 1.56 0 .862-.698 1.56-1.56 1.56zm-1.3 12v-10.08l2.59-.38v10.45l-2.59.01zM517.29 216.2c-1.369-.009-2.717-.334-3.94-.95l.58-2c1.05.588 2.227.91 3.43.94 1 0 1.67-.42 1.67-1.12 0-.7-.86-1.08-2-1.36-1.91-.44-3.43-1.24-3.43-3.15s1.61-3.17 4.05-3.17c1.278.005 2.54.284 3.7.82l-.58 2c-.99-.506-2.079-.792-3.19-.84-.94 0-1.51.35-1.51 1s.85 1 2 1.33c1.94.46 3.46 1.21 3.46 3.19s-1.64 3.31-4.24 3.31zM531.15 205.7v6.18c0 1.5.62 2 1.72 2 .824-.003 1.617-.317 2.22-.88v-7.3h2.6v10.08l-2.6.35v-1.5c-.853.952-2.062 1.51-3.34 1.54-2 0-3.19-1.32-3.19-3.49v-7l2.59.02zM547.06 215.84v-6.18c0-1.49-.6-2-1.76-2-.842.027-1.644.366-2.25.95v7.23h-2.59v-10.1l2.59-.35V207c.843-.984 2.056-1.574 3.35-1.63 2 0 3.26 1.32 3.26 3.5v7l-2.6-.03zM553.66 203.85c-.862 0-1.56-.698-1.56-1.56 0-.862.698-1.56 1.56-1.56.862 0 1.56.698 1.56 1.56 0 .862-.698 1.56-1.56 1.56zm-1.3 12v-10.08l2.6-.38v10.45l-2.6.01zM564.42 220.69v-5.84c-.74.802-1.77 1.277-2.86 1.32-2.69 0-4.43-2.17-4.43-5.32-.088-1.418.412-2.81 1.383-3.846.97-1.038 2.326-1.628 3.747-1.634.855.015 1.701.163 2.51.44l2.24-.42v15.3h-2.59zm-1.92-13.27c-1.74 0-2.73 1.45-2.73 3.32 0 1.87 1 3.28 2.56 3.28.785-.009 1.535-.325 2.09-.88V208c-.562-.393-1.234-.597-1.92-.58zM572.29 205.7v6.18c0 1.5.62 2 1.72 2 .824-.003 1.617-.317 2.22-.88v-7.3h2.6v10.08l-2.6.35v-1.5c-.856.954-2.069 1.511-3.35 1.54-2 0-3.19-1.32-3.19-3.49v-7l2.6.02zM583.55 211.33c.015.771.343 1.503.91 2.028.565.524 1.32.796 2.09.752 1.12-.022 2.215-.343 3.17-.93l.33 2.16c-1.139.567-2.398.852-3.67.83-3.26 0-5.42-2.06-5.42-5.3-.105-1.443.405-2.863 1.402-3.91.998-1.047 2.392-1.625 3.838-1.59 1.127-.107 2.244.29 3.05 1.085.807.795 1.22 1.906 1.13 3.035-.002.57-.076 1.138-.22 1.69l-6.65.09.04.06zm4.43-1.6v-.18c0-1.36-.6-2.22-1.94-2.22-1.319.042-2.378 1.101-2.42 2.42l4.36-.02zM601.18 216.17c-2.27 0-3.46-1-3.37-3.43L598 208l-1.58-.18.07-1.65 1.58-.51v-2.24h2.51v2.38h2.86l-.07 2.13h-3l-.13 4.69c-.065.375.054.758.319 1.03.265.274.644.403 1.021.35.542-.017 1.079-.118 1.59-.3l.35 2.11c-.754.253-1.545.375-2.34.36zM609.89 216.17c-3 0-5.13-2-5.13-5.39-.094-1.437.424-2.847 1.426-3.881 1.002-1.035 2.395-1.597 3.834-1.549 3 0 5.13 2.07 5.13 5.41.088 1.434-.432 2.838-1.434 3.868-1.001 1.03-2.39 1.59-3.826 1.542zm0-8.73c-1.69 0-2.62 1.36-2.62 3.32 0 1.96 1 3.3 2.67 3.3s2.59-1.32 2.59-3.28c0-1.96-.93-3.34-2.6-3.34h-.04zM123.72 244.17c-3 0-5.13-2-5.13-5.39-.094-1.437.424-2.847 1.426-3.881 1.002-1.035 2.395-1.597 3.834-1.549 3 0 5.13 2.07 5.13 5.41.088 1.434-.432 2.838-1.434 3.868-1.001 1.03-2.39 1.59-3.826 1.542zm0-8.73c-1.69 0-2.62 1.36-2.62 3.32 0 1.96 1 3.3 2.67 3.3s2.59-1.32 2.59-3.28c0-1.96-.93-3.34-2.6-3.34h-.04zM133.66 233.7v6.18c0 1.5.62 2 1.72 2 .824-.003 1.617-.317 2.22-.88v-7.3h2.6v10.08l-2.6.35v-1.5c-.853.952-2.062 1.51-3.34 1.54-2 0-3.19-1.32-3.19-3.49v-7l2.59.02zM145.56 243.84H143v-10.07l2.59-.38V235c.485-1.018 1.512-1.668 2.64-1.67.634-.013 1.26.146 1.81.46l-.57 2.34c-.444-.256-.947-.394-1.46-.4-1.08.098-2.015.793-2.42 1.8l-.03 6.31zM161.12 244.17c-3 0-5.13-2-5.13-5.39-.094-1.437.424-2.847 1.426-3.881 1.002-1.035 2.395-1.597 3.834-1.549 3 0 5.13 2.07 5.13 5.41.088 1.434-.432 2.838-1.434 3.868-1.001 1.03-2.39 1.59-3.826 1.542zm0-8.73c-1.69 0-2.62 1.36-2.62 3.32 0 1.96 1 3.3 2.67 3.3s2.59-1.32 2.59-3.28c0-1.96-.93-3.34-2.6-3.34h-.04zM171.15 243.84h-2.6v-10.07l2.6-.38V235c.483-1.02 1.511-1.67 2.64-1.67.63-.013 1.253.146 1.8.46l-.57 2.34c-.44-.257-.94-.395-1.45-.4-1.081.096-2.017.792-2.42 1.8v6.31zM176.36 242.5c.105-1.036.856-1.892 1.87-2.13-1.166-.602-1.885-1.818-1.85-3.13 0-2.09 1.65-3.87 4.47-3.87.987.014 1.961.232 2.86.64l2.73-.24.11 2.26-1.94-.33c.31.472.474 1.025.47 1.59 0 2.07-1.74 3.69-4.25 3.69-.469.004-.936-.053-1.39-.17-.35.13-.79.46-.79.88s.46.79 2.09.79h1.06c2.9 0 4.55.81 4.55 2.79 0 2.4-2.71 4.05-5.92 4.05-2.68 0-4.82-1-4.82-2.81.062-1.232 1.058-2.21 2.29-2.25-.839-.194-1.459-.903-1.54-1.76zM178 246c0 .94 1.16 1.6 2.88 1.6s3.15-.66 3.15-1.71c0-1.05-.93-1.17-2.82-1.17-.64 0-1.52 0-1.94-.09-.75.25-1.27.73-1.27 1.37zm2.9-6.69c1.17 0 1.83-.84 1.83-2.11.067-.542-.112-1.085-.487-1.482s-.908-.605-1.453-.568c-.543.004-1.059.24-1.416.65-.357.409-.523.951-.454 1.49-.04.533.15 1.058.523 1.44.373.384.893.587 1.427.56l.03.02zM193.3 242.68c-.66.925-1.723 1.478-2.86 1.49-.8.055-1.588-.22-2.18-.76-.593-.54-.94-1.298-.96-2.1 0-1.87 1.36-3.45 6-3.6v-.25c0-1.36-.57-1.93-2-1.93-1.195.079-2.352.45-3.37 1.08l-.53-2.05c1.285-.768 2.753-1.179 4.25-1.19 3.12 0 4.33 1.39 4.27 4.18v3.63c0 .77.13.88.9.93l-.2 1.95c-1.93.22-2.84-.37-3.21-1.38h-.11zm0-3.61c-2.53.31-3.45.81-3.45 1.89.005.384.174.748.465 1 .29.252.674.368 1.055.32.74-.002 1.443-.322 1.93-.88v-2.33zM205.16 243.84v-6.18c0-1.49-.59-2-1.76-2-.84.025-1.639.364-2.24.95v7.23h-2.6v-10.1l2.6-.35V235c.838-.985 2.048-1.576 3.34-1.63 2.05 0 3.26 1.32 3.26 3.5v7l-2.6-.03zM211.76 231.85c-.862 0-1.56-.698-1.56-1.56 0-.862.698-1.56 1.56-1.56.862 0 1.56.698 1.56 1.56 0 .862-.698 1.56-1.56 1.56zm-1.3 12v-10.08l2.6-.38v10.45l-2.6.01zM214.88 243.84L214.88 242.06 220.19 235.9 215.08 235.9 215.08 233.7 223.51 233.7 223.51 235.44 218.18 241.62 223.51 241.62 223.51 243.84zM230.7 242.68c-.66.925-1.723 1.478-2.86 1.49-.8.055-1.588-.22-2.18-.76-.593-.54-.94-1.298-.96-2.1 0-1.87 1.36-3.45 6-3.6v-.25c0-1.36-.57-1.93-2-1.93-1.195.079-2.352.45-3.37 1.08l-.53-2.05c1.285-.768 2.753-1.179 4.25-1.19 3.12 0 4.33 1.39 4.27 4.18v3.63c0 .77.13.88.9.93l-.2 1.95c-1.93.22-2.84-.37-3.21-1.38h-.11zm0-3.61c-2.53.31-3.45.81-3.45 1.89.005.384.174.748.465 1 .29.252.674.368 1.055.32.74-.002 1.443-.322 1.93-.88v-2.33zM239.55 244.17c-2.27 0-3.46-1-3.37-3.43l.15-4.77-1.58-.18.07-1.65 1.58-.51v-2.24h2.6v2.38h2.86l-.07 2.13h-2.95l-.13 4.69c-.072.37.036.752.29 1.03.255.277.625.419 1 .38.542-.017 1.079-.118 1.59-.3l.35 2.11c-.77.259-1.578.38-2.39.36zM245.13 231.85c-.862 0-1.56-.698-1.56-1.56 0-.862.698-1.56 1.56-1.56.862 0 1.56.698 1.56 1.56 0 .862-.698 1.56-1.56 1.56zm-1.3 12v-10.08l2.6-.38v10.45l-2.6.01zM253.74 244.17c-3 0-5.13-2-5.13-5.39-.094-1.437.424-2.847 1.426-3.881 1.002-1.035 2.395-1.597 3.834-1.549 3 0 5.13 2.07 5.13 5.41.088 1.434-.432 2.838-1.434 3.868-1.001 1.03-2.39 1.59-3.826 1.542zm0-8.73c-1.69 0-2.62 1.36-2.62 3.32 0 1.96 1 3.3 2.66 3.3 1.66 0 2.6-1.32 2.6-3.28 0-1.96-.93-3.34-2.6-3.34h-.04zM267.77 243.84v-6.18c0-1.49-.59-2-1.76-2-.84.025-1.639.364-2.24.95v7.23h-2.6v-10.1l2.6-.35V235c.838-.985 2.048-1.576 3.34-1.63 2.05 0 3.26 1.32 3.26 3.5v7l-2.6-.03zM274.33 240.63c1.285.054 2.285 1.135 2.24 2.42 0 1.92-1.71 3.33-3.48 4.38l-1.14-1c1.39-1 2.22-1.81 2.22-2.56 0-.57-.42-1-1.78-1.56.095-.988.949-1.727 1.94-1.68zM290.17 243.84v-6.18c0-1.49-.6-2-1.7-2-.862.013-1.688.353-2.31.95v7.23h-2.59v-14.69l2.59-.36V235c.863-1 2.11-1.585 3.43-1.61 2 0 3.17 1.32 3.17 3.5v7l-2.59-.05zM297.43 239.33c.012.772.34 1.506.906 2.03.567.526 1.323.796 2.094.75 1.12-.02 2.216-.342 3.17-.93l.33 2.16c-1.139.567-2.398.852-3.67.83-3.26 0-5.42-2.06-5.42-5.3-.105-1.443.405-2.863 1.402-3.91.998-1.047 2.392-1.625 3.838-1.59 1.127-.107 2.244.29 3.05 1.085.807.795 1.22 1.906 1.13 3.035-.002.57-.076 1.138-.22 1.69l-6.64.09.03.06zm4.42-1.6v-.18c0-1.36-.6-2.22-1.94-2.22-1.319.042-2.378 1.101-2.42 2.42l4.36-.02zM306.44 243.84L306.44 229.15 309.04 228.79 309.04 243.79zM317.25 233.37c2.68 0 4.44 2.18 4.44 5.3.091 1.417-.407 2.808-1.376 3.846-.97 1.037-2.324 1.629-3.744 1.634-.73.002-1.455-.092-2.16-.28v4.82h-2.6v-14.95l2.6-.35v1.28c.736-.794 1.758-1.262 2.84-1.3zm-2.84 8.14c.553.402 1.227.603 1.91.57 1.74 0 2.73-1.4 2.73-3.3s-.94-3.23-2.55-3.23c-.777 0-1.524.297-2.09.83v5.13zM325.17 231.85c-.862 0-1.56-.698-1.56-1.56 0-.862.698-1.56 1.56-1.56.862 0 1.56.698 1.56 1.56 0 .862-.698 1.56-1.56 1.56zm-1.3 12v-10.08l2.59-.38v10.45l-2.59.01zM335.84 243.84v-6.18c0-1.49-.6-2-1.76-2-.842.027-1.644.366-2.25.95v7.23h-2.59v-10.1l2.59-.35V235c.843-.984 2.056-1.574 3.35-1.63 2 0 3.25 1.32 3.25 3.5v7l-2.59-.03zM340.57 242.5c.099-1.039.853-1.898 1.87-2.13-1.168-.6-1.887-1.818-1.85-3.13 0-2.09 1.65-3.87 4.46-3.87.99.015 1.967.233 2.87.64l2.72-.24.11 2.26-1.93-.33c.303.475.463 1.027.46 1.59 0 2.07-1.74 3.69-4.25 3.69-.465.003-.93-.054-1.38-.17-.36.13-.8.46-.8.88s.47.79 2.09.79H346c2.91 0 4.56.81 4.56 2.79 0 2.4-2.71 4.05-5.92 4.05-2.69 0-4.82-1-4.82-2.81.062-1.232 1.058-2.21 2.29-2.25-.839-.194-1.459-.903-1.54-1.76zm1.6 3.48c0 .94 1.17 1.6 2.88 1.6s3.15-.66 3.15-1.71c0-1.05-.92-1.17-2.82-1.17-.63 0-1.51 0-1.93-.09-.73.27-1.28.75-1.28 1.39v-.02zm2.91-6.69c1.16 0 1.82-.84 1.82-2.11.066-.54-.11-1.082-.484-1.478-.373-.396-.903-.606-1.446-.572-.544.001-1.062.237-1.42.646-.358.41-.522.955-.45 1.494-.052.543.139 1.08.52 1.47.382.39.916.59 1.46.55zM359.71 233.7v6.18c0 1.5.61 2 1.71 2 .825-.001 1.618-.316 2.22-.88v-7.3h2.6v10.08l-2.6.35v-1.5c-.85.955-2.061 1.513-3.34 1.54-2 0-3.19-1.32-3.19-3.49v-7l2.6.02zM372.16 244.2c-1.37-.007-2.718-.332-3.94-.95l.57-2c1.05.588 2.227.91 3.43.94 1 0 1.68-.42 1.68-1.12 0-.7-.86-1.08-2-1.36-1.91-.44-3.43-1.24-3.43-3.15s1.6-3.17 4.05-3.17c1.275.003 2.534.283 3.69.82l-.57 2c-.991-.505-2.079-.791-3.19-.84-.95 0-1.52.35-1.52 1s.86 1 2.05 1.33c1.93.46 3.45 1.21 3.45 3.19s-1.68 3.31-4.27 3.31zM387.1 244.17c-2.27 0-3.46-1-3.37-3.43l.15-4.77-1.58-.18.07-1.65 1.58-.51v-2.24h2.51v2.38h2.86l-.07 2.13h-2.95l-.13 4.69c-.065.375.054.758.319 1.03.265.274.644.403 1.021.35.542-.017 1.079-.118 1.59-.3l.35 2.11c-.755.264-1.55.396-2.35.39zM395.81 244.17c-3 0-5.13-2-5.13-5.39-.094-1.437.424-2.847 1.426-3.881 1.002-1.035 2.395-1.597 3.834-1.549 3 0 5.13 2.07 5.13 5.41.088 1.434-.432 2.838-1.434 3.868-1.001 1.03-2.39 1.59-3.826 1.542zm0-8.73c-1.69 0-2.62 1.36-2.62 3.32 0 1.96 1 3.3 2.67 3.3s2.59-1.32 2.59-3.28c0-1.96-.93-3.34-2.6-3.34h-.04zM413.69 233.37c2.69 0 4.45 2.18 4.45 5.3.088 1.418-.412 2.81-1.383 3.846-.97 1.038-2.326 1.628-3.747 1.634-.73.002-1.455-.092-2.16-.28v4.82h-2.59v-14.95l2.59-.35v1.28c.737-.792 1.759-1.26 2.84-1.3zm-2.84 8.14c.559.399 1.234.6 1.92.57 1.74 0 2.73-1.4 2.73-3.3s-.95-3.23-2.55-3.23c-.78.003-1.53.3-2.1.83v5.13zM422.91 243.84h-2.6v-10.07l2.6-.38V235c.483-1.02 1.511-1.67 2.64-1.67.63-.013 1.253.146 1.8.46l-.57 2.34c-.44-.257-.94-.395-1.45-.4-1.081.096-2.017.792-2.42 1.8v6.31zM433.34 244.17c-3 0-5.13-2-5.13-5.39-.094-1.437.424-2.847 1.426-3.881 1.002-1.035 2.395-1.597 3.834-1.549 3 0 5.13 2.07 5.13 5.41.088 1.434-.432 2.838-1.434 3.868-1.001 1.03-2.39 1.59-3.826 1.542zm0-8.73c-1.69 0-2.62 1.36-2.62 3.32 0 1.96 1 3.3 2.67 3.3s2.59-1.32 2.59-3.28c0-1.96-.93-3.34-2.6-3.34h-.04zM453.51 243.84v-6.16c0-1.49-.59-2-1.67-2-.79.033-1.54.353-2.11.9v7.28h-2.6v-6.16c0-1.49-.57-2-1.65-2-.786-.007-1.544.294-2.11.84v7.34h-2.6v-10.1l2.6-.35v1.43c.83-.91 1.999-1.435 3.23-1.45 1.198-.053 2.304.64 2.78 1.74.896-1.073 2.212-1.708 3.61-1.74 1.91 0 3.12 1.32 3.12 3.52v6.95l-2.6-.04zM463.32 244.17c-3 0-5.12-2-5.12-5.39-.097-1.438.42-2.85 1.422-3.885 1.003-1.035 2.398-1.596 3.838-1.545 3 0 5.12 2.07 5.12 5.41.088 1.434-.432 2.838-1.434 3.868-1.001 1.03-2.39 1.59-3.826 1.542zm.05-8.73c-1.7 0-2.62 1.36-2.62 3.32 0 1.96 1 3.3 2.66 3.3 1.66 0 2.6-1.32 2.6-3.28 0-1.96-1.01-3.34-2.64-3.34zM474.35 244.17c-2.27 0-3.46-1-3.37-3.43l.15-4.77-1.58-.18.07-1.65 1.58-.51v-2.24h2.51v2.38h2.86l-.07 2.13h-3l-.13 4.69c-.065.375.054.758.319 1.03.265.274.644.403 1.021.35.542-.017 1.079-.118 1.59-.3l.35 2.11c-.74.259-1.517.39-2.3.39zM480.48 239.33c.015.771.343 1.503.91 2.028.565.524 1.32.796 2.09.752 1.12-.022 2.215-.343 3.17-.93l.33 2.16c-1.142.569-2.404.853-3.68.83-1.45.122-2.88-.393-3.92-1.41-1.038-1.019-1.582-2.438-1.49-3.89-.105-1.443.405-2.863 1.402-3.91.998-1.047 2.392-1.625 3.838-1.59 1.127-.107 2.244.29 3.05 1.085.807.795 1.22 1.906 1.13 3.035-.002.57-.076 1.138-.22 1.69l-6.65.09.04.06zm4.43-1.6v-.18c0-1.36-.6-2.22-1.94-2.22-1.319.042-2.378 1.101-2.42 2.42l4.36-.02zM498.11 244.17c-2.27 0-3.46-1-3.37-3.43l.15-4.77-1.58-.18.07-1.65 1.58-.51v-2.24h2.51v2.38h2.86l-.07 2.13h-3l-.13 4.69c-.065.375.054.758.319 1.03.265.274.644.403 1.021.35.542-.017 1.079-.118 1.59-.3l.35 2.11c-.74.259-1.517.39-2.3.39zM509 243.84v-6.18c0-1.49-.6-2-1.7-2-.862.013-1.688.353-2.31.95v7.23h-2.6v-14.69l2.6-.36V235c.863-1 2.11-1.585 3.43-1.61 2 0 3.17 1.32 3.17 3.5v7l-2.59-.05zM516.25 239.33c.015.771.343 1.503.91 2.028.565.524 1.32.796 2.09.752 1.12-.02 2.216-.342 3.17-.93l.33 2.16c-1.139.567-2.398.852-3.67.83-3.26 0-5.42-2.06-5.42-5.3-.105-1.443.405-2.863 1.402-3.91.998-1.047 2.392-1.625 3.838-1.59 1.127-.107 2.244.29 3.05 1.085.807.795 1.22 1.906 1.13 3.035-.002.57-.076 1.138-.22 1.69l-6.65.09.04.06zm4.43-1.6v-.18c0-1.36-.6-2.22-1.94-2.22-1.319.042-2.378 1.101-2.42 2.42l4.36-.02zM531.59 231.85c-.856-.022-1.534-.73-1.52-1.586.015-.856.717-1.54 1.573-1.533.856.007 1.547.703 1.547 1.559.035.43-.123.855-.433 1.156-.31.302-.737.45-1.167.404zm-1.3 12v-10.08l2.6-.38v10.45l-2.6.01zM548.4 243.84v-6.16c0-1.49-.6-2-1.67-2-.793.03-1.547.35-2.12.9v7.28H542v-6.16c0-1.49-.58-2-1.65-2-.79-.01-1.551.292-2.12.84v7.34h-2.59v-10.1l2.59-.35v1.43c.832-.912 2.006-1.437 3.24-1.45 1.195-.052 2.298.641 2.77 1.74.896-1.073 2.212-1.708 3.61-1.74 1.91 0 3.12 1.32 3.12 3.52v6.95l-2.57-.04zM559.11 233.37c2.68 0 4.44 2.18 4.44 5.3.091 1.417-.407 2.808-1.376 3.846-.97 1.037-2.324 1.629-3.744 1.634-.73.002-1.455-.092-2.16-.28v4.82h-2.6v-14.95l2.6-.35v1.28c.736-.794 1.758-1.262 2.84-1.3zm-2.84 8.14c.559.399 1.234.6 1.92.57 1.73 0 2.72-1.4 2.72-3.3s-.94-3.23-2.55-3.23c-.777 0-1.524.297-2.09.83v5.13zM570.26 244.17c-3 0-5.12-2-5.12-5.39-.097-1.438.42-2.85 1.422-3.885 1.003-1.035 2.398-1.596 3.838-1.545 3 0 5.12 2.07 5.12 5.41.088 1.434-.432 2.838-1.434 3.868-1.001 1.03-2.39 1.59-3.826 1.542zm0-8.73c-1.7 0-2.62 1.36-2.62 3.32 0 1.96 1 3.3 2.66 3.3 1.66 0 2.6-1.32 2.6-3.28 0-1.96-.9-3.34-2.59-3.34h-.05zM580.29 243.84h-2.59v-10.07l2.59-.38V235c.487-1.022 1.518-1.672 2.65-1.67.63-.012 1.252.147 1.8.46l-.57 2.34c-.442-.254-.94-.392-1.45-.4-1.084.095-2.024.79-2.43 1.8v6.31zM590.11 244.17c-2.27 0-3.46-1-3.37-3.43l.15-4.77-1.58-.18.07-1.65 1.58-.51v-2.24h2.51v2.38h2.86l-.07 2.13h-3l-.13 4.69c-.065.375.054.758.319 1.03.265.274.644.403 1.021.35.542-.017 1.079-.118 1.59-.3l.35 2.11c-.74.259-1.517.39-2.3.39zM599.72 242.68c-.664.921-1.725 1.474-2.86 1.49-.802.058-1.592-.215-2.187-.756-.595-.54-.943-1.3-.963-2.104 0-1.87 1.37-3.45 6-3.6v-.25c0-1.36-.57-1.93-2-1.93-1.195.079-2.352.45-3.37 1.08l-.53-2.05c1.285-.768 2.753-1.179 4.25-1.19 3.12 0 4.33 1.39 4.27 4.18v3.63c0 .77.13.88.9.93l-.2 1.95c-1.94.22-2.84-.37-3.21-1.38h-.1zm0-3.61c-2.53.31-3.45.81-3.45 1.89.006.382.173.744.461.996.288.252.67.37 1.049.324.743 0 1.45-.32 1.94-.88v-2.33zM611.58 243.84v-6.18c0-1.49-.6-2-1.76-2-.842.027-1.644.366-2.25.95v7.23H605v-10.1l2.59-.35V235c.843-.984 2.056-1.574 3.35-1.63 2 0 3.26 1.32 3.26 3.5v7l-2.62-.03zM620.47 244.17c-2.27 0-3.46-1-3.37-3.43l.15-4.77-1.58-.18.07-1.65 1.58-.51v-2.24h2.51v2.38h2.86l-.07 2.13h-3l-.13 4.69c-.065.375.054.758.319 1.03.265.274.644.403 1.021.35.542-.017 1.079-.118 1.59-.3l.35 2.11c-.74.259-1.517.39-2.3.39zM121.08 271.89L118.08 261.7 120.79 261.7 122.55 268.83 124.55 261.72 127.15 261.72 129.33 268.79 130.85 261.7 133.6 261.7 130.6 271.89 128.05 271.89 125.78 264.76 123.58 271.89zM139.8 272.17c-3 0-5.13-2-5.13-5.39-.094-1.437.424-2.847 1.426-3.881 1.002-1.035 2.395-1.597 3.834-1.549 3 0 5.13 2.07 5.13 5.41.088 1.434-.432 2.838-1.434 3.868-1.001 1.03-2.39 1.59-3.826 1.542zm0-8.73c-1.69 0-2.61 1.36-2.61 3.32 0 1.96 1 3.3 2.66 3.3 1.66 0 2.59-1.32 2.59-3.28 0-1.96-.92-3.34-2.6-3.34h-.04zM149.83 271.84h-2.6v-10.07l2.6-.38V263c.483-1.02 1.511-1.67 2.64-1.67.634-.013 1.26.146 1.81.46l-.58 2.34c-.44-.258-.94-.396-1.45-.4-1.081.096-2.017.792-2.42 1.8v6.31zM158.43 267L158.43 271.88 155.84 271.88 155.84 257.15 158.43 256.79 158.43 266.21 158.43 266.21 162.06 261.7 165.16 261.7 160.96 266.52 165.18 271.84 162.08 271.84 158.48 267zM173.61 271.89L170.61 261.7 173.31 261.7 175.07 268.83 177.07 261.72 179.67 261.72 181.84 268.79 183.36 261.7 186.11 261.7 183.11 271.89 180.56 271.89 178.29 264.76 176.09 271.89zM189.72 267.33c.012.772.34 1.506.906 2.03.567.526 1.323.796 2.094.75 1.12-.02 2.216-.342 3.17-.93l.33 2.16c-1.139.567-2.398.852-3.67.83-3.26 0-5.42-2.06-5.42-5.3-.105-1.443.405-2.863 1.402-3.91.998-1.047 2.392-1.625 3.838-1.59 1.127-.107 2.244.29 3.05 1.085.807.795 1.22 1.906 1.13 3.035-.002.57-.076 1.138-.22 1.69l-6.64.09.03.06zm4.42-1.6v-.18c0-1.36-.6-2.22-1.94-2.22-1.317.046-2.374 1.103-2.42 2.42l4.36-.02zM210.44 257.15l2.6-.36v15h-2.6v-1c-.739.804-1.769 1.28-2.86 1.32-2.68 0-4.42-2.17-4.42-5.32-.091-1.417.407-2.808 1.376-3.846.97-1.037 2.324-1.629 3.744-1.634.732.005 1.46.116 2.16.33v-4.49zm-1.91 6.29c-1.74 0-2.73 1.43-2.73 3.3 0 1.87 1 3.23 2.55 3.23.78.013 1.532-.285 2.09-.83V264c-.56-.387-1.23-.583-1.91-.56zM220.34 272.17c-3 0-5.13-2-5.13-5.39-.094-1.437.424-2.847 1.426-3.881 1.002-1.035 2.395-1.597 3.834-1.549 3 0 5.13 2.07 5.13 5.41.088 1.434-.432 2.838-1.434 3.868-1.001 1.03-2.39 1.59-3.826 1.542zm0-8.73c-1.69 0-2.61 1.36-2.61 3.32 0 1.96 1 3.3 2.66 3.3 1.66 0 2.59-1.32 2.59-3.28 0-1.96-.92-3.34-2.6-3.34h-.04zM228.72 272.17c-.64.05-1.254-.265-1.59-.813-.334-.547-.334-1.237 0-1.784.336-.548.95-.862 1.59-.813.64-.05 1.254.265 1.59.813.334.547.334 1.237 0 1.784-.336.548-.95.862-1.59.813zM124.57 316.77c0-.94-.85-1.28-2.5-1.73-1.65-.45-3.5-1.17-3.5-3.39 0-2 1.53-3.33 4-3.33 1.356-.014 2.69.33 3.87 1l-.54 1.86c-1.001-.615-2.145-.96-3.32-1-1.31 0-1.89.56-1.89 1.34s1 1.27 2.56 1.69c1.56.42 3.44 1.24 3.44 3.38 0 2.14-1.64 3.51-4.28 3.51-1.418.03-2.818-.316-4.06-1l.51-1.89c1.07.685 2.31 1.058 3.58 1.08 1.27-.03 2.13-.62 2.13-1.52zM137.49 316.62c0 1.86-1.11 3.22-4.37 3.22h-4.38v-11.25h4.31c3 0 4.08 1.26 4.08 3-.007 1.185-.84 2.205-2 2.45 1.319.154 2.324 1.253 2.36 2.58zm-4.49-6.26h-2.1v3.06h1.89c1.41 0 2.15-.6 2.15-1.57 0-.97-.69-1.49-1.94-1.49zm-.05 4.66h-2v3.06h2.18c1.48 0 2.2-.52 2.2-1.55s-1.02-1.53-2.41-1.53l.03.02zM140.1 317.21c.51.02.99.243 1.335.618.345.376.527.873.505 1.382 0 1.56-1.41 2.72-2.85 3.58l-.93-.85c1.13-.79 1.82-1.47 1.82-2.09 0-.46-.35-.79-1.46-1.27.079-.804.773-1.406 1.58-1.37zM153.13 320.11c-3.161-.13-5.657-2.731-5.657-5.895 0-3.164 2.496-5.765 5.657-5.895 1.396-.005 2.77.338 4 1l-.7 1.91c-.968-.623-2.089-.969-3.24-1-2.23 0-3.69 1.53-3.69 4 0 2.47 1.38 4.09 3.69 4.09.73-.005 1.451-.158 2.12-.45v-2.16h-2.95v-1.86h5v5.26c-1.305.679-2.759 1.023-4.23 1zM161.61 319.84h-2.12v-8.24l2.12-.31v1.35c.396-.834 1.236-1.367 2.16-1.37.519-.01 1.03.122 1.48.38l-.47 1.91c-.362-.208-.772-.318-1.19-.32-.891.072-1.666.64-2 1.47l.02 5.13zM170.77 318.89c-.54.757-1.41 1.21-2.34 1.22-.655.047-1.3-.177-1.786-.62-.486-.442-.77-1.063-.784-1.72 0-1.53 1.11-2.82 4.91-2.95v-.2c0-1.11-.46-1.58-1.65-1.58-.977.067-1.924.37-2.76.88l-.43-1.67c1.05-.64 2.251-.985 3.48-1 2.55 0 3.54 1.14 3.49 3.43v3c0 .63.11.72.74.75l-.17 1.6c-1.58.18-2.32-.3-2.62-1.13l-.08-.01zm0-2.95c-2.07.25-2.82.66-2.82 1.55.003.314.14.612.377.818.237.207.551.302.863.262.606-.002 1.181-.264 1.58-.72v-1.91zM180.48 319.84v-5c0-1.23-.49-1.64-1.44-1.64-.688.018-1.344.293-1.84.77v5.92h-2.12v-8.26l2.12-.29v1.32c.688-.808 1.68-1.293 2.74-1.34.754-.039 1.487.26 2 .813.514.554.756 1.308.66 2.057v5.7l-2.12-.05zM187.75 320.11c-1.86 0-2.83-.81-2.76-2.8l.13-3.91-1.3-.15.06-1.35 1.29-.41v-1.84h2v2h2.35l-.06 1.74h-2.36l-.11 3.84c-.042.305.06.613.274.834.215.22.52.33.826.296.444-.01.884-.095 1.3-.25l.28 1.73c-.619.203-1.269.295-1.92.27zM193.83 320.13c-1.119-.002-2.221-.266-3.22-.77l.47-1.66c.855.486 1.817.753 2.8.78.83 0 1.37-.35 1.37-.92 0-.57-.7-.88-1.67-1.12-1.57-.36-2.81-1-2.81-2.57 0-1.57 1.31-2.6 3.31-2.6 1.036.008 2.059.236 3 .67l-.47 1.66c-.81-.415-1.7-.65-2.61-.69-.78 0-1.24.29-1.24.83s.7.85 1.67 1.08c1.58.38 2.83 1 2.83 2.61 0 1.61-1.26 2.7-3.43 2.7zM207.47 318.89c-.54.757-1.41 1.21-2.34 1.22-.655.047-1.3-.177-1.786-.62-.486-.442-.77-1.063-.784-1.72 0-1.53 1.11-2.82 4.91-2.95v-.2c0-1.11-.46-1.58-1.65-1.58-.977.067-1.924.37-2.76.88l-.43-1.67c1.05-.64 2.251-.985 3.48-1 2.55 0 3.54 1.14 3.49 3.43v3c0 .63.11.72.74.75l-.17 1.6c-1.58.18-2.32-.3-2.62-1.13l-.08-.01zm0-2.95c-2.07.25-2.82.66-2.82 1.55.003.314.14.612.377.818.237.207.551.302.863.262.606-.002 1.181-.264 1.58-.72v-1.91zM217.18 319.84v-5c0-1.23-.49-1.64-1.44-1.64-.688.018-1.344.293-1.84.77v5.92h-2.12v-8.26l2.12-.29v1.32c.688-.808 1.68-1.293 2.74-1.34.754-.039 1.487.26 2 .813.514.554.756 1.308.66 2.057v5.7l-2.12-.05zM227 307.82l2.12-.29v12.31H227V319c-.605.657-1.447 1.045-2.34 1.08-2.2 0-3.62-1.78-3.62-4.35-.074-1.16.333-2.3 1.126-3.15.793-.849 1.902-1.334 3.064-1.34.6.006 1.196.097 1.77.27v-3.69zm-1.58 5.18c-1.42 0-2.23 1.17-2.23 2.7 0 1.53.81 2.64 2.09 2.64.637.007 1.252-.237 1.71-.68v-4.18c-.459-.323-1.009-.49-1.57-.48zM243.92 311.11c-.871-.588-1.899-.902-2.95-.9-2.19 0-3.65 1.51-3.65 4s1.42 4.05 3.69 4.05c1.104-.017 2.177-.365 3.08-1l.41 2c-1.1.588-2.332.89-3.58.88-3.46 0-5.82-2.17-5.82-5.87-.11-1.592.472-3.154 1.596-4.288 1.124-1.133 2.68-1.728 4.274-1.632 1.267-.007 2.516.295 3.64.88l-.69 1.88zM249.85 320.11c-1.164.045-2.292-.413-3.095-1.257-.804-.844-1.206-1.992-1.105-3.153-.08-1.176.342-2.33 1.162-3.177.82-.846 1.96-1.305 3.138-1.263 1.167-.042 2.296.42 3.1 1.267.803.848 1.204 2 1.1 3.163.071 1.172-.355 2.319-1.173 3.16-.819.841-1.954 1.299-3.127 1.26zm0-7.14c-1.38 0-2.14 1.11-2.14 2.72s.79 2.7 2.18 2.7c1.39 0 2.12-1.08 2.12-2.69 0-1.61-.76-2.7-2.13-2.7l-.03-.03zM266.35 319.84v-5c0-1.22-.48-1.65-1.36-1.65-.647.022-1.263.282-1.73.73v6h-2.13v-5c0-1.22-.47-1.65-1.35-1.65-.643-.007-1.264.237-1.73.68v6h-2.12v-8.26l2.12-.29v1.17c.68-.747 1.64-1.178 2.65-1.19.964-.07 1.874.452 2.3 1.32.734-.876 1.808-1.397 2.95-1.43 1.57 0 2.56 1.08 2.56 2.88v5.69h-2.16zM281.1 319.84v-5c0-1.22-.49-1.65-1.37-1.65-.647.022-1.263.282-1.73.73v6h-2.13v-5c0-1.22-.46-1.65-1.35-1.65-.643-.007-1.264.237-1.73.68v6h-2.12v-8.26l2.12-.29v1.17c.681-.745 1.64-1.176 2.65-1.19.98-.042 1.884.528 2.27 1.43.745-.89 1.84-1.411 3-1.43 1.57 0 2.56 1.08 2.56 2.88v5.69l-2.17-.11zM287.46 311.54v5.06c0 1.23.51 1.62 1.41 1.62.675-.005 1.324-.262 1.82-.72v-6h2.12v8.25l-2.12.29v-1.23c-.702.778-1.693 1.234-2.74 1.26-1.62 0-2.61-1.08-2.61-2.86v-5.71l2.12.04zM300.48 319.84v-5c0-1.23-.49-1.64-1.44-1.64-.687.02-1.343.295-1.84.77v5.92h-2.12v-8.26l2.12-.29v1.32c.688-.808 1.68-1.293 2.74-1.34.754-.039 1.487.26 2 .813.514.554.756 1.308.66 2.057v5.7l-2.12-.05zM305.88 310c-.35.034-.698-.09-.949-.337-.25-.247-.38-.592-.351-.943-.012-.533.3-1.02.79-1.232.49-.212 1.059-.106 1.439.269.38.374.495.941.291 1.434-.204.493-.687.813-1.22.809zm-1.06 9.81v-8.21l2.12-.31v8.55l-2.12-.03zM313 320.11c-2.7 0-4.3-1.67-4.3-4.39-.082-1.191.35-2.36 1.188-3.211.838-.85 2-1.302 3.192-1.239 1.022-.029 2.032.224 2.92.73l-.45 1.71c-.67-.433-1.451-.666-2.25-.67-1.53 0-2.36 1-2.36 2.65s1 2.68 2.36 2.68c.814.011 1.613-.215 2.3-.65l.35 1.73c-.908.476-1.926.704-2.95.66zM322 318.89c-.54.757-1.41 1.21-2.34 1.22-.655.047-1.3-.177-1.786-.62-.486-.442-.77-1.063-.784-1.72 0-1.53 1.12-2.82 4.91-2.95v-.2c0-1.11-.46-1.58-1.65-1.58-.977.067-1.924.37-2.76.88l-.43-1.67c1.05-.64 2.251-.985 3.48-1 2.55 0 3.54 1.14 3.49 3.43v3c0 .63.11.72.74.75l-.16 1.6c-1.59.18-2.33-.3-2.63-1.13l-.08-.01zm0-2.95c-2.07.25-2.82.66-2.82 1.55.003.314.14.612.377.818.237.207.551.302.863.262.606-.002 1.181-.264 1.58-.72v-1.91zM329.26 320.11c-1.85 0-2.83-.81-2.75-2.8l.12-3.91-1.29-.15.05-1.35 1.3-.41v-1.84h2v2h2.34l-.05 1.74h-2.42l-.11 3.84c-.042.305.06.613.274.834.215.22.52.33.826.296.444-.01.884-.094 1.3-.25l.29 1.73c-.606.197-1.242.289-1.88.27zM333.83 310c-.35.034-.696-.09-.946-.337-.25-.247-.375-.593-.344-.943-.028-.349.1-.693.348-.94.249-.246.593-.37.942-.34.352-.033.7.09.955.336.254.246.387.591.365.944.03.355-.102.704-.358.952-.255.248-.608.368-.962.328zm-1.06 9.81v-8.21l2.12-.31v8.55l-2.12-.03zM340.87 320.11c-1.164.045-2.292-.413-3.095-1.257-.804-.844-1.206-1.992-1.105-3.153-.077-1.177.348-2.331 1.169-3.177.821-.846 1.963-1.305 3.141-1.263 1.165-.039 2.292.424 3.093 1.271.801.847 1.2 1.997 1.097 3.159.071 1.172-.355 2.319-1.173 3.16-.819.841-1.954 1.299-3.127 1.26zm0-7.14c-1.39 0-2.15 1.11-2.15 2.72s.8 2.7 2.18 2.7c1.38 0 2.13-1.08 2.13-2.69 0-1.61-.76-2.7-2.12-2.7l-.04-.03zM352.35 319.84v-5c0-1.23-.48-1.64-1.44-1.64-.685.02-1.337.294-1.83.77v5.92H347v-8.26l2.13-.29v1.32c.685-.805 1.674-1.29 2.73-1.34.756-.042 1.492.255 2.008.81.516.554.758 1.309.662 2.06v5.7l-2.18-.05zM359.26 320.13c-1.119-.002-2.221-.266-3.22-.77l.47-1.66c.858.487 1.823.755 2.81.78.83 0 1.37-.35 1.37-.92 0-.57-.7-.88-1.68-1.12-1.56-.36-2.81-1-2.81-2.57 0-1.57 1.32-2.6 3.32-2.6 1.036.006 2.06.235 3 .67l-.47 1.66c-.81-.415-1.7-.65-2.61-.69-.77 0-1.24.29-1.24.83s.7.85 1.67 1.08c1.59.38 2.83 1 2.83 2.61 0 1.61-1.31 2.7-3.44 2.7zM378.8 310.82L375.86 319.68 373.56 319.68 370.56 310.82 370.46 319.82 368.39 319.82 368.76 308.57 371.81 308.57 374.71 317.43 377.6 308.57 380.6 308.57 380.96 319.82 378.84 319.82zM387.51 318.89c-.543.754-1.411 1.206-2.34 1.22-.656.047-1.303-.177-1.79-.619-.487-.442-.773-1.063-.79-1.721 0-1.53 1.12-2.82 4.92-2.95v-.2c0-1.11-.47-1.58-1.66-1.58-.977.067-1.924.37-2.76.88l-.43-1.67c1.05-.64 2.251-.985 3.48-1 2.55 0 3.54 1.14 3.49 3.43v3c0 .63.11.72.74.75l-.16 1.6c-1.59.18-2.33-.3-2.63-1.13l-.07-.01zm0-2.95c-2.07.25-2.83.66-2.83 1.55.006.313.145.609.38.815.237.205.549.302.86.265.608-.004 1.186-.266 1.59-.72v-1.91zM397.21 319.84v-5c0-1.23-.49-1.64-1.44-1.64-.687.02-1.343.295-1.84.77v5.92h-2.12v-8.26l2.12-.29v1.32c.688-.808 1.68-1.293 2.74-1.34.754-.039 1.487.26 2 .813.514.554.756 1.308.66 2.057v5.7l-2.12-.05zM405.9 318.89c-.54.757-1.41 1.21-2.34 1.22-.655.047-1.3-.177-1.786-.62-.486-.442-.77-1.063-.784-1.72 0-1.53 1.11-2.82 4.91-2.95v-.2c0-1.11-.47-1.58-1.65-1.58-.978.066-1.925.368-2.76.88l-.43-1.67c1.046-.638 2.245-.983 3.47-1 2.56 0 3.55 1.14 3.5 3.43v3c0 .63.1.72.73.75l-.16 1.6c-1.58.18-2.32-.3-2.63-1.13l-.07-.01zm0-2.95c-2.07.25-2.82.66-2.82 1.55.003.314.14.612.377.818.237.207.551.302.863.262.605-.006 1.179-.268 1.58-.72v-1.91zM409.73 318.75c.084-.85.699-1.553 1.53-1.75-.949-.497-1.534-1.49-1.51-2.56 0-1.71 1.35-3.17 3.66-3.17.808.012 1.605.193 2.34.53l2.23-.2.09 1.85-1.58-.27c.244.39.372.84.37 1.3-.042.866-.437 1.676-1.093 2.243-.655.566-1.514.84-2.377.757-.385.004-.768-.043-1.14-.14-.28.11-.64.38-.64.72 0 .34.38.65 1.71.65h.86c2.38 0 3.73.66 3.73 2.28 0 2-2.22 3.32-4.84 3.32-2.2 0-3.95-.81-3.95-2.31.052-1.008.871-1.805 1.88-1.83-.68-.16-1.187-.727-1.27-1.42zm1.32 2.84c0 .78.95 1.32 2.36 1.32s2.57-.54 2.57-1.41c0-.87-.75-.95-2.3-.95-.52 0-1.24 0-1.59-.08-.59.22-1.04.62-1.04 1.12zm2.38-5.47c.95 0 1.49-.69 1.49-1.73.058-.443-.086-.889-.392-1.214-.306-.326-.742-.497-1.188-.466-.445.002-.868.195-1.163.53-.294.334-.431.778-.377 1.22-.04.446.119.886.432 1.206.314.319.752.485 1.198.454zM420.84 316.15c.012.637.286 1.241.757 1.67.47.43 1.097.647 1.733.6.914-.017 1.808-.276 2.59-.75l.27 1.76c-.931.463-1.96.696-3 .68-1.183.091-2.347-.332-3.196-1.162-.848-.829-1.298-1.983-1.234-3.168-.088-1.182.328-2.347 1.145-3.206s1.96-1.333 3.145-1.304c.923-.089 1.837.236 2.497.886.66.65.998 1.56.923 2.484 0 .47-.06.936-.18 1.39l-5.44.07-.01.05zm3.62-1.31v-.14c0-1.12-.49-1.82-1.58-1.82-1.105 0-2 .895-2 2l3.58-.04zM430.34 319.84h-2.12v-8.24l2.12-.31v1.35c.4-.836 1.243-1.368 2.17-1.37.515-.008 1.023.123 1.47.38l-.47 1.91c-.56-.345-1.245-.416-1.863-.192-.618.224-1.1.718-1.307 1.342v5.13zM124.08 335.49L124.08 339.84 121.91 339.84 121.91 335.47 118 328.59 120.38 328.59 123.04 333.45 125.65 328.59 128 328.59zM132.47 331.27c2.2 0 3.64 1.79 3.64 4.34.074 1.162-.334 2.303-1.13 3.153-.795.85-1.906 1.334-3.07 1.337-.595 0-1.187-.08-1.76-.24v3.95H128v-12.23l2.13-.29v1c.613-.638 1.455-1.005 2.34-1.02zm-2.32 6.67c.456.32 1.004.482 1.56.46 1.43 0 2.24-1.15 2.24-2.7 0-1.55-.78-2.64-2.09-2.64-.636.002-1.247.245-1.71.68v4.2zM140.46 340.13c-1.119-.002-2.221-.266-3.22-.77l.47-1.66c.858.487 1.823.755 2.81.78.83 0 1.37-.35 1.37-.92 0-.57-.71-.88-1.68-1.12-1.57-.36-2.81-1-2.81-2.57 0-1.57 1.32-2.6 3.31-2.6 1.036.007 2.06.235 3 .67l-.47 1.66c-.81-.415-1.7-.65-2.61-.69-.77 0-1.24.29-1.24.83s.7.85 1.67 1.08c1.59.38 2.83 1 2.83 2.61 0 1.61-1.3 2.7-3.43 2.7zM146.71 330c-.35.034-.698-.09-.949-.337-.25-.247-.38-.592-.351-.943-.012-.533.3-1.02.79-1.232.49-.212 1.059-.106 1.439.269.38.374.495.941.291 1.434-.204.493-.687.813-1.22.809zm-1.06 9.81v-8.21l2.12-.31v8.55l-2.12-.03zM150 339.84L150 327.84 152.12 327.55 152.12 339.86zM158.79 338.89c-.543.754-1.411 1.206-2.34 1.22-.656.047-1.303-.177-1.79-.619-.487-.442-.773-1.063-.79-1.721 0-1.53 1.12-2.82 4.92-2.95v-.2c0-1.11-.47-1.58-1.66-1.58-.975.065-1.919.367-2.75.88l-.44-1.67c1.05-.64 2.251-.985 3.48-1 2.55 0 3.54 1.14 3.49 3.43v3c0 .63.11.72.74.75l-.16 1.6c-1.59.18-2.32-.3-2.63-1.13l-.07-.01zm0-2.95c-2.07.25-2.83.66-2.83 1.55.006.313.145.609.38.815.237.205.549.302.86.265.608-.004 1.186-.266 1.59-.72v-1.91zM168.49 339.84v-5c0-1.23-.49-1.64-1.44-1.64-.687.02-1.343.295-1.84.77v5.92h-2.12v-8.26l2.12-.29v1.32c.688-.808 1.68-1.293 2.74-1.34.754-.039 1.487.26 2 .813.514.554.756 1.308.66 2.057v5.7l-2.12-.05zM175.76 340.11c-1.85 0-2.83-.81-2.76-2.8l.13-3.91-1.3-.15.06-1.35 1.29-.41v-1.84h2.05v2h2.34l-.06 1.74h-2.41l-.11 3.84c-.042.305.06.613.274.834.215.22.52.33.826.296.444-.01.884-.095 1.3-.25l.29 1.73c-.62.202-1.27.293-1.92.27zM180.33 330c-.35.034-.698-.09-.949-.337-.25-.247-.38-.592-.351-.943.06-.677.626-1.196 1.305-1.196.68 0 1.246.52 1.305 1.196.029.353-.101.7-.354.948-.254.247-.604.369-.956.332zm-1.06 9.81v-8.21l2.12-.31v8.55l-2.12-.03zM198 330.82L195.06 339.68 192.76 339.68 189.76 330.82 189.65 339.82 187.58 339.82 187.96 328.57 190.96 328.57 193.86 337.43 196.76 328.57 199.76 328.57 200.12 339.82 198.1 339.82zM204 336.15c.012.637.286 1.241.757 1.67.47.43 1.097.647 1.733.6.915-.016 1.808-.275 2.59-.75l.27 1.76c-.931.463-1.96.696-3 .68-1.182.091-2.346-.332-3.193-1.162-.847-.83-1.294-1.984-1.227-3.168-.088-1.18.327-2.343 1.142-3.202s1.954-1.334 3.138-1.308c.923-.089 1.837.236 2.497.886.66.65.998 1.56.923 2.484 0 .47-.06.936-.18 1.39l-5.44.07-.01.05zm3.62-1.31v-.14c0-1.12-.48-1.82-1.58-1.82-1.105 0-2 .895-2 2l3.58-.04zM215.7 338.89c-.542.755-1.41 1.207-2.34 1.22-.656.047-1.303-.177-1.79-.619-.487-.442-.773-1.063-.79-1.721 0-1.53 1.12-2.82 4.92-2.95v-.2c0-1.11-.47-1.58-1.66-1.58-.974.067-1.918.37-2.75.88l-.43-1.67c1.046-.64 2.244-.985 3.47-1 2.56 0 3.55 1.14 3.49 3.43v3c0 .63.11.72.74.75l-.16 1.6c-1.58.18-2.32-.3-2.63-1.13l-.07-.01zm0-2.95c-2.07.25-2.83.66-2.83 1.55.006.315.146.613.384.819.239.206.553.3.866.261.605-.006 1.179-.268 1.58-.72v-1.91zM220 339.84L220 327.84 222.12 327.55 222.12 339.86zM227 340.13c-1.122-.002-2.228-.266-3.23-.77l.47-1.66c.858.487 1.823.755 2.81.78.83 0 1.37-.35 1.37-.92 0-.57-.7-.88-1.68-1.12-1.56-.36-2.8-1-2.8-2.57 0-1.57 1.31-2.6 3.31-2.6 1.037.005 2.06.234 3 .67l-.46 1.66c-.81-.414-1.7-.65-2.61-.69-.78 0-1.25.29-1.25.83s.7.85 1.68 1.08c1.58.38 2.82 1 2.82 2.61 0 1.61-1.34 2.7-3.43 2.7zM240 340.11c-1.164.045-2.29-.413-3.092-1.257-.802-.845-1.202-1.993-1.098-3.153-.08-1.176.342-2.33 1.162-3.177.82-.846 1.96-1.305 3.138-1.263 1.167-.042 2.296.42 3.1 1.267.803.848 1.204 2 1.1 3.163.068 1.173-.36 2.32-1.18 3.16-.82.841-1.956 1.299-3.13 1.26zm0-7.14c-1.39 0-2.14 1.11-2.14 2.72s.79 2.7 2.17 2.7 2.13-1.08 2.13-2.69c0-1.61-.79-2.7-2.16-2.7v-.03zM251.45 339.84v-5c0-1.23-.49-1.64-1.44-1.64-.688.018-1.344.293-1.84.77v5.92h-2.12v-8.26l2.12-.29v1.32c.688-.808 1.68-1.293 2.74-1.34.754-.039 1.487.26 2 .813.514.554.756 1.308.66 2.057v5.7l-2.12-.05zM264.57 339.84L262.33 339.84 259.24 328.59 261.58 328.59 263.58 337.16 265.92 328.59 268.44 328.59 270.82 337.16 272.76 328.59 275 328.59 271.9 339.84 269.63 339.84 267.15 331.15zM281.92 339.84v-5c0-1.23-.49-1.64-1.39-1.64-.704.01-1.379.286-1.89.77v5.92h-2.12v-12l2.12-.29v5.06c.708-.818 1.729-1.298 2.81-1.32 1.6 0 2.59 1.08 2.59 2.87v5.7l-2.12-.07zM287.86 336.15c.012.635.284 1.238.753 1.667.469.429 1.093.647 1.727.603.917-.018 1.814-.276 2.6-.75l.27 1.76c-.932.46-1.96.694-3 .68-1.184.094-2.35-.328-3.2-1.158-.849-.83-1.297-1.986-1.23-3.172-.088-1.18.327-2.343 1.142-3.202s1.954-1.334 3.138-1.308c.923-.088 1.839.236 2.5.886.662.65 1.002 1.56.93 2.484-.005.469-.065.935-.18 1.39l-5.44.07-.01.05zm3.62-1.31v-.14c0-1.12-.49-1.82-1.59-1.82-1.105 0-2 .895-2 2l3.59-.04zM296.84 336.15c.012.635.284 1.238.753 1.667.469.429 1.093.647 1.727.603.918-.016 1.815-.275 2.6-.75l.27 1.76c-.932.462-1.96.695-3 .68-1.183.091-2.347-.332-3.196-1.162-.848-.829-1.298-1.983-1.234-3.168-.088-1.182.328-2.347 1.145-3.206s1.96-1.333 3.145-1.304c.923-.089 1.837.236 2.497.886.66.65.998 1.56.923 2.484-.005.469-.065.935-.18 1.39l-5.44.07-.01.05zm3.62-1.31v-.14c0-1.12-.49-1.82-1.59-1.82-1.105 0-2 .895-2 2l3.59-.04zM304.22 339.84L304.22 327.84 306.34 327.55 306.34 339.86zM311.18 340.13c-1.119-.002-2.221-.266-3.22-.77l.47-1.66c.858.487 1.823.755 2.81.78.83 0 1.37-.35 1.37-.92 0-.57-.7-.88-1.68-1.12-1.56-.36-2.81-1-2.81-2.57 0-1.57 1.32-2.6 3.32-2.6 1.036.006 2.06.235 3 .67l-.44 1.66c-.81-.415-1.7-.65-2.61-.69-.77 0-1.24.29-1.24.83s.7.85 1.67 1.08c1.59.38 2.83 1 2.83 2.61 0 1.61-1.34 2.7-3.47 2.7z" transform="translate(-50 -70) translate(50 70)"/>
            </g>
        </g>
    </g>
</svg>
